G75*
G70*
%OFA0B0*%
%FSLAX24Y24*%
%IPPOS*%
%LPD*%
%AMOC8*
5,1,8,0,0,1.08239X$1,22.5*
%
%ADD10C,0.0480*%
%ADD11R,0.0600X0.0600*%
%ADD12OC8,0.0600*%
%ADD13R,0.0709X0.0630*%
%ADD14C,0.0709*%
%ADD15R,0.0880X0.0480*%
%ADD16R,0.0866X0.1417*%
%ADD17R,0.0787X0.0709*%
%ADD18R,0.0250X0.0500*%
%ADD19R,0.0500X0.0250*%
%ADD20C,0.0270*%
%ADD21C,0.0100*%
%ADD22C,0.0160*%
%ADD23C,0.0080*%
D10*
X014310Y003890D03*
X014310Y005790D03*
D11*
X002940Y008840D03*
X000940Y003340D03*
X001940Y002340D03*
X002940Y000840D03*
D12*
X001940Y000840D03*
X000940Y000840D03*
X003940Y000840D03*
X004940Y000840D03*
X005940Y000840D03*
X006940Y000840D03*
X007940Y000840D03*
X008940Y000840D03*
X009940Y000840D03*
X010940Y000840D03*
X011940Y000840D03*
X012940Y000840D03*
X013940Y000840D03*
X014940Y000840D03*
X015940Y000840D03*
X016940Y000840D03*
X017940Y000840D03*
X017940Y008840D03*
X016940Y008840D03*
X015940Y008840D03*
X014940Y008840D03*
X013940Y008840D03*
X012940Y008840D03*
X011940Y008840D03*
X010940Y008840D03*
X009940Y008840D03*
X008940Y008840D03*
X007940Y008840D03*
X006940Y008840D03*
X005940Y008840D03*
X004940Y008840D03*
X003940Y008840D03*
X001940Y008840D03*
X000940Y008840D03*
X001940Y007340D03*
X001940Y006340D03*
X000940Y006340D03*
X000940Y005340D03*
X001940Y005340D03*
X001940Y004340D03*
X000940Y004340D03*
X001940Y003340D03*
D13*
X007740Y006589D03*
X008890Y006589D03*
X008890Y007691D03*
X007740Y007691D03*
D14*
X016240Y006218D03*
X016240Y003462D03*
D15*
X007720Y003630D03*
X007720Y004540D03*
X007720Y005450D03*
D16*
X010160Y004540D03*
D17*
X005337Y004640D03*
X003743Y004640D03*
X003743Y003640D03*
X005337Y003640D03*
D18*
X004342Y002590D03*
X003987Y002590D03*
X014830Y004640D03*
X015180Y004640D03*
X015530Y004640D03*
D19*
X006636Y004645D03*
X006636Y004290D03*
D20*
X006379Y005301D03*
X006601Y005740D03*
X005888Y006497D03*
X005731Y007599D03*
X003507Y006067D03*
X003507Y005301D03*
X008683Y004331D03*
X010573Y003347D03*
X009749Y003068D03*
X010040Y002316D03*
X010340Y001440D03*
X013434Y004071D03*
X014516Y005316D03*
X011124Y005001D03*
X010752Y005840D03*
X010916Y006240D03*
X008959Y005900D03*
X010440Y009140D03*
X004846Y002586D03*
D21*
X006098Y002586D01*
X006872Y001812D01*
X009852Y001812D01*
X010046Y002006D01*
X010240Y001812D01*
X015001Y001812D01*
X015394Y002205D01*
X015394Y003640D01*
X016282Y004528D01*
X016282Y006176D01*
X016240Y006218D01*
X014830Y004990D02*
X014516Y005304D01*
X014516Y005316D01*
X014830Y004990D02*
X014830Y004640D01*
X015180Y004640D02*
X015180Y002285D01*
X014904Y002009D01*
X010454Y002009D01*
X010343Y002120D01*
X010343Y002908D01*
X010101Y003150D01*
X009832Y003150D01*
X009749Y003068D01*
X009996Y002970D02*
X010026Y002970D01*
X010163Y002834D01*
X010163Y002552D01*
X010093Y002581D01*
X009987Y002581D01*
X009890Y002541D01*
X009815Y002466D01*
X009775Y002369D01*
X009775Y002264D01*
X009815Y002166D01*
X009864Y002118D01*
X009864Y002079D01*
X009777Y001992D01*
X008403Y001992D01*
X008364Y007057D01*
X013070Y007057D01*
X013075Y006450D01*
X011080Y006450D01*
X011066Y006465D01*
X010968Y006505D01*
X010863Y006505D01*
X010765Y006465D01*
X010691Y006390D01*
X010651Y006293D01*
X010651Y006187D01*
X010687Y006100D01*
X010602Y006065D01*
X010527Y005990D01*
X010487Y005893D01*
X010487Y005787D01*
X010527Y005690D01*
X010602Y005615D01*
X010699Y005575D01*
X010805Y005575D01*
X010902Y005615D01*
X010917Y005630D01*
X013081Y005630D01*
X013107Y002189D01*
X010529Y002189D01*
X010523Y002195D01*
X010523Y002983D01*
X010281Y003225D01*
X010175Y003330D01*
X009808Y003330D01*
X009802Y003333D01*
X009697Y003333D01*
X009599Y003292D01*
X008393Y003292D01*
X008393Y003391D02*
X013098Y003391D01*
X013097Y003489D02*
X008392Y003489D01*
X008391Y003588D02*
X013097Y003588D01*
X013096Y003686D02*
X010630Y003686D01*
X010613Y003681D02*
X010651Y003692D01*
X010685Y003711D01*
X010713Y003739D01*
X010733Y003773D01*
X010743Y003812D01*
X010743Y004490D01*
X010210Y004490D01*
X010210Y003681D01*
X010613Y003681D01*
X010736Y003785D02*
X013095Y003785D01*
X013094Y003883D02*
X010743Y003883D01*
X010743Y003982D02*
X013094Y003982D01*
X013093Y004080D02*
X010743Y004080D01*
X010743Y004179D02*
X013092Y004179D01*
X013091Y004277D02*
X010743Y004277D01*
X010743Y004376D02*
X013091Y004376D01*
X013090Y004474D02*
X010743Y004474D01*
X010743Y004590D02*
X010743Y005268D01*
X010733Y005307D01*
X010713Y005341D01*
X010685Y005369D01*
X010651Y005388D01*
X010613Y005399D01*
X010210Y005399D01*
X010210Y004590D01*
X010110Y004590D01*
X010110Y004490D01*
X009577Y004490D01*
X009577Y003812D01*
X009587Y003773D01*
X009607Y003739D01*
X009635Y003711D01*
X009669Y003692D01*
X009707Y003681D01*
X010110Y003681D01*
X010110Y004490D01*
X010210Y004490D01*
X010210Y004590D01*
X010743Y004590D01*
X010743Y004671D02*
X013088Y004671D01*
X013089Y004573D02*
X010210Y004573D01*
X010210Y004671D02*
X010110Y004671D01*
X010110Y004590D02*
X010110Y005399D01*
X009707Y005399D01*
X009669Y005388D01*
X009635Y005369D01*
X009607Y005341D01*
X009587Y005307D01*
X009577Y005268D01*
X009577Y004590D01*
X010110Y004590D01*
X010110Y004573D02*
X008384Y004573D01*
X008383Y004671D02*
X009577Y004671D01*
X009577Y004770D02*
X008382Y004770D01*
X008381Y004868D02*
X009577Y004868D01*
X009577Y004967D02*
X008381Y004967D01*
X008380Y005065D02*
X009577Y005065D01*
X009577Y005164D02*
X008379Y005164D01*
X008378Y005262D02*
X009577Y005262D01*
X009627Y005361D02*
X008377Y005361D01*
X008377Y005459D02*
X013082Y005459D01*
X013083Y005361D02*
X010693Y005361D01*
X010743Y005262D02*
X013084Y005262D01*
X013085Y005164D02*
X010743Y005164D01*
X010743Y005065D02*
X013085Y005065D01*
X013086Y004967D02*
X010743Y004967D01*
X010743Y004868D02*
X013087Y004868D01*
X013088Y004770D02*
X010743Y004770D01*
X010210Y004770D02*
X010110Y004770D01*
X010110Y004868D02*
X010210Y004868D01*
X010210Y004967D02*
X010110Y004967D01*
X010110Y005065D02*
X010210Y005065D01*
X010210Y005164D02*
X010110Y005164D01*
X010110Y005262D02*
X010210Y005262D01*
X010210Y005361D02*
X010110Y005361D01*
X010561Y005656D02*
X008375Y005656D01*
X008376Y005558D02*
X013081Y005558D01*
X013074Y006543D02*
X008940Y006543D01*
X008940Y006539D02*
X008940Y006639D01*
X008840Y006639D01*
X008840Y007054D01*
X008516Y007054D01*
X008478Y007044D01*
X008444Y007024D01*
X008416Y006996D01*
X008396Y006962D01*
X008386Y006924D01*
X008386Y006639D01*
X008840Y006639D01*
X008840Y006539D01*
X008386Y006539D01*
X008386Y006254D01*
X008396Y006216D01*
X008416Y006182D01*
X008444Y006154D01*
X008478Y006134D01*
X008516Y006124D01*
X008840Y006124D01*
X008840Y006539D01*
X008940Y006539D01*
X009394Y006539D01*
X009394Y006254D01*
X009384Y006216D01*
X009364Y006182D01*
X009336Y006154D01*
X009302Y006134D01*
X009264Y006124D01*
X008940Y006124D01*
X008940Y006539D01*
X008940Y006444D02*
X008840Y006444D01*
X008840Y006346D02*
X008940Y006346D01*
X008940Y006247D02*
X008840Y006247D01*
X008840Y006149D02*
X008940Y006149D01*
X009327Y006149D02*
X010667Y006149D01*
X010651Y006247D02*
X009392Y006247D01*
X009394Y006346D02*
X010672Y006346D01*
X010745Y006444D02*
X009394Y006444D01*
X009394Y006639D02*
X008940Y006639D01*
X008940Y007054D01*
X009264Y007054D01*
X009302Y007044D01*
X009336Y007024D01*
X009364Y006996D01*
X009384Y006962D01*
X009394Y006924D01*
X009394Y006639D01*
X009394Y006641D02*
X013073Y006641D01*
X013072Y006740D02*
X009394Y006740D01*
X009394Y006838D02*
X013072Y006838D01*
X013071Y006937D02*
X009391Y006937D01*
X009317Y007035D02*
X013070Y007035D01*
X010587Y006050D02*
X008372Y006050D01*
X008373Y005952D02*
X010511Y005952D01*
X010487Y005853D02*
X008374Y005853D01*
X008374Y005755D02*
X010500Y005755D01*
X008940Y006641D02*
X008840Y006641D01*
X008840Y006543D02*
X008368Y006543D01*
X008368Y006641D02*
X008386Y006641D01*
X008386Y006740D02*
X008367Y006740D01*
X008366Y006838D02*
X008386Y006838D01*
X008389Y006937D02*
X008365Y006937D01*
X008365Y007035D02*
X008463Y007035D01*
X008840Y007035D02*
X008940Y007035D01*
X008940Y006937D02*
X008840Y006937D01*
X008840Y006838D02*
X008940Y006838D01*
X008940Y006740D02*
X008840Y006740D01*
X008386Y006444D02*
X008369Y006444D01*
X008370Y006346D02*
X008386Y006346D01*
X008388Y006247D02*
X008371Y006247D01*
X008371Y006149D02*
X008453Y006149D01*
X006601Y005740D02*
X003834Y005740D01*
X003507Y006067D01*
X003507Y008390D01*
X003940Y008840D01*
X002940Y008840D02*
X002940Y005868D01*
X003507Y005301D01*
X006379Y005301D01*
X008384Y004474D02*
X009577Y004474D01*
X009577Y004376D02*
X008385Y004376D01*
X008386Y004277D02*
X009577Y004277D01*
X009577Y004179D02*
X008387Y004179D01*
X008387Y004080D02*
X009577Y004080D01*
X009577Y003982D02*
X008388Y003982D01*
X008389Y003883D02*
X009577Y003883D01*
X009584Y003785D02*
X008390Y003785D01*
X008390Y003686D02*
X009690Y003686D01*
X010110Y003686D02*
X010210Y003686D01*
X010210Y003785D02*
X010110Y003785D01*
X010110Y003883D02*
X010210Y003883D01*
X010210Y003982D02*
X010110Y003982D01*
X010110Y004080D02*
X010210Y004080D01*
X010210Y004179D02*
X010110Y004179D01*
X010110Y004277D02*
X010210Y004277D01*
X010210Y004376D02*
X010110Y004376D01*
X010110Y004474D02*
X010210Y004474D01*
X010213Y003292D02*
X013099Y003292D01*
X013100Y003194D02*
X010312Y003194D01*
X010410Y003095D02*
X013100Y003095D01*
X013101Y002997D02*
X010509Y002997D01*
X010523Y002898D02*
X013102Y002898D01*
X013103Y002800D02*
X010523Y002800D01*
X010523Y002701D02*
X013103Y002701D01*
X013104Y002603D02*
X010523Y002603D01*
X010523Y002504D02*
X013105Y002504D01*
X013106Y002406D02*
X010523Y002406D01*
X010523Y002307D02*
X013106Y002307D01*
X013107Y002209D02*
X010523Y002209D01*
X010040Y002316D02*
X010046Y002006D01*
X009864Y002110D02*
X008403Y002110D01*
X008403Y002012D02*
X009797Y002012D01*
X009798Y002209D02*
X008402Y002209D01*
X008401Y002307D02*
X009775Y002307D01*
X009790Y002406D02*
X008400Y002406D01*
X008399Y002504D02*
X009853Y002504D01*
X010163Y002603D02*
X008399Y002603D01*
X008398Y002701D02*
X010163Y002701D01*
X010163Y002800D02*
X008397Y002800D01*
X008396Y002898D02*
X009544Y002898D01*
X009525Y002917D02*
X009599Y002843D01*
X009697Y002803D01*
X009802Y002803D01*
X009900Y002843D01*
X009974Y002917D01*
X009996Y002970D01*
X009955Y002898D02*
X010098Y002898D01*
X009525Y002917D02*
X009484Y003015D01*
X009484Y003120D01*
X009525Y003218D01*
X009599Y003292D01*
X009515Y003194D02*
X008394Y003194D01*
X008395Y003095D02*
X009484Y003095D01*
X009492Y002997D02*
X008396Y002997D01*
X005888Y006497D02*
X005888Y007442D01*
X005731Y007599D01*
D22*
X007740Y006589D02*
X007740Y005470D01*
X007720Y005450D01*
X007345Y005434D01*
X007234Y005434D01*
X006640Y004840D01*
X006636Y004645D01*
X006036Y004640D01*
X005337Y004640D01*
X005337Y003640D01*
X005290Y003450D01*
X005046Y003450D01*
X004342Y002746D01*
X004342Y002590D01*
X003987Y002590D02*
X003987Y002864D01*
X003992Y003168D01*
X003992Y003632D01*
X003743Y003640D01*
X002240Y004640D02*
X001940Y004340D01*
X002240Y004640D02*
X003743Y004640D01*
X006636Y004290D02*
X006949Y004290D01*
X007187Y004528D01*
X007720Y004540D01*
X010160Y004540D01*
X010752Y005840D02*
X013247Y005840D01*
X014300Y004800D01*
X014310Y004790D01*
X014310Y003890D01*
X014311Y005790D02*
X014310Y005790D01*
X014311Y005790D02*
X013861Y006240D01*
X010916Y006240D01*
X008890Y006589D02*
X008788Y006589D01*
X008801Y006575D01*
X008762Y006575D01*
X003987Y002590D02*
X003987Y001840D01*
X003644Y001497D01*
X001597Y001497D01*
X000940Y000840D01*
D23*
X000673Y000376D02*
X018207Y000376D01*
X018161Y000330D02*
X018550Y000719D01*
X018550Y008961D01*
X018161Y009350D01*
X000719Y009350D01*
X000330Y008961D01*
X000330Y000719D01*
X000719Y000330D01*
X018161Y000330D01*
X018114Y000420D02*
X018360Y000666D01*
X018360Y001014D01*
X018114Y001260D01*
X017766Y001260D01*
X017520Y001014D01*
X017520Y000666D01*
X017766Y000420D01*
X018114Y000420D01*
X018148Y000454D02*
X018285Y000454D01*
X018226Y000533D02*
X018364Y000533D01*
X018305Y000611D02*
X018442Y000611D01*
X018521Y000690D02*
X018360Y000690D01*
X018360Y000768D02*
X018550Y000768D01*
X018550Y000847D02*
X018360Y000847D01*
X018360Y000925D02*
X018550Y000925D01*
X018550Y001004D02*
X018360Y001004D01*
X018292Y001082D02*
X018550Y001082D01*
X018550Y001161D02*
X018213Y001161D01*
X018135Y001239D02*
X018550Y001239D01*
X018550Y001318D02*
X003748Y001318D01*
X003727Y001297D02*
X004187Y001757D01*
X004187Y002220D01*
X004516Y002220D01*
X004587Y002290D01*
X004587Y002708D01*
X005045Y003166D01*
X005781Y003166D01*
X005851Y003236D01*
X005851Y004044D01*
X005781Y004114D01*
X005537Y004114D01*
X005537Y004166D01*
X005781Y004166D01*
X005851Y004236D01*
X005851Y004440D01*
X005954Y004440D01*
X005955Y004439D01*
X006037Y004440D01*
X006119Y004440D01*
X006120Y004441D01*
X006266Y004442D01*
X006266Y004116D01*
X006336Y004045D01*
X006936Y004045D01*
X006981Y004090D01*
X007032Y004090D01*
X007176Y004234D01*
X007230Y004180D01*
X008210Y004180D01*
X008217Y004187D01*
X008218Y003998D01*
X008214Y004000D01*
X008178Y004010D01*
X007760Y004010D01*
X007760Y003670D01*
X007680Y003670D01*
X007680Y004010D01*
X007262Y004010D01*
X007226Y004000D01*
X007194Y003982D01*
X007168Y003956D01*
X007150Y003924D01*
X007140Y003888D01*
X007140Y003670D01*
X007680Y003670D01*
X007680Y003590D01*
X007760Y003590D01*
X007760Y003250D01*
X008178Y003250D01*
X008214Y003260D01*
X008224Y003265D01*
X008233Y001982D01*
X006943Y001982D01*
X006169Y002756D01*
X005037Y002756D01*
X004991Y002802D01*
X004897Y002841D01*
X004796Y002841D01*
X004702Y002802D01*
X004630Y002730D01*
X004591Y002636D01*
X004591Y002535D01*
X004630Y002441D01*
X004702Y002369D01*
X004796Y002331D01*
X004897Y002331D01*
X004991Y002369D01*
X005037Y002416D01*
X006028Y002416D01*
X006702Y001741D01*
X006802Y001642D01*
X009922Y001642D01*
X010046Y001765D01*
X010169Y001642D01*
X015071Y001642D01*
X015465Y002035D01*
X015564Y002135D01*
X015564Y003570D01*
X016352Y004358D01*
X016452Y004457D01*
X016452Y005792D01*
X018550Y005792D01*
X018550Y005714D02*
X016452Y005714D01*
X016452Y005792D02*
X016509Y005816D01*
X016642Y005949D01*
X018550Y005949D01*
X018550Y005871D02*
X016563Y005871D01*
X016642Y005949D02*
X016714Y006124D01*
X016714Y006312D01*
X016642Y006487D01*
X016509Y006620D01*
X016334Y006692D01*
X016146Y006692D01*
X015971Y006620D01*
X015838Y006487D01*
X015766Y006312D01*
X015766Y006124D01*
X015838Y005949D01*
X014634Y005949D01*
X014615Y005994D02*
X014514Y006095D01*
X014382Y006150D01*
X014238Y006150D01*
X014235Y006149D01*
X013944Y006440D01*
X013245Y006440D01*
X013240Y007058D01*
X013240Y007128D01*
X013239Y007128D01*
X013239Y007129D01*
X013190Y007178D01*
X013140Y007227D01*
X013140Y007227D01*
X013139Y007228D01*
X013069Y007227D01*
X008434Y007227D01*
X008434Y007228D01*
X008364Y007227D01*
X008294Y007227D01*
X008293Y007227D01*
X008244Y007177D01*
X008194Y007128D01*
X008194Y007127D01*
X008194Y007126D01*
X008194Y007057D01*
X008194Y006987D01*
X008195Y006986D01*
X008195Y006973D01*
X008144Y007024D01*
X007336Y007024D01*
X007266Y006953D01*
X007266Y006224D01*
X007336Y006154D01*
X007540Y006154D01*
X007540Y005810D01*
X007230Y005810D01*
X007160Y005740D01*
X007160Y005634D01*
X007151Y005634D01*
X006500Y004983D01*
X006442Y004927D01*
X006442Y004925D01*
X006440Y004923D01*
X006440Y004890D01*
X006336Y004890D01*
X006289Y004842D01*
X006035Y004840D01*
X005851Y004840D01*
X005851Y005044D01*
X005781Y005114D01*
X004894Y005114D01*
X004824Y005044D01*
X004824Y004236D01*
X004894Y004166D01*
X005137Y004166D01*
X005137Y004114D01*
X004894Y004114D01*
X004824Y004044D01*
X004824Y003510D01*
X004273Y002960D01*
X004189Y002960D01*
X004191Y003084D01*
X004192Y003086D01*
X004192Y003167D01*
X004192Y003172D01*
X004256Y003236D01*
X004256Y004044D01*
X004186Y004114D01*
X003299Y004114D01*
X003229Y004044D01*
X003229Y003236D01*
X003299Y003166D01*
X003792Y003166D01*
X003789Y002948D01*
X003787Y002946D01*
X003787Y002935D01*
X003742Y002890D01*
X003742Y002290D01*
X003787Y002245D01*
X003787Y001923D01*
X003561Y001697D01*
X001514Y001697D01*
X001077Y001260D01*
X000766Y001260D01*
X000520Y001014D01*
X000520Y000666D01*
X000766Y000420D01*
X001114Y000420D01*
X001360Y000666D01*
X001360Y000977D01*
X001680Y001297D01*
X003727Y001297D01*
X003766Y001260D02*
X003520Y001014D01*
X003520Y000666D01*
X003766Y000420D01*
X004114Y000420D01*
X004360Y000666D01*
X004360Y001014D01*
X004114Y001260D01*
X003766Y001260D01*
X003745Y001239D02*
X003311Y001239D01*
X003290Y001260D02*
X003360Y001190D01*
X003360Y000490D01*
X003290Y000420D01*
X002590Y000420D01*
X002520Y000490D01*
X002520Y001190D01*
X002590Y001260D01*
X003290Y001260D01*
X003360Y001161D02*
X003667Y001161D01*
X003588Y001082D02*
X003360Y001082D01*
X003360Y001004D02*
X003520Y001004D01*
X003520Y000925D02*
X003360Y000925D01*
X003360Y000847D02*
X003520Y000847D01*
X003520Y000768D02*
X003360Y000768D01*
X003360Y000690D02*
X003520Y000690D01*
X003575Y000611D02*
X003360Y000611D01*
X003360Y000533D02*
X003654Y000533D01*
X003732Y000454D02*
X003324Y000454D01*
X002556Y000454D02*
X002148Y000454D01*
X002114Y000420D02*
X002360Y000666D01*
X002360Y001014D01*
X002114Y001260D01*
X001766Y001260D01*
X001520Y001014D01*
X001520Y000666D01*
X001766Y000420D01*
X002114Y000420D01*
X002226Y000533D02*
X002520Y000533D01*
X002520Y000611D02*
X002305Y000611D01*
X002360Y000690D02*
X002520Y000690D01*
X002520Y000768D02*
X002360Y000768D01*
X002360Y000847D02*
X002520Y000847D01*
X002520Y000925D02*
X002360Y000925D01*
X002360Y001004D02*
X002520Y001004D01*
X002520Y001082D02*
X002292Y001082D01*
X002213Y001161D02*
X002520Y001161D01*
X002569Y001239D02*
X002135Y001239D01*
X001745Y001239D02*
X001622Y001239D01*
X001667Y001161D02*
X001543Y001161D01*
X001588Y001082D02*
X001465Y001082D01*
X001520Y001004D02*
X001386Y001004D01*
X001360Y000925D02*
X001520Y000925D01*
X001520Y000847D02*
X001360Y000847D01*
X001360Y000768D02*
X001520Y000768D01*
X001520Y000690D02*
X001360Y000690D01*
X001305Y000611D02*
X001575Y000611D01*
X001654Y000533D02*
X001226Y000533D01*
X001148Y000454D02*
X001732Y000454D01*
X000732Y000454D02*
X000595Y000454D01*
X000654Y000533D02*
X000516Y000533D01*
X000575Y000611D02*
X000438Y000611D01*
X000359Y000690D02*
X000520Y000690D01*
X000520Y000768D02*
X000330Y000768D01*
X000330Y000847D02*
X000520Y000847D01*
X000520Y000925D02*
X000330Y000925D01*
X000330Y001004D02*
X000520Y001004D01*
X000588Y001082D02*
X000330Y001082D01*
X000330Y001161D02*
X000667Y001161D01*
X000745Y001239D02*
X000330Y001239D01*
X000330Y001318D02*
X001135Y001318D01*
X001213Y001396D02*
X000330Y001396D01*
X000330Y001475D02*
X001292Y001475D01*
X001370Y001553D02*
X000330Y001553D01*
X000330Y001632D02*
X001449Y001632D01*
X001586Y001910D02*
X001622Y001900D01*
X001900Y001900D01*
X001900Y002300D01*
X001980Y002300D01*
X001980Y002380D01*
X001900Y002380D01*
X001900Y002780D01*
X001622Y002780D01*
X001586Y002770D01*
X001554Y002752D01*
X001528Y002726D01*
X001510Y002694D01*
X001500Y002658D01*
X001500Y002380D01*
X001900Y002380D01*
X001900Y002300D01*
X001500Y002300D01*
X001500Y002022D01*
X001510Y001986D01*
X001528Y001954D01*
X001554Y001928D01*
X001586Y001910D01*
X001537Y001946D02*
X000330Y001946D01*
X000330Y002024D02*
X001500Y002024D01*
X001500Y002103D02*
X000330Y002103D01*
X000330Y002181D02*
X001500Y002181D01*
X001500Y002260D02*
X000330Y002260D01*
X000330Y002338D02*
X001900Y002338D01*
X001900Y002260D02*
X001980Y002260D01*
X001980Y002300D02*
X001980Y001900D01*
X002258Y001900D01*
X002294Y001910D01*
X002326Y001928D01*
X002352Y001954D01*
X002370Y001986D01*
X002380Y002022D01*
X002380Y002300D01*
X001980Y002300D01*
X001980Y002338D02*
X003742Y002338D01*
X003742Y002417D02*
X002380Y002417D01*
X002380Y002380D02*
X002380Y002658D01*
X002370Y002694D01*
X002352Y002726D01*
X002326Y002752D01*
X002294Y002770D01*
X002258Y002780D01*
X001980Y002780D01*
X001980Y002380D01*
X002380Y002380D01*
X002380Y002495D02*
X003742Y002495D01*
X003742Y002574D02*
X002380Y002574D01*
X002380Y002652D02*
X003742Y002652D01*
X003742Y002731D02*
X002347Y002731D01*
X002114Y002920D02*
X002360Y003166D01*
X002360Y003514D01*
X002114Y003760D01*
X001766Y003760D01*
X001520Y003514D01*
X001520Y003166D01*
X001766Y002920D01*
X002114Y002920D01*
X002160Y002966D02*
X003789Y002966D01*
X003790Y003045D02*
X002238Y003045D01*
X002317Y003123D02*
X003791Y003123D01*
X004192Y003123D02*
X004436Y003123D01*
X004358Y003045D02*
X004190Y003045D01*
X004189Y002966D02*
X004279Y002966D01*
X004609Y002731D02*
X004631Y002731D01*
X004598Y002652D02*
X004587Y002652D01*
X004587Y002574D02*
X004591Y002574D01*
X004587Y002495D02*
X004608Y002495D01*
X004587Y002417D02*
X004655Y002417D01*
X004587Y002338D02*
X004778Y002338D01*
X004915Y002338D02*
X006106Y002338D01*
X006184Y002260D02*
X004556Y002260D01*
X004187Y002181D02*
X006263Y002181D01*
X006341Y002103D02*
X004187Y002103D01*
X004187Y002024D02*
X006420Y002024D01*
X006498Y001946D02*
X004187Y001946D01*
X004187Y001867D02*
X006577Y001867D01*
X006655Y001789D02*
X004187Y001789D01*
X004140Y001710D02*
X006734Y001710D01*
X006900Y002024D02*
X008233Y002024D01*
X008233Y002103D02*
X006822Y002103D01*
X006743Y002181D02*
X008232Y002181D01*
X008231Y002260D02*
X006665Y002260D01*
X006586Y002338D02*
X008231Y002338D01*
X008230Y002417D02*
X006508Y002417D01*
X006429Y002495D02*
X008230Y002495D01*
X008229Y002574D02*
X006351Y002574D01*
X006272Y002652D02*
X008228Y002652D01*
X008228Y002731D02*
X006194Y002731D01*
X005816Y003202D02*
X008224Y003202D01*
X008225Y003123D02*
X005002Y003123D01*
X004923Y003045D02*
X008225Y003045D01*
X008226Y002966D02*
X004845Y002966D01*
X004766Y002888D02*
X008227Y002888D01*
X008227Y002809D02*
X004973Y002809D01*
X004719Y002809D02*
X004688Y002809D01*
X004515Y003202D02*
X004222Y003202D01*
X004256Y003280D02*
X004593Y003280D01*
X004672Y003359D02*
X004256Y003359D01*
X004256Y003437D02*
X004750Y003437D01*
X004824Y003516D02*
X004256Y003516D01*
X004256Y003594D02*
X004824Y003594D01*
X004824Y003673D02*
X004256Y003673D01*
X004256Y003751D02*
X004824Y003751D01*
X004824Y003830D02*
X004256Y003830D01*
X004256Y003908D02*
X004824Y003908D01*
X004824Y003987D02*
X004256Y003987D01*
X004235Y004065D02*
X004845Y004065D01*
X004837Y004222D02*
X004243Y004222D01*
X004256Y004236D02*
X004256Y005044D01*
X004186Y005114D01*
X003681Y005114D01*
X003698Y005131D01*
X006189Y005131D01*
X006235Y005084D01*
X006329Y005046D01*
X006430Y005046D01*
X006524Y005084D01*
X006596Y005156D01*
X006634Y005250D01*
X006634Y005351D01*
X006596Y005445D01*
X006556Y005485D01*
X006651Y005485D01*
X006745Y005524D01*
X006817Y005596D01*
X006856Y005689D01*
X006856Y005791D01*
X006817Y005884D01*
X006745Y005956D01*
X006651Y005995D01*
X006550Y005995D01*
X006456Y005956D01*
X006410Y005910D01*
X003904Y005910D01*
X003762Y006052D01*
X003762Y006118D01*
X003723Y006211D01*
X003677Y006258D01*
X003677Y008321D01*
X003772Y008420D01*
X004114Y008420D01*
X004360Y008666D01*
X004360Y009014D01*
X004114Y009260D01*
X003766Y009260D01*
X003520Y009014D01*
X003520Y008666D01*
X003529Y008657D01*
X003386Y008509D01*
X003337Y008460D01*
X003337Y008458D01*
X003336Y008457D01*
X003337Y008388D01*
X003337Y006258D01*
X003291Y006211D01*
X003252Y006118D01*
X003252Y006016D01*
X003291Y005922D01*
X003362Y005851D01*
X003456Y005812D01*
X003522Y005812D01*
X003763Y005570D01*
X006410Y005570D01*
X006424Y005556D01*
X006329Y005556D01*
X006235Y005517D01*
X006189Y005471D01*
X003698Y005471D01*
X003651Y005517D01*
X003558Y005556D01*
X003492Y005556D01*
X003110Y005938D01*
X003110Y008420D01*
X003290Y008420D01*
X003360Y008490D01*
X003360Y009190D01*
X003290Y009260D01*
X002590Y009260D01*
X002520Y009190D01*
X002520Y008490D01*
X002590Y008420D01*
X002770Y008420D01*
X002770Y005797D01*
X003252Y005315D01*
X003252Y005250D01*
X003291Y005156D01*
X003333Y005114D01*
X003299Y005114D01*
X003229Y005044D01*
X003229Y004840D01*
X002157Y004840D01*
X002077Y004760D01*
X001766Y004760D01*
X001520Y004514D01*
X001520Y004166D01*
X001766Y003920D01*
X002114Y003920D01*
X002360Y004166D01*
X002360Y004440D01*
X003229Y004440D01*
X003229Y004236D01*
X003299Y004166D01*
X004186Y004166D01*
X004256Y004236D01*
X004256Y004301D02*
X004824Y004301D01*
X004824Y004379D02*
X004256Y004379D01*
X004256Y004458D02*
X004824Y004458D01*
X004824Y004536D02*
X004256Y004536D01*
X004256Y004615D02*
X004824Y004615D01*
X004824Y004693D02*
X004256Y004693D01*
X004256Y004772D02*
X004824Y004772D01*
X004824Y004850D02*
X004256Y004850D01*
X004256Y004929D02*
X004824Y004929D01*
X004824Y005007D02*
X004256Y005007D01*
X004215Y005086D02*
X004865Y005086D01*
X005809Y005086D02*
X006234Y005086D01*
X006525Y005086D02*
X006603Y005086D01*
X006599Y005164D02*
X006681Y005164D01*
X006631Y005243D02*
X006760Y005243D01*
X006838Y005321D02*
X006634Y005321D01*
X006614Y005400D02*
X006917Y005400D01*
X006995Y005478D02*
X006563Y005478D01*
X006423Y005557D02*
X003491Y005557D01*
X003413Y005635D02*
X003698Y005635D01*
X003620Y005714D02*
X003334Y005714D01*
X003256Y005792D02*
X003541Y005792D01*
X003343Y005871D02*
X003177Y005871D01*
X003110Y005949D02*
X003280Y005949D01*
X003252Y006028D02*
X003110Y006028D01*
X003110Y006106D02*
X003252Y006106D01*
X003280Y006185D02*
X003110Y006185D01*
X003110Y006263D02*
X003337Y006263D01*
X003337Y006342D02*
X003110Y006342D01*
X003110Y006420D02*
X003337Y006420D01*
X003337Y006499D02*
X003110Y006499D01*
X003110Y006577D02*
X003337Y006577D01*
X003337Y006656D02*
X003110Y006656D01*
X003110Y006734D02*
X003337Y006734D01*
X003337Y006813D02*
X003110Y006813D01*
X003110Y006891D02*
X003337Y006891D01*
X003337Y006970D02*
X003110Y006970D01*
X003110Y007048D02*
X003337Y007048D01*
X003337Y007127D02*
X003110Y007127D01*
X003110Y007205D02*
X003337Y007205D01*
X003337Y007284D02*
X003110Y007284D01*
X003110Y007362D02*
X003337Y007362D01*
X003337Y007441D02*
X003110Y007441D01*
X003110Y007519D02*
X003337Y007519D01*
X003337Y007598D02*
X003110Y007598D01*
X003110Y007676D02*
X003337Y007676D01*
X003337Y007755D02*
X003110Y007755D01*
X003110Y007833D02*
X003337Y007833D01*
X003337Y007912D02*
X003110Y007912D01*
X003110Y007990D02*
X003337Y007990D01*
X003337Y008069D02*
X003110Y008069D01*
X003110Y008147D02*
X003337Y008147D01*
X003337Y008226D02*
X003110Y008226D01*
X003110Y008304D02*
X003337Y008304D01*
X003337Y008383D02*
X003110Y008383D01*
X003331Y008461D02*
X003338Y008461D01*
X003360Y008540D02*
X003415Y008540D01*
X003360Y008618D02*
X003491Y008618D01*
X003520Y008697D02*
X003360Y008697D01*
X003360Y008775D02*
X003520Y008775D01*
X003520Y008854D02*
X003360Y008854D01*
X003360Y008932D02*
X003520Y008932D01*
X003520Y009011D02*
X003360Y009011D01*
X003360Y009089D02*
X003595Y009089D01*
X003674Y009168D02*
X003360Y009168D01*
X003304Y009246D02*
X003752Y009246D01*
X004128Y009246D02*
X004752Y009246D01*
X004766Y009260D02*
X004520Y009014D01*
X004520Y008666D01*
X004766Y008420D01*
X005114Y008420D01*
X005360Y008666D01*
X005360Y009014D01*
X005114Y009260D01*
X004766Y009260D01*
X004674Y009168D02*
X004206Y009168D01*
X004285Y009089D02*
X004595Y009089D01*
X004520Y009011D02*
X004360Y009011D01*
X004360Y008932D02*
X004520Y008932D01*
X004520Y008854D02*
X004360Y008854D01*
X004360Y008775D02*
X004520Y008775D01*
X004520Y008697D02*
X004360Y008697D01*
X004312Y008618D02*
X004568Y008618D01*
X004647Y008540D02*
X004233Y008540D01*
X004155Y008461D02*
X004725Y008461D01*
X005155Y008461D02*
X005725Y008461D01*
X005766Y008420D02*
X006114Y008420D01*
X006360Y008666D01*
X006360Y009014D01*
X006114Y009260D01*
X005766Y009260D01*
X005520Y009014D01*
X005520Y008666D01*
X005766Y008420D01*
X005647Y008540D02*
X005233Y008540D01*
X005312Y008618D02*
X005568Y008618D01*
X005520Y008697D02*
X005360Y008697D01*
X005360Y008775D02*
X005520Y008775D01*
X005520Y008854D02*
X005360Y008854D01*
X005360Y008932D02*
X005520Y008932D01*
X005520Y009011D02*
X005360Y009011D01*
X005285Y009089D02*
X005595Y009089D01*
X005674Y009168D02*
X005206Y009168D01*
X005128Y009246D02*
X005752Y009246D01*
X006128Y009246D02*
X006752Y009246D01*
X006766Y009260D02*
X006520Y009014D01*
X006520Y008666D01*
X006766Y008420D01*
X007114Y008420D01*
X007360Y008666D01*
X007360Y009014D01*
X007114Y009260D01*
X006766Y009260D01*
X006674Y009168D02*
X006206Y009168D01*
X006285Y009089D02*
X006595Y009089D01*
X006520Y009011D02*
X006360Y009011D01*
X006360Y008932D02*
X006520Y008932D01*
X006520Y008854D02*
X006360Y008854D01*
X006360Y008775D02*
X006520Y008775D01*
X006520Y008697D02*
X006360Y008697D01*
X006312Y008618D02*
X006568Y008618D01*
X006647Y008540D02*
X006233Y008540D01*
X006155Y008461D02*
X006725Y008461D01*
X007155Y008461D02*
X007725Y008461D01*
X007766Y008420D02*
X008114Y008420D01*
X008360Y008666D01*
X008360Y009014D01*
X008114Y009260D01*
X007766Y009260D01*
X007520Y009014D01*
X007520Y008666D01*
X007766Y008420D01*
X007647Y008540D02*
X007233Y008540D01*
X007312Y008618D02*
X007568Y008618D01*
X007520Y008697D02*
X007360Y008697D01*
X007360Y008775D02*
X007520Y008775D01*
X007520Y008854D02*
X007360Y008854D01*
X007360Y008932D02*
X007520Y008932D01*
X007520Y009011D02*
X007360Y009011D01*
X007285Y009089D02*
X007595Y009089D01*
X007674Y009168D02*
X007206Y009168D01*
X007128Y009246D02*
X007752Y009246D01*
X008128Y009246D02*
X008752Y009246D01*
X008766Y009260D02*
X008520Y009014D01*
X008520Y008666D01*
X008766Y008420D01*
X009114Y008420D01*
X009360Y008666D01*
X009360Y009014D01*
X009114Y009260D01*
X008766Y009260D01*
X008674Y009168D02*
X008206Y009168D01*
X008285Y009089D02*
X008595Y009089D01*
X008520Y009011D02*
X008360Y009011D01*
X008360Y008932D02*
X008520Y008932D01*
X008520Y008854D02*
X008360Y008854D01*
X008360Y008775D02*
X008520Y008775D01*
X008520Y008697D02*
X008360Y008697D01*
X008312Y008618D02*
X008568Y008618D01*
X008647Y008540D02*
X008233Y008540D01*
X008155Y008461D02*
X008725Y008461D01*
X009155Y008461D02*
X009725Y008461D01*
X009766Y008420D02*
X010114Y008420D01*
X010360Y008666D01*
X010360Y009014D01*
X010114Y009260D01*
X009766Y009260D01*
X009520Y009014D01*
X009520Y008666D01*
X009766Y008420D01*
X009647Y008540D02*
X009233Y008540D01*
X009312Y008618D02*
X009568Y008618D01*
X009520Y008697D02*
X009360Y008697D01*
X009360Y008775D02*
X009520Y008775D01*
X009520Y008854D02*
X009360Y008854D01*
X009360Y008932D02*
X009520Y008932D01*
X009520Y009011D02*
X009360Y009011D01*
X009285Y009089D02*
X009595Y009089D01*
X009674Y009168D02*
X009206Y009168D01*
X009128Y009246D02*
X009752Y009246D01*
X010128Y009246D02*
X010752Y009246D01*
X010766Y009260D02*
X010520Y009014D01*
X010520Y008666D01*
X010766Y008420D01*
X011114Y008420D01*
X011360Y008666D01*
X011360Y009014D01*
X011114Y009260D01*
X010766Y009260D01*
X010674Y009168D02*
X010206Y009168D01*
X010285Y009089D02*
X010595Y009089D01*
X010520Y009011D02*
X010360Y009011D01*
X010360Y008932D02*
X010520Y008932D01*
X010520Y008854D02*
X010360Y008854D01*
X010360Y008775D02*
X010520Y008775D01*
X010520Y008697D02*
X010360Y008697D01*
X010312Y008618D02*
X010568Y008618D01*
X010647Y008540D02*
X010233Y008540D01*
X010155Y008461D02*
X010725Y008461D01*
X011155Y008461D02*
X011725Y008461D01*
X011766Y008420D02*
X012114Y008420D01*
X012360Y008666D01*
X012360Y009014D01*
X012114Y009260D01*
X011766Y009260D01*
X011520Y009014D01*
X011520Y008666D01*
X011766Y008420D01*
X011647Y008540D02*
X011233Y008540D01*
X011312Y008618D02*
X011568Y008618D01*
X011520Y008697D02*
X011360Y008697D01*
X011360Y008775D02*
X011520Y008775D01*
X011520Y008854D02*
X011360Y008854D01*
X011360Y008932D02*
X011520Y008932D01*
X011520Y009011D02*
X011360Y009011D01*
X011285Y009089D02*
X011595Y009089D01*
X011674Y009168D02*
X011206Y009168D01*
X011128Y009246D02*
X011752Y009246D01*
X012128Y009246D02*
X012752Y009246D01*
X012766Y009260D02*
X012520Y009014D01*
X012520Y008666D01*
X012766Y008420D01*
X013114Y008420D01*
X013360Y008666D01*
X013360Y009014D01*
X013114Y009260D01*
X012766Y009260D01*
X012674Y009168D02*
X012206Y009168D01*
X012285Y009089D02*
X012595Y009089D01*
X012520Y009011D02*
X012360Y009011D01*
X012360Y008932D02*
X012520Y008932D01*
X012520Y008854D02*
X012360Y008854D01*
X012360Y008775D02*
X012520Y008775D01*
X012520Y008697D02*
X012360Y008697D01*
X012312Y008618D02*
X012568Y008618D01*
X012647Y008540D02*
X012233Y008540D01*
X012155Y008461D02*
X012725Y008461D01*
X013155Y008461D02*
X013725Y008461D01*
X013766Y008420D02*
X014114Y008420D01*
X014360Y008666D01*
X014360Y009014D01*
X014114Y009260D01*
X013766Y009260D01*
X013520Y009014D01*
X013520Y008666D01*
X013766Y008420D01*
X013647Y008540D02*
X013233Y008540D01*
X013312Y008618D02*
X013568Y008618D01*
X013520Y008697D02*
X013360Y008697D01*
X013360Y008775D02*
X013520Y008775D01*
X013520Y008854D02*
X013360Y008854D01*
X013360Y008932D02*
X013520Y008932D01*
X013520Y009011D02*
X013360Y009011D01*
X013285Y009089D02*
X013595Y009089D01*
X013674Y009168D02*
X013206Y009168D01*
X013128Y009246D02*
X013752Y009246D01*
X014128Y009246D02*
X014752Y009246D01*
X014766Y009260D02*
X014520Y009014D01*
X014520Y008666D01*
X014766Y008420D01*
X015114Y008420D01*
X015360Y008666D01*
X015360Y009014D01*
X015114Y009260D01*
X014766Y009260D01*
X014674Y009168D02*
X014206Y009168D01*
X014285Y009089D02*
X014595Y009089D01*
X014520Y009011D02*
X014360Y009011D01*
X014360Y008932D02*
X014520Y008932D01*
X014520Y008854D02*
X014360Y008854D01*
X014360Y008775D02*
X014520Y008775D01*
X014520Y008697D02*
X014360Y008697D01*
X014312Y008618D02*
X014568Y008618D01*
X014647Y008540D02*
X014233Y008540D01*
X014155Y008461D02*
X014725Y008461D01*
X015155Y008461D02*
X015725Y008461D01*
X015766Y008420D02*
X016114Y008420D01*
X016360Y008666D01*
X016360Y009014D01*
X016114Y009260D01*
X015766Y009260D01*
X015520Y009014D01*
X015520Y008666D01*
X015766Y008420D01*
X015647Y008540D02*
X015233Y008540D01*
X015312Y008618D02*
X015568Y008618D01*
X015520Y008697D02*
X015360Y008697D01*
X015360Y008775D02*
X015520Y008775D01*
X015520Y008854D02*
X015360Y008854D01*
X015360Y008932D02*
X015520Y008932D01*
X015520Y009011D02*
X015360Y009011D01*
X015285Y009089D02*
X015595Y009089D01*
X015674Y009168D02*
X015206Y009168D01*
X015128Y009246D02*
X015752Y009246D01*
X016128Y009246D02*
X016752Y009246D01*
X016766Y009260D02*
X016520Y009014D01*
X016520Y008666D01*
X016766Y008420D01*
X017114Y008420D01*
X017360Y008666D01*
X017360Y009014D01*
X017114Y009260D01*
X016766Y009260D01*
X016674Y009168D02*
X016206Y009168D01*
X016285Y009089D02*
X016595Y009089D01*
X016520Y009011D02*
X016360Y009011D01*
X016360Y008932D02*
X016520Y008932D01*
X016520Y008854D02*
X016360Y008854D01*
X016360Y008775D02*
X016520Y008775D01*
X016520Y008697D02*
X016360Y008697D01*
X016312Y008618D02*
X016568Y008618D01*
X016647Y008540D02*
X016233Y008540D01*
X016155Y008461D02*
X016725Y008461D01*
X017155Y008461D02*
X017725Y008461D01*
X017766Y008420D02*
X018114Y008420D01*
X018360Y008666D01*
X018360Y009014D01*
X018114Y009260D01*
X017766Y009260D01*
X017520Y009014D01*
X017520Y008666D01*
X017766Y008420D01*
X017647Y008540D02*
X017233Y008540D01*
X017312Y008618D02*
X017568Y008618D01*
X017520Y008697D02*
X017360Y008697D01*
X017360Y008775D02*
X017520Y008775D01*
X017520Y008854D02*
X017360Y008854D01*
X017360Y008932D02*
X017520Y008932D01*
X017520Y009011D02*
X017360Y009011D01*
X017285Y009089D02*
X017595Y009089D01*
X017674Y009168D02*
X017206Y009168D01*
X017128Y009246D02*
X017752Y009246D01*
X018128Y009246D02*
X018265Y009246D01*
X018206Y009168D02*
X018344Y009168D01*
X018285Y009089D02*
X018422Y009089D01*
X018360Y009011D02*
X018501Y009011D01*
X018550Y008932D02*
X018360Y008932D01*
X018360Y008854D02*
X018550Y008854D01*
X018550Y008775D02*
X018360Y008775D01*
X018360Y008697D02*
X018550Y008697D01*
X018550Y008618D02*
X018312Y008618D01*
X018233Y008540D02*
X018550Y008540D01*
X018550Y008461D02*
X018155Y008461D01*
X018550Y008383D02*
X003736Y008383D01*
X003677Y008304D02*
X018550Y008304D01*
X018550Y008226D02*
X003677Y008226D01*
X003677Y008147D02*
X018550Y008147D01*
X018550Y008069D02*
X009370Y008069D01*
X009375Y008060D02*
X009356Y008092D01*
X009330Y008118D01*
X009298Y008137D01*
X009263Y008146D01*
X008930Y008146D01*
X008930Y007731D01*
X009384Y007731D01*
X009384Y008025D01*
X009375Y008060D01*
X009384Y007990D02*
X018550Y007990D01*
X018550Y007912D02*
X009384Y007912D01*
X009384Y007833D02*
X018550Y007833D01*
X018550Y007755D02*
X009384Y007755D01*
X009384Y007651D02*
X008930Y007651D01*
X008930Y007236D01*
X009263Y007236D01*
X009298Y007246D01*
X009330Y007264D01*
X009356Y007290D01*
X009375Y007322D01*
X009384Y007358D01*
X009384Y007651D01*
X009384Y007598D02*
X018550Y007598D01*
X018550Y007676D02*
X008930Y007676D01*
X008930Y007651D02*
X008930Y007731D01*
X008850Y007731D01*
X008850Y007651D01*
X008930Y007651D01*
X008930Y007598D02*
X008850Y007598D01*
X008850Y007651D02*
X008850Y007236D01*
X008517Y007236D01*
X008482Y007246D01*
X008450Y007264D01*
X008424Y007290D01*
X008405Y007322D01*
X008396Y007358D01*
X008396Y007651D01*
X008850Y007651D01*
X008850Y007676D02*
X007780Y007676D01*
X007780Y007651D02*
X007780Y007731D01*
X008234Y007731D01*
X008234Y008025D01*
X008225Y008060D01*
X008206Y008092D01*
X008180Y008118D01*
X008148Y008137D01*
X008113Y008146D01*
X007780Y008146D01*
X007780Y007731D01*
X007700Y007731D01*
X007700Y007651D01*
X007780Y007651D01*
X007780Y007236D01*
X008113Y007236D01*
X008148Y007246D01*
X008180Y007264D01*
X008206Y007290D01*
X008225Y007322D01*
X008234Y007358D01*
X008234Y007651D01*
X007780Y007651D01*
X007780Y007598D02*
X007700Y007598D01*
X007700Y007651D02*
X007700Y007236D01*
X007367Y007236D01*
X007332Y007246D01*
X007300Y007264D01*
X007274Y007290D01*
X007255Y007322D01*
X007246Y007358D01*
X007246Y007651D01*
X007700Y007651D01*
X007700Y007676D02*
X005975Y007676D01*
X005986Y007650D02*
X005947Y007744D01*
X005875Y007815D01*
X005781Y007854D01*
X005680Y007854D01*
X005586Y007815D01*
X005514Y007744D01*
X005476Y007650D01*
X005476Y007548D01*
X005514Y007455D01*
X005586Y007383D01*
X005680Y007344D01*
X005718Y007344D01*
X005718Y006687D01*
X005672Y006641D01*
X005633Y006547D01*
X005633Y006446D01*
X005672Y006352D01*
X005744Y006281D01*
X005837Y006242D01*
X005939Y006242D01*
X006032Y006281D01*
X006104Y006352D01*
X006143Y006446D01*
X006143Y006547D01*
X006104Y006641D01*
X006058Y006687D01*
X006058Y007371D01*
X006058Y007512D01*
X005986Y007584D01*
X005986Y007650D01*
X005986Y007598D02*
X007246Y007598D01*
X007246Y007519D02*
X006051Y007519D01*
X006058Y007441D02*
X007246Y007441D01*
X007246Y007362D02*
X006058Y007362D01*
X006058Y007284D02*
X007280Y007284D01*
X007700Y007284D02*
X007780Y007284D01*
X007780Y007362D02*
X007700Y007362D01*
X007700Y007441D02*
X007780Y007441D01*
X007780Y007519D02*
X007700Y007519D01*
X007700Y007731D02*
X007246Y007731D01*
X007246Y008025D01*
X007255Y008060D01*
X007274Y008092D01*
X007300Y008118D01*
X007332Y008137D01*
X007367Y008146D01*
X007700Y008146D01*
X007700Y007731D01*
X007700Y007755D02*
X007780Y007755D01*
X007780Y007833D02*
X007700Y007833D01*
X007700Y007912D02*
X007780Y007912D01*
X007780Y007990D02*
X007700Y007990D01*
X007700Y008069D02*
X007780Y008069D01*
X008220Y008069D02*
X008410Y008069D01*
X008405Y008060D02*
X008396Y008025D01*
X008396Y007731D01*
X008850Y007731D01*
X008850Y008146D01*
X008517Y008146D01*
X008482Y008137D01*
X008450Y008118D01*
X008424Y008092D01*
X008405Y008060D01*
X008396Y007990D02*
X008234Y007990D01*
X008234Y007912D02*
X008396Y007912D01*
X008396Y007833D02*
X008234Y007833D01*
X008234Y007755D02*
X008396Y007755D01*
X008396Y007598D02*
X008234Y007598D01*
X008234Y007519D02*
X008396Y007519D01*
X008396Y007441D02*
X008234Y007441D01*
X008234Y007362D02*
X008396Y007362D01*
X008430Y007284D02*
X008200Y007284D01*
X008271Y007205D02*
X006058Y007205D01*
X006058Y007127D02*
X008194Y007127D01*
X008194Y007048D02*
X006058Y007048D01*
X006058Y006970D02*
X007282Y006970D01*
X007266Y006891D02*
X006058Y006891D01*
X006058Y006813D02*
X007266Y006813D01*
X007266Y006734D02*
X006058Y006734D01*
X006090Y006656D02*
X007266Y006656D01*
X007266Y006577D02*
X006131Y006577D01*
X006143Y006499D02*
X007266Y006499D01*
X007266Y006420D02*
X006132Y006420D01*
X006093Y006342D02*
X007266Y006342D01*
X007266Y006263D02*
X005990Y006263D01*
X005786Y006263D02*
X003677Y006263D01*
X003677Y006342D02*
X005683Y006342D01*
X005644Y006420D02*
X003677Y006420D01*
X003677Y006499D02*
X005633Y006499D01*
X005645Y006577D02*
X003677Y006577D01*
X003677Y006656D02*
X005686Y006656D01*
X005718Y006734D02*
X003677Y006734D01*
X003677Y006813D02*
X005718Y006813D01*
X005718Y006891D02*
X003677Y006891D01*
X003677Y006970D02*
X005718Y006970D01*
X005718Y007048D02*
X003677Y007048D01*
X003677Y007127D02*
X005718Y007127D01*
X005718Y007205D02*
X003677Y007205D01*
X003677Y007284D02*
X005718Y007284D01*
X005636Y007362D02*
X003677Y007362D01*
X003677Y007441D02*
X005528Y007441D01*
X005488Y007519D02*
X003677Y007519D01*
X003677Y007598D02*
X005476Y007598D01*
X005486Y007676D02*
X003677Y007676D01*
X003677Y007755D02*
X005525Y007755D01*
X005629Y007833D02*
X003677Y007833D01*
X003677Y007912D02*
X007246Y007912D01*
X007246Y007990D02*
X003677Y007990D01*
X003677Y008069D02*
X007260Y008069D01*
X007246Y007833D02*
X005832Y007833D01*
X005936Y007755D02*
X007246Y007755D01*
X008293Y007227D02*
X008293Y007227D01*
X008850Y007284D02*
X008930Y007284D01*
X008930Y007362D02*
X008850Y007362D01*
X008850Y007441D02*
X008930Y007441D01*
X008930Y007519D02*
X008850Y007519D01*
X008850Y007755D02*
X008930Y007755D01*
X008930Y007833D02*
X008850Y007833D01*
X008850Y007912D02*
X008930Y007912D01*
X008930Y007990D02*
X008850Y007990D01*
X008850Y008069D02*
X008930Y008069D01*
X009384Y007519D02*
X018550Y007519D01*
X018550Y007441D02*
X009384Y007441D01*
X009384Y007362D02*
X018550Y007362D01*
X018550Y007284D02*
X009350Y007284D01*
X007540Y006106D02*
X003762Y006106D01*
X003787Y006028D02*
X007540Y006028D01*
X007540Y005949D02*
X006752Y005949D01*
X006823Y005871D02*
X007540Y005871D01*
X007212Y005792D02*
X006855Y005792D01*
X006856Y005714D02*
X007160Y005714D01*
X007160Y005635D02*
X006833Y005635D01*
X006778Y005557D02*
X007074Y005557D01*
X006449Y005949D02*
X003865Y005949D01*
X003734Y006185D02*
X007305Y006185D01*
X006196Y005478D02*
X003690Y005478D01*
X003246Y005321D02*
X002360Y005321D01*
X002360Y005243D02*
X003255Y005243D01*
X003288Y005164D02*
X002358Y005164D01*
X002360Y005166D02*
X002114Y004920D01*
X001766Y004920D01*
X001520Y005166D01*
X001520Y005514D01*
X001766Y005760D01*
X002114Y005760D01*
X002360Y005514D01*
X002360Y005166D01*
X002279Y005086D02*
X003271Y005086D01*
X003229Y005007D02*
X002201Y005007D01*
X002122Y004929D02*
X003229Y004929D01*
X003229Y004850D02*
X000330Y004850D01*
X000330Y004772D02*
X002089Y004772D01*
X001758Y004929D02*
X001122Y004929D01*
X001114Y004920D02*
X001360Y005166D01*
X001360Y005514D01*
X001114Y005760D01*
X000766Y005760D01*
X000520Y005514D01*
X000520Y005166D01*
X000766Y004920D01*
X001114Y004920D01*
X001201Y005007D02*
X001679Y005007D01*
X001601Y005086D02*
X001279Y005086D01*
X001358Y005164D02*
X001522Y005164D01*
X001520Y005243D02*
X001360Y005243D01*
X001360Y005321D02*
X001520Y005321D01*
X001520Y005400D02*
X001360Y005400D01*
X001360Y005478D02*
X001520Y005478D01*
X001563Y005557D02*
X001317Y005557D01*
X001239Y005635D02*
X001641Y005635D01*
X001720Y005714D02*
X001160Y005714D01*
X001114Y005920D02*
X000766Y005920D01*
X000520Y006166D01*
X000520Y006514D01*
X000766Y006760D01*
X001114Y006760D01*
X001360Y006514D01*
X001360Y006166D01*
X001114Y005920D01*
X001143Y005949D02*
X001737Y005949D01*
X001766Y005920D02*
X002114Y005920D01*
X002360Y006166D01*
X002360Y006514D01*
X002114Y006760D01*
X001766Y006760D01*
X001520Y006514D01*
X001520Y006166D01*
X001766Y005920D01*
X001659Y006028D02*
X001221Y006028D01*
X001300Y006106D02*
X001580Y006106D01*
X001520Y006185D02*
X001360Y006185D01*
X001360Y006263D02*
X001520Y006263D01*
X001520Y006342D02*
X001360Y006342D01*
X001360Y006420D02*
X001520Y006420D01*
X001520Y006499D02*
X001360Y006499D01*
X001297Y006577D02*
X001583Y006577D01*
X001662Y006656D02*
X001218Y006656D01*
X001140Y006734D02*
X001740Y006734D01*
X001766Y006920D02*
X002114Y006920D01*
X002360Y007166D01*
X002360Y007514D01*
X002114Y007760D01*
X001766Y007760D01*
X001520Y007514D01*
X001520Y007166D01*
X001766Y006920D01*
X001717Y006970D02*
X000330Y006970D01*
X000330Y007048D02*
X001638Y007048D01*
X001560Y007127D02*
X000330Y007127D01*
X000330Y007205D02*
X001520Y007205D01*
X001520Y007284D02*
X000330Y007284D01*
X000330Y007362D02*
X001520Y007362D01*
X001520Y007441D02*
X000330Y007441D01*
X000330Y007519D02*
X001525Y007519D01*
X001604Y007598D02*
X000330Y007598D01*
X000330Y007676D02*
X001682Y007676D01*
X001761Y007755D02*
X000330Y007755D01*
X000330Y007833D02*
X002770Y007833D01*
X002770Y007755D02*
X002119Y007755D01*
X002198Y007676D02*
X002770Y007676D01*
X002770Y007598D02*
X002276Y007598D01*
X002355Y007519D02*
X002770Y007519D01*
X002770Y007441D02*
X002360Y007441D01*
X002360Y007362D02*
X002770Y007362D01*
X002770Y007284D02*
X002360Y007284D01*
X002360Y007205D02*
X002770Y007205D01*
X002770Y007127D02*
X002320Y007127D01*
X002242Y007048D02*
X002770Y007048D01*
X002770Y006970D02*
X002163Y006970D01*
X002140Y006734D02*
X002770Y006734D01*
X002770Y006656D02*
X002218Y006656D01*
X002297Y006577D02*
X002770Y006577D01*
X002770Y006499D02*
X002360Y006499D01*
X002360Y006420D02*
X002770Y006420D01*
X002770Y006342D02*
X002360Y006342D01*
X002360Y006263D02*
X002770Y006263D01*
X002770Y006185D02*
X002360Y006185D01*
X002300Y006106D02*
X002770Y006106D01*
X002770Y006028D02*
X002221Y006028D01*
X002143Y005949D02*
X002770Y005949D01*
X002770Y005871D02*
X000330Y005871D01*
X000330Y005949D02*
X000737Y005949D01*
X000659Y006028D02*
X000330Y006028D01*
X000330Y006106D02*
X000580Y006106D01*
X000520Y006185D02*
X000330Y006185D01*
X000330Y006263D02*
X000520Y006263D01*
X000520Y006342D02*
X000330Y006342D01*
X000330Y006420D02*
X000520Y006420D01*
X000520Y006499D02*
X000330Y006499D01*
X000330Y006577D02*
X000583Y006577D01*
X000662Y006656D02*
X000330Y006656D01*
X000330Y006734D02*
X000740Y006734D01*
X000330Y006813D02*
X002770Y006813D01*
X002770Y006891D02*
X000330Y006891D01*
X000330Y007912D02*
X002770Y007912D01*
X002770Y007990D02*
X000330Y007990D01*
X000330Y008069D02*
X002770Y008069D01*
X002770Y008147D02*
X000330Y008147D01*
X000330Y008226D02*
X002770Y008226D01*
X002770Y008304D02*
X000330Y008304D01*
X000330Y008383D02*
X002770Y008383D01*
X002549Y008461D02*
X002183Y008461D01*
X002122Y008400D02*
X001980Y008400D01*
X001980Y008800D01*
X001980Y008880D01*
X002380Y008880D01*
X002380Y009022D01*
X002122Y009280D01*
X001980Y009280D01*
X001980Y008880D01*
X001900Y008880D01*
X001900Y009280D01*
X001758Y009280D01*
X001500Y009022D01*
X001500Y008880D01*
X001900Y008880D01*
X001900Y008800D01*
X001980Y008800D01*
X002380Y008800D01*
X002380Y008658D01*
X002122Y008400D01*
X001980Y008461D02*
X001900Y008461D01*
X001900Y008400D02*
X001758Y008400D01*
X001500Y008658D01*
X001500Y008800D01*
X001900Y008800D01*
X001900Y008400D01*
X001900Y008540D02*
X001980Y008540D01*
X001980Y008618D02*
X001900Y008618D01*
X001900Y008697D02*
X001980Y008697D01*
X001980Y008775D02*
X001900Y008775D01*
X001900Y008854D02*
X001360Y008854D01*
X001360Y008932D02*
X001500Y008932D01*
X001500Y009011D02*
X001360Y009011D01*
X001360Y009014D02*
X001114Y009260D01*
X000766Y009260D01*
X000520Y009014D01*
X000520Y008666D01*
X000766Y008420D01*
X001114Y008420D01*
X001360Y008666D01*
X001360Y009014D01*
X001285Y009089D02*
X001567Y009089D01*
X001645Y009168D02*
X001206Y009168D01*
X001128Y009246D02*
X001724Y009246D01*
X001900Y009246D02*
X001980Y009246D01*
X001980Y009168D02*
X001900Y009168D01*
X001900Y009089D02*
X001980Y009089D01*
X001980Y009011D02*
X001900Y009011D01*
X001900Y008932D02*
X001980Y008932D01*
X001980Y008854D02*
X002520Y008854D01*
X002520Y008932D02*
X002380Y008932D01*
X002380Y009011D02*
X002520Y009011D01*
X002520Y009089D02*
X002313Y009089D01*
X002235Y009168D02*
X002520Y009168D01*
X002576Y009246D02*
X002156Y009246D01*
X002380Y008775D02*
X002520Y008775D01*
X002520Y008697D02*
X002380Y008697D01*
X002340Y008618D02*
X002520Y008618D01*
X002520Y008540D02*
X002262Y008540D01*
X001697Y008461D02*
X001155Y008461D01*
X001233Y008540D02*
X001618Y008540D01*
X001540Y008618D02*
X001312Y008618D01*
X001360Y008697D02*
X001500Y008697D01*
X001500Y008775D02*
X001360Y008775D01*
X000725Y008461D02*
X000330Y008461D01*
X000330Y008540D02*
X000647Y008540D01*
X000568Y008618D02*
X000330Y008618D01*
X000330Y008697D02*
X000520Y008697D01*
X000520Y008775D02*
X000330Y008775D01*
X000330Y008854D02*
X000520Y008854D01*
X000520Y008932D02*
X000330Y008932D01*
X000379Y009011D02*
X000520Y009011D01*
X000458Y009089D02*
X000595Y009089D01*
X000536Y009168D02*
X000674Y009168D01*
X000615Y009246D02*
X000752Y009246D01*
X000693Y009325D02*
X018187Y009325D01*
X018550Y007205D02*
X013163Y007205D01*
X013240Y007127D02*
X018550Y007127D01*
X018550Y007048D02*
X013240Y007048D01*
X013241Y006970D02*
X018550Y006970D01*
X018550Y006891D02*
X013241Y006891D01*
X013242Y006813D02*
X018550Y006813D01*
X018550Y006734D02*
X013242Y006734D01*
X013243Y006656D02*
X016057Y006656D01*
X015928Y006577D02*
X013244Y006577D01*
X013244Y006499D02*
X015850Y006499D01*
X015810Y006420D02*
X013964Y006420D01*
X014042Y006342D02*
X015778Y006342D01*
X015766Y006263D02*
X014121Y006263D01*
X014199Y006185D02*
X015766Y006185D01*
X015773Y006106D02*
X014488Y006106D01*
X014582Y006028D02*
X015805Y006028D01*
X015838Y005949D02*
X015971Y005816D01*
X016112Y005758D01*
X016112Y004598D01*
X015350Y003836D01*
X015350Y004260D01*
X015351Y004260D01*
X015387Y004250D01*
X015507Y004250D01*
X015507Y004617D01*
X015553Y004617D01*
X015553Y004663D01*
X015507Y004663D01*
X015507Y005030D01*
X015387Y005030D01*
X015351Y005020D01*
X015333Y005010D01*
X015005Y005010D01*
X015005Y005010D01*
X015000Y005010D01*
X015000Y005060D01*
X014900Y005160D01*
X014771Y005290D01*
X014771Y005366D01*
X014732Y005460D01*
X014660Y005532D01*
X014590Y005561D01*
X014615Y005586D01*
X014670Y005718D01*
X014670Y005862D01*
X014615Y005994D01*
X014666Y005871D02*
X015917Y005871D01*
X016029Y005792D02*
X014670Y005792D01*
X014668Y005714D02*
X016112Y005714D01*
X016112Y005635D02*
X014635Y005635D01*
X014600Y005557D02*
X016112Y005557D01*
X016112Y005478D02*
X014714Y005478D01*
X014757Y005400D02*
X016112Y005400D01*
X016112Y005321D02*
X014771Y005321D01*
X014818Y005243D02*
X016112Y005243D01*
X016112Y005164D02*
X014896Y005164D01*
X014975Y005086D02*
X016112Y005086D01*
X016112Y005007D02*
X015732Y005007D01*
X015741Y005002D02*
X015709Y005020D01*
X015673Y005030D01*
X015553Y005030D01*
X015553Y004663D01*
X015795Y004663D01*
X015795Y004908D01*
X015785Y004944D01*
X015767Y004976D01*
X015741Y005002D01*
X015790Y004929D02*
X016112Y004929D01*
X016112Y004850D02*
X015795Y004850D01*
X015795Y004772D02*
X016112Y004772D01*
X016112Y004693D02*
X015795Y004693D01*
X015795Y004617D02*
X015553Y004617D01*
X015553Y004250D01*
X015673Y004250D01*
X015709Y004260D01*
X015741Y004278D01*
X015767Y004304D01*
X015785Y004336D01*
X015795Y004372D01*
X015795Y004617D01*
X015795Y004615D02*
X016112Y004615D01*
X016050Y004536D02*
X015795Y004536D01*
X015795Y004458D02*
X015971Y004458D01*
X015893Y004379D02*
X015795Y004379D01*
X015814Y004301D02*
X015764Y004301D01*
X015736Y004222D02*
X015350Y004222D01*
X015350Y004144D02*
X015657Y004144D01*
X015579Y004065D02*
X015350Y004065D01*
X015350Y003987D02*
X015500Y003987D01*
X015422Y003908D02*
X015350Y003908D01*
X015010Y003908D02*
X014670Y003908D01*
X014670Y003962D02*
X014615Y004094D01*
X014514Y004195D01*
X014510Y004197D01*
X014510Y004873D01*
X014500Y004883D01*
X014499Y004884D01*
X014441Y004942D01*
X014393Y004990D01*
X014383Y005000D01*
X014382Y005000D01*
X013388Y005982D01*
X013330Y006040D01*
X013330Y006040D01*
X013330Y006040D01*
X013778Y006040D01*
X013952Y005866D01*
X013950Y005862D01*
X013950Y005718D01*
X014005Y005586D01*
X014106Y005485D01*
X014238Y005430D01*
X014287Y005430D01*
X014261Y005366D01*
X014261Y005265D01*
X014299Y005171D01*
X014371Y005099D01*
X014465Y005061D01*
X014519Y005061D01*
X014612Y004967D01*
X014585Y004940D01*
X014585Y004340D01*
X014655Y004270D01*
X015005Y004270D01*
X015010Y004270D01*
X015010Y002355D01*
X014833Y002179D01*
X013277Y002179D01*
X013251Y005555D01*
X014110Y004707D01*
X014110Y004197D01*
X014106Y004195D01*
X014005Y004094D01*
X013950Y003962D01*
X013950Y003818D01*
X014005Y003686D01*
X014106Y003585D01*
X014238Y003530D01*
X014382Y003530D01*
X014514Y003585D01*
X014615Y003686D01*
X014670Y003818D01*
X014670Y003962D01*
X014660Y003987D02*
X015010Y003987D01*
X015010Y004065D02*
X014627Y004065D01*
X014566Y004144D02*
X015010Y004144D01*
X015010Y004222D02*
X014510Y004222D01*
X014510Y004301D02*
X014625Y004301D01*
X014585Y004379D02*
X014510Y004379D01*
X014510Y004458D02*
X014585Y004458D01*
X014585Y004536D02*
X014510Y004536D01*
X014510Y004615D02*
X014585Y004615D01*
X014585Y004693D02*
X014510Y004693D01*
X014510Y004772D02*
X014585Y004772D01*
X014585Y004850D02*
X014510Y004850D01*
X014454Y004929D02*
X014585Y004929D01*
X014573Y005007D02*
X014375Y005007D01*
X014405Y005086D02*
X014296Y005086D01*
X014307Y005164D02*
X014216Y005164D01*
X014270Y005243D02*
X014137Y005243D01*
X014057Y005321D02*
X014261Y005321D01*
X014274Y005400D02*
X013978Y005400D01*
X013898Y005478D02*
X014122Y005478D01*
X014034Y005557D02*
X013819Y005557D01*
X013739Y005635D02*
X013985Y005635D01*
X013952Y005714D02*
X013660Y005714D01*
X013581Y005792D02*
X013950Y005792D01*
X013948Y005871D02*
X013501Y005871D01*
X013422Y005949D02*
X013869Y005949D01*
X013791Y006028D02*
X013343Y006028D01*
X013329Y005478D02*
X013252Y005478D01*
X013253Y005400D02*
X013409Y005400D01*
X013488Y005321D02*
X013253Y005321D01*
X013254Y005243D02*
X013568Y005243D01*
X013647Y005164D02*
X013255Y005164D01*
X013255Y005086D02*
X013726Y005086D01*
X013806Y005007D02*
X013256Y005007D01*
X013256Y004929D02*
X013885Y004929D01*
X013965Y004850D02*
X013257Y004850D01*
X013258Y004772D02*
X014044Y004772D01*
X014110Y004693D02*
X013258Y004693D01*
X013259Y004615D02*
X014110Y004615D01*
X014110Y004536D02*
X013259Y004536D01*
X013260Y004458D02*
X014110Y004458D01*
X014110Y004379D02*
X013261Y004379D01*
X013261Y004301D02*
X014110Y004301D01*
X014110Y004222D02*
X013262Y004222D01*
X013262Y004144D02*
X014054Y004144D01*
X013993Y004065D02*
X013263Y004065D01*
X013264Y003987D02*
X013960Y003987D01*
X013950Y003908D02*
X013264Y003908D01*
X013265Y003830D02*
X013950Y003830D01*
X013978Y003751D02*
X013265Y003751D01*
X013266Y003673D02*
X014018Y003673D01*
X014097Y003594D02*
X013267Y003594D01*
X013267Y003516D02*
X015010Y003516D01*
X015010Y003594D02*
X014523Y003594D01*
X014602Y003673D02*
X015010Y003673D01*
X015010Y003751D02*
X014642Y003751D01*
X014670Y003830D02*
X015010Y003830D01*
X015589Y003594D02*
X015763Y003594D01*
X015758Y003578D02*
X015782Y003652D01*
X015817Y003721D01*
X015863Y003784D01*
X015918Y003839D01*
X015981Y003885D01*
X016050Y003920D01*
X016124Y003944D01*
X016200Y003956D01*
X016200Y003502D01*
X016200Y003422D01*
X016280Y003422D01*
X016280Y002968D01*
X016356Y002980D01*
X016430Y003004D01*
X016499Y003039D01*
X016562Y003085D01*
X016617Y003140D01*
X016663Y003203D01*
X016698Y003272D01*
X016722Y003346D01*
X016734Y003422D01*
X016280Y003422D01*
X016280Y003502D01*
X016734Y003502D01*
X016722Y003578D01*
X016698Y003652D01*
X016663Y003721D01*
X016617Y003784D01*
X016562Y003839D01*
X016499Y003885D01*
X016430Y003920D01*
X016356Y003944D01*
X016280Y003956D01*
X016280Y003502D01*
X016200Y003502D01*
X015746Y003502D01*
X015758Y003578D01*
X015748Y003516D02*
X015564Y003516D01*
X015564Y003437D02*
X016200Y003437D01*
X016200Y003422D02*
X015746Y003422D01*
X015758Y003346D01*
X015782Y003272D01*
X015817Y003203D01*
X015863Y003140D01*
X015918Y003085D01*
X015981Y003039D01*
X016050Y003004D01*
X016124Y002980D01*
X016200Y002968D01*
X016200Y003422D01*
X016200Y003359D02*
X016280Y003359D01*
X016280Y003437D02*
X018550Y003437D01*
X018550Y003359D02*
X016724Y003359D01*
X016701Y003280D02*
X018550Y003280D01*
X018550Y003202D02*
X016662Y003202D01*
X016600Y003123D02*
X018550Y003123D01*
X018550Y003045D02*
X016506Y003045D01*
X016280Y003045D02*
X016200Y003045D01*
X016200Y003123D02*
X016280Y003123D01*
X016280Y003202D02*
X016200Y003202D01*
X016200Y003280D02*
X016280Y003280D01*
X015974Y003045D02*
X015564Y003045D01*
X015564Y003123D02*
X015880Y003123D01*
X015818Y003202D02*
X015564Y003202D01*
X015564Y003280D02*
X015779Y003280D01*
X015756Y003359D02*
X015564Y003359D01*
X015667Y003673D02*
X015792Y003673D01*
X015746Y003751D02*
X015839Y003751D01*
X015824Y003830D02*
X015908Y003830D01*
X015903Y003908D02*
X016026Y003908D01*
X015981Y003987D02*
X018550Y003987D01*
X018550Y004065D02*
X016060Y004065D01*
X016138Y004144D02*
X018550Y004144D01*
X018550Y004222D02*
X016217Y004222D01*
X016295Y004301D02*
X018550Y004301D01*
X018550Y004379D02*
X016374Y004379D01*
X016452Y004458D02*
X018550Y004458D01*
X018550Y004536D02*
X016452Y004536D01*
X016452Y004615D02*
X018550Y004615D01*
X018550Y004693D02*
X016452Y004693D01*
X016452Y004772D02*
X018550Y004772D01*
X018550Y004850D02*
X016452Y004850D01*
X016452Y004929D02*
X018550Y004929D01*
X018550Y005007D02*
X016452Y005007D01*
X016452Y005086D02*
X018550Y005086D01*
X018550Y005164D02*
X016452Y005164D01*
X016452Y005243D02*
X018550Y005243D01*
X018550Y005321D02*
X016452Y005321D01*
X016452Y005400D02*
X018550Y005400D01*
X018550Y005478D02*
X016452Y005478D01*
X016452Y005557D02*
X018550Y005557D01*
X018550Y005635D02*
X016452Y005635D01*
X016675Y006028D02*
X018550Y006028D01*
X018550Y006106D02*
X016707Y006106D01*
X016714Y006185D02*
X018550Y006185D01*
X018550Y006263D02*
X016714Y006263D01*
X016702Y006342D02*
X018550Y006342D01*
X018550Y006420D02*
X016670Y006420D01*
X016630Y006499D02*
X018550Y006499D01*
X018550Y006577D02*
X016552Y006577D01*
X016423Y006656D02*
X018550Y006656D01*
X015553Y005007D02*
X015507Y005007D01*
X015507Y004929D02*
X015553Y004929D01*
X015553Y004850D02*
X015507Y004850D01*
X015507Y004772D02*
X015553Y004772D01*
X015553Y004693D02*
X015507Y004693D01*
X015507Y004615D02*
X015553Y004615D01*
X015553Y004536D02*
X015507Y004536D01*
X015507Y004458D02*
X015553Y004458D01*
X015553Y004379D02*
X015507Y004379D01*
X015507Y004301D02*
X015553Y004301D01*
X015005Y004270D02*
X015005Y004270D01*
X015005Y004270D01*
X016200Y003908D02*
X016280Y003908D01*
X016280Y003830D02*
X016200Y003830D01*
X016200Y003751D02*
X016280Y003751D01*
X016280Y003673D02*
X016200Y003673D01*
X016200Y003594D02*
X016280Y003594D01*
X016280Y003516D02*
X016200Y003516D01*
X016572Y003830D02*
X018550Y003830D01*
X018550Y003908D02*
X016454Y003908D01*
X016641Y003751D02*
X018550Y003751D01*
X018550Y003673D02*
X016688Y003673D01*
X016717Y003594D02*
X018550Y003594D01*
X018550Y003516D02*
X016732Y003516D01*
X015564Y002966D02*
X018550Y002966D01*
X018550Y002888D02*
X015564Y002888D01*
X015564Y002809D02*
X018550Y002809D01*
X018550Y002731D02*
X015564Y002731D01*
X015564Y002652D02*
X018550Y002652D01*
X018550Y002574D02*
X015564Y002574D01*
X015564Y002495D02*
X018550Y002495D01*
X018550Y002417D02*
X015564Y002417D01*
X015564Y002338D02*
X018550Y002338D01*
X018550Y002260D02*
X015564Y002260D01*
X015564Y002181D02*
X018550Y002181D01*
X018550Y002103D02*
X015532Y002103D01*
X015453Y002024D02*
X018550Y002024D01*
X018550Y001946D02*
X015375Y001946D01*
X015296Y001867D02*
X018550Y001867D01*
X018550Y001789D02*
X015218Y001789D01*
X015139Y001710D02*
X018550Y001710D01*
X018550Y001632D02*
X004062Y001632D01*
X003983Y001553D02*
X018550Y001553D01*
X018550Y001475D02*
X003905Y001475D01*
X003826Y001396D02*
X018550Y001396D01*
X017745Y001239D02*
X017135Y001239D01*
X017114Y001260D02*
X016766Y001260D01*
X016520Y001014D01*
X016520Y000666D01*
X016766Y000420D01*
X017114Y000420D01*
X017360Y000666D01*
X017360Y001014D01*
X017114Y001260D01*
X017213Y001161D02*
X017667Y001161D01*
X017588Y001082D02*
X017292Y001082D01*
X017360Y001004D02*
X017520Y001004D01*
X017520Y000925D02*
X017360Y000925D01*
X017360Y000847D02*
X017520Y000847D01*
X017520Y000768D02*
X017360Y000768D01*
X017360Y000690D02*
X017520Y000690D01*
X017575Y000611D02*
X017305Y000611D01*
X017226Y000533D02*
X017654Y000533D01*
X017732Y000454D02*
X017148Y000454D01*
X016732Y000454D02*
X016148Y000454D01*
X016114Y000420D02*
X016360Y000666D01*
X016360Y001014D01*
X016114Y001260D01*
X015766Y001260D01*
X015520Y001014D01*
X015520Y000666D01*
X015766Y000420D01*
X016114Y000420D01*
X016226Y000533D02*
X016654Y000533D01*
X016575Y000611D02*
X016305Y000611D01*
X016360Y000690D02*
X016520Y000690D01*
X016520Y000768D02*
X016360Y000768D01*
X016360Y000847D02*
X016520Y000847D01*
X016520Y000925D02*
X016360Y000925D01*
X016360Y001004D02*
X016520Y001004D01*
X016588Y001082D02*
X016292Y001082D01*
X016213Y001161D02*
X016667Y001161D01*
X016745Y001239D02*
X016135Y001239D01*
X015745Y001239D02*
X015135Y001239D01*
X015114Y001260D02*
X014766Y001260D01*
X014520Y001014D01*
X014520Y000666D01*
X014766Y000420D01*
X015114Y000420D01*
X015360Y000666D01*
X015360Y001014D01*
X015114Y001260D01*
X015213Y001161D02*
X015667Y001161D01*
X015588Y001082D02*
X015292Y001082D01*
X015360Y001004D02*
X015520Y001004D01*
X015520Y000925D02*
X015360Y000925D01*
X015360Y000847D02*
X015520Y000847D01*
X015520Y000768D02*
X015360Y000768D01*
X015360Y000690D02*
X015520Y000690D01*
X015575Y000611D02*
X015305Y000611D01*
X015226Y000533D02*
X015654Y000533D01*
X015732Y000454D02*
X015148Y000454D01*
X014732Y000454D02*
X014148Y000454D01*
X014114Y000420D02*
X014360Y000666D01*
X014360Y001014D01*
X014114Y001260D01*
X013766Y001260D01*
X013520Y001014D01*
X013520Y000666D01*
X013766Y000420D01*
X014114Y000420D01*
X014226Y000533D02*
X014654Y000533D01*
X014575Y000611D02*
X014305Y000611D01*
X014360Y000690D02*
X014520Y000690D01*
X014520Y000768D02*
X014360Y000768D01*
X014360Y000847D02*
X014520Y000847D01*
X014520Y000925D02*
X014360Y000925D01*
X014360Y001004D02*
X014520Y001004D01*
X014588Y001082D02*
X014292Y001082D01*
X014213Y001161D02*
X014667Y001161D01*
X014745Y001239D02*
X014135Y001239D01*
X013745Y001239D02*
X013135Y001239D01*
X013114Y001260D02*
X012766Y001260D01*
X012520Y001014D01*
X012520Y000666D01*
X012766Y000420D01*
X013114Y000420D01*
X013360Y000666D01*
X013360Y001014D01*
X013114Y001260D01*
X013213Y001161D02*
X013667Y001161D01*
X013588Y001082D02*
X013292Y001082D01*
X013360Y001004D02*
X013520Y001004D01*
X013520Y000925D02*
X013360Y000925D01*
X013360Y000847D02*
X013520Y000847D01*
X013520Y000768D02*
X013360Y000768D01*
X013360Y000690D02*
X013520Y000690D01*
X013575Y000611D02*
X013305Y000611D01*
X013226Y000533D02*
X013654Y000533D01*
X013732Y000454D02*
X013148Y000454D01*
X012732Y000454D02*
X012148Y000454D01*
X012114Y000420D02*
X012360Y000666D01*
X012360Y001014D01*
X012114Y001260D01*
X011766Y001260D01*
X011520Y001014D01*
X011520Y000666D01*
X011766Y000420D01*
X012114Y000420D01*
X012226Y000533D02*
X012654Y000533D01*
X012575Y000611D02*
X012305Y000611D01*
X012360Y000690D02*
X012520Y000690D01*
X012520Y000768D02*
X012360Y000768D01*
X012360Y000847D02*
X012520Y000847D01*
X012520Y000925D02*
X012360Y000925D01*
X012360Y001004D02*
X012520Y001004D01*
X012588Y001082D02*
X012292Y001082D01*
X012213Y001161D02*
X012667Y001161D01*
X012745Y001239D02*
X012135Y001239D01*
X011745Y001239D02*
X011135Y001239D01*
X011114Y001260D02*
X010766Y001260D01*
X010520Y001014D01*
X010520Y000666D01*
X010766Y000420D01*
X011114Y000420D01*
X011360Y000666D01*
X011360Y001014D01*
X011114Y001260D01*
X011213Y001161D02*
X011667Y001161D01*
X011588Y001082D02*
X011292Y001082D01*
X011360Y001004D02*
X011520Y001004D01*
X011520Y000925D02*
X011360Y000925D01*
X011360Y000847D02*
X011520Y000847D01*
X011520Y000768D02*
X011360Y000768D01*
X011360Y000690D02*
X011520Y000690D01*
X011575Y000611D02*
X011305Y000611D01*
X011226Y000533D02*
X011654Y000533D01*
X011732Y000454D02*
X011148Y000454D01*
X010732Y000454D02*
X010148Y000454D01*
X010114Y000420D02*
X010360Y000666D01*
X010360Y001014D01*
X010114Y001260D01*
X009766Y001260D01*
X009520Y001014D01*
X009520Y000666D01*
X009766Y000420D01*
X010114Y000420D01*
X010226Y000533D02*
X010654Y000533D01*
X010575Y000611D02*
X010305Y000611D01*
X010360Y000690D02*
X010520Y000690D01*
X010520Y000768D02*
X010360Y000768D01*
X010360Y000847D02*
X010520Y000847D01*
X010520Y000925D02*
X010360Y000925D01*
X010360Y001004D02*
X010520Y001004D01*
X010588Y001082D02*
X010292Y001082D01*
X010213Y001161D02*
X010667Y001161D01*
X010745Y001239D02*
X010135Y001239D01*
X009745Y001239D02*
X009135Y001239D01*
X009114Y001260D02*
X008766Y001260D01*
X008520Y001014D01*
X008520Y000666D01*
X008766Y000420D01*
X009114Y000420D01*
X009360Y000666D01*
X009360Y001014D01*
X009114Y001260D01*
X009213Y001161D02*
X009667Y001161D01*
X009588Y001082D02*
X009292Y001082D01*
X009360Y001004D02*
X009520Y001004D01*
X009520Y000925D02*
X009360Y000925D01*
X009360Y000847D02*
X009520Y000847D01*
X009520Y000768D02*
X009360Y000768D01*
X009360Y000690D02*
X009520Y000690D01*
X009575Y000611D02*
X009305Y000611D01*
X009226Y000533D02*
X009654Y000533D01*
X009732Y000454D02*
X009148Y000454D01*
X008732Y000454D02*
X008148Y000454D01*
X008114Y000420D02*
X008360Y000666D01*
X008360Y001014D01*
X008114Y001260D01*
X007766Y001260D01*
X007520Y001014D01*
X007520Y000666D01*
X007766Y000420D01*
X008114Y000420D01*
X008226Y000533D02*
X008654Y000533D01*
X008575Y000611D02*
X008305Y000611D01*
X008360Y000690D02*
X008520Y000690D01*
X008520Y000768D02*
X008360Y000768D01*
X008360Y000847D02*
X008520Y000847D01*
X008520Y000925D02*
X008360Y000925D01*
X008360Y001004D02*
X008520Y001004D01*
X008588Y001082D02*
X008292Y001082D01*
X008213Y001161D02*
X008667Y001161D01*
X008745Y001239D02*
X008135Y001239D01*
X007745Y001239D02*
X007135Y001239D01*
X007114Y001260D02*
X006766Y001260D01*
X006520Y001014D01*
X006520Y000666D01*
X006766Y000420D01*
X007114Y000420D01*
X007360Y000666D01*
X007360Y001014D01*
X007114Y001260D01*
X007213Y001161D02*
X007667Y001161D01*
X007588Y001082D02*
X007292Y001082D01*
X007360Y001004D02*
X007520Y001004D01*
X007520Y000925D02*
X007360Y000925D01*
X007360Y000847D02*
X007520Y000847D01*
X007520Y000768D02*
X007360Y000768D01*
X007360Y000690D02*
X007520Y000690D01*
X007575Y000611D02*
X007305Y000611D01*
X007226Y000533D02*
X007654Y000533D01*
X007732Y000454D02*
X007148Y000454D01*
X006732Y000454D02*
X006148Y000454D01*
X006114Y000420D02*
X006360Y000666D01*
X006360Y001014D01*
X006114Y001260D01*
X005766Y001260D01*
X005520Y001014D01*
X005520Y000666D01*
X005766Y000420D01*
X006114Y000420D01*
X006226Y000533D02*
X006654Y000533D01*
X006575Y000611D02*
X006305Y000611D01*
X006360Y000690D02*
X006520Y000690D01*
X006520Y000768D02*
X006360Y000768D01*
X006360Y000847D02*
X006520Y000847D01*
X006520Y000925D02*
X006360Y000925D01*
X006360Y001004D02*
X006520Y001004D01*
X006588Y001082D02*
X006292Y001082D01*
X006213Y001161D02*
X006667Y001161D01*
X006745Y001239D02*
X006135Y001239D01*
X005745Y001239D02*
X005135Y001239D01*
X005114Y001260D02*
X004766Y001260D01*
X004520Y001014D01*
X004520Y000666D01*
X004766Y000420D01*
X005114Y000420D01*
X005360Y000666D01*
X005360Y001014D01*
X005114Y001260D01*
X005213Y001161D02*
X005667Y001161D01*
X005588Y001082D02*
X005292Y001082D01*
X005360Y001004D02*
X005520Y001004D01*
X005520Y000925D02*
X005360Y000925D01*
X005360Y000847D02*
X005520Y000847D01*
X005520Y000768D02*
X005360Y000768D01*
X005360Y000690D02*
X005520Y000690D01*
X005575Y000611D02*
X005305Y000611D01*
X005226Y000533D02*
X005654Y000533D01*
X005732Y000454D02*
X005148Y000454D01*
X004732Y000454D02*
X004148Y000454D01*
X004226Y000533D02*
X004654Y000533D01*
X004575Y000611D02*
X004305Y000611D01*
X004360Y000690D02*
X004520Y000690D01*
X004520Y000768D02*
X004360Y000768D01*
X004360Y000847D02*
X004520Y000847D01*
X004520Y000925D02*
X004360Y000925D01*
X004360Y001004D02*
X004520Y001004D01*
X004588Y001082D02*
X004292Y001082D01*
X004213Y001161D02*
X004667Y001161D01*
X004745Y001239D02*
X004135Y001239D01*
X003574Y001710D02*
X000330Y001710D01*
X000330Y001789D02*
X003653Y001789D01*
X003731Y001867D02*
X000330Y001867D01*
X000330Y002417D02*
X001500Y002417D01*
X001500Y002495D02*
X000330Y002495D01*
X000330Y002574D02*
X001500Y002574D01*
X001500Y002652D02*
X000330Y002652D01*
X000330Y002731D02*
X001533Y002731D01*
X001326Y002928D02*
X001294Y002910D01*
X001258Y002900D01*
X000980Y002900D01*
X000980Y003300D01*
X000980Y003380D01*
X000900Y003380D01*
X000900Y003780D01*
X000622Y003780D01*
X000586Y003770D01*
X000554Y003752D01*
X000528Y003726D01*
X000510Y003694D01*
X000500Y003658D01*
X000500Y003380D01*
X000900Y003380D01*
X000900Y003300D01*
X000980Y003300D01*
X001380Y003300D01*
X001380Y003022D01*
X001370Y002986D01*
X001352Y002954D01*
X001326Y002928D01*
X001359Y002966D02*
X001720Y002966D01*
X001642Y003045D02*
X001380Y003045D01*
X001380Y003123D02*
X001563Y003123D01*
X001520Y003202D02*
X001380Y003202D01*
X001380Y003280D02*
X001520Y003280D01*
X001520Y003359D02*
X000980Y003359D01*
X000980Y003380D02*
X001380Y003380D01*
X001380Y003658D01*
X001370Y003694D01*
X001352Y003726D01*
X001326Y003752D01*
X001294Y003770D01*
X001258Y003780D01*
X000980Y003780D01*
X000980Y003380D01*
X000980Y003437D02*
X000900Y003437D01*
X000900Y003359D02*
X000330Y003359D01*
X000330Y003437D02*
X000500Y003437D01*
X000500Y003516D02*
X000330Y003516D01*
X000330Y003594D02*
X000500Y003594D01*
X000504Y003673D02*
X000330Y003673D01*
X000330Y003751D02*
X000553Y003751D01*
X000330Y003830D02*
X003229Y003830D01*
X003229Y003908D02*
X000330Y003908D01*
X000330Y003987D02*
X000700Y003987D01*
X000766Y003920D02*
X001114Y003920D01*
X001360Y004166D01*
X001360Y004514D01*
X001114Y004760D01*
X000766Y004760D01*
X000520Y004514D01*
X000520Y004166D01*
X000766Y003920D01*
X000621Y004065D02*
X000330Y004065D01*
X000330Y004144D02*
X000543Y004144D01*
X000520Y004222D02*
X000330Y004222D01*
X000330Y004301D02*
X000520Y004301D01*
X000520Y004379D02*
X000330Y004379D01*
X000330Y004458D02*
X000520Y004458D01*
X000542Y004536D02*
X000330Y004536D01*
X000330Y004615D02*
X000621Y004615D01*
X000699Y004693D02*
X000330Y004693D01*
X000330Y004929D02*
X000758Y004929D01*
X000679Y005007D02*
X000330Y005007D01*
X000330Y005086D02*
X000601Y005086D01*
X000522Y005164D02*
X000330Y005164D01*
X000330Y005243D02*
X000520Y005243D01*
X000520Y005321D02*
X000330Y005321D01*
X000330Y005400D02*
X000520Y005400D01*
X000520Y005478D02*
X000330Y005478D01*
X000330Y005557D02*
X000563Y005557D01*
X000641Y005635D02*
X000330Y005635D01*
X000330Y005714D02*
X000720Y005714D01*
X000330Y005792D02*
X002775Y005792D01*
X002854Y005714D02*
X002160Y005714D01*
X002239Y005635D02*
X002932Y005635D01*
X003011Y005557D02*
X002317Y005557D01*
X002360Y005478D02*
X003089Y005478D01*
X003168Y005400D02*
X002360Y005400D01*
X001699Y004693D02*
X001181Y004693D01*
X001259Y004615D02*
X001621Y004615D01*
X001542Y004536D02*
X001338Y004536D01*
X001360Y004458D02*
X001520Y004458D01*
X001520Y004379D02*
X001360Y004379D01*
X001360Y004301D02*
X001520Y004301D01*
X001520Y004222D02*
X001360Y004222D01*
X001337Y004144D02*
X001543Y004144D01*
X001621Y004065D02*
X001259Y004065D01*
X001180Y003987D02*
X001700Y003987D01*
X002180Y003987D02*
X003229Y003987D01*
X003250Y004065D02*
X002259Y004065D01*
X002337Y004144D02*
X005137Y004144D01*
X005537Y004144D02*
X006266Y004144D01*
X006266Y004222D02*
X005837Y004222D01*
X005851Y004301D02*
X006266Y004301D01*
X006266Y004379D02*
X005851Y004379D01*
X005830Y004065D02*
X006317Y004065D01*
X005851Y003987D02*
X007202Y003987D01*
X007145Y003908D02*
X005851Y003908D01*
X005851Y003830D02*
X007140Y003830D01*
X007140Y003751D02*
X005851Y003751D01*
X005851Y003673D02*
X007140Y003673D01*
X007140Y003590D02*
X007140Y003372D01*
X007150Y003336D01*
X007168Y003304D01*
X007194Y003278D01*
X007226Y003260D01*
X007262Y003250D01*
X007680Y003250D01*
X007680Y003590D01*
X007140Y003590D01*
X007140Y003516D02*
X005851Y003516D01*
X005851Y003594D02*
X007680Y003594D01*
X007680Y003516D02*
X007760Y003516D01*
X007760Y003437D02*
X007680Y003437D01*
X007680Y003359D02*
X007760Y003359D01*
X007760Y003280D02*
X007680Y003280D01*
X007192Y003280D02*
X005851Y003280D01*
X005851Y003359D02*
X007143Y003359D01*
X007140Y003437D02*
X005851Y003437D01*
X006955Y004065D02*
X008217Y004065D01*
X008217Y004144D02*
X007085Y004144D01*
X007164Y004222D02*
X007188Y004222D01*
X007680Y003987D02*
X007760Y003987D01*
X007760Y003908D02*
X007680Y003908D01*
X007680Y003830D02*
X007760Y003830D01*
X007760Y003751D02*
X007680Y003751D01*
X007680Y003673D02*
X007760Y003673D01*
X006443Y004929D02*
X005851Y004929D01*
X005851Y005007D02*
X006524Y005007D01*
X006297Y004850D02*
X005851Y004850D01*
X003229Y004379D02*
X002360Y004379D01*
X002360Y004301D02*
X003229Y004301D01*
X003243Y004222D02*
X002360Y004222D01*
X002123Y003751D02*
X003229Y003751D01*
X003229Y003673D02*
X002201Y003673D01*
X002280Y003594D02*
X003229Y003594D01*
X003229Y003516D02*
X002358Y003516D01*
X002360Y003437D02*
X003229Y003437D01*
X003229Y003359D02*
X002360Y003359D01*
X002360Y003280D02*
X003229Y003280D01*
X003264Y003202D02*
X002360Y003202D01*
X001679Y003673D02*
X001376Y003673D01*
X001380Y003594D02*
X001600Y003594D01*
X001522Y003516D02*
X001380Y003516D01*
X001380Y003437D02*
X001520Y003437D01*
X001327Y003751D02*
X001757Y003751D01*
X000980Y003751D02*
X000900Y003751D01*
X000900Y003673D02*
X000980Y003673D01*
X000980Y003594D02*
X000900Y003594D01*
X000900Y003516D02*
X000980Y003516D01*
X000900Y003300D02*
X000500Y003300D01*
X000500Y003022D01*
X000510Y002986D01*
X000528Y002954D01*
X000554Y002928D01*
X000586Y002910D01*
X000622Y002900D01*
X000900Y002900D01*
X000900Y003300D01*
X000900Y003280D02*
X000980Y003280D01*
X000980Y003202D02*
X000900Y003202D01*
X000900Y003123D02*
X000980Y003123D01*
X000980Y003045D02*
X000900Y003045D01*
X000900Y002966D02*
X000980Y002966D01*
X000521Y002966D02*
X000330Y002966D01*
X000330Y002888D02*
X003742Y002888D01*
X003742Y002809D02*
X000330Y002809D01*
X000330Y003045D02*
X000500Y003045D01*
X000500Y003123D02*
X000330Y003123D01*
X000330Y003202D02*
X000500Y003202D01*
X000500Y003280D02*
X000330Y003280D01*
X001900Y002731D02*
X001980Y002731D01*
X001980Y002652D02*
X001900Y002652D01*
X001900Y002574D02*
X001980Y002574D01*
X001980Y002495D02*
X001900Y002495D01*
X001900Y002417D02*
X001980Y002417D01*
X001980Y002181D02*
X001900Y002181D01*
X001900Y002103D02*
X001980Y002103D01*
X001980Y002024D02*
X001900Y002024D01*
X001900Y001946D02*
X001980Y001946D01*
X002343Y001946D02*
X003787Y001946D01*
X003787Y002024D02*
X002380Y002024D01*
X002380Y002103D02*
X003787Y002103D01*
X003787Y002181D02*
X002380Y002181D01*
X002380Y002260D02*
X003773Y002260D01*
X009990Y001710D02*
X010101Y001710D01*
X013277Y002181D02*
X014836Y002181D01*
X014914Y002260D02*
X013277Y002260D01*
X013276Y002338D02*
X014993Y002338D01*
X015010Y002417D02*
X013276Y002417D01*
X013275Y002495D02*
X015010Y002495D01*
X015010Y002574D02*
X013274Y002574D01*
X013274Y002652D02*
X015010Y002652D01*
X015010Y002731D02*
X013273Y002731D01*
X013273Y002809D02*
X015010Y002809D01*
X015010Y002888D02*
X013272Y002888D01*
X013271Y002966D02*
X015010Y002966D01*
X015010Y003045D02*
X013271Y003045D01*
X013270Y003123D02*
X015010Y003123D01*
X015010Y003202D02*
X013270Y003202D01*
X013269Y003280D02*
X015010Y003280D01*
X015010Y003359D02*
X013268Y003359D01*
X013268Y003437D02*
X015010Y003437D01*
X015005Y005010D02*
X015005Y005010D01*
M02*
