G75*
G70*
%OFA0B0*%
%FSLAX24Y24*%
%IPPOS*%
%LPD*%
%AMOC8*
5,1,8,0,0,1.08239X$1,22.5*
%
%ADD10R,0.0600X0.0600*%
%ADD11OC8,0.0600*%
%ADD12C,0.0080*%
D10*
X002800Y000650D03*
D11*
X001800Y000650D03*
X000800Y000650D03*
D12*
X000340Y000340D02*
X000340Y003350D01*
X000346Y003410D01*
X000392Y003522D01*
X000478Y003608D01*
X000590Y003654D01*
X000650Y003660D01*
X002950Y003660D01*
X003010Y003654D01*
X003122Y003608D01*
X003208Y003522D01*
X003254Y003410D01*
X003260Y003350D01*
X003260Y000340D01*
X003240Y000340D01*
X003240Y000610D01*
X002840Y000610D01*
X002840Y000690D01*
X003240Y000690D01*
X003240Y000968D01*
X003230Y001004D01*
X003212Y001036D01*
X003186Y001062D01*
X003154Y001080D01*
X003118Y001090D01*
X002840Y001090D01*
X002840Y000690D01*
X002760Y000690D01*
X002760Y001090D01*
X002482Y001090D01*
X002446Y001080D01*
X002414Y001062D01*
X002388Y001036D01*
X002370Y001004D01*
X002360Y000968D01*
X002360Y000690D01*
X002760Y000690D01*
X002760Y000610D01*
X002360Y000610D01*
X002360Y000340D01*
X002084Y000340D01*
X002220Y000476D01*
X002220Y000824D01*
X001974Y001070D01*
X001626Y001070D01*
X001380Y000824D01*
X001380Y000476D01*
X001516Y000340D01*
X001084Y000340D01*
X001220Y000476D01*
X001220Y000824D01*
X000974Y001070D01*
X000626Y001070D01*
X000380Y000824D01*
X000380Y000476D01*
X000516Y000340D01*
X000340Y000340D01*
X000340Y000386D02*
X000471Y000386D01*
X000392Y000464D02*
X000340Y000464D01*
X000340Y000543D02*
X000380Y000543D01*
X000380Y000621D02*
X000340Y000621D01*
X000340Y000700D02*
X000380Y000700D01*
X000380Y000778D02*
X000340Y000778D01*
X000340Y000857D02*
X000413Y000857D01*
X000340Y000935D02*
X000491Y000935D01*
X000570Y001014D02*
X000340Y001014D01*
X000340Y001092D02*
X003260Y001092D01*
X003260Y001014D02*
X003225Y001014D01*
X003240Y000935D02*
X003260Y000935D01*
X003260Y000857D02*
X003240Y000857D01*
X003240Y000778D02*
X003260Y000778D01*
X003260Y000700D02*
X003240Y000700D01*
X003260Y000621D02*
X002840Y000621D01*
X002840Y000700D02*
X002760Y000700D01*
X002760Y000778D02*
X002840Y000778D01*
X002840Y000857D02*
X002760Y000857D01*
X002760Y000935D02*
X002840Y000935D01*
X002840Y001014D02*
X002760Y001014D01*
X002375Y001014D02*
X002030Y001014D01*
X002109Y000935D02*
X002360Y000935D01*
X002360Y000857D02*
X002187Y000857D01*
X002220Y000778D02*
X002360Y000778D01*
X002360Y000700D02*
X002220Y000700D01*
X002220Y000621D02*
X002760Y000621D01*
X002360Y000543D02*
X002220Y000543D01*
X002208Y000464D02*
X002360Y000464D01*
X002360Y000386D02*
X002129Y000386D01*
X001570Y001014D02*
X001030Y001014D01*
X001109Y000935D02*
X001491Y000935D01*
X001413Y000857D02*
X001187Y000857D01*
X001220Y000778D02*
X001380Y000778D01*
X001380Y000700D02*
X001220Y000700D01*
X001220Y000621D02*
X001380Y000621D01*
X001380Y000543D02*
X001220Y000543D01*
X001208Y000464D02*
X001392Y000464D01*
X001471Y000386D02*
X001129Y000386D01*
X000340Y001171D02*
X003260Y001171D01*
X003260Y001249D02*
X000340Y001249D01*
X000340Y001328D02*
X003260Y001328D01*
X003260Y001406D02*
X000340Y001406D01*
X000340Y001485D02*
X003260Y001485D01*
X003260Y001563D02*
X000340Y001563D01*
X000340Y001642D02*
X003260Y001642D01*
X003260Y001720D02*
X000340Y001720D01*
X000340Y001799D02*
X003260Y001799D01*
X003260Y001877D02*
X000340Y001877D01*
X000340Y001956D02*
X003260Y001956D01*
X003260Y002034D02*
X000340Y002034D01*
X000340Y002113D02*
X003260Y002113D01*
X003260Y002191D02*
X000340Y002191D01*
X000340Y002270D02*
X003260Y002270D01*
X003260Y002348D02*
X000340Y002348D01*
X000340Y002427D02*
X003260Y002427D01*
X003260Y002505D02*
X000340Y002505D01*
X000340Y002584D02*
X003260Y002584D01*
X003260Y002662D02*
X000340Y002662D01*
X000340Y002741D02*
X003260Y002741D01*
X003260Y002819D02*
X000340Y002819D01*
X000340Y002898D02*
X003260Y002898D01*
X003260Y002976D02*
X000340Y002976D01*
X000340Y003055D02*
X003260Y003055D01*
X003260Y003133D02*
X000340Y003133D01*
X000340Y003212D02*
X003260Y003212D01*
X003260Y003290D02*
X000340Y003290D01*
X000342Y003369D02*
X003258Y003369D01*
X003239Y003447D02*
X000361Y003447D01*
X000396Y003526D02*
X003204Y003526D01*
X003126Y003604D02*
X000474Y003604D01*
X003240Y000543D02*
X003260Y000543D01*
X003260Y000464D02*
X003240Y000464D01*
X003240Y000386D02*
X003260Y000386D01*
M02*
