G75*
G70*
%OFA0B0*%
%FSLAX24Y24*%
%IPPOS*%
%LPD*%
%AMOC8*
5,1,8,0,0,1.08239X$1,22.5*
%
%ADD10R,0.0600X0.0600*%
%ADD11OC8,0.0600*%
%ADD12C,0.0080*%
D10*
X002870Y000650D03*
D11*
X001870Y000650D03*
X000870Y000650D03*
D12*
X000360Y000290D02*
X000360Y003350D01*
X000367Y003420D01*
X000421Y003550D01*
X000520Y003649D01*
X000650Y003703D01*
X000720Y003710D01*
X003020Y003710D01*
X003091Y003703D01*
X003220Y003649D01*
X003320Y003550D01*
X003374Y003420D01*
X003380Y003350D01*
X003380Y000290D01*
X003297Y000290D01*
X003301Y000296D01*
X003310Y000332D01*
X003310Y000610D01*
X002910Y000610D01*
X002910Y000690D01*
X002830Y000690D01*
X002830Y000610D01*
X002430Y000610D01*
X002430Y000332D01*
X002440Y000296D01*
X002443Y000290D01*
X002133Y000290D01*
X002310Y000468D01*
X002310Y000832D01*
X002053Y001090D01*
X001688Y001090D01*
X001430Y000832D01*
X001430Y000468D01*
X001608Y000290D01*
X001133Y000290D01*
X001310Y000468D01*
X001310Y000832D01*
X001053Y001090D01*
X000688Y001090D01*
X000430Y000832D01*
X000430Y000468D01*
X000608Y000290D01*
X000360Y000290D01*
X000360Y000307D02*
X000591Y000307D01*
X000513Y000386D02*
X000360Y000386D01*
X000360Y000464D02*
X000434Y000464D01*
X000430Y000543D02*
X000360Y000543D01*
X000360Y000621D02*
X000430Y000621D01*
X000430Y000700D02*
X000360Y000700D01*
X000360Y000778D02*
X000430Y000778D01*
X000455Y000857D02*
X000360Y000857D01*
X000360Y000935D02*
X000533Y000935D01*
X000612Y001014D02*
X000360Y001014D01*
X000360Y001092D02*
X003380Y001092D01*
X003380Y001014D02*
X003295Y001014D01*
X003301Y001004D02*
X003282Y001036D01*
X003256Y001062D01*
X003225Y001080D01*
X003189Y001090D01*
X002910Y001090D01*
X002910Y000690D01*
X003310Y000690D01*
X003310Y000968D01*
X003301Y001004D01*
X003310Y000935D02*
X003380Y000935D01*
X003380Y000857D02*
X003310Y000857D01*
X003310Y000778D02*
X003380Y000778D01*
X003380Y000700D02*
X003310Y000700D01*
X003380Y000621D02*
X002910Y000621D01*
X002910Y000700D02*
X002830Y000700D01*
X002830Y000690D02*
X002830Y001090D01*
X002552Y001090D01*
X002516Y001080D01*
X002485Y001062D01*
X002458Y001036D01*
X002440Y001004D01*
X002430Y000968D01*
X002430Y000690D01*
X002830Y000690D01*
X002830Y000621D02*
X002310Y000621D01*
X002310Y000543D02*
X002430Y000543D01*
X002430Y000464D02*
X002307Y000464D01*
X002228Y000386D02*
X002430Y000386D01*
X002437Y000307D02*
X002150Y000307D01*
X002310Y000700D02*
X002430Y000700D01*
X002430Y000778D02*
X002310Y000778D01*
X002286Y000857D02*
X002430Y000857D01*
X002430Y000935D02*
X002208Y000935D01*
X002129Y001014D02*
X002445Y001014D01*
X002830Y001014D02*
X002910Y001014D01*
X002910Y000935D02*
X002830Y000935D01*
X002830Y000857D02*
X002910Y000857D01*
X002910Y000778D02*
X002830Y000778D01*
X003310Y000543D02*
X003380Y000543D01*
X003380Y000464D02*
X003310Y000464D01*
X003310Y000386D02*
X003380Y000386D01*
X003380Y000307D02*
X003304Y000307D01*
X003380Y001171D02*
X000360Y001171D01*
X000360Y001249D02*
X003380Y001249D01*
X003380Y001328D02*
X000360Y001328D01*
X000360Y001406D02*
X003380Y001406D01*
X003380Y001485D02*
X000360Y001485D01*
X000360Y001563D02*
X003380Y001563D01*
X003380Y001642D02*
X000360Y001642D01*
X000360Y001720D02*
X003380Y001720D01*
X003380Y001799D02*
X000360Y001799D01*
X000360Y001877D02*
X003380Y001877D01*
X003380Y001956D02*
X000360Y001956D01*
X000360Y002034D02*
X003380Y002034D01*
X003380Y002113D02*
X000360Y002113D01*
X000360Y002191D02*
X003380Y002191D01*
X003380Y002270D02*
X000360Y002270D01*
X000360Y002348D02*
X003380Y002348D01*
X003380Y002427D02*
X000360Y002427D01*
X000360Y002505D02*
X003380Y002505D01*
X003380Y002584D02*
X000360Y002584D01*
X000360Y002662D02*
X003380Y002662D01*
X003380Y002741D02*
X000360Y002741D01*
X000360Y002819D02*
X003380Y002819D01*
X003380Y002898D02*
X000360Y002898D01*
X000360Y002976D02*
X003380Y002976D01*
X003380Y003055D02*
X000360Y003055D01*
X000360Y003133D02*
X003380Y003133D01*
X003380Y003212D02*
X000360Y003212D01*
X000360Y003290D02*
X003380Y003290D01*
X003379Y003369D02*
X000362Y003369D01*
X000378Y003447D02*
X003362Y003447D01*
X003330Y003526D02*
X000411Y003526D01*
X000475Y003604D02*
X003266Y003604D01*
X003140Y003683D02*
X000601Y003683D01*
X001129Y001014D02*
X001612Y001014D01*
X001533Y000935D02*
X001208Y000935D01*
X001286Y000857D02*
X001455Y000857D01*
X001430Y000778D02*
X001310Y000778D01*
X001310Y000700D02*
X001430Y000700D01*
X001430Y000621D02*
X001310Y000621D01*
X001310Y000543D02*
X001430Y000543D01*
X001434Y000464D02*
X001307Y000464D01*
X001228Y000386D02*
X001513Y000386D01*
X001591Y000307D02*
X001150Y000307D01*
M02*
