G75*
G70*
%OFA0B0*%
%FSLAX24Y24*%
%IPPOS*%
%LPD*%
%AMOC8*
5,1,8,0,0,1.08239X$1,22.5*
%
%ADD10R,0.0591X0.0591*%
%ADD11R,0.0945X0.0630*%
%ADD12R,0.0433X0.0394*%
%ADD13R,0.0600X0.0600*%
%ADD14OC8,0.0600*%
%ADD15C,0.1700*%
%ADD16C,0.0100*%
%ADD17C,0.0160*%
%ADD18C,0.0240*%
%ADD19C,0.0270*%
D10*
X007300Y002163D03*
X007300Y003541D03*
D11*
X011300Y003443D03*
X011300Y002262D03*
D12*
X007300Y001487D03*
X007300Y000818D03*
D13*
X008500Y003352D03*
X012500Y003352D03*
D14*
X012500Y002352D03*
X008500Y002352D03*
D15*
X005894Y003252D03*
X003531Y003252D03*
X004713Y001402D03*
D16*
X001900Y000352D02*
X001900Y005352D01*
X012600Y005352D01*
X012678Y005345D01*
X012822Y005285D01*
X012933Y005174D01*
X012992Y005030D01*
X013000Y004952D01*
X013000Y000752D01*
X012992Y000674D01*
X012933Y000530D01*
X012822Y000420D01*
X012678Y000360D01*
X012600Y000352D01*
X001900Y000352D01*
X012602Y000352D01*
X012853Y000451D02*
X005023Y000451D01*
X004990Y000439D02*
X005096Y000477D01*
X005197Y000525D01*
X005292Y000585D01*
X005380Y000655D01*
X005459Y000734D01*
X005529Y000822D01*
X005589Y000917D01*
X005638Y001019D01*
X005675Y001125D01*
X005700Y001234D01*
X005713Y001346D01*
X005713Y001352D01*
X004763Y001352D01*
X004763Y001452D01*
X005713Y001452D01*
X005713Y001458D01*
X005700Y001570D01*
X005675Y001679D01*
X005638Y001785D01*
X005589Y001886D01*
X005529Y001981D01*
X005459Y002069D01*
X005380Y002149D01*
X005292Y002219D01*
X005197Y002278D01*
X005096Y002327D01*
X004990Y002364D01*
X004880Y002389D01*
X004769Y002402D01*
X004763Y002402D01*
X004763Y001452D01*
X004663Y001452D01*
X004663Y002402D01*
X004656Y002402D01*
X004545Y002389D01*
X004435Y002364D01*
X004329Y002327D01*
X004228Y002278D01*
X004133Y002219D01*
X004045Y002149D01*
X003966Y002069D01*
X003896Y001981D01*
X003836Y001886D01*
X003787Y001785D01*
X003750Y001679D01*
X003725Y001570D01*
X003713Y001458D01*
X003713Y001452D01*
X004663Y001452D01*
X004663Y001352D01*
X004763Y001352D01*
X004763Y000402D01*
X004769Y000402D01*
X004880Y000414D01*
X004990Y000439D01*
X004763Y000451D02*
X004663Y000451D01*
X004663Y000402D02*
X004663Y001352D01*
X003713Y001352D01*
X003713Y001346D01*
X003725Y001234D01*
X003750Y001125D01*
X003787Y001019D01*
X003836Y000917D01*
X003896Y000822D01*
X003966Y000734D01*
X004045Y000655D01*
X004133Y000585D01*
X004228Y000525D01*
X004329Y000477D01*
X004435Y000439D01*
X004545Y000414D01*
X004656Y000402D01*
X004663Y000402D01*
X004663Y000549D02*
X004763Y000549D01*
X004763Y000648D02*
X004663Y000648D01*
X004663Y000746D02*
X004763Y000746D01*
X004763Y000845D02*
X004663Y000845D01*
X004663Y000943D02*
X004763Y000943D01*
X004763Y001042D02*
X004663Y001042D01*
X004663Y001140D02*
X004763Y001140D01*
X004763Y001239D02*
X004663Y001239D01*
X004663Y001337D02*
X004763Y001337D01*
X004763Y001436D02*
X006973Y001436D01*
X006973Y001534D02*
X005704Y001534D01*
X005686Y001633D02*
X006973Y001633D01*
X006973Y001729D02*
X006973Y001244D01*
X007038Y001180D01*
X007562Y001180D01*
X007627Y001244D01*
X007627Y001729D01*
X007598Y001758D01*
X007641Y001758D01*
X007705Y001822D01*
X007705Y002504D01*
X007641Y002569D01*
X006959Y002569D01*
X006895Y002504D01*
X006895Y001822D01*
X006959Y001758D01*
X007002Y001758D01*
X006973Y001729D01*
X006976Y001731D02*
X005657Y001731D01*
X005616Y001830D02*
X006895Y001830D01*
X006895Y001928D02*
X005563Y001928D01*
X005493Y002027D02*
X006895Y002027D01*
X006895Y002125D02*
X005403Y002125D01*
X005284Y002224D02*
X006895Y002224D01*
X006895Y002322D02*
X006157Y002322D01*
X006085Y002292D02*
X006437Y002438D01*
X006708Y002708D01*
X006854Y003061D01*
X006854Y003443D01*
X006708Y003796D01*
X006437Y004066D01*
X006085Y004212D01*
X005703Y004212D01*
X005350Y004066D01*
X005080Y003796D01*
X004934Y003443D01*
X004934Y003061D01*
X005080Y002708D01*
X005350Y002438D01*
X005703Y002292D01*
X006085Y002292D01*
X006395Y002421D02*
X006895Y002421D01*
X006910Y002519D02*
X006519Y002519D01*
X006617Y002618D02*
X008129Y002618D01*
X008050Y002539D02*
X008050Y002402D01*
X008450Y002402D01*
X008450Y002302D01*
X008550Y002302D01*
X008550Y001902D01*
X008686Y001902D01*
X008950Y002166D01*
X008950Y002302D01*
X008550Y002302D01*
X008550Y002402D01*
X008950Y002402D01*
X008950Y002539D01*
X008686Y002802D01*
X008550Y002802D01*
X008550Y002402D01*
X008450Y002402D01*
X008450Y002802D01*
X008314Y002802D01*
X008050Y002539D01*
X008050Y002519D02*
X007690Y002519D01*
X007705Y002421D02*
X008050Y002421D01*
X008050Y002302D02*
X008050Y002166D01*
X008314Y001902D01*
X008450Y001902D01*
X008450Y002302D01*
X008050Y002302D01*
X008050Y002224D02*
X007705Y002224D01*
X007705Y002322D02*
X008450Y002322D01*
X008450Y002224D02*
X008550Y002224D01*
X008550Y002322D02*
X010678Y002322D01*
X010678Y002312D02*
X010678Y002596D01*
X010688Y002635D01*
X010708Y002669D01*
X010735Y002697D01*
X010770Y002716D01*
X010808Y002727D01*
X011250Y002727D01*
X011250Y002312D01*
X011350Y002312D01*
X011350Y002727D01*
X011792Y002727D01*
X011830Y002716D01*
X011865Y002697D01*
X011892Y002669D01*
X011912Y002635D01*
X011922Y002596D01*
X011922Y002312D01*
X011350Y002312D01*
X011350Y002212D01*
X011922Y002212D01*
X011922Y001927D01*
X011912Y001889D01*
X011892Y001855D01*
X011865Y001827D01*
X011830Y001807D01*
X011792Y001797D01*
X011350Y001797D01*
X011350Y002212D01*
X011250Y002212D01*
X010678Y002212D01*
X010678Y001927D01*
X010688Y001889D01*
X010708Y001855D01*
X010735Y001827D01*
X010770Y001807D01*
X010808Y001797D01*
X011250Y001797D01*
X011250Y002212D01*
X011250Y002312D01*
X010678Y002312D01*
X010678Y002421D02*
X008950Y002421D01*
X008950Y002519D02*
X010678Y002519D01*
X010683Y002618D02*
X008871Y002618D01*
X008772Y002716D02*
X010770Y002716D01*
X011250Y002716D02*
X011350Y002716D01*
X011350Y002618D02*
X011250Y002618D01*
X011250Y002519D02*
X011350Y002519D01*
X011350Y002421D02*
X011250Y002421D01*
X011250Y002322D02*
X011350Y002322D01*
X011350Y002224D02*
X012050Y002224D01*
X012050Y002166D02*
X012050Y002302D01*
X012450Y002302D01*
X012550Y002302D01*
X012550Y001902D01*
X012686Y001902D01*
X012950Y002166D01*
X012950Y002302D01*
X012550Y002302D01*
X012550Y002402D01*
X012950Y002402D01*
X012950Y002539D01*
X012686Y002802D01*
X012550Y002802D01*
X012550Y002402D01*
X012450Y002402D01*
X012450Y002302D01*
X012450Y001902D01*
X012314Y001902D01*
X012050Y002166D01*
X012090Y002125D02*
X011922Y002125D01*
X011922Y002027D02*
X012189Y002027D01*
X012287Y001928D02*
X011922Y001928D01*
X011868Y001830D02*
X013000Y001830D01*
X013000Y001928D02*
X012713Y001928D01*
X012811Y002027D02*
X013000Y002027D01*
X013000Y002125D02*
X012910Y002125D01*
X012950Y002224D02*
X013000Y002224D01*
X013000Y002322D02*
X012550Y002322D01*
X012550Y002224D02*
X012450Y002224D01*
X012450Y002322D02*
X011922Y002322D01*
X011922Y002421D02*
X012050Y002421D01*
X012050Y002402D02*
X012450Y002402D01*
X012450Y002802D01*
X012314Y002802D01*
X012050Y002539D01*
X012050Y002402D01*
X012050Y002519D02*
X011922Y002519D01*
X011917Y002618D02*
X012129Y002618D01*
X012228Y002716D02*
X011830Y002716D01*
X012090Y003007D02*
X012154Y002942D01*
X012846Y002942D01*
X012910Y003007D01*
X012910Y003698D01*
X012846Y003762D01*
X012154Y003762D01*
X012090Y003698D01*
X012090Y003673D01*
X011882Y003673D01*
X011882Y003803D01*
X011818Y003868D01*
X011530Y003868D01*
X011530Y003957D01*
X011566Y003993D01*
X011581Y004029D01*
X011588Y004037D01*
X011588Y004047D01*
X011603Y004083D01*
X011603Y004181D01*
X011588Y004217D01*
X011588Y004227D01*
X011581Y004234D01*
X011566Y004271D01*
X011497Y004339D01*
X011461Y004354D01*
X011454Y004362D01*
X011443Y004362D01*
X011407Y004377D01*
X011310Y004377D01*
X011273Y004362D01*
X011263Y004362D01*
X011256Y004354D01*
X011219Y004339D01*
X011151Y004271D01*
X011136Y004234D01*
X011070Y004169D01*
X011070Y003868D01*
X010782Y003868D01*
X010718Y003803D01*
X010718Y003673D01*
X008910Y003673D01*
X008910Y003698D01*
X008846Y003762D01*
X008415Y003762D01*
X008406Y003771D01*
X007705Y003771D01*
X007705Y003882D01*
X007641Y003947D01*
X006959Y003947D01*
X006895Y003882D01*
X006895Y003200D01*
X006959Y003136D01*
X007641Y003136D01*
X007705Y003200D01*
X007705Y003311D01*
X008090Y003311D01*
X008090Y003007D01*
X008154Y002942D01*
X008846Y002942D01*
X008910Y003007D01*
X008910Y003213D01*
X010718Y003213D01*
X010718Y003082D01*
X010782Y003018D01*
X011818Y003018D01*
X011882Y003082D01*
X011882Y003213D01*
X012090Y003213D01*
X012090Y003007D01*
X012090Y003012D02*
X008910Y003012D01*
X008910Y003110D02*
X010718Y003110D01*
X010718Y003209D02*
X008910Y003209D01*
X008090Y003209D02*
X007705Y003209D01*
X007705Y003307D02*
X008090Y003307D01*
X008090Y003110D02*
X006854Y003110D01*
X006854Y003209D02*
X006895Y003209D01*
X006895Y003307D02*
X006854Y003307D01*
X006854Y003406D02*
X006895Y003406D01*
X006895Y003504D02*
X006828Y003504D01*
X006788Y003603D02*
X006895Y003603D01*
X006895Y003701D02*
X006747Y003701D01*
X006704Y003800D02*
X006895Y003800D01*
X006911Y003898D02*
X006605Y003898D01*
X006507Y003997D02*
X011070Y003997D01*
X011070Y004095D02*
X006367Y004095D01*
X006129Y004194D02*
X011095Y004194D01*
X011172Y004292D02*
X001900Y004292D01*
X001900Y004194D02*
X003195Y004194D01*
X003148Y004178D02*
X003047Y004129D01*
X002952Y004069D01*
X002864Y003999D01*
X002785Y003920D01*
X002715Y003832D01*
X002655Y003737D01*
X002606Y003636D01*
X002569Y003530D01*
X002544Y003420D01*
X002531Y003308D01*
X002531Y003302D01*
X003481Y003302D01*
X003481Y003202D01*
X002531Y003202D01*
X002531Y003196D01*
X002544Y003084D01*
X002569Y002975D01*
X002606Y002869D01*
X002655Y002768D01*
X002715Y002673D01*
X002785Y002585D01*
X002864Y002505D01*
X002952Y002435D01*
X003047Y002376D01*
X003148Y002327D01*
X003254Y002290D01*
X003364Y002265D01*
X003475Y002252D01*
X003481Y002252D01*
X003481Y003202D01*
X003581Y003202D01*
X003581Y002252D01*
X003588Y002252D01*
X003699Y002265D01*
X003809Y002290D01*
X003915Y002327D01*
X004016Y002376D01*
X004111Y002435D01*
X004199Y002505D01*
X004278Y002585D01*
X004348Y002673D01*
X004408Y002768D01*
X004457Y002869D01*
X004494Y002975D01*
X004519Y003084D01*
X004531Y003196D01*
X004531Y003202D01*
X003582Y003202D01*
X003582Y003302D01*
X004531Y003302D01*
X004531Y003308D01*
X004519Y003420D01*
X004494Y003530D01*
X004457Y003636D01*
X004408Y003737D01*
X004348Y003832D01*
X004278Y003920D01*
X004199Y003999D01*
X004111Y004069D01*
X004016Y004129D01*
X003915Y004178D01*
X003809Y004215D01*
X003699Y004240D01*
X003588Y004252D01*
X003581Y004252D01*
X003581Y003302D01*
X003481Y003302D01*
X003481Y004252D01*
X003475Y004252D01*
X003364Y004240D01*
X003254Y004215D01*
X003148Y004178D01*
X002994Y004095D02*
X001900Y004095D01*
X001900Y003997D02*
X002862Y003997D01*
X002768Y003898D02*
X001900Y003898D01*
X001900Y003800D02*
X002695Y003800D01*
X002638Y003701D02*
X001900Y003701D01*
X001900Y003603D02*
X002595Y003603D01*
X002563Y003504D02*
X001900Y003504D01*
X001900Y003406D02*
X002542Y003406D01*
X002531Y003307D02*
X001900Y003307D01*
X001900Y003209D02*
X003481Y003209D01*
X003582Y003209D02*
X004934Y003209D01*
X004934Y003307D02*
X004531Y003307D01*
X004521Y003406D02*
X004934Y003406D01*
X004959Y003504D02*
X004500Y003504D01*
X004468Y003603D02*
X005000Y003603D01*
X005041Y003701D02*
X004425Y003701D01*
X004368Y003800D02*
X005084Y003800D01*
X005182Y003898D02*
X004295Y003898D01*
X004201Y003997D02*
X005281Y003997D01*
X005421Y004095D02*
X004069Y004095D01*
X003868Y004194D02*
X005658Y004194D01*
X007689Y003898D02*
X011070Y003898D01*
X010718Y003800D02*
X007705Y003800D01*
X008906Y003701D02*
X010718Y003701D01*
X011530Y003898D02*
X013000Y003898D01*
X013000Y003800D02*
X011882Y003800D01*
X011882Y003701D02*
X012094Y003701D01*
X011568Y003997D02*
X013000Y003997D01*
X013000Y004095D02*
X011603Y004095D01*
X011598Y004194D02*
X013000Y004194D01*
X013000Y004292D02*
X011544Y004292D01*
X013000Y004391D02*
X001900Y004391D01*
X001900Y004489D02*
X013000Y004489D01*
X013000Y004588D02*
X001900Y004588D01*
X001900Y004686D02*
X013000Y004686D01*
X013000Y004785D02*
X001900Y004785D01*
X001900Y004883D02*
X013000Y004883D01*
X012997Y004982D02*
X001900Y004982D01*
X001900Y005080D02*
X012972Y005080D01*
X012928Y005179D02*
X001900Y005179D01*
X001900Y005277D02*
X012830Y005277D01*
X012906Y003701D02*
X013000Y003701D01*
X013000Y003603D02*
X012910Y003603D01*
X012910Y003504D02*
X013000Y003504D01*
X013000Y003406D02*
X012910Y003406D01*
X012910Y003307D02*
X013000Y003307D01*
X013000Y003209D02*
X012910Y003209D01*
X012910Y003110D02*
X013000Y003110D01*
X013000Y003012D02*
X012910Y003012D01*
X013000Y002913D02*
X006792Y002913D01*
X006833Y003012D02*
X008090Y003012D01*
X008228Y002716D02*
X006711Y002716D01*
X006752Y002815D02*
X013000Y002815D01*
X013000Y002716D02*
X012772Y002716D01*
X012871Y002618D02*
X013000Y002618D01*
X013000Y002519D02*
X012950Y002519D01*
X012950Y002421D02*
X013000Y002421D01*
X012550Y002421D02*
X012450Y002421D01*
X012450Y002519D02*
X012550Y002519D01*
X012550Y002618D02*
X012450Y002618D01*
X012450Y002716D02*
X012550Y002716D01*
X012090Y003110D02*
X011882Y003110D01*
X011882Y003209D02*
X012090Y003209D01*
X011250Y002224D02*
X008950Y002224D01*
X008910Y002125D02*
X010678Y002125D01*
X010678Y002027D02*
X008811Y002027D01*
X008550Y002027D02*
X008450Y002027D01*
X008450Y002125D02*
X008550Y002125D01*
X008189Y002027D02*
X007705Y002027D01*
X007705Y002125D02*
X008090Y002125D01*
X008287Y001928D02*
X007705Y001928D01*
X007705Y001830D02*
X010732Y001830D01*
X010678Y001928D02*
X008713Y001928D01*
X008550Y001928D02*
X008450Y001928D01*
X007624Y001731D02*
X013000Y001731D01*
X013000Y001633D02*
X007627Y001633D01*
X007627Y001534D02*
X013000Y001534D01*
X013000Y001436D02*
X007627Y001436D01*
X007627Y001337D02*
X013000Y001337D01*
X013000Y001239D02*
X007621Y001239D01*
X007574Y001154D02*
X007536Y001164D01*
X007348Y001164D01*
X007348Y000866D01*
X007252Y000866D01*
X007252Y001164D01*
X007064Y001164D01*
X007026Y001154D01*
X006991Y001135D01*
X006963Y001107D01*
X006944Y001072D01*
X006933Y001034D01*
X006933Y000866D01*
X007252Y000866D01*
X007252Y000769D01*
X007348Y000769D01*
X007348Y000471D01*
X007536Y000471D01*
X007574Y000481D01*
X007609Y000501D01*
X007637Y000529D01*
X007656Y000563D01*
X007667Y000601D01*
X007667Y000769D01*
X007348Y000769D01*
X007348Y000866D01*
X007667Y000866D01*
X007667Y001034D01*
X007656Y001072D01*
X007637Y001107D01*
X007609Y001135D01*
X007574Y001154D01*
X007598Y001140D02*
X013000Y001140D01*
X013000Y001042D02*
X007664Y001042D01*
X007667Y000943D02*
X013000Y000943D01*
X013000Y000845D02*
X007348Y000845D01*
X007252Y000845D02*
X005544Y000845D01*
X005469Y000746D02*
X006933Y000746D01*
X006933Y000769D02*
X006933Y000601D01*
X006944Y000563D01*
X006963Y000529D01*
X006991Y000501D01*
X007026Y000481D01*
X007064Y000471D01*
X007252Y000471D01*
X007252Y000769D01*
X006933Y000769D01*
X006933Y000648D02*
X005371Y000648D01*
X005236Y000549D02*
X006951Y000549D01*
X007252Y000549D02*
X007348Y000549D01*
X007348Y000648D02*
X007252Y000648D01*
X007252Y000746D02*
X007348Y000746D01*
X007667Y000746D02*
X012999Y000746D01*
X012981Y000648D02*
X007667Y000648D01*
X007649Y000549D02*
X012941Y000549D01*
X011350Y001830D02*
X011250Y001830D01*
X011250Y001928D02*
X011350Y001928D01*
X011350Y002027D02*
X011250Y002027D01*
X011250Y002125D02*
X011350Y002125D01*
X012450Y002125D02*
X012550Y002125D01*
X012550Y002027D02*
X012450Y002027D01*
X012450Y001928D02*
X012550Y001928D01*
X008550Y002421D02*
X008450Y002421D01*
X008450Y002519D02*
X008550Y002519D01*
X008550Y002618D02*
X008450Y002618D01*
X008450Y002716D02*
X008550Y002716D01*
X005630Y002322D02*
X005106Y002322D01*
X005392Y002421D02*
X004088Y002421D01*
X004213Y002519D02*
X005269Y002519D01*
X005170Y002618D02*
X004305Y002618D01*
X004376Y002716D02*
X005077Y002716D01*
X005036Y002815D02*
X004431Y002815D01*
X004472Y002913D02*
X004995Y002913D01*
X004954Y003012D02*
X004502Y003012D01*
X004522Y003110D02*
X004934Y003110D01*
X003581Y003110D02*
X003481Y003110D01*
X003481Y003012D02*
X003581Y003012D01*
X003581Y002913D02*
X003481Y002913D01*
X003481Y002815D02*
X003581Y002815D01*
X003581Y002716D02*
X003481Y002716D01*
X003481Y002618D02*
X003581Y002618D01*
X003581Y002519D02*
X003481Y002519D01*
X003481Y002421D02*
X003581Y002421D01*
X003581Y002322D02*
X003481Y002322D01*
X003161Y002322D02*
X001900Y002322D01*
X001900Y002224D02*
X004141Y002224D01*
X004319Y002322D02*
X003902Y002322D01*
X004022Y002125D02*
X001900Y002125D01*
X001900Y002027D02*
X003932Y002027D01*
X003862Y001928D02*
X001900Y001928D01*
X001900Y001830D02*
X003809Y001830D01*
X003768Y001731D02*
X001900Y001731D01*
X001900Y001633D02*
X003740Y001633D01*
X003721Y001534D02*
X001900Y001534D01*
X001900Y001436D02*
X004663Y001436D01*
X004663Y001534D02*
X004763Y001534D01*
X004763Y001633D02*
X004663Y001633D01*
X004663Y001731D02*
X004763Y001731D01*
X004763Y001830D02*
X004663Y001830D01*
X004663Y001928D02*
X004763Y001928D01*
X004763Y002027D02*
X004663Y002027D01*
X004663Y002125D02*
X004763Y002125D01*
X004763Y002224D02*
X004663Y002224D01*
X004663Y002322D02*
X004763Y002322D01*
X002975Y002421D02*
X001900Y002421D01*
X001900Y002519D02*
X002850Y002519D01*
X002758Y002618D02*
X001900Y002618D01*
X001900Y002716D02*
X002687Y002716D01*
X002632Y002815D02*
X001900Y002815D01*
X001900Y002913D02*
X002591Y002913D01*
X002561Y003012D02*
X001900Y003012D01*
X001900Y003110D02*
X002541Y003110D01*
X003481Y003307D02*
X003581Y003307D01*
X003581Y003406D02*
X003481Y003406D01*
X003481Y003504D02*
X003581Y003504D01*
X003581Y003603D02*
X003481Y003603D01*
X003481Y003701D02*
X003581Y003701D01*
X003581Y003800D02*
X003481Y003800D01*
X003481Y003898D02*
X003581Y003898D01*
X003581Y003997D02*
X003481Y003997D01*
X003481Y004095D02*
X003581Y004095D01*
X003581Y004194D02*
X003481Y004194D01*
X003714Y001337D02*
X001900Y001337D01*
X001900Y001239D02*
X003725Y001239D01*
X003747Y001140D02*
X001900Y001140D01*
X001900Y001042D02*
X003779Y001042D01*
X003823Y000943D02*
X001900Y000943D01*
X001900Y000845D02*
X003882Y000845D01*
X003956Y000746D02*
X001900Y000746D01*
X001900Y000648D02*
X004054Y000648D01*
X004190Y000549D02*
X001900Y000549D01*
X001900Y000451D02*
X004403Y000451D01*
X005602Y000943D02*
X006933Y000943D01*
X006936Y001042D02*
X005646Y001042D01*
X005679Y001140D02*
X007002Y001140D01*
X006979Y001239D02*
X005701Y001239D01*
X005712Y001337D02*
X006973Y001337D01*
X007252Y001140D02*
X007348Y001140D01*
X007348Y001042D02*
X007252Y001042D01*
X007252Y000943D02*
X007348Y000943D01*
D17*
X007300Y001487D02*
X007300Y002163D01*
D18*
X008500Y003352D02*
X008311Y003541D01*
X007300Y003541D01*
X008500Y003352D02*
X008591Y003443D01*
X011300Y003443D01*
X011300Y004074D01*
X011358Y004132D01*
X011300Y003443D02*
X012409Y003443D01*
X012500Y003352D01*
D19*
X011358Y004132D03*
M02*
