G75*
G70*
%OFA0B0*%
%FSLAX24Y24*%
%IPPOS*%
%LPD*%
%AMOC8*
5,1,8,0,0,1.08239X$1,22.5*
%
%ADD10C,0.0000*%
D10*
X000663Y001150D02*
X000663Y006150D01*
X000665Y006210D01*
X000670Y006271D01*
X000679Y006330D01*
X000692Y006389D01*
X000708Y006448D01*
X000728Y006505D01*
X000751Y006560D01*
X000778Y006615D01*
X000807Y006667D01*
X000840Y006718D01*
X000876Y006767D01*
X000914Y006813D01*
X000956Y006857D01*
X001000Y006899D01*
X001046Y006937D01*
X001095Y006973D01*
X001146Y007006D01*
X001198Y007035D01*
X001253Y007062D01*
X001308Y007085D01*
X001365Y007105D01*
X001424Y007121D01*
X001483Y007134D01*
X001542Y007143D01*
X001603Y007148D01*
X001663Y007150D01*
X009663Y007150D01*
X009033Y006150D02*
X009035Y006200D01*
X009041Y006250D01*
X009051Y006299D01*
X009065Y006347D01*
X009082Y006394D01*
X009103Y006439D01*
X009128Y006483D01*
X009156Y006524D01*
X009188Y006563D01*
X009222Y006600D01*
X009259Y006634D01*
X009299Y006664D01*
X009341Y006691D01*
X009385Y006715D01*
X009431Y006736D01*
X009478Y006752D01*
X009526Y006765D01*
X009576Y006774D01*
X009625Y006779D01*
X009676Y006780D01*
X009726Y006777D01*
X009775Y006770D01*
X009824Y006759D01*
X009872Y006744D01*
X009918Y006726D01*
X009963Y006704D01*
X010006Y006678D01*
X010047Y006649D01*
X010086Y006617D01*
X010122Y006582D01*
X010154Y006544D01*
X010184Y006504D01*
X010211Y006461D01*
X010234Y006417D01*
X010253Y006371D01*
X010269Y006323D01*
X010281Y006274D01*
X010289Y006225D01*
X010293Y006175D01*
X010293Y006125D01*
X010289Y006075D01*
X010281Y006026D01*
X010269Y005977D01*
X010253Y005929D01*
X010234Y005883D01*
X010211Y005839D01*
X010184Y005796D01*
X010154Y005756D01*
X010122Y005718D01*
X010086Y005683D01*
X010047Y005651D01*
X010006Y005622D01*
X009963Y005596D01*
X009918Y005574D01*
X009872Y005556D01*
X009824Y005541D01*
X009775Y005530D01*
X009726Y005523D01*
X009676Y005520D01*
X009625Y005521D01*
X009576Y005526D01*
X009526Y005535D01*
X009478Y005548D01*
X009431Y005564D01*
X009385Y005585D01*
X009341Y005609D01*
X009299Y005636D01*
X009259Y005666D01*
X009222Y005700D01*
X009188Y005737D01*
X009156Y005776D01*
X009128Y005817D01*
X009103Y005861D01*
X009082Y005906D01*
X009065Y005953D01*
X009051Y006001D01*
X009041Y006050D01*
X009035Y006100D01*
X009033Y006150D01*
X009663Y007150D02*
X009723Y007148D01*
X009784Y007143D01*
X009843Y007134D01*
X009902Y007121D01*
X009961Y007105D01*
X010018Y007085D01*
X010073Y007062D01*
X010128Y007035D01*
X010180Y007006D01*
X010231Y006973D01*
X010280Y006937D01*
X010326Y006899D01*
X010370Y006857D01*
X010412Y006813D01*
X010450Y006767D01*
X010486Y006718D01*
X010519Y006667D01*
X010548Y006615D01*
X010575Y006560D01*
X010598Y006505D01*
X010618Y006448D01*
X010634Y006389D01*
X010647Y006330D01*
X010656Y006271D01*
X010661Y006210D01*
X010663Y006150D01*
X010663Y001150D01*
X009033Y001150D02*
X009035Y001200D01*
X009041Y001250D01*
X009051Y001299D01*
X009065Y001347D01*
X009082Y001394D01*
X009103Y001439D01*
X009128Y001483D01*
X009156Y001524D01*
X009188Y001563D01*
X009222Y001600D01*
X009259Y001634D01*
X009299Y001664D01*
X009341Y001691D01*
X009385Y001715D01*
X009431Y001736D01*
X009478Y001752D01*
X009526Y001765D01*
X009576Y001774D01*
X009625Y001779D01*
X009676Y001780D01*
X009726Y001777D01*
X009775Y001770D01*
X009824Y001759D01*
X009872Y001744D01*
X009918Y001726D01*
X009963Y001704D01*
X010006Y001678D01*
X010047Y001649D01*
X010086Y001617D01*
X010122Y001582D01*
X010154Y001544D01*
X010184Y001504D01*
X010211Y001461D01*
X010234Y001417D01*
X010253Y001371D01*
X010269Y001323D01*
X010281Y001274D01*
X010289Y001225D01*
X010293Y001175D01*
X010293Y001125D01*
X010289Y001075D01*
X010281Y001026D01*
X010269Y000977D01*
X010253Y000929D01*
X010234Y000883D01*
X010211Y000839D01*
X010184Y000796D01*
X010154Y000756D01*
X010122Y000718D01*
X010086Y000683D01*
X010047Y000651D01*
X010006Y000622D01*
X009963Y000596D01*
X009918Y000574D01*
X009872Y000556D01*
X009824Y000541D01*
X009775Y000530D01*
X009726Y000523D01*
X009676Y000520D01*
X009625Y000521D01*
X009576Y000526D01*
X009526Y000535D01*
X009478Y000548D01*
X009431Y000564D01*
X009385Y000585D01*
X009341Y000609D01*
X009299Y000636D01*
X009259Y000666D01*
X009222Y000700D01*
X009188Y000737D01*
X009156Y000776D01*
X009128Y000817D01*
X009103Y000861D01*
X009082Y000906D01*
X009065Y000953D01*
X009051Y001001D01*
X009041Y001050D01*
X009035Y001100D01*
X009033Y001150D01*
X009663Y000150D02*
X009723Y000152D01*
X009784Y000157D01*
X009843Y000166D01*
X009902Y000179D01*
X009961Y000195D01*
X010018Y000215D01*
X010073Y000238D01*
X010128Y000265D01*
X010180Y000294D01*
X010231Y000327D01*
X010280Y000363D01*
X010326Y000401D01*
X010370Y000443D01*
X010412Y000487D01*
X010450Y000533D01*
X010486Y000582D01*
X010519Y000633D01*
X010548Y000685D01*
X010575Y000740D01*
X010598Y000795D01*
X010618Y000852D01*
X010634Y000911D01*
X010647Y000970D01*
X010656Y001029D01*
X010661Y001090D01*
X010663Y001150D01*
X009663Y000150D02*
X001663Y000150D01*
X001603Y000152D01*
X001542Y000157D01*
X001483Y000166D01*
X001424Y000179D01*
X001365Y000195D01*
X001308Y000215D01*
X001253Y000238D01*
X001198Y000265D01*
X001146Y000294D01*
X001095Y000327D01*
X001046Y000363D01*
X001000Y000401D01*
X000956Y000443D01*
X000914Y000487D01*
X000876Y000533D01*
X000840Y000582D01*
X000807Y000633D01*
X000778Y000685D01*
X000751Y000740D01*
X000728Y000795D01*
X000708Y000852D01*
X000692Y000911D01*
X000679Y000970D01*
X000670Y001029D01*
X000665Y001090D01*
X000663Y001150D01*
X002286Y002784D02*
X002288Y002810D01*
X002294Y002836D01*
X002304Y002861D01*
X002317Y002884D01*
X002333Y002904D01*
X002353Y002922D01*
X002375Y002937D01*
X002398Y002949D01*
X002424Y002957D01*
X002450Y002961D01*
X002476Y002961D01*
X002502Y002957D01*
X002528Y002949D01*
X002552Y002937D01*
X002573Y002922D01*
X002593Y002904D01*
X002609Y002884D01*
X002622Y002861D01*
X002632Y002836D01*
X002638Y002810D01*
X002640Y002784D01*
X002638Y002758D01*
X002632Y002732D01*
X002622Y002707D01*
X002609Y002684D01*
X002593Y002664D01*
X002573Y002646D01*
X002551Y002631D01*
X002528Y002619D01*
X002502Y002611D01*
X002476Y002607D01*
X002450Y002607D01*
X002424Y002611D01*
X002398Y002619D01*
X002374Y002631D01*
X002353Y002646D01*
X002333Y002664D01*
X002317Y002684D01*
X002304Y002707D01*
X002294Y002732D01*
X002288Y002758D01*
X002286Y002784D01*
X002286Y004516D02*
X002288Y004542D01*
X002294Y004568D01*
X002304Y004593D01*
X002317Y004616D01*
X002333Y004636D01*
X002353Y004654D01*
X002375Y004669D01*
X002398Y004681D01*
X002424Y004689D01*
X002450Y004693D01*
X002476Y004693D01*
X002502Y004689D01*
X002528Y004681D01*
X002552Y004669D01*
X002573Y004654D01*
X002593Y004636D01*
X002609Y004616D01*
X002622Y004593D01*
X002632Y004568D01*
X002638Y004542D01*
X002640Y004516D01*
X002638Y004490D01*
X002632Y004464D01*
X002622Y004439D01*
X002609Y004416D01*
X002593Y004396D01*
X002573Y004378D01*
X002551Y004363D01*
X002528Y004351D01*
X002502Y004343D01*
X002476Y004339D01*
X002450Y004339D01*
X002424Y004343D01*
X002398Y004351D01*
X002374Y004363D01*
X002353Y004378D01*
X002333Y004396D01*
X002317Y004416D01*
X002304Y004439D01*
X002294Y004464D01*
X002288Y004490D01*
X002286Y004516D01*
X004533Y006150D02*
X004535Y006200D01*
X004541Y006250D01*
X004551Y006299D01*
X004565Y006347D01*
X004582Y006394D01*
X004603Y006439D01*
X004628Y006483D01*
X004656Y006524D01*
X004688Y006563D01*
X004722Y006600D01*
X004759Y006634D01*
X004799Y006664D01*
X004841Y006691D01*
X004885Y006715D01*
X004931Y006736D01*
X004978Y006752D01*
X005026Y006765D01*
X005076Y006774D01*
X005125Y006779D01*
X005176Y006780D01*
X005226Y006777D01*
X005275Y006770D01*
X005324Y006759D01*
X005372Y006744D01*
X005418Y006726D01*
X005463Y006704D01*
X005506Y006678D01*
X005547Y006649D01*
X005586Y006617D01*
X005622Y006582D01*
X005654Y006544D01*
X005684Y006504D01*
X005711Y006461D01*
X005734Y006417D01*
X005753Y006371D01*
X005769Y006323D01*
X005781Y006274D01*
X005789Y006225D01*
X005793Y006175D01*
X005793Y006125D01*
X005789Y006075D01*
X005781Y006026D01*
X005769Y005977D01*
X005753Y005929D01*
X005734Y005883D01*
X005711Y005839D01*
X005684Y005796D01*
X005654Y005756D01*
X005622Y005718D01*
X005586Y005683D01*
X005547Y005651D01*
X005506Y005622D01*
X005463Y005596D01*
X005418Y005574D01*
X005372Y005556D01*
X005324Y005541D01*
X005275Y005530D01*
X005226Y005523D01*
X005176Y005520D01*
X005125Y005521D01*
X005076Y005526D01*
X005026Y005535D01*
X004978Y005548D01*
X004931Y005564D01*
X004885Y005585D01*
X004841Y005609D01*
X004799Y005636D01*
X004759Y005666D01*
X004722Y005700D01*
X004688Y005737D01*
X004656Y005776D01*
X004628Y005817D01*
X004603Y005861D01*
X004582Y005906D01*
X004565Y005953D01*
X004551Y006001D01*
X004541Y006050D01*
X004535Y006100D01*
X004533Y006150D01*
X004533Y001150D02*
X004535Y001200D01*
X004541Y001250D01*
X004551Y001299D01*
X004565Y001347D01*
X004582Y001394D01*
X004603Y001439D01*
X004628Y001483D01*
X004656Y001524D01*
X004688Y001563D01*
X004722Y001600D01*
X004759Y001634D01*
X004799Y001664D01*
X004841Y001691D01*
X004885Y001715D01*
X004931Y001736D01*
X004978Y001752D01*
X005026Y001765D01*
X005076Y001774D01*
X005125Y001779D01*
X005176Y001780D01*
X005226Y001777D01*
X005275Y001770D01*
X005324Y001759D01*
X005372Y001744D01*
X005418Y001726D01*
X005463Y001704D01*
X005506Y001678D01*
X005547Y001649D01*
X005586Y001617D01*
X005622Y001582D01*
X005654Y001544D01*
X005684Y001504D01*
X005711Y001461D01*
X005734Y001417D01*
X005753Y001371D01*
X005769Y001323D01*
X005781Y001274D01*
X005789Y001225D01*
X005793Y001175D01*
X005793Y001125D01*
X005789Y001075D01*
X005781Y001026D01*
X005769Y000977D01*
X005753Y000929D01*
X005734Y000883D01*
X005711Y000839D01*
X005684Y000796D01*
X005654Y000756D01*
X005622Y000718D01*
X005586Y000683D01*
X005547Y000651D01*
X005506Y000622D01*
X005463Y000596D01*
X005418Y000574D01*
X005372Y000556D01*
X005324Y000541D01*
X005275Y000530D01*
X005226Y000523D01*
X005176Y000520D01*
X005125Y000521D01*
X005076Y000526D01*
X005026Y000535D01*
X004978Y000548D01*
X004931Y000564D01*
X004885Y000585D01*
X004841Y000609D01*
X004799Y000636D01*
X004759Y000666D01*
X004722Y000700D01*
X004688Y000737D01*
X004656Y000776D01*
X004628Y000817D01*
X004603Y000861D01*
X004582Y000906D01*
X004565Y000953D01*
X004551Y001001D01*
X004541Y001050D01*
X004535Y001100D01*
X004533Y001150D01*
M02*
