G75*
G70*
%OFA0B0*%
%FSLAX24Y24*%
%IPPOS*%
%LPD*%
%AMOC8*
5,1,8,0,0,1.08239X$1,22.5*
%
%ADD10R,0.0984X0.0197*%
%ADD11R,0.0984X0.0787*%
%ADD12OC8,0.0900*%
%ADD13C,0.0500*%
%ADD14C,0.0472*%
%ADD15C,0.0100*%
%ADD16C,0.0160*%
%ADD17C,0.0270*%
D10*
X003447Y003020D03*
X003447Y003335D03*
X003447Y003650D03*
X003447Y003965D03*
X003447Y004280D03*
D11*
X003447Y005422D03*
X001282Y005422D03*
X001282Y001878D03*
X003447Y001878D03*
D12*
X004663Y003150D03*
X004663Y004150D03*
X009663Y004150D03*
X009663Y003150D03*
D13*
X008113Y003150D03*
X008113Y004150D03*
X006113Y004150D03*
X006113Y003150D03*
D14*
X007113Y003150D03*
X007113Y004150D03*
D15*
X004567Y000643D02*
X000994Y000643D01*
X001062Y000549D02*
X000905Y000764D01*
X000823Y001017D01*
X000813Y001150D01*
X000813Y001335D01*
X001232Y001335D01*
X001232Y001828D01*
X001332Y001828D01*
X001332Y001928D01*
X001924Y001928D01*
X001924Y002292D01*
X001914Y002330D01*
X001894Y002364D01*
X001866Y002392D01*
X001832Y002412D01*
X001794Y002422D01*
X001332Y002422D01*
X001332Y001928D01*
X001232Y001928D01*
X001232Y002422D01*
X000813Y002422D01*
X000813Y004878D01*
X001232Y004878D01*
X001332Y004878D01*
X001794Y004878D01*
X002935Y004878D01*
X003397Y004878D01*
X003497Y004878D01*
X003959Y004878D01*
X003997Y004888D01*
X004031Y004908D01*
X004059Y004936D01*
X004079Y004970D01*
X004089Y005008D01*
X004089Y005372D01*
X003497Y005372D01*
X003497Y005472D01*
X003397Y005472D01*
X003397Y005965D01*
X002935Y005965D01*
X002897Y005955D01*
X002863Y005935D01*
X002835Y005907D01*
X002815Y005873D01*
X002805Y005835D01*
X002805Y005472D01*
X003397Y005472D01*
X003397Y005372D01*
X002805Y005372D01*
X002805Y005008D01*
X002815Y004970D01*
X002835Y004936D01*
X002863Y004908D01*
X002897Y004888D01*
X002935Y004878D01*
X002813Y004977D02*
X001915Y004977D01*
X001914Y004970D02*
X001924Y005008D01*
X001924Y005372D01*
X001332Y005372D01*
X001332Y005472D01*
X001232Y005472D01*
X001232Y005965D01*
X000813Y005965D01*
X000813Y006150D01*
X000823Y006283D01*
X000905Y006536D01*
X001062Y006751D01*
X001277Y006907D01*
X001530Y006990D01*
X001663Y007000D01*
X009663Y007000D01*
X009796Y006990D01*
X010049Y006907D01*
X010264Y006751D01*
X010420Y006536D01*
X010502Y006283D01*
X010513Y006150D01*
X010513Y001150D01*
X010502Y001017D01*
X010420Y000764D01*
X010264Y000549D01*
X010049Y000393D01*
X009796Y000310D01*
X009663Y000300D01*
X001663Y000300D01*
X001530Y000310D01*
X001277Y000393D01*
X001062Y000549D01*
X001069Y000544D02*
X004666Y000544D01*
X004721Y000489D02*
X005008Y000370D01*
X005318Y000370D01*
X005605Y000489D01*
X005824Y000708D01*
X005943Y000995D01*
X005943Y001305D01*
X005824Y001592D01*
X005605Y001811D01*
X005318Y001930D01*
X005008Y001930D01*
X004721Y001811D01*
X004502Y001592D01*
X004383Y001305D01*
X004383Y000995D01*
X004502Y000708D01*
X004721Y000489D01*
X004826Y000446D02*
X001204Y000446D01*
X001417Y000347D02*
X009908Y000347D01*
X009818Y000370D02*
X010105Y000489D01*
X010324Y000708D01*
X010443Y000995D01*
X010443Y001305D01*
X010324Y001592D01*
X010105Y001811D01*
X009818Y001930D01*
X009508Y001930D01*
X009221Y001811D01*
X009002Y001592D01*
X008883Y001305D01*
X008883Y000995D01*
X009002Y000708D01*
X009221Y000489D01*
X009508Y000370D01*
X009818Y000370D01*
X010000Y000446D02*
X010121Y000446D01*
X010160Y000544D02*
X010257Y000544D01*
X010258Y000643D02*
X010332Y000643D01*
X010338Y000741D02*
X010403Y000741D01*
X010378Y000840D02*
X010445Y000840D01*
X010419Y000938D02*
X010477Y000938D01*
X010504Y001037D02*
X010443Y001037D01*
X010443Y001135D02*
X010512Y001135D01*
X010513Y001234D02*
X010443Y001234D01*
X010432Y001332D02*
X010513Y001332D01*
X010513Y001431D02*
X010391Y001431D01*
X010350Y001529D02*
X010513Y001529D01*
X010513Y001628D02*
X010288Y001628D01*
X010190Y001726D02*
X010513Y001726D01*
X010513Y001825D02*
X010072Y001825D01*
X009835Y001923D02*
X010513Y001923D01*
X010513Y002022D02*
X004089Y002022D01*
X004089Y001928D02*
X004089Y002292D01*
X004079Y002330D01*
X004059Y002364D01*
X004031Y002392D01*
X003997Y002412D01*
X003959Y002422D01*
X003497Y002422D01*
X003497Y001928D01*
X004089Y001928D01*
X004089Y001828D02*
X003497Y001828D01*
X003497Y001335D01*
X003959Y001335D01*
X003997Y001345D01*
X004031Y001365D01*
X004059Y001393D01*
X004079Y001427D01*
X004089Y001465D01*
X004089Y001828D01*
X004089Y001825D02*
X004753Y001825D01*
X004636Y001726D02*
X004089Y001726D01*
X004089Y001628D02*
X004537Y001628D01*
X004476Y001529D02*
X004089Y001529D01*
X004080Y001431D02*
X004435Y001431D01*
X004394Y001332D02*
X000813Y001332D01*
X000813Y001234D02*
X004383Y001234D01*
X004383Y001135D02*
X000814Y001135D01*
X000822Y001037D02*
X004383Y001037D01*
X004406Y000938D02*
X000849Y000938D01*
X000881Y000840D02*
X004447Y000840D01*
X004488Y000741D02*
X000922Y000741D01*
X001332Y001335D02*
X001794Y001335D01*
X001832Y001345D01*
X001866Y001365D01*
X001894Y001393D01*
X001914Y001427D01*
X001924Y001465D01*
X001924Y001828D01*
X001332Y001828D01*
X001332Y001335D01*
X001332Y001431D02*
X001232Y001431D01*
X001232Y001529D02*
X001332Y001529D01*
X001332Y001628D02*
X001232Y001628D01*
X001232Y001726D02*
X001332Y001726D01*
X001332Y001825D02*
X001232Y001825D01*
X001332Y001923D02*
X003397Y001923D01*
X003397Y001928D02*
X003397Y001828D01*
X003497Y001828D01*
X003497Y001928D01*
X003397Y001928D01*
X002805Y001928D01*
X002805Y002292D01*
X002815Y002330D01*
X002835Y002364D01*
X002863Y002392D01*
X002897Y002412D01*
X002935Y002422D01*
X003397Y002422D01*
X003397Y001928D01*
X003397Y002022D02*
X003497Y002022D01*
X003497Y001923D02*
X004991Y001923D01*
X005335Y001923D02*
X009491Y001923D01*
X009253Y001825D02*
X005572Y001825D01*
X005690Y001726D02*
X009136Y001726D01*
X009037Y001628D02*
X005788Y001628D01*
X005850Y001529D02*
X008976Y001529D01*
X008935Y001431D02*
X005891Y001431D01*
X005932Y001332D02*
X008894Y001332D01*
X008883Y001234D02*
X005943Y001234D01*
X005943Y001135D02*
X008883Y001135D01*
X008883Y001037D02*
X005943Y001037D01*
X005919Y000938D02*
X008906Y000938D01*
X008947Y000840D02*
X005878Y000840D01*
X005838Y000741D02*
X008988Y000741D01*
X009067Y000643D02*
X005758Y000643D01*
X005660Y000544D02*
X009166Y000544D01*
X009326Y000446D02*
X005500Y000446D01*
X003497Y001431D02*
X003397Y001431D01*
X003397Y001335D02*
X003397Y001828D01*
X002805Y001828D01*
X002805Y001465D01*
X002815Y001427D01*
X002835Y001393D01*
X002863Y001365D01*
X002897Y001345D01*
X002935Y001335D01*
X003397Y001335D01*
X003397Y001529D02*
X003497Y001529D01*
X003497Y001628D02*
X003397Y001628D01*
X003397Y001726D02*
X003497Y001726D01*
X003497Y001825D02*
X003397Y001825D01*
X003397Y002120D02*
X003497Y002120D01*
X003497Y002219D02*
X003397Y002219D01*
X003397Y002317D02*
X003497Y002317D01*
X003497Y002416D02*
X003397Y002416D01*
X003447Y002772D02*
X002935Y002772D01*
X002897Y002782D01*
X002863Y002802D01*
X002835Y002830D01*
X002815Y002864D01*
X002805Y002902D01*
X002805Y003020D01*
X003447Y003020D01*
X003447Y003020D01*
X003447Y003020D01*
X003447Y002772D01*
X003959Y002772D01*
X003997Y002782D01*
X004031Y002802D01*
X004059Y002830D01*
X004079Y002864D01*
X004084Y002881D01*
X004414Y002550D01*
X004911Y002550D01*
X005263Y002901D01*
X005263Y003399D01*
X005011Y003650D01*
X005263Y003901D01*
X005263Y004399D01*
X004911Y004750D01*
X004414Y004750D01*
X004174Y004510D01*
X004020Y004510D01*
X004001Y004528D01*
X002893Y004528D01*
X002805Y004440D01*
X002805Y003174D01*
X002813Y003167D01*
X002805Y003138D01*
X002805Y003020D01*
X003447Y003020D01*
X003447Y002772D01*
X003447Y002810D02*
X003447Y002810D01*
X003447Y002908D02*
X003447Y002908D01*
X003447Y003007D02*
X003447Y003007D01*
X002855Y002810D02*
X002790Y002810D01*
X002790Y002849D02*
X002790Y002719D01*
X002740Y002599D01*
X002648Y002507D01*
X002528Y002457D01*
X002398Y002457D01*
X002278Y002507D01*
X002185Y002599D01*
X002136Y002719D01*
X002136Y002849D01*
X002185Y002969D01*
X002278Y003061D01*
X002398Y003111D01*
X002528Y003111D01*
X002648Y003061D01*
X002740Y002969D01*
X002790Y002849D01*
X002805Y002908D02*
X002766Y002908D01*
X002805Y003007D02*
X002703Y003007D01*
X002805Y003105D02*
X002542Y003105D01*
X002383Y003105D02*
X000813Y003105D01*
X000813Y003007D02*
X002223Y003007D01*
X002160Y002908D02*
X000813Y002908D01*
X000813Y002810D02*
X002136Y002810D01*
X002139Y002711D02*
X000813Y002711D01*
X000813Y002613D02*
X002180Y002613D01*
X002270Y002514D02*
X000813Y002514D01*
X001232Y002416D02*
X001332Y002416D01*
X001332Y002317D02*
X001232Y002317D01*
X001232Y002219D02*
X001332Y002219D01*
X001332Y002120D02*
X001232Y002120D01*
X001232Y002022D02*
X001332Y002022D01*
X001924Y002022D02*
X002805Y002022D01*
X002805Y002120D02*
X001924Y002120D01*
X001924Y002219D02*
X002805Y002219D01*
X002812Y002317D02*
X001917Y002317D01*
X001818Y002416D02*
X002911Y002416D01*
X002746Y002613D02*
X004352Y002613D01*
X004253Y002711D02*
X002787Y002711D01*
X002656Y002514D02*
X010513Y002514D01*
X010513Y002416D02*
X003983Y002416D01*
X004082Y002317D02*
X010513Y002317D01*
X010513Y002219D02*
X004089Y002219D01*
X004089Y002120D02*
X010513Y002120D01*
X010513Y002613D02*
X009974Y002613D01*
X009911Y002550D02*
X010263Y002901D01*
X010263Y003100D01*
X009713Y003100D01*
X009713Y003200D01*
X010263Y003200D01*
X010263Y003399D01*
X010011Y003650D01*
X010263Y003901D01*
X010263Y004399D01*
X009911Y004750D01*
X009414Y004750D01*
X009063Y004399D01*
X009063Y003901D01*
X009314Y003650D01*
X009063Y003399D01*
X009063Y003200D01*
X009613Y003200D01*
X009613Y003100D01*
X009713Y003100D01*
X009713Y002550D01*
X009911Y002550D01*
X009713Y002613D02*
X009613Y002613D01*
X009613Y002550D02*
X009414Y002550D01*
X009063Y002901D01*
X009063Y003100D01*
X009613Y003100D01*
X009613Y002550D01*
X009352Y002613D02*
X004974Y002613D01*
X005072Y002711D02*
X009253Y002711D01*
X009155Y002810D02*
X008336Y002810D01*
X008339Y002811D02*
X008452Y002923D01*
X008513Y003070D01*
X008513Y003230D01*
X008452Y003377D01*
X008339Y003489D01*
X008192Y003550D01*
X008033Y003550D01*
X007886Y003489D01*
X007774Y003377D01*
X007713Y003230D01*
X007713Y003070D01*
X007774Y002923D01*
X007886Y002811D01*
X008033Y002750D01*
X008192Y002750D01*
X008339Y002811D01*
X008437Y002908D02*
X009063Y002908D01*
X009063Y003007D02*
X008486Y003007D01*
X008513Y003105D02*
X009613Y003105D01*
X009613Y003007D02*
X009713Y003007D01*
X009713Y003105D02*
X010513Y003105D01*
X010513Y003007D02*
X010263Y003007D01*
X010263Y002908D02*
X010513Y002908D01*
X010513Y002810D02*
X010171Y002810D01*
X010072Y002711D02*
X010513Y002711D01*
X010513Y003204D02*
X010263Y003204D01*
X010263Y003302D02*
X010513Y003302D01*
X010513Y003401D02*
X010261Y003401D01*
X010162Y003499D02*
X010513Y003499D01*
X010513Y003598D02*
X010064Y003598D01*
X010057Y003696D02*
X010513Y003696D01*
X010513Y003795D02*
X010156Y003795D01*
X010254Y003893D02*
X010513Y003893D01*
X010513Y003992D02*
X010263Y003992D01*
X010263Y004090D02*
X010513Y004090D01*
X010513Y004189D02*
X010263Y004189D01*
X010263Y004287D02*
X010513Y004287D01*
X010513Y004386D02*
X010263Y004386D01*
X010177Y004484D02*
X010513Y004484D01*
X010513Y004583D02*
X010079Y004583D01*
X009980Y004681D02*
X010513Y004681D01*
X010513Y004780D02*
X007788Y004780D01*
X007798Y004757D02*
X007754Y004861D01*
X007674Y004942D01*
X007570Y004985D01*
X007456Y004985D01*
X007351Y004942D01*
X007310Y004900D01*
X006630Y004900D01*
X006513Y004783D01*
X006254Y004524D01*
X006192Y004550D01*
X006033Y004550D01*
X005886Y004489D01*
X005774Y004377D01*
X005713Y004230D01*
X005713Y004070D01*
X005774Y003923D01*
X005886Y003811D01*
X006033Y003750D01*
X006192Y003750D01*
X006339Y003811D01*
X006452Y003923D01*
X006513Y004070D01*
X006513Y004217D01*
X006796Y004500D01*
X006949Y004500D01*
X006894Y004477D01*
X006785Y004369D01*
X006727Y004227D01*
X006727Y004073D01*
X006785Y003931D01*
X006894Y003823D01*
X007036Y003764D01*
X007190Y003764D01*
X007239Y003784D01*
X007228Y003757D01*
X007228Y003643D01*
X007271Y003539D01*
X007351Y003458D01*
X007456Y003415D01*
X007570Y003415D01*
X007674Y003458D01*
X007716Y003500D01*
X007746Y003500D01*
X008007Y003761D01*
X008033Y003750D01*
X008192Y003750D01*
X008339Y003811D01*
X008452Y003923D01*
X008513Y004070D01*
X008513Y004230D01*
X008452Y004377D01*
X008339Y004489D01*
X008192Y004550D01*
X008033Y004550D01*
X007886Y004489D01*
X007774Y004377D01*
X007713Y004230D01*
X007713Y004070D01*
X007724Y004044D01*
X007637Y003957D01*
X007570Y003985D01*
X007463Y003985D01*
X007499Y004073D01*
X007499Y004227D01*
X007440Y004369D01*
X007332Y004477D01*
X007277Y004500D01*
X007310Y004500D01*
X007351Y004458D01*
X007456Y004415D01*
X007570Y004415D01*
X007674Y004458D01*
X007754Y004539D01*
X007798Y004643D01*
X007798Y004757D01*
X007798Y004681D02*
X009345Y004681D01*
X009247Y004583D02*
X007773Y004583D01*
X007700Y004484D02*
X007881Y004484D01*
X007783Y004386D02*
X007424Y004386D01*
X007326Y004484D02*
X007316Y004484D01*
X007474Y004287D02*
X007737Y004287D01*
X007713Y004189D02*
X007499Y004189D01*
X007499Y004090D02*
X007713Y004090D01*
X007672Y003992D02*
X007465Y003992D01*
X007513Y003700D02*
X007663Y003700D01*
X008113Y004150D01*
X008480Y003992D02*
X009063Y003992D01*
X009071Y003893D02*
X008422Y003893D01*
X008300Y003795D02*
X009170Y003795D01*
X009268Y003696D02*
X007942Y003696D01*
X007843Y003598D02*
X009262Y003598D01*
X009163Y003499D02*
X008316Y003499D01*
X008428Y003401D02*
X009065Y003401D01*
X009063Y003302D02*
X008483Y003302D01*
X008513Y003204D02*
X009063Y003204D01*
X009613Y002908D02*
X009713Y002908D01*
X009713Y002810D02*
X009613Y002810D01*
X009613Y002711D02*
X009713Y002711D01*
X007910Y003499D02*
X007715Y003499D01*
X007798Y003401D02*
X007409Y003401D01*
X007440Y003369D02*
X007332Y003477D01*
X007190Y003536D01*
X007036Y003536D01*
X006894Y003477D01*
X006785Y003369D01*
X006727Y003227D01*
X006727Y003073D01*
X006785Y002931D01*
X006894Y002823D01*
X007036Y002764D01*
X007190Y002764D01*
X007332Y002823D01*
X007440Y002931D01*
X007499Y003073D01*
X007499Y003227D01*
X007440Y003369D01*
X007468Y003302D02*
X007743Y003302D01*
X007713Y003204D02*
X007499Y003204D01*
X007499Y003105D02*
X007713Y003105D01*
X007739Y003007D02*
X007471Y003007D01*
X007417Y002908D02*
X007789Y002908D01*
X007890Y002810D02*
X007300Y002810D01*
X006926Y002810D02*
X006323Y002810D01*
X006302Y002796D02*
X006368Y002839D01*
X006424Y002895D01*
X006467Y002961D01*
X006497Y003033D01*
X006511Y003100D01*
X006163Y003100D01*
X006163Y003200D01*
X006511Y003200D01*
X006497Y003267D01*
X006467Y003339D01*
X006424Y003405D01*
X006368Y003461D01*
X006302Y003504D01*
X006230Y003535D01*
X006163Y003548D01*
X006163Y003200D01*
X006063Y003200D01*
X006063Y003548D01*
X005996Y003535D01*
X005923Y003504D01*
X005858Y003461D01*
X005802Y003405D01*
X005758Y003339D01*
X005728Y003267D01*
X005715Y003200D01*
X006063Y003200D01*
X006063Y003100D01*
X006163Y003100D01*
X006163Y002752D01*
X006230Y002765D01*
X006302Y002796D01*
X006432Y002908D02*
X006809Y002908D01*
X006754Y003007D02*
X006486Y003007D01*
X006510Y003204D02*
X006727Y003204D01*
X006727Y003105D02*
X006163Y003105D01*
X006163Y003007D02*
X006063Y003007D01*
X006063Y003100D02*
X006063Y002752D01*
X005996Y002765D01*
X005923Y002796D01*
X005858Y002839D01*
X005802Y002895D01*
X005758Y002961D01*
X005728Y003033D01*
X005715Y003100D01*
X006063Y003100D01*
X006063Y003105D02*
X005263Y003105D01*
X005263Y003007D02*
X005739Y003007D01*
X005793Y002908D02*
X005263Y002908D01*
X005171Y002810D02*
X005902Y002810D01*
X006063Y002810D02*
X006163Y002810D01*
X006163Y002908D02*
X006063Y002908D01*
X006063Y003204D02*
X006163Y003204D01*
X006163Y003302D02*
X006063Y003302D01*
X006063Y003401D02*
X006163Y003401D01*
X006163Y003499D02*
X006063Y003499D01*
X005915Y003499D02*
X005162Y003499D01*
X005261Y003401D02*
X005799Y003401D01*
X005743Y003302D02*
X005263Y003302D01*
X005263Y003204D02*
X005716Y003204D01*
X006310Y003499D02*
X006946Y003499D01*
X006817Y003401D02*
X006427Y003401D01*
X006483Y003302D02*
X006758Y003302D01*
X007279Y003499D02*
X007311Y003499D01*
X007247Y003598D02*
X005064Y003598D01*
X005057Y003696D02*
X007228Y003696D01*
X006962Y003795D02*
X006300Y003795D01*
X006422Y003893D02*
X006824Y003893D01*
X006760Y003992D02*
X006480Y003992D01*
X006513Y004090D02*
X006727Y004090D01*
X006727Y004189D02*
X006513Y004189D01*
X006583Y004287D02*
X006752Y004287D01*
X006802Y004386D02*
X006681Y004386D01*
X006780Y004484D02*
X006910Y004484D01*
X006713Y004700D02*
X007513Y004700D01*
X007738Y004878D02*
X010513Y004878D01*
X010513Y004977D02*
X007590Y004977D01*
X007436Y004977D02*
X004081Y004977D01*
X004089Y005075D02*
X010513Y005075D01*
X010513Y005174D02*
X004089Y005174D01*
X004089Y005272D02*
X010513Y005272D01*
X010513Y005371D02*
X009819Y005371D01*
X009818Y005370D02*
X010105Y005489D01*
X010324Y005708D01*
X010443Y005995D01*
X010443Y006305D01*
X010324Y006592D01*
X010105Y006811D01*
X009818Y006930D01*
X009508Y006930D01*
X009221Y006811D01*
X009002Y006592D01*
X008883Y006305D01*
X008883Y005995D01*
X009002Y005708D01*
X009221Y005489D01*
X009508Y005370D01*
X009818Y005370D01*
X010057Y005469D02*
X010513Y005469D01*
X010513Y005568D02*
X010183Y005568D01*
X010282Y005666D02*
X010513Y005666D01*
X010513Y005765D02*
X010347Y005765D01*
X010388Y005863D02*
X010513Y005863D01*
X010513Y005962D02*
X010429Y005962D01*
X010443Y006060D02*
X010513Y006060D01*
X010512Y006159D02*
X010443Y006159D01*
X010443Y006257D02*
X010504Y006257D01*
X010479Y006356D02*
X010422Y006356D01*
X010447Y006454D02*
X010381Y006454D01*
X010408Y006553D02*
X010340Y006553D01*
X010337Y006651D02*
X010265Y006651D01*
X010265Y006750D02*
X010166Y006750D01*
X010130Y006848D02*
X010016Y006848D01*
X009928Y006947D02*
X001397Y006947D01*
X001195Y006848D02*
X004810Y006848D01*
X004721Y006811D02*
X004502Y006592D01*
X004383Y006305D01*
X004383Y005995D01*
X004502Y005708D01*
X004721Y005489D01*
X005008Y005370D01*
X005318Y005370D01*
X005605Y005489D01*
X005824Y005708D01*
X005943Y005995D01*
X005943Y006305D01*
X005824Y006592D01*
X005605Y006811D01*
X005318Y006930D01*
X005008Y006930D01*
X004721Y006811D01*
X004659Y006750D02*
X001061Y006750D01*
X000989Y006651D02*
X004561Y006651D01*
X004485Y006553D02*
X000918Y006553D01*
X000879Y006454D02*
X004445Y006454D01*
X004404Y006356D02*
X000847Y006356D01*
X000821Y006257D02*
X004383Y006257D01*
X004383Y006159D02*
X000814Y006159D01*
X000813Y006060D02*
X004383Y006060D01*
X004397Y005962D02*
X003973Y005962D01*
X003959Y005965D02*
X003497Y005965D01*
X003497Y005472D01*
X004089Y005472D01*
X004089Y005835D01*
X004079Y005873D01*
X004059Y005907D01*
X004031Y005935D01*
X003997Y005955D01*
X003959Y005965D01*
X004082Y005863D02*
X004438Y005863D01*
X004478Y005765D02*
X004089Y005765D01*
X004089Y005666D02*
X004544Y005666D01*
X004642Y005568D02*
X004089Y005568D01*
X004089Y005371D02*
X005007Y005371D01*
X004769Y005469D02*
X003497Y005469D01*
X003497Y005372D02*
X003397Y005372D01*
X003397Y004878D01*
X003497Y004878D02*
X003497Y005372D01*
X003497Y005371D02*
X003397Y005371D01*
X003397Y005469D02*
X001332Y005469D01*
X001332Y005472D02*
X001924Y005472D01*
X001924Y005835D01*
X001914Y005873D01*
X001894Y005907D01*
X001866Y005935D01*
X001832Y005955D01*
X001794Y005965D01*
X001332Y005965D01*
X001332Y005472D01*
X001332Y005372D02*
X001232Y005372D01*
X001232Y004878D01*
X001332Y004878D02*
X001332Y005372D01*
X001332Y005371D02*
X001232Y005371D01*
X001232Y005272D02*
X001332Y005272D01*
X001332Y005174D02*
X001232Y005174D01*
X001232Y005075D02*
X001332Y005075D01*
X001332Y004977D02*
X001232Y004977D01*
X000813Y004780D02*
X002264Y004780D01*
X002278Y004793D02*
X002185Y004701D01*
X002136Y004581D01*
X002136Y004451D01*
X002185Y004331D01*
X002278Y004239D01*
X002398Y004189D01*
X002528Y004189D01*
X002648Y004239D01*
X002740Y004331D01*
X002790Y004451D01*
X002790Y004581D01*
X002740Y004701D01*
X002648Y004793D01*
X002528Y004843D01*
X002398Y004843D01*
X002278Y004793D01*
X002177Y004681D02*
X000813Y004681D01*
X000813Y004583D02*
X002136Y004583D01*
X002136Y004484D02*
X000813Y004484D01*
X000813Y004386D02*
X002163Y004386D01*
X002229Y004287D02*
X000813Y004287D01*
X000813Y004189D02*
X002805Y004189D01*
X002805Y004287D02*
X002696Y004287D01*
X002763Y004386D02*
X002805Y004386D01*
X002790Y004484D02*
X002848Y004484D01*
X002789Y004583D02*
X004247Y004583D01*
X004345Y004681D02*
X002749Y004681D01*
X002662Y004780D02*
X006510Y004780D01*
X006608Y004878D02*
X003959Y004878D01*
X003497Y004977D02*
X003397Y004977D01*
X003397Y005075D02*
X003497Y005075D01*
X003497Y005174D02*
X003397Y005174D01*
X003397Y005272D02*
X003497Y005272D01*
X003497Y005568D02*
X003397Y005568D01*
X003397Y005666D02*
X003497Y005666D01*
X003497Y005765D02*
X003397Y005765D01*
X003397Y005863D02*
X003497Y005863D01*
X003497Y005962D02*
X003397Y005962D01*
X002921Y005962D02*
X001808Y005962D01*
X001916Y005863D02*
X002812Y005863D01*
X002805Y005765D02*
X001924Y005765D01*
X001924Y005666D02*
X002805Y005666D01*
X002805Y005568D02*
X001924Y005568D01*
X001924Y005371D02*
X002805Y005371D01*
X002805Y005272D02*
X001924Y005272D01*
X001924Y005174D02*
X002805Y005174D01*
X002805Y005075D02*
X001924Y005075D01*
X001914Y004970D02*
X001894Y004936D01*
X001866Y004908D01*
X001832Y004888D01*
X001794Y004878D01*
X001332Y005568D02*
X001232Y005568D01*
X001232Y005666D02*
X001332Y005666D01*
X001332Y005765D02*
X001232Y005765D01*
X001232Y005863D02*
X001332Y005863D01*
X001332Y005962D02*
X001232Y005962D01*
X000813Y004090D02*
X002805Y004090D01*
X002805Y003992D02*
X000813Y003992D01*
X000813Y003893D02*
X002805Y003893D01*
X002805Y003795D02*
X000813Y003795D01*
X000813Y003696D02*
X002805Y003696D01*
X002805Y003598D02*
X000813Y003598D01*
X000813Y003499D02*
X002805Y003499D01*
X002805Y003401D02*
X000813Y003401D01*
X000813Y003302D02*
X002805Y003302D01*
X002805Y003204D02*
X000813Y003204D01*
X001924Y001825D02*
X002805Y001825D01*
X002805Y001726D02*
X001924Y001726D01*
X001924Y001628D02*
X002805Y001628D01*
X002805Y001529D02*
X001924Y001529D01*
X001915Y001431D02*
X002814Y001431D01*
X004039Y002810D02*
X004155Y002810D01*
X005156Y003795D02*
X005926Y003795D01*
X005804Y003893D02*
X005254Y003893D01*
X005263Y003992D02*
X005746Y003992D01*
X005713Y004090D02*
X005263Y004090D01*
X005263Y004189D02*
X005713Y004189D01*
X005737Y004287D02*
X005263Y004287D01*
X005263Y004386D02*
X005783Y004386D01*
X005881Y004484D02*
X005177Y004484D01*
X005079Y004583D02*
X006313Y004583D01*
X006411Y004681D02*
X004980Y004681D01*
X005319Y005371D02*
X009507Y005371D01*
X009269Y005469D02*
X005557Y005469D01*
X005683Y005568D02*
X009142Y005568D01*
X009044Y005666D02*
X005782Y005666D01*
X005847Y005765D02*
X008978Y005765D01*
X008938Y005863D02*
X005888Y005863D01*
X005929Y005962D02*
X008897Y005962D01*
X008883Y006060D02*
X005943Y006060D01*
X005943Y006159D02*
X008883Y006159D01*
X008883Y006257D02*
X005943Y006257D01*
X005922Y006356D02*
X008904Y006356D01*
X008945Y006454D02*
X005881Y006454D01*
X005840Y006553D02*
X008985Y006553D01*
X009061Y006651D02*
X005765Y006651D01*
X005666Y006750D02*
X009159Y006750D01*
X009310Y006848D02*
X005516Y006848D01*
X006713Y004700D02*
X006163Y004150D01*
X006113Y004150D01*
X008345Y004484D02*
X009148Y004484D01*
X009063Y004386D02*
X008443Y004386D01*
X008489Y004287D02*
X009063Y004287D01*
X009063Y004189D02*
X008513Y004189D01*
X008513Y004090D02*
X009063Y004090D01*
D16*
X004663Y004150D02*
X004533Y004280D01*
X003447Y004280D01*
D17*
X007513Y004700D03*
X007513Y003700D03*
M02*
