G75*
G70*
%OFA0B0*%
%FSLAX24Y24*%
%IPPOS*%
%LPD*%
%AMOC8*
5,1,8,0,0,1.08239X$1,22.5*
%
%ADD10C,0.0080*%
%ADD11C,0.0137*%
%ADD12C,0.0091*%
%ADD13C,0.0114*%
%ADD14C,0.0100*%
D10*
X000660Y000360D02*
X000660Y001360D01*
X001660Y001360D01*
X001660Y001110D01*
X001910Y001360D01*
X002410Y001360D01*
X002660Y001110D01*
X002660Y000610D01*
X002410Y000360D01*
X001910Y000360D01*
X001660Y000610D01*
X001660Y001110D01*
X001850Y001550D02*
X002270Y001550D01*
X002130Y001690D01*
X002270Y001830D01*
X001850Y001830D01*
X001850Y002010D02*
X001850Y002151D01*
X001850Y002080D02*
X002270Y002080D01*
X002270Y002010D02*
X002270Y002151D01*
X002200Y002317D02*
X002130Y002317D01*
X002060Y002387D01*
X002060Y002528D01*
X001990Y002598D01*
X001920Y002598D01*
X001850Y002528D01*
X001850Y002387D01*
X001920Y002317D01*
X002200Y002317D02*
X002270Y002387D01*
X002270Y002528D01*
X002200Y002598D01*
X002200Y002778D02*
X001920Y002778D01*
X001850Y002848D01*
X001850Y002988D01*
X001920Y003058D01*
X002200Y003058D01*
X002270Y002988D01*
X002270Y002848D01*
X002200Y002778D01*
X002660Y003460D02*
X002910Y003210D01*
X003410Y003210D01*
X003660Y003460D01*
X003660Y003210D01*
X003910Y002960D01*
X004410Y002960D01*
X004660Y003210D01*
X004660Y003710D01*
X004410Y003960D01*
X004660Y004210D01*
X004660Y004710D01*
X004410Y004960D01*
X003910Y004960D01*
X003660Y004710D01*
X003660Y004960D01*
X003410Y005210D01*
X002910Y005210D01*
X002660Y004960D01*
X002660Y004460D01*
X002910Y004210D01*
X002660Y003960D01*
X002660Y003460D01*
X002950Y003071D02*
X002950Y002931D01*
X002950Y003001D02*
X003370Y003001D01*
X003370Y002931D02*
X003370Y003071D01*
X003300Y002751D02*
X003370Y002681D01*
X003370Y002541D01*
X003300Y002471D01*
X003230Y002471D01*
X003160Y002541D01*
X003160Y002681D01*
X003090Y002751D01*
X003020Y002751D01*
X002950Y002681D01*
X002950Y002541D01*
X003020Y002471D01*
X003020Y002291D02*
X003300Y002291D01*
X003370Y002221D01*
X003370Y002080D01*
X003300Y002010D01*
X003020Y002010D01*
X002950Y002080D01*
X002950Y002221D01*
X003020Y002291D01*
X002950Y001830D02*
X003370Y001830D01*
X003230Y001690D01*
X003370Y001550D01*
X002950Y001550D01*
X002910Y001360D02*
X002660Y001110D01*
X002910Y001360D02*
X003410Y001360D01*
X003660Y001110D01*
X003910Y001360D01*
X004410Y001360D01*
X004660Y001110D01*
X004660Y000610D01*
X004410Y000360D01*
X003910Y000360D01*
X003660Y000610D01*
X003660Y001110D01*
X003660Y000610D02*
X003410Y000360D01*
X002910Y000360D01*
X002660Y000610D01*
X001660Y000610D02*
X001660Y000360D01*
X000660Y000360D01*
X000920Y001550D02*
X000850Y001620D01*
X000850Y001760D01*
X000920Y001830D01*
X000990Y001830D01*
X001060Y001760D01*
X001060Y001620D01*
X001130Y001550D01*
X001200Y001550D01*
X001270Y001620D01*
X001270Y001760D01*
X001200Y001830D01*
X001200Y002010D02*
X000920Y002010D01*
X000850Y002080D01*
X000850Y002221D01*
X000920Y002291D01*
X000850Y002471D02*
X001270Y002471D01*
X001200Y002291D02*
X001270Y002221D01*
X001270Y002080D01*
X001200Y002010D01*
X000990Y002471D02*
X001270Y002751D01*
X001060Y002541D02*
X000850Y002751D01*
X000790Y003890D02*
X000790Y004460D01*
X000961Y004175D02*
X001018Y004061D01*
X000790Y003890D02*
X001930Y003890D01*
X001930Y004460D01*
X001645Y004232D02*
X001531Y004061D01*
X000790Y004460D02*
X000792Y004505D01*
X000797Y004549D01*
X000806Y004593D01*
X000818Y004636D01*
X000833Y004678D01*
X000852Y004719D01*
X000874Y004758D01*
X000899Y004795D01*
X000927Y004830D01*
X000957Y004863D01*
X000990Y004893D01*
X001025Y004921D01*
X001062Y004946D01*
X001101Y004968D01*
X001142Y004987D01*
X001184Y005002D01*
X001227Y005014D01*
X001271Y005023D01*
X001315Y005028D01*
X001360Y005030D01*
X001360Y005087D01*
X001531Y004062D02*
X001475Y004048D01*
X001418Y004038D01*
X001361Y004032D01*
X001304Y004028D01*
X001246Y004028D01*
X001189Y004032D01*
X001132Y004038D01*
X001075Y004048D01*
X001019Y004062D01*
X000901Y004483D02*
X000903Y004509D01*
X000909Y004534D01*
X000918Y004558D01*
X000931Y004581D01*
X000947Y004601D01*
X000967Y004619D01*
X000988Y004634D01*
X001011Y004645D01*
X001036Y004653D01*
X001062Y004657D01*
X001088Y004657D01*
X001114Y004653D01*
X001139Y004645D01*
X001162Y004634D01*
X001183Y004619D01*
X001203Y004601D01*
X001219Y004581D01*
X001232Y004558D01*
X001241Y004534D01*
X001247Y004509D01*
X001249Y004483D01*
X001247Y004457D01*
X001241Y004432D01*
X001232Y004408D01*
X001219Y004385D01*
X001203Y004365D01*
X001183Y004347D01*
X001162Y004332D01*
X001139Y004321D01*
X001114Y004313D01*
X001088Y004309D01*
X001062Y004309D01*
X001036Y004313D01*
X001011Y004321D01*
X000988Y004332D01*
X000967Y004347D01*
X000947Y004365D01*
X000931Y004385D01*
X000918Y004408D01*
X000909Y004432D01*
X000903Y004457D01*
X000901Y004483D01*
X000392Y004403D02*
X000423Y004405D01*
X000455Y004403D01*
X000486Y004398D01*
X000516Y004388D01*
X000545Y004376D01*
X000572Y004360D01*
X000598Y004341D01*
X000620Y004320D01*
X000641Y004295D01*
X000658Y004269D01*
X000672Y004241D01*
X000683Y004211D01*
X000690Y004181D01*
X000694Y004149D01*
X000694Y004118D01*
X000690Y004086D01*
X000682Y004056D01*
X000672Y004026D01*
X000657Y003998D01*
X000640Y003972D01*
X000620Y003948D01*
X000392Y004403D02*
X000423Y004417D01*
X000452Y004433D01*
X000479Y004453D01*
X000504Y004475D01*
X000526Y004501D01*
X000545Y004528D01*
X000562Y004558D01*
X000574Y004589D01*
X000584Y004621D01*
X000589Y004654D01*
X000591Y004688D01*
X000589Y004722D01*
X000584Y004755D01*
X000574Y004787D01*
X000562Y004818D01*
X000545Y004848D01*
X000526Y004875D01*
X000504Y004901D01*
X000479Y004923D01*
X000452Y004943D01*
X000423Y004959D01*
X000392Y004973D01*
X000427Y004963D01*
X000464Y004958D01*
X000500Y004956D01*
X000537Y004958D01*
X000573Y004964D01*
X000609Y004974D01*
X000643Y004988D01*
X000675Y005005D01*
X000706Y005025D01*
X000734Y005049D01*
X000759Y005075D01*
X000782Y005104D01*
X000801Y005136D01*
X000817Y005169D01*
X000830Y005203D01*
X000838Y005239D01*
X000843Y005275D01*
X000844Y005312D01*
X000841Y005349D01*
X000834Y005385D01*
X000823Y005420D01*
X000809Y005454D01*
X000791Y005486D01*
X000790Y005485D02*
X000816Y005455D01*
X000845Y005428D01*
X000876Y005404D01*
X000909Y005382D01*
X000944Y005364D01*
X000980Y005349D01*
X001018Y005337D01*
X001056Y005329D01*
X001096Y005324D01*
X001135Y005323D01*
X001174Y005325D01*
X001213Y005331D01*
X001252Y005341D01*
X001289Y005354D01*
X001325Y005370D01*
X001359Y005390D01*
X001391Y005412D01*
X001421Y005438D01*
X001449Y005466D01*
X001474Y005496D01*
X001496Y005529D01*
X001516Y005563D01*
X001532Y005599D01*
X001344Y005640D02*
X002576Y005640D01*
X002576Y005639D02*
X002597Y005638D01*
X002618Y005640D01*
X002638Y005645D01*
X002657Y005653D01*
X002674Y005664D01*
X002690Y005677D01*
X002703Y005693D01*
X002714Y005711D01*
X002722Y005730D01*
X002727Y005750D01*
X002726Y005751D02*
X002726Y009630D01*
X002727Y009630D02*
X002728Y009651D01*
X002726Y009672D01*
X002721Y009692D01*
X002713Y009711D01*
X002702Y009728D01*
X002689Y009744D01*
X002673Y009757D01*
X002655Y009768D01*
X002636Y009776D01*
X002616Y009781D01*
X002616Y009780D02*
X002220Y009780D01*
X002220Y009760D02*
X002218Y009730D01*
X002213Y009700D01*
X002204Y009671D01*
X002191Y009644D01*
X002176Y009618D01*
X002157Y009594D01*
X002136Y009573D01*
X002112Y009554D01*
X002086Y009539D01*
X002059Y009526D01*
X002030Y009517D01*
X002000Y009512D01*
X001970Y009510D01*
X001940Y009512D01*
X001910Y009517D01*
X001881Y009526D01*
X001854Y009539D01*
X001828Y009554D01*
X001804Y009573D01*
X001783Y009594D01*
X001764Y009618D01*
X001749Y009644D01*
X001736Y009671D01*
X001727Y009700D01*
X001722Y009730D01*
X001720Y009760D01*
X001720Y009780D02*
X001388Y009780D01*
X001383Y009780D02*
X001358Y009781D01*
X001334Y009779D01*
X001310Y009773D01*
X001288Y009764D01*
X001267Y009751D01*
X001248Y009736D01*
X001231Y009718D01*
X001217Y009698D01*
X001206Y009677D01*
X001198Y009654D01*
X001193Y009630D01*
X001194Y009630D02*
X001194Y005790D01*
X001196Y005767D01*
X001201Y005744D01*
X001210Y005722D01*
X001223Y005702D01*
X001238Y005684D01*
X001256Y005669D01*
X001276Y005656D01*
X001298Y005647D01*
X001321Y005642D01*
X001344Y005640D01*
X001645Y004232D02*
X001579Y004210D01*
X001512Y004192D01*
X001444Y004177D01*
X001376Y004166D01*
X001307Y004159D01*
X001238Y004155D01*
X001168Y004154D01*
X001099Y004158D01*
X001030Y004165D01*
X000962Y004175D01*
X001360Y005030D02*
X001405Y005028D01*
X001449Y005023D01*
X001493Y005014D01*
X001536Y005002D01*
X001578Y004987D01*
X001619Y004968D01*
X001658Y004946D01*
X001695Y004921D01*
X001730Y004893D01*
X001763Y004863D01*
X001793Y004830D01*
X001821Y004795D01*
X001846Y004758D01*
X001868Y004719D01*
X001887Y004678D01*
X001902Y004636D01*
X001914Y004593D01*
X001923Y004549D01*
X001928Y004505D01*
X001930Y004460D01*
X002385Y004517D02*
X002348Y004518D01*
X002311Y004514D01*
X002274Y004507D01*
X002238Y004496D01*
X002204Y004481D01*
X002172Y004463D01*
X002141Y004441D01*
X002113Y004417D01*
X002088Y004389D01*
X002066Y004359D01*
X002047Y004327D01*
X002031Y004294D01*
X002019Y004258D01*
X002011Y004222D01*
X002007Y004185D01*
X002006Y004148D01*
X002010Y004111D01*
X002017Y004074D01*
X002028Y004038D01*
X002043Y004004D01*
X001246Y004517D02*
X001248Y004547D01*
X001254Y004576D01*
X001263Y004604D01*
X001277Y004631D01*
X001293Y004656D01*
X001313Y004678D01*
X001335Y004698D01*
X001360Y004714D01*
X001387Y004728D01*
X001415Y004737D01*
X001444Y004743D01*
X001474Y004745D01*
X001504Y004743D01*
X001533Y004737D01*
X001561Y004728D01*
X001588Y004714D01*
X001613Y004698D01*
X001635Y004678D01*
X001655Y004656D01*
X001671Y004631D01*
X001685Y004604D01*
X001694Y004576D01*
X001700Y004547D01*
X001702Y004517D01*
X001700Y004487D01*
X001694Y004458D01*
X001685Y004430D01*
X001671Y004403D01*
X001655Y004378D01*
X001635Y004356D01*
X001613Y004336D01*
X001588Y004320D01*
X001561Y004306D01*
X001533Y004297D01*
X001504Y004291D01*
X001474Y004289D01*
X001444Y004291D01*
X001415Y004297D01*
X001387Y004306D01*
X001360Y004320D01*
X001335Y004336D01*
X001313Y004356D01*
X001293Y004378D01*
X001277Y004403D01*
X001263Y004430D01*
X001254Y004458D01*
X001248Y004487D01*
X001246Y004517D01*
X001531Y005599D02*
X001536Y005558D01*
X001546Y005518D01*
X001558Y005479D01*
X001574Y005441D01*
X001593Y005405D01*
X001615Y005370D01*
X001640Y005338D01*
X001668Y005308D01*
X001699Y005280D01*
X001731Y005255D01*
X001766Y005233D01*
X001803Y005214D01*
X001841Y005199D01*
X001880Y005187D01*
X001920Y005178D01*
X001961Y005173D01*
X002002Y005171D01*
X002043Y005173D01*
X002084Y005178D01*
X002124Y005188D01*
X002163Y005200D01*
X002201Y005216D01*
X002237Y005235D01*
X002272Y005257D01*
X002271Y005258D02*
X002238Y005237D01*
X002207Y005214D01*
X002178Y005187D01*
X002152Y005158D01*
X002129Y005127D01*
X002110Y005093D01*
X002093Y005058D01*
X002080Y005021D01*
X002071Y004983D01*
X002066Y004945D01*
X002064Y004906D01*
X002066Y004867D01*
X002072Y004828D01*
X002082Y004790D01*
X002095Y004754D01*
X002112Y004719D01*
X002132Y004685D01*
X002155Y004654D01*
X002182Y004625D01*
X002211Y004599D01*
X002242Y004576D01*
X002275Y004556D01*
X002311Y004539D01*
X002347Y004526D01*
X002385Y004517D01*
X003410Y004210D02*
X003660Y004460D01*
X003660Y004210D01*
X003910Y003960D01*
X003660Y003710D01*
X003660Y003960D01*
X003410Y004210D01*
X003660Y004460D02*
X003660Y004710D01*
X003660Y003710D02*
X003660Y003460D01*
X003928Y002370D02*
X003850Y002292D01*
X003850Y002135D01*
X003928Y002056D01*
X004085Y002135D02*
X004085Y002292D01*
X004007Y002370D01*
X003928Y002370D01*
X004085Y002135D02*
X004164Y002056D01*
X004242Y002056D01*
X004320Y002135D01*
X004320Y002292D01*
X004242Y002370D01*
X004480Y002523D02*
X004480Y001510D01*
X004320Y001628D02*
X004242Y001550D01*
X003928Y001550D01*
X003850Y001628D01*
X003850Y001785D01*
X003928Y001864D01*
X004242Y001864D02*
X004320Y001785D01*
X004320Y001628D01*
X005410Y002960D02*
X005160Y003210D01*
X005160Y003710D01*
X005410Y003960D01*
X005160Y004210D01*
X005160Y004710D01*
X005410Y004960D01*
X005910Y004960D01*
X006160Y004710D01*
X006160Y004460D01*
X006160Y004210D01*
X005910Y003960D01*
X006160Y003710D01*
X006160Y003460D01*
X006160Y003210D01*
X005910Y002960D01*
X005410Y002960D01*
X005950Y002708D02*
X006420Y002708D01*
X006420Y002394D02*
X005950Y002708D01*
X005950Y002394D02*
X006420Y002394D01*
X006420Y002213D02*
X006420Y002056D01*
X006420Y002135D02*
X005950Y002135D01*
X005950Y002213D02*
X005950Y002056D01*
X006107Y001864D02*
X006420Y001864D01*
X006420Y001550D02*
X006107Y001550D01*
X005950Y001707D01*
X006107Y001864D01*
X005910Y001360D02*
X006410Y001360D01*
X006660Y001110D01*
X006910Y001360D01*
X007410Y001360D01*
X007660Y001110D01*
X007660Y000610D01*
X007410Y000360D01*
X006910Y000360D01*
X006660Y000610D01*
X006660Y001110D01*
X006660Y000610D02*
X006410Y000360D01*
X005910Y000360D01*
X005660Y000610D01*
X005660Y001110D01*
X005910Y001360D01*
X006850Y001628D02*
X006850Y001785D01*
X006928Y001864D01*
X007085Y001864D01*
X007085Y001707D01*
X006928Y001550D02*
X006850Y001628D01*
X006928Y001550D02*
X007242Y001550D01*
X007320Y001628D01*
X007320Y001785D01*
X007242Y001864D01*
X007320Y002056D02*
X006850Y002370D01*
X007320Y002370D01*
X007320Y002563D02*
X007320Y002798D01*
X007242Y002876D01*
X006928Y002876D01*
X006850Y002798D01*
X006850Y002563D01*
X007320Y002563D01*
X007320Y002056D02*
X006850Y002056D01*
X006910Y003210D02*
X006410Y003210D01*
X006160Y003460D01*
X006160Y003710D02*
X006160Y003960D01*
X006410Y004210D01*
X006160Y004460D01*
X006160Y004710D02*
X006160Y004960D01*
X006410Y005210D01*
X006910Y005210D01*
X007160Y004960D01*
X007160Y004460D01*
X006910Y004210D01*
X007160Y003960D01*
X007160Y003460D01*
X006910Y003210D01*
X005860Y006060D02*
X004860Y006060D01*
X004843Y006062D01*
X004826Y006066D01*
X004810Y006073D01*
X004796Y006083D01*
X004783Y006096D01*
X004773Y006110D01*
X004766Y006126D01*
X004762Y006143D01*
X004760Y006160D01*
X004760Y006760D01*
X004762Y006777D01*
X004766Y006794D01*
X004773Y006810D01*
X004783Y006824D01*
X004796Y006837D01*
X004810Y006847D01*
X004826Y006854D01*
X004843Y006858D01*
X004860Y006860D01*
X005860Y006860D01*
X005877Y006858D01*
X005894Y006854D01*
X005910Y006847D01*
X005924Y006837D01*
X005937Y006824D01*
X005947Y006810D01*
X005954Y006794D01*
X005958Y006777D01*
X005960Y006760D01*
X005960Y006160D01*
X005958Y006143D01*
X005954Y006126D01*
X005947Y006110D01*
X005937Y006096D01*
X005924Y006083D01*
X005910Y006073D01*
X005894Y006066D01*
X005877Y006062D01*
X005860Y006060D01*
X006173Y006457D02*
X006120Y006510D01*
X006120Y006617D01*
X006173Y006670D01*
X006333Y006670D01*
X006333Y006350D01*
X006333Y006457D02*
X006173Y006457D01*
X006488Y006617D02*
X006488Y006670D01*
X006488Y006617D02*
X006595Y006510D01*
X006595Y006350D01*
X006595Y006510D02*
X006702Y006617D01*
X006702Y006670D01*
X006856Y006617D02*
X006856Y006564D01*
X006910Y006510D01*
X007070Y006510D01*
X007070Y006350D02*
X006910Y006350D01*
X006856Y006403D01*
X006856Y006457D01*
X006910Y006510D01*
X006856Y006617D02*
X006910Y006670D01*
X007070Y006670D01*
X007070Y006350D01*
X007017Y007100D02*
X006803Y007100D01*
X006750Y007153D01*
X006750Y007260D01*
X006803Y007314D01*
X006803Y007468D02*
X006750Y007522D01*
X006750Y007628D01*
X006803Y007682D01*
X006857Y007682D01*
X006910Y007628D01*
X006910Y007575D01*
X006910Y007628D02*
X006964Y007682D01*
X007017Y007682D01*
X007070Y007628D01*
X007070Y007522D01*
X007017Y007468D01*
X007017Y007314D02*
X007070Y007260D01*
X007070Y007153D01*
X007017Y007100D01*
X005629Y008254D02*
X005629Y008466D01*
X005479Y008920D02*
X005141Y008920D01*
X004420Y008488D02*
X004100Y008488D01*
X004100Y008382D02*
X004100Y008595D01*
X004314Y008382D02*
X004420Y008488D01*
X004420Y008227D02*
X004153Y008227D01*
X004100Y008174D01*
X004100Y008067D01*
X004153Y008013D01*
X004420Y008013D01*
X003920Y007645D02*
X003920Y007432D01*
X003760Y007432D01*
X003814Y007538D01*
X003814Y007592D01*
X003760Y007645D01*
X003653Y007645D01*
X003600Y007592D01*
X003600Y007485D01*
X003653Y007432D01*
X003600Y007277D02*
X003707Y007170D01*
X003707Y007224D02*
X003707Y007063D01*
X003600Y007063D02*
X003920Y007063D01*
X003920Y007224D01*
X003867Y007277D01*
X003760Y007277D01*
X003707Y007224D01*
X003673Y006670D02*
X003620Y006617D01*
X003673Y006670D02*
X003780Y006670D01*
X003833Y006617D01*
X003833Y006403D01*
X003780Y006350D01*
X003673Y006350D01*
X003620Y006403D01*
X003620Y006510D01*
X003727Y006510D01*
X003988Y006350D02*
X004202Y006350D01*
X004202Y006670D01*
X003988Y006670D01*
X004095Y006510D02*
X004202Y006510D01*
X004356Y006510D02*
X004410Y006457D01*
X004570Y006457D01*
X004463Y006457D02*
X004356Y006350D01*
X004356Y006510D02*
X004356Y006617D01*
X004410Y006670D01*
X004570Y006670D01*
X004570Y006350D01*
X005141Y007800D02*
X005479Y007800D01*
X005913Y009380D02*
X005860Y009433D01*
X005860Y009540D01*
X005913Y009594D01*
X005860Y009748D02*
X005860Y009962D01*
X005860Y009855D02*
X006180Y009855D01*
X006074Y009748D01*
X006127Y009594D02*
X006180Y009540D01*
X006180Y009433D01*
X006127Y009380D01*
X005913Y009380D01*
X006020Y010300D02*
X006020Y010720D01*
X005810Y010720D01*
X005740Y010650D01*
X005740Y010510D01*
X005810Y010440D01*
X006020Y010440D01*
X005880Y010440D02*
X005740Y010300D01*
X005560Y010370D02*
X005279Y010650D01*
X005279Y010370D01*
X005349Y010300D01*
X005490Y010300D01*
X005560Y010370D01*
X005560Y010650D01*
X005490Y010720D01*
X005349Y010720D01*
X005279Y010650D01*
X005099Y010370D02*
X005029Y010370D01*
X005029Y010300D01*
X005099Y010300D01*
X005099Y010370D01*
X004869Y010300D02*
X004589Y010580D01*
X004589Y010650D01*
X004659Y010720D01*
X004799Y010720D01*
X004869Y010650D01*
X004869Y010300D02*
X004589Y010300D01*
X004950Y011000D02*
X005123Y011000D01*
X005210Y011087D01*
X005210Y011260D01*
X005123Y011347D01*
X004950Y011347D01*
X004863Y011260D01*
X004863Y011173D01*
X005210Y011173D01*
X005416Y011173D02*
X005763Y011173D01*
X005763Y011087D02*
X005676Y011000D01*
X005502Y011000D01*
X005416Y011173D02*
X005416Y011260D01*
X005502Y011347D01*
X005676Y011347D01*
X005763Y011260D01*
X005763Y011087D01*
X005968Y011000D02*
X006315Y011000D01*
X006315Y011087D01*
X005968Y011434D01*
X005968Y011520D01*
X006315Y011520D01*
X006359Y011800D02*
X006429Y011870D01*
X006429Y012150D01*
X006499Y012080D02*
X006359Y012080D01*
X006192Y012010D02*
X005912Y012010D01*
X005732Y012080D02*
X005592Y012080D01*
X005662Y012150D02*
X005662Y011870D01*
X005592Y011800D01*
X005425Y011800D02*
X005425Y012220D01*
X005355Y012080D02*
X005215Y012080D01*
X005145Y012010D01*
X005145Y011800D01*
X004965Y011870D02*
X004965Y012010D01*
X004895Y012080D01*
X004754Y012080D01*
X004684Y012010D01*
X004684Y011870D01*
X004754Y011800D01*
X004895Y011800D01*
X004965Y011870D01*
X005355Y012080D02*
X005425Y012010D01*
X004504Y012080D02*
X004504Y011870D01*
X004434Y011800D01*
X004224Y011800D01*
X004224Y012080D01*
X004044Y012010D02*
X004044Y011870D01*
X003974Y011800D01*
X003764Y011800D01*
X003764Y011730D02*
X003764Y012080D01*
X003974Y012080D01*
X004044Y012010D01*
X003904Y011660D02*
X003834Y011660D01*
X003764Y011730D01*
X003583Y011800D02*
X003583Y012220D01*
X003513Y012080D02*
X003373Y012080D01*
X003303Y012010D01*
X003303Y011800D01*
X003466Y011607D02*
X003466Y011520D01*
X003466Y011347D02*
X003466Y011000D01*
X003553Y011000D02*
X003379Y011000D01*
X003184Y011087D02*
X003184Y011260D01*
X003098Y011347D01*
X002837Y011347D01*
X002837Y011000D02*
X003098Y011000D01*
X003184Y011087D01*
X003466Y011347D02*
X003553Y011347D01*
X003758Y011260D02*
X003758Y011000D01*
X003932Y011000D02*
X003932Y011260D01*
X003845Y011347D01*
X003758Y011260D01*
X003932Y011260D02*
X004018Y011347D01*
X004105Y011347D01*
X004105Y011000D01*
X003717Y010532D02*
X003770Y010478D01*
X003770Y010372D01*
X003717Y010318D01*
X003717Y010164D02*
X003770Y010110D01*
X003770Y010003D01*
X003717Y009950D01*
X003503Y009950D01*
X003450Y010003D01*
X003450Y010110D01*
X003503Y010164D01*
X003450Y010318D02*
X003664Y010532D01*
X003717Y010532D01*
X003450Y010532D02*
X003450Y010318D01*
X002632Y011000D02*
X002632Y011347D01*
X002632Y011173D02*
X002458Y011347D01*
X002372Y011347D01*
X002172Y011260D02*
X002172Y011087D01*
X002085Y011000D01*
X001911Y011000D01*
X001825Y011087D01*
X001825Y011260D01*
X001911Y011347D01*
X002085Y011347D01*
X002172Y011260D01*
X002286Y011800D02*
X002356Y011800D01*
X002356Y011870D01*
X002286Y011870D01*
X002286Y011800D01*
X002125Y011870D02*
X002125Y012010D01*
X002055Y012080D01*
X001845Y012080D01*
X001665Y012010D02*
X001665Y011870D01*
X001595Y011800D01*
X001455Y011800D01*
X001385Y011870D01*
X001385Y012010D01*
X001455Y012080D01*
X001595Y012080D01*
X001665Y012010D01*
X001845Y011800D02*
X002055Y011800D01*
X002125Y011870D01*
X002536Y011870D02*
X002606Y011940D01*
X002746Y011940D01*
X002816Y012010D01*
X002746Y012080D01*
X002536Y012080D01*
X002536Y011870D02*
X002606Y011800D01*
X002816Y011800D01*
X002983Y011800D02*
X003053Y011870D01*
X003053Y012150D01*
X003123Y012080D02*
X002983Y012080D01*
X003513Y012080D02*
X003583Y012010D01*
X001619Y011434D02*
X001619Y011347D01*
X001532Y011260D01*
X001359Y011260D01*
X001272Y011173D01*
X001272Y011087D01*
X001359Y011000D01*
X001532Y011000D01*
X001619Y011087D01*
X001619Y011434D02*
X001532Y011520D01*
X001359Y011520D01*
X001272Y011434D01*
X001067Y011520D02*
X001067Y011000D01*
X000806Y011000D01*
X000720Y011087D01*
X000720Y011434D01*
X000806Y011520D01*
X001067Y011520D01*
X001065Y011800D02*
X001065Y012010D01*
X000995Y012080D01*
X000924Y012010D01*
X000924Y011800D01*
X001065Y012010D02*
X001135Y012080D01*
X001205Y012080D01*
X001205Y011800D01*
X001117Y010482D02*
X001064Y010482D01*
X000850Y010268D01*
X000850Y010482D01*
X001117Y010482D02*
X001170Y010428D01*
X001170Y010322D01*
X001117Y010268D01*
X001170Y010114D02*
X000903Y010114D01*
X000850Y010060D01*
X000850Y009953D01*
X000903Y009900D01*
X001170Y009900D01*
X006521Y011173D02*
X006868Y011173D01*
X006868Y011087D02*
X006781Y011000D01*
X006607Y011000D01*
X006521Y011173D02*
X006521Y011260D01*
X006607Y011347D01*
X006781Y011347D01*
X006868Y011260D01*
X006868Y011087D01*
X007073Y011173D02*
X007420Y011173D01*
X007420Y011087D02*
X007333Y011000D01*
X007160Y011000D01*
X007073Y011173D02*
X007073Y011260D01*
X007160Y011347D01*
X007333Y011347D01*
X007420Y011260D01*
X007420Y011087D01*
X007420Y011800D02*
X007210Y011800D01*
X007140Y011870D01*
X007140Y012010D01*
X007210Y012080D01*
X007420Y012080D01*
X007420Y012220D02*
X007420Y011800D01*
X006960Y011870D02*
X006890Y011800D01*
X006749Y011800D01*
X006679Y011870D01*
X006679Y012010D01*
X006749Y012080D01*
X006890Y012080D01*
X006960Y012010D01*
X006960Y011870D01*
D11*
X001457Y004602D02*
X001459Y004618D01*
X001464Y004634D01*
X001473Y004648D01*
X001485Y004660D01*
X001499Y004669D01*
X001515Y004674D01*
X001531Y004676D01*
X001547Y004674D01*
X001563Y004669D01*
X001577Y004660D01*
X001589Y004648D01*
X001598Y004634D01*
X001603Y004618D01*
X001605Y004602D01*
X001603Y004586D01*
X001598Y004570D01*
X001589Y004556D01*
X001577Y004544D01*
X001563Y004535D01*
X001547Y004530D01*
X001531Y004528D01*
X001515Y004530D01*
X001499Y004535D01*
X001485Y004544D01*
X001473Y004556D01*
X001464Y004570D01*
X001459Y004586D01*
X001457Y004602D01*
D12*
X001086Y004540D02*
X001088Y004553D01*
X001093Y004565D01*
X001102Y004575D01*
X001113Y004582D01*
X001125Y004586D01*
X001139Y004586D01*
X001151Y004582D01*
X001162Y004575D01*
X001171Y004565D01*
X001176Y004553D01*
X001178Y004540D01*
X001176Y004527D01*
X001171Y004515D01*
X001162Y004505D01*
X001151Y004498D01*
X001139Y004494D01*
X001125Y004494D01*
X001113Y004498D01*
X001102Y004505D01*
X001093Y004515D01*
X001088Y004527D01*
X001086Y004540D01*
D13*
X001303Y005144D02*
X001305Y005159D01*
X001311Y005172D01*
X001320Y005184D01*
X001331Y005193D01*
X001345Y005199D01*
X001360Y005201D01*
X001375Y005199D01*
X001388Y005193D01*
X001400Y005184D01*
X001409Y005173D01*
X001415Y005159D01*
X001417Y005144D01*
X001415Y005129D01*
X001409Y005116D01*
X001400Y005104D01*
X001389Y005095D01*
X001375Y005089D01*
X001360Y005087D01*
X001345Y005089D01*
X001332Y005095D01*
X001320Y005104D01*
X001311Y005115D01*
X001305Y005129D01*
X001303Y005144D01*
D14*
X006416Y009769D02*
X006416Y009951D01*
X006658Y009976D01*
X006684Y010057D01*
X006723Y010133D01*
X006569Y010322D01*
X006698Y010451D01*
X006887Y010297D01*
X006963Y010336D01*
X007044Y010362D01*
X007069Y010604D01*
X007251Y010604D01*
X007276Y010362D01*
X007357Y010336D01*
X007433Y010297D01*
X007622Y010451D01*
X007751Y010322D01*
X007597Y010133D01*
X007636Y010057D01*
X007662Y009976D01*
X007904Y009951D01*
X007904Y009769D01*
X007662Y009744D01*
X007636Y009663D01*
X007597Y009587D01*
X007751Y009398D01*
X007622Y009269D01*
X007433Y009423D01*
X007357Y009384D01*
X007250Y009643D01*
X007290Y009665D01*
X007326Y009694D01*
X007355Y009730D01*
X007377Y009770D01*
X007390Y009814D01*
X007394Y009860D01*
X007389Y009910D01*
X007373Y009958D01*
X007347Y010001D01*
X007312Y010038D01*
X007270Y010067D01*
X007224Y010086D01*
X007174Y010094D01*
X007123Y010091D01*
X007075Y010078D01*
X007030Y010055D01*
X006991Y010022D01*
X006960Y009982D01*
X006939Y009937D01*
X006927Y009888D01*
X006927Y009837D01*
X006937Y009788D01*
X006958Y009741D01*
X006988Y009701D01*
X007026Y009668D01*
X007070Y009643D01*
X006963Y009384D01*
X006887Y009423D01*
X006698Y009269D01*
X006569Y009398D01*
X006723Y009587D01*
X006684Y009663D01*
X006658Y009744D01*
X006416Y009769D01*
X006416Y009813D02*
X006932Y009813D01*
X006933Y009912D02*
X006416Y009912D01*
X006668Y010010D02*
X006981Y010010D01*
X006903Y010306D02*
X007417Y010306D01*
X007443Y010306D02*
X007738Y010306D01*
X007669Y010404D02*
X007564Y010404D01*
X007657Y010207D02*
X006663Y010207D01*
X006710Y010109D02*
X007610Y010109D01*
X007652Y010010D02*
X007339Y010010D01*
X007388Y009912D02*
X007904Y009912D01*
X007904Y009813D02*
X007389Y009813D01*
X007342Y009715D02*
X007653Y009715D01*
X007612Y009616D02*
X007261Y009616D01*
X007302Y009518D02*
X007654Y009518D01*
X007734Y009419D02*
X007438Y009419D01*
X007426Y009419D02*
X007343Y009419D01*
X007559Y009321D02*
X007673Y009321D01*
X007059Y009616D02*
X006708Y009616D01*
X006667Y009715D02*
X006978Y009715D01*
X007018Y009518D02*
X006666Y009518D01*
X006586Y009419D02*
X006882Y009419D01*
X006894Y009419D02*
X006977Y009419D01*
X006761Y009321D02*
X006647Y009321D01*
X006582Y010306D02*
X006877Y010306D01*
X006756Y010404D02*
X006651Y010404D01*
X007048Y010404D02*
X007272Y010404D01*
X007262Y010503D02*
X007058Y010503D01*
X007068Y010601D02*
X007252Y010601D01*
M02*
