%
M48
M72
T01C0.0130
T02C0.0320
T03C0.0400
T04C0.0472
%
T01
X4746Y2586
X8683Y4331
X10573Y3347
X9749Y3068
X10040Y2316
X10390Y1340
X13434Y4071
X14516Y5316
X11124Y5001
X10752Y5840
X10916Y6240
X8959Y5900
X6451Y5990
X6179Y5501
X5888Y6694
X5731Y7599
X3507Y6317
X3507Y5501
X10440Y9140
T02
X14310Y5790
X14310Y3890
T03
X940Y840
X1940Y840
X2940Y840
X3940Y840
X4940Y840
X5940Y840
X6940Y840
X7940Y840
X8940Y840
X9940Y840
X10940Y840
X11940Y840
X12940Y840
X13940Y840
X14940Y840
X15940Y840
X16940Y840
X17940Y840
X17940Y8840
X16940Y8840
X15940Y8840
X14940Y8840
X13940Y8840
X12940Y8840
X11940Y8840
X10940Y8840
X9940Y8840
X8940Y8840
X7940Y8840
X6940Y8840
X5940Y8840
X4940Y8840
X3940Y8840
X2940Y8840
X1940Y8840
X940Y8840
X1940Y7340
X1940Y6340
X940Y6340
X940Y5340
X1940Y5340
X1940Y4340
X940Y4340
X940Y3340
X1940Y3340
X1940Y2340
T04
X16240Y3462
X16240Y6218
M30
