G75*
%MOIN*%
%OFA0B0*%
%FSLAX24Y24*%
%IPPOS*%
%LPD*%
%AMOC8*
5,1,8,0,0,1.08239X$1,22.5*
%
%ADD10C,0.0080*%
%ADD11C,0.0130*%
%ADD12C,0.0087*%
%ADD13C,0.0108*%
D10*
X001580Y001720D02*
X001500Y001800D01*
X001740Y001800D01*
X001740Y001720D02*
X001740Y001880D01*
X001700Y002015D02*
X001540Y002015D01*
X001500Y002055D01*
X001500Y002135D01*
X001540Y002175D01*
X001700Y002015D01*
X001740Y002055D01*
X001740Y002135D01*
X001700Y002175D01*
X001540Y002175D01*
X001620Y002309D02*
X001620Y002429D01*
X001660Y002469D01*
X001700Y002469D01*
X001740Y002429D01*
X001740Y002349D01*
X001700Y002309D01*
X001620Y002309D01*
X001540Y002389D01*
X001500Y002469D01*
X002950Y002970D02*
X003070Y002970D01*
X003030Y003050D01*
X003030Y003090D01*
X003070Y003130D01*
X003150Y003130D01*
X003190Y003090D01*
X003190Y003010D01*
X003150Y002970D01*
X002950Y002970D02*
X002950Y003130D01*
X002990Y003265D02*
X002950Y003305D01*
X002950Y003385D01*
X002990Y003425D01*
X003150Y003265D01*
X003190Y003305D01*
X003190Y003385D01*
X003150Y003425D01*
X002990Y003425D01*
X002990Y003559D02*
X002950Y003599D01*
X002950Y003679D01*
X002990Y003719D01*
X003030Y003719D01*
X003070Y003679D01*
X003110Y003719D01*
X003150Y003719D01*
X003190Y003679D01*
X003190Y003599D01*
X003150Y003559D01*
X003070Y003639D02*
X003070Y003679D01*
X003150Y003265D02*
X002990Y003265D01*
X004000Y003860D02*
X004040Y003820D01*
X004000Y003860D02*
X004000Y003940D01*
X004040Y003980D01*
X004080Y003980D01*
X004240Y003820D01*
X004240Y003980D01*
X004240Y004115D02*
X004080Y004275D01*
X004040Y004275D01*
X004000Y004235D01*
X004000Y004155D01*
X004040Y004115D01*
X004240Y004115D02*
X004240Y004275D01*
X004200Y004409D02*
X004040Y004409D01*
X004000Y004449D01*
X004000Y004529D01*
X004040Y004569D01*
X004200Y004409D01*
X004240Y004449D01*
X004240Y004529D01*
X004200Y004569D01*
X004040Y004569D01*
X004080Y004704D02*
X004200Y004704D01*
X004240Y004744D01*
X004240Y004864D01*
X004080Y004864D01*
X004120Y004999D02*
X004120Y005079D01*
X004000Y004999D02*
X004000Y005159D01*
X004000Y004999D02*
X004240Y004999D01*
X005306Y004822D02*
X005336Y004796D01*
X005362Y004767D01*
X005386Y004736D01*
X005407Y004703D01*
X005425Y004668D01*
X005439Y004632D01*
X005449Y004594D01*
X005456Y004555D01*
X005460Y004517D01*
X005459Y004477D01*
X005455Y004439D01*
X005447Y004400D01*
X005436Y004363D01*
X005421Y004327D01*
X005403Y004292D01*
X005381Y004259D01*
X005357Y004229D01*
X005330Y004201D01*
X005300Y004175D01*
X005268Y004153D01*
X005234Y004134D01*
X005198Y004118D01*
X006497Y004009D02*
X006517Y004072D01*
X006535Y004135D01*
X006549Y004200D01*
X006559Y004265D01*
X006567Y004330D01*
X006570Y004396D01*
X006571Y004462D01*
X006568Y004528D01*
X006561Y004594D01*
X006551Y004659D01*
X006659Y004605D01*
X006821Y004821D02*
X006280Y004821D01*
X006092Y004551D02*
X006094Y004576D01*
X006100Y004601D01*
X006109Y004625D01*
X006122Y004647D01*
X006138Y004666D01*
X006157Y004683D01*
X006179Y004697D01*
X006202Y004707D01*
X006226Y004714D01*
X006252Y004717D01*
X006277Y004716D01*
X006302Y004711D01*
X006326Y004702D01*
X006348Y004690D01*
X006368Y004675D01*
X006386Y004657D01*
X006401Y004636D01*
X006412Y004613D01*
X006420Y004589D01*
X006424Y004564D01*
X006424Y004538D01*
X006420Y004513D01*
X006412Y004489D01*
X006401Y004466D01*
X006386Y004445D01*
X006368Y004427D01*
X006348Y004412D01*
X006326Y004400D01*
X006302Y004391D01*
X006277Y004386D01*
X006252Y004385D01*
X006226Y004388D01*
X006202Y004395D01*
X006179Y004405D01*
X006157Y004419D01*
X006138Y004436D01*
X006122Y004455D01*
X006109Y004477D01*
X006100Y004501D01*
X006094Y004526D01*
X006092Y004551D01*
X006659Y004605D02*
X006672Y004551D01*
X006681Y004497D01*
X006687Y004443D01*
X006691Y004388D01*
X006691Y004334D01*
X006687Y004279D01*
X006681Y004225D01*
X006672Y004171D01*
X006659Y004117D01*
X006659Y004118D02*
X006496Y004009D01*
X006010Y004172D02*
X006012Y004201D01*
X006018Y004229D01*
X006027Y004256D01*
X006040Y004282D01*
X006056Y004306D01*
X006076Y004327D01*
X006098Y004346D01*
X006122Y004361D01*
X006148Y004374D01*
X006176Y004382D01*
X006204Y004387D01*
X006233Y004388D01*
X006262Y004385D01*
X006290Y004378D01*
X006317Y004368D01*
X006342Y004354D01*
X006365Y004337D01*
X006386Y004317D01*
X006404Y004294D01*
X006419Y004269D01*
X006430Y004243D01*
X006438Y004215D01*
X006442Y004186D01*
X006442Y004158D01*
X006438Y004129D01*
X006430Y004101D01*
X006419Y004075D01*
X006404Y004050D01*
X006386Y004027D01*
X006365Y004007D01*
X006342Y003990D01*
X006317Y003976D01*
X006290Y003966D01*
X006262Y003959D01*
X006233Y003956D01*
X006204Y003957D01*
X006176Y003962D01*
X006148Y003970D01*
X006122Y003983D01*
X006098Y003998D01*
X006076Y004017D01*
X006056Y004038D01*
X006040Y004062D01*
X006027Y004088D01*
X006018Y004115D01*
X006012Y004143D01*
X006010Y004172D01*
X005739Y004280D02*
X005741Y004325D01*
X005746Y004369D01*
X005756Y004413D01*
X005768Y004456D01*
X005785Y004497D01*
X005804Y004537D01*
X005827Y004576D01*
X005853Y004612D01*
X005882Y004646D01*
X005914Y004678D01*
X005948Y004707D01*
X005984Y004733D01*
X006023Y004756D01*
X006063Y004775D01*
X006104Y004792D01*
X006147Y004804D01*
X006191Y004814D01*
X006235Y004819D01*
X006280Y004821D01*
X006821Y004821D02*
X006821Y003739D01*
X006280Y003739D01*
X006226Y003306D02*
X006225Y003342D01*
X006229Y003377D01*
X006235Y003412D01*
X006246Y003445D01*
X006260Y003478D01*
X006277Y003509D01*
X006298Y003538D01*
X006321Y003564D01*
X006347Y003588D01*
X006376Y003609D01*
X006406Y003627D01*
X006438Y003642D01*
X006472Y003653D01*
X006506Y003661D01*
X006541Y003665D01*
X006577Y003666D01*
X006612Y003662D01*
X006647Y003656D01*
X006680Y003645D01*
X006713Y003631D01*
X007090Y003736D02*
X007290Y003736D01*
X007340Y003786D01*
X007140Y003786D02*
X007140Y003686D01*
X007190Y003536D02*
X007340Y003536D01*
X007190Y003536D02*
X007140Y003486D01*
X007140Y003386D01*
X007190Y003336D01*
X007040Y003336D02*
X007340Y003336D01*
X007340Y003186D02*
X007340Y003036D01*
X007290Y002986D01*
X007190Y002986D01*
X007140Y003036D01*
X007140Y003186D01*
X007390Y003186D01*
X007440Y003136D01*
X007440Y003086D01*
X007340Y002836D02*
X007140Y002836D01*
X007340Y002836D02*
X007340Y002686D01*
X007290Y002636D01*
X007140Y002636D01*
X007190Y002486D02*
X007140Y002436D01*
X007140Y002336D01*
X007190Y002286D01*
X007290Y002286D01*
X007340Y002336D01*
X007340Y002436D01*
X007290Y002486D01*
X007190Y002486D01*
X007190Y002136D02*
X007340Y002136D01*
X007190Y002136D02*
X007140Y002086D01*
X007140Y001986D01*
X007190Y001936D01*
X007040Y001936D02*
X007340Y001936D01*
X007340Y001803D02*
X007290Y001753D01*
X007090Y001753D01*
X007140Y001703D02*
X007140Y001803D01*
X007190Y001553D02*
X007190Y001353D01*
X007140Y001220D02*
X007140Y001120D01*
X007090Y001170D02*
X007290Y001170D01*
X007340Y001220D01*
X007290Y000970D02*
X007190Y000970D01*
X007140Y000920D01*
X007140Y000820D01*
X007190Y000770D01*
X007290Y000770D01*
X007340Y000820D01*
X007340Y000920D01*
X007290Y000970D01*
X006825Y000810D02*
X006665Y000650D01*
X006705Y000690D02*
X006825Y000570D01*
X006665Y000570D02*
X006665Y000810D01*
X006450Y000810D02*
X006370Y000730D01*
X006450Y000810D02*
X006450Y000570D01*
X006370Y000570D02*
X006530Y000570D01*
X007040Y000420D02*
X007340Y000420D01*
X007340Y000570D01*
X007290Y000620D01*
X007190Y000620D01*
X007140Y000570D01*
X007140Y000420D01*
X003735Y000670D02*
X003575Y000670D01*
X003695Y000790D01*
X003695Y000550D01*
X003441Y000590D02*
X003401Y000550D01*
X003321Y000550D01*
X003281Y000590D01*
X003441Y000750D01*
X003441Y000590D01*
X003281Y000590D02*
X003281Y000750D01*
X003321Y000790D01*
X003401Y000790D01*
X003441Y000750D01*
X003146Y000550D02*
X002986Y000550D01*
X003066Y000550D02*
X003066Y000790D01*
X002986Y000710D01*
X003550Y001170D02*
X003790Y001170D01*
X003790Y001330D01*
X003790Y001465D02*
X003550Y001465D01*
X003630Y001545D01*
X003550Y001625D01*
X003790Y001625D01*
X003750Y001759D02*
X003790Y001799D01*
X003790Y001879D01*
X003750Y001919D01*
X003710Y001919D01*
X003670Y001879D01*
X003670Y001839D01*
X003670Y001879D02*
X003630Y001919D01*
X003590Y001919D01*
X003550Y001879D01*
X003550Y001799D01*
X003590Y001759D01*
X003590Y002054D02*
X003630Y002054D01*
X003670Y002094D01*
X003670Y002174D01*
X003710Y002214D01*
X003750Y002214D01*
X003790Y002174D01*
X003790Y002094D01*
X003750Y002054D01*
X003710Y002054D01*
X003670Y002094D01*
X003670Y002174D02*
X003630Y002214D01*
X003590Y002214D01*
X003550Y002174D01*
X003550Y002094D01*
X003590Y002054D01*
X003670Y002349D02*
X003670Y002469D01*
X003710Y002509D01*
X003750Y002509D01*
X003790Y002469D01*
X003790Y002389D01*
X003750Y002349D01*
X003670Y002349D01*
X003590Y002429D01*
X003550Y002509D01*
X005522Y003414D02*
X005544Y003448D01*
X005563Y003485D01*
X005578Y003522D01*
X005590Y003561D01*
X005598Y003601D01*
X005603Y003641D01*
X005604Y003682D01*
X005601Y003723D01*
X005595Y003763D01*
X005585Y003802D01*
X005571Y003841D01*
X005554Y003878D01*
X005534Y003913D01*
X005510Y003946D01*
X005484Y003977D01*
X005455Y004006D01*
X005423Y004031D01*
X005389Y004054D01*
X005354Y004073D01*
X005316Y004090D01*
X005278Y004102D01*
X005238Y004112D01*
X005198Y004117D01*
X005685Y004280D02*
X005739Y004280D01*
X005741Y004235D01*
X005746Y004191D01*
X005756Y004147D01*
X005768Y004104D01*
X005785Y004063D01*
X005804Y004023D01*
X005827Y003984D01*
X005853Y003948D01*
X005882Y003914D01*
X005914Y003882D01*
X005948Y003853D01*
X005984Y003827D01*
X006023Y003804D01*
X006063Y003785D01*
X006104Y003768D01*
X006147Y003756D01*
X006191Y003746D01*
X006235Y003741D01*
X006280Y003739D01*
X006226Y003306D02*
X006217Y003342D01*
X006204Y003377D01*
X006188Y003410D01*
X006169Y003442D01*
X006147Y003472D01*
X006123Y003499D01*
X006095Y003524D01*
X006066Y003546D01*
X006034Y003566D01*
X006001Y003582D01*
X005966Y003594D01*
X005930Y003603D01*
X005893Y003609D01*
X005856Y003611D01*
X005819Y003609D01*
X005783Y003604D01*
X005747Y003595D01*
X005712Y003583D01*
X005678Y003568D01*
X005646Y003549D01*
X005616Y003527D01*
X005589Y003503D01*
X005563Y003475D01*
X005541Y003446D01*
X005522Y003414D01*
X007140Y003969D02*
X007140Y004119D01*
X007240Y004069D02*
X007240Y003969D01*
X007190Y003919D01*
X007140Y003969D01*
X007240Y004069D02*
X007290Y004119D01*
X007340Y004069D01*
X007340Y003919D01*
X007340Y004269D02*
X007290Y004269D01*
X007290Y004319D01*
X007340Y004319D01*
X007340Y004269D01*
X007290Y004444D02*
X007190Y004444D01*
X007140Y004494D01*
X007140Y004644D01*
X007340Y004644D02*
X007340Y004494D01*
X007290Y004444D01*
X007290Y004794D02*
X007190Y004794D01*
X007140Y004844D01*
X007140Y004944D01*
X007190Y004994D01*
X007290Y004994D01*
X007340Y004944D01*
X007340Y004844D01*
X007290Y004794D01*
X007340Y005144D02*
X007140Y005144D01*
X007140Y005194D01*
X007190Y005244D01*
X007140Y005294D01*
X007190Y005344D01*
X007340Y005344D01*
X007340Y005244D02*
X007190Y005244D01*
X006767Y004983D02*
X006743Y004962D01*
X006717Y004945D01*
X006688Y004932D01*
X006659Y004921D01*
X006628Y004915D01*
X006596Y004912D01*
X006565Y004913D01*
X006534Y004918D01*
X006504Y004927D01*
X006475Y004939D01*
X006447Y004955D01*
X006422Y004974D01*
X006400Y004996D01*
X006380Y005020D01*
X006363Y005047D01*
X006350Y005076D01*
X006340Y005106D01*
X006334Y005137D01*
X006332Y005168D01*
X006334Y005200D01*
X006335Y005199D02*
X006322Y005170D01*
X006306Y005142D01*
X006288Y005116D01*
X006266Y005093D01*
X006242Y005072D01*
X006216Y005053D01*
X006188Y005038D01*
X006158Y005026D01*
X006127Y005017D01*
X006096Y005012D01*
X006064Y005010D01*
X006032Y005012D01*
X006001Y005017D01*
X005970Y005026D01*
X005940Y005038D01*
X005912Y005053D01*
X005886Y005072D01*
X005862Y005093D01*
X005840Y005116D01*
X005822Y005142D01*
X005806Y005170D01*
X005793Y005199D01*
X005793Y005200D02*
X005802Y005166D01*
X005807Y005132D01*
X005809Y005097D01*
X005807Y005062D01*
X005801Y005028D01*
X005792Y004994D01*
X005779Y004962D01*
X005763Y004931D01*
X005743Y004902D01*
X005721Y004875D01*
X005696Y004851D01*
X005668Y004830D01*
X005639Y004811D01*
X005607Y004796D01*
X005575Y004785D01*
X005541Y004776D01*
X005506Y004772D01*
X005471Y004771D01*
X005437Y004774D01*
X005402Y004781D01*
X005369Y004791D01*
X005337Y004804D01*
X005307Y004821D01*
X003190Y004785D02*
X003190Y004705D01*
X003150Y004665D01*
X002990Y004825D01*
X003150Y004825D01*
X003190Y004785D01*
X002990Y004825D02*
X002950Y004785D01*
X002950Y004705D01*
X002990Y004665D01*
X003150Y004665D01*
X003190Y004530D02*
X003190Y004370D01*
X003190Y004450D02*
X002950Y004450D01*
X003030Y004370D01*
X001740Y004335D02*
X001740Y004255D01*
X001700Y004215D01*
X001540Y004375D01*
X001700Y004375D01*
X001740Y004335D01*
X001700Y004215D02*
X001540Y004215D01*
X001500Y004255D01*
X001500Y004335D01*
X001540Y004375D01*
X001620Y004509D02*
X001620Y004629D01*
X001660Y004669D01*
X001700Y004669D01*
X001740Y004629D01*
X001740Y004549D01*
X001700Y004509D01*
X001620Y004509D01*
X001540Y004589D01*
X001500Y004669D01*
X001740Y004080D02*
X001740Y003920D01*
X001740Y004000D02*
X001500Y004000D01*
X001580Y003920D01*
D11*
X006075Y004118D02*
X006077Y004134D01*
X006082Y004149D01*
X006091Y004163D01*
X006103Y004174D01*
X006117Y004182D01*
X006133Y004187D01*
X006149Y004188D01*
X006165Y004185D01*
X006180Y004179D01*
X006193Y004169D01*
X006203Y004156D01*
X006211Y004142D01*
X006215Y004126D01*
X006215Y004110D01*
X006211Y004094D01*
X006203Y004080D01*
X006193Y004067D01*
X006180Y004057D01*
X006165Y004051D01*
X006149Y004048D01*
X006133Y004049D01*
X006117Y004054D01*
X006103Y004062D01*
X006091Y004073D01*
X006082Y004087D01*
X006077Y004102D01*
X006075Y004118D01*
D12*
X006161Y004496D02*
X006163Y004509D01*
X006168Y004520D01*
X006177Y004530D01*
X006188Y004536D01*
X006201Y004539D01*
X006214Y004538D01*
X006226Y004533D01*
X006236Y004525D01*
X006243Y004515D01*
X006247Y004502D01*
X006247Y004490D01*
X006243Y004477D01*
X006236Y004467D01*
X006225Y004459D01*
X006214Y004454D01*
X006201Y004453D01*
X006188Y004456D01*
X006177Y004462D01*
X006168Y004472D01*
X006163Y004483D01*
X006161Y004496D01*
D13*
X005577Y004280D02*
X005579Y004294D01*
X005584Y004307D01*
X005593Y004318D01*
X005604Y004327D01*
X005617Y004332D01*
X005631Y004334D01*
X005645Y004332D01*
X005658Y004327D01*
X005669Y004318D01*
X005678Y004307D01*
X005683Y004294D01*
X005685Y004280D01*
X005683Y004266D01*
X005678Y004253D01*
X005669Y004242D01*
X005658Y004233D01*
X005645Y004228D01*
X005631Y004226D01*
X005617Y004228D01*
X005604Y004233D01*
X005593Y004242D01*
X005584Y004253D01*
X005579Y004266D01*
X005577Y004280D01*
M02*
