%
M48
M72
T01C0.0197
T02C0.0320
T03C0.0400
T04C0.0472
%
T01
X5250Y3005
X6450Y5405
X6650Y5805
X8750Y6305
X10250Y5905
X10650Y6305
X14526Y5381
X13444Y4136
X10350Y3605
X10050Y3305
X10450Y505
X3950Y5405
X3950Y6565
X10450Y9305
T02
X14320Y5855
X14320Y3955
T03
X950Y905
X1950Y905
X2950Y905
X3950Y905
X4950Y905
X5950Y905
X6950Y905
X7950Y905
X8950Y905
X9950Y905
X10950Y905
X11950Y905
X12950Y905
X13950Y905
X14950Y905
X15950Y905
X16950Y905
X17950Y905
X17950Y8905
X16950Y8905
X15950Y8905
X14950Y8905
X13950Y8905
X12950Y8905
X11950Y8905
X10950Y8905
X9950Y8905
X8950Y8905
X7950Y8905
X6950Y8905
X5950Y8905
X4950Y8905
X3950Y8905
X2950Y8905
X1950Y8905
X950Y8905
X1950Y7405
X1950Y6405
X950Y6405
X950Y5405
X1950Y5405
X1950Y4405
X950Y4405
X950Y3405
X1950Y3405
X1950Y2405
T04
X16250Y3724
X16250Y6086
M30
