G75*
G70*
%OFA0B0*%
%FSLAX24Y24*%
%IPPOS*%
%LPD*%
%AMOC8*
5,1,8,0,0,1.08239X$1,22.5*
%
%ADD10C,0.0660*%
%ADD11C,0.0560*%
%ADD12C,0.0640*%
%ADD13C,0.0712*%
%ADD14C,0.0100*%
%ADD15C,0.0270*%
D10*
X011850Y003850D03*
X012850Y003850D03*
X012850Y004850D03*
X011850Y004850D03*
X011850Y005850D03*
X012850Y005850D03*
D11*
X009850Y004850D03*
X008850Y004850D03*
X007850Y004850D03*
X006850Y004850D03*
X005850Y004850D03*
X004850Y004850D03*
X003850Y004850D03*
X002850Y004850D03*
X001850Y004850D03*
X000850Y004850D03*
X000850Y001850D03*
X001850Y001850D03*
X002850Y001850D03*
X003850Y001850D03*
X004850Y001850D03*
X005850Y001850D03*
X006850Y001850D03*
X007850Y001850D03*
X008850Y001850D03*
X009850Y001850D03*
D12*
X009850Y000850D03*
X008850Y000850D03*
X007850Y000850D03*
X006850Y000850D03*
X005850Y000850D03*
X004850Y000850D03*
X003850Y000850D03*
X002850Y000850D03*
X001850Y000850D03*
X000850Y000850D03*
X000850Y005850D03*
X001850Y005850D03*
X002850Y005850D03*
X003850Y005850D03*
X004850Y005850D03*
X005850Y005850D03*
X006850Y005850D03*
X007850Y005850D03*
X008850Y005850D03*
X009850Y005850D03*
D13*
X010972Y001050D03*
X013728Y001050D03*
D14*
X000712Y000300D02*
X000300Y000712D01*
X000300Y005988D01*
X000712Y006400D01*
X013888Y006400D01*
X014300Y005988D01*
X014300Y000712D01*
X013888Y000300D01*
X000712Y000300D01*
X000665Y000347D02*
X013935Y000347D01*
X014033Y000446D02*
X010091Y000446D01*
X010096Y000448D02*
X010156Y000492D01*
X010208Y000544D01*
X010252Y000604D01*
X010286Y000670D01*
X010308Y000740D01*
X010318Y000800D01*
X009900Y000800D01*
X009900Y000900D01*
X010318Y000900D01*
X010308Y000960D01*
X010286Y001030D01*
X010252Y001096D01*
X010208Y001156D01*
X010156Y001208D01*
X010096Y001252D01*
X010030Y001286D01*
X009960Y001308D01*
X009900Y001318D01*
X009900Y000900D01*
X009800Y000900D01*
X009800Y001318D01*
X009740Y001308D01*
X009670Y001286D01*
X009604Y001252D01*
X009544Y001208D01*
X009492Y001156D01*
X009448Y001096D01*
X009414Y001030D01*
X009392Y000960D01*
X009382Y000900D01*
X009800Y000900D01*
X009800Y000800D01*
X009900Y000800D01*
X009900Y000382D01*
X009960Y000392D01*
X010030Y000414D01*
X010096Y000448D01*
X010209Y000544D02*
X014132Y000544D01*
X014230Y000643D02*
X014028Y000643D01*
X014058Y000664D02*
X014114Y000720D01*
X014161Y000785D01*
X014197Y000856D01*
X014222Y000931D01*
X014233Y001000D01*
X013778Y001000D01*
X013778Y001100D01*
X014233Y001100D01*
X014222Y001169D01*
X014197Y001244D01*
X014161Y001315D01*
X014114Y001380D01*
X014058Y001436D01*
X013993Y001483D01*
X013922Y001519D01*
X013846Y001544D01*
X013778Y001555D01*
X013778Y001100D01*
X013678Y001100D01*
X013678Y001555D01*
X013609Y001544D01*
X013534Y001519D01*
X013463Y001483D01*
X013398Y001436D01*
X013342Y001380D01*
X013295Y001315D01*
X013259Y001244D01*
X013234Y001169D01*
X013223Y001100D01*
X013678Y001100D01*
X013678Y001000D01*
X013778Y001000D01*
X013778Y000545D01*
X013846Y000556D01*
X013922Y000581D01*
X013993Y000617D01*
X014058Y000664D01*
X014129Y000741D02*
X014300Y000741D01*
X014300Y000840D02*
X014189Y000840D01*
X014223Y000938D02*
X014300Y000938D01*
X014300Y001037D02*
X013778Y001037D01*
X013778Y001135D02*
X013678Y001135D01*
X013678Y001037D02*
X011438Y001037D01*
X011438Y000957D02*
X011367Y000786D01*
X011236Y000655D01*
X011065Y000584D01*
X010879Y000584D01*
X010708Y000655D01*
X010577Y000786D01*
X010506Y000957D01*
X010506Y001143D01*
X010577Y001314D01*
X010708Y001445D01*
X010879Y001516D01*
X011065Y001516D01*
X011236Y001445D01*
X011367Y001314D01*
X011438Y001143D01*
X011438Y000957D01*
X011430Y000938D02*
X013233Y000938D01*
X013234Y000931D02*
X013223Y001000D01*
X013678Y001000D01*
X013678Y000545D01*
X013609Y000556D01*
X013534Y000581D01*
X013463Y000617D01*
X013398Y000664D01*
X013342Y000720D01*
X013295Y000785D01*
X013259Y000856D01*
X013234Y000931D01*
X013267Y000840D02*
X011389Y000840D01*
X011322Y000741D02*
X013327Y000741D01*
X013428Y000643D02*
X011207Y000643D01*
X010738Y000643D02*
X010272Y000643D01*
X010309Y000741D02*
X010622Y000741D01*
X010555Y000840D02*
X009900Y000840D01*
X009900Y000741D02*
X009800Y000741D01*
X009800Y000800D02*
X009800Y000382D01*
X009740Y000392D01*
X009670Y000414D01*
X009604Y000448D01*
X009544Y000492D01*
X009492Y000544D01*
X009448Y000604D01*
X009414Y000670D01*
X009392Y000740D01*
X009382Y000800D01*
X009800Y000800D01*
X009800Y000840D02*
X009280Y000840D01*
X009280Y000764D02*
X009215Y000606D01*
X009094Y000485D01*
X008936Y000420D01*
X008764Y000420D01*
X008606Y000485D01*
X008485Y000606D01*
X008420Y000764D01*
X008420Y000936D01*
X008485Y001094D01*
X008606Y001215D01*
X008690Y001249D01*
X008690Y001494D01*
X008629Y001519D01*
X008519Y001629D01*
X008460Y001772D01*
X008460Y001928D01*
X008519Y002071D01*
X008629Y002181D01*
X008772Y002240D01*
X008928Y002240D01*
X009071Y002181D01*
X009181Y002071D01*
X009240Y001928D01*
X009240Y001772D01*
X009181Y001629D01*
X009071Y001519D01*
X009010Y001494D01*
X009010Y001249D01*
X009094Y001215D01*
X009215Y001094D01*
X009280Y000936D01*
X009280Y000764D01*
X009270Y000741D02*
X009391Y000741D01*
X009428Y000643D02*
X009229Y000643D01*
X009152Y000544D02*
X009491Y000544D01*
X009609Y000446D02*
X008997Y000446D01*
X008703Y000446D02*
X007997Y000446D01*
X007936Y000420D02*
X008094Y000485D01*
X008215Y000606D01*
X008280Y000764D01*
X008280Y000936D01*
X008215Y001094D01*
X008094Y001215D01*
X008010Y001249D01*
X008010Y001494D01*
X008071Y001519D01*
X008181Y001629D01*
X008240Y001772D01*
X008240Y001928D01*
X008181Y002071D01*
X008071Y002181D01*
X007928Y002240D01*
X007772Y002240D01*
X007629Y002181D01*
X007519Y002071D01*
X007460Y001928D01*
X007460Y001772D01*
X007519Y001629D01*
X007629Y001519D01*
X007690Y001494D01*
X007690Y001249D01*
X007606Y001215D01*
X007485Y001094D01*
X007420Y000936D01*
X007420Y000764D01*
X007485Y000606D01*
X007606Y000485D01*
X007764Y000420D01*
X007936Y000420D01*
X007703Y000446D02*
X006997Y000446D01*
X006936Y000420D02*
X007094Y000485D01*
X007215Y000606D01*
X007280Y000764D01*
X007280Y000936D01*
X007215Y001094D01*
X007094Y001215D01*
X007010Y001249D01*
X007010Y001494D01*
X007071Y001519D01*
X007181Y001629D01*
X007240Y001772D01*
X007240Y001928D01*
X007181Y002071D01*
X007071Y002181D01*
X006928Y002240D01*
X006772Y002240D01*
X006629Y002181D01*
X006519Y002071D01*
X006460Y001928D01*
X006460Y001772D01*
X006519Y001629D01*
X006629Y001519D01*
X006690Y001494D01*
X006690Y001249D01*
X006606Y001215D01*
X006485Y001094D01*
X006420Y000936D01*
X006420Y000764D01*
X006485Y000606D01*
X006606Y000485D01*
X006764Y000420D01*
X006936Y000420D01*
X006703Y000446D02*
X005997Y000446D01*
X005936Y000420D02*
X006094Y000485D01*
X006215Y000606D01*
X006280Y000764D01*
X006280Y000936D01*
X006215Y001094D01*
X006094Y001215D01*
X006010Y001249D01*
X006010Y001494D01*
X006071Y001519D01*
X006181Y001629D01*
X006240Y001772D01*
X006240Y001928D01*
X006181Y002071D01*
X006071Y002181D01*
X005928Y002240D01*
X005772Y002240D01*
X005629Y002181D01*
X005519Y002071D01*
X005460Y001928D01*
X005460Y001772D01*
X005519Y001629D01*
X005629Y001519D01*
X005690Y001494D01*
X005690Y001249D01*
X005606Y001215D01*
X005485Y001094D01*
X005420Y000936D01*
X005420Y000764D01*
X005485Y000606D01*
X005606Y000485D01*
X005764Y000420D01*
X005936Y000420D01*
X005703Y000446D02*
X004997Y000446D01*
X004936Y000420D02*
X005094Y000485D01*
X005215Y000606D01*
X005280Y000764D01*
X005280Y000936D01*
X005215Y001094D01*
X005094Y001215D01*
X005010Y001249D01*
X005010Y001494D01*
X005071Y001519D01*
X005181Y001629D01*
X005240Y001772D01*
X005240Y001928D01*
X005181Y002071D01*
X005071Y002181D01*
X004928Y002240D01*
X004772Y002240D01*
X004629Y002181D01*
X004519Y002071D01*
X004460Y001928D01*
X004460Y001772D01*
X004519Y001629D01*
X004629Y001519D01*
X004690Y001494D01*
X004690Y001249D01*
X004606Y001215D01*
X004485Y001094D01*
X004420Y000936D01*
X004420Y000764D01*
X004485Y000606D01*
X004606Y000485D01*
X004764Y000420D01*
X004936Y000420D01*
X004703Y000446D02*
X003997Y000446D01*
X003936Y000420D02*
X004094Y000485D01*
X004215Y000606D01*
X004280Y000764D01*
X004280Y000936D01*
X004215Y001094D01*
X004094Y001215D01*
X004010Y001249D01*
X004010Y001494D01*
X004071Y001519D01*
X004181Y001629D01*
X004240Y001772D01*
X004240Y001928D01*
X004181Y002071D01*
X004071Y002181D01*
X003928Y002240D01*
X003772Y002240D01*
X003629Y002181D01*
X003519Y002071D01*
X003460Y001928D01*
X003460Y001772D01*
X003519Y001629D01*
X003629Y001519D01*
X003690Y001494D01*
X003690Y001249D01*
X003606Y001215D01*
X003485Y001094D01*
X003420Y000936D01*
X003420Y000764D01*
X003485Y000606D01*
X003606Y000485D01*
X003764Y000420D01*
X003936Y000420D01*
X003703Y000446D02*
X002997Y000446D01*
X002936Y000420D02*
X003094Y000485D01*
X003215Y000606D01*
X003280Y000764D01*
X003280Y000936D01*
X003215Y001094D01*
X003094Y001215D01*
X003010Y001249D01*
X003010Y001494D01*
X003071Y001519D01*
X003181Y001629D01*
X003240Y001772D01*
X003240Y001928D01*
X003181Y002071D01*
X003071Y002181D01*
X002928Y002240D01*
X002772Y002240D01*
X002629Y002181D01*
X002519Y002071D01*
X002460Y001928D01*
X002460Y001772D01*
X002519Y001629D01*
X002629Y001519D01*
X002690Y001494D01*
X002690Y001249D01*
X002606Y001215D01*
X002485Y001094D01*
X002420Y000936D01*
X002420Y000764D01*
X002485Y000606D01*
X002606Y000485D01*
X002764Y000420D01*
X002936Y000420D01*
X002703Y000446D02*
X001997Y000446D01*
X001936Y000420D02*
X002094Y000485D01*
X002215Y000606D01*
X002280Y000764D01*
X002280Y000936D01*
X002215Y001094D01*
X002094Y001215D01*
X002010Y001249D01*
X002010Y001494D01*
X002071Y001519D01*
X002181Y001629D01*
X002240Y001772D01*
X002240Y001928D01*
X002181Y002071D01*
X002071Y002181D01*
X001928Y002240D01*
X001772Y002240D01*
X001629Y002181D01*
X001519Y002071D01*
X001460Y001928D01*
X001460Y001772D01*
X001519Y001629D01*
X001629Y001519D01*
X001690Y001494D01*
X001690Y001249D01*
X001606Y001215D01*
X001485Y001094D01*
X001420Y000936D01*
X001420Y000764D01*
X001485Y000606D01*
X001606Y000485D01*
X001764Y000420D01*
X001936Y000420D01*
X001703Y000446D02*
X000997Y000446D01*
X000936Y000420D02*
X001094Y000485D01*
X001215Y000606D01*
X001280Y000764D01*
X001280Y000936D01*
X001215Y001094D01*
X001094Y001215D01*
X001010Y001249D01*
X001010Y001494D01*
X001071Y001519D01*
X001181Y001629D01*
X001240Y001772D01*
X001240Y001928D01*
X001215Y001988D01*
X001716Y002490D01*
X006164Y002490D01*
X006211Y002442D01*
X006301Y002405D01*
X006399Y002405D01*
X006489Y002442D01*
X006558Y002511D01*
X006595Y002601D01*
X006595Y002699D01*
X006558Y002789D01*
X006489Y002858D01*
X006399Y002895D01*
X006301Y002895D01*
X006211Y002858D01*
X006164Y002810D01*
X001584Y002810D01*
X000988Y002215D01*
X000928Y002240D01*
X000772Y002240D01*
X000629Y002181D01*
X000519Y002071D01*
X000460Y001928D01*
X000460Y001772D01*
X000519Y001629D01*
X000629Y001519D01*
X000690Y001494D01*
X000690Y001249D01*
X000606Y001215D01*
X000485Y001094D01*
X000420Y000936D01*
X000420Y000764D01*
X000485Y000606D01*
X000606Y000485D01*
X000764Y000420D01*
X000936Y000420D01*
X000703Y000446D02*
X000567Y000446D01*
X000548Y000544D02*
X000468Y000544D01*
X000471Y000643D02*
X000370Y000643D01*
X000430Y000741D02*
X000300Y000741D01*
X000300Y000840D02*
X000420Y000840D01*
X000421Y000938D02*
X000300Y000938D01*
X000300Y001037D02*
X000462Y001037D01*
X000527Y001135D02*
X000300Y001135D01*
X000300Y001234D02*
X000652Y001234D01*
X000690Y001332D02*
X000300Y001332D01*
X000300Y001431D02*
X000690Y001431D01*
X000619Y001529D02*
X000300Y001529D01*
X000300Y001628D02*
X000521Y001628D01*
X000479Y001726D02*
X000300Y001726D01*
X000300Y001825D02*
X000460Y001825D01*
X000460Y001923D02*
X000300Y001923D01*
X000300Y002022D02*
X000499Y002022D01*
X000568Y002120D02*
X000300Y002120D01*
X000300Y002219D02*
X000721Y002219D01*
X000979Y002219D02*
X000992Y002219D01*
X001091Y002317D02*
X000300Y002317D01*
X000300Y002416D02*
X001189Y002416D01*
X001288Y002514D02*
X000300Y002514D01*
X000300Y002613D02*
X001386Y002613D01*
X001485Y002711D02*
X000300Y002711D01*
X000300Y002810D02*
X001583Y002810D01*
X001650Y002650D02*
X000850Y001850D01*
X000850Y000850D01*
X001280Y000840D02*
X001420Y000840D01*
X001430Y000741D02*
X001270Y000741D01*
X001229Y000643D02*
X001471Y000643D01*
X001548Y000544D02*
X001152Y000544D01*
X001850Y000850D02*
X001850Y001850D01*
X001460Y001825D02*
X001240Y001825D01*
X001240Y001923D02*
X001460Y001923D01*
X001499Y002022D02*
X001248Y002022D01*
X001346Y002120D02*
X001568Y002120D01*
X001445Y002219D02*
X001721Y002219D01*
X001543Y002317D02*
X014300Y002317D01*
X014300Y002219D02*
X010074Y002219D01*
X010075Y002218D02*
X010015Y002248D01*
X009951Y002269D01*
X009884Y002280D01*
X009880Y002280D01*
X009880Y001880D01*
X009820Y001880D01*
X009820Y002280D01*
X009816Y002280D01*
X009749Y002269D01*
X009685Y002248D01*
X009625Y002218D01*
X009570Y002178D01*
X009522Y002130D01*
X009482Y002075D01*
X009452Y002015D01*
X009431Y001951D01*
X009420Y001884D01*
X009420Y001880D01*
X009820Y001880D01*
X009820Y001820D01*
X009420Y001820D01*
X009420Y001816D01*
X009431Y001749D01*
X009452Y001685D01*
X009482Y001625D01*
X009522Y001570D01*
X009570Y001522D01*
X009625Y001482D01*
X009685Y001452D01*
X009749Y001431D01*
X009816Y001420D01*
X009820Y001420D01*
X009820Y001820D01*
X009880Y001820D01*
X009880Y001880D01*
X010280Y001880D01*
X010280Y001884D01*
X010269Y001951D01*
X010248Y002015D01*
X010218Y002075D01*
X010178Y002130D01*
X010130Y002178D01*
X010075Y002218D01*
X010185Y002120D02*
X014300Y002120D01*
X014300Y002022D02*
X010245Y002022D01*
X010274Y001923D02*
X014300Y001923D01*
X014300Y001825D02*
X009880Y001825D01*
X009880Y001820D02*
X010280Y001820D01*
X010280Y001816D01*
X010269Y001749D01*
X010248Y001685D01*
X010218Y001625D01*
X010178Y001570D01*
X010130Y001522D01*
X010075Y001482D01*
X010015Y001452D01*
X009951Y001431D01*
X009884Y001420D01*
X009880Y001420D01*
X009880Y001820D01*
X009820Y001825D02*
X009240Y001825D01*
X009240Y001923D02*
X009426Y001923D01*
X009455Y002022D02*
X009201Y002022D01*
X009132Y002120D02*
X009515Y002120D01*
X009626Y002219D02*
X008979Y002219D01*
X008721Y002219D02*
X007979Y002219D01*
X008132Y002120D02*
X008568Y002120D01*
X008499Y002022D02*
X008201Y002022D01*
X008240Y001923D02*
X008460Y001923D01*
X008460Y001825D02*
X008240Y001825D01*
X008221Y001726D02*
X008479Y001726D01*
X008521Y001628D02*
X008179Y001628D01*
X008081Y001529D02*
X008619Y001529D01*
X008690Y001431D02*
X008010Y001431D01*
X008010Y001332D02*
X008690Y001332D01*
X008652Y001234D02*
X008048Y001234D01*
X008173Y001135D02*
X008527Y001135D01*
X008462Y001037D02*
X008238Y001037D01*
X008279Y000938D02*
X008421Y000938D01*
X008420Y000840D02*
X008280Y000840D01*
X008270Y000741D02*
X008430Y000741D01*
X008471Y000643D02*
X008229Y000643D01*
X008152Y000544D02*
X008548Y000544D01*
X008850Y000850D02*
X008850Y001850D01*
X009221Y001726D02*
X009438Y001726D01*
X009481Y001628D02*
X009179Y001628D01*
X009081Y001529D02*
X009563Y001529D01*
X009750Y001431D02*
X009010Y001431D01*
X009010Y001332D02*
X010595Y001332D01*
X010543Y001234D02*
X010122Y001234D01*
X010224Y001135D02*
X010506Y001135D01*
X010506Y001037D02*
X010282Y001037D01*
X010312Y000938D02*
X010514Y000938D01*
X009900Y000938D02*
X009800Y000938D01*
X009800Y001037D02*
X009900Y001037D01*
X009900Y001135D02*
X009800Y001135D01*
X009800Y001234D02*
X009900Y001234D01*
X009578Y001234D02*
X009048Y001234D01*
X009173Y001135D02*
X009476Y001135D01*
X009418Y001037D02*
X009238Y001037D01*
X009279Y000938D02*
X009388Y000938D01*
X009800Y000643D02*
X009900Y000643D01*
X009900Y000544D02*
X009800Y000544D01*
X009800Y000446D02*
X009900Y000446D01*
X011438Y001135D02*
X013229Y001135D01*
X013255Y001234D02*
X011401Y001234D01*
X011349Y001332D02*
X013307Y001332D01*
X013393Y001431D02*
X011251Y001431D01*
X010693Y001431D02*
X009950Y001431D01*
X009880Y001431D02*
X009820Y001431D01*
X009820Y001529D02*
X009880Y001529D01*
X009880Y001628D02*
X009820Y001628D01*
X009820Y001726D02*
X009880Y001726D01*
X010219Y001628D02*
X014300Y001628D01*
X014300Y001726D02*
X010262Y001726D01*
X010137Y001529D02*
X013564Y001529D01*
X013678Y001529D02*
X013778Y001529D01*
X013778Y001431D02*
X013678Y001431D01*
X013678Y001332D02*
X013778Y001332D01*
X013778Y001234D02*
X013678Y001234D01*
X014063Y001431D02*
X014300Y001431D01*
X014300Y001529D02*
X013892Y001529D01*
X014149Y001332D02*
X014300Y001332D01*
X014300Y001234D02*
X014201Y001234D01*
X014227Y001135D02*
X014300Y001135D01*
X013778Y000938D02*
X013678Y000938D01*
X013678Y000840D02*
X013778Y000840D01*
X013778Y000741D02*
X013678Y000741D01*
X013678Y000643D02*
X013778Y000643D01*
X014300Y002416D02*
X006424Y002416D01*
X006559Y002514D02*
X014300Y002514D01*
X014300Y002613D02*
X006595Y002613D01*
X006590Y002711D02*
X014300Y002711D01*
X014300Y002810D02*
X006537Y002810D01*
X006350Y002650D02*
X001650Y002650D01*
X001642Y002416D02*
X006276Y002416D01*
X005979Y002219D02*
X006721Y002219D01*
X006979Y002219D02*
X007721Y002219D01*
X007568Y002120D02*
X007132Y002120D01*
X007201Y002022D02*
X007499Y002022D01*
X007460Y001923D02*
X007240Y001923D01*
X007240Y001825D02*
X007460Y001825D01*
X007479Y001726D02*
X007221Y001726D01*
X007179Y001628D02*
X007521Y001628D01*
X007619Y001529D02*
X007081Y001529D01*
X007010Y001431D02*
X007690Y001431D01*
X007690Y001332D02*
X007010Y001332D01*
X007048Y001234D02*
X007652Y001234D01*
X007527Y001135D02*
X007173Y001135D01*
X007238Y001037D02*
X007462Y001037D01*
X007421Y000938D02*
X007279Y000938D01*
X007280Y000840D02*
X007420Y000840D01*
X007430Y000741D02*
X007270Y000741D01*
X007229Y000643D02*
X007471Y000643D01*
X007548Y000544D02*
X007152Y000544D01*
X006850Y000850D02*
X006850Y001850D01*
X006460Y001825D02*
X006240Y001825D01*
X006240Y001923D02*
X006460Y001923D01*
X006499Y002022D02*
X006201Y002022D01*
X006132Y002120D02*
X006568Y002120D01*
X005850Y001850D02*
X005850Y000850D01*
X006270Y000741D02*
X006430Y000741D01*
X006420Y000840D02*
X006280Y000840D01*
X006279Y000938D02*
X006421Y000938D01*
X006462Y001037D02*
X006238Y001037D01*
X006173Y001135D02*
X006527Y001135D01*
X006652Y001234D02*
X006048Y001234D01*
X006010Y001332D02*
X006690Y001332D01*
X006690Y001431D02*
X006010Y001431D01*
X006081Y001529D02*
X006619Y001529D01*
X006521Y001628D02*
X006179Y001628D01*
X006221Y001726D02*
X006479Y001726D01*
X005690Y001431D02*
X005010Y001431D01*
X005081Y001529D02*
X005619Y001529D01*
X005521Y001628D02*
X005179Y001628D01*
X005221Y001726D02*
X005479Y001726D01*
X005460Y001825D02*
X005240Y001825D01*
X005240Y001923D02*
X005460Y001923D01*
X005499Y002022D02*
X005201Y002022D01*
X005132Y002120D02*
X005568Y002120D01*
X005721Y002219D02*
X004979Y002219D01*
X004721Y002219D02*
X003979Y002219D01*
X004132Y002120D02*
X004568Y002120D01*
X004499Y002022D02*
X004201Y002022D01*
X004240Y001923D02*
X004460Y001923D01*
X004460Y001825D02*
X004240Y001825D01*
X004221Y001726D02*
X004479Y001726D01*
X004521Y001628D02*
X004179Y001628D01*
X004081Y001529D02*
X004619Y001529D01*
X004690Y001431D02*
X004010Y001431D01*
X004010Y001332D02*
X004690Y001332D01*
X004652Y001234D02*
X004048Y001234D01*
X004173Y001135D02*
X004527Y001135D01*
X004462Y001037D02*
X004238Y001037D01*
X004279Y000938D02*
X004421Y000938D01*
X004420Y000840D02*
X004280Y000840D01*
X004270Y000741D02*
X004430Y000741D01*
X004471Y000643D02*
X004229Y000643D01*
X004152Y000544D02*
X004548Y000544D01*
X004850Y000850D02*
X004850Y001850D01*
X003850Y001850D02*
X003850Y000850D01*
X003420Y000840D02*
X003280Y000840D01*
X003270Y000741D02*
X003430Y000741D01*
X003471Y000643D02*
X003229Y000643D01*
X003152Y000544D02*
X003548Y000544D01*
X002850Y000850D02*
X002850Y001850D01*
X002499Y002022D02*
X002201Y002022D01*
X002132Y002120D02*
X002568Y002120D01*
X002721Y002219D02*
X001979Y002219D01*
X002240Y001923D02*
X002460Y001923D01*
X002460Y001825D02*
X002240Y001825D01*
X002221Y001726D02*
X002479Y001726D01*
X002521Y001628D02*
X002179Y001628D01*
X002081Y001529D02*
X002619Y001529D01*
X002690Y001431D02*
X002010Y001431D01*
X002010Y001332D02*
X002690Y001332D01*
X002652Y001234D02*
X002048Y001234D01*
X002173Y001135D02*
X002527Y001135D01*
X002462Y001037D02*
X002238Y001037D01*
X002279Y000938D02*
X002421Y000938D01*
X002420Y000840D02*
X002280Y000840D01*
X002270Y000741D02*
X002430Y000741D01*
X002471Y000643D02*
X002229Y000643D01*
X002152Y000544D02*
X002548Y000544D01*
X003279Y000938D02*
X003421Y000938D01*
X003462Y001037D02*
X003238Y001037D01*
X003173Y001135D02*
X003527Y001135D01*
X003652Y001234D02*
X003048Y001234D01*
X003010Y001332D02*
X003690Y001332D01*
X003690Y001431D02*
X003010Y001431D01*
X003081Y001529D02*
X003619Y001529D01*
X003521Y001628D02*
X003179Y001628D01*
X003221Y001726D02*
X003479Y001726D01*
X003460Y001825D02*
X003240Y001825D01*
X003240Y001923D02*
X003460Y001923D01*
X003499Y002022D02*
X003201Y002022D01*
X003132Y002120D02*
X003568Y002120D01*
X003721Y002219D02*
X002979Y002219D01*
X001521Y001628D02*
X001179Y001628D01*
X001221Y001726D02*
X001479Y001726D01*
X001619Y001529D02*
X001081Y001529D01*
X001010Y001431D02*
X001690Y001431D01*
X001690Y001332D02*
X001010Y001332D01*
X001048Y001234D02*
X001652Y001234D01*
X001527Y001135D02*
X001173Y001135D01*
X001238Y001037D02*
X001462Y001037D01*
X001421Y000938D02*
X001279Y000938D01*
X005010Y001332D02*
X005690Y001332D01*
X005652Y001234D02*
X005048Y001234D01*
X005173Y001135D02*
X005527Y001135D01*
X005462Y001037D02*
X005238Y001037D01*
X005279Y000938D02*
X005421Y000938D01*
X005420Y000840D02*
X005280Y000840D01*
X005270Y000741D02*
X005430Y000741D01*
X005471Y000643D02*
X005229Y000643D01*
X005152Y000544D02*
X005548Y000544D01*
X006152Y000544D02*
X006548Y000544D01*
X006471Y000643D02*
X006229Y000643D01*
X007850Y000850D02*
X007850Y001850D01*
X009820Y001923D02*
X009880Y001923D01*
X009880Y002022D02*
X009820Y002022D01*
X009820Y002120D02*
X009880Y002120D01*
X009880Y002219D02*
X009820Y002219D01*
X010516Y003290D02*
X011673Y004447D01*
X011762Y004410D01*
X011938Y004410D01*
X012099Y004477D01*
X012223Y004601D01*
X012290Y004762D01*
X012290Y004938D01*
X012223Y005099D01*
X012099Y005223D01*
X011938Y005290D01*
X011762Y005290D01*
X011601Y005223D01*
X011477Y005099D01*
X011410Y004938D01*
X011410Y004762D01*
X011447Y004673D01*
X011110Y004336D01*
X011110Y005484D01*
X011316Y005690D01*
X011440Y005690D01*
X011477Y005601D01*
X011601Y005477D01*
X011762Y005410D01*
X011938Y005410D01*
X012099Y005477D01*
X012223Y005601D01*
X012290Y005762D01*
X012290Y005938D01*
X012223Y006099D01*
X012099Y006223D01*
X011938Y006290D01*
X011762Y006290D01*
X011601Y006223D01*
X011477Y006099D01*
X011440Y006010D01*
X011184Y006010D01*
X011090Y005916D01*
X010790Y005616D01*
X010790Y004416D01*
X010284Y003910D01*
X010156Y003910D01*
X010158Y003911D01*
X010195Y004001D01*
X010195Y004099D01*
X010158Y004189D01*
X010089Y004258D01*
X009999Y004295D01*
X009901Y004295D01*
X009811Y004258D01*
X009764Y004210D01*
X004616Y004210D01*
X004185Y004641D01*
X004240Y004772D01*
X004240Y004928D01*
X004181Y005071D01*
X004071Y005181D01*
X004010Y005206D01*
X004010Y005451D01*
X004094Y005485D01*
X004215Y005606D01*
X004280Y005764D01*
X004280Y005936D01*
X004215Y006094D01*
X004094Y006215D01*
X003936Y006280D01*
X003764Y006280D01*
X003606Y006215D01*
X003485Y006094D01*
X003420Y005936D01*
X003420Y005764D01*
X003485Y005606D01*
X003606Y005485D01*
X003690Y005451D01*
X003690Y005206D01*
X003629Y005181D01*
X003519Y005071D01*
X003460Y004928D01*
X003460Y004772D01*
X003519Y004629D01*
X003629Y004519D01*
X003772Y004460D01*
X003914Y004460D01*
X004390Y003984D01*
X004464Y003910D01*
X003816Y003910D01*
X003139Y004587D01*
X003181Y004629D01*
X003240Y004772D01*
X003240Y004928D01*
X003181Y005071D01*
X003071Y005181D01*
X003010Y005206D01*
X003010Y005451D01*
X003094Y005485D01*
X003215Y005606D01*
X003280Y005764D01*
X003280Y005936D01*
X003215Y006094D01*
X003094Y006215D01*
X002936Y006280D01*
X002764Y006280D01*
X002606Y006215D01*
X002485Y006094D01*
X002420Y005936D01*
X002420Y005764D01*
X002485Y005606D01*
X002606Y005485D01*
X002690Y005451D01*
X002690Y005206D01*
X002629Y005181D01*
X002519Y005071D01*
X002460Y004928D01*
X002460Y004772D01*
X002519Y004629D01*
X002629Y004519D01*
X002772Y004460D01*
X002814Y004460D01*
X003590Y003684D01*
X003664Y003610D01*
X003016Y003610D01*
X002089Y004537D01*
X002181Y004629D01*
X002240Y004772D01*
X002240Y004928D01*
X002181Y005071D01*
X002071Y005181D01*
X002010Y005206D01*
X002010Y005451D01*
X002094Y005485D01*
X002215Y005606D01*
X002280Y005764D01*
X002280Y005936D01*
X002215Y006094D01*
X002094Y006215D01*
X001936Y006280D01*
X001764Y006280D01*
X001606Y006215D01*
X001485Y006094D01*
X001420Y005936D01*
X001420Y005764D01*
X001485Y005606D01*
X001606Y005485D01*
X001690Y005451D01*
X001690Y005206D01*
X001629Y005181D01*
X001519Y005071D01*
X001460Y004928D01*
X001460Y004772D01*
X001519Y004629D01*
X001629Y004519D01*
X001690Y004494D01*
X001690Y004484D01*
X000986Y004484D01*
X000928Y004460D02*
X001071Y004519D01*
X001181Y004629D01*
X001240Y004772D01*
X001240Y004928D01*
X001181Y005071D01*
X001071Y005181D01*
X001010Y005206D01*
X001010Y005451D01*
X001094Y005485D01*
X001215Y005606D01*
X001280Y005764D01*
X001280Y005936D01*
X001215Y006094D01*
X001094Y006215D01*
X000936Y006280D01*
X000764Y006280D01*
X000606Y006215D01*
X000485Y006094D01*
X000420Y005936D01*
X000420Y005764D01*
X000485Y005606D01*
X000606Y005485D01*
X000690Y005451D01*
X000690Y005206D01*
X000629Y005181D01*
X000519Y005071D01*
X000460Y004928D01*
X000460Y004772D01*
X000519Y004629D01*
X000629Y004519D01*
X000772Y004460D01*
X000928Y004460D01*
X000714Y004484D02*
X000300Y004484D01*
X000300Y004386D02*
X001788Y004386D01*
X001690Y004484D02*
X002790Y003384D01*
X002884Y003290D01*
X010516Y003290D01*
X010528Y003302D02*
X014300Y003302D01*
X014300Y003401D02*
X013020Y003401D01*
X013034Y003405D02*
X013102Y003439D01*
X013163Y003484D01*
X013216Y003537D01*
X013261Y003598D01*
X013295Y003666D01*
X013318Y003738D01*
X013328Y003800D01*
X012900Y003800D01*
X012900Y003900D01*
X012800Y003900D01*
X012800Y004328D01*
X012738Y004318D01*
X012666Y004295D01*
X012598Y004261D01*
X012537Y004216D01*
X012484Y004163D01*
X012439Y004102D01*
X012405Y004034D01*
X012382Y003962D01*
X012372Y003900D01*
X012800Y003900D01*
X012800Y003800D01*
X012372Y003800D01*
X012382Y003738D01*
X012405Y003666D01*
X012439Y003598D01*
X012484Y003537D01*
X012537Y003484D01*
X012598Y003439D01*
X012666Y003405D01*
X012738Y003382D01*
X012800Y003372D01*
X012800Y003800D01*
X012900Y003800D01*
X012900Y003372D01*
X012962Y003382D01*
X013034Y003405D01*
X012900Y003401D02*
X012800Y003401D01*
X012680Y003401D02*
X010627Y003401D01*
X010450Y003450D02*
X011850Y004850D01*
X012256Y004681D02*
X012444Y004681D01*
X012477Y004601D02*
X012601Y004477D01*
X012762Y004410D01*
X012938Y004410D01*
X013099Y004477D01*
X013223Y004601D01*
X013290Y004762D01*
X013290Y004938D01*
X013223Y005099D01*
X013099Y005223D01*
X012938Y005290D01*
X012762Y005290D01*
X012601Y005223D01*
X012477Y005099D01*
X012410Y004938D01*
X012410Y004762D01*
X012477Y004601D01*
X012495Y004583D02*
X012205Y004583D01*
X012106Y004484D02*
X012594Y004484D01*
X012900Y004328D02*
X012900Y003900D01*
X013328Y003900D01*
X013318Y003962D01*
X013295Y004034D01*
X013261Y004102D01*
X013216Y004163D01*
X013163Y004216D01*
X013102Y004261D01*
X013034Y004295D01*
X012962Y004318D01*
X012900Y004328D01*
X012900Y004287D02*
X012800Y004287D01*
X012800Y004189D02*
X012900Y004189D01*
X012900Y004090D02*
X012800Y004090D01*
X012800Y003992D02*
X012900Y003992D01*
X012900Y003893D02*
X014300Y003893D01*
X014300Y003992D02*
X013309Y003992D01*
X013266Y004090D02*
X014300Y004090D01*
X014300Y004189D02*
X013190Y004189D01*
X013050Y004287D02*
X014300Y004287D01*
X014300Y004386D02*
X011612Y004386D01*
X011601Y004223D02*
X011762Y004290D01*
X011938Y004290D01*
X012099Y004223D01*
X012223Y004099D01*
X012290Y003938D01*
X012290Y003762D01*
X012223Y003601D01*
X012099Y003477D01*
X011938Y003410D01*
X011762Y003410D01*
X011601Y003477D01*
X011477Y003601D01*
X011410Y003762D01*
X011410Y003938D01*
X011477Y004099D01*
X011601Y004223D01*
X011566Y004189D02*
X011415Y004189D01*
X011473Y004090D02*
X011316Y004090D01*
X011218Y003992D02*
X011432Y003992D01*
X011410Y003893D02*
X011119Y003893D01*
X011021Y003795D02*
X011410Y003795D01*
X011438Y003696D02*
X010922Y003696D01*
X010824Y003598D02*
X011480Y003598D01*
X011579Y003499D02*
X010725Y003499D01*
X010450Y003450D02*
X002950Y003450D01*
X001850Y004550D01*
X001850Y004850D01*
X001850Y005850D01*
X002280Y005863D02*
X002420Y005863D01*
X002420Y005765D02*
X002280Y005765D01*
X002239Y005666D02*
X002461Y005666D01*
X002524Y005568D02*
X002176Y005568D01*
X002054Y005469D02*
X002646Y005469D01*
X002690Y005371D02*
X002010Y005371D01*
X002010Y005272D02*
X002690Y005272D01*
X002622Y005174D02*
X002078Y005174D01*
X002177Y005075D02*
X002523Y005075D01*
X002480Y004977D02*
X002220Y004977D01*
X002240Y004878D02*
X002460Y004878D01*
X002460Y004780D02*
X002240Y004780D01*
X002202Y004681D02*
X002498Y004681D01*
X002566Y004583D02*
X002134Y004583D01*
X002142Y004484D02*
X002714Y004484D01*
X002888Y004386D02*
X002241Y004386D01*
X002339Y004287D02*
X002987Y004287D01*
X003085Y004189D02*
X002438Y004189D01*
X002536Y004090D02*
X003184Y004090D01*
X003282Y003992D02*
X002635Y003992D01*
X002733Y003893D02*
X003381Y003893D01*
X003479Y003795D02*
X002832Y003795D01*
X002930Y003696D02*
X003578Y003696D01*
X003750Y003750D02*
X010350Y003750D01*
X010950Y004350D01*
X010950Y005550D01*
X011250Y005850D01*
X011850Y005850D01*
X012290Y005863D02*
X012410Y005863D01*
X012410Y005938D02*
X012410Y005762D01*
X012477Y005601D01*
X012601Y005477D01*
X012762Y005410D01*
X012938Y005410D01*
X013099Y005477D01*
X013223Y005601D01*
X013290Y005762D01*
X013290Y005938D01*
X013223Y006099D01*
X013099Y006223D01*
X012938Y006290D01*
X012762Y006290D01*
X012601Y006223D01*
X012477Y006099D01*
X012410Y005938D01*
X012420Y005962D02*
X012280Y005962D01*
X012239Y006060D02*
X012461Y006060D01*
X012536Y006159D02*
X012164Y006159D01*
X012017Y006257D02*
X012683Y006257D01*
X013017Y006257D02*
X014031Y006257D01*
X013932Y006356D02*
X000668Y006356D01*
X000709Y006257D02*
X000569Y006257D01*
X000550Y006159D02*
X000471Y006159D01*
X000472Y006060D02*
X000372Y006060D01*
X000431Y005962D02*
X000300Y005962D01*
X000300Y005863D02*
X000420Y005863D01*
X000420Y005765D02*
X000300Y005765D01*
X000300Y005666D02*
X000461Y005666D01*
X000524Y005568D02*
X000300Y005568D01*
X000300Y005469D02*
X000646Y005469D01*
X000690Y005371D02*
X000300Y005371D01*
X000300Y005272D02*
X000690Y005272D01*
X000622Y005174D02*
X000300Y005174D01*
X000300Y005075D02*
X000523Y005075D01*
X000480Y004977D02*
X000300Y004977D01*
X000300Y004878D02*
X000460Y004878D01*
X000460Y004780D02*
X000300Y004780D01*
X000300Y004681D02*
X000498Y004681D01*
X000566Y004583D02*
X000300Y004583D01*
X000850Y004850D02*
X000850Y005850D01*
X001280Y005863D02*
X001420Y005863D01*
X001420Y005765D02*
X001280Y005765D01*
X001239Y005666D02*
X001461Y005666D01*
X001524Y005568D02*
X001176Y005568D01*
X001054Y005469D02*
X001646Y005469D01*
X001690Y005371D02*
X001010Y005371D01*
X001010Y005272D02*
X001690Y005272D01*
X001622Y005174D02*
X001078Y005174D01*
X001177Y005075D02*
X001523Y005075D01*
X001480Y004977D02*
X001220Y004977D01*
X001240Y004878D02*
X001460Y004878D01*
X001460Y004780D02*
X001240Y004780D01*
X001202Y004681D02*
X001498Y004681D01*
X001566Y004583D02*
X001134Y004583D01*
X001887Y004287D02*
X000300Y004287D01*
X000300Y004189D02*
X001985Y004189D01*
X002084Y004090D02*
X000300Y004090D01*
X000300Y003992D02*
X002182Y003992D01*
X002281Y003893D02*
X000300Y003893D01*
X000300Y003795D02*
X002379Y003795D01*
X002478Y003696D02*
X000300Y003696D01*
X000300Y003598D02*
X002576Y003598D01*
X002675Y003499D02*
X000300Y003499D01*
X000300Y003401D02*
X002773Y003401D01*
X002872Y003302D02*
X000300Y003302D01*
X000300Y003204D02*
X014300Y003204D01*
X014300Y003105D02*
X000300Y003105D01*
X000300Y003007D02*
X014300Y003007D01*
X014300Y002908D02*
X000300Y002908D01*
X003439Y004287D02*
X004087Y004287D01*
X004185Y004189D02*
X003538Y004189D01*
X003636Y004090D02*
X004284Y004090D01*
X004382Y003992D02*
X003735Y003992D01*
X003750Y003750D02*
X002850Y004650D01*
X002850Y004850D01*
X002850Y005850D01*
X003280Y005863D02*
X003420Y005863D01*
X003420Y005765D02*
X003280Y005765D01*
X003239Y005666D02*
X003461Y005666D01*
X003524Y005568D02*
X003176Y005568D01*
X003054Y005469D02*
X003646Y005469D01*
X003690Y005371D02*
X003010Y005371D01*
X003010Y005272D02*
X003690Y005272D01*
X003622Y005174D02*
X003078Y005174D01*
X003177Y005075D02*
X003523Y005075D01*
X003480Y004977D02*
X003220Y004977D01*
X003240Y004878D02*
X003460Y004878D01*
X003460Y004780D02*
X003240Y004780D01*
X003202Y004681D02*
X003498Y004681D01*
X003566Y004583D02*
X003144Y004583D01*
X003242Y004484D02*
X003714Y004484D01*
X003988Y004386D02*
X003341Y004386D01*
X003850Y004750D02*
X004550Y004050D01*
X009950Y004050D01*
X010191Y003992D02*
X010365Y003992D01*
X010464Y004090D02*
X010195Y004090D01*
X010158Y004189D02*
X010562Y004189D01*
X010661Y004287D02*
X010018Y004287D01*
X009882Y004287D02*
X004539Y004287D01*
X004441Y004386D02*
X010759Y004386D01*
X010790Y004484D02*
X009986Y004484D01*
X009928Y004460D02*
X010071Y004519D01*
X010181Y004629D01*
X010240Y004772D01*
X010240Y004928D01*
X010181Y005071D01*
X010071Y005181D01*
X010010Y005206D01*
X010010Y005451D01*
X010094Y005485D01*
X010215Y005606D01*
X010280Y005764D01*
X010280Y005936D01*
X010215Y006094D01*
X010094Y006215D01*
X009936Y006280D01*
X009764Y006280D01*
X009606Y006215D01*
X009485Y006094D01*
X009420Y005936D01*
X009420Y005764D01*
X009485Y005606D01*
X009606Y005485D01*
X009690Y005451D01*
X009690Y005206D01*
X009629Y005181D01*
X009519Y005071D01*
X009460Y004928D01*
X009460Y004772D01*
X009519Y004629D01*
X009629Y004519D01*
X009772Y004460D01*
X009928Y004460D01*
X009714Y004484D02*
X008986Y004484D01*
X008928Y004460D02*
X009071Y004519D01*
X009181Y004629D01*
X009240Y004772D01*
X009240Y004928D01*
X009181Y005071D01*
X009071Y005181D01*
X009010Y005206D01*
X009010Y005451D01*
X009094Y005485D01*
X009215Y005606D01*
X009280Y005764D01*
X009280Y005936D01*
X009215Y006094D01*
X009094Y006215D01*
X008936Y006280D01*
X008764Y006280D01*
X008606Y006215D01*
X008485Y006094D01*
X008420Y005936D01*
X008420Y005764D01*
X008485Y005606D01*
X008606Y005485D01*
X008690Y005451D01*
X008690Y005206D01*
X008629Y005181D01*
X008519Y005071D01*
X008460Y004928D01*
X008460Y004772D01*
X008519Y004629D01*
X008629Y004519D01*
X008772Y004460D01*
X008928Y004460D01*
X008714Y004484D02*
X007986Y004484D01*
X007928Y004460D02*
X008071Y004519D01*
X008181Y004629D01*
X008240Y004772D01*
X008240Y004928D01*
X008181Y005071D01*
X008071Y005181D01*
X008010Y005206D01*
X008010Y005451D01*
X008094Y005485D01*
X008215Y005606D01*
X008280Y005764D01*
X008280Y005936D01*
X008215Y006094D01*
X008094Y006215D01*
X007936Y006280D01*
X007764Y006280D01*
X007606Y006215D01*
X007485Y006094D01*
X007420Y005936D01*
X007420Y005764D01*
X007485Y005606D01*
X007606Y005485D01*
X007690Y005451D01*
X007690Y005206D01*
X007629Y005181D01*
X007519Y005071D01*
X007460Y004928D01*
X007460Y004772D01*
X007519Y004629D01*
X007629Y004519D01*
X007772Y004460D01*
X007928Y004460D01*
X007714Y004484D02*
X006986Y004484D01*
X006928Y004460D02*
X007071Y004519D01*
X007181Y004629D01*
X007240Y004772D01*
X007240Y004928D01*
X007181Y005071D01*
X007071Y005181D01*
X007010Y005206D01*
X007010Y005451D01*
X007094Y005485D01*
X007215Y005606D01*
X007280Y005764D01*
X007280Y005936D01*
X007215Y006094D01*
X007094Y006215D01*
X006936Y006280D01*
X006764Y006280D01*
X006606Y006215D01*
X006485Y006094D01*
X006420Y005936D01*
X006420Y005764D01*
X006485Y005606D01*
X006606Y005485D01*
X006690Y005451D01*
X006690Y005206D01*
X006629Y005181D01*
X006519Y005071D01*
X006460Y004928D01*
X006460Y004772D01*
X006519Y004629D01*
X006629Y004519D01*
X006772Y004460D01*
X006928Y004460D01*
X006714Y004484D02*
X005986Y004484D01*
X005928Y004460D02*
X006071Y004519D01*
X006181Y004629D01*
X006240Y004772D01*
X006240Y004928D01*
X006181Y005071D01*
X006071Y005181D01*
X006010Y005206D01*
X006010Y005451D01*
X006094Y005485D01*
X006215Y005606D01*
X006280Y005764D01*
X006280Y005936D01*
X006215Y006094D01*
X006094Y006215D01*
X005936Y006280D01*
X005764Y006280D01*
X005606Y006215D01*
X005485Y006094D01*
X005420Y005936D01*
X005420Y005764D01*
X005485Y005606D01*
X005606Y005485D01*
X005690Y005451D01*
X005690Y005206D01*
X005629Y005181D01*
X005519Y005071D01*
X005460Y004928D01*
X005460Y004772D01*
X005519Y004629D01*
X005629Y004519D01*
X005772Y004460D01*
X005928Y004460D01*
X005714Y004484D02*
X004986Y004484D01*
X004928Y004460D02*
X005071Y004519D01*
X005181Y004629D01*
X005240Y004772D01*
X005240Y004928D01*
X005181Y005071D01*
X005071Y005181D01*
X005010Y005206D01*
X005010Y005451D01*
X005094Y005485D01*
X005215Y005606D01*
X005280Y005764D01*
X005280Y005936D01*
X005215Y006094D01*
X005094Y006215D01*
X004936Y006280D01*
X004764Y006280D01*
X004606Y006215D01*
X004485Y006094D01*
X004420Y005936D01*
X004420Y005764D01*
X004485Y005606D01*
X004606Y005485D01*
X004690Y005451D01*
X004690Y005206D01*
X004629Y005181D01*
X004519Y005071D01*
X004460Y004928D01*
X004460Y004772D01*
X004519Y004629D01*
X004629Y004519D01*
X004772Y004460D01*
X004928Y004460D01*
X004714Y004484D02*
X004342Y004484D01*
X004244Y004583D02*
X004566Y004583D01*
X004498Y004681D02*
X004202Y004681D01*
X004240Y004780D02*
X004460Y004780D01*
X004460Y004878D02*
X004240Y004878D01*
X004220Y004977D02*
X004480Y004977D01*
X004523Y005075D02*
X004177Y005075D01*
X004078Y005174D02*
X004622Y005174D01*
X004690Y005272D02*
X004010Y005272D01*
X004010Y005371D02*
X004690Y005371D01*
X004646Y005469D02*
X004054Y005469D01*
X004176Y005568D02*
X004524Y005568D01*
X004461Y005666D02*
X004239Y005666D01*
X004280Y005765D02*
X004420Y005765D01*
X004420Y005863D02*
X004280Y005863D01*
X004269Y005962D02*
X004431Y005962D01*
X004472Y006060D02*
X004228Y006060D01*
X004150Y006159D02*
X004550Y006159D01*
X004709Y006257D02*
X003991Y006257D01*
X003709Y006257D02*
X002991Y006257D01*
X003150Y006159D02*
X003550Y006159D01*
X003472Y006060D02*
X003228Y006060D01*
X003269Y005962D02*
X003431Y005962D01*
X003850Y005850D02*
X003850Y004850D01*
X003850Y004750D01*
X004850Y004850D02*
X004850Y005850D01*
X005280Y005863D02*
X005420Y005863D01*
X005420Y005765D02*
X005280Y005765D01*
X005239Y005666D02*
X005461Y005666D01*
X005524Y005568D02*
X005176Y005568D01*
X005054Y005469D02*
X005646Y005469D01*
X005690Y005371D02*
X005010Y005371D01*
X005010Y005272D02*
X005690Y005272D01*
X005622Y005174D02*
X005078Y005174D01*
X005177Y005075D02*
X005523Y005075D01*
X005480Y004977D02*
X005220Y004977D01*
X005240Y004878D02*
X005460Y004878D01*
X005460Y004780D02*
X005240Y004780D01*
X005202Y004681D02*
X005498Y004681D01*
X005566Y004583D02*
X005134Y004583D01*
X005850Y004850D02*
X005850Y005850D01*
X006269Y005962D02*
X006431Y005962D01*
X006420Y005863D02*
X006280Y005863D01*
X006280Y005765D02*
X006420Y005765D01*
X006461Y005666D02*
X006239Y005666D01*
X006176Y005568D02*
X006524Y005568D01*
X006646Y005469D02*
X006054Y005469D01*
X006010Y005371D02*
X006690Y005371D01*
X006690Y005272D02*
X006010Y005272D01*
X006078Y005174D02*
X006622Y005174D01*
X006523Y005075D02*
X006177Y005075D01*
X006220Y004977D02*
X006480Y004977D01*
X006460Y004878D02*
X006240Y004878D01*
X006240Y004780D02*
X006460Y004780D01*
X006498Y004681D02*
X006202Y004681D01*
X006134Y004583D02*
X006566Y004583D01*
X006850Y004850D02*
X006850Y005850D01*
X007280Y005863D02*
X007420Y005863D01*
X007420Y005765D02*
X007280Y005765D01*
X007239Y005666D02*
X007461Y005666D01*
X007524Y005568D02*
X007176Y005568D01*
X007054Y005469D02*
X007646Y005469D01*
X007690Y005371D02*
X007010Y005371D01*
X007010Y005272D02*
X007690Y005272D01*
X007622Y005174D02*
X007078Y005174D01*
X007177Y005075D02*
X007523Y005075D01*
X007480Y004977D02*
X007220Y004977D01*
X007240Y004878D02*
X007460Y004878D01*
X007460Y004780D02*
X007240Y004780D01*
X007202Y004681D02*
X007498Y004681D01*
X007566Y004583D02*
X007134Y004583D01*
X007850Y004850D02*
X007850Y005850D01*
X008280Y005863D02*
X008420Y005863D01*
X008420Y005765D02*
X008280Y005765D01*
X008239Y005666D02*
X008461Y005666D01*
X008524Y005568D02*
X008176Y005568D01*
X008054Y005469D02*
X008646Y005469D01*
X008690Y005371D02*
X008010Y005371D01*
X008010Y005272D02*
X008690Y005272D01*
X008622Y005174D02*
X008078Y005174D01*
X008177Y005075D02*
X008523Y005075D01*
X008480Y004977D02*
X008220Y004977D01*
X008240Y004878D02*
X008460Y004878D01*
X008460Y004780D02*
X008240Y004780D01*
X008202Y004681D02*
X008498Y004681D01*
X008566Y004583D02*
X008134Y004583D01*
X008850Y004850D02*
X008850Y005850D01*
X009280Y005863D02*
X009420Y005863D01*
X009420Y005765D02*
X009280Y005765D01*
X009239Y005666D02*
X009461Y005666D01*
X009524Y005568D02*
X009176Y005568D01*
X009054Y005469D02*
X009646Y005469D01*
X009690Y005371D02*
X009010Y005371D01*
X009010Y005272D02*
X009690Y005272D01*
X009622Y005174D02*
X009078Y005174D01*
X009177Y005075D02*
X009523Y005075D01*
X009480Y004977D02*
X009220Y004977D01*
X009240Y004878D02*
X009460Y004878D01*
X009460Y004780D02*
X009240Y004780D01*
X009202Y004681D02*
X009498Y004681D01*
X009566Y004583D02*
X009134Y004583D01*
X009850Y004850D02*
X009850Y005850D01*
X010280Y005863D02*
X011037Y005863D01*
X011135Y005962D02*
X010269Y005962D01*
X010228Y006060D02*
X011461Y006060D01*
X011536Y006159D02*
X010150Y006159D01*
X009991Y006257D02*
X011683Y006257D01*
X012290Y005765D02*
X012410Y005765D01*
X012450Y005666D02*
X012250Y005666D01*
X012190Y005568D02*
X012510Y005568D01*
X012620Y005469D02*
X012080Y005469D01*
X011981Y005272D02*
X012719Y005272D01*
X012981Y005272D02*
X014300Y005272D01*
X014300Y005174D02*
X013149Y005174D01*
X013233Y005075D02*
X014300Y005075D01*
X014300Y004977D02*
X013274Y004977D01*
X013290Y004878D02*
X014300Y004878D01*
X014300Y004780D02*
X013290Y004780D01*
X013256Y004681D02*
X014300Y004681D01*
X014300Y004583D02*
X013205Y004583D01*
X013106Y004484D02*
X014300Y004484D01*
X014300Y003795D02*
X013327Y003795D01*
X013305Y003696D02*
X014300Y003696D01*
X014300Y003598D02*
X013260Y003598D01*
X013178Y003499D02*
X014300Y003499D01*
X012900Y003499D02*
X012800Y003499D01*
X012800Y003598D02*
X012900Y003598D01*
X012900Y003696D02*
X012800Y003696D01*
X012800Y003795D02*
X012900Y003795D01*
X012800Y003893D02*
X012290Y003893D01*
X012268Y003992D02*
X012391Y003992D01*
X012434Y004090D02*
X012227Y004090D01*
X012134Y004189D02*
X012510Y004189D01*
X012650Y004287D02*
X011945Y004287D01*
X011755Y004287D02*
X011513Y004287D01*
X011159Y004386D02*
X011110Y004386D01*
X011110Y004484D02*
X011258Y004484D01*
X011356Y004583D02*
X011110Y004583D01*
X011110Y004681D02*
X011444Y004681D01*
X011410Y004780D02*
X011110Y004780D01*
X011110Y004878D02*
X011410Y004878D01*
X011426Y004977D02*
X011110Y004977D01*
X011110Y005075D02*
X011467Y005075D01*
X011551Y005174D02*
X011110Y005174D01*
X011110Y005272D02*
X011719Y005272D01*
X011620Y005469D02*
X011110Y005469D01*
X011110Y005371D02*
X014300Y005371D01*
X014300Y005469D02*
X013080Y005469D01*
X013190Y005568D02*
X014300Y005568D01*
X014300Y005666D02*
X013250Y005666D01*
X013290Y005765D02*
X014300Y005765D01*
X014300Y005863D02*
X013290Y005863D01*
X013280Y005962D02*
X014300Y005962D01*
X014228Y006060D02*
X013239Y006060D01*
X013164Y006159D02*
X014129Y006159D01*
X012551Y005174D02*
X012149Y005174D01*
X012233Y005075D02*
X012467Y005075D01*
X012426Y004977D02*
X012274Y004977D01*
X012290Y004878D02*
X012410Y004878D01*
X012410Y004780D02*
X012290Y004780D01*
X010790Y004780D02*
X010240Y004780D01*
X010240Y004878D02*
X010790Y004878D01*
X010790Y004977D02*
X010220Y004977D01*
X010177Y005075D02*
X010790Y005075D01*
X010790Y005174D02*
X010078Y005174D01*
X010010Y005272D02*
X010790Y005272D01*
X010790Y005371D02*
X010010Y005371D01*
X010054Y005469D02*
X010790Y005469D01*
X010790Y005568D02*
X010176Y005568D01*
X010239Y005666D02*
X010840Y005666D01*
X010938Y005765D02*
X010280Y005765D01*
X009550Y006159D02*
X009150Y006159D01*
X009228Y006060D02*
X009472Y006060D01*
X009431Y005962D02*
X009269Y005962D01*
X008991Y006257D02*
X009709Y006257D01*
X008709Y006257D02*
X007991Y006257D01*
X008150Y006159D02*
X008550Y006159D01*
X008472Y006060D02*
X008228Y006060D01*
X008269Y005962D02*
X008431Y005962D01*
X007709Y006257D02*
X006991Y006257D01*
X007150Y006159D02*
X007550Y006159D01*
X007472Y006060D02*
X007228Y006060D01*
X007269Y005962D02*
X007431Y005962D01*
X006709Y006257D02*
X005991Y006257D01*
X006150Y006159D02*
X006550Y006159D01*
X006472Y006060D02*
X006228Y006060D01*
X005709Y006257D02*
X004991Y006257D01*
X005150Y006159D02*
X005550Y006159D01*
X005472Y006060D02*
X005228Y006060D01*
X005269Y005962D02*
X005431Y005962D01*
X002709Y006257D02*
X001991Y006257D01*
X002150Y006159D02*
X002550Y006159D01*
X002472Y006060D02*
X002228Y006060D01*
X002269Y005962D02*
X002431Y005962D01*
X001709Y006257D02*
X000991Y006257D01*
X001150Y006159D02*
X001550Y006159D01*
X001472Y006060D02*
X001228Y006060D01*
X001269Y005962D02*
X001431Y005962D01*
X010134Y004583D02*
X010790Y004583D01*
X010790Y004681D02*
X010202Y004681D01*
X011194Y005568D02*
X011510Y005568D01*
X011450Y005666D02*
X011292Y005666D01*
X012290Y003795D02*
X012373Y003795D01*
X012395Y003696D02*
X012262Y003696D01*
X012220Y003598D02*
X012440Y003598D01*
X012522Y003499D02*
X012121Y003499D01*
D15*
X009950Y004050D03*
X006350Y002650D03*
M02*
