G75*
G70*
%OFA0B0*%
%FSLAX24Y24*%
%IPPOS*%
%LPD*%
%AMOC8*
5,1,8,0,0,1.08239X$1,22.5*
%
%ADD10C,0.0560*%
%ADD11R,0.0680X0.0680*%
%ADD12OC8,0.0680*%
%ADD13R,0.0789X0.0710*%
%ADD14C,0.0789*%
%ADD15R,0.0960X0.0560*%
%ADD16R,0.0946X0.1497*%
%ADD17R,0.0592X0.0671*%
%ADD18R,0.0330X0.0580*%
D10*
X014310Y003955D03*
X014310Y005855D03*
D11*
X002940Y008905D03*
X000940Y003405D03*
X001940Y002405D03*
X002940Y000905D03*
D12*
X000940Y000905D03*
X001940Y000905D03*
X003940Y000905D03*
X004940Y000905D03*
X005940Y000905D03*
X006940Y000905D03*
X007940Y000905D03*
X008940Y000905D03*
X009940Y000905D03*
X010940Y000905D03*
X011940Y000905D03*
X012940Y000905D03*
X013940Y000905D03*
X014940Y000905D03*
X015940Y000905D03*
X016940Y000905D03*
X017940Y000905D03*
X017940Y008905D03*
X016940Y008905D03*
X015940Y008905D03*
X014940Y008905D03*
X013940Y008905D03*
X012940Y008905D03*
X011940Y008905D03*
X010940Y008905D03*
X009940Y008905D03*
X008940Y008905D03*
X007940Y008905D03*
X006940Y008905D03*
X005940Y008905D03*
X004940Y008905D03*
X003940Y008905D03*
X001940Y008905D03*
X000940Y008905D03*
X001940Y007405D03*
X001940Y006405D03*
X000940Y006405D03*
X000940Y005405D03*
X001940Y005405D03*
X001940Y004405D03*
X000940Y004405D03*
X001940Y003405D03*
D13*
X006990Y006654D03*
X008070Y006654D03*
X008070Y007756D03*
X006990Y007756D03*
D14*
X016240Y006283D03*
X016240Y003527D03*
D15*
X007720Y003695D03*
X007720Y004605D03*
X007720Y005515D03*
D16*
X010160Y004605D03*
D17*
X005680Y004805D03*
X004400Y004805D03*
X004400Y003705D03*
X005680Y003705D03*
D18*
X004342Y002655D03*
X003987Y002655D03*
X014830Y004705D03*
X015180Y004705D03*
X015530Y004705D03*
M02*
