G75*
G70*
%OFA0B0*%
%FSLAX24Y24*%
%IPPOS*%
%LPD*%
%AMOC8*
5,1,8,0,0,1.08239X$1,22.5*
%
%ADD10R,0.0600X0.0600*%
%ADD11OC8,0.0600*%
%ADD12C,0.0160*%
%ADD13C,0.0337*%
D10*
X002930Y004500D03*
D11*
X001930Y004500D03*
X000930Y004500D03*
D12*
X000410Y004230D02*
X000410Y007516D01*
X003470Y007516D01*
X003470Y004230D01*
X003410Y004230D01*
X003410Y004480D01*
X002950Y004480D01*
X002950Y004520D01*
X003410Y004520D01*
X003410Y004824D01*
X003398Y004869D01*
X003374Y004911D01*
X003341Y004944D01*
X003299Y004968D01*
X003254Y004980D01*
X002950Y004980D01*
X002950Y004520D01*
X002910Y004520D01*
X002910Y004980D01*
X002606Y004980D01*
X002561Y004968D01*
X002519Y004944D01*
X002486Y004911D01*
X002462Y004869D01*
X002450Y004824D01*
X002450Y004520D01*
X002910Y004520D01*
X002910Y004480D01*
X002450Y004480D01*
X002450Y004230D01*
X002367Y004230D01*
X002430Y004293D01*
X002430Y004707D01*
X002137Y005000D01*
X001723Y005000D01*
X001430Y004707D01*
X001137Y005000D01*
X000723Y005000D01*
X000430Y004707D01*
X000430Y004293D01*
X000493Y004230D01*
X000410Y004230D01*
X000410Y004317D02*
X000430Y004317D01*
X000430Y004476D02*
X000410Y004476D01*
X000410Y004634D02*
X000430Y004634D01*
X000410Y004793D02*
X000515Y004793D01*
X000410Y004951D02*
X000674Y004951D01*
X000410Y005110D02*
X003470Y005110D01*
X003470Y005268D02*
X000410Y005268D01*
X000410Y005427D02*
X003470Y005427D01*
X003470Y005585D02*
X000410Y005585D01*
X000410Y005744D02*
X003470Y005744D01*
X003470Y005902D02*
X000410Y005902D01*
X000410Y006061D02*
X003470Y006061D01*
X003470Y006219D02*
X000410Y006219D01*
X000410Y006378D02*
X003470Y006378D01*
X003470Y006536D02*
X000410Y006536D01*
X000410Y006695D02*
X003470Y006695D01*
X003470Y006853D02*
X000410Y006853D01*
X000410Y007012D02*
X003470Y007012D01*
X003470Y007170D02*
X000410Y007170D01*
X000410Y007329D02*
X003470Y007329D01*
X003470Y007487D02*
X000410Y007487D01*
X001186Y004951D02*
X001674Y004951D01*
X001515Y004793D02*
X001345Y004793D01*
X001430Y004707D02*
X001430Y004293D01*
X001367Y004230D01*
X001493Y004230D01*
X001430Y004293D01*
X001430Y004707D01*
X001430Y004634D02*
X001430Y004634D01*
X001430Y004476D02*
X001430Y004476D01*
X001430Y004317D02*
X001430Y004317D01*
X002186Y004951D02*
X002532Y004951D01*
X002450Y004793D02*
X002345Y004793D01*
X002430Y004634D02*
X002450Y004634D01*
X002450Y004476D02*
X002430Y004476D01*
X002430Y004317D02*
X002450Y004317D01*
X002910Y004634D02*
X002950Y004634D01*
X002950Y004793D02*
X002910Y004793D01*
X002910Y004951D02*
X002950Y004951D01*
X003328Y004951D02*
X003470Y004951D01*
X003470Y004793D02*
X003410Y004793D01*
X003410Y004634D02*
X003470Y004634D01*
X003470Y004476D02*
X003410Y004476D01*
X003410Y004317D02*
X003470Y004317D01*
D13*
X001430Y004900D03*
M02*
