G75*
G70*
%OFA0B0*%
%FSLAX24Y24*%
%IPPOS*%
%LPD*%
%AMOC8*
5,1,8,0,0,1.08239X$1,22.5*
%
%ADD10R,0.0394X0.0433*%
%ADD11R,0.0600X0.0600*%
%ADD12OC8,0.0600*%
%ADD13C,0.1700*%
%ADD14R,0.1900X0.1650*%
%ADD15R,0.0630X0.1180*%
%ADD16C,0.0240*%
%ADD17C,0.0100*%
%ADD18C,0.0270*%
D10*
X008032Y004318D03*
X008671Y004318D03*
X008671Y004987D03*
X008032Y004987D03*
X012500Y004887D03*
X012500Y004218D03*
D11*
X012500Y003352D03*
X008500Y003352D03*
D12*
X008500Y002352D03*
X012500Y002352D03*
D13*
X005894Y003252D03*
X003531Y003252D03*
X004713Y001402D03*
D14*
X010500Y001332D03*
D15*
X011370Y004592D03*
X009610Y004592D03*
D16*
X009215Y004987D01*
X008671Y004987D01*
X008032Y004987D01*
X007628Y004987D01*
X005894Y003252D01*
X011358Y004132D02*
X011358Y004581D01*
X011370Y004592D01*
X012500Y004218D02*
X012500Y003352D01*
D17*
X001900Y005352D02*
X001900Y000352D01*
X012600Y000352D01*
X012678Y000360D01*
X012822Y000420D01*
X012933Y000530D01*
X012992Y000674D01*
X013000Y000752D01*
X013000Y004952D01*
X012992Y005030D01*
X012933Y005174D01*
X012822Y005285D01*
X012678Y005345D01*
X012600Y005352D01*
X001900Y005352D01*
X001900Y005277D02*
X007753Y005277D01*
X007725Y005249D02*
X007725Y005217D01*
X007533Y005217D01*
X006398Y004082D01*
X006085Y004212D01*
X005703Y004212D01*
X005350Y004066D01*
X005080Y003796D01*
X004934Y003443D01*
X004934Y003061D01*
X005080Y002708D01*
X005350Y002438D01*
X005703Y002292D01*
X006085Y002292D01*
X006437Y002438D01*
X006708Y002708D01*
X006854Y003061D01*
X006854Y003443D01*
X006724Y003757D01*
X007724Y004757D01*
X007725Y004757D01*
X007725Y004725D01*
X007776Y004673D01*
X007743Y004654D01*
X007715Y004626D01*
X007695Y004592D01*
X007685Y004554D01*
X007685Y004366D01*
X007983Y004366D01*
X007983Y004269D01*
X007685Y004269D01*
X007685Y004081D01*
X007695Y004043D01*
X007715Y004009D01*
X007743Y003981D01*
X007777Y003961D01*
X007815Y003951D01*
X007983Y003951D01*
X007983Y004269D01*
X008080Y004269D01*
X008080Y003951D01*
X008248Y003951D01*
X008287Y003961D01*
X008321Y003981D01*
X008349Y004009D01*
X008352Y004014D01*
X008354Y004009D01*
X008382Y003981D01*
X008417Y003961D01*
X008455Y003951D01*
X008623Y003951D01*
X008623Y004269D01*
X008720Y004269D01*
X008720Y004366D01*
X009018Y004366D01*
X009018Y004554D01*
X009008Y004592D01*
X008988Y004626D01*
X008960Y004654D01*
X008927Y004673D01*
X008978Y004725D01*
X008978Y004757D01*
X009120Y004757D01*
X009185Y004692D01*
X009185Y003957D01*
X009249Y003892D01*
X009971Y003892D01*
X010035Y003957D01*
X010035Y005228D01*
X009971Y005292D01*
X009249Y005292D01*
X009185Y005228D01*
X009185Y005217D01*
X008978Y005217D01*
X008978Y005249D01*
X008914Y005313D01*
X008429Y005313D01*
X008364Y005249D01*
X008364Y005217D01*
X008339Y005217D01*
X008339Y005249D01*
X008274Y005313D01*
X007789Y005313D01*
X007725Y005249D01*
X007495Y005179D02*
X001900Y005179D01*
X001900Y005080D02*
X007397Y005080D01*
X007298Y004982D02*
X001900Y004982D01*
X001900Y004883D02*
X007200Y004883D01*
X007101Y004785D02*
X001900Y004785D01*
X001900Y004686D02*
X007003Y004686D01*
X006904Y004588D02*
X001900Y004588D01*
X001900Y004489D02*
X006806Y004489D01*
X006707Y004391D02*
X001900Y004391D01*
X001900Y004292D02*
X006609Y004292D01*
X006510Y004194D02*
X006129Y004194D01*
X006367Y004095D02*
X006412Y004095D01*
X006865Y003898D02*
X009243Y003898D01*
X009185Y003997D02*
X008976Y003997D01*
X008988Y004009D02*
X009008Y004043D01*
X009018Y004081D01*
X009018Y004269D01*
X008720Y004269D01*
X008720Y003951D01*
X008888Y003951D01*
X008926Y003961D01*
X008960Y003981D01*
X008988Y004009D01*
X009018Y004095D02*
X009185Y004095D01*
X009185Y004194D02*
X009018Y004194D01*
X009185Y004292D02*
X008720Y004292D01*
X008623Y004292D02*
X008080Y004292D01*
X008080Y004269D02*
X008080Y004366D01*
X008379Y004366D01*
X008623Y004366D01*
X008623Y004269D01*
X008080Y004269D01*
X008080Y004194D02*
X007983Y004194D01*
X007983Y004292D02*
X007259Y004292D01*
X007161Y004194D02*
X007685Y004194D01*
X007685Y004095D02*
X007062Y004095D01*
X006964Y003997D02*
X007727Y003997D01*
X007983Y003997D02*
X008080Y003997D01*
X008080Y004095D02*
X007983Y004095D01*
X008337Y003997D02*
X008366Y003997D01*
X008623Y003997D02*
X008720Y003997D01*
X008720Y004095D02*
X008623Y004095D01*
X008623Y004194D02*
X008720Y004194D01*
X009018Y004391D02*
X009185Y004391D01*
X009185Y004489D02*
X009018Y004489D01*
X009009Y004588D02*
X009185Y004588D01*
X009185Y004686D02*
X008940Y004686D01*
X007763Y004686D02*
X007653Y004686D01*
X007694Y004588D02*
X007555Y004588D01*
X007456Y004489D02*
X007685Y004489D01*
X007685Y004391D02*
X007358Y004391D01*
X006767Y003800D02*
X012270Y003800D01*
X012270Y003762D02*
X012154Y003762D01*
X012090Y003698D01*
X012090Y003007D01*
X012154Y002942D01*
X012846Y002942D01*
X012910Y003007D01*
X012910Y003698D01*
X012846Y003762D01*
X012730Y003762D01*
X012730Y003891D01*
X012742Y003891D01*
X012807Y003956D01*
X012807Y004480D01*
X012756Y004531D01*
X012789Y004550D01*
X012817Y004578D01*
X012837Y004612D01*
X012847Y004651D01*
X012847Y004838D01*
X012548Y004838D01*
X012548Y004935D01*
X012452Y004935D01*
X012452Y005253D01*
X012283Y005253D01*
X012245Y005243D01*
X012211Y005223D01*
X012183Y005196D01*
X012163Y005161D01*
X012153Y005123D01*
X012153Y004935D01*
X012452Y004935D01*
X012452Y004838D01*
X012153Y004838D01*
X012153Y004651D01*
X012163Y004612D01*
X012183Y004578D01*
X012211Y004550D01*
X012244Y004531D01*
X012193Y004480D01*
X012193Y003956D01*
X012258Y003891D01*
X012270Y003891D01*
X012270Y003762D01*
X012094Y003701D02*
X008906Y003701D01*
X008910Y003698D02*
X008846Y003762D01*
X008154Y003762D01*
X008090Y003698D01*
X008090Y003007D01*
X008154Y002942D01*
X008846Y002942D01*
X008910Y003007D01*
X008910Y003698D01*
X008910Y003603D02*
X012090Y003603D01*
X012090Y003504D02*
X008910Y003504D01*
X008910Y003406D02*
X012090Y003406D01*
X012090Y003307D02*
X008910Y003307D01*
X008910Y003209D02*
X012090Y003209D01*
X012090Y003110D02*
X008910Y003110D01*
X008910Y003012D02*
X012090Y003012D01*
X012314Y002802D02*
X012050Y002539D01*
X012050Y002402D01*
X012450Y002402D01*
X012450Y002302D01*
X012550Y002302D01*
X012550Y001902D01*
X012686Y001902D01*
X012950Y002166D01*
X012950Y002302D01*
X012550Y002302D01*
X012550Y002402D01*
X012950Y002402D01*
X012950Y002539D01*
X012686Y002802D01*
X012550Y002802D01*
X012550Y002402D01*
X012450Y002402D01*
X012450Y002802D01*
X012314Y002802D01*
X012228Y002716D02*
X008772Y002716D01*
X008550Y002716D02*
X008450Y002716D01*
X008450Y002802D02*
X008314Y002802D01*
X008050Y002539D01*
X008050Y002402D01*
X008450Y002402D01*
X008450Y002302D01*
X008550Y002302D01*
X008550Y001902D01*
X008686Y001902D01*
X008950Y002166D01*
X008950Y002302D01*
X008550Y002302D01*
X008550Y002402D01*
X008950Y002402D01*
X008950Y002539D01*
X008686Y002802D01*
X008550Y002802D01*
X008550Y002402D01*
X008450Y002402D01*
X008450Y002802D01*
X008228Y002716D02*
X006711Y002716D01*
X006752Y002815D02*
X013000Y002815D01*
X013000Y002913D02*
X006792Y002913D01*
X006833Y003012D02*
X008090Y003012D01*
X008090Y003110D02*
X006854Y003110D01*
X006854Y003209D02*
X008090Y003209D01*
X008090Y003307D02*
X006854Y003307D01*
X006854Y003406D02*
X008090Y003406D01*
X008090Y003504D02*
X006828Y003504D01*
X006788Y003603D02*
X008090Y003603D01*
X008094Y003701D02*
X006747Y003701D01*
X005658Y004194D02*
X003868Y004194D01*
X003915Y004178D02*
X003809Y004215D01*
X003699Y004240D01*
X003588Y004252D01*
X003581Y004252D01*
X003581Y003302D01*
X003481Y003302D01*
X003481Y003202D01*
X002531Y003202D01*
X002531Y003196D01*
X002544Y003084D01*
X002569Y002975D01*
X002606Y002869D01*
X002655Y002768D01*
X002715Y002673D01*
X002785Y002585D01*
X002864Y002505D01*
X002952Y002435D01*
X003047Y002376D01*
X003148Y002327D01*
X003254Y002290D01*
X003364Y002265D01*
X003475Y002252D01*
X003481Y002252D01*
X003481Y003202D01*
X003581Y003202D01*
X003581Y002252D01*
X003588Y002252D01*
X003699Y002265D01*
X003809Y002290D01*
X003915Y002327D01*
X004016Y002376D01*
X004111Y002435D01*
X004199Y002505D01*
X004278Y002585D01*
X004348Y002673D01*
X004408Y002768D01*
X004457Y002869D01*
X004494Y002975D01*
X004519Y003084D01*
X004531Y003196D01*
X004531Y003202D01*
X003582Y003202D01*
X003582Y003302D01*
X004531Y003302D01*
X004531Y003308D01*
X004519Y003420D01*
X004494Y003530D01*
X004457Y003636D01*
X004408Y003737D01*
X004348Y003832D01*
X004278Y003920D01*
X004199Y003999D01*
X004111Y004069D01*
X004016Y004129D01*
X003915Y004178D01*
X004069Y004095D02*
X005421Y004095D01*
X005281Y003997D02*
X004201Y003997D01*
X004295Y003898D02*
X005182Y003898D01*
X005084Y003800D02*
X004368Y003800D01*
X004425Y003701D02*
X005041Y003701D01*
X005000Y003603D02*
X004468Y003603D01*
X004500Y003504D02*
X004959Y003504D01*
X004934Y003406D02*
X004521Y003406D01*
X004531Y003307D02*
X004934Y003307D01*
X004934Y003209D02*
X003582Y003209D01*
X003481Y003209D02*
X001900Y003209D01*
X001900Y003307D02*
X002531Y003307D01*
X002531Y003308D02*
X002531Y003302D01*
X003481Y003302D01*
X003481Y004252D01*
X003475Y004252D01*
X003364Y004240D01*
X003254Y004215D01*
X003148Y004178D01*
X003047Y004129D01*
X002952Y004069D01*
X002864Y003999D01*
X002785Y003920D01*
X002715Y003832D01*
X002655Y003737D01*
X002606Y003636D01*
X002569Y003530D01*
X002544Y003420D01*
X002531Y003308D01*
X002542Y003406D02*
X001900Y003406D01*
X001900Y003504D02*
X002563Y003504D01*
X002595Y003603D02*
X001900Y003603D01*
X001900Y003701D02*
X002638Y003701D01*
X002695Y003800D02*
X001900Y003800D01*
X001900Y003898D02*
X002768Y003898D01*
X002862Y003997D02*
X001900Y003997D01*
X001900Y004095D02*
X002994Y004095D01*
X003195Y004194D02*
X001900Y004194D01*
X003481Y004194D02*
X003581Y004194D01*
X003581Y004095D02*
X003481Y004095D01*
X003481Y003997D02*
X003581Y003997D01*
X003581Y003898D02*
X003481Y003898D01*
X003481Y003800D02*
X003581Y003800D01*
X003581Y003701D02*
X003481Y003701D01*
X003481Y003603D02*
X003581Y003603D01*
X003581Y003504D02*
X003481Y003504D01*
X003481Y003406D02*
X003581Y003406D01*
X003581Y003307D02*
X003481Y003307D01*
X003481Y003110D02*
X003581Y003110D01*
X003581Y003012D02*
X003481Y003012D01*
X003481Y002913D02*
X003581Y002913D01*
X003581Y002815D02*
X003481Y002815D01*
X003481Y002716D02*
X003581Y002716D01*
X003581Y002618D02*
X003481Y002618D01*
X003481Y002519D02*
X003581Y002519D01*
X003581Y002421D02*
X003481Y002421D01*
X003481Y002322D02*
X003581Y002322D01*
X003902Y002322D02*
X004319Y002322D01*
X004329Y002327D02*
X004228Y002278D01*
X004133Y002219D01*
X004045Y002149D01*
X003966Y002069D01*
X003896Y001981D01*
X003836Y001886D01*
X003787Y001785D01*
X003750Y001679D01*
X003725Y001570D01*
X003713Y001458D01*
X003713Y001452D01*
X004663Y001452D01*
X004663Y002402D01*
X004656Y002402D01*
X004545Y002389D01*
X004435Y002364D01*
X004329Y002327D01*
X004141Y002224D02*
X001900Y002224D01*
X001900Y002322D02*
X003161Y002322D01*
X002975Y002421D02*
X001900Y002421D01*
X001900Y002519D02*
X002850Y002519D01*
X002758Y002618D02*
X001900Y002618D01*
X001900Y002716D02*
X002687Y002716D01*
X002632Y002815D02*
X001900Y002815D01*
X001900Y002913D02*
X002591Y002913D01*
X002561Y003012D02*
X001900Y003012D01*
X001900Y003110D02*
X002541Y003110D01*
X004088Y002421D02*
X005392Y002421D01*
X005269Y002519D02*
X004213Y002519D01*
X004305Y002618D02*
X005170Y002618D01*
X005077Y002716D02*
X004376Y002716D01*
X004431Y002815D02*
X005036Y002815D01*
X004995Y002913D02*
X004472Y002913D01*
X004502Y003012D02*
X004954Y003012D01*
X004934Y003110D02*
X004522Y003110D01*
X004763Y002402D02*
X004769Y002402D01*
X004880Y002389D01*
X004990Y002364D01*
X005096Y002327D01*
X005197Y002278D01*
X005292Y002219D01*
X005380Y002149D01*
X005459Y002069D01*
X005529Y001981D01*
X005589Y001886D01*
X005638Y001785D01*
X005675Y001679D01*
X005700Y001570D01*
X005713Y001458D01*
X005713Y001452D01*
X004763Y001452D01*
X004763Y001352D01*
X005713Y001352D01*
X005713Y001346D01*
X005700Y001234D01*
X005675Y001125D01*
X005638Y001019D01*
X005589Y000917D01*
X005529Y000822D01*
X005459Y000734D01*
X005380Y000655D01*
X005292Y000585D01*
X005197Y000525D01*
X005096Y000477D01*
X004990Y000439D01*
X004880Y000414D01*
X004769Y000402D01*
X004763Y000402D01*
X004763Y001352D01*
X004663Y001352D01*
X004663Y000402D01*
X004656Y000402D01*
X004545Y000414D01*
X004435Y000439D01*
X004329Y000477D01*
X004228Y000525D01*
X004133Y000585D01*
X004045Y000655D01*
X003966Y000734D01*
X003896Y000822D01*
X003836Y000917D01*
X003787Y001019D01*
X003750Y001125D01*
X003725Y001234D01*
X003713Y001346D01*
X003713Y001352D01*
X004663Y001352D01*
X004663Y001452D01*
X004763Y001452D01*
X004763Y002402D01*
X004763Y002322D02*
X004663Y002322D01*
X004663Y002224D02*
X004763Y002224D01*
X004763Y002125D02*
X004663Y002125D01*
X004663Y002027D02*
X004763Y002027D01*
X004763Y001928D02*
X004663Y001928D01*
X004663Y001830D02*
X004763Y001830D01*
X004763Y001731D02*
X004663Y001731D01*
X004663Y001633D02*
X004763Y001633D01*
X004763Y001534D02*
X004663Y001534D01*
X004663Y001436D02*
X001900Y001436D01*
X001900Y001534D02*
X003721Y001534D01*
X003740Y001633D02*
X001900Y001633D01*
X001900Y001731D02*
X003768Y001731D01*
X003809Y001830D02*
X001900Y001830D01*
X001900Y001928D02*
X003862Y001928D01*
X003932Y002027D02*
X001900Y002027D01*
X001900Y002125D02*
X004022Y002125D01*
X005106Y002322D02*
X005630Y002322D01*
X005403Y002125D02*
X008090Y002125D01*
X008050Y002166D02*
X008314Y001902D01*
X008450Y001902D01*
X008450Y002302D01*
X008050Y002302D01*
X008050Y002166D01*
X008050Y002224D02*
X005284Y002224D01*
X005493Y002027D02*
X008189Y002027D01*
X008287Y001928D02*
X005563Y001928D01*
X005616Y001830D02*
X009400Y001830D01*
X009400Y001928D02*
X008713Y001928D01*
X008550Y001928D02*
X008450Y001928D01*
X008450Y002027D02*
X008550Y002027D01*
X008811Y002027D02*
X009400Y002027D01*
X009400Y002125D02*
X008910Y002125D01*
X008950Y002224D02*
X009415Y002224D01*
X009410Y002215D02*
X009430Y002249D01*
X009458Y002277D01*
X009492Y002297D01*
X009530Y002307D01*
X010450Y002307D01*
X010450Y001382D01*
X010450Y001282D01*
X010550Y001282D01*
X010550Y000357D01*
X011470Y000357D01*
X011508Y000367D01*
X011542Y000387D01*
X011570Y000415D01*
X011590Y000449D01*
X011600Y000488D01*
X011600Y001282D01*
X010550Y001282D01*
X010550Y001382D01*
X011600Y001382D01*
X011600Y002177D01*
X011590Y002215D01*
X011570Y002249D01*
X011542Y002277D01*
X011508Y002297D01*
X011470Y002307D01*
X010550Y002307D01*
X010550Y001382D01*
X010450Y001382D01*
X009400Y001382D01*
X009400Y002177D01*
X009410Y002215D01*
X008950Y002421D02*
X012050Y002421D01*
X012050Y002519D02*
X008950Y002519D01*
X008871Y002618D02*
X012129Y002618D01*
X012450Y002618D02*
X012550Y002618D01*
X012550Y002519D02*
X012450Y002519D01*
X012450Y002421D02*
X012550Y002421D01*
X012550Y002322D02*
X013000Y002322D01*
X013000Y002224D02*
X012950Y002224D01*
X012910Y002125D02*
X013000Y002125D01*
X013000Y002027D02*
X012811Y002027D01*
X012713Y001928D02*
X013000Y001928D01*
X013000Y001830D02*
X011600Y001830D01*
X011600Y001928D02*
X012287Y001928D01*
X012314Y001902D02*
X012050Y002166D01*
X012050Y002302D01*
X012450Y002302D01*
X012450Y001902D01*
X012314Y001902D01*
X012450Y001928D02*
X012550Y001928D01*
X012550Y002027D02*
X012450Y002027D01*
X012450Y002125D02*
X012550Y002125D01*
X012550Y002224D02*
X012450Y002224D01*
X012450Y002322D02*
X008550Y002322D01*
X008550Y002224D02*
X008450Y002224D01*
X008450Y002322D02*
X006157Y002322D01*
X006395Y002421D02*
X008050Y002421D01*
X008050Y002519D02*
X006519Y002519D01*
X006617Y002618D02*
X008129Y002618D01*
X008450Y002618D02*
X008550Y002618D01*
X008550Y002519D02*
X008450Y002519D01*
X008450Y002421D02*
X008550Y002421D01*
X008550Y002125D02*
X008450Y002125D01*
X009400Y001731D02*
X005657Y001731D01*
X005686Y001633D02*
X009400Y001633D01*
X009400Y001534D02*
X005704Y001534D01*
X005712Y001337D02*
X010450Y001337D01*
X010450Y001282D02*
X009400Y001282D01*
X009400Y000488D01*
X009410Y000449D01*
X009430Y000415D01*
X009458Y000387D01*
X009492Y000367D01*
X009530Y000357D01*
X010450Y000357D01*
X010450Y001282D01*
X010450Y001239D02*
X010550Y001239D01*
X010550Y001337D02*
X013000Y001337D01*
X013000Y001239D02*
X011600Y001239D01*
X011600Y001140D02*
X013000Y001140D01*
X013000Y001042D02*
X011600Y001042D01*
X011600Y000943D02*
X013000Y000943D01*
X013000Y000845D02*
X011600Y000845D01*
X011600Y000746D02*
X012999Y000746D01*
X012981Y000648D02*
X011600Y000648D01*
X011600Y000549D02*
X012941Y000549D01*
X012853Y000451D02*
X011590Y000451D01*
X010550Y000451D02*
X010450Y000451D01*
X010450Y000549D02*
X010550Y000549D01*
X010550Y000648D02*
X010450Y000648D01*
X010450Y000746D02*
X010550Y000746D01*
X010550Y000845D02*
X010450Y000845D01*
X010450Y000943D02*
X010550Y000943D01*
X010550Y001042D02*
X010450Y001042D01*
X010450Y001140D02*
X010550Y001140D01*
X010550Y001436D02*
X010450Y001436D01*
X010450Y001534D02*
X010550Y001534D01*
X010550Y001633D02*
X010450Y001633D01*
X010450Y001731D02*
X010550Y001731D01*
X010550Y001830D02*
X010450Y001830D01*
X010450Y001928D02*
X010550Y001928D01*
X010550Y002027D02*
X010450Y002027D01*
X010450Y002125D02*
X010550Y002125D01*
X010550Y002224D02*
X010450Y002224D01*
X011585Y002224D02*
X012050Y002224D01*
X012090Y002125D02*
X011600Y002125D01*
X011600Y002027D02*
X012189Y002027D01*
X011600Y001731D02*
X013000Y001731D01*
X013000Y001633D02*
X011600Y001633D01*
X011600Y001534D02*
X013000Y001534D01*
X013000Y001436D02*
X011600Y001436D01*
X009400Y001436D02*
X004763Y001436D01*
X004763Y001337D02*
X004663Y001337D01*
X004663Y001239D02*
X004763Y001239D01*
X004763Y001140D02*
X004663Y001140D01*
X004663Y001042D02*
X004763Y001042D01*
X004763Y000943D02*
X004663Y000943D01*
X004663Y000845D02*
X004763Y000845D01*
X004763Y000746D02*
X004663Y000746D01*
X004663Y000648D02*
X004763Y000648D01*
X004763Y000549D02*
X004663Y000549D01*
X004663Y000451D02*
X004763Y000451D01*
X005023Y000451D02*
X009410Y000451D01*
X009400Y000549D02*
X005236Y000549D01*
X005371Y000648D02*
X009400Y000648D01*
X009400Y000746D02*
X005469Y000746D01*
X005544Y000845D02*
X009400Y000845D01*
X009400Y000943D02*
X005602Y000943D01*
X005646Y001042D02*
X009400Y001042D01*
X009400Y001140D02*
X005679Y001140D01*
X005701Y001239D02*
X009400Y001239D01*
X012602Y000352D02*
X001900Y000352D01*
X001900Y000451D02*
X004403Y000451D01*
X004190Y000549D02*
X001900Y000549D01*
X001900Y000648D02*
X004054Y000648D01*
X003956Y000746D02*
X001900Y000746D01*
X001900Y000845D02*
X003882Y000845D01*
X003823Y000943D02*
X001900Y000943D01*
X001900Y001042D02*
X003779Y001042D01*
X003747Y001140D02*
X001900Y001140D01*
X001900Y001239D02*
X003725Y001239D01*
X003714Y001337D02*
X001900Y001337D01*
X009977Y003898D02*
X011003Y003898D01*
X011009Y003892D02*
X011296Y003892D01*
X011310Y003887D01*
X011407Y003887D01*
X011420Y003892D01*
X011731Y003892D01*
X011795Y003957D01*
X011795Y005228D01*
X011731Y005292D01*
X011009Y005292D01*
X010945Y005228D01*
X010945Y003957D01*
X011009Y003892D01*
X010945Y003997D02*
X010035Y003997D01*
X010035Y004095D02*
X010945Y004095D01*
X010945Y004194D02*
X010035Y004194D01*
X010035Y004292D02*
X010945Y004292D01*
X010945Y004391D02*
X010035Y004391D01*
X010035Y004489D02*
X010945Y004489D01*
X010945Y004588D02*
X010035Y004588D01*
X010035Y004686D02*
X010945Y004686D01*
X010945Y004785D02*
X010035Y004785D01*
X010035Y004883D02*
X010945Y004883D01*
X010945Y004982D02*
X010035Y004982D01*
X010035Y005080D02*
X010945Y005080D01*
X010945Y005179D02*
X010035Y005179D01*
X009985Y005277D02*
X010995Y005277D01*
X011745Y005277D02*
X012830Y005277D01*
X012789Y005223D02*
X012755Y005243D01*
X012717Y005253D01*
X012548Y005253D01*
X012548Y004935D01*
X012847Y004935D01*
X012847Y005123D01*
X012837Y005161D01*
X012817Y005196D01*
X012789Y005223D01*
X012826Y005179D02*
X012928Y005179D01*
X012972Y005080D02*
X012847Y005080D01*
X012847Y004982D02*
X012997Y004982D01*
X013000Y004883D02*
X012548Y004883D01*
X012452Y004883D02*
X011795Y004883D01*
X011795Y004785D02*
X012153Y004785D01*
X012153Y004686D02*
X011795Y004686D01*
X011795Y004588D02*
X012178Y004588D01*
X012203Y004489D02*
X011795Y004489D01*
X011795Y004391D02*
X012193Y004391D01*
X012193Y004292D02*
X011795Y004292D01*
X011795Y004194D02*
X012193Y004194D01*
X012193Y004095D02*
X011795Y004095D01*
X011795Y003997D02*
X012193Y003997D01*
X012250Y003898D02*
X011737Y003898D01*
X012730Y003800D02*
X013000Y003800D01*
X013000Y003898D02*
X012750Y003898D01*
X012807Y003997D02*
X013000Y003997D01*
X013000Y004095D02*
X012807Y004095D01*
X012807Y004194D02*
X013000Y004194D01*
X013000Y004292D02*
X012807Y004292D01*
X012807Y004391D02*
X013000Y004391D01*
X013000Y004489D02*
X012797Y004489D01*
X012822Y004588D02*
X013000Y004588D01*
X013000Y004686D02*
X012847Y004686D01*
X012847Y004785D02*
X013000Y004785D01*
X012548Y004982D02*
X012452Y004982D01*
X012452Y005080D02*
X012548Y005080D01*
X012548Y005179D02*
X012452Y005179D01*
X012174Y005179D02*
X011795Y005179D01*
X011795Y005080D02*
X012153Y005080D01*
X012153Y004982D02*
X011795Y004982D01*
X009235Y005277D02*
X008950Y005277D01*
X008393Y005277D02*
X008310Y005277D01*
X012906Y003701D02*
X013000Y003701D01*
X013000Y003603D02*
X012910Y003603D01*
X012910Y003504D02*
X013000Y003504D01*
X013000Y003406D02*
X012910Y003406D01*
X012910Y003307D02*
X013000Y003307D01*
X013000Y003209D02*
X012910Y003209D01*
X012910Y003110D02*
X013000Y003110D01*
X013000Y003012D02*
X012910Y003012D01*
X013000Y002716D02*
X012772Y002716D01*
X012871Y002618D02*
X013000Y002618D01*
X013000Y002519D02*
X012950Y002519D01*
X012950Y002421D02*
X013000Y002421D01*
X012550Y002716D02*
X012450Y002716D01*
D18*
X011358Y004132D03*
M02*
