G75*
G70*
%OFA0B0*%
%FSLAX24Y24*%
%IPPOS*%
%LPD*%
%AMOC8*
5,1,8,0,0,1.08239X$1,22.5*
%
%ADD10C,0.0560*%
%ADD11R,0.0680X0.0680*%
%ADD12OC8,0.0680*%
%ADD13R,0.0789X0.0710*%
%ADD14C,0.0789*%
%ADD15R,0.0960X0.0560*%
%ADD16R,0.0946X0.1497*%
%ADD17R,0.0438X0.0560*%
%ADD18R,0.0330X0.0580*%
D10*
X014320Y003955D03*
X014320Y005855D03*
D11*
X002950Y008905D03*
X000950Y003405D03*
X001950Y002405D03*
X002950Y000905D03*
D12*
X000950Y000905D03*
X001950Y000905D03*
X003950Y000905D03*
X004950Y000905D03*
X005950Y000905D03*
X006950Y000905D03*
X007950Y000905D03*
X008950Y000905D03*
X009950Y000905D03*
X010950Y000905D03*
X011950Y000905D03*
X012950Y000905D03*
X013950Y000905D03*
X014950Y000905D03*
X015950Y000905D03*
X016950Y000905D03*
X017950Y000905D03*
X017950Y008905D03*
X016950Y008905D03*
X015950Y008905D03*
X014950Y008905D03*
X013950Y008905D03*
X012950Y008905D03*
X011950Y008905D03*
X010950Y008905D03*
X009950Y008905D03*
X008950Y008905D03*
X007950Y008905D03*
X006950Y008905D03*
X005950Y008905D03*
X004950Y008905D03*
X003950Y008905D03*
X001950Y008905D03*
X000950Y008905D03*
X001950Y007405D03*
X001950Y006405D03*
X000950Y006405D03*
X000950Y005405D03*
X001950Y005405D03*
X001950Y004405D03*
X000950Y004405D03*
X001950Y003405D03*
D13*
X007000Y006654D03*
X008080Y006654D03*
X008080Y007756D03*
X007000Y007756D03*
D14*
X016250Y006086D03*
X016250Y003724D03*
D15*
X007730Y003695D03*
X007730Y004605D03*
X007730Y005515D03*
D16*
X010170Y004605D03*
D17*
X005690Y004805D03*
X004410Y004805D03*
X004410Y003705D03*
X005690Y003705D03*
D18*
X004627Y002655D03*
X004273Y002655D03*
X014840Y004705D03*
X015190Y004705D03*
X015540Y004705D03*
M02*
