G75*
G70*
%OFA0B0*%
%FSLAX24Y24*%
%IPPOS*%
%LPD*%
%AMOC8*
5,1,8,0,0,1.08239X$1,22.5*
%
%ADD10C,0.0080*%
D10*
X000470Y005040D02*
X001091Y005454D01*
X000987Y005685D02*
X001091Y005788D01*
X001091Y005995D01*
X000987Y006098D01*
X000884Y006098D01*
X000470Y005685D01*
X000470Y006098D01*
X000470Y005454D02*
X001091Y005040D01*
X001670Y005040D02*
X002291Y005454D01*
X002291Y005040D02*
X001670Y005454D01*
X001670Y005685D02*
X001670Y006098D01*
X001670Y005891D02*
X002291Y005891D01*
X002084Y005685D01*
X002620Y005685D02*
X003241Y005685D01*
X002620Y006098D01*
X003241Y006098D01*
X003241Y006329D02*
X003241Y006639D01*
X003137Y006743D01*
X002723Y006743D01*
X002620Y006639D01*
X002620Y006329D01*
X003241Y006329D01*
X003137Y005454D02*
X003241Y005350D01*
X003241Y005143D01*
X003137Y005040D01*
X002723Y005040D01*
X002620Y005143D01*
X002620Y005350D01*
X002723Y005454D01*
X002930Y005454D01*
X002930Y005247D01*
X002621Y007160D02*
X002341Y007160D01*
X002481Y007160D02*
X002481Y007581D01*
X002621Y007441D01*
X002161Y007371D02*
X002161Y007231D01*
X002091Y007160D01*
X001951Y007160D01*
X001881Y007231D01*
X001881Y007301D01*
X001951Y007371D01*
X002161Y007371D01*
X002021Y007511D01*
X001881Y007581D01*
X001701Y007581D02*
X001561Y007441D01*
X001420Y007581D01*
X001420Y007160D01*
X001240Y007160D02*
X001240Y007581D01*
X001240Y007371D02*
X000960Y007371D01*
X000960Y007581D02*
X000960Y007160D01*
X000780Y007160D02*
X000500Y007160D01*
X000780Y007160D02*
X000500Y007441D01*
X000780Y007441D01*
X001701Y007581D02*
X001701Y007160D01*
M02*
