G75*
G70*
%OFA0B0*%
%FSLAX24Y24*%
%IPPOS*%
%LPD*%
%AMOC8*
5,1,8,0,0,1.08239X$1,22.5*
%
%ADD10C,0.0080*%
%ADD11R,0.0128X0.0167*%
%ADD12R,0.0138X0.0138*%
D10*
X001681Y001481D02*
X001681Y005024D01*
X005894Y005024D01*
X005894Y004197D01*
X006740Y004712D02*
X006810Y004642D01*
X006950Y004642D01*
X007200Y004712D02*
X007200Y004852D01*
X007270Y004923D01*
X007411Y004923D01*
X007481Y004852D01*
X007481Y004782D01*
X007200Y004782D01*
X007200Y004712D02*
X007270Y004642D01*
X007411Y004642D01*
X007661Y004642D02*
X007941Y004642D01*
X008121Y004712D02*
X008121Y004852D01*
X008191Y004923D01*
X008331Y004923D01*
X008401Y004852D01*
X008401Y004782D01*
X008121Y004782D01*
X008121Y004712D02*
X008191Y004642D01*
X008331Y004642D01*
X008582Y004712D02*
X008652Y004642D01*
X008792Y004642D01*
X008582Y004712D02*
X008582Y004852D01*
X008652Y004923D01*
X008792Y004923D01*
X008862Y004852D01*
X008862Y004782D01*
X008582Y004782D01*
X007941Y004993D02*
X007941Y005063D01*
X007661Y005063D01*
X007941Y004993D02*
X007661Y004712D01*
X007661Y004642D01*
X008047Y004413D02*
X008154Y004413D01*
X008100Y004413D02*
X008100Y004146D01*
X008047Y004092D01*
X007993Y004092D01*
X007940Y004146D01*
X008308Y004146D02*
X008362Y004092D01*
X008522Y004092D01*
X008522Y004252D01*
X008468Y004306D01*
X008362Y004306D01*
X008362Y004199D02*
X008522Y004199D01*
X008362Y004199D02*
X008308Y004146D01*
X008677Y004146D02*
X008677Y004252D01*
X008730Y004306D01*
X008890Y004306D01*
X009045Y004413D02*
X009045Y004092D01*
X009045Y004199D02*
X009205Y004092D01*
X009352Y004146D02*
X009405Y004092D01*
X009512Y004092D01*
X009352Y004146D02*
X009352Y004252D01*
X009405Y004306D01*
X009512Y004306D01*
X009565Y004252D01*
X009565Y004199D01*
X009352Y004199D01*
X009205Y004306D02*
X009045Y004199D01*
X008890Y004092D02*
X008730Y004092D01*
X008677Y004146D01*
X009720Y004146D02*
X009720Y004252D01*
X009774Y004306D01*
X009934Y004306D01*
X010089Y004252D02*
X010089Y004466D01*
X009934Y004413D02*
X009934Y004092D01*
X009774Y004092D01*
X009720Y004146D01*
X010089Y004146D02*
X010089Y004092D01*
X010033Y004642D02*
X009963Y004712D01*
X009963Y004852D01*
X010033Y004923D01*
X010173Y004923D01*
X010243Y004852D01*
X010243Y004712D01*
X010173Y004642D01*
X010033Y004642D01*
X009783Y004852D02*
X009713Y004782D01*
X009502Y004782D01*
X009502Y004642D02*
X009502Y005063D01*
X009713Y005063D01*
X009783Y004993D01*
X009783Y004852D01*
X010423Y004923D02*
X010423Y004712D01*
X010493Y004642D01*
X010563Y004712D01*
X010633Y004642D01*
X010703Y004712D01*
X010703Y004923D01*
X010884Y004852D02*
X010954Y004923D01*
X011094Y004923D01*
X011164Y004852D01*
X011164Y004782D01*
X010884Y004782D01*
X010884Y004712D02*
X010884Y004852D01*
X010884Y004712D02*
X010954Y004642D01*
X011094Y004642D01*
X011344Y004642D02*
X011344Y004923D01*
X011484Y004923D02*
X011554Y004923D01*
X011484Y004923D02*
X011344Y004782D01*
X010271Y003463D02*
X010131Y003463D01*
X010061Y003393D01*
X010061Y003112D01*
X010131Y003042D01*
X010271Y003042D01*
X010341Y003112D01*
X009881Y003112D02*
X009811Y003042D01*
X009670Y003042D01*
X009600Y003112D01*
X009600Y003393D01*
X009670Y003463D01*
X009811Y003463D01*
X009881Y003393D01*
X010271Y003463D02*
X010341Y003393D01*
X009420Y003463D02*
X009420Y003182D01*
X009280Y003042D01*
X009140Y003182D01*
X009140Y003463D01*
X009210Y002463D02*
X009140Y002393D01*
X009140Y002112D01*
X009210Y002042D01*
X009350Y002042D01*
X009420Y002112D01*
X009420Y002252D01*
X009280Y002252D01*
X009420Y002393D02*
X009350Y002463D01*
X009210Y002463D01*
X009600Y002463D02*
X009881Y002042D01*
X009881Y002463D01*
X010061Y002463D02*
X010271Y002463D01*
X010341Y002393D01*
X010341Y002112D01*
X010271Y002042D01*
X010061Y002042D01*
X010061Y002463D01*
X009600Y002463D02*
X009600Y002042D01*
X009626Y001223D02*
X009626Y000902D01*
X009466Y000742D01*
X009306Y000902D01*
X009306Y001223D01*
X009110Y001223D02*
X008790Y001223D01*
X008790Y000982D01*
X008950Y001063D01*
X009030Y001063D01*
X009110Y000982D01*
X009110Y000822D01*
X009030Y000742D01*
X008870Y000742D01*
X008790Y000822D01*
X010337Y000822D02*
X010417Y000742D01*
X010577Y000742D01*
X010657Y000822D01*
X010657Y000902D01*
X010577Y000982D01*
X010497Y000982D01*
X010577Y000982D02*
X010657Y001063D01*
X010657Y001143D01*
X010577Y001223D01*
X010417Y001223D01*
X010337Y001143D01*
X010853Y000822D02*
X010933Y000822D01*
X010933Y000742D01*
X010853Y000742D01*
X010853Y000822D01*
X011110Y000822D02*
X011190Y000742D01*
X011351Y000742D01*
X011431Y000822D01*
X011431Y000902D01*
X011351Y000982D01*
X011271Y000982D01*
X011351Y000982D02*
X011431Y001063D01*
X011431Y001143D01*
X011351Y001223D01*
X011190Y001223D01*
X011110Y001143D01*
X011626Y001223D02*
X011626Y000902D01*
X011786Y000742D01*
X011946Y000902D01*
X011946Y001223D01*
X005894Y001481D02*
X005618Y001481D01*
X005894Y001481D02*
X005894Y002307D01*
X003768Y001481D02*
X001681Y001481D01*
X006740Y004712D02*
X006740Y004852D01*
X006810Y004923D01*
X006950Y004923D01*
X007020Y004852D01*
X007020Y004782D01*
X006740Y004782D01*
D11*
X007029Y002631D03*
X007571Y002631D03*
D12*
X007300Y002783D03*
M02*
