G75*
G70*
%OFA0B0*%
%FSLAX24Y24*%
%IPPOS*%
%LPD*%
%AMOC8*
5,1,8,0,0,1.08239X$1,22.5*
%
%ADD10C,0.0080*%
%ADD11C,0.0137*%
%ADD12C,0.0091*%
%ADD13C,0.0114*%
%ADD14C,0.0100*%
D10*
X001527Y000440D02*
X001527Y000650D01*
X001597Y000720D01*
X001667Y000650D01*
X001667Y000440D01*
X001808Y000440D02*
X001808Y000720D01*
X001737Y000720D01*
X001667Y000650D01*
X001988Y000650D02*
X001988Y000510D01*
X002058Y000440D01*
X002198Y000440D01*
X002268Y000510D01*
X002268Y000650D01*
X002198Y000720D01*
X002058Y000720D01*
X001988Y000650D01*
X002448Y000720D02*
X002658Y000720D01*
X002728Y000650D01*
X002728Y000510D01*
X002658Y000440D01*
X002448Y000440D01*
X002888Y000440D02*
X002959Y000440D01*
X002959Y000510D01*
X002888Y000510D01*
X002888Y000440D01*
X003139Y000510D02*
X003209Y000580D01*
X003349Y000580D01*
X003419Y000650D01*
X003349Y000720D01*
X003139Y000720D01*
X003139Y000510D02*
X003209Y000440D01*
X003419Y000440D01*
X003586Y000440D02*
X003656Y000510D01*
X003656Y000790D01*
X003726Y000720D02*
X003586Y000720D01*
X003906Y000650D02*
X003906Y000440D01*
X004186Y000440D02*
X004186Y000860D01*
X004116Y000720D02*
X003976Y000720D01*
X003906Y000650D01*
X004116Y000720D02*
X004186Y000650D01*
X004366Y000720D02*
X004577Y000720D01*
X004647Y000650D01*
X004647Y000510D01*
X004577Y000440D01*
X004366Y000440D01*
X004366Y000370D02*
X004366Y000720D01*
X004827Y000720D02*
X004827Y000440D01*
X005037Y000440D01*
X005107Y000510D01*
X005107Y000720D01*
X005287Y000650D02*
X005357Y000720D01*
X005497Y000720D01*
X005567Y000650D01*
X005567Y000510D01*
X005497Y000440D01*
X005357Y000440D01*
X005287Y000510D01*
X005287Y000650D01*
X005748Y000650D02*
X005748Y000440D01*
X006028Y000440D02*
X006028Y000860D01*
X006265Y000790D02*
X006265Y000510D01*
X006195Y000440D01*
X006028Y000650D02*
X005958Y000720D01*
X005818Y000720D01*
X005748Y000650D01*
X006195Y000720D02*
X006335Y000720D01*
X006515Y000650D02*
X006795Y000650D01*
X006962Y000720D02*
X007102Y000720D01*
X007032Y000790D02*
X007032Y000510D01*
X006962Y000440D01*
X007282Y000510D02*
X007282Y000650D01*
X007352Y000720D01*
X007492Y000720D01*
X007562Y000650D01*
X007562Y000510D01*
X007492Y000440D01*
X007352Y000440D01*
X007282Y000510D01*
X007743Y000510D02*
X007743Y000650D01*
X007813Y000720D01*
X008023Y000720D01*
X007907Y000967D02*
X007941Y000982D01*
X007977Y000993D01*
X008014Y001000D01*
X008051Y001004D01*
X008088Y001003D01*
X008125Y000999D01*
X008161Y000991D01*
X008197Y000979D01*
X008230Y000963D01*
X008262Y000944D01*
X008292Y000922D01*
X008320Y000897D01*
X008344Y000869D01*
X008366Y000838D01*
X008384Y000806D01*
X008399Y000772D01*
X008410Y000736D01*
X008417Y000699D01*
X008421Y000662D01*
X008420Y000625D01*
X008429Y000663D01*
X008442Y000699D01*
X008459Y000735D01*
X008479Y000768D01*
X008502Y000799D01*
X008528Y000828D01*
X008557Y000855D01*
X008588Y000878D01*
X008622Y000898D01*
X008657Y000915D01*
X008693Y000928D01*
X008731Y000938D01*
X008770Y000944D01*
X008809Y000946D01*
X008848Y000944D01*
X008886Y000939D01*
X008924Y000930D01*
X008961Y000917D01*
X008996Y000900D01*
X009030Y000881D01*
X009061Y000858D01*
X009090Y000832D01*
X009117Y000803D01*
X009140Y000772D01*
X009161Y000739D01*
X009160Y000738D02*
X009138Y000773D01*
X009119Y000809D01*
X009103Y000847D01*
X009091Y000886D01*
X009081Y000926D01*
X009076Y000967D01*
X009074Y001008D01*
X009076Y001049D01*
X009081Y001090D01*
X009090Y001130D01*
X009102Y001169D01*
X009117Y001207D01*
X009136Y001244D01*
X009158Y001279D01*
X009183Y001311D01*
X009211Y001342D01*
X009241Y001370D01*
X009273Y001395D01*
X009308Y001417D01*
X009344Y001436D01*
X009382Y001452D01*
X009421Y001464D01*
X009461Y001474D01*
X009502Y001479D01*
X008989Y001650D02*
X008932Y001650D01*
X007965Y001479D02*
X007951Y001535D01*
X007941Y001592D01*
X007935Y001649D01*
X007931Y001706D01*
X007931Y001764D01*
X007935Y001821D01*
X007941Y001878D01*
X007951Y001935D01*
X007965Y001991D01*
X007964Y001992D02*
X008078Y002049D01*
X008212Y001935D02*
X008214Y001961D01*
X008220Y001986D01*
X008229Y002010D01*
X008242Y002033D01*
X008258Y002053D01*
X008278Y002071D01*
X008299Y002086D01*
X008322Y002097D01*
X008347Y002105D01*
X008373Y002109D01*
X008399Y002109D01*
X008425Y002105D01*
X008450Y002097D01*
X008473Y002086D01*
X008494Y002071D01*
X008514Y002053D01*
X008530Y002033D01*
X008543Y002010D01*
X008552Y001986D01*
X008558Y001961D01*
X008560Y001935D01*
X008558Y001909D01*
X008552Y001884D01*
X008543Y001860D01*
X008530Y001837D01*
X008514Y001817D01*
X008494Y001799D01*
X008473Y001784D01*
X008450Y001773D01*
X008425Y001765D01*
X008399Y001761D01*
X008373Y001761D01*
X008347Y001765D01*
X008322Y001773D01*
X008299Y001784D01*
X008278Y001799D01*
X008258Y001817D01*
X008242Y001837D01*
X008229Y001860D01*
X008220Y001884D01*
X008214Y001909D01*
X008212Y001935D01*
X008363Y002220D02*
X007793Y002220D01*
X007793Y001080D01*
X008363Y001080D01*
X008023Y000860D02*
X008023Y000440D01*
X007813Y000440D01*
X007743Y000510D01*
X008135Y001365D02*
X007964Y001479D01*
X008363Y002220D02*
X008408Y002218D01*
X008452Y002213D01*
X008496Y002204D01*
X008539Y002192D01*
X008581Y002177D01*
X008622Y002158D01*
X008661Y002136D01*
X008698Y002111D01*
X008733Y002083D01*
X008766Y002053D01*
X008796Y002020D01*
X008824Y001985D01*
X008849Y001948D01*
X008871Y001909D01*
X008890Y001868D01*
X008905Y001826D01*
X008917Y001783D01*
X008926Y001739D01*
X008931Y001695D01*
X008933Y001650D01*
X008135Y001365D02*
X008113Y001431D01*
X008095Y001498D01*
X008080Y001566D01*
X008069Y001634D01*
X008062Y001703D01*
X008058Y001772D01*
X008057Y001842D01*
X008061Y001911D01*
X008068Y001980D01*
X008078Y002048D01*
X008933Y001650D02*
X008931Y001605D01*
X008926Y001561D01*
X008917Y001517D01*
X008905Y001474D01*
X008890Y001432D01*
X008871Y001391D01*
X008849Y001352D01*
X008824Y001315D01*
X008796Y001280D01*
X008766Y001247D01*
X008733Y001217D01*
X008698Y001189D01*
X008661Y001164D01*
X008622Y001142D01*
X008581Y001123D01*
X008539Y001108D01*
X008496Y001096D01*
X008452Y001087D01*
X008408Y001082D01*
X008363Y001080D01*
X008192Y001536D02*
X008194Y001566D01*
X008200Y001595D01*
X008209Y001623D01*
X008223Y001650D01*
X008239Y001675D01*
X008259Y001697D01*
X008281Y001717D01*
X008306Y001733D01*
X008333Y001747D01*
X008361Y001756D01*
X008390Y001762D01*
X008420Y001764D01*
X008450Y001762D01*
X008479Y001756D01*
X008507Y001747D01*
X008534Y001733D01*
X008559Y001717D01*
X008581Y001697D01*
X008601Y001675D01*
X008617Y001650D01*
X008631Y001623D01*
X008640Y001595D01*
X008646Y001566D01*
X008648Y001536D01*
X008646Y001506D01*
X008640Y001477D01*
X008631Y001449D01*
X008617Y001422D01*
X008601Y001397D01*
X008581Y001375D01*
X008559Y001355D01*
X008534Y001339D01*
X008507Y001325D01*
X008479Y001316D01*
X008450Y001310D01*
X008420Y001308D01*
X008390Y001310D01*
X008361Y001316D01*
X008333Y001325D01*
X008306Y001339D01*
X008281Y001355D01*
X008259Y001375D01*
X008239Y001397D01*
X008223Y001422D01*
X008209Y001449D01*
X008200Y001477D01*
X008194Y001506D01*
X008192Y001536D01*
X009502Y001478D02*
X009466Y001494D01*
X009432Y001514D01*
X009399Y001536D01*
X009369Y001561D01*
X009341Y001589D01*
X009315Y001619D01*
X009293Y001651D01*
X009273Y001685D01*
X009257Y001721D01*
X009244Y001758D01*
X009234Y001797D01*
X009228Y001836D01*
X009226Y001875D01*
X009227Y001914D01*
X009232Y001954D01*
X009240Y001992D01*
X009252Y002030D01*
X009267Y002066D01*
X009285Y002101D01*
X009307Y002134D01*
X009331Y002165D01*
X009358Y002194D01*
X009388Y002220D01*
X009388Y002219D02*
X009356Y002201D01*
X009322Y002187D01*
X009287Y002176D01*
X009251Y002169D01*
X009214Y002166D01*
X009177Y002167D01*
X009141Y002172D01*
X009105Y002180D01*
X009071Y002193D01*
X009038Y002209D01*
X009006Y002228D01*
X008977Y002251D01*
X008951Y002276D01*
X008927Y002304D01*
X008907Y002335D01*
X008890Y002367D01*
X008876Y002401D01*
X008866Y002437D01*
X008860Y002473D01*
X008858Y002510D01*
X008860Y002546D01*
X008865Y002583D01*
X008875Y002618D01*
X008876Y002618D02*
X008862Y002587D01*
X008846Y002558D01*
X008826Y002531D01*
X008804Y002506D01*
X008778Y002484D01*
X008751Y002465D01*
X008721Y002448D01*
X008690Y002436D01*
X008658Y002426D01*
X008625Y002421D01*
X008591Y002419D01*
X008557Y002421D01*
X008524Y002426D01*
X008492Y002436D01*
X008461Y002448D01*
X008431Y002465D01*
X008404Y002484D01*
X008378Y002506D01*
X008356Y002531D01*
X008336Y002558D01*
X008320Y002587D01*
X008306Y002618D01*
X008308Y002587D01*
X008306Y002555D01*
X008301Y002524D01*
X008291Y002494D01*
X008279Y002465D01*
X008263Y002438D01*
X008244Y002412D01*
X008223Y002390D01*
X008198Y002369D01*
X008172Y002352D01*
X008144Y002338D01*
X008114Y002327D01*
X008084Y002320D01*
X008052Y002316D01*
X008021Y002316D01*
X007989Y002320D01*
X007959Y002328D01*
X007929Y002338D01*
X007901Y002353D01*
X007875Y002370D01*
X007851Y002390D01*
X005393Y002310D02*
X005393Y002230D01*
X005353Y002190D01*
X005193Y002190D01*
X005153Y002230D01*
X005153Y002310D01*
X005193Y002350D01*
X005153Y002485D02*
X005153Y002645D01*
X005153Y002565D02*
X005393Y002565D01*
X005313Y002485D01*
X005353Y002350D02*
X005393Y002310D01*
X004893Y002310D02*
X004893Y002230D01*
X004853Y002190D01*
X004693Y002190D01*
X004653Y002230D01*
X004653Y002310D01*
X004693Y002350D01*
X004853Y002350D02*
X004893Y002310D01*
X004853Y002485D02*
X004893Y002525D01*
X004893Y002605D01*
X004853Y002645D01*
X004813Y002645D01*
X004773Y002605D01*
X004733Y002645D01*
X004693Y002645D01*
X004653Y002605D01*
X004653Y002525D01*
X004693Y002485D01*
X004773Y002565D02*
X004773Y002605D01*
X003313Y001360D02*
X003313Y003940D01*
X002013Y003940D01*
X002013Y001360D01*
X003313Y001360D01*
X001798Y001455D02*
X001758Y001415D01*
X001678Y001415D01*
X001638Y001455D01*
X001638Y001655D01*
X001798Y001655D02*
X001798Y001455D01*
X001503Y001415D02*
X001343Y001415D01*
X001423Y001415D02*
X001423Y001655D01*
X001503Y001575D01*
X004366Y000370D02*
X004436Y000300D01*
X004507Y000300D01*
X004015Y004340D02*
X004015Y004760D01*
X003805Y004760D01*
X003735Y004690D01*
X003735Y004550D01*
X003805Y004480D01*
X004015Y004480D01*
X003875Y004480D02*
X003735Y004340D01*
X003555Y004410D02*
X003555Y004550D01*
X003485Y004620D01*
X003345Y004620D01*
X003275Y004550D01*
X003275Y004480D01*
X003555Y004480D01*
X003555Y004410D02*
X003485Y004340D01*
X003345Y004340D01*
X003095Y004620D02*
X002954Y004340D01*
X002814Y004620D01*
X002174Y004690D02*
X002174Y004410D01*
X001894Y004690D01*
X001894Y004410D01*
X001964Y004340D01*
X002104Y004340D01*
X002174Y004410D01*
X001713Y004410D02*
X001713Y004340D01*
X001643Y004340D01*
X001643Y004410D01*
X001713Y004410D01*
X001483Y004340D02*
X001203Y004340D01*
X001343Y004340D02*
X001343Y004760D01*
X001483Y004620D01*
X001894Y004690D02*
X001964Y004760D01*
X002104Y004760D01*
X002174Y004690D01*
D11*
X008431Y001479D02*
X008433Y001495D01*
X008438Y001511D01*
X008447Y001525D01*
X008459Y001537D01*
X008473Y001546D01*
X008489Y001551D01*
X008505Y001553D01*
X008521Y001551D01*
X008537Y001546D01*
X008551Y001537D01*
X008563Y001525D01*
X008572Y001511D01*
X008577Y001495D01*
X008579Y001479D01*
X008577Y001463D01*
X008572Y001447D01*
X008563Y001433D01*
X008551Y001421D01*
X008537Y001412D01*
X008521Y001407D01*
X008505Y001405D01*
X008489Y001407D01*
X008473Y001412D01*
X008459Y001421D01*
X008447Y001433D01*
X008438Y001447D01*
X008433Y001463D01*
X008431Y001479D01*
D12*
X008397Y001878D02*
X008399Y001891D01*
X008404Y001903D01*
X008413Y001913D01*
X008424Y001920D01*
X008436Y001924D01*
X008450Y001924D01*
X008462Y001920D01*
X008473Y001913D01*
X008482Y001903D01*
X008487Y001891D01*
X008489Y001878D01*
X008487Y001865D01*
X008482Y001853D01*
X008473Y001843D01*
X008462Y001836D01*
X008450Y001832D01*
X008436Y001832D01*
X008424Y001836D01*
X008413Y001843D01*
X008404Y001853D01*
X008399Y001865D01*
X008397Y001878D01*
D13*
X008989Y001650D02*
X008991Y001665D01*
X008997Y001678D01*
X009006Y001690D01*
X009017Y001699D01*
X009031Y001705D01*
X009046Y001707D01*
X009061Y001705D01*
X009074Y001699D01*
X009086Y001690D01*
X009095Y001679D01*
X009101Y001665D01*
X009103Y001650D01*
X009101Y001635D01*
X009095Y001622D01*
X009086Y001610D01*
X009075Y001601D01*
X009061Y001595D01*
X009046Y001593D01*
X009031Y001595D01*
X009018Y001601D01*
X009006Y001610D01*
X008997Y001621D01*
X008991Y001635D01*
X008989Y001650D01*
D14*
X008635Y002857D02*
X008391Y002857D01*
X008358Y003180D01*
X008250Y003215D01*
X008149Y003267D01*
X007897Y003062D01*
X007725Y003234D01*
X007930Y003486D01*
X007878Y003587D01*
X008224Y003730D01*
X008253Y003676D01*
X008292Y003629D01*
X008339Y003590D01*
X008393Y003561D01*
X008452Y003544D01*
X008513Y003538D01*
X008577Y003544D01*
X008638Y003564D01*
X008694Y003595D01*
X008742Y003637D01*
X008780Y003689D01*
X008808Y003747D01*
X008823Y003809D01*
X008824Y003873D01*
X008813Y003937D01*
X008789Y003996D01*
X008753Y004049D01*
X008708Y004094D01*
X008654Y004129D01*
X008594Y004152D01*
X008530Y004162D01*
X008466Y004159D01*
X008404Y004143D01*
X008347Y004115D01*
X008296Y004075D01*
X008255Y004026D01*
X008224Y003970D01*
X007878Y004113D01*
X007930Y004214D01*
X007725Y004466D01*
X007897Y004638D01*
X008149Y004433D01*
X008250Y004485D01*
X008358Y004520D01*
X008391Y004843D01*
X008635Y004843D01*
X008667Y004520D01*
X008776Y004485D01*
X008877Y004433D01*
X009128Y004638D01*
X009301Y004466D01*
X009096Y004214D01*
X009148Y004113D01*
X009183Y004005D01*
X009505Y003972D01*
X009505Y003728D01*
X009183Y003695D01*
X009148Y003587D01*
X009096Y003486D01*
X009301Y003234D01*
X009128Y003062D01*
X008877Y003267D01*
X008776Y003215D01*
X008667Y003180D01*
X008635Y002857D01*
X008640Y002908D02*
X008386Y002908D01*
X008376Y003007D02*
X008650Y003007D01*
X008660Y003105D02*
X008366Y003105D01*
X008285Y003204D02*
X008741Y003204D01*
X008955Y003204D02*
X009270Y003204D01*
X009246Y003302D02*
X007780Y003302D01*
X007756Y003204D02*
X008071Y003204D01*
X007950Y003105D02*
X007854Y003105D01*
X007860Y003401D02*
X009165Y003401D01*
X009103Y003499D02*
X007923Y003499D01*
X007903Y003598D02*
X008330Y003598D01*
X008243Y003696D02*
X008141Y003696D01*
X008696Y003598D02*
X009151Y003598D01*
X009189Y003696D02*
X008784Y003696D01*
X008819Y003795D02*
X009505Y003795D01*
X009505Y003893D02*
X008821Y003893D01*
X008791Y003992D02*
X009312Y003992D01*
X009155Y004090D02*
X008712Y004090D01*
X008315Y004090D02*
X007933Y004090D01*
X007917Y004189D02*
X009109Y004189D01*
X009155Y004287D02*
X007871Y004287D01*
X007790Y004386D02*
X009235Y004386D01*
X009282Y004484D02*
X008940Y004484D01*
X008778Y004484D02*
X008247Y004484D01*
X008086Y004484D02*
X007743Y004484D01*
X007842Y004583D02*
X007965Y004583D01*
X008365Y004583D02*
X008661Y004583D01*
X008651Y004681D02*
X008375Y004681D01*
X008385Y004780D02*
X008641Y004780D01*
X009060Y004583D02*
X009184Y004583D01*
X008236Y003992D02*
X008171Y003992D01*
X009076Y003105D02*
X009172Y003105D01*
M02*
