G75*
G70*
%OFA0B0*%
%FSLAX24Y24*%
%IPPOS*%
%LPD*%
%AMOC8*
5,1,8,0,0,1.08239X$1,22.5*
%
%ADD10R,0.0600X0.0600*%
%ADD11OC8,0.0600*%
%ADD12R,0.0571X0.0787*%
%ADD13R,0.0315X0.0591*%
%ADD14C,0.0337*%
%ADD15C,0.0100*%
D10*
X001160Y001500D03*
X004160Y004500D03*
X005660Y004500D03*
X006160Y001500D03*
D11*
X007160Y001500D03*
X005660Y005500D03*
X004160Y005500D03*
X004160Y001500D03*
X003160Y001500D03*
X002160Y001500D03*
D12*
X001521Y007613D03*
X001521Y010900D03*
X006860Y010900D03*
X006860Y007613D03*
D13*
X005923Y009876D03*
X005490Y009876D03*
X005057Y009876D03*
X004624Y009876D03*
X004191Y009876D03*
X003758Y009876D03*
X003325Y009876D03*
X002891Y009876D03*
D14*
X004191Y009269D03*
X003110Y007900D03*
X001760Y004500D03*
X001560Y003250D03*
D15*
X000360Y000700D02*
X000360Y011796D01*
X007930Y011796D01*
X007930Y000700D01*
X000360Y000700D01*
X000360Y000796D02*
X007930Y000796D01*
X007930Y000894D02*
X000360Y000894D01*
X000360Y000993D02*
X007930Y000993D01*
X007930Y001091D02*
X007387Y001091D01*
X007346Y001050D02*
X007610Y001314D01*
X007610Y001450D01*
X007210Y001450D01*
X007210Y001550D01*
X007610Y001550D01*
X007610Y001686D01*
X007346Y001950D01*
X007210Y001950D01*
X007210Y001550D01*
X007110Y001550D01*
X007110Y001950D01*
X006974Y001950D01*
X006710Y001686D01*
X006710Y001550D01*
X007110Y001550D01*
X007110Y001450D01*
X007210Y001450D01*
X007210Y001050D01*
X007346Y001050D01*
X007486Y001190D02*
X007930Y001190D01*
X007930Y001288D02*
X007584Y001288D01*
X007610Y001387D02*
X007930Y001387D01*
X007930Y001485D02*
X007210Y001485D01*
X007210Y001387D02*
X007110Y001387D01*
X007110Y001450D02*
X007110Y001050D01*
X006974Y001050D01*
X006710Y001314D01*
X006710Y001450D01*
X007110Y001450D01*
X007110Y001485D02*
X006570Y001485D01*
X006570Y001387D02*
X006710Y001387D01*
X006736Y001288D02*
X006570Y001288D01*
X006570Y001190D02*
X006834Y001190D01*
X006933Y001091D02*
X006507Y001091D01*
X006506Y001090D02*
X006570Y001154D01*
X006570Y001846D01*
X006506Y001910D01*
X005814Y001910D01*
X005750Y001846D01*
X005750Y001154D01*
X005814Y001090D01*
X006506Y001090D01*
X006570Y001584D02*
X006710Y001584D01*
X006710Y001682D02*
X006570Y001682D01*
X006570Y001781D02*
X006804Y001781D01*
X006903Y001879D02*
X006537Y001879D01*
X007110Y001879D02*
X007210Y001879D01*
X007210Y001781D02*
X007110Y001781D01*
X007110Y001682D02*
X007210Y001682D01*
X007210Y001584D02*
X007110Y001584D01*
X007110Y001288D02*
X007210Y001288D01*
X007210Y001190D02*
X007110Y001190D01*
X007110Y001091D02*
X007210Y001091D01*
X007610Y001584D02*
X007930Y001584D01*
X007930Y001682D02*
X007610Y001682D01*
X007516Y001781D02*
X007930Y001781D01*
X007930Y001879D02*
X007417Y001879D01*
X007930Y001978D02*
X002864Y001978D01*
X002959Y001879D02*
X002765Y001879D01*
X002861Y001781D02*
X002667Y001781D01*
X002762Y001682D02*
X002568Y001682D01*
X002563Y001677D02*
X005020Y004134D01*
X005020Y005734D01*
X005650Y006364D01*
X005650Y009471D01*
X005693Y009471D01*
X005706Y009485D01*
X005720Y009471D01*
X006126Y009471D01*
X006190Y009536D01*
X006190Y010217D01*
X006126Y010282D01*
X005720Y010282D01*
X005706Y010268D01*
X005693Y010282D01*
X005316Y010282D01*
X005306Y010292D01*
X005272Y010311D01*
X005234Y010322D01*
X005086Y010322D01*
X005086Y009905D01*
X005028Y009905D01*
X005028Y010322D01*
X004880Y010322D01*
X004841Y010311D01*
X004807Y010292D01*
X004797Y010282D01*
X004421Y010282D01*
X004407Y010268D01*
X004394Y010282D01*
X003988Y010282D01*
X003974Y010268D01*
X003961Y010282D01*
X003555Y010282D01*
X003541Y010268D01*
X003528Y010282D01*
X003122Y010282D01*
X003108Y010268D01*
X003095Y010282D01*
X002688Y010282D01*
X002624Y010217D01*
X002624Y009536D01*
X002688Y009471D01*
X003095Y009471D01*
X003108Y009485D01*
X003122Y009471D01*
X003165Y009471D01*
X003165Y008181D01*
X003162Y008178D01*
X003055Y008178D01*
X002952Y008136D01*
X002874Y008058D01*
X002832Y007955D01*
X002832Y007845D01*
X002874Y007742D01*
X002952Y007664D01*
X003055Y007622D01*
X003165Y007622D01*
X003268Y007664D01*
X003346Y007742D01*
X003388Y007845D01*
X003388Y007952D01*
X003391Y007955D01*
X003485Y008048D01*
X003485Y009471D01*
X003528Y009471D01*
X003541Y009485D01*
X003555Y009471D01*
X003600Y009471D01*
X003600Y007966D01*
X001600Y005966D01*
X001600Y004734D01*
X001524Y004658D01*
X001482Y004555D01*
X001482Y004445D01*
X001524Y004342D01*
X001602Y004264D01*
X001705Y004222D01*
X001815Y004222D01*
X001918Y004264D01*
X001996Y004342D01*
X002038Y004445D01*
X002038Y004555D01*
X001996Y004658D01*
X001920Y004734D01*
X001920Y005834D01*
X003826Y007740D01*
X003920Y007834D01*
X003920Y009195D01*
X003955Y009112D01*
X004033Y009033D01*
X004135Y008991D01*
X004246Y008991D01*
X004348Y009033D01*
X004427Y009112D01*
X004464Y009201D01*
X004464Y008230D01*
X002494Y006260D01*
X002400Y006166D01*
X002400Y004266D01*
X001648Y003515D01*
X001615Y003528D01*
X001505Y003528D01*
X001402Y003486D01*
X001324Y003408D01*
X001282Y003305D01*
X001282Y003195D01*
X001324Y003092D01*
X001402Y003014D01*
X001505Y002972D01*
X001615Y002972D01*
X001718Y003014D01*
X001796Y003092D01*
X001838Y003195D01*
X001838Y003252D01*
X002626Y004040D01*
X002720Y004134D01*
X002720Y006034D01*
X004784Y008098D01*
X004784Y009471D01*
X004797Y009471D01*
X004807Y009461D01*
X004841Y009441D01*
X004880Y009431D01*
X005028Y009431D01*
X005028Y009848D01*
X005086Y009848D01*
X005086Y009431D01*
X005234Y009431D01*
X005272Y009441D01*
X005306Y009461D01*
X005316Y009471D01*
X005330Y009471D01*
X005330Y006496D01*
X004794Y005960D01*
X004700Y005866D01*
X004700Y004266D01*
X002337Y001903D01*
X002330Y001910D01*
X001990Y001910D01*
X001750Y001670D01*
X001750Y001330D01*
X001990Y001090D01*
X002330Y001090D01*
X002570Y001330D01*
X002570Y001670D01*
X002563Y001677D01*
X002570Y001584D02*
X002750Y001584D01*
X002750Y001670D02*
X002750Y001330D01*
X002990Y001090D01*
X003330Y001090D01*
X003570Y001330D01*
X003570Y001670D01*
X003330Y001910D01*
X002990Y001910D01*
X002750Y001670D01*
X002750Y001485D02*
X002570Y001485D01*
X002570Y001387D02*
X002750Y001387D01*
X002792Y001288D02*
X002528Y001288D01*
X002429Y001190D02*
X002891Y001190D01*
X002989Y001091D02*
X002331Y001091D01*
X002160Y001500D02*
X004860Y004200D01*
X004860Y005800D01*
X005490Y006430D01*
X005490Y009876D01*
X005086Y009956D02*
X005028Y009956D01*
X005028Y010055D02*
X005086Y010055D01*
X005086Y010153D02*
X005028Y010153D01*
X005028Y010252D02*
X005086Y010252D01*
X005086Y009759D02*
X005028Y009759D01*
X005028Y009661D02*
X005086Y009661D01*
X005086Y009562D02*
X005028Y009562D01*
X005028Y009464D02*
X005086Y009464D01*
X005309Y009464D02*
X005330Y009464D01*
X005330Y009365D02*
X004784Y009365D01*
X004784Y009267D02*
X005330Y009267D01*
X005330Y009168D02*
X004784Y009168D01*
X004784Y009070D02*
X005330Y009070D01*
X005330Y008971D02*
X004784Y008971D01*
X004784Y008873D02*
X005330Y008873D01*
X005330Y008774D02*
X004784Y008774D01*
X004784Y008676D02*
X005330Y008676D01*
X005330Y008577D02*
X004784Y008577D01*
X004784Y008479D02*
X005330Y008479D01*
X005330Y008380D02*
X004784Y008380D01*
X004784Y008282D02*
X005330Y008282D01*
X005330Y008183D02*
X004784Y008183D01*
X004771Y008085D02*
X005330Y008085D01*
X005330Y007986D02*
X004672Y007986D01*
X004574Y007888D02*
X005330Y007888D01*
X005330Y007789D02*
X004475Y007789D01*
X004377Y007691D02*
X005330Y007691D01*
X005330Y007592D02*
X004278Y007592D01*
X004180Y007494D02*
X005330Y007494D01*
X005330Y007395D02*
X004081Y007395D01*
X003983Y007297D02*
X005330Y007297D01*
X005330Y007198D02*
X003884Y007198D01*
X003786Y007100D02*
X005330Y007100D01*
X005330Y007001D02*
X003687Y007001D01*
X003589Y006903D02*
X005330Y006903D01*
X005330Y006804D02*
X003490Y006804D01*
X003392Y006706D02*
X005330Y006706D01*
X005330Y006607D02*
X003293Y006607D01*
X003195Y006509D02*
X005330Y006509D01*
X005244Y006410D02*
X003096Y006410D01*
X002998Y006312D02*
X005145Y006312D01*
X005047Y006213D02*
X002899Y006213D01*
X002801Y006115D02*
X004948Y006115D01*
X004850Y006016D02*
X002720Y006016D01*
X002720Y005918D02*
X003941Y005918D01*
X003974Y005950D02*
X003710Y005686D01*
X003710Y005550D01*
X004110Y005550D01*
X004110Y005950D01*
X003974Y005950D01*
X003843Y005819D02*
X002720Y005819D01*
X002720Y005721D02*
X003744Y005721D01*
X003710Y005622D02*
X002720Y005622D01*
X002720Y005524D02*
X004110Y005524D01*
X004110Y005550D02*
X004110Y005450D01*
X003710Y005450D01*
X003710Y005314D01*
X003974Y005050D01*
X004110Y005050D01*
X004110Y005450D01*
X004210Y005450D01*
X004210Y005550D01*
X004110Y005550D01*
X004110Y005622D02*
X004210Y005622D01*
X004210Y005550D02*
X004210Y005950D01*
X004346Y005950D01*
X004610Y005686D01*
X004610Y005550D01*
X004210Y005550D01*
X004210Y005524D02*
X004700Y005524D01*
X004700Y005622D02*
X004610Y005622D01*
X004576Y005721D02*
X004700Y005721D01*
X004700Y005819D02*
X004477Y005819D01*
X004379Y005918D02*
X004751Y005918D01*
X005020Y005721D02*
X005244Y005721D01*
X005210Y005686D02*
X005210Y005550D01*
X005610Y005550D01*
X005610Y005950D01*
X005474Y005950D01*
X005210Y005686D01*
X005210Y005622D02*
X005020Y005622D01*
X005020Y005524D02*
X005610Y005524D01*
X005610Y005550D02*
X005610Y005450D01*
X005210Y005450D01*
X005210Y005314D01*
X005474Y005050D01*
X005610Y005050D01*
X005610Y005450D01*
X005710Y005450D01*
X005710Y005550D01*
X005610Y005550D01*
X005610Y005622D02*
X005710Y005622D01*
X005710Y005550D02*
X005710Y005950D01*
X005846Y005950D01*
X006110Y005686D01*
X006110Y005550D01*
X005710Y005550D01*
X005710Y005524D02*
X007930Y005524D01*
X007930Y005622D02*
X006110Y005622D01*
X006076Y005721D02*
X007930Y005721D01*
X007930Y005819D02*
X005977Y005819D01*
X005879Y005918D02*
X007930Y005918D01*
X007930Y006016D02*
X005302Y006016D01*
X005204Y005918D02*
X005441Y005918D01*
X005343Y005819D02*
X005105Y005819D01*
X005020Y005425D02*
X005210Y005425D01*
X005210Y005327D02*
X005020Y005327D01*
X005020Y005228D02*
X005296Y005228D01*
X005394Y005130D02*
X005020Y005130D01*
X005020Y005031D02*
X007930Y005031D01*
X007930Y004933D02*
X005020Y004933D01*
X005020Y004834D02*
X005250Y004834D01*
X005250Y004846D02*
X005250Y004154D01*
X005314Y004090D01*
X006006Y004090D01*
X006070Y004154D01*
X006070Y004846D01*
X006006Y004910D01*
X005314Y004910D01*
X005250Y004846D01*
X005250Y004736D02*
X005020Y004736D01*
X005020Y004637D02*
X005250Y004637D01*
X005250Y004539D02*
X005020Y004539D01*
X005020Y004440D02*
X005250Y004440D01*
X005250Y004342D02*
X005020Y004342D01*
X005020Y004243D02*
X005250Y004243D01*
X005260Y004145D02*
X005020Y004145D01*
X004932Y004046D02*
X007930Y004046D01*
X007930Y003948D02*
X004834Y003948D01*
X004735Y003849D02*
X007930Y003849D01*
X007930Y003751D02*
X004637Y003751D01*
X004538Y003652D02*
X007930Y003652D01*
X007930Y003554D02*
X004440Y003554D01*
X004341Y003455D02*
X007930Y003455D01*
X007930Y003357D02*
X004243Y003357D01*
X004144Y003258D02*
X007930Y003258D01*
X007930Y003160D02*
X004046Y003160D01*
X003947Y003061D02*
X007930Y003061D01*
X007930Y002963D02*
X003849Y002963D01*
X003750Y002864D02*
X007930Y002864D01*
X007930Y002766D02*
X003652Y002766D01*
X003553Y002667D02*
X007930Y002667D01*
X007930Y002569D02*
X003455Y002569D01*
X003356Y002470D02*
X007930Y002470D01*
X007930Y002372D02*
X003258Y002372D01*
X003159Y002273D02*
X007930Y002273D01*
X007930Y002175D02*
X003061Y002175D01*
X002962Y002076D02*
X007930Y002076D01*
X007930Y004145D02*
X006060Y004145D01*
X006070Y004243D02*
X007930Y004243D01*
X007930Y004342D02*
X006070Y004342D01*
X006070Y004440D02*
X007930Y004440D01*
X007930Y004539D02*
X006070Y004539D01*
X006070Y004637D02*
X007930Y004637D01*
X007930Y004736D02*
X006070Y004736D01*
X006070Y004834D02*
X007930Y004834D01*
X007930Y005130D02*
X005926Y005130D01*
X005846Y005050D02*
X006110Y005314D01*
X006110Y005450D01*
X005710Y005450D01*
X005710Y005050D01*
X005846Y005050D01*
X005710Y005130D02*
X005610Y005130D01*
X005610Y005228D02*
X005710Y005228D01*
X005710Y005327D02*
X005610Y005327D01*
X005610Y005425D02*
X005710Y005425D01*
X005710Y005721D02*
X005610Y005721D01*
X005610Y005819D02*
X005710Y005819D01*
X005710Y005918D02*
X005610Y005918D01*
X005401Y006115D02*
X007930Y006115D01*
X007930Y006213D02*
X005499Y006213D01*
X005598Y006312D02*
X007930Y006312D01*
X007930Y006410D02*
X005650Y006410D01*
X005650Y006509D02*
X007930Y006509D01*
X007930Y006607D02*
X005650Y006607D01*
X005650Y006706D02*
X007930Y006706D01*
X007930Y006804D02*
X005650Y006804D01*
X005650Y006903D02*
X007930Y006903D01*
X007930Y007001D02*
X005650Y007001D01*
X005650Y007100D02*
X006482Y007100D01*
X006482Y007099D02*
X006517Y007079D01*
X006555Y007069D01*
X006810Y007069D01*
X006810Y007563D01*
X006425Y007563D01*
X006425Y007199D01*
X006435Y007161D01*
X006455Y007127D01*
X006482Y007099D01*
X006425Y007198D02*
X005650Y007198D01*
X005650Y007297D02*
X006425Y007297D01*
X006425Y007395D02*
X005650Y007395D01*
X005650Y007494D02*
X006425Y007494D01*
X006425Y007663D02*
X006810Y007663D01*
X006810Y008156D01*
X006555Y008156D01*
X006517Y008146D01*
X006482Y008126D01*
X006455Y008098D01*
X006435Y008064D01*
X006425Y008026D01*
X006425Y007663D01*
X006425Y007691D02*
X005650Y007691D01*
X005650Y007789D02*
X006425Y007789D01*
X006425Y007888D02*
X005650Y007888D01*
X005650Y007986D02*
X006425Y007986D01*
X006447Y008085D02*
X005650Y008085D01*
X005650Y008183D02*
X007930Y008183D01*
X007930Y008085D02*
X007273Y008085D01*
X007265Y008098D02*
X007238Y008126D01*
X007203Y008146D01*
X007165Y008156D01*
X006910Y008156D01*
X006910Y007663D01*
X006810Y007663D01*
X006810Y007563D01*
X006910Y007563D01*
X006910Y007663D01*
X007295Y007663D01*
X007295Y008026D01*
X007285Y008064D01*
X007265Y008098D01*
X007295Y007986D02*
X007930Y007986D01*
X007930Y007888D02*
X007295Y007888D01*
X007295Y007789D02*
X007930Y007789D01*
X007930Y007691D02*
X007295Y007691D01*
X007295Y007563D02*
X006910Y007563D01*
X006910Y007069D01*
X007165Y007069D01*
X007203Y007079D01*
X007238Y007099D01*
X007265Y007127D01*
X007285Y007161D01*
X007295Y007199D01*
X007295Y007563D01*
X007295Y007494D02*
X007930Y007494D01*
X007930Y007592D02*
X006910Y007592D01*
X006910Y007494D02*
X006810Y007494D01*
X006810Y007592D02*
X005650Y007592D01*
X005650Y008282D02*
X007930Y008282D01*
X007930Y008380D02*
X005650Y008380D01*
X005650Y008479D02*
X007930Y008479D01*
X007930Y008577D02*
X005650Y008577D01*
X005650Y008676D02*
X007930Y008676D01*
X007930Y008774D02*
X005650Y008774D01*
X005650Y008873D02*
X007930Y008873D01*
X007930Y008971D02*
X005650Y008971D01*
X005650Y009070D02*
X007930Y009070D01*
X007930Y009168D02*
X005650Y009168D01*
X005650Y009267D02*
X007930Y009267D01*
X007930Y009365D02*
X005650Y009365D01*
X005650Y009464D02*
X007930Y009464D01*
X007930Y009562D02*
X006190Y009562D01*
X006190Y009661D02*
X007930Y009661D01*
X007930Y009759D02*
X006190Y009759D01*
X006190Y009858D02*
X007930Y009858D01*
X007930Y009956D02*
X006190Y009956D01*
X006190Y010055D02*
X007930Y010055D01*
X007930Y010153D02*
X006190Y010153D01*
X006156Y010252D02*
X007930Y010252D01*
X007930Y010350D02*
X000360Y010350D01*
X000360Y010252D02*
X002658Y010252D01*
X002624Y010153D02*
X000360Y010153D01*
X000360Y010055D02*
X002624Y010055D01*
X002624Y009956D02*
X000360Y009956D01*
X000360Y009858D02*
X002624Y009858D01*
X002624Y009759D02*
X000360Y009759D01*
X000360Y009661D02*
X002624Y009661D01*
X002624Y009562D02*
X000360Y009562D01*
X000360Y009464D02*
X003165Y009464D01*
X003165Y009365D02*
X000360Y009365D01*
X000360Y009267D02*
X003165Y009267D01*
X003165Y009168D02*
X000360Y009168D01*
X000360Y009070D02*
X003165Y009070D01*
X003165Y008971D02*
X000360Y008971D01*
X000360Y008873D02*
X003165Y008873D01*
X003165Y008774D02*
X000360Y008774D01*
X000360Y008676D02*
X003165Y008676D01*
X003165Y008577D02*
X000360Y008577D01*
X000360Y008479D02*
X003165Y008479D01*
X003165Y008380D02*
X000360Y008380D01*
X000360Y008282D02*
X003165Y008282D01*
X003165Y008183D02*
X000360Y008183D01*
X000360Y008085D02*
X001108Y008085D01*
X001116Y008098D02*
X001096Y008064D01*
X001086Y008026D01*
X001086Y007663D01*
X001471Y007663D01*
X001471Y008156D01*
X001216Y008156D01*
X001178Y008146D01*
X001144Y008126D01*
X001116Y008098D01*
X001086Y007986D02*
X000360Y007986D01*
X000360Y007888D02*
X001086Y007888D01*
X001086Y007789D02*
X000360Y007789D01*
X000360Y007691D02*
X001086Y007691D01*
X001086Y007563D02*
X001086Y007199D01*
X001096Y007161D01*
X001116Y007127D01*
X001144Y007099D01*
X001178Y007079D01*
X001216Y007069D01*
X001471Y007069D01*
X001471Y007563D01*
X001086Y007563D01*
X001086Y007494D02*
X000360Y007494D01*
X000360Y007592D02*
X001471Y007592D01*
X001471Y007563D02*
X001471Y007663D01*
X001571Y007663D01*
X001571Y008156D01*
X001827Y008156D01*
X001865Y008146D01*
X001899Y008126D01*
X001927Y008098D01*
X001947Y008064D01*
X001957Y008026D01*
X001957Y007663D01*
X001571Y007663D01*
X001571Y007563D01*
X001571Y007069D01*
X001827Y007069D01*
X001865Y007079D01*
X001899Y007099D01*
X001927Y007127D01*
X001947Y007161D01*
X001957Y007199D01*
X001957Y007563D01*
X001571Y007563D01*
X001471Y007563D01*
X001471Y007494D02*
X001571Y007494D01*
X001571Y007592D02*
X003226Y007592D01*
X003294Y007691D02*
X003324Y007691D01*
X003365Y007789D02*
X003423Y007789D01*
X003388Y007888D02*
X003521Y007888D01*
X003600Y007986D02*
X003422Y007986D01*
X003391Y007955D02*
X003391Y007955D01*
X003485Y008085D02*
X003600Y008085D01*
X003600Y008183D02*
X003485Y008183D01*
X003485Y008282D02*
X003600Y008282D01*
X003600Y008380D02*
X003485Y008380D01*
X003485Y008479D02*
X003600Y008479D01*
X003600Y008577D02*
X003485Y008577D01*
X003485Y008676D02*
X003600Y008676D01*
X003600Y008774D02*
X003485Y008774D01*
X003485Y008873D02*
X003600Y008873D01*
X003600Y008971D02*
X003485Y008971D01*
X003485Y009070D02*
X003600Y009070D01*
X003600Y009168D02*
X003485Y009168D01*
X003485Y009267D02*
X003600Y009267D01*
X003600Y009365D02*
X003485Y009365D01*
X003485Y009464D02*
X003600Y009464D01*
X003920Y009168D02*
X003931Y009168D01*
X003920Y009070D02*
X003997Y009070D01*
X003920Y008971D02*
X004464Y008971D01*
X004464Y008873D02*
X003920Y008873D01*
X003920Y008774D02*
X004464Y008774D01*
X004464Y008676D02*
X003920Y008676D01*
X003920Y008577D02*
X004464Y008577D01*
X004464Y008479D02*
X003920Y008479D01*
X003920Y008380D02*
X004464Y008380D01*
X004464Y008282D02*
X003920Y008282D01*
X003920Y008183D02*
X004417Y008183D01*
X004318Y008085D02*
X003920Y008085D01*
X003920Y007986D02*
X004220Y007986D01*
X004121Y007888D02*
X003920Y007888D01*
X003875Y007789D02*
X004023Y007789D01*
X003924Y007691D02*
X003777Y007691D01*
X003826Y007592D02*
X003678Y007592D01*
X003727Y007494D02*
X003580Y007494D01*
X003629Y007395D02*
X003481Y007395D01*
X003530Y007297D02*
X003383Y007297D01*
X003432Y007198D02*
X003284Y007198D01*
X003333Y007100D02*
X003186Y007100D01*
X003235Y007001D02*
X003087Y007001D01*
X003136Y006903D02*
X002989Y006903D01*
X003038Y006804D02*
X002890Y006804D01*
X002939Y006706D02*
X002792Y006706D01*
X002841Y006607D02*
X002693Y006607D01*
X002742Y006509D02*
X002595Y006509D01*
X002644Y006410D02*
X002496Y006410D01*
X002545Y006312D02*
X002398Y006312D01*
X002447Y006213D02*
X002299Y006213D01*
X002201Y006115D02*
X002400Y006115D01*
X002400Y006016D02*
X002102Y006016D01*
X002004Y005918D02*
X002400Y005918D01*
X002400Y005819D02*
X001920Y005819D01*
X001920Y005721D02*
X002400Y005721D01*
X002400Y005622D02*
X001920Y005622D01*
X001920Y005524D02*
X002400Y005524D01*
X002400Y005425D02*
X001920Y005425D01*
X001920Y005327D02*
X002400Y005327D01*
X002400Y005228D02*
X001920Y005228D01*
X001920Y005130D02*
X002400Y005130D01*
X002400Y005031D02*
X001920Y005031D01*
X001920Y004933D02*
X002400Y004933D01*
X002400Y004834D02*
X001920Y004834D01*
X001920Y004736D02*
X002400Y004736D01*
X002400Y004637D02*
X002005Y004637D01*
X002038Y004539D02*
X002400Y004539D01*
X002400Y004440D02*
X002037Y004440D01*
X001995Y004342D02*
X002400Y004342D01*
X002377Y004243D02*
X001867Y004243D01*
X001653Y004243D02*
X000360Y004243D01*
X000360Y004145D02*
X002278Y004145D01*
X002180Y004046D02*
X000360Y004046D01*
X000360Y003948D02*
X002081Y003948D01*
X001983Y003849D02*
X000360Y003849D01*
X000360Y003751D02*
X001884Y003751D01*
X001786Y003652D02*
X000360Y003652D01*
X000360Y003554D02*
X001687Y003554D01*
X001610Y003250D02*
X001560Y003250D01*
X001610Y003250D02*
X002560Y004200D01*
X002560Y006100D01*
X004624Y008164D01*
X004624Y009876D01*
X004784Y009464D02*
X004805Y009464D01*
X004464Y009168D02*
X004450Y009168D01*
X004464Y009070D02*
X004385Y009070D01*
X004191Y009269D02*
X004191Y009876D01*
X003760Y009874D02*
X003758Y009876D01*
X003760Y009874D02*
X003760Y007900D01*
X001760Y005900D01*
X001760Y004500D01*
X001600Y004736D02*
X000360Y004736D01*
X000360Y004834D02*
X001600Y004834D01*
X001600Y004933D02*
X000360Y004933D01*
X000360Y005031D02*
X001600Y005031D01*
X001600Y005130D02*
X000360Y005130D01*
X000360Y005228D02*
X001600Y005228D01*
X001600Y005327D02*
X000360Y005327D01*
X000360Y005425D02*
X001600Y005425D01*
X001600Y005524D02*
X000360Y005524D01*
X000360Y005622D02*
X001600Y005622D01*
X001600Y005721D02*
X000360Y005721D01*
X000360Y005819D02*
X001600Y005819D01*
X001600Y005918D02*
X000360Y005918D01*
X000360Y006016D02*
X001650Y006016D01*
X001748Y006115D02*
X000360Y006115D01*
X000360Y006213D02*
X001847Y006213D01*
X001945Y006312D02*
X000360Y006312D01*
X000360Y006410D02*
X002044Y006410D01*
X002142Y006509D02*
X000360Y006509D01*
X000360Y006607D02*
X002241Y006607D01*
X002339Y006706D02*
X000360Y006706D01*
X000360Y006804D02*
X002438Y006804D01*
X002536Y006903D02*
X000360Y006903D01*
X000360Y007001D02*
X002635Y007001D01*
X002733Y007100D02*
X001900Y007100D01*
X001957Y007198D02*
X002832Y007198D01*
X002930Y007297D02*
X001957Y007297D01*
X001957Y007395D02*
X003029Y007395D01*
X003127Y007494D02*
X001957Y007494D01*
X001957Y007691D02*
X002926Y007691D01*
X002855Y007789D02*
X001957Y007789D01*
X001957Y007888D02*
X002832Y007888D01*
X002844Y007986D02*
X001957Y007986D01*
X001935Y008085D02*
X002901Y008085D01*
X003110Y007900D02*
X003325Y008115D01*
X003325Y009876D01*
X001947Y010448D02*
X001957Y010487D01*
X001957Y010850D01*
X001571Y010850D01*
X001571Y010356D01*
X001827Y010356D01*
X001865Y010367D01*
X001899Y010386D01*
X001927Y010414D01*
X001947Y010448D01*
X001947Y010449D02*
X006435Y010449D01*
X006435Y010448D02*
X006455Y010414D01*
X006482Y010386D01*
X006517Y010367D01*
X006555Y010356D01*
X006810Y010356D01*
X006810Y010850D01*
X006425Y010850D01*
X006425Y010487D01*
X006435Y010448D01*
X006425Y010547D02*
X001957Y010547D01*
X001957Y010646D02*
X006425Y010646D01*
X006425Y010744D02*
X001957Y010744D01*
X001957Y010843D02*
X006425Y010843D01*
X006425Y010950D02*
X006810Y010950D01*
X006810Y011444D01*
X006555Y011444D01*
X006517Y011433D01*
X006517Y011434D02*
X001865Y011434D01*
X001865Y011433D02*
X001827Y011444D01*
X001571Y011444D01*
X001571Y010950D01*
X001471Y010950D01*
X001471Y010850D01*
X001086Y010850D01*
X001086Y010487D01*
X001096Y010448D01*
X001116Y010414D01*
X001144Y010386D01*
X001178Y010367D01*
X001216Y010356D01*
X001471Y010356D01*
X001471Y010850D01*
X001571Y010850D01*
X001571Y010950D01*
X001957Y010950D01*
X001957Y011313D01*
X001947Y011352D01*
X001927Y011386D01*
X001899Y011414D01*
X001865Y011433D01*
X001951Y011335D02*
X006430Y011335D01*
X006435Y011352D02*
X006425Y011313D01*
X006425Y010950D01*
X006425Y011040D02*
X001957Y011040D01*
X001957Y011138D02*
X006425Y011138D01*
X006425Y011237D02*
X001957Y011237D01*
X001571Y011237D02*
X001471Y011237D01*
X001471Y011335D02*
X001571Y011335D01*
X001571Y011434D02*
X001471Y011434D01*
X001471Y011444D02*
X001216Y011444D01*
X001178Y011433D01*
X001144Y011414D01*
X001116Y011386D01*
X001096Y011352D01*
X001086Y011313D01*
X001086Y010950D01*
X001471Y010950D01*
X001471Y011444D01*
X001178Y011434D02*
X000360Y011434D01*
X000360Y011532D02*
X007930Y011532D01*
X007930Y011434D02*
X007203Y011434D01*
X007203Y011433D02*
X007165Y011444D01*
X006910Y011444D01*
X006910Y010950D01*
X006810Y010950D01*
X006810Y010850D01*
X006910Y010850D01*
X006910Y010950D01*
X007295Y010950D01*
X007295Y011313D01*
X007285Y011352D01*
X007265Y011386D01*
X007238Y011414D01*
X007203Y011433D01*
X007290Y011335D02*
X007930Y011335D01*
X007930Y011237D02*
X007295Y011237D01*
X007295Y011138D02*
X007930Y011138D01*
X007930Y011040D02*
X007295Y011040D01*
X007295Y010850D02*
X006910Y010850D01*
X006910Y010356D01*
X007165Y010356D01*
X007203Y010367D01*
X007238Y010386D01*
X007265Y010414D01*
X007285Y010448D01*
X007295Y010487D01*
X007295Y010850D01*
X007295Y010843D02*
X007930Y010843D01*
X007930Y010941D02*
X006910Y010941D01*
X006910Y010843D02*
X006810Y010843D01*
X006810Y010941D02*
X001571Y010941D01*
X001571Y010843D02*
X001471Y010843D01*
X001471Y010941D02*
X000360Y010941D01*
X000360Y010843D02*
X001086Y010843D01*
X001086Y010744D02*
X000360Y010744D01*
X000360Y010646D02*
X001086Y010646D01*
X001086Y010547D02*
X000360Y010547D01*
X000360Y010449D02*
X001096Y010449D01*
X001471Y010449D02*
X001571Y010449D01*
X001571Y010547D02*
X001471Y010547D01*
X001471Y010646D02*
X001571Y010646D01*
X001571Y010744D02*
X001471Y010744D01*
X001471Y011040D02*
X001571Y011040D01*
X001571Y011138D02*
X001471Y011138D01*
X001086Y011138D02*
X000360Y011138D01*
X000360Y011040D02*
X001086Y011040D01*
X001086Y011237D02*
X000360Y011237D01*
X000360Y011335D02*
X001092Y011335D01*
X000360Y011631D02*
X007930Y011631D01*
X007930Y011729D02*
X000360Y011729D01*
X001471Y008085D02*
X001571Y008085D01*
X001571Y007986D02*
X001471Y007986D01*
X001471Y007888D02*
X001571Y007888D01*
X001571Y007789D02*
X001471Y007789D01*
X001471Y007691D02*
X001571Y007691D01*
X001571Y007395D02*
X001471Y007395D01*
X001471Y007297D02*
X001571Y007297D01*
X001571Y007198D02*
X001471Y007198D01*
X001471Y007100D02*
X001571Y007100D01*
X001143Y007100D02*
X000360Y007100D01*
X000360Y007198D02*
X001086Y007198D01*
X001086Y007297D02*
X000360Y007297D01*
X000360Y007395D02*
X001086Y007395D01*
X002720Y005425D02*
X003710Y005425D01*
X003710Y005327D02*
X002720Y005327D01*
X002720Y005228D02*
X003796Y005228D01*
X003894Y005130D02*
X002720Y005130D01*
X002720Y005031D02*
X004700Y005031D01*
X004700Y004933D02*
X002720Y004933D01*
X002720Y004834D02*
X003750Y004834D01*
X003750Y004846D02*
X003750Y004154D01*
X003814Y004090D01*
X004506Y004090D01*
X004570Y004154D01*
X004570Y004846D01*
X004506Y004910D01*
X003814Y004910D01*
X003750Y004846D01*
X003750Y004736D02*
X002720Y004736D01*
X002720Y004637D02*
X003750Y004637D01*
X003750Y004539D02*
X002720Y004539D01*
X002720Y004440D02*
X003750Y004440D01*
X003750Y004342D02*
X002720Y004342D01*
X002720Y004243D02*
X003750Y004243D01*
X003760Y004145D02*
X002720Y004145D01*
X002632Y004046D02*
X004480Y004046D01*
X004560Y004145D02*
X004578Y004145D01*
X004570Y004243D02*
X004677Y004243D01*
X004700Y004342D02*
X004570Y004342D01*
X004570Y004440D02*
X004700Y004440D01*
X004700Y004539D02*
X004570Y004539D01*
X004570Y004637D02*
X004700Y004637D01*
X004700Y004736D02*
X004570Y004736D01*
X004570Y004834D02*
X004700Y004834D01*
X004700Y005130D02*
X004426Y005130D01*
X004346Y005050D02*
X004610Y005314D01*
X004610Y005450D01*
X004210Y005450D01*
X004210Y005050D01*
X004346Y005050D01*
X004210Y005130D02*
X004110Y005130D01*
X004110Y005228D02*
X004210Y005228D01*
X004210Y005327D02*
X004110Y005327D01*
X004110Y005425D02*
X004210Y005425D01*
X004210Y005721D02*
X004110Y005721D01*
X004110Y005819D02*
X004210Y005819D01*
X004210Y005918D02*
X004110Y005918D01*
X004610Y005425D02*
X004700Y005425D01*
X004700Y005327D02*
X004610Y005327D01*
X004524Y005228D02*
X004700Y005228D01*
X004381Y003948D02*
X002534Y003948D01*
X002435Y003849D02*
X004283Y003849D01*
X004184Y003751D02*
X002337Y003751D01*
X002238Y003652D02*
X004086Y003652D01*
X003987Y003554D02*
X002140Y003554D01*
X002041Y003455D02*
X003889Y003455D01*
X003790Y003357D02*
X001943Y003357D01*
X001844Y003258D02*
X003692Y003258D01*
X003593Y003160D02*
X001824Y003160D01*
X001765Y003061D02*
X003495Y003061D01*
X003396Y002963D02*
X000360Y002963D01*
X000360Y003061D02*
X001355Y003061D01*
X001296Y003160D02*
X000360Y003160D01*
X000360Y003258D02*
X001282Y003258D01*
X001303Y003357D02*
X000360Y003357D01*
X000360Y003455D02*
X001371Y003455D01*
X001525Y004342D02*
X000360Y004342D01*
X000360Y004440D02*
X001483Y004440D01*
X001482Y004539D02*
X000360Y004539D01*
X000360Y004637D02*
X001515Y004637D01*
X000360Y002864D02*
X003298Y002864D01*
X003199Y002766D02*
X000360Y002766D01*
X000360Y002667D02*
X003101Y002667D01*
X003002Y002569D02*
X000360Y002569D01*
X000360Y002470D02*
X002904Y002470D01*
X002805Y002372D02*
X000360Y002372D01*
X000360Y002273D02*
X002707Y002273D01*
X002608Y002175D02*
X000360Y002175D01*
X000360Y002076D02*
X002510Y002076D01*
X002411Y001978D02*
X000360Y001978D01*
X000360Y001879D02*
X000783Y001879D01*
X000814Y001910D02*
X000750Y001846D01*
X000750Y001154D01*
X000814Y001090D01*
X001506Y001090D01*
X001570Y001154D01*
X001570Y001846D01*
X001506Y001910D01*
X000814Y001910D01*
X000750Y001781D02*
X000360Y001781D01*
X000360Y001682D02*
X000750Y001682D01*
X000750Y001584D02*
X000360Y001584D01*
X000360Y001485D02*
X000750Y001485D01*
X000750Y001387D02*
X000360Y001387D01*
X000360Y001288D02*
X000750Y001288D01*
X000750Y001190D02*
X000360Y001190D01*
X000360Y001091D02*
X000813Y001091D01*
X001507Y001091D02*
X001989Y001091D01*
X001891Y001190D02*
X001570Y001190D01*
X001570Y001288D02*
X001792Y001288D01*
X001750Y001387D02*
X001570Y001387D01*
X001570Y001485D02*
X001750Y001485D01*
X001750Y001584D02*
X001570Y001584D01*
X001570Y001682D02*
X001762Y001682D01*
X001861Y001781D02*
X001570Y001781D01*
X001537Y001879D02*
X001959Y001879D01*
X003361Y001879D02*
X003959Y001879D01*
X003990Y001910D02*
X003750Y001670D01*
X003750Y001330D01*
X003990Y001090D01*
X004330Y001090D01*
X004570Y001330D01*
X004570Y001670D01*
X004330Y001910D01*
X003990Y001910D01*
X003861Y001781D02*
X003459Y001781D01*
X003558Y001682D02*
X003762Y001682D01*
X003750Y001584D02*
X003570Y001584D01*
X003570Y001485D02*
X003750Y001485D01*
X003750Y001387D02*
X003570Y001387D01*
X003528Y001288D02*
X003792Y001288D01*
X003891Y001190D02*
X003429Y001190D01*
X003331Y001091D02*
X003989Y001091D01*
X004331Y001091D02*
X005813Y001091D01*
X005750Y001190D02*
X004429Y001190D01*
X004528Y001288D02*
X005750Y001288D01*
X005750Y001387D02*
X004570Y001387D01*
X004570Y001485D02*
X005750Y001485D01*
X005750Y001584D02*
X004570Y001584D01*
X004558Y001682D02*
X005750Y001682D01*
X005750Y001781D02*
X004459Y001781D01*
X004361Y001879D02*
X005783Y001879D01*
X006024Y005228D02*
X007930Y005228D01*
X007930Y005327D02*
X006110Y005327D01*
X006110Y005425D02*
X007930Y005425D01*
X007930Y007100D02*
X007238Y007100D01*
X007295Y007198D02*
X007930Y007198D01*
X007930Y007297D02*
X007295Y007297D01*
X007295Y007395D02*
X007930Y007395D01*
X006910Y007395D02*
X006810Y007395D01*
X006810Y007297D02*
X006910Y007297D01*
X006910Y007198D02*
X006810Y007198D01*
X006810Y007100D02*
X006910Y007100D01*
X006910Y007691D02*
X006810Y007691D01*
X006810Y007789D02*
X006910Y007789D01*
X006910Y007888D02*
X006810Y007888D01*
X006810Y007986D02*
X006910Y007986D01*
X006910Y008085D02*
X006810Y008085D01*
X006810Y010449D02*
X006910Y010449D01*
X006910Y010547D02*
X006810Y010547D01*
X006810Y010646D02*
X006910Y010646D01*
X006910Y010744D02*
X006810Y010744D01*
X006810Y011040D02*
X006910Y011040D01*
X006910Y011138D02*
X006810Y011138D01*
X006810Y011237D02*
X006910Y011237D01*
X006910Y011335D02*
X006810Y011335D01*
X006810Y011434D02*
X006910Y011434D01*
X006517Y011433D02*
X006482Y011414D01*
X006455Y011386D01*
X006435Y011352D01*
X007295Y010744D02*
X007930Y010744D01*
X007930Y010646D02*
X007295Y010646D01*
X007295Y010547D02*
X007930Y010547D01*
X007930Y010449D02*
X007285Y010449D01*
M02*
