G75*
G70*
%OFA0B0*%
%FSLAX24Y24*%
%IPPOS*%
%LPD*%
%AMOC8*
5,1,8,0,0,1.08239X$1,22.5*
%
%ADD10C,0.0080*%
D10*
X001951Y002154D02*
X002778Y002154D01*
X003762Y002430D02*
X003762Y002784D01*
X003762Y004516D02*
X003762Y004870D01*
X002778Y005146D02*
X001951Y005146D01*
X007902Y004620D02*
X008323Y004620D01*
X008323Y004480D02*
X008323Y004760D01*
X008043Y004480D02*
X007902Y004620D01*
X007759Y004150D02*
X007761Y004187D01*
X007767Y004224D01*
X007776Y004259D01*
X007790Y004294D01*
X007806Y004327D01*
X007827Y004358D01*
X007850Y004387D01*
X007876Y004413D01*
X007905Y004436D01*
X007936Y004457D01*
X007969Y004473D01*
X008004Y004487D01*
X008039Y004496D01*
X008076Y004502D01*
X008113Y004504D01*
X008150Y004502D01*
X008187Y004496D01*
X008222Y004487D01*
X008257Y004473D01*
X008290Y004457D01*
X008321Y004436D01*
X008350Y004413D01*
X008376Y004387D01*
X008399Y004358D01*
X008420Y004327D01*
X008436Y004294D01*
X008450Y004259D01*
X008459Y004224D01*
X008465Y004187D01*
X008467Y004150D01*
X008465Y004113D01*
X008459Y004076D01*
X008450Y004041D01*
X008436Y004006D01*
X008420Y003973D01*
X008399Y003942D01*
X008376Y003913D01*
X008350Y003887D01*
X008321Y003864D01*
X008290Y003843D01*
X008257Y003827D01*
X008222Y003813D01*
X008187Y003804D01*
X008150Y003798D01*
X008113Y003796D01*
X008076Y003798D01*
X008039Y003804D01*
X008004Y003813D01*
X007969Y003827D01*
X007936Y003843D01*
X007905Y003864D01*
X007876Y003887D01*
X007850Y003913D01*
X007827Y003942D01*
X007806Y003973D01*
X007790Y004006D01*
X007776Y004041D01*
X007767Y004076D01*
X007761Y004113D01*
X007759Y004150D01*
M02*
