G75*
G70*
%OFA0B0*%
%FSLAX24Y24*%
%IPPOS*%
%LPD*%
%AMOC8*
5,1,8,0,0,1.08239X$1,22.5*
%
%ADD10C,0.0080*%
D10*
X000450Y000400D02*
X000200Y000650D01*
X000200Y001150D01*
X000450Y001400D01*
X000200Y001650D01*
X000200Y002150D01*
X000450Y002400D01*
X000950Y002400D01*
X001200Y002150D01*
X001200Y001650D01*
X000950Y001400D01*
X001200Y001150D01*
X001200Y000650D01*
X000950Y000400D01*
X000450Y000400D01*
X001340Y000453D02*
X001340Y000614D01*
X001393Y000667D01*
X001607Y000667D01*
X001660Y000614D01*
X001660Y000453D01*
X001340Y000453D01*
X001393Y000822D02*
X001607Y000822D01*
X001660Y000875D01*
X001660Y000982D01*
X001607Y001035D01*
X001393Y001035D01*
X001340Y000982D01*
X001340Y000875D01*
X001393Y000822D01*
X002216Y000416D02*
X004184Y000416D01*
X004184Y002384D01*
X002216Y002384D01*
X002216Y000416D01*
X002491Y001400D02*
X002493Y001453D01*
X002499Y001506D01*
X002509Y001558D01*
X002522Y001609D01*
X002540Y001659D01*
X002561Y001708D01*
X002586Y001755D01*
X002614Y001799D01*
X002646Y001842D01*
X002680Y001882D01*
X002718Y001920D01*
X002758Y001954D01*
X002801Y001986D01*
X002846Y002014D01*
X002892Y002039D01*
X002941Y002060D01*
X002991Y002078D01*
X003042Y002091D01*
X003094Y002101D01*
X003147Y002107D01*
X003200Y002109D01*
X003253Y002107D01*
X003306Y002101D01*
X003358Y002091D01*
X003409Y002078D01*
X003459Y002060D01*
X003508Y002039D01*
X003555Y002014D01*
X003599Y001986D01*
X003642Y001954D01*
X003682Y001920D01*
X003720Y001882D01*
X003754Y001842D01*
X003786Y001799D01*
X003814Y001754D01*
X003839Y001708D01*
X003860Y001659D01*
X003878Y001609D01*
X003891Y001558D01*
X003901Y001506D01*
X003907Y001453D01*
X003909Y001400D01*
X003907Y001347D01*
X003901Y001294D01*
X003891Y001242D01*
X003878Y001191D01*
X003860Y001141D01*
X003839Y001092D01*
X003814Y001045D01*
X003786Y001001D01*
X003754Y000958D01*
X003720Y000918D01*
X003682Y000880D01*
X003642Y000846D01*
X003599Y000814D01*
X003554Y000786D01*
X003508Y000761D01*
X003459Y000740D01*
X003409Y000722D01*
X003358Y000709D01*
X003306Y000699D01*
X003253Y000693D01*
X003200Y000691D01*
X003147Y000693D01*
X003094Y000699D01*
X003042Y000709D01*
X002991Y000722D01*
X002941Y000740D01*
X002892Y000761D01*
X002845Y000786D01*
X002801Y000814D01*
X002758Y000846D01*
X002718Y000880D01*
X002680Y000918D01*
X002646Y000958D01*
X002614Y001001D01*
X002586Y001046D01*
X002561Y001092D01*
X002540Y001141D01*
X002522Y001191D01*
X002509Y001242D01*
X002499Y001294D01*
X002493Y001347D01*
X002491Y001400D01*
X001660Y001542D02*
X001553Y001649D01*
X001340Y001649D01*
X001340Y001803D02*
X001340Y001964D01*
X001393Y002017D01*
X001607Y002017D01*
X001660Y001964D01*
X001660Y001803D01*
X001340Y001803D01*
X001660Y001542D02*
X001553Y001435D01*
X001340Y001435D01*
X000950Y001400D02*
X000450Y001400D01*
X001340Y002172D02*
X001340Y002332D01*
X001393Y002385D01*
X001607Y002385D01*
X001660Y002332D01*
X001660Y002172D01*
X001340Y002172D01*
X004740Y002208D02*
X004740Y002315D01*
X004740Y002262D02*
X005060Y002262D01*
X005060Y002315D02*
X005060Y002208D01*
X005200Y002150D02*
X005200Y001650D01*
X005450Y001400D01*
X005200Y001150D01*
X005200Y000650D01*
X005450Y000400D01*
X005950Y000400D01*
X006200Y000650D01*
X006200Y001150D01*
X005950Y001400D01*
X005450Y001400D01*
X005060Y001337D02*
X005060Y001230D01*
X005007Y001177D01*
X004900Y001230D02*
X004900Y001337D01*
X004953Y001390D01*
X005007Y001390D01*
X005060Y001337D01*
X004900Y001230D02*
X004846Y001177D01*
X004793Y001177D01*
X004740Y001230D01*
X004740Y001337D01*
X004793Y001390D01*
X004793Y001022D02*
X004740Y000968D01*
X004740Y000862D01*
X004793Y000808D01*
X004846Y000808D01*
X004900Y000862D01*
X004900Y000968D01*
X004953Y001022D01*
X005007Y001022D01*
X005060Y000968D01*
X005060Y000862D01*
X005007Y000808D01*
X004953Y000654D02*
X004740Y000654D01*
X004953Y000654D02*
X005060Y000547D01*
X004953Y000440D01*
X004740Y000440D01*
X005950Y001400D02*
X006200Y001650D01*
X006200Y002150D01*
X005950Y002400D01*
X005450Y002400D01*
X005200Y002150D01*
X005060Y002000D02*
X005007Y002054D01*
X004793Y002054D01*
X004740Y002000D01*
X004740Y001840D01*
X005060Y001840D01*
X005060Y002000D01*
M02*
