G75*
G70*
%OFA0B0*%
%FSLAX24Y24*%
%IPPOS*%
%LPD*%
%AMOC8*
5,1,8,0,0,1.08239X$1,22.5*
%
%ADD10C,0.0480*%
%ADD11R,0.0740X0.0740*%
%ADD12C,0.0740*%
%ADD13R,0.0660X0.0660*%
%ADD14OC8,0.0660*%
%ADD15OC8,0.0591*%
%ADD16C,0.0160*%
D10*
X001680Y002036D02*
X001680Y002324D01*
X002680Y002324D02*
X002680Y002036D01*
X003680Y002036D02*
X003680Y002324D01*
X004680Y002324D02*
X004680Y002036D01*
X004680Y005036D02*
X004680Y005324D01*
X003680Y005324D02*
X003680Y005036D01*
X002680Y005036D02*
X002680Y005324D01*
X001680Y005324D02*
X001680Y005036D01*
D11*
X001680Y001180D03*
X001680Y006180D03*
D12*
X002680Y006180D03*
X003680Y006180D03*
X004680Y006180D03*
X004680Y001180D03*
X003680Y001180D03*
X002680Y001180D03*
D13*
X006680Y006480D03*
D14*
X007680Y006480D03*
X007680Y005480D03*
X006680Y005480D03*
X006680Y004480D03*
X007680Y004480D03*
D15*
X008260Y002466D03*
X008260Y000694D03*
X005700Y000694D03*
X005700Y002466D03*
D16*
X005715Y002480D01*
X006280Y002480D01*
X006680Y002880D01*
X007094Y002466D01*
X008260Y002466D01*
X006680Y002880D02*
X006680Y004480D01*
X006680Y005480D02*
X005630Y004430D01*
X003180Y004430D01*
X002680Y004930D01*
X002680Y005180D01*
X004680Y005180D02*
X005180Y005180D01*
X005980Y005980D01*
X007180Y005980D01*
X007680Y005480D01*
M02*
