G75*
G70*
%OFA0B0*%
%FSLAX24Y24*%
%IPPOS*%
%LPD*%
%AMOC8*
5,1,8,0,0,1.08239X$1,22.5*
%
%ADD10R,0.0474X0.0513*%
%ADD11C,0.0560*%
%ADD12R,0.0820X0.0820*%
%ADD13C,0.0820*%
%ADD14R,0.1025X0.0710*%
%ADD15R,0.0513X0.0474*%
%ADD16R,0.0740X0.0740*%
%ADD17OC8,0.0740*%
%ADD18OC8,0.0671*%
D10*
X001680Y003345D03*
X001680Y004015D03*
D11*
X001680Y005036D02*
X001680Y005324D01*
X002680Y005324D02*
X002680Y005036D01*
X003680Y005036D02*
X003680Y005324D01*
X004680Y005324D02*
X004680Y005036D01*
X004680Y002324D02*
X004680Y002036D01*
X003680Y002036D02*
X003680Y002324D01*
X002680Y002324D02*
X002680Y002036D01*
X001680Y002036D02*
X001680Y002324D01*
D12*
X001680Y001180D03*
X001680Y006180D03*
D13*
X002680Y006180D03*
X003680Y006180D03*
X004680Y006180D03*
X004680Y001180D03*
X003680Y001180D03*
X002680Y001180D03*
D14*
X004680Y003089D03*
X004680Y004271D03*
D15*
X002680Y004015D03*
X002680Y003345D03*
D16*
X006680Y006480D03*
D17*
X007680Y006480D03*
X007680Y005480D03*
X006680Y005480D03*
X006680Y004480D03*
X007680Y004480D03*
D18*
X008260Y002466D03*
X008260Y000694D03*
X005700Y000694D03*
X005700Y002466D03*
M02*
