G75*
G70*
%OFA0B0*%
%FSLAX24Y24*%
%IPPOS*%
%LPD*%
%AMOC8*
5,1,8,0,0,1.08239X$1,22.5*
%
%ADD10C,0.0080*%
%ADD11R,0.0236X0.0620*%
%ADD12C,0.0100*%
D10*
X000140Y000640D02*
X000640Y000140D01*
X018240Y000140D01*
X018740Y000640D01*
X018740Y009040D01*
X018240Y009540D01*
X000640Y009540D01*
X000140Y009040D01*
X000140Y000640D01*
X000440Y000590D02*
X000690Y000340D01*
X001190Y000340D01*
X001440Y000590D01*
X001690Y000340D01*
X002190Y000340D01*
X002440Y000590D01*
X002440Y001090D01*
X002190Y001340D01*
X001690Y001340D01*
X001440Y001090D01*
X001440Y000590D01*
X001440Y001090D02*
X001190Y001340D01*
X000690Y001340D01*
X000440Y001090D01*
X000440Y000590D01*
X002440Y000590D02*
X002690Y000340D01*
X003190Y000340D01*
X003440Y000590D01*
X003690Y000340D01*
X004190Y000340D01*
X004440Y000590D01*
X004440Y001090D01*
X004190Y001340D01*
X003690Y001340D01*
X003440Y001090D01*
X003190Y001340D01*
X002690Y001340D01*
X002440Y001090D01*
X002847Y001550D02*
X002917Y001480D01*
X003057Y001480D01*
X003127Y001550D01*
X003057Y001690D02*
X002917Y001690D01*
X002847Y001620D01*
X002847Y001550D01*
X003057Y001690D02*
X003127Y001760D01*
X003127Y001830D01*
X003057Y001900D01*
X002917Y001900D01*
X002847Y001830D01*
X003307Y001830D02*
X003378Y001900D01*
X003518Y001900D01*
X003588Y001830D01*
X003588Y001760D01*
X003518Y001690D01*
X003378Y001690D01*
X003307Y001620D01*
X003307Y001550D01*
X003378Y001480D01*
X003518Y001480D01*
X003588Y001550D01*
X003768Y001480D02*
X003768Y001760D01*
X003908Y001900D01*
X004048Y001760D01*
X004048Y001480D01*
X004228Y001690D02*
X004298Y001620D01*
X004509Y001620D01*
X004509Y001480D02*
X004509Y001900D01*
X004298Y001900D01*
X004228Y001830D01*
X004228Y001690D01*
X004048Y001690D02*
X003768Y001690D01*
X003849Y002196D02*
X004479Y002196D01*
X004480Y002197D02*
X004498Y002203D01*
X004516Y002212D01*
X004531Y002224D01*
X004543Y002240D01*
X004552Y002257D01*
X004558Y002276D01*
X004560Y002295D01*
X004558Y002315D01*
X004689Y001900D02*
X004689Y001830D01*
X004829Y001690D01*
X004829Y001480D01*
X004690Y001340D02*
X004440Y001090D01*
X004690Y001340D02*
X005190Y001340D01*
X005440Y001090D01*
X005690Y001340D01*
X006190Y001340D01*
X006440Y001090D01*
X006690Y001340D01*
X007190Y001340D01*
X007440Y001090D01*
X007440Y000590D01*
X007190Y000340D01*
X006690Y000340D01*
X006440Y000590D01*
X006440Y001090D01*
X006440Y000590D02*
X006190Y000340D01*
X005690Y000340D01*
X005440Y000590D01*
X005440Y001090D01*
X005429Y001480D02*
X005219Y001480D01*
X005149Y001550D01*
X005149Y001620D01*
X005219Y001690D01*
X005429Y001690D01*
X005219Y001690D02*
X005149Y001760D01*
X005149Y001830D01*
X005219Y001900D01*
X005429Y001900D01*
X005429Y001480D01*
X004969Y001830D02*
X004829Y001690D01*
X004969Y001830D02*
X004969Y001900D01*
X003849Y002197D02*
X003833Y002202D01*
X003817Y002210D01*
X003803Y002220D01*
X003791Y002232D01*
X003781Y002247D01*
X003774Y002263D01*
X003770Y002280D01*
X003769Y002297D01*
X003771Y002315D01*
X003771Y002865D02*
X003769Y002883D01*
X003770Y002900D01*
X003774Y002917D01*
X003781Y002933D01*
X003791Y002948D01*
X003803Y002960D01*
X003817Y002970D01*
X003833Y002978D01*
X003849Y002983D01*
X003849Y002984D02*
X004479Y002984D01*
X004480Y002983D02*
X004498Y002977D01*
X004516Y002968D01*
X004531Y002956D01*
X004543Y002940D01*
X004552Y002923D01*
X004558Y002904D01*
X004560Y002885D01*
X004558Y002865D01*
X004875Y003325D02*
X004205Y003325D01*
X004205Y003955D02*
X004875Y003955D01*
X004875Y004325D02*
X004205Y004325D01*
X004205Y004955D02*
X004875Y004955D01*
X006242Y004783D02*
X006242Y004153D01*
X006243Y004152D02*
X006249Y004134D01*
X006258Y004116D01*
X006270Y004101D01*
X006286Y004089D01*
X006303Y004080D01*
X006322Y004074D01*
X006341Y004072D01*
X006361Y004074D01*
X006414Y003939D02*
X006414Y003832D01*
X006414Y003885D02*
X006735Y003885D01*
X006735Y003832D02*
X006735Y003939D01*
X007030Y004153D02*
X007030Y004783D01*
X007029Y004783D02*
X007024Y004799D01*
X007016Y004815D01*
X007006Y004829D01*
X006994Y004841D01*
X006979Y004851D01*
X006963Y004858D01*
X006946Y004862D01*
X006929Y004863D01*
X006911Y004861D01*
X006361Y004861D02*
X006341Y004863D01*
X006322Y004861D01*
X006303Y004855D01*
X006286Y004846D01*
X006270Y004834D01*
X006258Y004819D01*
X006249Y004801D01*
X006243Y004783D01*
X006911Y004074D02*
X006929Y004072D01*
X006946Y004073D01*
X006963Y004077D01*
X006979Y004084D01*
X006994Y004094D01*
X007006Y004106D01*
X007016Y004120D01*
X007024Y004136D01*
X007029Y004152D01*
X006681Y003677D02*
X006468Y003677D01*
X006414Y003624D01*
X006414Y003464D01*
X006735Y003464D01*
X006735Y003624D01*
X006681Y003677D01*
X006735Y003309D02*
X006735Y003095D01*
X006735Y002941D02*
X006735Y002727D01*
X006414Y002727D01*
X006574Y002727D02*
X006574Y002834D01*
X006521Y002572D02*
X006468Y002572D01*
X006414Y002519D01*
X006414Y002412D01*
X006468Y002359D01*
X006574Y002466D02*
X006574Y002519D01*
X006521Y002572D01*
X006574Y002519D02*
X006628Y002572D01*
X006681Y002572D01*
X006735Y002519D01*
X006735Y002412D01*
X006681Y002359D01*
X006735Y002204D02*
X006521Y002204D01*
X006414Y002097D01*
X006521Y001991D01*
X006735Y001991D01*
X006681Y001836D02*
X006628Y001836D01*
X006574Y001782D01*
X006521Y001836D01*
X006468Y001836D01*
X006414Y001782D01*
X006414Y001676D01*
X006468Y001622D01*
X006574Y001729D02*
X006574Y001782D01*
X006681Y001836D02*
X006735Y001782D01*
X006735Y001676D01*
X006681Y001622D01*
X007440Y001090D02*
X007690Y001340D01*
X008190Y001340D01*
X008440Y001090D01*
X008690Y001340D01*
X009190Y001340D01*
X009440Y001090D01*
X009690Y001340D01*
X010190Y001340D01*
X010440Y001090D01*
X010440Y000590D01*
X010190Y000340D01*
X009690Y000340D01*
X009440Y000590D01*
X009440Y001090D01*
X009440Y000590D02*
X009190Y000340D01*
X008690Y000340D01*
X008440Y000590D01*
X008440Y001090D01*
X008440Y000590D02*
X008190Y000340D01*
X007690Y000340D01*
X007440Y000590D01*
X005440Y000590D02*
X005190Y000340D01*
X004690Y000340D01*
X004440Y000590D01*
X003440Y000590D02*
X003440Y001090D01*
X006414Y003202D02*
X006735Y003202D01*
X008290Y003250D02*
X009590Y003250D01*
X009590Y005830D01*
X008290Y005830D01*
X008290Y003250D01*
X010440Y001090D02*
X010690Y001340D01*
X011190Y001340D01*
X011440Y001090D01*
X011690Y001340D01*
X012190Y001340D01*
X012440Y001090D01*
X012690Y001340D01*
X013190Y001340D01*
X013440Y001090D01*
X013440Y000590D01*
X013190Y000340D01*
X012690Y000340D01*
X012440Y000590D01*
X012440Y001090D01*
X012440Y000590D02*
X012190Y000340D01*
X011690Y000340D01*
X011440Y000590D01*
X011440Y001090D01*
X011440Y000590D02*
X011190Y000340D01*
X010690Y000340D01*
X010440Y000590D01*
X012600Y001580D02*
X012600Y001794D01*
X012707Y001900D01*
X012814Y001794D01*
X012814Y001580D01*
X012814Y001740D02*
X012600Y001740D01*
X012969Y001687D02*
X012969Y001633D01*
X013022Y001580D01*
X013129Y001580D01*
X013182Y001633D01*
X013129Y001740D02*
X013022Y001740D01*
X012969Y001687D01*
X013129Y001740D02*
X013182Y001794D01*
X013182Y001847D01*
X013129Y001900D01*
X013022Y001900D01*
X012969Y001847D01*
X013337Y001740D02*
X013551Y001740D01*
X013705Y001847D02*
X013705Y001900D01*
X013705Y001847D02*
X013812Y001740D01*
X013812Y001580D01*
X013812Y001740D02*
X013919Y001847D01*
X013919Y001900D01*
X014074Y001847D02*
X014074Y001794D01*
X014127Y001740D01*
X014287Y001740D01*
X014442Y001740D02*
X014655Y001740D01*
X014810Y001633D02*
X014864Y001580D01*
X014970Y001580D01*
X015024Y001633D01*
X015024Y001847D01*
X014970Y001900D01*
X014864Y001900D01*
X014810Y001847D01*
X015179Y001847D02*
X015232Y001900D01*
X015339Y001900D01*
X015392Y001847D01*
X015392Y001633D01*
X015339Y001580D01*
X015232Y001580D01*
X015179Y001633D01*
X015190Y001340D02*
X014690Y001340D01*
X014440Y001090D01*
X014190Y001340D01*
X013690Y001340D01*
X013440Y001090D01*
X013440Y000590D02*
X013690Y000340D01*
X014190Y000340D01*
X014440Y000590D01*
X014690Y000340D01*
X015190Y000340D01*
X015440Y000590D01*
X015690Y000340D01*
X016190Y000340D01*
X016440Y000590D01*
X016440Y001090D01*
X016190Y001340D01*
X015690Y001340D01*
X015440Y001090D01*
X015190Y001340D01*
X015440Y001090D02*
X015440Y000590D01*
X014440Y000590D02*
X014440Y001090D01*
X014287Y001580D02*
X014127Y001580D01*
X014074Y001633D01*
X014074Y001687D01*
X014127Y001740D01*
X014287Y001580D02*
X014287Y001900D01*
X014127Y001900D01*
X014074Y001847D01*
X015891Y001794D02*
X015891Y001740D01*
X015945Y001740D01*
X015945Y001794D01*
X015891Y001794D01*
X016099Y001740D02*
X016099Y001687D01*
X016313Y001687D01*
X016313Y001740D02*
X016260Y001794D01*
X016153Y001794D01*
X016099Y001740D01*
X016153Y001580D02*
X016260Y001580D01*
X016313Y001633D01*
X016313Y001740D01*
X016468Y001794D02*
X016628Y001794D01*
X016681Y001740D01*
X016628Y001687D01*
X016521Y001687D01*
X016468Y001633D01*
X016521Y001580D01*
X016681Y001580D01*
X016836Y001580D02*
X016836Y001740D01*
X016889Y001794D01*
X017050Y001794D01*
X017050Y001580D01*
X017204Y001687D02*
X017418Y001687D01*
X017418Y001740D02*
X017364Y001794D01*
X017258Y001794D01*
X017204Y001740D01*
X017204Y001687D01*
X017258Y001580D02*
X017364Y001580D01*
X017418Y001633D01*
X017418Y001740D01*
X017573Y001794D02*
X017733Y001794D01*
X017786Y001740D01*
X017786Y001633D01*
X017733Y001580D01*
X017573Y001580D01*
X017925Y001580D02*
X018032Y001580D01*
X017978Y001580D02*
X017978Y001794D01*
X018032Y001794D01*
X017978Y001900D02*
X017978Y001954D01*
X018400Y001900D02*
X018400Y001580D01*
X018186Y001580D01*
X018190Y001340D02*
X017690Y001340D01*
X017440Y001090D01*
X017190Y001340D01*
X016690Y001340D01*
X016440Y001090D01*
X016440Y000590D02*
X016690Y000340D01*
X017190Y000340D01*
X017440Y000590D01*
X017690Y000340D01*
X018190Y000340D01*
X018440Y000590D01*
X018440Y001090D01*
X018190Y001340D01*
X017440Y001090D02*
X017440Y000590D01*
X015945Y001580D02*
X015945Y001633D01*
X015891Y001633D01*
X015891Y001580D01*
X015945Y001580D01*
X015547Y003125D02*
X015333Y003125D01*
X015280Y003178D01*
X015280Y003285D01*
X015333Y003339D01*
X015440Y003339D01*
X015440Y003232D01*
X015547Y003339D02*
X015600Y003285D01*
X015600Y003178D01*
X015547Y003125D01*
X015100Y003125D02*
X014887Y003125D01*
X014780Y003232D01*
X014887Y003339D01*
X015100Y003339D01*
X015100Y003493D02*
X014780Y003493D01*
X014780Y003654D01*
X014833Y003707D01*
X015047Y003707D01*
X015100Y003654D01*
X015100Y003493D01*
X015280Y003493D02*
X015600Y003493D01*
X015280Y003707D01*
X015600Y003707D01*
X015600Y003862D02*
X015600Y004022D01*
X015547Y004075D01*
X015333Y004075D01*
X015280Y004022D01*
X015280Y003862D01*
X015600Y003862D01*
X015100Y003862D02*
X015100Y004022D01*
X015047Y004075D01*
X014833Y004075D01*
X014780Y004022D01*
X014780Y003862D01*
X015100Y003862D01*
X014680Y004240D02*
X015680Y004240D01*
X015697Y004242D01*
X015714Y004246D01*
X015730Y004253D01*
X015744Y004263D01*
X015757Y004276D01*
X015767Y004290D01*
X015774Y004306D01*
X015778Y004323D01*
X015780Y004340D01*
X015780Y004940D01*
X015778Y004957D01*
X015774Y004974D01*
X015767Y004990D01*
X015757Y005004D01*
X015744Y005017D01*
X015730Y005027D01*
X015714Y005034D01*
X015697Y005038D01*
X015680Y005040D01*
X014680Y005040D01*
X014663Y005038D01*
X014646Y005034D01*
X014630Y005027D01*
X014616Y005017D01*
X014603Y005004D01*
X014593Y004990D01*
X014586Y004974D01*
X014582Y004957D01*
X014580Y004940D01*
X014580Y004340D01*
X014582Y004323D01*
X014586Y004306D01*
X014593Y004290D01*
X014603Y004276D01*
X014616Y004263D01*
X014630Y004253D01*
X014646Y004246D01*
X014663Y004242D01*
X014680Y004240D01*
X016015Y004430D02*
X016228Y004430D01*
X016228Y004750D01*
X016015Y004750D01*
X015900Y004910D02*
X017005Y004910D01*
X016965Y004750D02*
X016805Y004750D01*
X016751Y004697D01*
X016751Y004644D01*
X016805Y004590D01*
X016965Y004590D01*
X016805Y004590D02*
X016751Y004537D01*
X016751Y004483D01*
X016805Y004430D01*
X016965Y004430D01*
X016965Y004750D01*
X016597Y004697D02*
X016597Y004483D01*
X016543Y004430D01*
X016436Y004430D01*
X016383Y004483D01*
X016383Y004697D01*
X016436Y004750D01*
X016543Y004750D01*
X016597Y004697D01*
X016228Y004590D02*
X016122Y004590D01*
X013519Y006403D02*
X013470Y006397D01*
X013422Y006387D01*
X013375Y006374D01*
X013330Y006357D01*
X013285Y006337D01*
X013242Y006313D01*
X013201Y006286D01*
X013163Y006257D01*
X013126Y006224D01*
X013092Y006189D01*
X013061Y006152D01*
X013033Y006112D01*
X013007Y006070D01*
X012985Y006027D01*
X012966Y005982D01*
X012951Y005935D01*
X012939Y005888D01*
X012931Y005840D01*
X012926Y005791D01*
X012925Y005742D01*
X012928Y005694D01*
X012934Y005645D01*
X012944Y005597D01*
X012957Y005550D01*
X012974Y005505D01*
X012994Y005460D01*
X013018Y005417D01*
X013045Y005376D01*
X013046Y005377D02*
X013022Y005417D01*
X012994Y005455D01*
X012964Y005490D01*
X012931Y005522D01*
X012895Y005552D01*
X012856Y005578D01*
X012816Y005602D01*
X012774Y005621D01*
X012730Y005638D01*
X012685Y005650D01*
X012639Y005658D01*
X012593Y005663D01*
X012546Y005664D01*
X012500Y005661D01*
X012454Y005654D01*
X012409Y005643D01*
X012364Y005628D01*
X012322Y005610D01*
X012281Y005588D01*
X012241Y005562D01*
X012205Y005534D01*
X012170Y005502D01*
X012139Y005468D01*
X012110Y005431D01*
X012085Y005392D01*
X012063Y005351D01*
X012044Y005308D01*
X012030Y005264D01*
X012019Y005219D01*
X012020Y005262D01*
X012017Y005305D01*
X012010Y005348D01*
X012000Y005389D01*
X011986Y005430D01*
X011969Y005470D01*
X011948Y005507D01*
X011924Y005543D01*
X011897Y005576D01*
X011868Y005607D01*
X011835Y005636D01*
X011800Y005661D01*
X011764Y005683D01*
X011725Y005702D01*
X011685Y005718D01*
X011644Y005730D01*
X011601Y005738D01*
X011559Y005743D01*
X011516Y005744D01*
X011473Y005741D01*
X011430Y005734D01*
X011389Y005724D01*
X011348Y005710D01*
X011308Y005693D01*
X011151Y005851D02*
X011940Y005851D01*
X011624Y006245D02*
X011387Y006403D01*
X011940Y007429D02*
X011994Y007427D01*
X012047Y007422D01*
X012101Y007412D01*
X012153Y007400D01*
X012204Y007383D01*
X012254Y007364D01*
X012303Y007341D01*
X012350Y007314D01*
X012395Y007285D01*
X012438Y007252D01*
X012479Y007217D01*
X012517Y007179D01*
X012552Y007138D01*
X012585Y007095D01*
X012614Y007050D01*
X012641Y007003D01*
X012664Y006954D01*
X012683Y006904D01*
X012700Y006853D01*
X012712Y006801D01*
X012722Y006747D01*
X012727Y006694D01*
X012729Y006640D01*
X012808Y006640D01*
X011387Y006403D02*
X011370Y006473D01*
X011357Y006543D01*
X011348Y006614D01*
X011342Y006686D01*
X011340Y006758D01*
X011342Y006830D01*
X011348Y006902D01*
X011357Y006973D01*
X011370Y007043D01*
X011387Y007113D01*
X011387Y007114D02*
X011545Y007193D01*
X011730Y007035D02*
X011732Y007066D01*
X011738Y007096D01*
X011748Y007126D01*
X011761Y007154D01*
X011778Y007180D01*
X011798Y007203D01*
X011821Y007224D01*
X011847Y007242D01*
X011874Y007256D01*
X011903Y007267D01*
X011933Y007274D01*
X011964Y007277D01*
X011995Y007276D01*
X012026Y007271D01*
X012056Y007262D01*
X012084Y007250D01*
X012110Y007233D01*
X012135Y007214D01*
X012156Y007192D01*
X012175Y007167D01*
X012190Y007140D01*
X012202Y007111D01*
X012210Y007081D01*
X012214Y007051D01*
X012214Y007019D01*
X012210Y006989D01*
X012202Y006959D01*
X012190Y006930D01*
X012175Y006903D01*
X012156Y006878D01*
X012135Y006856D01*
X012110Y006837D01*
X012084Y006820D01*
X012056Y006808D01*
X012026Y006799D01*
X011995Y006794D01*
X011964Y006793D01*
X011933Y006796D01*
X011903Y006803D01*
X011874Y006814D01*
X011847Y006828D01*
X011821Y006846D01*
X011798Y006867D01*
X011778Y006890D01*
X011761Y006916D01*
X011748Y006944D01*
X011738Y006974D01*
X011732Y007004D01*
X011730Y007035D01*
X011972Y006956D02*
X011974Y006974D01*
X011980Y006990D01*
X011989Y007005D01*
X012002Y007018D01*
X012017Y007027D01*
X012033Y007033D01*
X012051Y007035D01*
X012069Y007033D01*
X012085Y007027D01*
X012100Y007018D01*
X012113Y007005D01*
X012122Y006990D01*
X012128Y006974D01*
X012130Y006956D01*
X012128Y006938D01*
X012122Y006922D01*
X012113Y006907D01*
X012100Y006894D01*
X012085Y006885D01*
X012069Y006879D01*
X012051Y006877D01*
X012033Y006879D01*
X012017Y006885D01*
X012002Y006894D01*
X011989Y006907D01*
X011980Y006922D01*
X011974Y006938D01*
X011972Y006956D01*
X012729Y006640D02*
X012727Y006586D01*
X012722Y006533D01*
X012712Y006479D01*
X012700Y006427D01*
X012683Y006376D01*
X012664Y006326D01*
X012641Y006277D01*
X012614Y006230D01*
X012585Y006185D01*
X012552Y006142D01*
X012517Y006101D01*
X012479Y006063D01*
X012438Y006028D01*
X012395Y005995D01*
X012350Y005966D01*
X012303Y005939D01*
X012254Y005916D01*
X012204Y005897D01*
X012153Y005880D01*
X012101Y005868D01*
X012047Y005858D01*
X011994Y005853D01*
X011940Y005851D01*
X011151Y005851D02*
X011151Y007429D01*
X011940Y007429D01*
X011862Y007982D02*
X011864Y007944D01*
X011863Y007906D01*
X011857Y007868D01*
X011848Y007831D01*
X011835Y007794D01*
X011819Y007760D01*
X011799Y007727D01*
X011776Y007697D01*
X011749Y007669D01*
X011721Y007644D01*
X011689Y007622D01*
X011656Y007603D01*
X011621Y007587D01*
X011585Y007576D01*
X011547Y007568D01*
X011509Y007564D01*
X011471Y007563D01*
X011433Y007567D01*
X011395Y007575D01*
X011359Y007586D01*
X011324Y007601D01*
X011290Y007619D01*
X011259Y007641D01*
X011229Y007666D01*
X011861Y007982D02*
X011877Y007946D01*
X011895Y007911D01*
X011917Y007878D01*
X011942Y007847D01*
X011969Y007819D01*
X011999Y007794D01*
X012032Y007771D01*
X012066Y007752D01*
X012102Y007735D01*
X012139Y007723D01*
X012178Y007713D01*
X012217Y007708D01*
X012256Y007706D01*
X012295Y007708D01*
X012334Y007713D01*
X012373Y007723D01*
X012410Y007735D01*
X012446Y007752D01*
X012480Y007771D01*
X012513Y007794D01*
X012543Y007819D01*
X012570Y007847D01*
X012595Y007878D01*
X012617Y007911D01*
X012635Y007946D01*
X012651Y007982D01*
X012650Y007982D02*
X012639Y007940D01*
X012631Y007898D01*
X012627Y007854D01*
X012628Y007811D01*
X012632Y007768D01*
X012640Y007725D01*
X012652Y007684D01*
X012667Y007643D01*
X012686Y007604D01*
X012709Y007567D01*
X012735Y007533D01*
X012763Y007500D01*
X012795Y007471D01*
X012829Y007444D01*
X012866Y007421D01*
X012904Y007401D01*
X012944Y007384D01*
X012986Y007371D01*
X013028Y007362D01*
X013071Y007357D01*
X013114Y007356D01*
X013158Y007359D01*
X013201Y007365D01*
X013243Y007376D01*
X013284Y007390D01*
X013323Y007408D01*
X013361Y007429D01*
X013360Y007430D02*
X013324Y007398D01*
X013290Y007364D01*
X013259Y007326D01*
X013232Y007287D01*
X013207Y007245D01*
X013186Y007202D01*
X013169Y007157D01*
X013155Y007111D01*
X013145Y007063D01*
X013138Y007015D01*
X013136Y006967D01*
X013138Y006919D01*
X013143Y006871D01*
X013152Y006823D01*
X013165Y006777D01*
X013182Y006731D01*
X013202Y006688D01*
X013226Y006646D01*
X013253Y006606D01*
X013284Y006568D01*
X013317Y006533D01*
X013353Y006500D01*
X013391Y006471D01*
X013432Y006445D01*
X013474Y006422D01*
X013519Y006403D01*
X012808Y006640D02*
X012810Y006665D01*
X012816Y006689D01*
X012825Y006712D01*
X012838Y006733D01*
X012854Y006752D01*
X012873Y006768D01*
X012894Y006781D01*
X012917Y006790D01*
X012941Y006796D01*
X012966Y006798D01*
X012991Y006796D01*
X013015Y006790D01*
X013038Y006781D01*
X013059Y006768D01*
X013078Y006752D01*
X013094Y006733D01*
X013107Y006712D01*
X013116Y006689D01*
X013122Y006665D01*
X013124Y006640D01*
X013122Y006615D01*
X013116Y006591D01*
X013107Y006568D01*
X013094Y006547D01*
X013078Y006528D01*
X013059Y006512D01*
X013038Y006499D01*
X013015Y006490D01*
X012991Y006484D01*
X012966Y006482D01*
X012941Y006484D01*
X012917Y006490D01*
X012894Y006499D01*
X012873Y006512D01*
X012854Y006528D01*
X012838Y006547D01*
X012825Y006568D01*
X012816Y006591D01*
X012810Y006615D01*
X012808Y006640D01*
X011624Y006245D02*
X011597Y006328D01*
X011573Y006412D01*
X011553Y006497D01*
X011538Y006583D01*
X011526Y006670D01*
X011519Y006757D01*
X011516Y006844D01*
X011517Y006932D01*
X011522Y007019D01*
X011532Y007106D01*
X011545Y007192D01*
X011703Y006482D02*
X011705Y006517D01*
X011711Y006552D01*
X011721Y006586D01*
X011734Y006619D01*
X011751Y006650D01*
X011772Y006679D01*
X011796Y006705D01*
X011822Y006729D01*
X011851Y006750D01*
X011882Y006767D01*
X011915Y006780D01*
X011949Y006790D01*
X011984Y006796D01*
X012019Y006798D01*
X012054Y006796D01*
X012089Y006790D01*
X012123Y006780D01*
X012156Y006767D01*
X012187Y006750D01*
X012216Y006729D01*
X012242Y006705D01*
X012266Y006679D01*
X012287Y006650D01*
X012304Y006619D01*
X012317Y006586D01*
X012327Y006552D01*
X012333Y006517D01*
X012335Y006482D01*
X012333Y006447D01*
X012327Y006412D01*
X012317Y006378D01*
X012304Y006345D01*
X012287Y006314D01*
X012266Y006285D01*
X012242Y006259D01*
X012216Y006235D01*
X012187Y006214D01*
X012156Y006197D01*
X012123Y006184D01*
X012089Y006174D01*
X012054Y006168D01*
X012019Y006166D01*
X011984Y006168D01*
X011949Y006174D01*
X011915Y006184D01*
X011882Y006197D01*
X011851Y006214D01*
X011822Y006235D01*
X011796Y006259D01*
X011772Y006285D01*
X011751Y006314D01*
X011734Y006345D01*
X011721Y006378D01*
X011711Y006412D01*
X011705Y006447D01*
X011703Y006482D01*
X012019Y006403D02*
X012021Y006424D01*
X012027Y006444D01*
X012036Y006464D01*
X012048Y006481D01*
X012063Y006495D01*
X012081Y006507D01*
X012101Y006515D01*
X012121Y006520D01*
X012142Y006521D01*
X012163Y006518D01*
X012183Y006512D01*
X012202Y006501D01*
X012219Y006488D01*
X012232Y006472D01*
X012243Y006454D01*
X012251Y006434D01*
X012255Y006414D01*
X012255Y006392D01*
X012251Y006372D01*
X012243Y006352D01*
X012232Y006334D01*
X012219Y006318D01*
X012202Y006305D01*
X012183Y006294D01*
X012163Y006288D01*
X012142Y006285D01*
X012121Y006286D01*
X012101Y006291D01*
X012081Y006299D01*
X012063Y006311D01*
X012048Y006325D01*
X012036Y006342D01*
X012027Y006362D01*
X012021Y006382D01*
X012019Y006403D01*
X012190Y008340D02*
X011690Y008340D01*
X011440Y008590D01*
X011440Y009090D01*
X011690Y009340D01*
X012190Y009340D01*
X012440Y009090D01*
X012690Y009340D01*
X013190Y009340D01*
X013440Y009090D01*
X013440Y008590D01*
X013190Y008340D01*
X012690Y008340D01*
X012440Y008590D01*
X012440Y009090D01*
X012440Y008590D02*
X012190Y008340D01*
X011440Y008590D02*
X011190Y008340D01*
X010690Y008340D01*
X010440Y008590D01*
X010440Y009090D01*
X010190Y009340D01*
X009690Y009340D01*
X009440Y009090D01*
X009190Y009340D01*
X008690Y009340D01*
X008440Y009090D01*
X008190Y009340D01*
X007690Y009340D01*
X007440Y009090D01*
X007190Y009340D01*
X006690Y009340D01*
X006440Y009090D01*
X006190Y009340D01*
X005690Y009340D01*
X005440Y009090D01*
X005190Y009340D01*
X004690Y009340D01*
X004440Y009090D01*
X004190Y009340D01*
X003690Y009340D01*
X003440Y009090D01*
X003190Y009340D01*
X002690Y009340D01*
X002440Y009090D01*
X002190Y009340D01*
X001690Y009340D01*
X001440Y009090D01*
X001190Y009340D01*
X000690Y009340D01*
X000440Y009090D01*
X000440Y008590D01*
X000690Y008340D01*
X001190Y008340D01*
X001440Y008590D01*
X001440Y009090D01*
X001440Y008590D02*
X001690Y008340D01*
X002190Y008340D01*
X002440Y008590D01*
X002440Y009090D01*
X002440Y008590D02*
X002690Y008340D01*
X003190Y008340D01*
X003440Y008590D01*
X003690Y008340D01*
X004190Y008340D01*
X004440Y008590D01*
X004440Y009090D01*
X004440Y008590D02*
X004690Y008340D01*
X005190Y008340D01*
X005440Y008590D01*
X005690Y008340D01*
X006190Y008340D01*
X006440Y008590D01*
X006690Y008340D01*
X007190Y008340D01*
X007440Y008590D01*
X007440Y009090D01*
X007440Y008590D02*
X007690Y008340D01*
X008190Y008340D01*
X008440Y008590D01*
X008690Y008340D01*
X009190Y008340D01*
X009440Y008590D01*
X009690Y008340D01*
X010190Y008340D01*
X010440Y008590D01*
X010440Y009090D02*
X010690Y009340D01*
X011190Y009340D01*
X011440Y009090D01*
X009440Y009090D02*
X009440Y008590D01*
X008440Y008590D02*
X008440Y009090D01*
X006440Y009090D02*
X006440Y008590D01*
X005440Y008590D02*
X005440Y009090D01*
X003440Y009090D02*
X003440Y008590D01*
X013440Y008590D02*
X013690Y008340D01*
X014190Y008340D01*
X014440Y008590D01*
X014690Y008340D01*
X015190Y008340D01*
X015440Y008590D01*
X015690Y008340D01*
X016190Y008340D01*
X016440Y008590D01*
X016440Y009090D01*
X016190Y009340D01*
X015690Y009340D01*
X015440Y009090D01*
X015190Y009340D01*
X014690Y009340D01*
X014440Y009090D01*
X014190Y009340D01*
X013690Y009340D01*
X013440Y009090D01*
X014440Y009090D02*
X014440Y008590D01*
X015440Y008590D02*
X015440Y009090D01*
X016440Y009090D02*
X016690Y009340D01*
X017190Y009340D01*
X017440Y009090D01*
X017690Y009340D01*
X018190Y009340D01*
X018440Y009090D01*
X018440Y008590D01*
X018190Y008340D01*
X017690Y008340D01*
X017440Y008590D01*
X017440Y009090D01*
X017440Y008590D02*
X017190Y008340D01*
X016690Y008340D01*
X016440Y008590D01*
D11*
X004796Y004645D03*
X004796Y003645D03*
D12*
X010955Y004010D02*
X011170Y004225D01*
X011485Y003969D01*
X011568Y004015D01*
X011655Y004051D01*
X011747Y004077D01*
X011788Y004481D01*
X012092Y004481D01*
X012133Y004077D01*
X012225Y004051D01*
X012312Y004015D01*
X012395Y003969D01*
X012710Y004225D01*
X012925Y004010D01*
X012669Y003695D01*
X012715Y003612D01*
X012751Y003525D01*
X012777Y003433D01*
X013181Y003392D01*
X013181Y003088D01*
X012777Y003047D01*
X012751Y002955D01*
X012715Y002868D01*
X012669Y002785D01*
X012925Y002470D01*
X012710Y002255D01*
X012395Y002511D01*
X012312Y002465D01*
X012225Y002429D01*
X012133Y002403D01*
X012092Y001999D01*
X011788Y001999D01*
X011747Y002403D01*
X011655Y002429D01*
X011568Y002465D01*
X011485Y002511D01*
X011170Y002255D01*
X010955Y002470D01*
X011211Y002785D01*
X011176Y002847D01*
X011146Y002911D01*
X011579Y003091D01*
X011609Y003032D01*
X011649Y002980D01*
X011696Y002935D01*
X011751Y002898D01*
X011811Y002871D01*
X011875Y002855D01*
X011940Y002849D01*
X012013Y002856D01*
X012083Y002877D01*
X012149Y002910D01*
X012207Y002955D01*
X012255Y003009D01*
X012293Y003072D01*
X012318Y003141D01*
X012330Y003213D01*
X012328Y003287D01*
X012312Y003358D01*
X012284Y003426D01*
X012243Y003487D01*
X012192Y003539D01*
X012131Y003580D01*
X012065Y003610D01*
X011993Y003627D01*
X011920Y003630D01*
X011848Y003620D01*
X011778Y003596D01*
X011715Y003559D01*
X011659Y003511D01*
X011613Y003454D01*
X011579Y003389D01*
X011146Y003569D01*
X011176Y003633D01*
X011211Y003695D01*
X010955Y004010D01*
X010978Y003982D02*
X011469Y003982D01*
X011508Y003982D02*
X012372Y003982D01*
X012411Y003982D02*
X012902Y003982D01*
X012855Y004080D02*
X012532Y004080D01*
X012653Y004179D02*
X012756Y004179D01*
X012822Y003883D02*
X011058Y003883D01*
X011139Y003785D02*
X012741Y003785D01*
X012674Y003686D02*
X011206Y003686D01*
X011155Y003588D02*
X011764Y003588D01*
X011641Y003489D02*
X011339Y003489D01*
X011577Y003391D02*
X011580Y003391D01*
X012116Y003588D02*
X012725Y003588D01*
X012761Y003489D02*
X012241Y003489D01*
X012299Y003391D02*
X013181Y003391D01*
X013181Y003292D02*
X012327Y003292D01*
X012326Y003194D02*
X013181Y003194D01*
X013181Y003095D02*
X012301Y003095D01*
X012244Y002997D02*
X012763Y002997D01*
X012727Y002898D02*
X012125Y002898D01*
X011751Y002898D02*
X011152Y002898D01*
X011203Y002800D02*
X012677Y002800D01*
X012737Y002701D02*
X011143Y002701D01*
X011063Y002603D02*
X012817Y002603D01*
X012898Y002504D02*
X012404Y002504D01*
X012382Y002504D02*
X011498Y002504D01*
X011476Y002504D02*
X010982Y002504D01*
X011020Y002406D02*
X011355Y002406D01*
X011234Y002307D02*
X011118Y002307D01*
X011737Y002406D02*
X012143Y002406D01*
X012124Y002307D02*
X011756Y002307D01*
X011766Y002209D02*
X012114Y002209D01*
X012104Y002110D02*
X011776Y002110D01*
X011786Y002012D02*
X012094Y002012D01*
X012646Y002307D02*
X012762Y002307D01*
X012860Y002406D02*
X012525Y002406D01*
X011636Y002997D02*
X011352Y002997D01*
X011348Y004080D02*
X011025Y004080D01*
X011124Y004179D02*
X011227Y004179D01*
X011747Y004080D02*
X012133Y004080D01*
X012123Y004179D02*
X011757Y004179D01*
X011767Y004277D02*
X012113Y004277D01*
X012103Y004376D02*
X011777Y004376D01*
X011787Y004474D02*
X012093Y004474D01*
M02*
