%
M48
M72
T01C0.0320
T02C0.0394
T03C0.0400
%
T01
X1680Y2180
X2680Y2180
X3680Y2180
X4680Y2180
X4680Y5180
X3680Y5180
X2680Y5180
X1680Y5180
T02
X5700Y2466
X5700Y694
X8260Y694
X8260Y2466
T03
X1680Y1180
X2680Y1180
X3680Y1180
X4680Y1180
X6680Y4480
X7680Y4480
X7680Y5480
X6680Y5480
X6680Y6480
X7680Y6480
X4680Y6180
X3680Y6180
X2680Y6180
X1680Y6180
M30
