G75*
G70*
%OFA0B0*%
%FSLAX24Y24*%
%IPPOS*%
%LPD*%
%AMOC8*
5,1,8,0,0,1.08239X$1,22.5*
%
%ADD10R,0.0394X0.0433*%
%ADD11C,0.0480*%
%ADD12R,0.0740X0.0740*%
%ADD13C,0.0740*%
%ADD14R,0.0945X0.0630*%
%ADD15R,0.0433X0.0394*%
%ADD16R,0.0660X0.0660*%
%ADD17OC8,0.0660*%
%ADD18OC8,0.0591*%
%ADD19C,0.0160*%
D10*
X001680Y003345D03*
X001680Y004015D03*
D11*
X001680Y005036D02*
X001680Y005324D01*
X002680Y005324D02*
X002680Y005036D01*
X003680Y005036D02*
X003680Y005324D01*
X004680Y005324D02*
X004680Y005036D01*
X004680Y002324D02*
X004680Y002036D01*
X003680Y002036D02*
X003680Y002324D01*
X002680Y002324D02*
X002680Y002036D01*
X001680Y002036D02*
X001680Y002324D01*
D12*
X001680Y001180D03*
X001680Y006180D03*
D13*
X002680Y006180D03*
X003680Y006180D03*
X004680Y006180D03*
X004680Y001180D03*
X003680Y001180D03*
X002680Y001180D03*
D14*
X004680Y003089D03*
X004680Y004271D03*
D15*
X002680Y004015D03*
X002680Y003345D03*
D16*
X006680Y006480D03*
D17*
X007680Y006480D03*
X007680Y005480D03*
X006680Y005480D03*
X006680Y004480D03*
X007680Y004480D03*
D18*
X008260Y002466D03*
X008260Y000694D03*
X005700Y000694D03*
X005700Y002466D03*
D19*
X000410Y000410D02*
X000410Y006950D01*
X004139Y006950D01*
X004060Y006871D01*
X003850Y006661D01*
X003781Y006690D01*
X003579Y006690D01*
X003391Y006612D01*
X003248Y006469D01*
X003180Y006306D01*
X003112Y006469D01*
X002969Y006612D01*
X002781Y006690D01*
X002579Y006690D01*
X002391Y006612D01*
X002248Y006469D01*
X002190Y006330D01*
X002190Y006608D01*
X002108Y006690D01*
X001252Y006690D01*
X001170Y006608D01*
X001170Y005752D01*
X001252Y005670D01*
X001460Y005670D01*
X001460Y005641D01*
X001358Y005539D01*
X001300Y005400D01*
X001300Y004960D01*
X001358Y004821D01*
X001460Y004719D01*
X001460Y004371D01*
X001425Y004371D01*
X001343Y004289D01*
X001343Y003740D01*
X001376Y003708D01*
X001373Y003706D01*
X001339Y003672D01*
X001315Y003631D01*
X001303Y003586D01*
X001303Y003364D01*
X001662Y003364D01*
X001662Y003327D01*
X001698Y003327D01*
X001698Y002949D01*
X001901Y002949D01*
X001946Y002961D01*
X001987Y002985D01*
X002021Y003018D01*
X002045Y003059D01*
X002057Y003105D01*
X002057Y003327D01*
X001698Y003327D01*
X001698Y003364D01*
X002057Y003364D01*
X002057Y003586D01*
X002045Y003631D01*
X002021Y003672D01*
X001987Y003706D01*
X001984Y003708D01*
X002017Y003740D01*
X002017Y003795D01*
X002323Y003795D01*
X002323Y003760D01*
X002403Y003680D01*
X002323Y003600D01*
X002323Y003300D01*
X001728Y002704D01*
X001604Y002704D01*
X001465Y002646D01*
X001358Y002539D01*
X001300Y002400D01*
X001300Y001960D01*
X001358Y001821D01*
X001460Y001719D01*
X001460Y001690D01*
X001252Y001690D01*
X001170Y001608D01*
X001170Y000752D01*
X001252Y000670D01*
X002108Y000670D01*
X002190Y000752D01*
X002190Y001030D01*
X002248Y000891D01*
X002391Y000748D01*
X002579Y000670D01*
X002781Y000670D01*
X002969Y000748D01*
X003112Y000891D01*
X003180Y001054D01*
X003248Y000891D01*
X003391Y000748D01*
X003579Y000670D01*
X003781Y000670D01*
X003969Y000748D01*
X004112Y000891D01*
X004159Y001004D01*
X004170Y000969D01*
X004210Y000892D01*
X004260Y000822D01*
X004322Y000760D01*
X004392Y000710D01*
X004469Y000670D01*
X004551Y000644D01*
X004637Y000630D01*
X004660Y000630D01*
X004660Y001160D01*
X004700Y001160D01*
X004700Y001200D01*
X004660Y001200D01*
X004660Y001616D01*
X004680Y001616D01*
X004700Y001616D01*
X004700Y001200D01*
X005230Y001200D01*
X005230Y001223D01*
X005216Y001309D01*
X005190Y001391D01*
X005150Y001468D01*
X005100Y001538D01*
X005038Y001600D01*
X004968Y001650D01*
X004907Y001682D01*
X004954Y001716D01*
X005000Y001762D01*
X005039Y001816D01*
X005069Y001875D01*
X005090Y001938D01*
X005100Y002003D01*
X005100Y002180D01*
X005100Y002357D01*
X005090Y002422D01*
X005069Y002485D01*
X005039Y002544D01*
X005003Y002594D01*
X005176Y002594D01*
X005222Y002607D01*
X005263Y002630D01*
X005265Y002633D01*
X005265Y002286D01*
X005520Y002031D01*
X005881Y002031D01*
X006136Y002286D01*
X006136Y002646D01*
X005881Y002901D01*
X005520Y002901D01*
X005315Y002696D01*
X005320Y002705D01*
X005332Y002751D01*
X005332Y003012D01*
X004757Y003012D01*
X004757Y002737D01*
X004713Y002744D01*
X004680Y002744D01*
X004680Y002180D01*
X004680Y002180D01*
X005100Y002180D01*
X004680Y002180D01*
X004680Y002180D01*
X004680Y001616D01*
X004680Y002180D01*
X004680Y002180D01*
X004680Y002744D01*
X004647Y002744D01*
X004603Y002737D01*
X004603Y003012D01*
X004757Y003012D01*
X004757Y003167D01*
X005332Y003167D01*
X005332Y003428D01*
X005324Y003460D01*
X005971Y003460D01*
X006521Y004010D01*
X006875Y004010D01*
X007150Y004285D01*
X007150Y004675D01*
X006875Y004950D01*
X006485Y004950D01*
X006210Y004675D01*
X006210Y004321D01*
X005789Y003900D01*
X005292Y003900D01*
X005292Y004281D01*
X005471Y004460D01*
X005600Y004589D01*
X005600Y005289D01*
X006071Y005760D01*
X006295Y005760D01*
X006210Y005675D01*
X006210Y005285D01*
X006485Y005010D01*
X006875Y005010D01*
X007150Y005285D01*
X007150Y005675D01*
X007065Y005760D01*
X007271Y005760D01*
X007400Y005889D01*
X007521Y006010D01*
X007875Y006010D01*
X008150Y006285D01*
X008150Y006675D01*
X007875Y006950D01*
X007485Y006950D01*
X007210Y006675D01*
X007210Y006321D01*
X007150Y006261D01*
X007150Y006868D01*
X007068Y006950D01*
X006521Y006950D01*
X008550Y006950D01*
X008550Y002791D01*
X008440Y002901D01*
X008079Y002901D01*
X007824Y002646D01*
X007824Y002286D01*
X008079Y002031D01*
X008440Y002031D01*
X008550Y002141D01*
X008550Y001076D01*
X008456Y001169D01*
X008278Y001169D01*
X008278Y000713D01*
X008241Y000713D01*
X008241Y001169D01*
X008063Y001169D01*
X007784Y000891D01*
X007784Y000713D01*
X008241Y000713D01*
X008241Y000676D01*
X007784Y000676D01*
X007784Y000497D01*
X007872Y000410D01*
X006088Y000410D01*
X006176Y000497D01*
X006176Y000676D01*
X005719Y000676D01*
X005719Y000713D01*
X005682Y000713D01*
X005682Y001169D01*
X005504Y001169D01*
X005225Y000891D01*
X005225Y000713D01*
X005682Y000713D01*
X005682Y000676D01*
X005225Y000676D01*
X005225Y000497D01*
X005313Y000410D01*
X000410Y000410D01*
X000410Y000497D02*
X005226Y000497D01*
X005225Y000656D02*
X004846Y000656D01*
X004809Y000644D02*
X004891Y000670D01*
X004968Y000710D01*
X005038Y000760D01*
X005100Y000822D01*
X005150Y000892D01*
X005190Y000969D01*
X005216Y001051D01*
X005230Y001137D01*
X005230Y001160D01*
X004700Y001160D01*
X004700Y000630D01*
X004723Y000630D01*
X004809Y000644D01*
X004700Y000656D02*
X004660Y000656D01*
X004514Y000656D02*
X000410Y000656D01*
X000410Y000814D02*
X001170Y000814D01*
X001170Y000973D02*
X000410Y000973D01*
X000410Y001131D02*
X001170Y001131D01*
X001170Y001290D02*
X000410Y001290D01*
X000410Y001448D02*
X001170Y001448D01*
X001170Y001607D02*
X000410Y001607D01*
X000410Y001765D02*
X001414Y001765D01*
X001315Y001924D02*
X000410Y001924D01*
X000410Y002082D02*
X001300Y002082D01*
X001300Y002241D02*
X000410Y002241D01*
X000410Y002399D02*
X001300Y002399D01*
X001376Y002558D02*
X000410Y002558D01*
X000410Y002716D02*
X001740Y002716D01*
X001898Y002875D02*
X000410Y002875D01*
X000410Y003033D02*
X001331Y003033D01*
X001339Y003018D02*
X001315Y003059D01*
X001303Y003105D01*
X001303Y003327D01*
X001662Y003327D01*
X001662Y002949D01*
X001459Y002949D01*
X001414Y002961D01*
X001373Y002985D01*
X001339Y003018D01*
X001303Y003192D02*
X000410Y003192D01*
X000410Y003350D02*
X001662Y003350D01*
X001698Y003350D02*
X002323Y003350D01*
X002323Y003509D02*
X002057Y003509D01*
X002024Y003667D02*
X002390Y003667D01*
X002680Y003345D02*
X003545Y003345D01*
X003880Y003680D01*
X005880Y003680D01*
X006680Y004480D01*
X007007Y004143D02*
X007296Y004143D01*
X007170Y004269D02*
X007469Y003970D01*
X007660Y003970D01*
X007660Y004460D01*
X007170Y004460D01*
X007170Y004269D01*
X007170Y004301D02*
X007150Y004301D01*
X007150Y004460D02*
X007170Y004460D01*
X007170Y004500D02*
X007660Y004500D01*
X007660Y004990D01*
X007469Y004990D01*
X007170Y004691D01*
X007170Y004500D01*
X007170Y004618D02*
X007150Y004618D01*
X007048Y004777D02*
X007255Y004777D01*
X007414Y004935D02*
X006890Y004935D01*
X006958Y005094D02*
X007402Y005094D01*
X007485Y005010D02*
X007875Y005010D01*
X008150Y005285D01*
X008150Y005675D01*
X007875Y005950D01*
X007485Y005950D01*
X007210Y005675D01*
X007210Y005285D01*
X007485Y005010D01*
X007660Y004935D02*
X007700Y004935D01*
X007700Y004990D02*
X007700Y004500D01*
X007660Y004500D01*
X007660Y004460D01*
X007700Y004460D01*
X007700Y004500D01*
X008190Y004500D01*
X008190Y004691D01*
X007891Y004990D01*
X007700Y004990D01*
X007700Y004777D02*
X007660Y004777D01*
X007660Y004618D02*
X007700Y004618D01*
X007700Y004460D02*
X008190Y004460D01*
X008190Y004269D01*
X007891Y003970D01*
X007700Y003970D01*
X007700Y004460D01*
X007660Y004460D01*
X007660Y004301D02*
X007700Y004301D01*
X007700Y004143D02*
X007660Y004143D01*
X007660Y003984D02*
X007700Y003984D01*
X007905Y003984D02*
X008550Y003984D01*
X008550Y004143D02*
X008064Y004143D01*
X008190Y004301D02*
X008550Y004301D01*
X008550Y004460D02*
X008190Y004460D01*
X008190Y004618D02*
X008550Y004618D01*
X008550Y004777D02*
X008105Y004777D01*
X007946Y004935D02*
X008550Y004935D01*
X008550Y005094D02*
X007958Y005094D01*
X008117Y005252D02*
X008550Y005252D01*
X008550Y005411D02*
X008150Y005411D01*
X008150Y005569D02*
X008550Y005569D01*
X008550Y005728D02*
X008097Y005728D01*
X007939Y005886D02*
X008550Y005886D01*
X008550Y006045D02*
X007909Y006045D01*
X008068Y006203D02*
X008550Y006203D01*
X008550Y006362D02*
X008150Y006362D01*
X008150Y006520D02*
X008550Y006520D01*
X008550Y006679D02*
X008146Y006679D01*
X007988Y006837D02*
X008550Y006837D01*
X007680Y006480D02*
X007180Y005980D01*
X005980Y005980D01*
X005380Y005380D01*
X005380Y004680D01*
X004971Y004271D01*
X004680Y004271D01*
X002936Y004271D01*
X002680Y004015D01*
X001680Y004015D01*
X001680Y005180D01*
X001680Y006180D01*
X001170Y006203D02*
X000410Y006203D01*
X000410Y006045D02*
X001170Y006045D01*
X001170Y005886D02*
X000410Y005886D01*
X000410Y005728D02*
X001195Y005728D01*
X001388Y005569D02*
X000410Y005569D01*
X000410Y005411D02*
X001305Y005411D01*
X001300Y005252D02*
X000410Y005252D01*
X000410Y005094D02*
X001300Y005094D01*
X001311Y004935D02*
X000410Y004935D01*
X000410Y004777D02*
X001402Y004777D01*
X001460Y004618D02*
X000410Y004618D01*
X000410Y004460D02*
X001460Y004460D01*
X001355Y004301D02*
X000410Y004301D01*
X000410Y004143D02*
X001343Y004143D01*
X001343Y003984D02*
X000410Y003984D01*
X000410Y003826D02*
X001343Y003826D01*
X001336Y003667D02*
X000410Y003667D01*
X000410Y003509D02*
X001303Y003509D01*
X001662Y003192D02*
X001698Y003192D01*
X001698Y003033D02*
X001662Y003033D01*
X002029Y003033D02*
X002057Y003033D01*
X002057Y003192D02*
X002215Y003192D01*
X002520Y002875D02*
X004028Y002875D01*
X004028Y002751D02*
X004028Y003012D01*
X004603Y003012D01*
X004603Y003167D01*
X004028Y003167D01*
X004028Y003428D01*
X004036Y003460D01*
X003971Y003460D01*
X003636Y003125D01*
X003037Y003125D01*
X003037Y003091D01*
X002955Y003009D01*
X002654Y003009D01*
X002056Y002410D01*
X002060Y002400D01*
X002060Y001960D01*
X002002Y001821D01*
X001900Y001719D01*
X001900Y001690D01*
X002108Y001690D01*
X002190Y001608D01*
X002190Y001330D01*
X002248Y001469D01*
X002391Y001612D01*
X002460Y001641D01*
X002460Y001719D01*
X002358Y001821D01*
X002300Y001960D01*
X002300Y002400D01*
X002358Y002539D01*
X002465Y002646D01*
X002604Y002704D01*
X002756Y002704D01*
X002895Y002646D01*
X003002Y002539D01*
X003060Y002400D01*
X003060Y001960D01*
X003002Y001821D01*
X002900Y001719D01*
X002900Y001641D01*
X002969Y001612D01*
X003112Y001469D01*
X003180Y001306D01*
X003248Y001469D01*
X003391Y001612D01*
X003460Y001641D01*
X003460Y001719D01*
X003358Y001821D01*
X003300Y001960D01*
X003300Y002400D01*
X003358Y002539D01*
X003465Y002646D01*
X003604Y002704D01*
X003756Y002704D01*
X003895Y002646D01*
X004002Y002539D01*
X004060Y002400D01*
X004060Y001960D01*
X004002Y001821D01*
X003900Y001719D01*
X003900Y001641D01*
X003969Y001612D01*
X004112Y001469D01*
X004159Y001356D01*
X004170Y001391D01*
X004210Y001468D01*
X004260Y001538D01*
X004322Y001600D01*
X004392Y001650D01*
X004453Y001682D01*
X004406Y001716D01*
X004360Y001762D01*
X004321Y001816D01*
X004291Y001875D01*
X004270Y001938D01*
X004260Y002003D01*
X004260Y002180D01*
X004680Y002180D01*
X004680Y002180D01*
X004260Y002180D01*
X004260Y002357D01*
X004270Y002422D01*
X004291Y002485D01*
X004321Y002544D01*
X004357Y002594D01*
X004184Y002594D01*
X004138Y002607D01*
X004097Y002630D01*
X004064Y002664D01*
X004040Y002705D01*
X004028Y002751D01*
X004037Y002716D02*
X002362Y002716D01*
X002376Y002558D02*
X002203Y002558D01*
X002300Y002399D02*
X002060Y002399D01*
X002060Y002241D02*
X002300Y002241D01*
X002300Y002082D02*
X002060Y002082D01*
X002045Y001924D02*
X002315Y001924D01*
X002414Y001765D02*
X001946Y001765D01*
X002190Y001607D02*
X002385Y001607D01*
X002239Y001448D02*
X002190Y001448D01*
X002190Y000973D02*
X002214Y000973D01*
X002190Y000814D02*
X002325Y000814D01*
X002680Y001180D02*
X002680Y002180D01*
X003060Y002241D02*
X003300Y002241D01*
X003300Y002399D02*
X003060Y002399D01*
X002984Y002558D02*
X003376Y002558D01*
X003680Y002180D02*
X003680Y001180D01*
X004035Y000814D02*
X004268Y000814D01*
X004169Y000973D02*
X004146Y000973D01*
X004121Y001448D02*
X004199Y001448D01*
X004331Y001607D02*
X003975Y001607D01*
X003946Y001765D02*
X004358Y001765D01*
X004275Y001924D02*
X004045Y001924D01*
X004060Y002082D02*
X004260Y002082D01*
X004260Y002241D02*
X004060Y002241D01*
X004060Y002399D02*
X004267Y002399D01*
X004331Y002558D02*
X003984Y002558D01*
X004603Y002875D02*
X004757Y002875D01*
X004757Y003033D02*
X008550Y003033D01*
X008550Y002875D02*
X008466Y002875D01*
X008550Y003192D02*
X005332Y003192D01*
X005332Y003350D02*
X008550Y003350D01*
X008550Y003509D02*
X006020Y003509D01*
X006178Y003667D02*
X008550Y003667D01*
X008550Y003826D02*
X006337Y003826D01*
X006495Y003984D02*
X007455Y003984D01*
X006470Y004935D02*
X005600Y004935D01*
X005600Y005094D02*
X006402Y005094D01*
X006243Y005252D02*
X005600Y005252D01*
X005722Y005411D02*
X006210Y005411D01*
X006210Y005569D02*
X005880Y005569D01*
X006039Y005728D02*
X006263Y005728D01*
X007097Y005728D02*
X007263Y005728D01*
X007210Y005569D02*
X007150Y005569D01*
X007150Y005411D02*
X007210Y005411D01*
X007243Y005252D02*
X007117Y005252D01*
X007397Y005886D02*
X007421Y005886D01*
X007400Y005889D02*
X007400Y005889D01*
X007210Y006362D02*
X007150Y006362D01*
X007150Y006520D02*
X007210Y006520D01*
X007214Y006679D02*
X007150Y006679D01*
X007150Y006837D02*
X007372Y006837D01*
X006680Y006480D02*
X006380Y006780D01*
X004280Y006780D01*
X003680Y006180D01*
X003680Y005180D01*
X002680Y005180D02*
X002680Y006180D01*
X003157Y006362D02*
X003203Y006362D01*
X003299Y006520D02*
X003061Y006520D01*
X002809Y006679D02*
X003551Y006679D01*
X003809Y006679D02*
X003867Y006679D01*
X004026Y006837D02*
X000410Y006837D01*
X000410Y006679D02*
X001241Y006679D01*
X001170Y006520D02*
X000410Y006520D01*
X000410Y006362D02*
X001170Y006362D01*
X002119Y006679D02*
X002551Y006679D01*
X002299Y006520D02*
X002190Y006520D01*
X002190Y006362D02*
X002203Y006362D01*
X004680Y006180D02*
X004680Y005180D01*
X005600Y004777D02*
X006312Y004777D01*
X006210Y004618D02*
X005600Y004618D01*
X005471Y004460D02*
X006210Y004460D01*
X006190Y004301D02*
X005312Y004301D01*
X005292Y004143D02*
X006031Y004143D01*
X005873Y003984D02*
X005292Y003984D01*
X004603Y003033D02*
X002979Y003033D01*
X002680Y003345D02*
X001680Y002345D01*
X001680Y002180D01*
X001680Y001180D01*
X002975Y001607D02*
X003385Y001607D01*
X003414Y001765D02*
X002946Y001765D01*
X003045Y001924D02*
X003315Y001924D01*
X003300Y002082D02*
X003060Y002082D01*
X003121Y001448D02*
X003239Y001448D01*
X003214Y000973D02*
X003146Y000973D01*
X003035Y000814D02*
X003325Y000814D01*
X004660Y000814D02*
X004700Y000814D01*
X004700Y000973D02*
X004660Y000973D01*
X004660Y001131D02*
X004700Y001131D01*
X004700Y001290D02*
X004660Y001290D01*
X004660Y001448D02*
X004700Y001448D01*
X004700Y001607D02*
X004660Y001607D01*
X004680Y001765D02*
X004680Y001765D01*
X004680Y001924D02*
X004680Y001924D01*
X004680Y002082D02*
X004680Y002082D01*
X004680Y002241D02*
X004680Y002241D01*
X004680Y002399D02*
X004680Y002399D01*
X004680Y002558D02*
X004680Y002558D01*
X004680Y002716D02*
X004680Y002716D01*
X005029Y002558D02*
X005265Y002558D01*
X005265Y002399D02*
X005093Y002399D01*
X005100Y002241D02*
X005310Y002241D01*
X005469Y002082D02*
X005100Y002082D01*
X005085Y001924D02*
X008550Y001924D01*
X008550Y002082D02*
X008491Y002082D01*
X008550Y001765D02*
X005002Y001765D01*
X005029Y001607D02*
X008550Y001607D01*
X008550Y001448D02*
X005161Y001448D01*
X005220Y001290D02*
X008550Y001290D01*
X008550Y001131D02*
X008495Y001131D01*
X008278Y001131D02*
X008241Y001131D01*
X008241Y000973D02*
X008278Y000973D01*
X008278Y000814D02*
X008241Y000814D01*
X008024Y001131D02*
X005936Y001131D01*
X005897Y001169D02*
X005719Y001169D01*
X005719Y000713D01*
X006176Y000713D01*
X006176Y000891D01*
X005897Y001169D01*
X005719Y001131D02*
X005682Y001131D01*
X005682Y000973D02*
X005719Y000973D01*
X005719Y000814D02*
X005682Y000814D01*
X005465Y001131D02*
X005229Y001131D01*
X005191Y000973D02*
X005307Y000973D01*
X005225Y000814D02*
X005092Y000814D01*
X006094Y000973D02*
X007866Y000973D01*
X007784Y000814D02*
X006176Y000814D01*
X006176Y000656D02*
X007784Y000656D01*
X007785Y000497D02*
X006175Y000497D01*
X005932Y002082D02*
X008028Y002082D01*
X007869Y002241D02*
X006091Y002241D01*
X006136Y002399D02*
X007824Y002399D01*
X007824Y002558D02*
X006136Y002558D01*
X006066Y002716D02*
X007894Y002716D01*
X008053Y002875D02*
X005907Y002875D01*
X005494Y002875D02*
X005332Y002875D01*
X005323Y002716D02*
X005335Y002716D01*
X004028Y003192D02*
X003703Y003192D01*
X003861Y003350D02*
X004028Y003350D01*
X006521Y006950D02*
X006521Y006950D01*
M02*
