G75*
G70*
%OFA0B0*%
%FSLAX24Y24*%
%IPPOS*%
%LPD*%
%AMOC8*
5,1,8,0,0,1.08239X$1,22.5*
%
%ADD10R,0.0394X0.0433*%
%ADD11R,0.0433X0.0394*%
%ADD12OC8,0.0660*%
%ADD13R,0.0709X0.0630*%
%ADD14R,0.0787X0.0945*%
%ADD15OC8,0.0600*%
%ADD16OC8,0.0709*%
%ADD17C,0.0100*%
%ADD18C,0.0160*%
%ADD19C,0.0270*%
%ADD20C,0.0120*%
D10*
X001750Y002915D03*
X001750Y003585D03*
D11*
X003615Y002850D03*
X004285Y002850D03*
X004915Y002850D03*
X005585Y002850D03*
X006450Y002615D03*
X006450Y003285D03*
D12*
X008850Y003850D03*
X009850Y003850D03*
X009850Y004850D03*
X008850Y004850D03*
X008850Y005850D03*
X009850Y005850D03*
D13*
X002450Y003801D03*
X002450Y002699D03*
D14*
X003863Y003850D03*
X005437Y003850D03*
D15*
X005850Y005850D03*
X004850Y005850D03*
X003850Y005850D03*
X002850Y005850D03*
X001850Y005850D03*
X000850Y005850D03*
X000850Y003850D03*
X000850Y002850D03*
X000850Y000850D03*
X001850Y000850D03*
X002850Y000850D03*
X003850Y000850D03*
X004850Y000850D03*
X005850Y000850D03*
X006850Y000850D03*
X006850Y005850D03*
D16*
X007972Y001050D03*
X010728Y001050D03*
D17*
X010935Y000347D02*
X000665Y000347D01*
X000664Y000400D02*
X001036Y000400D01*
X001300Y000664D01*
X001300Y001036D01*
X001036Y001300D01*
X000664Y001300D01*
X000400Y001036D01*
X000400Y000664D01*
X000664Y000400D01*
X000618Y000446D02*
X000567Y000446D01*
X000520Y000544D02*
X000468Y000544D01*
X000421Y000643D02*
X000370Y000643D01*
X000300Y000712D02*
X000300Y005988D01*
X000712Y006400D01*
X010888Y006400D01*
X011300Y005988D01*
X011300Y000712D01*
X010888Y000300D01*
X000712Y000300D01*
X000300Y000712D01*
X000300Y000741D02*
X000400Y000741D01*
X000400Y000840D02*
X000300Y000840D01*
X000300Y000938D02*
X000400Y000938D01*
X000400Y001037D02*
X000300Y001037D01*
X000300Y001135D02*
X000499Y001135D01*
X000597Y001234D02*
X000300Y001234D01*
X000300Y001332D02*
X007541Y001332D01*
X007468Y001259D02*
X007468Y000841D01*
X007763Y000546D01*
X008181Y000546D01*
X008476Y000841D01*
X008476Y001259D01*
X008181Y001554D01*
X008172Y001554D01*
X008172Y002342D01*
X007898Y002615D01*
X008653Y003370D01*
X009049Y003370D01*
X009330Y003651D01*
X009330Y004049D01*
X009188Y004191D01*
X009260Y004263D01*
X009509Y004512D01*
X009651Y004370D01*
X010049Y004370D01*
X010330Y004651D01*
X010330Y005049D01*
X010049Y005330D01*
X009651Y005330D01*
X009560Y005239D01*
X009560Y005263D01*
X009667Y005370D01*
X010049Y005370D01*
X010330Y005651D01*
X010330Y006049D01*
X010049Y006330D01*
X009651Y006330D01*
X009370Y006049D01*
X009370Y005667D01*
X009263Y005560D01*
X009140Y005437D01*
X009140Y005239D01*
X009049Y005330D01*
X008651Y005330D01*
X008381Y005060D01*
X006937Y005060D01*
X006300Y005697D01*
X006300Y006036D01*
X006036Y006300D01*
X005664Y006300D01*
X005400Y006036D01*
X005400Y005664D01*
X005664Y005400D01*
X006003Y005400D01*
X006640Y004763D01*
X006763Y004640D01*
X008381Y004640D01*
X008461Y004560D01*
X008363Y004560D01*
X007298Y003495D01*
X006817Y003495D01*
X006817Y003544D01*
X006729Y003631D01*
X006680Y003631D01*
X006680Y003645D01*
X006570Y003756D01*
X006570Y003807D01*
X006526Y003911D01*
X006446Y003992D01*
X006341Y004035D01*
X006228Y004035D01*
X006123Y003992D01*
X006043Y003911D01*
X006000Y003807D01*
X006000Y003693D01*
X006043Y003589D01*
X006086Y003546D01*
X006083Y003544D01*
X006083Y003026D01*
X006159Y002950D01*
X006096Y002887D01*
X006023Y002857D01*
X005951Y002785D01*
X005951Y002802D01*
X005633Y002802D01*
X005633Y002898D01*
X005951Y002898D01*
X005951Y003067D01*
X005941Y003105D01*
X006083Y003105D01*
X006103Y003007D02*
X005951Y003007D01*
X005941Y003105D02*
X005921Y003139D01*
X005893Y003167D01*
X005859Y003187D01*
X005821Y003197D01*
X005633Y003197D01*
X005633Y002898D01*
X005536Y002898D01*
X005536Y003197D01*
X005348Y003197D01*
X005310Y003187D01*
X005276Y003167D01*
X005250Y003141D01*
X005244Y003147D01*
X005325Y003228D01*
X005893Y003228D01*
X005981Y003315D01*
X005981Y004385D01*
X005893Y004472D01*
X004982Y004472D01*
X004894Y004385D01*
X004894Y003435D01*
X004893Y003435D01*
X004789Y003392D01*
X004708Y003311D01*
X004665Y003207D01*
X004665Y003197D01*
X004637Y003197D01*
X004600Y003160D01*
X004593Y003167D01*
X004559Y003187D01*
X004521Y003197D01*
X004333Y003197D01*
X004333Y002898D01*
X004236Y002898D01*
X004236Y003197D01*
X004048Y003197D01*
X004010Y003187D01*
X003976Y003167D01*
X003950Y003141D01*
X003894Y003197D01*
X003825Y003197D01*
X003825Y003228D01*
X004318Y003228D01*
X004406Y003315D01*
X004406Y004385D01*
X004318Y004472D01*
X003407Y004472D01*
X003319Y004385D01*
X003319Y003315D01*
X003405Y003229D01*
X003405Y003197D01*
X003337Y003197D01*
X003275Y003135D01*
X003193Y003135D01*
X003089Y003092D01*
X003008Y003011D01*
X002965Y002907D01*
X002965Y002905D01*
X002954Y002931D01*
X002954Y003076D01*
X002866Y003164D01*
X002097Y003164D01*
X002097Y003194D01*
X002041Y003250D01*
X002067Y003276D01*
X002087Y003310D01*
X002094Y003336D01*
X002400Y003336D01*
X002400Y003751D01*
X002500Y003751D01*
X002500Y003336D01*
X002824Y003336D01*
X002862Y003346D01*
X002896Y003366D01*
X002924Y003394D01*
X002944Y003428D01*
X002954Y003466D01*
X002954Y003751D01*
X002500Y003751D01*
X002500Y003851D01*
X002954Y003851D01*
X002954Y004136D01*
X002944Y004174D01*
X002924Y004208D01*
X002896Y004236D01*
X002862Y004256D01*
X002824Y004266D01*
X002500Y004266D01*
X002500Y003851D01*
X002400Y003851D01*
X002400Y004266D01*
X002076Y004266D01*
X002038Y004256D01*
X002004Y004236D01*
X001976Y004208D01*
X001956Y004174D01*
X001946Y004136D01*
X001946Y003951D01*
X001798Y003951D01*
X001798Y003633D01*
X001702Y003633D01*
X001702Y003951D01*
X001533Y003951D01*
X001495Y003941D01*
X001461Y003921D01*
X001433Y003893D01*
X000900Y003893D01*
X000900Y003900D02*
X001300Y003900D01*
X001300Y004036D01*
X001036Y004300D01*
X000900Y004300D01*
X000900Y003900D01*
X000800Y003900D01*
X000800Y004300D01*
X000664Y004300D01*
X000400Y004036D01*
X000400Y003900D01*
X000800Y003900D01*
X000800Y003800D01*
X000400Y003800D01*
X000400Y003664D01*
X000664Y003400D01*
X000800Y003400D01*
X000800Y003800D01*
X000900Y003800D01*
X000900Y003900D01*
X000900Y003992D02*
X000800Y003992D01*
X000800Y003893D02*
X000300Y003893D01*
X000300Y003795D02*
X000400Y003795D01*
X000400Y003696D02*
X000300Y003696D01*
X000300Y003598D02*
X000466Y003598D01*
X000565Y003499D02*
X000300Y003499D01*
X000300Y003401D02*
X000663Y003401D01*
X000664Y003300D02*
X000400Y003036D01*
X000400Y002664D01*
X000664Y002400D01*
X001036Y002400D01*
X001256Y002620D01*
X001420Y002620D01*
X001491Y002549D01*
X001946Y002549D01*
X001946Y002322D01*
X002034Y002234D01*
X002866Y002234D01*
X002954Y002322D01*
X002954Y002669D01*
X002985Y002743D01*
X002985Y002745D01*
X003008Y002689D01*
X003089Y002608D01*
X003193Y002565D01*
X003275Y002565D01*
X003337Y002503D01*
X003894Y002503D01*
X003950Y002559D01*
X003976Y002533D01*
X004010Y002513D01*
X004048Y002503D01*
X004236Y002503D01*
X004236Y002802D01*
X004333Y002802D01*
X004333Y002503D01*
X004521Y002503D01*
X004559Y002513D01*
X004593Y002533D01*
X004600Y002540D01*
X004637Y002503D01*
X005194Y002503D01*
X005250Y002559D01*
X005276Y002533D01*
X005310Y002513D01*
X005348Y002503D01*
X005536Y002503D01*
X005536Y002802D01*
X005633Y002802D01*
X005633Y002503D01*
X005821Y002503D01*
X005859Y002513D01*
X005893Y002533D01*
X005905Y002545D01*
X005943Y002454D01*
X006023Y002374D01*
X006096Y002343D01*
X006171Y002269D01*
X006729Y002269D01*
X006817Y002356D01*
X006817Y002415D01*
X007533Y002415D01*
X007772Y002176D01*
X007772Y001554D01*
X007763Y001554D01*
X007468Y001259D01*
X007468Y001234D02*
X007103Y001234D01*
X007036Y001300D02*
X006664Y001300D01*
X006400Y001036D01*
X006400Y000664D01*
X006664Y000400D01*
X007036Y000400D01*
X007300Y000664D01*
X007300Y001036D01*
X007036Y001300D01*
X007201Y001135D02*
X007468Y001135D01*
X007468Y001037D02*
X007300Y001037D01*
X007300Y000938D02*
X007468Y000938D01*
X007469Y000840D02*
X007300Y000840D01*
X007300Y000741D02*
X007568Y000741D01*
X007666Y000643D02*
X007279Y000643D01*
X007180Y000544D02*
X011132Y000544D01*
X011034Y000643D02*
X011230Y000643D01*
X011300Y000741D02*
X011132Y000741D01*
X011231Y000840D02*
X011300Y000840D01*
X011232Y000841D02*
X011232Y001000D01*
X010778Y001000D01*
X010778Y001100D01*
X011232Y001100D01*
X011232Y001259D01*
X010937Y001554D01*
X010778Y001554D01*
X010778Y001100D01*
X010678Y001100D01*
X010678Y001554D01*
X010519Y001554D01*
X010224Y001259D01*
X010224Y001100D01*
X010678Y001100D01*
X010678Y001000D01*
X010778Y001000D01*
X010778Y000546D01*
X010937Y000546D01*
X011232Y000841D01*
X011232Y000938D02*
X011300Y000938D01*
X011300Y001037D02*
X010778Y001037D01*
X010778Y001135D02*
X010678Y001135D01*
X010678Y001037D02*
X008476Y001037D01*
X008476Y001135D02*
X010224Y001135D01*
X010224Y001234D02*
X008476Y001234D01*
X008403Y001332D02*
X010297Y001332D01*
X010395Y001431D02*
X008305Y001431D01*
X008206Y001529D02*
X010494Y001529D01*
X010678Y001529D02*
X010778Y001529D01*
X010778Y001431D02*
X010678Y001431D01*
X010678Y001332D02*
X010778Y001332D01*
X010778Y001234D02*
X010678Y001234D01*
X010678Y001000D02*
X010224Y001000D01*
X010224Y000841D01*
X010519Y000546D01*
X010678Y000546D01*
X010678Y001000D01*
X010678Y000938D02*
X010778Y000938D01*
X010778Y000840D02*
X010678Y000840D01*
X010678Y000741D02*
X010778Y000741D01*
X010778Y000643D02*
X010678Y000643D01*
X010422Y000643D02*
X008278Y000643D01*
X008376Y000741D02*
X010324Y000741D01*
X010225Y000840D02*
X008475Y000840D01*
X008476Y000938D02*
X010224Y000938D01*
X011033Y000446D02*
X007082Y000446D01*
X006618Y000446D02*
X006082Y000446D01*
X006036Y000400D02*
X006300Y000664D01*
X006300Y001036D01*
X006036Y001300D01*
X005664Y001300D01*
X005400Y001036D01*
X005400Y000664D01*
X005664Y000400D01*
X006036Y000400D01*
X006180Y000544D02*
X006520Y000544D01*
X006421Y000643D02*
X006279Y000643D01*
X006300Y000741D02*
X006400Y000741D01*
X006400Y000840D02*
X006300Y000840D01*
X006300Y000938D02*
X006400Y000938D01*
X006400Y001037D02*
X006300Y001037D01*
X006201Y001135D02*
X006499Y001135D01*
X006597Y001234D02*
X006103Y001234D01*
X005597Y001234D02*
X005103Y001234D01*
X005036Y001300D02*
X004664Y001300D01*
X004400Y001036D01*
X004400Y000664D01*
X004664Y000400D01*
X005036Y000400D01*
X005300Y000664D01*
X005300Y001036D01*
X005036Y001300D01*
X005201Y001135D02*
X005499Y001135D01*
X005400Y001037D02*
X005300Y001037D01*
X005300Y000938D02*
X005400Y000938D01*
X005400Y000840D02*
X005300Y000840D01*
X005300Y000741D02*
X005400Y000741D01*
X005421Y000643D02*
X005279Y000643D01*
X005180Y000544D02*
X005520Y000544D01*
X005618Y000446D02*
X005082Y000446D01*
X004618Y000446D02*
X004082Y000446D01*
X004036Y000400D02*
X004300Y000664D01*
X004300Y001036D01*
X004036Y001300D01*
X003664Y001300D01*
X003400Y001036D01*
X003400Y000664D01*
X003664Y000400D01*
X004036Y000400D01*
X004180Y000544D02*
X004520Y000544D01*
X004421Y000643D02*
X004279Y000643D01*
X004300Y000741D02*
X004400Y000741D01*
X004400Y000840D02*
X004300Y000840D01*
X004300Y000938D02*
X004400Y000938D01*
X004400Y001037D02*
X004300Y001037D01*
X004201Y001135D02*
X004499Y001135D01*
X004597Y001234D02*
X004103Y001234D01*
X003597Y001234D02*
X003103Y001234D01*
X003036Y001300D02*
X002664Y001300D01*
X002400Y001036D01*
X002400Y000664D01*
X002664Y000400D01*
X003036Y000400D01*
X003300Y000664D01*
X003300Y001036D01*
X003036Y001300D01*
X003201Y001135D02*
X003499Y001135D01*
X003400Y001037D02*
X003300Y001037D01*
X003300Y000938D02*
X003400Y000938D01*
X003400Y000840D02*
X003300Y000840D01*
X003300Y000741D02*
X003400Y000741D01*
X003421Y000643D02*
X003279Y000643D01*
X003180Y000544D02*
X003520Y000544D01*
X003618Y000446D02*
X003082Y000446D01*
X002618Y000446D02*
X002082Y000446D01*
X002036Y000400D02*
X002300Y000664D01*
X002300Y001036D01*
X002036Y001300D01*
X001664Y001300D01*
X001400Y001036D01*
X001400Y000664D01*
X001664Y000400D01*
X002036Y000400D01*
X002180Y000544D02*
X002520Y000544D01*
X002421Y000643D02*
X002279Y000643D01*
X002300Y000741D02*
X002400Y000741D01*
X002400Y000840D02*
X002300Y000840D01*
X002300Y000938D02*
X002400Y000938D01*
X002400Y001037D02*
X002300Y001037D01*
X002201Y001135D02*
X002499Y001135D01*
X002597Y001234D02*
X002103Y001234D01*
X001597Y001234D02*
X001103Y001234D01*
X001201Y001135D02*
X001499Y001135D01*
X001400Y001037D02*
X001300Y001037D01*
X001300Y000938D02*
X001400Y000938D01*
X001400Y000840D02*
X001300Y000840D01*
X001300Y000741D02*
X001400Y000741D01*
X001421Y000643D02*
X001279Y000643D01*
X001180Y000544D02*
X001520Y000544D01*
X001618Y000446D02*
X001082Y000446D01*
X000300Y001431D02*
X007639Y001431D01*
X007738Y001529D02*
X000300Y001529D01*
X000300Y001628D02*
X007772Y001628D01*
X007772Y001726D02*
X000300Y001726D01*
X000300Y001825D02*
X007772Y001825D01*
X007772Y001923D02*
X000300Y001923D01*
X000300Y002022D02*
X007772Y002022D01*
X007772Y002120D02*
X000300Y002120D01*
X000300Y002219D02*
X007729Y002219D01*
X007631Y002317D02*
X006777Y002317D01*
X006450Y002615D02*
X007615Y002615D01*
X007972Y002259D01*
X007972Y001050D01*
X008172Y001628D02*
X011300Y001628D01*
X011300Y001726D02*
X008172Y001726D01*
X008172Y001825D02*
X011300Y001825D01*
X011300Y001923D02*
X008172Y001923D01*
X008172Y002022D02*
X011300Y002022D01*
X011300Y002120D02*
X008172Y002120D01*
X008172Y002219D02*
X011300Y002219D01*
X011300Y002317D02*
X008172Y002317D01*
X008098Y002416D02*
X011300Y002416D01*
X011300Y002514D02*
X008000Y002514D01*
X007901Y002613D02*
X011300Y002613D01*
X011300Y002711D02*
X007994Y002711D01*
X008092Y002810D02*
X011300Y002810D01*
X011300Y002908D02*
X008191Y002908D01*
X008289Y003007D02*
X011300Y003007D01*
X011300Y003105D02*
X008388Y003105D01*
X008486Y003204D02*
X011300Y003204D01*
X011300Y003302D02*
X008585Y003302D01*
X009079Y003401D02*
X009621Y003401D01*
X009651Y003370D02*
X009370Y003651D01*
X009370Y003800D01*
X009800Y003800D01*
X009800Y003900D01*
X009800Y004330D01*
X009651Y004330D01*
X009370Y004049D01*
X009370Y003900D01*
X009800Y003900D01*
X009900Y003900D01*
X009900Y004330D01*
X010049Y004330D01*
X010330Y004049D01*
X010330Y003900D01*
X009900Y003900D01*
X009900Y003800D01*
X010330Y003800D01*
X010330Y003651D01*
X010049Y003370D01*
X009900Y003370D01*
X009900Y003800D01*
X009800Y003800D01*
X009800Y003370D01*
X009651Y003370D01*
X009800Y003401D02*
X009900Y003401D01*
X010079Y003401D02*
X011300Y003401D01*
X011300Y003499D02*
X010178Y003499D01*
X010276Y003598D02*
X011300Y003598D01*
X011300Y003696D02*
X010330Y003696D01*
X010330Y003795D02*
X011300Y003795D01*
X011300Y003893D02*
X009900Y003893D01*
X009900Y003795D02*
X009800Y003795D01*
X009800Y003893D02*
X009330Y003893D01*
X009330Y003795D02*
X009370Y003795D01*
X009370Y003696D02*
X009330Y003696D01*
X009276Y003598D02*
X009424Y003598D01*
X009522Y003499D02*
X009178Y003499D01*
X008850Y003850D02*
X007615Y002615D01*
X006450Y002615D02*
X006185Y002615D01*
X005918Y002514D02*
X005860Y002514D01*
X005981Y002416D02*
X002954Y002416D01*
X002954Y002514D02*
X003326Y002514D01*
X003084Y002613D02*
X002954Y002613D01*
X002972Y002711D02*
X002999Y002711D01*
X002966Y002908D02*
X002964Y002908D01*
X002954Y003007D02*
X003006Y003007D01*
X002925Y003105D02*
X003121Y003105D01*
X003332Y003302D02*
X002082Y003302D01*
X002087Y003204D02*
X003405Y003204D01*
X003319Y003401D02*
X002928Y003401D01*
X002954Y003499D02*
X003319Y003499D01*
X003319Y003598D02*
X002954Y003598D01*
X002954Y003696D02*
X003319Y003696D01*
X003319Y003795D02*
X002500Y003795D01*
X002500Y003893D02*
X002400Y003893D01*
X002400Y003992D02*
X002500Y003992D01*
X002500Y004090D02*
X002400Y004090D01*
X002400Y004189D02*
X002500Y004189D01*
X002936Y004189D02*
X003319Y004189D01*
X003319Y004287D02*
X001049Y004287D01*
X001148Y004189D02*
X001964Y004189D01*
X001946Y004090D02*
X001246Y004090D01*
X001300Y003992D02*
X001946Y003992D01*
X001798Y003893D02*
X001702Y003893D01*
X001702Y003795D02*
X001798Y003795D01*
X001798Y003696D02*
X001702Y003696D01*
X001702Y003633D02*
X001702Y003536D01*
X001403Y003536D01*
X001403Y003348D01*
X001413Y003310D01*
X001433Y003276D01*
X001459Y003250D01*
X001403Y003194D01*
X001403Y003080D01*
X001256Y003080D01*
X001036Y003300D01*
X000664Y003300D01*
X000567Y003204D02*
X000300Y003204D01*
X000300Y003302D02*
X001418Y003302D01*
X001413Y003204D02*
X001133Y003204D01*
X001231Y003105D02*
X001403Y003105D01*
X001403Y003401D02*
X001037Y003401D01*
X001036Y003400D02*
X001300Y003664D01*
X001300Y003800D01*
X000900Y003800D01*
X000900Y003400D01*
X001036Y003400D01*
X000900Y003401D02*
X000800Y003401D01*
X000800Y003499D02*
X000900Y003499D01*
X000900Y003598D02*
X000800Y003598D01*
X000800Y003696D02*
X000900Y003696D01*
X000900Y003795D02*
X000800Y003795D01*
X000400Y003992D02*
X000300Y003992D01*
X000300Y004090D02*
X000454Y004090D01*
X000552Y004189D02*
X000300Y004189D01*
X000300Y004287D02*
X000651Y004287D01*
X000800Y004287D02*
X000900Y004287D01*
X000900Y004189D02*
X000800Y004189D01*
X000800Y004090D02*
X000900Y004090D01*
X001300Y003795D02*
X001403Y003795D01*
X001403Y003821D02*
X001403Y003633D01*
X001702Y003633D01*
X001702Y003598D02*
X001234Y003598D01*
X001300Y003696D02*
X001403Y003696D01*
X001403Y003821D02*
X001413Y003859D01*
X001433Y003893D01*
X001403Y003499D02*
X001135Y003499D01*
X000469Y003105D02*
X000300Y003105D01*
X000300Y003007D02*
X000400Y003007D01*
X000400Y002908D02*
X000300Y002908D01*
X000300Y002810D02*
X000400Y002810D01*
X000400Y002711D02*
X000300Y002711D01*
X000300Y002613D02*
X000451Y002613D01*
X000550Y002514D02*
X000300Y002514D01*
X000300Y002416D02*
X000648Y002416D01*
X000300Y002317D02*
X001950Y002317D01*
X001946Y002416D02*
X001052Y002416D01*
X001150Y002514D02*
X001946Y002514D01*
X001427Y002613D02*
X001249Y002613D01*
X002400Y003401D02*
X002500Y003401D01*
X002500Y003499D02*
X002400Y003499D01*
X002400Y003598D02*
X002500Y003598D01*
X002500Y003696D02*
X002400Y003696D01*
X002954Y003893D02*
X003319Y003893D01*
X003319Y003992D02*
X002954Y003992D01*
X002954Y004090D02*
X003319Y004090D01*
X003320Y004386D02*
X000300Y004386D01*
X000300Y004484D02*
X008287Y004484D01*
X008189Y004386D02*
X005980Y004386D01*
X005981Y004287D02*
X008090Y004287D01*
X007992Y004189D02*
X005981Y004189D01*
X005981Y004090D02*
X007893Y004090D01*
X007795Y003992D02*
X006446Y003992D01*
X006534Y003893D02*
X007696Y003893D01*
X007598Y003795D02*
X006570Y003795D01*
X006629Y003696D02*
X007499Y003696D01*
X007401Y003598D02*
X006763Y003598D01*
X006817Y003499D02*
X007302Y003499D01*
X006083Y003499D02*
X005981Y003499D01*
X005981Y003598D02*
X006039Y003598D01*
X006000Y003696D02*
X005981Y003696D01*
X005981Y003795D02*
X006000Y003795D01*
X005981Y003893D02*
X006035Y003893D01*
X005981Y003992D02*
X006123Y003992D01*
X006083Y003401D02*
X005981Y003401D01*
X005968Y003302D02*
X006083Y003302D01*
X006083Y003204D02*
X005300Y003204D01*
X005536Y003105D02*
X005633Y003105D01*
X005633Y003007D02*
X005536Y003007D01*
X005536Y002908D02*
X005633Y002908D01*
X005633Y002810D02*
X005976Y002810D01*
X005951Y002908D02*
X006117Y002908D01*
X005633Y002711D02*
X005536Y002711D01*
X005536Y002613D02*
X005633Y002613D01*
X005633Y002514D02*
X005536Y002514D01*
X005309Y002514D02*
X005205Y002514D01*
X004626Y002514D02*
X004560Y002514D01*
X004333Y002514D02*
X004236Y002514D01*
X004236Y002613D02*
X004333Y002613D01*
X004333Y002711D02*
X004236Y002711D01*
X004236Y002908D02*
X004333Y002908D01*
X004333Y003007D02*
X004236Y003007D01*
X004236Y003105D02*
X004333Y003105D01*
X004393Y003302D02*
X004704Y003302D01*
X004665Y003204D02*
X003825Y003204D01*
X004406Y003401D02*
X004810Y003401D01*
X004894Y003499D02*
X004406Y003499D01*
X004406Y003598D02*
X004894Y003598D01*
X004894Y003696D02*
X004406Y003696D01*
X004406Y003795D02*
X004894Y003795D01*
X004894Y003893D02*
X004406Y003893D01*
X004406Y003992D02*
X004894Y003992D01*
X004894Y004090D02*
X004406Y004090D01*
X004406Y004189D02*
X004894Y004189D01*
X004894Y004287D02*
X004406Y004287D01*
X004405Y004386D02*
X004895Y004386D01*
X006230Y005174D02*
X000300Y005174D01*
X000300Y005075D02*
X006328Y005075D01*
X006427Y004977D02*
X000300Y004977D01*
X000300Y004878D02*
X006525Y004878D01*
X006624Y004780D02*
X000300Y004780D01*
X000300Y004681D02*
X006722Y004681D01*
X006640Y004763D02*
X006640Y004763D01*
X006922Y005075D02*
X008396Y005075D01*
X008495Y005174D02*
X006823Y005174D01*
X006725Y005272D02*
X008593Y005272D01*
X008651Y005370D02*
X009049Y005370D01*
X009330Y005651D01*
X009330Y006049D01*
X009049Y006330D01*
X008651Y006330D01*
X008370Y006049D01*
X008370Y005651D01*
X008651Y005370D01*
X008651Y005371D02*
X006626Y005371D01*
X006664Y005400D02*
X007036Y005400D01*
X007300Y005664D01*
X007300Y006036D01*
X007036Y006300D01*
X006664Y006300D01*
X006400Y006036D01*
X006400Y005664D01*
X006664Y005400D01*
X006595Y005469D02*
X006528Y005469D01*
X006496Y005568D02*
X006429Y005568D01*
X006400Y005666D02*
X006331Y005666D01*
X006300Y005765D02*
X006400Y005765D01*
X006400Y005863D02*
X006300Y005863D01*
X006300Y005962D02*
X006400Y005962D01*
X006424Y006060D02*
X006276Y006060D01*
X006178Y006159D02*
X006522Y006159D01*
X006621Y006257D02*
X006079Y006257D01*
X005621Y006257D02*
X005079Y006257D01*
X005036Y006300D02*
X004664Y006300D01*
X004400Y006036D01*
X004400Y005664D01*
X004664Y005400D01*
X005036Y005400D01*
X005300Y005664D01*
X005300Y006036D01*
X005036Y006300D01*
X005178Y006159D02*
X005522Y006159D01*
X005424Y006060D02*
X005276Y006060D01*
X005300Y005962D02*
X005400Y005962D01*
X005400Y005863D02*
X005300Y005863D01*
X005300Y005765D02*
X005400Y005765D01*
X005400Y005666D02*
X005300Y005666D01*
X005204Y005568D02*
X005496Y005568D01*
X005595Y005469D02*
X005105Y005469D01*
X004595Y005469D02*
X004105Y005469D01*
X004036Y005400D02*
X004300Y005664D01*
X004300Y006036D01*
X004036Y006300D01*
X003664Y006300D01*
X003400Y006036D01*
X003400Y005664D01*
X003664Y005400D01*
X004036Y005400D01*
X004204Y005568D02*
X004496Y005568D01*
X004400Y005666D02*
X004300Y005666D01*
X004300Y005765D02*
X004400Y005765D01*
X004400Y005863D02*
X004300Y005863D01*
X004300Y005962D02*
X004400Y005962D01*
X004424Y006060D02*
X004276Y006060D01*
X004178Y006159D02*
X004522Y006159D01*
X004621Y006257D02*
X004079Y006257D01*
X003621Y006257D02*
X003079Y006257D01*
X003036Y006300D02*
X002664Y006300D01*
X002400Y006036D01*
X002400Y005664D01*
X002664Y005400D01*
X003036Y005400D01*
X003300Y005664D01*
X003300Y006036D01*
X003036Y006300D01*
X003178Y006159D02*
X003522Y006159D01*
X003424Y006060D02*
X003276Y006060D01*
X003300Y005962D02*
X003400Y005962D01*
X003400Y005863D02*
X003300Y005863D01*
X003300Y005765D02*
X003400Y005765D01*
X003400Y005666D02*
X003300Y005666D01*
X003204Y005568D02*
X003496Y005568D01*
X003595Y005469D02*
X003105Y005469D01*
X002595Y005469D02*
X002105Y005469D01*
X002036Y005400D02*
X002300Y005664D01*
X002300Y006036D01*
X002036Y006300D01*
X001664Y006300D01*
X001400Y006036D01*
X001400Y005664D01*
X001664Y005400D01*
X002036Y005400D01*
X002204Y005568D02*
X002496Y005568D01*
X002400Y005666D02*
X002300Y005666D01*
X002300Y005765D02*
X002400Y005765D01*
X002400Y005863D02*
X002300Y005863D01*
X002300Y005962D02*
X002400Y005962D01*
X002424Y006060D02*
X002276Y006060D01*
X002178Y006159D02*
X002522Y006159D01*
X002621Y006257D02*
X002079Y006257D01*
X001621Y006257D02*
X001079Y006257D01*
X001036Y006300D02*
X000900Y006300D01*
X000900Y005900D01*
X001300Y005900D01*
X001300Y006036D01*
X001036Y006300D01*
X000900Y006257D02*
X000800Y006257D01*
X000800Y006300D02*
X000664Y006300D01*
X000400Y006036D01*
X000400Y005900D01*
X000800Y005900D01*
X000800Y006300D01*
X000668Y006356D02*
X010932Y006356D01*
X011031Y006257D02*
X010122Y006257D01*
X010220Y006159D02*
X011129Y006159D01*
X011228Y006060D02*
X010319Y006060D01*
X010330Y005962D02*
X011300Y005962D01*
X011300Y005863D02*
X010330Y005863D01*
X010330Y005765D02*
X011300Y005765D01*
X011300Y005666D02*
X010330Y005666D01*
X010246Y005568D02*
X011300Y005568D01*
X011300Y005469D02*
X010148Y005469D01*
X010049Y005371D02*
X011300Y005371D01*
X011300Y005272D02*
X010107Y005272D01*
X010205Y005174D02*
X011300Y005174D01*
X011300Y005075D02*
X010304Y005075D01*
X010330Y004977D02*
X011300Y004977D01*
X011300Y004878D02*
X010330Y004878D01*
X010330Y004780D02*
X011300Y004780D01*
X011300Y004681D02*
X010330Y004681D01*
X010261Y004583D02*
X011300Y004583D01*
X011300Y004484D02*
X010163Y004484D01*
X010064Y004386D02*
X011300Y004386D01*
X011300Y004287D02*
X010092Y004287D01*
X010190Y004189D02*
X011300Y004189D01*
X011300Y004090D02*
X010289Y004090D01*
X010330Y003992D02*
X011300Y003992D01*
X009900Y003992D02*
X009800Y003992D01*
X009800Y004090D02*
X009900Y004090D01*
X009900Y004189D02*
X009800Y004189D01*
X009800Y004287D02*
X009900Y004287D01*
X009636Y004386D02*
X009382Y004386D01*
X009481Y004484D02*
X009537Y004484D01*
X009608Y004287D02*
X009284Y004287D01*
X009190Y004189D02*
X009510Y004189D01*
X009411Y004090D02*
X009289Y004090D01*
X009330Y003992D02*
X009370Y003992D01*
X009800Y003696D02*
X009900Y003696D01*
X009900Y003598D02*
X009800Y003598D01*
X009800Y003499D02*
X009900Y003499D01*
X008439Y004583D02*
X000300Y004583D01*
X000300Y005272D02*
X006131Y005272D01*
X006033Y005371D02*
X000300Y005371D01*
X000300Y005469D02*
X000595Y005469D01*
X000664Y005400D02*
X000800Y005400D01*
X000800Y005800D01*
X000900Y005800D01*
X000900Y005900D01*
X000800Y005900D01*
X000800Y005800D01*
X000400Y005800D01*
X000400Y005664D01*
X000664Y005400D01*
X000800Y005469D02*
X000900Y005469D01*
X000900Y005400D02*
X001036Y005400D01*
X001300Y005664D01*
X001300Y005800D01*
X000900Y005800D01*
X000900Y005400D01*
X000900Y005568D02*
X000800Y005568D01*
X000800Y005666D02*
X000900Y005666D01*
X000900Y005765D02*
X000800Y005765D01*
X000800Y005863D02*
X000300Y005863D01*
X000300Y005962D02*
X000400Y005962D01*
X000424Y006060D02*
X000372Y006060D01*
X000471Y006159D02*
X000522Y006159D01*
X000569Y006257D02*
X000621Y006257D01*
X000800Y006159D02*
X000900Y006159D01*
X000900Y006060D02*
X000800Y006060D01*
X000800Y005962D02*
X000900Y005962D01*
X000900Y005863D02*
X001400Y005863D01*
X001400Y005962D02*
X001300Y005962D01*
X001276Y006060D02*
X001424Y006060D01*
X001522Y006159D02*
X001178Y006159D01*
X001300Y005765D02*
X001400Y005765D01*
X001400Y005666D02*
X001300Y005666D01*
X001204Y005568D02*
X001496Y005568D01*
X001595Y005469D02*
X001105Y005469D01*
X000496Y005568D02*
X000300Y005568D01*
X000300Y005666D02*
X000400Y005666D01*
X000400Y005765D02*
X000300Y005765D01*
X003905Y002514D02*
X004009Y002514D01*
X002950Y002317D02*
X006123Y002317D01*
X009107Y005272D02*
X009140Y005272D01*
X009140Y005371D02*
X009049Y005371D01*
X009148Y005469D02*
X009172Y005469D01*
X009246Y005568D02*
X009271Y005568D01*
X009330Y005666D02*
X009369Y005666D01*
X009370Y005765D02*
X009330Y005765D01*
X009330Y005863D02*
X009370Y005863D01*
X009370Y005962D02*
X009330Y005962D01*
X009319Y006060D02*
X009381Y006060D01*
X009480Y006159D02*
X009220Y006159D01*
X009122Y006257D02*
X009578Y006257D01*
X008578Y006257D02*
X007079Y006257D01*
X007178Y006159D02*
X008480Y006159D01*
X008381Y006060D02*
X007276Y006060D01*
X007300Y005962D02*
X008370Y005962D01*
X008370Y005863D02*
X007300Y005863D01*
X007300Y005765D02*
X008370Y005765D01*
X008370Y005666D02*
X007300Y005666D01*
X007204Y005568D02*
X008454Y005568D01*
X008552Y005469D02*
X007105Y005469D01*
X009569Y005272D02*
X009593Y005272D01*
X010962Y001529D02*
X011300Y001529D01*
X011300Y001431D02*
X011061Y001431D01*
X011159Y001332D02*
X011300Y001332D01*
X011300Y001234D02*
X011232Y001234D01*
X011232Y001135D02*
X011300Y001135D01*
D18*
X006450Y003285D02*
X006450Y003550D01*
X006250Y003750D01*
X006285Y003750D01*
X003615Y002850D02*
X003250Y002850D01*
X002700Y002800D02*
X002491Y002800D01*
X002450Y002699D01*
X002159Y002850D01*
X001815Y002850D01*
X001750Y002915D01*
X001685Y002850D01*
X000850Y002850D01*
D19*
X002700Y002800D03*
X003250Y002850D03*
X004950Y003150D03*
X006185Y002615D03*
X006285Y003750D03*
D20*
X006450Y003285D02*
X007385Y003285D01*
X008450Y004350D01*
X009050Y004350D01*
X009350Y004650D01*
X009350Y005350D01*
X009850Y005850D01*
X008850Y004850D02*
X006850Y004850D01*
X005850Y005850D01*
X005437Y003850D02*
X005437Y003637D01*
X004950Y003150D01*
X004950Y002885D01*
X004915Y002850D01*
X003615Y002850D02*
X003615Y003603D01*
X003863Y003850D01*
M02*
