G75*
G70*
%OFA0B0*%
%FSLAX24Y24*%
%IPPOS*%
%LPD*%
%AMOC8*
5,1,8,0,0,1.08239X$1,22.5*
%
%ADD10R,0.0680X0.0680*%
%ADD11OC8,0.0680*%
%ADD12R,0.0552X0.0297*%
%ADD13R,0.0513X0.0474*%
%ADD14R,0.0330X0.0580*%
%ADD15R,0.0474X0.0513*%
%ADD16R,0.0552X0.0316*%
%ADD17C,0.0966*%
D10*
X001160Y000860D03*
X006160Y000860D03*
D11*
X007160Y000860D03*
X004160Y000860D03*
X003160Y000860D03*
X002160Y000860D03*
D12*
X004798Y007986D03*
X004798Y008360D03*
X004798Y008734D03*
X005822Y008734D03*
X005822Y007986D03*
D13*
X005675Y007360D03*
X006345Y007360D03*
X005345Y009460D03*
X004675Y009460D03*
X002995Y010160D03*
X002325Y010160D03*
D14*
X005010Y006460D03*
X005360Y006460D03*
X005710Y006460D03*
D15*
X004995Y007360D03*
X004325Y007360D03*
D16*
X003062Y007460D03*
X003062Y006960D03*
X003062Y006460D03*
X003062Y005960D03*
X003062Y007960D03*
X003062Y008460D03*
X003062Y008960D03*
X003062Y009460D03*
X000858Y009460D03*
X000858Y008960D03*
X000858Y008460D03*
X000858Y007960D03*
X000858Y007460D03*
X000858Y006960D03*
X000858Y006460D03*
X000858Y005960D03*
D17*
X003160Y004710D03*
X003160Y003710D03*
X004160Y003460D03*
X004160Y004460D03*
X005660Y004460D03*
X005660Y003460D03*
X006660Y003710D03*
X006660Y004710D03*
M02*
