G75*
G70*
%OFA0B0*%
%FSLAX24Y24*%
%IPPOS*%
%LPD*%
%AMOC8*
5,1,8,0,0,1.08239X$1,22.5*
%
%ADD10C,0.0480*%
%ADD11R,0.0600X0.0600*%
%ADD12OC8,0.0600*%
%ADD13R,0.0709X0.0630*%
%ADD14C,0.0709*%
%ADD15R,0.0880X0.0480*%
%ADD16R,0.0866X0.1417*%
%ADD17R,0.0512X0.0591*%
%ADD18R,0.0250X0.0500*%
%ADD19C,0.0270*%
%ADD20C,0.0100*%
%ADD21C,0.0160*%
%ADD22C,0.0080*%
D10*
X014310Y003955D03*
X014310Y005855D03*
D11*
X002940Y008905D03*
X000940Y003405D03*
X001940Y002405D03*
X002940Y000905D03*
D12*
X001940Y000905D03*
X000940Y000905D03*
X003940Y000905D03*
X004940Y000905D03*
X005940Y000905D03*
X006940Y000905D03*
X007940Y000905D03*
X008940Y000905D03*
X009940Y000905D03*
X010940Y000905D03*
X011940Y000905D03*
X012940Y000905D03*
X013940Y000905D03*
X014940Y000905D03*
X015940Y000905D03*
X016940Y000905D03*
X017940Y000905D03*
X017940Y008905D03*
X016940Y008905D03*
X015940Y008905D03*
X014940Y008905D03*
X013940Y008905D03*
X012940Y008905D03*
X011940Y008905D03*
X010940Y008905D03*
X009940Y008905D03*
X008940Y008905D03*
X007940Y008905D03*
X006940Y008905D03*
X005940Y008905D03*
X004940Y008905D03*
X003940Y008905D03*
X001940Y008905D03*
X000940Y008905D03*
X001940Y007405D03*
X001940Y006405D03*
X000940Y006405D03*
X000940Y005405D03*
X001940Y005405D03*
X001940Y004405D03*
X000940Y004405D03*
X001940Y003405D03*
D13*
X006990Y006654D03*
X008070Y006654D03*
X008070Y007756D03*
X006990Y007756D03*
D14*
X016240Y006283D03*
X016240Y003527D03*
D15*
X007720Y003695D03*
X007720Y004605D03*
X007720Y005515D03*
D16*
X010160Y004605D03*
D17*
X005680Y004805D03*
X004400Y004805D03*
X004400Y003705D03*
X005680Y003705D03*
D18*
X004342Y002655D03*
X003987Y002655D03*
X014830Y004705D03*
X015180Y004705D03*
X015530Y004705D03*
D19*
X014516Y005381D03*
X013434Y004136D03*
X010752Y005905D03*
X010916Y006305D03*
X008740Y006305D03*
X006601Y005805D03*
X006479Y005366D03*
X005888Y006562D03*
X005731Y007664D03*
X003507Y006132D03*
X003507Y005366D03*
X004846Y002651D03*
X009749Y003133D03*
X010040Y002281D03*
X010440Y000505D03*
X010440Y009305D03*
D20*
X008601Y008010D02*
X013109Y008010D01*
X013109Y006495D01*
X011072Y006495D01*
X011054Y006513D01*
X010964Y006550D01*
X010867Y006550D01*
X010777Y006513D01*
X010708Y006444D01*
X010671Y006354D01*
X010671Y006256D01*
X010708Y006166D01*
X010724Y006150D01*
X010703Y006150D01*
X010613Y006113D01*
X010544Y006044D01*
X010507Y005954D01*
X010507Y005856D01*
X010544Y005766D01*
X010613Y005697D01*
X010703Y005660D01*
X010801Y005660D01*
X010891Y005697D01*
X010908Y005715D01*
X013109Y005715D01*
X013109Y002234D01*
X010520Y002234D01*
X010503Y002251D01*
X010503Y003039D01*
X010261Y003282D01*
X010167Y003375D01*
X009804Y003375D01*
X009798Y003378D01*
X009701Y003378D01*
X009611Y003340D01*
X009542Y003271D01*
X009504Y003181D01*
X009504Y003084D01*
X009542Y002994D01*
X009611Y002925D01*
X009701Y002888D01*
X009798Y002888D01*
X009888Y002925D01*
X009957Y002994D01*
X009983Y003055D01*
X010034Y003055D01*
X010183Y002907D01*
X010183Y002485D01*
X010179Y002489D01*
X010089Y002526D01*
X009991Y002526D01*
X009901Y002489D01*
X009832Y002420D01*
X009795Y002330D01*
X009795Y002233D01*
X009832Y002143D01*
X009862Y002113D01*
X009785Y002037D01*
X008601Y002037D01*
X008601Y004597D01*
X008630Y004626D01*
X008630Y006085D01*
X008691Y006060D01*
X008789Y006060D01*
X008879Y006097D01*
X008948Y006166D01*
X008985Y006256D01*
X008985Y006354D01*
X008948Y006444D01*
X008879Y006513D01*
X008789Y006550D01*
X008691Y006550D01*
X008601Y006513D01*
X008601Y006512D01*
X008601Y008010D01*
X008601Y007985D02*
X013109Y007985D01*
X013109Y007887D02*
X008601Y007887D01*
X008601Y007788D02*
X013109Y007788D01*
X013109Y007690D02*
X008601Y007690D01*
X008601Y007591D02*
X013109Y007591D01*
X013109Y007493D02*
X008601Y007493D01*
X008601Y007394D02*
X013109Y007394D01*
X013109Y007296D02*
X008601Y007296D01*
X008601Y007197D02*
X013109Y007197D01*
X013109Y007099D02*
X008601Y007099D01*
X008601Y007000D02*
X013109Y007000D01*
X013109Y006902D02*
X008601Y006902D01*
X008601Y006803D02*
X013109Y006803D01*
X013109Y006705D02*
X008601Y006705D01*
X008601Y006606D02*
X013109Y006606D01*
X013109Y006508D02*
X011060Y006508D01*
X010772Y006508D02*
X008884Y006508D01*
X008962Y006409D02*
X010693Y006409D01*
X010671Y006311D02*
X008985Y006311D01*
X008967Y006212D02*
X010689Y006212D01*
X010615Y006114D02*
X008895Y006114D01*
X008630Y006015D02*
X010532Y006015D01*
X010507Y005917D02*
X008630Y005917D01*
X008630Y005818D02*
X010523Y005818D01*
X010591Y005720D02*
X008630Y005720D01*
X008630Y005621D02*
X013109Y005621D01*
X013109Y005523D02*
X008630Y005523D01*
X008630Y005424D02*
X009625Y005424D01*
X009635Y005434D02*
X009607Y005406D01*
X009587Y005372D01*
X009577Y005333D01*
X009577Y004655D01*
X010110Y004655D01*
X010110Y004555D01*
X009577Y004555D01*
X009577Y003877D01*
X009587Y003838D01*
X009607Y003804D01*
X009635Y003776D01*
X009669Y003757D01*
X009707Y003746D01*
X010110Y003746D01*
X010110Y004555D01*
X010210Y004555D01*
X010210Y003746D01*
X010613Y003746D01*
X010651Y003757D01*
X010685Y003776D01*
X010713Y003804D01*
X010733Y003838D01*
X010743Y003877D01*
X010743Y004555D01*
X010210Y004555D01*
X010210Y004655D01*
X010110Y004655D01*
X010110Y005464D01*
X009707Y005464D01*
X009669Y005453D01*
X009635Y005434D01*
X009577Y005326D02*
X008630Y005326D01*
X008630Y005227D02*
X009577Y005227D01*
X009577Y005129D02*
X008630Y005129D01*
X008630Y005030D02*
X009577Y005030D01*
X009577Y004932D02*
X008630Y004932D01*
X008630Y004833D02*
X009577Y004833D01*
X009577Y004735D02*
X008630Y004735D01*
X008630Y004636D02*
X010110Y004636D01*
X010110Y004538D02*
X010210Y004538D01*
X010210Y004636D02*
X013109Y004636D01*
X013109Y004538D02*
X010743Y004538D01*
X010743Y004439D02*
X013109Y004439D01*
X013109Y004341D02*
X010743Y004341D01*
X010743Y004242D02*
X013109Y004242D01*
X013109Y004144D02*
X010743Y004144D01*
X010743Y004045D02*
X013109Y004045D01*
X013109Y003947D02*
X010743Y003947D01*
X010735Y003848D02*
X013109Y003848D01*
X013109Y003750D02*
X010625Y003750D01*
X010210Y003750D02*
X010110Y003750D01*
X010110Y003848D02*
X010210Y003848D01*
X010210Y003947D02*
X010110Y003947D01*
X010110Y004045D02*
X010210Y004045D01*
X010210Y004144D02*
X010110Y004144D01*
X010110Y004242D02*
X010210Y004242D01*
X010210Y004341D02*
X010110Y004341D01*
X010110Y004439D02*
X010210Y004439D01*
X010210Y004655D02*
X010743Y004655D01*
X010743Y005333D01*
X010733Y005372D01*
X010713Y005406D01*
X010685Y005434D01*
X010651Y005453D01*
X010613Y005464D01*
X010210Y005464D01*
X010210Y004655D01*
X010210Y004735D02*
X010110Y004735D01*
X010110Y004833D02*
X010210Y004833D01*
X010210Y004932D02*
X010110Y004932D01*
X010110Y005030D02*
X010210Y005030D01*
X010210Y005129D02*
X010110Y005129D01*
X010110Y005227D02*
X010210Y005227D01*
X010210Y005326D02*
X010110Y005326D01*
X010110Y005424D02*
X010210Y005424D01*
X010695Y005424D02*
X013109Y005424D01*
X013109Y005326D02*
X010743Y005326D01*
X010743Y005227D02*
X013109Y005227D01*
X013109Y005129D02*
X010743Y005129D01*
X010743Y005030D02*
X013109Y005030D01*
X013109Y004932D02*
X010743Y004932D01*
X010743Y004833D02*
X013109Y004833D01*
X013109Y004735D02*
X010743Y004735D01*
X009577Y004538D02*
X008601Y004538D01*
X008601Y004439D02*
X009577Y004439D01*
X009577Y004341D02*
X008601Y004341D01*
X008601Y004242D02*
X009577Y004242D01*
X009577Y004144D02*
X008601Y004144D01*
X008601Y004045D02*
X009577Y004045D01*
X009577Y003947D02*
X008601Y003947D01*
X008601Y003848D02*
X009585Y003848D01*
X009695Y003750D02*
X008601Y003750D01*
X008601Y003651D02*
X013109Y003651D01*
X013109Y003553D02*
X008601Y003553D01*
X008601Y003454D02*
X013109Y003454D01*
X013109Y003356D02*
X010187Y003356D01*
X010285Y003257D02*
X013109Y003257D01*
X013109Y003159D02*
X010384Y003159D01*
X010482Y003060D02*
X013109Y003060D01*
X013109Y002962D02*
X010503Y002962D01*
X010503Y002863D02*
X013109Y002863D01*
X013109Y002765D02*
X010503Y002765D01*
X010503Y002666D02*
X013109Y002666D01*
X013109Y002568D02*
X010503Y002568D01*
X010503Y002469D02*
X013109Y002469D01*
X013109Y002371D02*
X010503Y002371D01*
X010503Y002272D02*
X013109Y002272D01*
X014904Y002074D02*
X015180Y002350D01*
X015180Y004705D01*
X014830Y004705D02*
X014830Y005055D01*
X014516Y005369D01*
X014516Y005381D01*
X015394Y003705D02*
X016282Y004593D01*
X016282Y006241D01*
X016240Y006283D01*
X015394Y003705D02*
X015394Y002270D01*
X015001Y001877D01*
X010240Y001877D01*
X010046Y002071D01*
X009852Y001877D01*
X006872Y001877D01*
X006098Y002651D01*
X004846Y002651D01*
X008601Y002666D02*
X010183Y002666D01*
X010183Y002568D02*
X008601Y002568D01*
X008601Y002469D02*
X009881Y002469D01*
X009812Y002371D02*
X008601Y002371D01*
X008601Y002272D02*
X009795Y002272D01*
X009819Y002174D02*
X008601Y002174D01*
X008601Y002075D02*
X009824Y002075D01*
X010046Y002071D02*
X010040Y002281D01*
X010343Y002185D02*
X010343Y002973D01*
X010101Y003215D01*
X009832Y003215D01*
X009749Y003133D01*
X009574Y002962D02*
X008601Y002962D01*
X008601Y003060D02*
X009514Y003060D01*
X009504Y003159D02*
X008601Y003159D01*
X008601Y003257D02*
X009536Y003257D01*
X009647Y003356D02*
X008601Y003356D01*
X008601Y002863D02*
X010183Y002863D01*
X010183Y002765D02*
X008601Y002765D01*
X009925Y002962D02*
X010128Y002962D01*
X010343Y002185D02*
X010454Y002074D01*
X014904Y002074D01*
X006479Y005366D02*
X003507Y005366D01*
X002940Y005933D01*
X002940Y008905D01*
X003507Y008455D02*
X003507Y006132D01*
X003834Y005805D01*
X006601Y005805D01*
X005888Y006562D02*
X005888Y007507D01*
X005731Y007664D01*
X003940Y008905D02*
X003507Y008455D01*
D21*
X006990Y006654D02*
X007030Y006614D01*
X007030Y006011D01*
X007525Y005515D01*
X006815Y004805D01*
X005680Y004805D01*
X005680Y003705D01*
X005190Y003215D01*
X004746Y003215D01*
X004342Y002811D01*
X004342Y002655D01*
X003987Y002655D02*
X003987Y002929D01*
X004392Y003333D01*
X004392Y003697D01*
X004400Y003705D01*
X003987Y002655D02*
X003987Y001905D01*
X003644Y001562D01*
X001597Y001562D01*
X000940Y000905D01*
X001940Y004405D02*
X002340Y004805D01*
X004400Y004805D01*
X007525Y005515D02*
X007720Y005515D01*
X008440Y006305D02*
X008740Y006305D01*
X008440Y006305D02*
X008440Y006324D01*
X008070Y006654D01*
X008440Y006305D02*
X008440Y004705D01*
X008340Y004605D01*
X007720Y004605D01*
X010752Y005905D02*
X013247Y005905D01*
X014300Y004865D01*
X014310Y004855D01*
X014310Y003955D01*
X014311Y005855D02*
X014310Y005855D01*
X014311Y005855D02*
X013861Y006305D01*
X010916Y006305D01*
D22*
X018195Y000419D02*
X000685Y000419D01*
X000754Y000498D02*
X000607Y000498D01*
X000675Y000576D02*
X000528Y000576D01*
X000597Y000655D02*
X000450Y000655D01*
X000520Y000731D02*
X000766Y000485D01*
X001114Y000485D01*
X001360Y000731D01*
X001360Y001042D01*
X001680Y001362D01*
X003727Y001362D01*
X003844Y001479D01*
X004187Y001822D01*
X004187Y002285D01*
X004516Y002285D01*
X004587Y002355D01*
X004587Y002773D01*
X004829Y003015D01*
X005273Y003015D01*
X005547Y003290D01*
X005985Y003290D01*
X006056Y003360D01*
X006056Y004050D01*
X005985Y004120D01*
X005880Y004120D01*
X005880Y004390D01*
X005985Y004390D01*
X006056Y004460D01*
X006056Y004605D01*
X006898Y004605D01*
X007160Y004867D01*
X007160Y004315D01*
X007230Y004245D01*
X008210Y004245D01*
X008280Y004315D01*
X008280Y004405D01*
X008423Y004405D01*
X008431Y004413D01*
X008431Y002047D01*
X006943Y002047D01*
X006268Y002721D01*
X006169Y002821D01*
X005037Y002821D01*
X004991Y002867D01*
X004897Y002906D01*
X004796Y002906D01*
X004702Y002867D01*
X004630Y002795D01*
X004591Y002701D01*
X004591Y002600D01*
X004630Y002506D01*
X004702Y002434D01*
X004796Y002396D01*
X004897Y002396D01*
X004991Y002434D01*
X005037Y002481D01*
X006028Y002481D01*
X006702Y001806D01*
X006802Y001707D01*
X009922Y001707D01*
X010046Y001830D01*
X010169Y001707D01*
X015071Y001707D01*
X015465Y002100D01*
X015564Y002200D01*
X015564Y003635D01*
X016352Y004423D01*
X016452Y004522D01*
X016452Y005857D01*
X016509Y005881D01*
X016642Y006014D01*
X016714Y006189D01*
X016714Y006377D01*
X016642Y006552D01*
X016509Y006685D01*
X016334Y006757D01*
X016146Y006757D01*
X015971Y006685D01*
X015838Y006552D01*
X015766Y006377D01*
X015766Y006189D01*
X015838Y006014D01*
X015971Y005881D01*
X016112Y005823D01*
X016112Y004663D01*
X015350Y003901D01*
X015350Y004325D01*
X015351Y004325D01*
X015387Y004315D01*
X015507Y004315D01*
X015507Y004682D01*
X015553Y004682D01*
X015553Y004728D01*
X015507Y004728D01*
X015507Y005095D01*
X015387Y005095D01*
X015351Y005085D01*
X015333Y005075D01*
X015005Y005075D01*
X015005Y005075D01*
X015000Y005075D01*
X015000Y005125D01*
X014900Y005225D01*
X014771Y005355D01*
X014771Y005431D01*
X014732Y005525D01*
X014660Y005597D01*
X014590Y005626D01*
X014615Y005651D01*
X014670Y005783D01*
X014670Y005927D01*
X014615Y006059D01*
X014514Y006160D01*
X014382Y006215D01*
X014238Y006215D01*
X014235Y006214D01*
X013944Y006505D01*
X013279Y006505D01*
X013279Y008080D01*
X013180Y008180D01*
X008530Y008180D01*
X008522Y008171D01*
X008510Y008183D01*
X008478Y008202D01*
X008443Y008211D01*
X008110Y008211D01*
X008110Y007796D01*
X008030Y007796D01*
X008030Y007716D01*
X008110Y007716D01*
X008110Y007301D01*
X008431Y007301D01*
X008431Y007089D01*
X007666Y007089D01*
X007596Y007018D01*
X007596Y006289D01*
X007666Y006219D01*
X008240Y006219D01*
X008240Y005845D01*
X008210Y005875D01*
X007448Y005875D01*
X007230Y006093D01*
X007230Y006219D01*
X007394Y006219D01*
X007464Y006289D01*
X007464Y007018D01*
X007394Y007089D01*
X006586Y007089D01*
X006516Y007018D01*
X006516Y006289D01*
X006586Y006219D01*
X006830Y006219D01*
X006830Y005928D01*
X006947Y005811D01*
X007160Y005597D01*
X007160Y005433D01*
X006732Y005005D01*
X006056Y005005D01*
X006056Y005150D01*
X006010Y005196D01*
X006289Y005196D01*
X006335Y005149D01*
X006429Y005111D01*
X006530Y005111D01*
X006624Y005149D01*
X006696Y005221D01*
X006734Y005315D01*
X006734Y005416D01*
X006696Y005510D01*
X006654Y005551D01*
X006745Y005589D01*
X006817Y005661D01*
X006856Y005754D01*
X006856Y005856D01*
X006817Y005949D01*
X006745Y006021D01*
X006651Y006060D01*
X006550Y006060D01*
X006456Y006021D01*
X006410Y005975D01*
X003904Y005975D01*
X003762Y006117D01*
X003762Y006183D01*
X003723Y006276D01*
X003677Y006323D01*
X003677Y008386D01*
X003772Y008485D01*
X004114Y008485D01*
X004360Y008731D01*
X004360Y009079D01*
X004114Y009325D01*
X003766Y009325D01*
X003520Y009079D01*
X003520Y008731D01*
X003529Y008722D01*
X003386Y008574D01*
X003337Y008525D01*
X003337Y008523D01*
X003336Y008522D01*
X003337Y008453D01*
X003337Y006323D01*
X003291Y006276D01*
X003252Y006183D01*
X003252Y006081D01*
X003291Y005987D01*
X003362Y005916D01*
X003456Y005877D01*
X003522Y005877D01*
X003763Y005635D01*
X006410Y005635D01*
X006426Y005619D01*
X006335Y005582D01*
X006289Y005536D01*
X003698Y005536D01*
X003651Y005582D01*
X003558Y005621D01*
X003492Y005621D01*
X003110Y006003D01*
X003110Y008485D01*
X003290Y008485D01*
X003360Y008555D01*
X003360Y009255D01*
X003290Y009325D01*
X002590Y009325D01*
X002520Y009255D01*
X002520Y008555D01*
X002590Y008485D01*
X002770Y008485D01*
X002770Y005862D01*
X003252Y005380D01*
X003252Y005315D01*
X003291Y005221D01*
X003362Y005149D01*
X003456Y005111D01*
X003558Y005111D01*
X003651Y005149D01*
X003698Y005196D01*
X004070Y005196D01*
X004024Y005150D01*
X004024Y005005D01*
X002257Y005005D01*
X002077Y004825D01*
X001766Y004825D01*
X001520Y004579D01*
X001520Y004231D01*
X001766Y003985D01*
X002114Y003985D01*
X002360Y004231D01*
X002360Y004542D01*
X002423Y004605D01*
X004024Y004605D01*
X004024Y004460D01*
X004095Y004390D01*
X004706Y004390D01*
X004776Y004460D01*
X004776Y005150D01*
X004730Y005196D01*
X005350Y005196D01*
X005304Y005150D01*
X005304Y004460D01*
X005374Y004390D01*
X005480Y004390D01*
X005480Y004120D01*
X005374Y004120D01*
X005304Y004050D01*
X005304Y003612D01*
X005107Y003415D01*
X004776Y003415D01*
X004776Y004050D01*
X004706Y004120D01*
X004095Y004120D01*
X004024Y004050D01*
X004024Y003360D01*
X004080Y003304D01*
X003787Y003011D01*
X003787Y003000D01*
X003742Y002955D01*
X003742Y002355D01*
X003787Y002310D01*
X003787Y001988D01*
X003561Y001762D01*
X001514Y001762D01*
X001077Y001325D01*
X000766Y001325D01*
X000520Y001079D01*
X000520Y000731D01*
X000520Y000733D02*
X000371Y000733D01*
X000330Y000774D02*
X000809Y000295D01*
X018071Y000295D01*
X018550Y000774D01*
X018550Y009036D01*
X018071Y009515D01*
X000809Y009515D01*
X000330Y009036D01*
X000330Y000774D01*
X000330Y000812D02*
X000520Y000812D01*
X000520Y000890D02*
X000330Y000890D01*
X000330Y000969D02*
X000520Y000969D01*
X000520Y001047D02*
X000330Y001047D01*
X000330Y001126D02*
X000567Y001126D01*
X000645Y001204D02*
X000330Y001204D01*
X000330Y001283D02*
X000724Y001283D01*
X001113Y001361D02*
X000330Y001361D01*
X000330Y001440D02*
X001192Y001440D01*
X001270Y001518D02*
X000330Y001518D01*
X000330Y001597D02*
X001349Y001597D01*
X001427Y001675D02*
X000330Y001675D01*
X000330Y001754D02*
X001506Y001754D01*
X001586Y001975D02*
X001622Y001965D01*
X001900Y001965D01*
X001900Y002365D01*
X001980Y002365D01*
X001980Y002445D01*
X001900Y002445D01*
X001900Y002845D01*
X001622Y002845D01*
X001586Y002835D01*
X001554Y002817D01*
X001528Y002791D01*
X001510Y002759D01*
X001500Y002723D01*
X001500Y002445D01*
X001900Y002445D01*
X001900Y002365D01*
X001500Y002365D01*
X001500Y002087D01*
X001510Y002051D01*
X001528Y002019D01*
X001554Y001993D01*
X001586Y001975D01*
X001561Y001989D02*
X000330Y001989D01*
X000330Y001911D02*
X003710Y001911D01*
X003787Y001989D02*
X002319Y001989D01*
X002326Y001993D02*
X002352Y002019D01*
X002370Y002051D01*
X002380Y002087D01*
X002380Y002365D01*
X001980Y002365D01*
X001980Y001965D01*
X002258Y001965D01*
X002294Y001975D01*
X002326Y001993D01*
X002375Y002068D02*
X003787Y002068D01*
X003787Y002146D02*
X002380Y002146D01*
X002380Y002225D02*
X003787Y002225D01*
X003787Y002303D02*
X002380Y002303D01*
X002380Y002445D02*
X002380Y002723D01*
X002370Y002759D01*
X002352Y002791D01*
X002326Y002817D01*
X002294Y002835D01*
X002258Y002845D01*
X001980Y002845D01*
X001980Y002445D01*
X002380Y002445D01*
X002380Y002460D02*
X003742Y002460D01*
X003742Y002382D02*
X001980Y002382D01*
X001980Y002460D02*
X001900Y002460D01*
X001900Y002382D02*
X000330Y002382D01*
X000330Y002460D02*
X001500Y002460D01*
X001500Y002539D02*
X000330Y002539D01*
X000330Y002617D02*
X001500Y002617D01*
X001500Y002696D02*
X000330Y002696D01*
X000330Y002774D02*
X001518Y002774D01*
X001326Y002993D02*
X001294Y002975D01*
X001258Y002965D01*
X000980Y002965D01*
X000980Y003365D01*
X000980Y003445D01*
X000900Y003445D01*
X000900Y003845D01*
X000622Y003845D01*
X000586Y003835D01*
X000554Y003817D01*
X000528Y003791D01*
X000510Y003759D01*
X000500Y003723D01*
X000500Y003445D01*
X000900Y003445D01*
X000900Y003365D01*
X000980Y003365D01*
X001380Y003365D01*
X001380Y003087D01*
X001370Y003051D01*
X001352Y003019D01*
X001326Y002993D01*
X001342Y003010D02*
X001742Y003010D01*
X001766Y002985D02*
X002114Y002985D01*
X002360Y003231D01*
X002360Y003579D01*
X002114Y003825D01*
X001766Y003825D01*
X001520Y003579D01*
X001520Y003231D01*
X001766Y002985D01*
X001663Y003088D02*
X001380Y003088D01*
X001380Y003167D02*
X001585Y003167D01*
X001520Y003245D02*
X001380Y003245D01*
X001380Y003324D02*
X001520Y003324D01*
X001520Y003402D02*
X000980Y003402D01*
X000980Y003445D02*
X001380Y003445D01*
X001380Y003723D01*
X001370Y003759D01*
X001352Y003791D01*
X001326Y003817D01*
X001294Y003835D01*
X001258Y003845D01*
X000980Y003845D01*
X000980Y003445D01*
X000980Y003481D02*
X000900Y003481D01*
X000900Y003559D02*
X000980Y003559D01*
X000980Y003638D02*
X000900Y003638D01*
X000900Y003716D02*
X000980Y003716D01*
X000980Y003795D02*
X000900Y003795D01*
X000766Y003985D02*
X001114Y003985D01*
X001360Y004231D01*
X001360Y004579D01*
X001114Y004825D01*
X000766Y004825D01*
X000520Y004579D01*
X000520Y004231D01*
X000766Y003985D01*
X000721Y004030D02*
X000330Y004030D01*
X000330Y003952D02*
X004024Y003952D01*
X004024Y004030D02*
X002159Y004030D01*
X002237Y004109D02*
X004083Y004109D01*
X004024Y003873D02*
X000330Y003873D01*
X000330Y003795D02*
X000532Y003795D01*
X000500Y003716D02*
X000330Y003716D01*
X000330Y003638D02*
X000500Y003638D01*
X000500Y003559D02*
X000330Y003559D01*
X000330Y003481D02*
X000500Y003481D01*
X000500Y003365D02*
X000500Y003087D01*
X000510Y003051D01*
X000528Y003019D01*
X000554Y002993D01*
X000586Y002975D01*
X000622Y002965D01*
X000900Y002965D01*
X000900Y003365D01*
X000500Y003365D01*
X000500Y003324D02*
X000330Y003324D01*
X000330Y003402D02*
X000900Y003402D01*
X000900Y003324D02*
X000980Y003324D01*
X000980Y003245D02*
X000900Y003245D01*
X000900Y003167D02*
X000980Y003167D01*
X000980Y003088D02*
X000900Y003088D01*
X000900Y003010D02*
X000980Y003010D01*
X000538Y003010D02*
X000330Y003010D01*
X000330Y003088D02*
X000500Y003088D01*
X000500Y003167D02*
X000330Y003167D01*
X000330Y003245D02*
X000500Y003245D01*
X000330Y002931D02*
X003742Y002931D01*
X003742Y002853D02*
X000330Y002853D01*
X000330Y002303D02*
X001500Y002303D01*
X001500Y002225D02*
X000330Y002225D01*
X000330Y002146D02*
X001500Y002146D01*
X001505Y002068D02*
X000330Y002068D01*
X000330Y001832D02*
X003631Y001832D01*
X003962Y001597D02*
X018550Y001597D01*
X018550Y001675D02*
X004040Y001675D01*
X004119Y001754D02*
X006755Y001754D01*
X006702Y001806D02*
X006702Y001806D01*
X006677Y001832D02*
X004187Y001832D01*
X004187Y001911D02*
X006598Y001911D01*
X006520Y001989D02*
X004187Y001989D01*
X004187Y002068D02*
X006441Y002068D01*
X006363Y002146D02*
X004187Y002146D01*
X004187Y002225D02*
X006284Y002225D01*
X006206Y002303D02*
X004534Y002303D01*
X004587Y002382D02*
X006127Y002382D01*
X006049Y002460D02*
X005016Y002460D01*
X004676Y002460D02*
X004587Y002460D01*
X004587Y002539D02*
X004617Y002539D01*
X004591Y002617D02*
X004587Y002617D01*
X004587Y002696D02*
X004591Y002696D01*
X004588Y002774D02*
X004621Y002774D01*
X004666Y002853D02*
X004688Y002853D01*
X004745Y002931D02*
X008431Y002931D01*
X008431Y002853D02*
X005005Y002853D01*
X004823Y003010D02*
X008431Y003010D01*
X008431Y003088D02*
X005346Y003088D01*
X005424Y003167D02*
X008431Y003167D01*
X008431Y003245D02*
X005503Y003245D01*
X005172Y003481D02*
X004776Y003481D01*
X004776Y003559D02*
X005251Y003559D01*
X005304Y003638D02*
X004776Y003638D01*
X004776Y003716D02*
X005304Y003716D01*
X005304Y003795D02*
X004776Y003795D01*
X004776Y003873D02*
X005304Y003873D01*
X005304Y003952D02*
X004776Y003952D01*
X004776Y004030D02*
X005304Y004030D01*
X005362Y004109D02*
X004718Y004109D01*
X004024Y003795D02*
X002144Y003795D01*
X002223Y003716D02*
X004024Y003716D01*
X004024Y003638D02*
X002301Y003638D01*
X002360Y003559D02*
X004024Y003559D01*
X004024Y003481D02*
X002360Y003481D01*
X002360Y003402D02*
X004024Y003402D01*
X004061Y003324D02*
X002360Y003324D01*
X002360Y003245D02*
X004021Y003245D01*
X003942Y003167D02*
X002295Y003167D01*
X002217Y003088D02*
X003864Y003088D01*
X003787Y003010D02*
X002138Y003010D01*
X001980Y002774D02*
X001900Y002774D01*
X001900Y002696D02*
X001980Y002696D01*
X001980Y002617D02*
X001900Y002617D01*
X001900Y002539D02*
X001980Y002539D01*
X001980Y002303D02*
X001900Y002303D01*
X001900Y002225D02*
X001980Y002225D01*
X001980Y002146D02*
X001900Y002146D01*
X001900Y002068D02*
X001980Y002068D01*
X001980Y001989D02*
X001900Y001989D01*
X002380Y002539D02*
X003742Y002539D01*
X003742Y002617D02*
X002380Y002617D01*
X002380Y002696D02*
X003742Y002696D01*
X003742Y002774D02*
X002362Y002774D01*
X001520Y003481D02*
X001380Y003481D01*
X001380Y003559D02*
X001520Y003559D01*
X001579Y003638D02*
X001380Y003638D01*
X001380Y003716D02*
X001657Y003716D01*
X001736Y003795D02*
X001348Y003795D01*
X001159Y004030D02*
X001721Y004030D01*
X001643Y004109D02*
X001237Y004109D01*
X001316Y004187D02*
X001564Y004187D01*
X001520Y004266D02*
X001360Y004266D01*
X001360Y004344D02*
X001520Y004344D01*
X001520Y004423D02*
X001360Y004423D01*
X001360Y004501D02*
X001520Y004501D01*
X001521Y004580D02*
X001359Y004580D01*
X001281Y004658D02*
X001599Y004658D01*
X001678Y004737D02*
X001202Y004737D01*
X001124Y004815D02*
X001756Y004815D01*
X001766Y004985D02*
X002114Y004985D01*
X002360Y005231D01*
X002360Y005579D01*
X002114Y005825D01*
X001766Y005825D01*
X001520Y005579D01*
X001520Y005231D01*
X001766Y004985D01*
X001701Y005051D02*
X001179Y005051D01*
X001114Y004985D02*
X001360Y005231D01*
X001360Y005579D01*
X001114Y005825D01*
X000766Y005825D01*
X000520Y005579D01*
X000520Y005231D01*
X000766Y004985D01*
X001114Y004985D01*
X000756Y004815D02*
X000330Y004815D01*
X000330Y004737D02*
X000678Y004737D01*
X000599Y004658D02*
X000330Y004658D01*
X000330Y004580D02*
X000521Y004580D01*
X000520Y004501D02*
X000330Y004501D01*
X000330Y004423D02*
X000520Y004423D01*
X000520Y004344D02*
X000330Y004344D01*
X000330Y004266D02*
X000520Y004266D01*
X000564Y004187D02*
X000330Y004187D01*
X000330Y004109D02*
X000643Y004109D01*
X000330Y004894D02*
X002146Y004894D01*
X002224Y004972D02*
X000330Y004972D01*
X000330Y005051D02*
X000701Y005051D01*
X000622Y005129D02*
X000330Y005129D01*
X000330Y005208D02*
X000544Y005208D01*
X000520Y005286D02*
X000330Y005286D01*
X000330Y005365D02*
X000520Y005365D01*
X000520Y005443D02*
X000330Y005443D01*
X000330Y005522D02*
X000520Y005522D01*
X000541Y005600D02*
X000330Y005600D01*
X000330Y005679D02*
X000620Y005679D01*
X000698Y005757D02*
X000330Y005757D01*
X000330Y005836D02*
X002797Y005836D01*
X002770Y005914D02*
X000330Y005914D01*
X000330Y005993D02*
X000759Y005993D01*
X000766Y005985D02*
X001114Y005985D01*
X001360Y006231D01*
X001360Y006579D01*
X001114Y006825D01*
X000766Y006825D01*
X000520Y006579D01*
X000520Y006231D01*
X000766Y005985D01*
X000680Y006071D02*
X000330Y006071D01*
X000330Y006150D02*
X000602Y006150D01*
X000523Y006228D02*
X000330Y006228D01*
X000330Y006307D02*
X000520Y006307D01*
X000520Y006385D02*
X000330Y006385D01*
X000330Y006464D02*
X000520Y006464D01*
X000520Y006542D02*
X000330Y006542D01*
X000330Y006621D02*
X000562Y006621D01*
X000640Y006699D02*
X000330Y006699D01*
X000330Y006778D02*
X000719Y006778D01*
X000330Y006856D02*
X002770Y006856D01*
X002770Y006778D02*
X002161Y006778D01*
X002114Y006825D02*
X001766Y006825D01*
X001520Y006579D01*
X001520Y006231D01*
X001766Y005985D01*
X002114Y005985D01*
X002360Y006231D01*
X002360Y006579D01*
X002114Y006825D01*
X002240Y006699D02*
X002770Y006699D01*
X002770Y006621D02*
X002318Y006621D01*
X002360Y006542D02*
X002770Y006542D01*
X002770Y006464D02*
X002360Y006464D01*
X002360Y006385D02*
X002770Y006385D01*
X002770Y006307D02*
X002360Y006307D01*
X002357Y006228D02*
X002770Y006228D01*
X002770Y006150D02*
X002278Y006150D01*
X002200Y006071D02*
X002770Y006071D01*
X002770Y005993D02*
X002121Y005993D01*
X001759Y005993D02*
X001121Y005993D01*
X001200Y006071D02*
X001680Y006071D01*
X001602Y006150D02*
X001278Y006150D01*
X001357Y006228D02*
X001523Y006228D01*
X001520Y006307D02*
X001360Y006307D01*
X001360Y006385D02*
X001520Y006385D01*
X001520Y006464D02*
X001360Y006464D01*
X001360Y006542D02*
X001520Y006542D01*
X001562Y006621D02*
X001318Y006621D01*
X001240Y006699D02*
X001640Y006699D01*
X001719Y006778D02*
X001161Y006778D01*
X001520Y007231D02*
X001766Y006985D01*
X002114Y006985D01*
X002360Y007231D01*
X002360Y007579D01*
X002114Y007825D01*
X001766Y007825D01*
X001520Y007579D01*
X001520Y007231D01*
X001520Y007249D02*
X000330Y007249D01*
X000330Y007327D02*
X001520Y007327D01*
X001520Y007406D02*
X000330Y007406D01*
X000330Y007484D02*
X001520Y007484D01*
X001520Y007563D02*
X000330Y007563D01*
X000330Y007641D02*
X001582Y007641D01*
X001661Y007720D02*
X000330Y007720D01*
X000330Y007798D02*
X001739Y007798D01*
X002141Y007798D02*
X002770Y007798D01*
X002770Y007720D02*
X002219Y007720D01*
X002298Y007641D02*
X002770Y007641D01*
X002770Y007563D02*
X002360Y007563D01*
X002360Y007484D02*
X002770Y007484D01*
X002770Y007406D02*
X002360Y007406D01*
X002360Y007327D02*
X002770Y007327D01*
X002770Y007249D02*
X002360Y007249D01*
X002299Y007170D02*
X002770Y007170D01*
X002770Y007092D02*
X002220Y007092D01*
X002142Y007013D02*
X002770Y007013D01*
X002770Y006935D02*
X000330Y006935D01*
X000330Y007013D02*
X001738Y007013D01*
X001660Y007092D02*
X000330Y007092D01*
X000330Y007170D02*
X001581Y007170D01*
X002770Y007877D02*
X000330Y007877D01*
X000330Y007955D02*
X002770Y007955D01*
X002770Y008034D02*
X000330Y008034D01*
X000330Y008112D02*
X002770Y008112D01*
X002770Y008191D02*
X000330Y008191D01*
X000330Y008269D02*
X002770Y008269D01*
X002770Y008348D02*
X000330Y008348D01*
X000330Y008426D02*
X002770Y008426D01*
X002571Y008505D02*
X002162Y008505D01*
X002122Y008465D02*
X002380Y008723D01*
X002380Y008865D01*
X001980Y008865D01*
X001980Y008945D01*
X002380Y008945D01*
X002380Y009087D01*
X002122Y009345D01*
X001980Y009345D01*
X001980Y008945D01*
X001900Y008945D01*
X001900Y009345D01*
X001758Y009345D01*
X001500Y009087D01*
X001500Y008945D01*
X001900Y008945D01*
X001900Y008865D01*
X001980Y008865D01*
X001980Y008465D01*
X002122Y008465D01*
X001980Y008505D02*
X001900Y008505D01*
X001900Y008465D02*
X001900Y008865D01*
X001500Y008865D01*
X001500Y008723D01*
X001758Y008465D01*
X001900Y008465D01*
X001900Y008583D02*
X001980Y008583D01*
X001980Y008662D02*
X001900Y008662D01*
X001900Y008740D02*
X001980Y008740D01*
X001980Y008819D02*
X001900Y008819D01*
X001900Y008897D02*
X001360Y008897D01*
X001360Y008819D02*
X001500Y008819D01*
X001500Y008740D02*
X001360Y008740D01*
X001360Y008731D02*
X001114Y008485D01*
X000766Y008485D01*
X000520Y008731D01*
X000520Y009079D01*
X000766Y009325D01*
X001114Y009325D01*
X001360Y009079D01*
X001360Y008731D01*
X001290Y008662D02*
X001561Y008662D01*
X001640Y008583D02*
X001212Y008583D01*
X001133Y008505D02*
X001718Y008505D01*
X002240Y008583D02*
X002520Y008583D01*
X002520Y008662D02*
X002319Y008662D01*
X002380Y008740D02*
X002520Y008740D01*
X002520Y008819D02*
X002380Y008819D01*
X002520Y008897D02*
X001980Y008897D01*
X001980Y008976D02*
X001900Y008976D01*
X001900Y009054D02*
X001980Y009054D01*
X001980Y009133D02*
X001900Y009133D01*
X001900Y009211D02*
X001980Y009211D01*
X001980Y009290D02*
X001900Y009290D01*
X001702Y009290D02*
X001149Y009290D01*
X001228Y009211D02*
X001624Y009211D01*
X001545Y009133D02*
X001306Y009133D01*
X001360Y009054D02*
X001500Y009054D01*
X001500Y008976D02*
X001360Y008976D01*
X000731Y009290D02*
X000584Y009290D01*
X000652Y009211D02*
X000505Y009211D01*
X000574Y009133D02*
X000427Y009133D01*
X000348Y009054D02*
X000520Y009054D01*
X000520Y008976D02*
X000330Y008976D01*
X000330Y008897D02*
X000520Y008897D01*
X000520Y008819D02*
X000330Y008819D01*
X000330Y008740D02*
X000520Y008740D01*
X000590Y008662D02*
X000330Y008662D01*
X000330Y008583D02*
X000668Y008583D01*
X000747Y008505D02*
X000330Y008505D01*
X000662Y009368D02*
X018218Y009368D01*
X018149Y009290D02*
X018296Y009290D01*
X018228Y009211D02*
X018375Y009211D01*
X018306Y009133D02*
X018453Y009133D01*
X018360Y009079D02*
X018114Y009325D01*
X017766Y009325D01*
X017520Y009079D01*
X017520Y008731D01*
X017766Y008485D01*
X018114Y008485D01*
X018360Y008731D01*
X018360Y009079D01*
X018360Y009054D02*
X018532Y009054D01*
X018550Y008976D02*
X018360Y008976D01*
X018360Y008897D02*
X018550Y008897D01*
X018550Y008819D02*
X018360Y008819D01*
X018360Y008740D02*
X018550Y008740D01*
X018550Y008662D02*
X018290Y008662D01*
X018212Y008583D02*
X018550Y008583D01*
X018550Y008505D02*
X018133Y008505D01*
X018550Y008426D02*
X003715Y008426D01*
X003677Y008348D02*
X018550Y008348D01*
X018550Y008269D02*
X003677Y008269D01*
X003677Y008191D02*
X006562Y008191D01*
X006550Y008183D02*
X006524Y008157D01*
X006505Y008125D01*
X006496Y008090D01*
X006496Y007796D01*
X006950Y007796D01*
X006950Y007716D01*
X007030Y007716D01*
X007030Y007301D01*
X007363Y007301D01*
X007398Y007311D01*
X007430Y007329D01*
X007456Y007355D01*
X007475Y007387D01*
X007484Y007423D01*
X007484Y007716D01*
X007030Y007716D01*
X007030Y007796D01*
X007484Y007796D01*
X007484Y008090D01*
X007475Y008125D01*
X007456Y008157D01*
X007430Y008183D01*
X007398Y008202D01*
X007363Y008211D01*
X007030Y008211D01*
X007030Y007796D01*
X006950Y007796D01*
X006950Y008211D01*
X006617Y008211D01*
X006582Y008202D01*
X006550Y008183D01*
X006502Y008112D02*
X003677Y008112D01*
X003677Y008034D02*
X006496Y008034D01*
X006496Y007955D02*
X003677Y007955D01*
X003677Y007877D02*
X005582Y007877D01*
X005586Y007880D02*
X005514Y007809D01*
X005476Y007715D01*
X005476Y007613D01*
X005514Y007520D01*
X005586Y007448D01*
X005680Y007409D01*
X005718Y007409D01*
X005718Y006752D01*
X005672Y006706D01*
X005633Y006612D01*
X005633Y006511D01*
X005672Y006417D01*
X005744Y006346D01*
X005837Y006307D01*
X005939Y006307D01*
X006032Y006346D01*
X006104Y006417D01*
X006143Y006511D01*
X006143Y006612D01*
X006104Y006706D01*
X006058Y006752D01*
X006058Y007436D01*
X006058Y007577D01*
X005986Y007649D01*
X005986Y007715D01*
X005947Y007809D01*
X005875Y007880D01*
X005781Y007919D01*
X005680Y007919D01*
X005586Y007880D01*
X005510Y007798D02*
X003677Y007798D01*
X003677Y007720D02*
X005478Y007720D01*
X005476Y007641D02*
X003677Y007641D01*
X003677Y007563D02*
X005497Y007563D01*
X005550Y007484D02*
X003677Y007484D01*
X003677Y007406D02*
X005718Y007406D01*
X005718Y007327D02*
X003677Y007327D01*
X003677Y007249D02*
X005718Y007249D01*
X005718Y007170D02*
X003677Y007170D01*
X003677Y007092D02*
X005718Y007092D01*
X005718Y007013D02*
X003677Y007013D01*
X003677Y006935D02*
X005718Y006935D01*
X005718Y006856D02*
X003677Y006856D01*
X003677Y006778D02*
X005718Y006778D01*
X005669Y006699D02*
X003677Y006699D01*
X003677Y006621D02*
X005636Y006621D01*
X005633Y006542D02*
X003677Y006542D01*
X003677Y006464D02*
X005653Y006464D01*
X005704Y006385D02*
X003677Y006385D01*
X003693Y006307D02*
X006516Y006307D01*
X006516Y006385D02*
X006072Y006385D01*
X006123Y006464D02*
X006516Y006464D01*
X006516Y006542D02*
X006143Y006542D01*
X006140Y006621D02*
X006516Y006621D01*
X006516Y006699D02*
X006107Y006699D01*
X006058Y006778D02*
X006516Y006778D01*
X006516Y006856D02*
X006058Y006856D01*
X006058Y006935D02*
X006516Y006935D01*
X006516Y007013D02*
X006058Y007013D01*
X006058Y007092D02*
X008431Y007092D01*
X008431Y007170D02*
X006058Y007170D01*
X006058Y007249D02*
X008431Y007249D01*
X008110Y007327D02*
X008030Y007327D01*
X008030Y007301D02*
X008030Y007716D01*
X007576Y007716D01*
X007576Y007423D01*
X007585Y007387D01*
X007604Y007355D01*
X007630Y007329D01*
X007662Y007311D01*
X007697Y007301D01*
X008030Y007301D01*
X008030Y007406D02*
X008110Y007406D01*
X008110Y007484D02*
X008030Y007484D01*
X008030Y007563D02*
X008110Y007563D01*
X008110Y007641D02*
X008030Y007641D01*
X008030Y007720D02*
X007030Y007720D01*
X007030Y007798D02*
X006950Y007798D01*
X006950Y007720D02*
X005984Y007720D01*
X005994Y007641D02*
X006496Y007641D01*
X006496Y007716D02*
X006496Y007423D01*
X006505Y007387D01*
X006524Y007355D01*
X006550Y007329D01*
X006582Y007311D01*
X006617Y007301D01*
X006950Y007301D01*
X006950Y007716D01*
X006496Y007716D01*
X006496Y007798D02*
X005951Y007798D01*
X005879Y007877D02*
X006496Y007877D01*
X006950Y007877D02*
X007030Y007877D01*
X007030Y007955D02*
X006950Y007955D01*
X006950Y008034D02*
X007030Y008034D01*
X007030Y008112D02*
X006950Y008112D01*
X006950Y008191D02*
X007030Y008191D01*
X007418Y008191D02*
X007642Y008191D01*
X007630Y008183D02*
X007604Y008157D01*
X007585Y008125D01*
X007576Y008090D01*
X007576Y007796D01*
X008030Y007796D01*
X008030Y008211D01*
X007697Y008211D01*
X007662Y008202D01*
X007630Y008183D01*
X007582Y008112D02*
X007478Y008112D01*
X007484Y008034D02*
X007576Y008034D01*
X007576Y007955D02*
X007484Y007955D01*
X007484Y007877D02*
X007576Y007877D01*
X007576Y007798D02*
X007484Y007798D01*
X007484Y007641D02*
X007576Y007641D01*
X007576Y007563D02*
X007484Y007563D01*
X007484Y007484D02*
X007576Y007484D01*
X007580Y007406D02*
X007480Y007406D01*
X007427Y007327D02*
X007633Y007327D01*
X007596Y007013D02*
X007464Y007013D01*
X007464Y006935D02*
X007596Y006935D01*
X007596Y006856D02*
X007464Y006856D01*
X007464Y006778D02*
X007596Y006778D01*
X007596Y006699D02*
X007464Y006699D01*
X007464Y006621D02*
X007596Y006621D01*
X007596Y006542D02*
X007464Y006542D01*
X007464Y006464D02*
X007596Y006464D01*
X007596Y006385D02*
X007464Y006385D01*
X007464Y006307D02*
X007596Y006307D01*
X007657Y006228D02*
X007403Y006228D01*
X007230Y006150D02*
X008240Y006150D01*
X008240Y006071D02*
X007252Y006071D01*
X007331Y005993D02*
X008240Y005993D01*
X008240Y005914D02*
X007409Y005914D01*
X007000Y005757D02*
X006856Y005757D01*
X006856Y005836D02*
X006922Y005836D01*
X006843Y005914D02*
X006831Y005914D01*
X006830Y005993D02*
X006774Y005993D01*
X006830Y006071D02*
X003808Y006071D01*
X003762Y006150D02*
X006830Y006150D01*
X006577Y006228D02*
X003743Y006228D01*
X003887Y005993D02*
X006428Y005993D01*
X006379Y005600D02*
X003607Y005600D01*
X003720Y005679D02*
X003434Y005679D01*
X003356Y005757D02*
X003641Y005757D01*
X003563Y005836D02*
X003277Y005836D01*
X003199Y005914D02*
X003367Y005914D01*
X003289Y005993D02*
X003120Y005993D01*
X003110Y006071D02*
X003256Y006071D01*
X003252Y006150D02*
X003110Y006150D01*
X003110Y006228D02*
X003271Y006228D01*
X003321Y006307D02*
X003110Y006307D01*
X003110Y006385D02*
X003337Y006385D01*
X003337Y006464D02*
X003110Y006464D01*
X003110Y006542D02*
X003337Y006542D01*
X003337Y006621D02*
X003110Y006621D01*
X003110Y006699D02*
X003337Y006699D01*
X003337Y006778D02*
X003110Y006778D01*
X003110Y006856D02*
X003337Y006856D01*
X003337Y006935D02*
X003110Y006935D01*
X003110Y007013D02*
X003337Y007013D01*
X003337Y007092D02*
X003110Y007092D01*
X003110Y007170D02*
X003337Y007170D01*
X003337Y007249D02*
X003110Y007249D01*
X003110Y007327D02*
X003337Y007327D01*
X003337Y007406D02*
X003110Y007406D01*
X003110Y007484D02*
X003337Y007484D01*
X003337Y007563D02*
X003110Y007563D01*
X003110Y007641D02*
X003337Y007641D01*
X003337Y007720D02*
X003110Y007720D01*
X003110Y007798D02*
X003337Y007798D01*
X003337Y007877D02*
X003110Y007877D01*
X003110Y007955D02*
X003337Y007955D01*
X003337Y008034D02*
X003110Y008034D01*
X003110Y008112D02*
X003337Y008112D01*
X003337Y008191D02*
X003110Y008191D01*
X003110Y008269D02*
X003337Y008269D01*
X003337Y008348D02*
X003110Y008348D01*
X003110Y008426D02*
X003337Y008426D01*
X003336Y008505D02*
X003309Y008505D01*
X003360Y008583D02*
X003394Y008583D01*
X003360Y008662D02*
X003470Y008662D01*
X003520Y008740D02*
X003360Y008740D01*
X003360Y008819D02*
X003520Y008819D01*
X003520Y008897D02*
X003360Y008897D01*
X003360Y008976D02*
X003520Y008976D01*
X003520Y009054D02*
X003360Y009054D01*
X003360Y009133D02*
X003574Y009133D01*
X003652Y009211D02*
X003360Y009211D01*
X003325Y009290D02*
X003731Y009290D01*
X004149Y009290D02*
X004731Y009290D01*
X004766Y009325D02*
X004520Y009079D01*
X004520Y008731D01*
X004766Y008485D01*
X005114Y008485D01*
X005360Y008731D01*
X005360Y009079D01*
X005114Y009325D01*
X004766Y009325D01*
X004652Y009211D02*
X004228Y009211D01*
X004306Y009133D02*
X004574Y009133D01*
X004520Y009054D02*
X004360Y009054D01*
X004360Y008976D02*
X004520Y008976D01*
X004520Y008897D02*
X004360Y008897D01*
X004360Y008819D02*
X004520Y008819D01*
X004520Y008740D02*
X004360Y008740D01*
X004290Y008662D02*
X004590Y008662D01*
X004668Y008583D02*
X004212Y008583D01*
X004133Y008505D02*
X004747Y008505D01*
X005133Y008505D02*
X005747Y008505D01*
X005766Y008485D02*
X006114Y008485D01*
X006360Y008731D01*
X006360Y009079D01*
X006114Y009325D01*
X005766Y009325D01*
X005520Y009079D01*
X005520Y008731D01*
X005766Y008485D01*
X005668Y008583D02*
X005212Y008583D01*
X005290Y008662D02*
X005590Y008662D01*
X005520Y008740D02*
X005360Y008740D01*
X005360Y008819D02*
X005520Y008819D01*
X005520Y008897D02*
X005360Y008897D01*
X005360Y008976D02*
X005520Y008976D01*
X005520Y009054D02*
X005360Y009054D01*
X005306Y009133D02*
X005574Y009133D01*
X005652Y009211D02*
X005228Y009211D01*
X005149Y009290D02*
X005731Y009290D01*
X006149Y009290D02*
X006731Y009290D01*
X006766Y009325D02*
X006520Y009079D01*
X006520Y008731D01*
X006766Y008485D01*
X007114Y008485D01*
X007360Y008731D01*
X007360Y009079D01*
X007114Y009325D01*
X006766Y009325D01*
X006652Y009211D02*
X006228Y009211D01*
X006306Y009133D02*
X006574Y009133D01*
X006520Y009054D02*
X006360Y009054D01*
X006360Y008976D02*
X006520Y008976D01*
X006520Y008897D02*
X006360Y008897D01*
X006360Y008819D02*
X006520Y008819D01*
X006520Y008740D02*
X006360Y008740D01*
X006290Y008662D02*
X006590Y008662D01*
X006668Y008583D02*
X006212Y008583D01*
X006133Y008505D02*
X006747Y008505D01*
X007133Y008505D02*
X007747Y008505D01*
X007766Y008485D02*
X008114Y008485D01*
X008360Y008731D01*
X008360Y009079D01*
X008114Y009325D01*
X007766Y009325D01*
X007520Y009079D01*
X007520Y008731D01*
X007766Y008485D01*
X007668Y008583D02*
X007212Y008583D01*
X007290Y008662D02*
X007590Y008662D01*
X007520Y008740D02*
X007360Y008740D01*
X007360Y008819D02*
X007520Y008819D01*
X007520Y008897D02*
X007360Y008897D01*
X007360Y008976D02*
X007520Y008976D01*
X007520Y009054D02*
X007360Y009054D01*
X007306Y009133D02*
X007574Y009133D01*
X007652Y009211D02*
X007228Y009211D01*
X007149Y009290D02*
X007731Y009290D01*
X008149Y009290D02*
X008731Y009290D01*
X008766Y009325D02*
X008520Y009079D01*
X008520Y008731D01*
X008766Y008485D01*
X009114Y008485D01*
X009360Y008731D01*
X009360Y009079D01*
X009114Y009325D01*
X008766Y009325D01*
X008652Y009211D02*
X008228Y009211D01*
X008306Y009133D02*
X008574Y009133D01*
X008520Y009054D02*
X008360Y009054D01*
X008360Y008976D02*
X008520Y008976D01*
X008520Y008897D02*
X008360Y008897D01*
X008360Y008819D02*
X008520Y008819D01*
X008520Y008740D02*
X008360Y008740D01*
X008290Y008662D02*
X008590Y008662D01*
X008668Y008583D02*
X008212Y008583D01*
X008133Y008505D02*
X008747Y008505D01*
X009133Y008505D02*
X009747Y008505D01*
X009766Y008485D02*
X010114Y008485D01*
X010360Y008731D01*
X010360Y009079D01*
X010114Y009325D01*
X009766Y009325D01*
X009520Y009079D01*
X009520Y008731D01*
X009766Y008485D01*
X009668Y008583D02*
X009212Y008583D01*
X009290Y008662D02*
X009590Y008662D01*
X009520Y008740D02*
X009360Y008740D01*
X009360Y008819D02*
X009520Y008819D01*
X009520Y008897D02*
X009360Y008897D01*
X009360Y008976D02*
X009520Y008976D01*
X009520Y009054D02*
X009360Y009054D01*
X009306Y009133D02*
X009574Y009133D01*
X009652Y009211D02*
X009228Y009211D01*
X009149Y009290D02*
X009731Y009290D01*
X010149Y009290D02*
X010731Y009290D01*
X010766Y009325D02*
X010520Y009079D01*
X010520Y008731D01*
X010766Y008485D01*
X011114Y008485D01*
X011360Y008731D01*
X011360Y009079D01*
X011114Y009325D01*
X010766Y009325D01*
X010652Y009211D02*
X010228Y009211D01*
X010306Y009133D02*
X010574Y009133D01*
X010520Y009054D02*
X010360Y009054D01*
X010360Y008976D02*
X010520Y008976D01*
X010520Y008897D02*
X010360Y008897D01*
X010360Y008819D02*
X010520Y008819D01*
X010520Y008740D02*
X010360Y008740D01*
X010290Y008662D02*
X010590Y008662D01*
X010668Y008583D02*
X010212Y008583D01*
X010133Y008505D02*
X010747Y008505D01*
X011133Y008505D02*
X011747Y008505D01*
X011766Y008485D02*
X012114Y008485D01*
X012360Y008731D01*
X012360Y009079D01*
X012114Y009325D01*
X011766Y009325D01*
X011520Y009079D01*
X011520Y008731D01*
X011766Y008485D01*
X011668Y008583D02*
X011212Y008583D01*
X011290Y008662D02*
X011590Y008662D01*
X011520Y008740D02*
X011360Y008740D01*
X011360Y008819D02*
X011520Y008819D01*
X011520Y008897D02*
X011360Y008897D01*
X011360Y008976D02*
X011520Y008976D01*
X011520Y009054D02*
X011360Y009054D01*
X011306Y009133D02*
X011574Y009133D01*
X011652Y009211D02*
X011228Y009211D01*
X011149Y009290D02*
X011731Y009290D01*
X012149Y009290D02*
X012731Y009290D01*
X012766Y009325D02*
X012520Y009079D01*
X012520Y008731D01*
X012766Y008485D01*
X013114Y008485D01*
X013360Y008731D01*
X013360Y009079D01*
X013114Y009325D01*
X012766Y009325D01*
X012652Y009211D02*
X012228Y009211D01*
X012306Y009133D02*
X012574Y009133D01*
X012520Y009054D02*
X012360Y009054D01*
X012360Y008976D02*
X012520Y008976D01*
X012520Y008897D02*
X012360Y008897D01*
X012360Y008819D02*
X012520Y008819D01*
X012520Y008740D02*
X012360Y008740D01*
X012290Y008662D02*
X012590Y008662D01*
X012668Y008583D02*
X012212Y008583D01*
X012133Y008505D02*
X012747Y008505D01*
X013133Y008505D02*
X013747Y008505D01*
X013766Y008485D02*
X014114Y008485D01*
X014360Y008731D01*
X014360Y009079D01*
X014114Y009325D01*
X013766Y009325D01*
X013520Y009079D01*
X013520Y008731D01*
X013766Y008485D01*
X013668Y008583D02*
X013212Y008583D01*
X013290Y008662D02*
X013590Y008662D01*
X013520Y008740D02*
X013360Y008740D01*
X013360Y008819D02*
X013520Y008819D01*
X013520Y008897D02*
X013360Y008897D01*
X013360Y008976D02*
X013520Y008976D01*
X013520Y009054D02*
X013360Y009054D01*
X013306Y009133D02*
X013574Y009133D01*
X013652Y009211D02*
X013228Y009211D01*
X013149Y009290D02*
X013731Y009290D01*
X014149Y009290D02*
X014731Y009290D01*
X014766Y009325D02*
X014520Y009079D01*
X014520Y008731D01*
X014766Y008485D01*
X015114Y008485D01*
X015360Y008731D01*
X015360Y009079D01*
X015114Y009325D01*
X014766Y009325D01*
X014652Y009211D02*
X014228Y009211D01*
X014306Y009133D02*
X014574Y009133D01*
X014520Y009054D02*
X014360Y009054D01*
X014360Y008976D02*
X014520Y008976D01*
X014520Y008897D02*
X014360Y008897D01*
X014360Y008819D02*
X014520Y008819D01*
X014520Y008740D02*
X014360Y008740D01*
X014290Y008662D02*
X014590Y008662D01*
X014668Y008583D02*
X014212Y008583D01*
X014133Y008505D02*
X014747Y008505D01*
X015133Y008505D02*
X015747Y008505D01*
X015766Y008485D02*
X016114Y008485D01*
X016360Y008731D01*
X016360Y009079D01*
X016114Y009325D01*
X015766Y009325D01*
X015520Y009079D01*
X015520Y008731D01*
X015766Y008485D01*
X015668Y008583D02*
X015212Y008583D01*
X015290Y008662D02*
X015590Y008662D01*
X015520Y008740D02*
X015360Y008740D01*
X015360Y008819D02*
X015520Y008819D01*
X015520Y008897D02*
X015360Y008897D01*
X015360Y008976D02*
X015520Y008976D01*
X015520Y009054D02*
X015360Y009054D01*
X015306Y009133D02*
X015574Y009133D01*
X015652Y009211D02*
X015228Y009211D01*
X015149Y009290D02*
X015731Y009290D01*
X016149Y009290D02*
X016731Y009290D01*
X016766Y009325D02*
X016520Y009079D01*
X016520Y008731D01*
X016766Y008485D01*
X017114Y008485D01*
X017360Y008731D01*
X017360Y009079D01*
X017114Y009325D01*
X016766Y009325D01*
X016652Y009211D02*
X016228Y009211D01*
X016306Y009133D02*
X016574Y009133D01*
X016520Y009054D02*
X016360Y009054D01*
X016360Y008976D02*
X016520Y008976D01*
X016520Y008897D02*
X016360Y008897D01*
X016360Y008819D02*
X016520Y008819D01*
X016520Y008740D02*
X016360Y008740D01*
X016290Y008662D02*
X016590Y008662D01*
X016668Y008583D02*
X016212Y008583D01*
X016133Y008505D02*
X016747Y008505D01*
X017133Y008505D02*
X017747Y008505D01*
X017668Y008583D02*
X017212Y008583D01*
X017290Y008662D02*
X017590Y008662D01*
X017520Y008740D02*
X017360Y008740D01*
X017360Y008819D02*
X017520Y008819D01*
X017520Y008897D02*
X017360Y008897D01*
X017360Y008976D02*
X017520Y008976D01*
X017520Y009054D02*
X017360Y009054D01*
X017306Y009133D02*
X017574Y009133D01*
X017652Y009211D02*
X017228Y009211D01*
X017149Y009290D02*
X017731Y009290D01*
X018139Y009447D02*
X000741Y009447D01*
X002178Y009290D02*
X002555Y009290D01*
X002520Y009211D02*
X002256Y009211D01*
X002335Y009133D02*
X002520Y009133D01*
X002520Y009054D02*
X002380Y009054D01*
X002380Y008976D02*
X002520Y008976D01*
X006058Y007563D02*
X006496Y007563D01*
X006496Y007484D02*
X006058Y007484D01*
X006058Y007406D02*
X006500Y007406D01*
X006553Y007327D02*
X006058Y007327D01*
X006950Y007327D02*
X007030Y007327D01*
X007030Y007406D02*
X006950Y007406D01*
X006950Y007484D02*
X007030Y007484D01*
X007030Y007563D02*
X006950Y007563D01*
X006950Y007641D02*
X007030Y007641D01*
X008030Y007798D02*
X008110Y007798D01*
X008110Y007877D02*
X008030Y007877D01*
X008030Y007955D02*
X008110Y007955D01*
X008110Y008034D02*
X008030Y008034D01*
X008030Y008112D02*
X008110Y008112D01*
X008110Y008191D02*
X008030Y008191D01*
X008498Y008191D02*
X018550Y008191D01*
X018550Y008112D02*
X013247Y008112D01*
X013279Y008034D02*
X018550Y008034D01*
X018550Y007955D02*
X013279Y007955D01*
X013279Y007877D02*
X018550Y007877D01*
X018550Y007798D02*
X013279Y007798D01*
X013279Y007720D02*
X018550Y007720D01*
X018550Y007641D02*
X013279Y007641D01*
X013279Y007563D02*
X018550Y007563D01*
X018550Y007484D02*
X013279Y007484D01*
X013279Y007406D02*
X018550Y007406D01*
X018550Y007327D02*
X013279Y007327D01*
X013279Y007249D02*
X018550Y007249D01*
X018550Y007170D02*
X013279Y007170D01*
X013279Y007092D02*
X018550Y007092D01*
X018550Y007013D02*
X013279Y007013D01*
X013279Y006935D02*
X018550Y006935D01*
X018550Y006856D02*
X013279Y006856D01*
X013279Y006778D02*
X018550Y006778D01*
X018550Y006699D02*
X016475Y006699D01*
X016573Y006621D02*
X018550Y006621D01*
X018550Y006542D02*
X016646Y006542D01*
X016679Y006464D02*
X018550Y006464D01*
X018550Y006385D02*
X016711Y006385D01*
X016714Y006307D02*
X018550Y006307D01*
X018550Y006228D02*
X016714Y006228D01*
X016698Y006150D02*
X018550Y006150D01*
X018550Y006071D02*
X016666Y006071D01*
X016620Y005993D02*
X018550Y005993D01*
X018550Y005914D02*
X016542Y005914D01*
X016452Y005836D02*
X018550Y005836D01*
X018550Y005757D02*
X016452Y005757D01*
X016452Y005679D02*
X018550Y005679D01*
X018550Y005600D02*
X016452Y005600D01*
X016452Y005522D02*
X018550Y005522D01*
X018550Y005443D02*
X016452Y005443D01*
X016452Y005365D02*
X018550Y005365D01*
X018550Y005286D02*
X016452Y005286D01*
X016452Y005208D02*
X018550Y005208D01*
X018550Y005129D02*
X016452Y005129D01*
X016452Y005051D02*
X018550Y005051D01*
X018550Y004972D02*
X016452Y004972D01*
X016452Y004894D02*
X018550Y004894D01*
X018550Y004815D02*
X016452Y004815D01*
X016452Y004737D02*
X018550Y004737D01*
X018550Y004658D02*
X016452Y004658D01*
X016452Y004580D02*
X018550Y004580D01*
X018550Y004501D02*
X016431Y004501D01*
X016352Y004423D02*
X018550Y004423D01*
X018550Y004344D02*
X016274Y004344D01*
X016195Y004266D02*
X018550Y004266D01*
X018550Y004187D02*
X016117Y004187D01*
X016038Y004109D02*
X018550Y004109D01*
X018550Y004030D02*
X015960Y004030D01*
X015984Y003952D02*
X015881Y003952D01*
X015918Y003904D02*
X015981Y003950D01*
X016050Y003985D01*
X016124Y004009D01*
X016200Y004021D01*
X016200Y003567D01*
X016200Y003487D01*
X016280Y003487D01*
X016280Y003033D01*
X016356Y003045D01*
X016430Y003069D01*
X016499Y003104D01*
X016562Y003150D01*
X016617Y003205D01*
X016663Y003268D01*
X016698Y003337D01*
X016722Y003411D01*
X016734Y003487D01*
X016280Y003487D01*
X016280Y003567D01*
X016734Y003567D01*
X016722Y003643D01*
X016698Y003717D01*
X016663Y003786D01*
X016617Y003849D01*
X016562Y003904D01*
X016499Y003950D01*
X016430Y003985D01*
X016356Y004009D01*
X016280Y004021D01*
X016280Y003567D01*
X016200Y003567D01*
X015746Y003567D01*
X015758Y003643D01*
X015782Y003717D01*
X015817Y003786D01*
X015863Y003849D01*
X015918Y003904D01*
X015887Y003873D02*
X015803Y003873D01*
X015823Y003795D02*
X015724Y003795D01*
X015782Y003716D02*
X015646Y003716D01*
X015567Y003638D02*
X015757Y003638D01*
X015564Y003559D02*
X016200Y003559D01*
X016200Y003487D02*
X015746Y003487D01*
X015758Y003411D01*
X015782Y003337D01*
X015817Y003268D01*
X015863Y003205D01*
X015918Y003150D01*
X015981Y003104D01*
X016050Y003069D01*
X016124Y003045D01*
X016200Y003033D01*
X016200Y003487D01*
X016200Y003481D02*
X016280Y003481D01*
X016280Y003559D02*
X018550Y003559D01*
X018550Y003481D02*
X016733Y003481D01*
X016719Y003402D02*
X018550Y003402D01*
X018550Y003324D02*
X016691Y003324D01*
X016646Y003245D02*
X018550Y003245D01*
X018550Y003167D02*
X016579Y003167D01*
X016467Y003088D02*
X018550Y003088D01*
X018550Y003010D02*
X015564Y003010D01*
X015564Y003088D02*
X016013Y003088D01*
X015901Y003167D02*
X015564Y003167D01*
X015564Y003245D02*
X015834Y003245D01*
X015789Y003324D02*
X015564Y003324D01*
X015564Y003402D02*
X015761Y003402D01*
X015747Y003481D02*
X015564Y003481D01*
X015010Y003481D02*
X013279Y003481D01*
X013279Y003559D02*
X015010Y003559D01*
X015010Y003638D02*
X014484Y003638D01*
X014514Y003650D02*
X014615Y003751D01*
X014670Y003883D01*
X014670Y004027D01*
X014615Y004159D01*
X014514Y004260D01*
X014510Y004262D01*
X014510Y004938D01*
X014500Y004948D01*
X014499Y004949D01*
X014441Y005007D01*
X014393Y005055D01*
X014383Y005065D01*
X014382Y005065D01*
X013388Y006047D01*
X013330Y006105D01*
X013330Y006105D01*
X013330Y006105D01*
X013778Y006105D01*
X013952Y005931D01*
X013950Y005927D01*
X013950Y005783D01*
X014005Y005651D01*
X014106Y005550D01*
X014238Y005495D01*
X014287Y005495D01*
X014261Y005431D01*
X014261Y005330D01*
X014299Y005236D01*
X014371Y005164D01*
X014465Y005126D01*
X014519Y005126D01*
X014612Y005032D01*
X014585Y005005D01*
X014585Y004405D01*
X014655Y004335D01*
X015005Y004335D01*
X015010Y004335D01*
X015010Y002420D01*
X014833Y002244D01*
X013279Y002244D01*
X013279Y005592D01*
X014110Y004772D01*
X014110Y004262D01*
X014106Y004260D01*
X014005Y004159D01*
X013950Y004027D01*
X013950Y003883D01*
X014005Y003751D01*
X014106Y003650D01*
X014238Y003595D01*
X014382Y003595D01*
X014514Y003650D01*
X014580Y003716D02*
X015010Y003716D01*
X015010Y003795D02*
X014633Y003795D01*
X014666Y003873D02*
X015010Y003873D01*
X015010Y003952D02*
X014670Y003952D01*
X014669Y004030D02*
X015010Y004030D01*
X015010Y004109D02*
X014636Y004109D01*
X014587Y004187D02*
X015010Y004187D01*
X015010Y004266D02*
X014510Y004266D01*
X014510Y004344D02*
X014646Y004344D01*
X014585Y004423D02*
X014510Y004423D01*
X014510Y004501D02*
X014585Y004501D01*
X014585Y004580D02*
X014510Y004580D01*
X014510Y004658D02*
X014585Y004658D01*
X014585Y004737D02*
X014510Y004737D01*
X014510Y004815D02*
X014585Y004815D01*
X014585Y004894D02*
X014510Y004894D01*
X014476Y004972D02*
X014585Y004972D01*
X014594Y005051D02*
X014397Y005051D01*
X014457Y005129D02*
X014317Y005129D01*
X014328Y005208D02*
X014238Y005208D01*
X014279Y005286D02*
X014158Y005286D01*
X014079Y005365D02*
X014261Y005365D01*
X014265Y005443D02*
X014000Y005443D01*
X013920Y005522D02*
X014174Y005522D01*
X014056Y005600D02*
X013841Y005600D01*
X013761Y005679D02*
X013993Y005679D01*
X013961Y005757D02*
X013682Y005757D01*
X013602Y005836D02*
X013950Y005836D01*
X013950Y005914D02*
X013523Y005914D01*
X013443Y005993D02*
X013891Y005993D01*
X013812Y006071D02*
X013364Y006071D01*
X013985Y006464D02*
X015801Y006464D01*
X015834Y006542D02*
X013279Y006542D01*
X013279Y006621D02*
X015907Y006621D01*
X016005Y006699D02*
X013279Y006699D01*
X014064Y006385D02*
X015769Y006385D01*
X015766Y006307D02*
X014142Y006307D01*
X014221Y006228D02*
X015766Y006228D01*
X015782Y006150D02*
X014525Y006150D01*
X014603Y006071D02*
X015814Y006071D01*
X015860Y005993D02*
X014643Y005993D01*
X014670Y005914D02*
X015938Y005914D01*
X016081Y005836D02*
X014670Y005836D01*
X014659Y005757D02*
X016112Y005757D01*
X016112Y005679D02*
X014627Y005679D01*
X014652Y005600D02*
X016112Y005600D01*
X016112Y005522D02*
X014733Y005522D01*
X014766Y005443D02*
X016112Y005443D01*
X016112Y005365D02*
X014771Y005365D01*
X014839Y005286D02*
X016112Y005286D01*
X016112Y005208D02*
X014918Y005208D01*
X014996Y005129D02*
X016112Y005129D01*
X016112Y005051D02*
X015757Y005051D01*
X015767Y005041D02*
X015741Y005067D01*
X015709Y005085D01*
X015673Y005095D01*
X015553Y005095D01*
X015553Y004728D01*
X015795Y004728D01*
X015795Y004973D01*
X015785Y005009D01*
X015767Y005041D01*
X015795Y004972D02*
X016112Y004972D01*
X016112Y004894D02*
X015795Y004894D01*
X015795Y004815D02*
X016112Y004815D01*
X016112Y004737D02*
X015795Y004737D01*
X015795Y004682D02*
X015553Y004682D01*
X015553Y004315D01*
X015673Y004315D01*
X015709Y004325D01*
X015741Y004343D01*
X015767Y004369D01*
X015785Y004401D01*
X015795Y004437D01*
X015795Y004682D01*
X015795Y004658D02*
X016107Y004658D01*
X016028Y004580D02*
X015795Y004580D01*
X015795Y004501D02*
X015950Y004501D01*
X015871Y004423D02*
X015791Y004423D01*
X015793Y004344D02*
X015742Y004344D01*
X015714Y004266D02*
X015350Y004266D01*
X015350Y004187D02*
X015636Y004187D01*
X015557Y004109D02*
X015350Y004109D01*
X015350Y004030D02*
X015479Y004030D01*
X015400Y003952D02*
X015350Y003952D01*
X015507Y004344D02*
X015553Y004344D01*
X015553Y004423D02*
X015507Y004423D01*
X015507Y004501D02*
X015553Y004501D01*
X015553Y004580D02*
X015507Y004580D01*
X015507Y004658D02*
X015553Y004658D01*
X015553Y004737D02*
X015507Y004737D01*
X015507Y004815D02*
X015553Y004815D01*
X015553Y004894D02*
X015507Y004894D01*
X015507Y004972D02*
X015553Y004972D01*
X015553Y005051D02*
X015507Y005051D01*
X015005Y005075D02*
X015005Y005075D01*
X014110Y004737D02*
X013279Y004737D01*
X013279Y004815D02*
X014066Y004815D01*
X013987Y004894D02*
X013279Y004894D01*
X013279Y004972D02*
X013907Y004972D01*
X013828Y005051D02*
X013279Y005051D01*
X013279Y005129D02*
X013748Y005129D01*
X013669Y005208D02*
X013279Y005208D01*
X013279Y005286D02*
X013589Y005286D01*
X013510Y005365D02*
X013279Y005365D01*
X013279Y005443D02*
X013430Y005443D01*
X013351Y005522D02*
X013279Y005522D01*
X013279Y004658D02*
X014110Y004658D01*
X014110Y004580D02*
X013279Y004580D01*
X013279Y004501D02*
X014110Y004501D01*
X014110Y004423D02*
X013279Y004423D01*
X013279Y004344D02*
X014110Y004344D01*
X014110Y004266D02*
X013279Y004266D01*
X013279Y004187D02*
X014033Y004187D01*
X013984Y004109D02*
X013279Y004109D01*
X013279Y004030D02*
X013951Y004030D01*
X013950Y003952D02*
X013279Y003952D01*
X013279Y003873D02*
X013954Y003873D01*
X013987Y003795D02*
X013279Y003795D01*
X013279Y003716D02*
X014040Y003716D01*
X014136Y003638D02*
X013279Y003638D01*
X013279Y003402D02*
X015010Y003402D01*
X015010Y003324D02*
X013279Y003324D01*
X013279Y003245D02*
X015010Y003245D01*
X015010Y003167D02*
X013279Y003167D01*
X013279Y003088D02*
X015010Y003088D01*
X015010Y003010D02*
X013279Y003010D01*
X013279Y002931D02*
X015010Y002931D01*
X015010Y002853D02*
X013279Y002853D01*
X013279Y002774D02*
X015010Y002774D01*
X015010Y002696D02*
X013279Y002696D01*
X013279Y002617D02*
X015010Y002617D01*
X015010Y002539D02*
X013279Y002539D01*
X013279Y002460D02*
X015010Y002460D01*
X014971Y002382D02*
X013279Y002382D01*
X013279Y002303D02*
X014893Y002303D01*
X015353Y001989D02*
X018550Y001989D01*
X018550Y001911D02*
X015275Y001911D01*
X015196Y001832D02*
X018550Y001832D01*
X018550Y001754D02*
X015118Y001754D01*
X015114Y001325D02*
X014766Y001325D01*
X014520Y001079D01*
X014520Y000731D01*
X014766Y000485D01*
X015114Y000485D01*
X015360Y000731D01*
X015360Y001079D01*
X015114Y001325D01*
X015156Y001283D02*
X015724Y001283D01*
X015766Y001325D02*
X015520Y001079D01*
X015520Y000731D01*
X015766Y000485D01*
X016114Y000485D01*
X016360Y000731D01*
X016360Y001079D01*
X016114Y001325D01*
X015766Y001325D01*
X015645Y001204D02*
X015235Y001204D01*
X015313Y001126D02*
X015567Y001126D01*
X015520Y001047D02*
X015360Y001047D01*
X015360Y000969D02*
X015520Y000969D01*
X015520Y000890D02*
X015360Y000890D01*
X015360Y000812D02*
X015520Y000812D01*
X015520Y000733D02*
X015360Y000733D01*
X015283Y000655D02*
X015597Y000655D01*
X015675Y000576D02*
X015205Y000576D01*
X015126Y000498D02*
X015754Y000498D01*
X016126Y000498D02*
X016754Y000498D01*
X016766Y000485D02*
X017114Y000485D01*
X017360Y000731D01*
X017360Y001079D01*
X017114Y001325D01*
X016766Y001325D01*
X016520Y001079D01*
X016520Y000731D01*
X016766Y000485D01*
X016675Y000576D02*
X016205Y000576D01*
X016283Y000655D02*
X016597Y000655D01*
X016520Y000733D02*
X016360Y000733D01*
X016360Y000812D02*
X016520Y000812D01*
X016520Y000890D02*
X016360Y000890D01*
X016360Y000969D02*
X016520Y000969D01*
X016520Y001047D02*
X016360Y001047D01*
X016313Y001126D02*
X016567Y001126D01*
X016645Y001204D02*
X016235Y001204D01*
X016156Y001283D02*
X016724Y001283D01*
X017156Y001283D02*
X017724Y001283D01*
X017766Y001325D02*
X017520Y001079D01*
X017520Y000731D01*
X017766Y000485D01*
X018114Y000485D01*
X018360Y000731D01*
X018360Y001079D01*
X018114Y001325D01*
X017766Y001325D01*
X017645Y001204D02*
X017235Y001204D01*
X017313Y001126D02*
X017567Y001126D01*
X017520Y001047D02*
X017360Y001047D01*
X017360Y000969D02*
X017520Y000969D01*
X017520Y000890D02*
X017360Y000890D01*
X017360Y000812D02*
X017520Y000812D01*
X017520Y000733D02*
X017360Y000733D01*
X017283Y000655D02*
X017597Y000655D01*
X017675Y000576D02*
X017205Y000576D01*
X017126Y000498D02*
X017754Y000498D01*
X018126Y000498D02*
X018273Y000498D01*
X018205Y000576D02*
X018352Y000576D01*
X018283Y000655D02*
X018430Y000655D01*
X018360Y000733D02*
X018509Y000733D01*
X018550Y000812D02*
X018360Y000812D01*
X018360Y000890D02*
X018550Y000890D01*
X018550Y000969D02*
X018360Y000969D01*
X018360Y001047D02*
X018550Y001047D01*
X018550Y001126D02*
X018313Y001126D01*
X018235Y001204D02*
X018550Y001204D01*
X018550Y001283D02*
X018156Y001283D01*
X018550Y001361D02*
X001679Y001361D01*
X001724Y001283D02*
X001600Y001283D01*
X001645Y001204D02*
X001522Y001204D01*
X001567Y001126D02*
X001443Y001126D01*
X001520Y001079D02*
X001520Y000731D01*
X001766Y000485D01*
X002114Y000485D01*
X002360Y000731D01*
X002360Y001079D01*
X002114Y001325D01*
X001766Y001325D01*
X001520Y001079D01*
X001520Y001047D02*
X001365Y001047D01*
X001360Y000969D02*
X001520Y000969D01*
X001520Y000890D02*
X001360Y000890D01*
X001360Y000812D02*
X001520Y000812D01*
X001520Y000733D02*
X001360Y000733D01*
X001283Y000655D02*
X001597Y000655D01*
X001675Y000576D02*
X001205Y000576D01*
X001126Y000498D02*
X001754Y000498D01*
X002126Y000498D02*
X002578Y000498D01*
X002590Y000485D02*
X002520Y000555D01*
X002520Y001255D01*
X002590Y001325D01*
X003290Y001325D01*
X003360Y001255D01*
X003360Y000555D01*
X003290Y000485D01*
X002590Y000485D01*
X002520Y000576D02*
X002205Y000576D01*
X002283Y000655D02*
X002520Y000655D01*
X002520Y000733D02*
X002360Y000733D01*
X002360Y000812D02*
X002520Y000812D01*
X002520Y000890D02*
X002360Y000890D01*
X002360Y000969D02*
X002520Y000969D01*
X002520Y001047D02*
X002360Y001047D01*
X002313Y001126D02*
X002520Y001126D01*
X002520Y001204D02*
X002235Y001204D01*
X002156Y001283D02*
X002548Y001283D01*
X003332Y001283D02*
X003724Y001283D01*
X003766Y001325D02*
X003520Y001079D01*
X003520Y000731D01*
X003766Y000485D01*
X004114Y000485D01*
X004360Y000731D01*
X004360Y001079D01*
X004114Y001325D01*
X003766Y001325D01*
X003805Y001440D02*
X018550Y001440D01*
X018550Y001518D02*
X003883Y001518D01*
X004156Y001283D02*
X004724Y001283D01*
X004766Y001325D02*
X004520Y001079D01*
X004520Y000731D01*
X004766Y000485D01*
X005114Y000485D01*
X005360Y000731D01*
X005360Y001079D01*
X005114Y001325D01*
X004766Y001325D01*
X004645Y001204D02*
X004235Y001204D01*
X004313Y001126D02*
X004567Y001126D01*
X004520Y001047D02*
X004360Y001047D01*
X004360Y000969D02*
X004520Y000969D01*
X004520Y000890D02*
X004360Y000890D01*
X004360Y000812D02*
X004520Y000812D01*
X004520Y000733D02*
X004360Y000733D01*
X004283Y000655D02*
X004597Y000655D01*
X004675Y000576D02*
X004205Y000576D01*
X004126Y000498D02*
X004754Y000498D01*
X005126Y000498D02*
X005754Y000498D01*
X005766Y000485D02*
X006114Y000485D01*
X006360Y000731D01*
X006360Y001079D01*
X006114Y001325D01*
X005766Y001325D01*
X005520Y001079D01*
X005520Y000731D01*
X005766Y000485D01*
X005675Y000576D02*
X005205Y000576D01*
X005283Y000655D02*
X005597Y000655D01*
X005520Y000733D02*
X005360Y000733D01*
X005360Y000812D02*
X005520Y000812D01*
X005520Y000890D02*
X005360Y000890D01*
X005360Y000969D02*
X005520Y000969D01*
X005520Y001047D02*
X005360Y001047D01*
X005313Y001126D02*
X005567Y001126D01*
X005645Y001204D02*
X005235Y001204D01*
X005156Y001283D02*
X005724Y001283D01*
X006156Y001283D02*
X006724Y001283D01*
X006766Y001325D02*
X006520Y001079D01*
X006520Y000731D01*
X006766Y000485D01*
X007114Y000485D01*
X007360Y000731D01*
X007360Y001079D01*
X007114Y001325D01*
X006766Y001325D01*
X006645Y001204D02*
X006235Y001204D01*
X006313Y001126D02*
X006567Y001126D01*
X006520Y001047D02*
X006360Y001047D01*
X006360Y000969D02*
X006520Y000969D01*
X006520Y000890D02*
X006360Y000890D01*
X006360Y000812D02*
X006520Y000812D01*
X006520Y000733D02*
X006360Y000733D01*
X006283Y000655D02*
X006597Y000655D01*
X006675Y000576D02*
X006205Y000576D01*
X006126Y000498D02*
X006754Y000498D01*
X007126Y000498D02*
X007754Y000498D01*
X007766Y000485D02*
X008114Y000485D01*
X008360Y000731D01*
X008360Y001079D01*
X008114Y001325D01*
X007766Y001325D01*
X007520Y001079D01*
X007520Y000731D01*
X007766Y000485D01*
X007675Y000576D02*
X007205Y000576D01*
X007283Y000655D02*
X007597Y000655D01*
X007520Y000733D02*
X007360Y000733D01*
X007360Y000812D02*
X007520Y000812D01*
X007520Y000890D02*
X007360Y000890D01*
X007360Y000969D02*
X007520Y000969D01*
X007520Y001047D02*
X007360Y001047D01*
X007313Y001126D02*
X007567Y001126D01*
X007645Y001204D02*
X007235Y001204D01*
X007156Y001283D02*
X007724Y001283D01*
X008156Y001283D02*
X008724Y001283D01*
X008766Y001325D02*
X008520Y001079D01*
X008520Y000731D01*
X008766Y000485D01*
X009114Y000485D01*
X009360Y000731D01*
X009360Y001079D01*
X009114Y001325D01*
X008766Y001325D01*
X008645Y001204D02*
X008235Y001204D01*
X008313Y001126D02*
X008567Y001126D01*
X008520Y001047D02*
X008360Y001047D01*
X008360Y000969D02*
X008520Y000969D01*
X008520Y000890D02*
X008360Y000890D01*
X008360Y000812D02*
X008520Y000812D01*
X008520Y000733D02*
X008360Y000733D01*
X008283Y000655D02*
X008597Y000655D01*
X008675Y000576D02*
X008205Y000576D01*
X008126Y000498D02*
X008754Y000498D01*
X009126Y000498D02*
X009754Y000498D01*
X009766Y000485D02*
X010114Y000485D01*
X010360Y000731D01*
X010360Y001079D01*
X010114Y001325D01*
X009766Y001325D01*
X009520Y001079D01*
X009520Y000731D01*
X009766Y000485D01*
X009675Y000576D02*
X009205Y000576D01*
X009283Y000655D02*
X009597Y000655D01*
X009520Y000733D02*
X009360Y000733D01*
X009360Y000812D02*
X009520Y000812D01*
X009520Y000890D02*
X009360Y000890D01*
X009360Y000969D02*
X009520Y000969D01*
X009520Y001047D02*
X009360Y001047D01*
X009313Y001126D02*
X009567Y001126D01*
X009645Y001204D02*
X009235Y001204D01*
X009156Y001283D02*
X009724Y001283D01*
X010156Y001283D02*
X010724Y001283D01*
X010766Y001325D02*
X010520Y001079D01*
X010520Y000731D01*
X010766Y000485D01*
X011114Y000485D01*
X011360Y000731D01*
X011360Y001079D01*
X011114Y001325D01*
X010766Y001325D01*
X010645Y001204D02*
X010235Y001204D01*
X010313Y001126D02*
X010567Y001126D01*
X010520Y001047D02*
X010360Y001047D01*
X010360Y000969D02*
X010520Y000969D01*
X010520Y000890D02*
X010360Y000890D01*
X010360Y000812D02*
X010520Y000812D01*
X010520Y000733D02*
X010360Y000733D01*
X010283Y000655D02*
X010597Y000655D01*
X010675Y000576D02*
X010205Y000576D01*
X010126Y000498D02*
X010754Y000498D01*
X011126Y000498D02*
X011754Y000498D01*
X011766Y000485D02*
X012114Y000485D01*
X012360Y000731D01*
X012360Y001079D01*
X012114Y001325D01*
X011766Y001325D01*
X011520Y001079D01*
X011520Y000731D01*
X011766Y000485D01*
X011675Y000576D02*
X011205Y000576D01*
X011283Y000655D02*
X011597Y000655D01*
X011520Y000733D02*
X011360Y000733D01*
X011360Y000812D02*
X011520Y000812D01*
X011520Y000890D02*
X011360Y000890D01*
X011360Y000969D02*
X011520Y000969D01*
X011520Y001047D02*
X011360Y001047D01*
X011313Y001126D02*
X011567Y001126D01*
X011645Y001204D02*
X011235Y001204D01*
X011156Y001283D02*
X011724Y001283D01*
X012156Y001283D02*
X012724Y001283D01*
X012766Y001325D02*
X012520Y001079D01*
X012520Y000731D01*
X012766Y000485D01*
X013114Y000485D01*
X013360Y000731D01*
X013360Y001079D01*
X013114Y001325D01*
X012766Y001325D01*
X012645Y001204D02*
X012235Y001204D01*
X012313Y001126D02*
X012567Y001126D01*
X012520Y001047D02*
X012360Y001047D01*
X012360Y000969D02*
X012520Y000969D01*
X012520Y000890D02*
X012360Y000890D01*
X012360Y000812D02*
X012520Y000812D01*
X012520Y000733D02*
X012360Y000733D01*
X012283Y000655D02*
X012597Y000655D01*
X012675Y000576D02*
X012205Y000576D01*
X012126Y000498D02*
X012754Y000498D01*
X013126Y000498D02*
X013754Y000498D01*
X013766Y000485D02*
X014114Y000485D01*
X014360Y000731D01*
X014360Y001079D01*
X014114Y001325D01*
X013766Y001325D01*
X013520Y001079D01*
X013520Y000731D01*
X013766Y000485D01*
X013675Y000576D02*
X013205Y000576D01*
X013283Y000655D02*
X013597Y000655D01*
X013520Y000733D02*
X013360Y000733D01*
X013360Y000812D02*
X013520Y000812D01*
X013520Y000890D02*
X013360Y000890D01*
X013360Y000969D02*
X013520Y000969D01*
X013520Y001047D02*
X013360Y001047D01*
X013313Y001126D02*
X013567Y001126D01*
X013645Y001204D02*
X013235Y001204D01*
X013156Y001283D02*
X013724Y001283D01*
X014156Y001283D02*
X014724Y001283D01*
X014645Y001204D02*
X014235Y001204D01*
X014313Y001126D02*
X014567Y001126D01*
X014520Y001047D02*
X014360Y001047D01*
X014360Y000969D02*
X014520Y000969D01*
X014520Y000890D02*
X014360Y000890D01*
X014360Y000812D02*
X014520Y000812D01*
X014520Y000733D02*
X014360Y000733D01*
X014283Y000655D02*
X014597Y000655D01*
X014675Y000576D02*
X014205Y000576D01*
X014126Y000498D02*
X014754Y000498D01*
X015432Y002068D02*
X018550Y002068D01*
X018550Y002146D02*
X015510Y002146D01*
X015564Y002225D02*
X018550Y002225D01*
X018550Y002303D02*
X015564Y002303D01*
X015564Y002382D02*
X018550Y002382D01*
X018550Y002460D02*
X015564Y002460D01*
X015564Y002539D02*
X018550Y002539D01*
X018550Y002617D02*
X015564Y002617D01*
X015564Y002696D02*
X018550Y002696D01*
X018550Y002774D02*
X015564Y002774D01*
X015564Y002853D02*
X018550Y002853D01*
X018550Y002931D02*
X015564Y002931D01*
X016200Y003088D02*
X016280Y003088D01*
X016280Y003167D02*
X016200Y003167D01*
X016200Y003245D02*
X016280Y003245D01*
X016280Y003324D02*
X016200Y003324D01*
X016200Y003402D02*
X016280Y003402D01*
X016280Y003638D02*
X016200Y003638D01*
X016200Y003716D02*
X016280Y003716D01*
X016280Y003795D02*
X016200Y003795D01*
X016200Y003873D02*
X016280Y003873D01*
X016280Y003952D02*
X016200Y003952D01*
X016496Y003952D02*
X018550Y003952D01*
X018550Y003873D02*
X016593Y003873D01*
X016657Y003795D02*
X018550Y003795D01*
X018550Y003716D02*
X016698Y003716D01*
X016723Y003638D02*
X018550Y003638D01*
X015005Y004335D02*
X015005Y004335D01*
X015005Y004335D01*
X010122Y001754D02*
X009969Y001754D01*
X008431Y002068D02*
X006922Y002068D01*
X006843Y002146D02*
X008431Y002146D01*
X008431Y002225D02*
X006765Y002225D01*
X006686Y002303D02*
X008431Y002303D01*
X008431Y002382D02*
X006608Y002382D01*
X006529Y002460D02*
X008431Y002460D01*
X008431Y002539D02*
X006451Y002539D01*
X006372Y002617D02*
X008431Y002617D01*
X008431Y002696D02*
X006294Y002696D01*
X006268Y002721D02*
X006268Y002721D01*
X006215Y002774D02*
X008431Y002774D01*
X008431Y003324D02*
X008210Y003324D01*
X008214Y003325D02*
X008246Y003343D01*
X008272Y003369D01*
X008290Y003401D01*
X008300Y003437D01*
X008300Y003655D01*
X007760Y003655D01*
X007760Y003735D01*
X007680Y003735D01*
X007680Y004075D01*
X007262Y004075D01*
X007226Y004065D01*
X007194Y004047D01*
X007168Y004021D01*
X007150Y003989D01*
X007140Y003953D01*
X007140Y003735D01*
X007680Y003735D01*
X007680Y003655D01*
X007760Y003655D01*
X007760Y003315D01*
X008178Y003315D01*
X008214Y003325D01*
X008291Y003402D02*
X008431Y003402D01*
X008431Y003481D02*
X008300Y003481D01*
X008300Y003559D02*
X008431Y003559D01*
X008431Y003638D02*
X008300Y003638D01*
X008300Y003735D02*
X008300Y003953D01*
X008290Y003989D01*
X008272Y004021D01*
X008246Y004047D01*
X008214Y004065D01*
X008178Y004075D01*
X007760Y004075D01*
X007760Y003735D01*
X008300Y003735D01*
X008300Y003795D02*
X008431Y003795D01*
X008431Y003873D02*
X008300Y003873D01*
X008300Y003952D02*
X008431Y003952D01*
X008431Y004030D02*
X008263Y004030D01*
X008431Y004109D02*
X005997Y004109D01*
X006056Y004030D02*
X007177Y004030D01*
X007140Y003952D02*
X006056Y003952D01*
X006056Y003873D02*
X007140Y003873D01*
X007140Y003795D02*
X006056Y003795D01*
X006056Y003716D02*
X007680Y003716D01*
X007680Y003655D02*
X007140Y003655D01*
X007140Y003437D01*
X007150Y003401D01*
X007168Y003369D01*
X007194Y003343D01*
X007226Y003325D01*
X007262Y003315D01*
X007680Y003315D01*
X007680Y003655D01*
X007680Y003638D02*
X007760Y003638D01*
X007760Y003716D02*
X008431Y003716D01*
X007760Y003795D02*
X007680Y003795D01*
X007680Y003873D02*
X007760Y003873D01*
X007760Y003952D02*
X007680Y003952D01*
X007680Y004030D02*
X007760Y004030D01*
X008230Y004266D02*
X008431Y004266D01*
X008431Y004344D02*
X008280Y004344D01*
X008431Y004187D02*
X005880Y004187D01*
X005880Y004266D02*
X007210Y004266D01*
X007160Y004344D02*
X005880Y004344D01*
X006018Y004423D02*
X007160Y004423D01*
X007160Y004501D02*
X006056Y004501D01*
X006056Y004580D02*
X007160Y004580D01*
X007160Y004658D02*
X006951Y004658D01*
X007030Y004737D02*
X007160Y004737D01*
X007160Y004815D02*
X007108Y004815D01*
X006778Y005051D02*
X006056Y005051D01*
X006056Y005129D02*
X006384Y005129D01*
X006574Y005129D02*
X006856Y005129D01*
X006935Y005208D02*
X006682Y005208D01*
X006722Y005286D02*
X007013Y005286D01*
X007092Y005365D02*
X006734Y005365D01*
X006723Y005443D02*
X007160Y005443D01*
X007160Y005522D02*
X006684Y005522D01*
X006756Y005600D02*
X007157Y005600D01*
X007079Y005679D02*
X006824Y005679D01*
X005304Y005129D02*
X004776Y005129D01*
X004776Y005051D02*
X005304Y005051D01*
X005304Y004972D02*
X004776Y004972D01*
X004776Y004894D02*
X005304Y004894D01*
X005304Y004815D02*
X004776Y004815D01*
X004776Y004737D02*
X005304Y004737D01*
X005304Y004658D02*
X004776Y004658D01*
X004776Y004580D02*
X005304Y004580D01*
X005304Y004501D02*
X004776Y004501D01*
X004739Y004423D02*
X005341Y004423D01*
X005480Y004344D02*
X002360Y004344D01*
X002360Y004266D02*
X005480Y004266D01*
X005480Y004187D02*
X002316Y004187D01*
X002360Y004423D02*
X004062Y004423D01*
X004024Y004501D02*
X002360Y004501D01*
X002397Y004580D02*
X004024Y004580D01*
X004024Y005051D02*
X002179Y005051D01*
X002258Y005129D02*
X003412Y005129D01*
X003304Y005208D02*
X002336Y005208D01*
X002360Y005286D02*
X003264Y005286D01*
X003252Y005365D02*
X002360Y005365D01*
X002360Y005443D02*
X003189Y005443D01*
X003111Y005522D02*
X002360Y005522D01*
X002339Y005600D02*
X003032Y005600D01*
X002954Y005679D02*
X002260Y005679D01*
X002182Y005757D02*
X002875Y005757D01*
X003602Y005129D02*
X004024Y005129D01*
X001622Y005129D02*
X001258Y005129D01*
X001336Y005208D02*
X001544Y005208D01*
X001520Y005286D02*
X001360Y005286D01*
X001360Y005365D02*
X001520Y005365D01*
X001520Y005443D02*
X001360Y005443D01*
X001360Y005522D02*
X001520Y005522D01*
X001541Y005600D02*
X001339Y005600D01*
X001260Y005679D02*
X001620Y005679D01*
X001698Y005757D02*
X001182Y005757D01*
X006019Y003324D02*
X007230Y003324D01*
X007149Y003402D02*
X006056Y003402D01*
X006056Y003481D02*
X007140Y003481D01*
X007140Y003559D02*
X006056Y003559D01*
X006056Y003638D02*
X007140Y003638D01*
X007680Y003559D02*
X007760Y003559D01*
X007760Y003481D02*
X007680Y003481D01*
X007680Y003402D02*
X007760Y003402D01*
X007760Y003324D02*
X007680Y003324D01*
X003645Y001204D02*
X003360Y001204D01*
X003360Y001126D02*
X003567Y001126D01*
X003520Y001047D02*
X003360Y001047D01*
X003360Y000969D02*
X003520Y000969D01*
X003520Y000890D02*
X003360Y000890D01*
X003360Y000812D02*
X003520Y000812D01*
X003520Y000733D02*
X003360Y000733D01*
X003360Y000655D02*
X003597Y000655D01*
X003675Y000576D02*
X003360Y000576D01*
X003302Y000498D02*
X003754Y000498D01*
X000764Y000341D02*
X018116Y000341D01*
M02*
