G75*
G70*
%OFA0B0*%
%FSLAX24Y24*%
%IPPOS*%
%LPD*%
%AMOC8*
5,1,8,0,0,1.08239X$1,22.5*
%
%ADD10R,0.0236X0.0866*%
%ADD11R,0.0394X0.0433*%
%ADD12C,0.0480*%
%ADD13R,0.0433X0.0394*%
%ADD14R,0.0591X0.0591*%
%ADD15R,0.0600X0.0600*%
%ADD16OC8,0.0600*%
%ADD17C,0.0709*%
%ADD18R,0.0157X0.0748*%
%ADD19R,0.0748X0.0157*%
%ADD20R,0.0400X0.0500*%
%ADD21C,0.0100*%
%ADD22C,0.0270*%
%ADD23C,0.0160*%
%ADD24C,0.0080*%
D10*
X004390Y004081D03*
X004890Y004081D03*
X005390Y004081D03*
X005890Y004081D03*
X005890Y006129D03*
X005390Y006129D03*
X004890Y006129D03*
X004390Y006129D03*
D11*
X003475Y006105D03*
X002805Y006105D03*
X002805Y005305D03*
X003475Y005305D03*
X003475Y004505D03*
X002805Y004505D03*
X006340Y004740D03*
X006340Y004070D03*
X005276Y007074D03*
X004607Y007074D03*
X004607Y007682D03*
X005276Y007682D03*
X012931Y005283D03*
X012931Y004614D03*
D12*
X014310Y003955D03*
X014310Y005855D03*
D13*
X017440Y006270D03*
X018060Y006270D03*
X018060Y006940D03*
X017440Y006940D03*
X009923Y007979D03*
X009254Y007979D03*
X003475Y006905D03*
X002805Y006905D03*
X009490Y001877D03*
X010160Y001877D03*
D14*
X018053Y004216D03*
X018053Y005594D03*
D15*
X002940Y008905D03*
X000940Y003405D03*
X001940Y002405D03*
X002940Y000905D03*
D16*
X001940Y000905D03*
X000940Y000905D03*
X003940Y000905D03*
X004940Y000905D03*
X005940Y000905D03*
X006940Y000905D03*
X007940Y000905D03*
X008940Y000905D03*
X009940Y000905D03*
X010940Y000905D03*
X011940Y000905D03*
X012940Y000905D03*
X013940Y000905D03*
X014940Y000905D03*
X015940Y000905D03*
X016940Y000905D03*
X017940Y000905D03*
X017940Y008905D03*
X016940Y008905D03*
X015940Y008905D03*
X014940Y008905D03*
X013940Y008905D03*
X012940Y008905D03*
X011940Y008905D03*
X010940Y008905D03*
X009940Y008905D03*
X008940Y008905D03*
X007940Y008905D03*
X006940Y008905D03*
X005940Y008905D03*
X004940Y008905D03*
X003940Y008905D03*
X001940Y008905D03*
X000940Y008905D03*
X001940Y007405D03*
X001940Y006405D03*
X000940Y006405D03*
X000940Y005405D03*
X001940Y005405D03*
X001940Y004405D03*
X000940Y004405D03*
X001940Y003405D03*
D17*
X016240Y003527D03*
X016240Y006283D03*
D18*
X011310Y007144D03*
X010995Y007144D03*
X010680Y007144D03*
X010365Y007144D03*
X010050Y007144D03*
X009735Y007144D03*
X009420Y007144D03*
X009105Y007144D03*
X008790Y007144D03*
X008475Y007144D03*
X008160Y007144D03*
X008160Y002656D03*
X008475Y002656D03*
X008790Y002656D03*
X009105Y002656D03*
X009420Y002656D03*
X009735Y002656D03*
X010050Y002656D03*
X010365Y002656D03*
X010680Y002656D03*
X010995Y002656D03*
X011310Y002656D03*
D19*
X011979Y003325D03*
X011979Y003640D03*
X011979Y003955D03*
X011979Y004270D03*
X011979Y004585D03*
X011979Y004900D03*
X011979Y005215D03*
X011979Y005530D03*
X011979Y005845D03*
X011979Y006160D03*
X011979Y006475D03*
X007491Y006475D03*
X007491Y006160D03*
X007491Y005845D03*
X007491Y005530D03*
X007491Y005215D03*
X007491Y004900D03*
X007491Y004585D03*
X007491Y004270D03*
X007491Y003955D03*
X007491Y003640D03*
X007491Y003325D03*
D20*
X003533Y003705D03*
X002773Y003705D03*
X003153Y002905D03*
D21*
X004589Y002905D01*
X004846Y002651D01*
X005940Y002105D02*
X005940Y000905D01*
X004940Y000905D02*
X004940Y001405D01*
X007175Y003640D01*
X007491Y003640D01*
X007491Y003325D02*
X007191Y003356D01*
X005940Y002105D01*
X004840Y001605D02*
X004640Y001605D01*
X003940Y000905D01*
X003840Y001805D02*
X002940Y000905D01*
X001940Y000905D02*
X003153Y002118D01*
X003153Y002905D01*
X001640Y002905D01*
X001440Y003105D01*
X001440Y003905D01*
X000940Y004405D01*
X002640Y005405D02*
X002805Y005305D01*
X002640Y005405D02*
X001940Y005405D01*
X000940Y005405D01*
X002440Y006405D02*
X002640Y006205D01*
X002805Y006105D01*
X002440Y006405D02*
X001940Y006405D01*
X000940Y006405D01*
X001940Y007405D02*
X002300Y007405D01*
X002800Y006905D01*
X002805Y006905D01*
X003150Y006480D02*
X003475Y006905D01*
X003150Y006480D02*
X003150Y004735D01*
X003475Y004330D01*
X003475Y004505D01*
X003475Y004040D01*
X003533Y003705D01*
X005840Y004105D02*
X005905Y004070D01*
X006340Y004070D01*
X006940Y004105D02*
X006940Y004005D01*
X004740Y001805D01*
X003840Y001805D01*
X004840Y001605D02*
X007190Y003955D01*
X007491Y003955D01*
X007491Y004270D02*
X007105Y004270D01*
X006940Y004105D01*
X006811Y005215D02*
X006661Y005366D01*
X006479Y005366D01*
X006811Y005215D02*
X007491Y005215D01*
X007491Y005530D02*
X006876Y005530D01*
X006601Y005805D01*
X007077Y005845D02*
X006360Y006562D01*
X005888Y006562D01*
X005888Y006131D01*
X005890Y006129D01*
X005390Y006129D02*
X005390Y006960D01*
X005276Y007074D01*
X005276Y007074D01*
X006203Y007074D01*
X006203Y008215D01*
X005940Y008478D01*
X005940Y008905D01*
X005276Y008569D02*
X004940Y008905D01*
X005276Y008569D02*
X005276Y007682D01*
X005294Y007664D01*
X005731Y007664D01*
X006203Y007074D02*
X007117Y006160D01*
X007491Y006160D01*
X007491Y005845D02*
X007077Y005845D01*
X007491Y006475D02*
X007491Y008354D01*
X006940Y008905D01*
X007940Y008905D02*
X008160Y008685D01*
X008160Y007144D01*
X008475Y007144D02*
X008475Y008440D01*
X008940Y008905D01*
X008998Y008373D02*
X008790Y008165D01*
X008790Y007144D01*
X009105Y007774D02*
X009234Y007903D01*
X009234Y007959D01*
X009254Y007979D01*
X009923Y007979D02*
X010050Y007852D01*
X010680Y007645D02*
X011940Y008905D01*
X011754Y008373D02*
X012408Y008373D01*
X012940Y008905D01*
X013114Y008079D02*
X013940Y008905D01*
X014622Y008287D02*
X015322Y008287D01*
X015940Y008905D01*
X016004Y007969D02*
X016940Y008905D01*
X017940Y008905D02*
X016725Y007690D01*
X014625Y007690D01*
X012465Y005530D01*
X011979Y005530D01*
X011979Y005845D02*
X012480Y005845D01*
X014604Y007969D01*
X016004Y007969D01*
X014622Y008287D02*
X012495Y006160D01*
X011979Y006160D01*
X011979Y006475D02*
X012510Y006475D01*
X014940Y008905D01*
X013114Y008079D02*
X011854Y008079D01*
X011310Y007535D01*
X011310Y007144D01*
X010995Y007144D02*
X010995Y007613D01*
X011754Y008373D01*
X010940Y008905D02*
X010365Y008330D01*
X010365Y007144D01*
X010680Y007144D02*
X010680Y007645D01*
X009924Y008905D02*
X009392Y008373D01*
X008998Y008373D01*
X009924Y008905D02*
X009940Y008905D01*
X014516Y005381D02*
X016040Y006905D01*
X017405Y006905D01*
X017440Y006940D01*
X018060Y006940D01*
X017440Y006270D02*
X016240Y006270D01*
X016240Y006283D01*
X014516Y005381D02*
X012949Y005381D01*
X012931Y005283D01*
X012360Y004585D02*
X011979Y004585D01*
X012360Y004585D02*
X014192Y002753D01*
X016092Y002753D01*
X017940Y000905D01*
X016940Y000905D02*
X015331Y002514D01*
X014131Y002514D01*
X012375Y004270D01*
X011979Y004270D01*
X011979Y003955D02*
X012390Y003955D01*
X014071Y002274D01*
X014571Y002274D01*
X015940Y000905D01*
X014940Y000905D02*
X014940Y001105D01*
X012405Y003640D01*
X011979Y003640D01*
X011979Y003325D02*
X011979Y002866D01*
X013940Y000905D01*
X012940Y000905D02*
X011310Y002535D01*
X011310Y002656D01*
X010995Y002656D02*
X010995Y001850D01*
X011940Y000905D01*
X010940Y000905D02*
X010680Y001165D01*
X010680Y002656D01*
X010050Y002656D02*
X010040Y002666D01*
X010040Y002281D01*
X009735Y002656D02*
X009735Y003118D01*
X009749Y003133D01*
X009105Y002656D02*
X009105Y001440D01*
X009340Y001205D01*
X009640Y001205D01*
X009940Y000905D01*
X008940Y000905D02*
X008790Y001055D01*
X008790Y002656D01*
X008475Y002656D02*
X008475Y001440D01*
X007940Y000905D01*
X006940Y000905D02*
X008160Y002125D01*
X008160Y002656D01*
X003507Y006132D02*
X003475Y006105D01*
D22*
X003507Y006132D03*
X003507Y005366D03*
X005888Y006562D03*
X006601Y005805D03*
X006479Y005366D03*
X008740Y006305D03*
X010752Y005905D03*
X010916Y006305D03*
X014516Y005381D03*
X013434Y004136D03*
X010040Y002281D03*
X009749Y003133D03*
X010440Y000505D03*
X004846Y002651D03*
X005731Y007664D03*
X010440Y009305D03*
D23*
X009940Y007905D02*
X010050Y007795D01*
X010050Y007144D01*
X009735Y007144D02*
X009735Y006610D01*
X010040Y006305D01*
X010916Y006305D01*
X010752Y005905D02*
X009940Y005905D01*
X009420Y006425D01*
X009420Y007144D01*
X009105Y007144D02*
X009105Y006650D01*
X008760Y006305D01*
X009850Y005215D01*
X010330Y005215D01*
X010340Y005205D01*
X010740Y004815D01*
X011140Y005215D01*
X011979Y005215D01*
X012650Y005215D01*
X012740Y005305D01*
X012909Y005305D01*
X012931Y005283D01*
X010740Y004815D02*
X010740Y003505D01*
X010365Y003130D01*
X010365Y002656D01*
X010365Y002082D01*
X010160Y001877D01*
X009490Y001877D02*
X009420Y001947D01*
X009420Y002656D01*
X008178Y004585D02*
X007491Y004585D01*
X006625Y004585D01*
X006340Y004740D01*
X006053Y005026D01*
X004719Y005026D01*
X004384Y005361D01*
X004390Y006129D01*
X004390Y006857D01*
X004607Y007074D01*
X004607Y007682D01*
X004184Y008105D01*
X001240Y008105D01*
X000940Y008405D01*
X000940Y008905D01*
X008440Y006005D02*
X008740Y006305D01*
X008760Y006305D01*
X008440Y006005D02*
X008440Y004848D01*
X008178Y004585D01*
X009105Y007144D02*
X009105Y007774D01*
X018048Y006905D02*
X018060Y006940D01*
X018060Y006270D02*
X018060Y005594D01*
X018053Y005594D01*
D24*
X018195Y000419D02*
X000685Y000419D01*
X000754Y000498D02*
X000607Y000498D01*
X000675Y000576D02*
X000528Y000576D01*
X000597Y000655D02*
X000450Y000655D01*
X000520Y000731D02*
X000766Y000485D01*
X001114Y000485D01*
X001360Y000731D01*
X001360Y001079D01*
X001114Y001325D01*
X000766Y001325D01*
X000520Y001079D01*
X000520Y000731D01*
X000520Y000733D02*
X000371Y000733D01*
X000330Y000774D02*
X000809Y000295D01*
X018071Y000295D01*
X018550Y000774D01*
X018550Y009036D01*
X018071Y009515D01*
X000809Y009515D01*
X000330Y009036D01*
X000330Y000774D01*
X000330Y000812D02*
X000520Y000812D01*
X000520Y000890D02*
X000330Y000890D01*
X000330Y000969D02*
X000520Y000969D01*
X000520Y001047D02*
X000330Y001047D01*
X000330Y001126D02*
X000567Y001126D01*
X000645Y001204D02*
X000330Y001204D01*
X000330Y001283D02*
X000724Y001283D01*
X000330Y001361D02*
X002156Y001361D01*
X002117Y001322D02*
X002114Y001325D01*
X001766Y001325D01*
X001520Y001079D01*
X001520Y000731D01*
X001766Y000485D01*
X002114Y000485D01*
X002360Y000731D01*
X002360Y001079D01*
X002357Y001082D01*
X002520Y001245D01*
X002520Y000555D01*
X002590Y000485D01*
X003290Y000485D01*
X003360Y000555D01*
X003360Y001085D01*
X003910Y001635D01*
X004430Y001635D01*
X004117Y001322D01*
X004114Y001325D01*
X003766Y001325D01*
X003520Y001079D01*
X003520Y000731D01*
X003766Y000485D01*
X004114Y000485D01*
X004360Y000731D01*
X004360Y001079D01*
X004357Y001082D01*
X004710Y001435D01*
X004770Y001435D01*
X004770Y001325D01*
X004766Y001325D01*
X004520Y001079D01*
X004520Y000731D01*
X004766Y000485D01*
X005114Y000485D01*
X005360Y000731D01*
X005360Y001079D01*
X005114Y001325D01*
X005110Y001325D01*
X005110Y001335D01*
X005770Y001995D01*
X005770Y001325D01*
X005766Y001325D01*
X005520Y001079D01*
X005520Y000731D01*
X005766Y000485D01*
X006114Y000485D01*
X006360Y000731D01*
X006360Y001079D01*
X006114Y001325D01*
X006110Y001325D01*
X006110Y002035D01*
X007202Y003127D01*
X007915Y003127D01*
X007985Y003197D01*
X007985Y003454D01*
X007956Y003483D01*
X007985Y003512D01*
X007985Y003769D01*
X007956Y003798D01*
X007985Y003827D01*
X007985Y004084D01*
X007956Y004113D01*
X007985Y004142D01*
X007985Y004385D01*
X008260Y004385D01*
X008523Y004648D01*
X008640Y004765D01*
X008640Y005922D01*
X008750Y006032D01*
X009767Y005015D01*
X010247Y005015D01*
X010257Y005005D01*
X010259Y005005D01*
X010540Y004731D01*
X010540Y003588D01*
X010165Y003213D01*
X010165Y003150D01*
X010004Y003150D01*
X010004Y003183D01*
X009966Y003277D01*
X009894Y003349D01*
X009800Y003388D01*
X009699Y003388D01*
X009605Y003349D01*
X009533Y003277D01*
X009494Y003183D01*
X009494Y003170D01*
X009420Y003170D01*
X009323Y003170D01*
X009287Y003160D01*
X009255Y003142D01*
X009248Y003135D01*
X009234Y003150D01*
X008977Y003150D01*
X008948Y003121D01*
X008919Y003150D01*
X008662Y003150D01*
X008633Y003121D01*
X008604Y003150D01*
X008347Y003150D01*
X008318Y003121D01*
X008289Y003150D01*
X008032Y003150D01*
X007962Y003080D01*
X007962Y002232D01*
X007990Y002204D01*
X007990Y002196D01*
X007117Y001322D01*
X007114Y001325D01*
X006766Y001325D01*
X006520Y001079D01*
X006520Y000731D01*
X006766Y000485D01*
X007114Y000485D01*
X007360Y000731D01*
X007360Y001079D01*
X007357Y001082D01*
X008305Y002030D01*
X008305Y001511D01*
X008117Y001322D01*
X008114Y001325D01*
X007766Y001325D01*
X007520Y001079D01*
X007520Y000731D01*
X007766Y000485D01*
X008114Y000485D01*
X008360Y000731D01*
X008360Y001079D01*
X008357Y001082D01*
X008620Y001345D01*
X008620Y001179D01*
X008520Y001079D01*
X008520Y000731D01*
X008766Y000485D01*
X009114Y000485D01*
X009360Y000731D01*
X009360Y001035D01*
X009520Y001035D01*
X009520Y000731D01*
X009766Y000485D01*
X010114Y000485D01*
X010360Y000731D01*
X010360Y001079D01*
X010114Y001325D01*
X009766Y001325D01*
X009763Y001322D01*
X009710Y001375D01*
X009410Y001375D01*
X009275Y001510D01*
X009275Y001540D01*
X009450Y001540D01*
X009450Y001837D01*
X009530Y001837D01*
X009530Y001540D01*
X009725Y001540D01*
X009761Y001549D01*
X009793Y001568D01*
X009819Y001594D01*
X009834Y001619D01*
X009893Y001560D01*
X010426Y001560D01*
X010496Y001630D01*
X010496Y001930D01*
X010510Y001944D01*
X010510Y001095D01*
X010523Y001082D01*
X010520Y001079D01*
X010520Y000731D01*
X010766Y000485D01*
X011114Y000485D01*
X011360Y000731D01*
X011360Y001079D01*
X011114Y001325D01*
X010850Y001325D01*
X010850Y001755D01*
X011523Y001082D01*
X011520Y001079D01*
X011520Y000731D01*
X011766Y000485D01*
X012114Y000485D01*
X012360Y000731D01*
X012360Y001079D01*
X012114Y001325D01*
X011766Y001325D01*
X011763Y001322D01*
X011165Y001920D01*
X011165Y002178D01*
X011181Y002162D01*
X011438Y002162D01*
X011440Y002164D01*
X012523Y001082D01*
X012520Y001079D01*
X012520Y000731D01*
X012766Y000485D01*
X013114Y000485D01*
X013360Y000731D01*
X013360Y001079D01*
X013114Y001325D01*
X012766Y001325D01*
X012763Y001322D01*
X011509Y002577D01*
X011509Y003080D01*
X011438Y003150D01*
X011181Y003150D01*
X011152Y003121D01*
X011123Y003150D01*
X010866Y003150D01*
X010837Y003121D01*
X010808Y003150D01*
X010668Y003150D01*
X010823Y003305D01*
X010940Y003422D01*
X010940Y004732D01*
X011223Y005015D01*
X011470Y005015D01*
X011465Y004997D01*
X011465Y004900D01*
X011465Y004803D01*
X011475Y004767D01*
X011493Y004735D01*
X011500Y004728D01*
X011485Y004714D01*
X011485Y004457D01*
X011514Y004428D01*
X011485Y004399D01*
X011485Y004142D01*
X011514Y004113D01*
X011485Y004084D01*
X011485Y003827D01*
X011514Y003798D01*
X011485Y003769D01*
X011485Y003512D01*
X011514Y003483D01*
X011485Y003454D01*
X011485Y003197D01*
X011555Y003127D01*
X011809Y003127D01*
X011809Y002795D01*
X013523Y001082D01*
X013520Y001079D01*
X013520Y000731D01*
X013766Y000485D01*
X014114Y000485D01*
X014360Y000731D01*
X014360Y001079D01*
X014114Y001325D01*
X013766Y001325D01*
X013763Y001322D01*
X012149Y002936D01*
X012149Y003127D01*
X012403Y003127D01*
X012473Y003197D01*
X012473Y003331D01*
X014623Y001182D01*
X014520Y001079D01*
X014520Y000731D01*
X014766Y000485D01*
X015114Y000485D01*
X015360Y000731D01*
X015360Y001079D01*
X015114Y001325D01*
X014960Y001325D01*
X014181Y002104D01*
X014500Y002104D01*
X015523Y001082D01*
X015520Y001079D01*
X015520Y000731D01*
X015766Y000485D01*
X016114Y000485D01*
X016360Y000731D01*
X016360Y001079D01*
X016114Y001325D01*
X015766Y001325D01*
X015763Y001322D01*
X014742Y002344D01*
X015261Y002344D01*
X016523Y001082D01*
X016520Y001079D01*
X016520Y000731D01*
X016766Y000485D01*
X017114Y000485D01*
X017360Y000731D01*
X017360Y001079D01*
X017114Y001325D01*
X016766Y001325D01*
X016763Y001322D01*
X015502Y002583D01*
X016022Y002583D01*
X017523Y001082D01*
X017520Y001079D01*
X017520Y000731D01*
X017766Y000485D01*
X018114Y000485D01*
X018360Y000731D01*
X018360Y001079D01*
X018114Y001325D01*
X017766Y001325D01*
X017763Y001322D01*
X016162Y002923D01*
X014262Y002923D01*
X012891Y004295D01*
X012891Y004574D01*
X012971Y004574D01*
X012971Y004654D01*
X013267Y004654D01*
X013267Y004849D01*
X013258Y004884D01*
X013239Y004916D01*
X013213Y004942D01*
X013188Y004957D01*
X013247Y005017D01*
X013247Y005211D01*
X014325Y005211D01*
X014371Y005164D01*
X014465Y005126D01*
X014566Y005126D01*
X014660Y005164D01*
X014732Y005236D01*
X014771Y005330D01*
X014771Y005395D01*
X015775Y006399D01*
X015766Y006377D01*
X015766Y006189D01*
X015838Y006014D01*
X015971Y005881D01*
X016146Y005809D01*
X016334Y005809D01*
X016509Y005881D01*
X016642Y006014D01*
X016678Y006100D01*
X017103Y006100D01*
X017103Y006024D01*
X017174Y005954D01*
X017653Y005954D01*
X017638Y005939D01*
X017638Y005249D01*
X017708Y005179D01*
X018398Y005179D01*
X018469Y005249D01*
X018469Y005939D01*
X018398Y006009D01*
X018382Y006009D01*
X018397Y006024D01*
X018397Y006517D01*
X018326Y006587D01*
X017794Y006587D01*
X017750Y006543D01*
X017706Y006587D01*
X017174Y006587D01*
X017103Y006517D01*
X017103Y006440D01*
X016688Y006440D01*
X016642Y006552D01*
X016509Y006685D01*
X016388Y006735D01*
X017103Y006735D01*
X017103Y006693D01*
X017174Y006623D01*
X017706Y006623D01*
X017750Y006667D01*
X017794Y006623D01*
X018326Y006623D01*
X018397Y006693D01*
X018397Y007186D01*
X018326Y007256D01*
X017794Y007256D01*
X017750Y007213D01*
X017706Y007256D01*
X017174Y007256D01*
X017103Y007186D01*
X017103Y007075D01*
X015970Y007075D01*
X015870Y006975D01*
X014664Y005770D01*
X014670Y005783D01*
X014670Y005927D01*
X014615Y006059D01*
X014514Y006160D01*
X014382Y006215D01*
X014238Y006215D01*
X014106Y006160D01*
X014005Y006059D01*
X013950Y005927D01*
X013950Y005783D01*
X014005Y005651D01*
X014105Y005551D01*
X013246Y005551D01*
X013177Y005619D01*
X012795Y005619D01*
X014695Y007520D01*
X016795Y007520D01*
X017763Y008488D01*
X017766Y008485D01*
X018114Y008485D01*
X018360Y008731D01*
X018360Y009079D01*
X018114Y009325D01*
X017766Y009325D01*
X017520Y009079D01*
X017520Y008731D01*
X017523Y008728D01*
X016655Y007860D01*
X016135Y007860D01*
X016763Y008488D01*
X016766Y008485D01*
X017114Y008485D01*
X017360Y008731D01*
X017360Y009079D01*
X017114Y009325D01*
X016766Y009325D01*
X016520Y009079D01*
X016520Y008731D01*
X016523Y008728D01*
X015933Y008139D01*
X015414Y008139D01*
X015763Y008488D01*
X015766Y008485D01*
X016114Y008485D01*
X016360Y008731D01*
X016360Y009079D01*
X016114Y009325D01*
X015766Y009325D01*
X015520Y009079D01*
X015520Y008731D01*
X015523Y008728D01*
X015251Y008457D01*
X014732Y008457D01*
X014763Y008488D01*
X014766Y008485D01*
X015114Y008485D01*
X015360Y008731D01*
X015360Y009079D01*
X015114Y009325D01*
X014766Y009325D01*
X014520Y009079D01*
X014520Y008731D01*
X014523Y008728D01*
X012439Y006645D01*
X012432Y006645D01*
X012403Y006674D01*
X011555Y006674D01*
X011485Y006603D01*
X011485Y006346D01*
X011514Y006317D01*
X011485Y006288D01*
X011485Y006031D01*
X011514Y006002D01*
X011485Y005973D01*
X011485Y005717D01*
X011514Y005687D01*
X011485Y005658D01*
X011485Y005415D01*
X011057Y005415D01*
X010738Y005096D01*
X010480Y005347D01*
X010413Y005415D01*
X009933Y005415D01*
X009043Y006305D01*
X009188Y006450D01*
X009220Y006482D01*
X009220Y006342D01*
X009740Y005822D01*
X009857Y005705D01*
X010591Y005705D01*
X010607Y005689D01*
X010701Y005650D01*
X010803Y005650D01*
X010896Y005689D01*
X010968Y005761D01*
X011007Y005854D01*
X011007Y005956D01*
X010968Y006049D01*
X010967Y006050D01*
X011060Y006089D01*
X011132Y006161D01*
X011171Y006254D01*
X011171Y006356D01*
X011132Y006449D01*
X011060Y006521D01*
X010966Y006560D01*
X010865Y006560D01*
X010771Y006521D01*
X010755Y006505D01*
X010123Y006505D01*
X009998Y006630D01*
X010050Y006630D01*
X010050Y007144D01*
X010050Y007144D01*
X010050Y006630D01*
X010147Y006630D01*
X010183Y006640D01*
X010215Y006658D01*
X010222Y006665D01*
X010237Y006650D01*
X010493Y006650D01*
X010522Y006679D01*
X010552Y006650D01*
X010808Y006650D01*
X010837Y006679D01*
X010866Y006650D01*
X011123Y006650D01*
X011152Y006679D01*
X011181Y006650D01*
X011438Y006650D01*
X011509Y006720D01*
X011509Y007493D01*
X011925Y007909D01*
X013184Y007909D01*
X013763Y008488D01*
X013766Y008485D01*
X014114Y008485D01*
X014360Y008731D01*
X014360Y009079D01*
X014114Y009325D01*
X013766Y009325D01*
X013520Y009079D01*
X013520Y008731D01*
X013523Y008728D01*
X013044Y008249D01*
X012524Y008249D01*
X012763Y008488D01*
X012766Y008485D01*
X013114Y008485D01*
X013360Y008731D01*
X013360Y009079D01*
X013114Y009325D01*
X012766Y009325D01*
X012520Y009079D01*
X012520Y008731D01*
X012523Y008728D01*
X012337Y008543D01*
X012172Y008543D01*
X012360Y008731D01*
X012360Y009079D01*
X012114Y009325D01*
X011766Y009325D01*
X011520Y009079D01*
X011520Y008731D01*
X011523Y008728D01*
X010535Y007740D01*
X010535Y008260D01*
X010763Y008488D01*
X010766Y008485D01*
X011114Y008485D01*
X011360Y008731D01*
X011360Y009079D01*
X011114Y009325D01*
X010766Y009325D01*
X010520Y009079D01*
X010520Y008731D01*
X010523Y008728D01*
X010195Y008400D01*
X010195Y008306D01*
X010194Y008306D01*
X010158Y008316D01*
X009963Y008316D01*
X009963Y008019D01*
X009883Y008019D01*
X009883Y008316D01*
X009688Y008316D01*
X009653Y008306D01*
X009621Y008288D01*
X009595Y008262D01*
X009580Y008236D01*
X009538Y008278D01*
X009562Y008302D01*
X009755Y008496D01*
X009766Y008485D01*
X010114Y008485D01*
X010360Y008731D01*
X010360Y009079D01*
X010114Y009325D01*
X009766Y009325D01*
X009520Y009079D01*
X009520Y008741D01*
X009322Y008543D01*
X009172Y008543D01*
X009360Y008731D01*
X009360Y009079D01*
X009114Y009325D01*
X008766Y009325D01*
X008520Y009079D01*
X008520Y008731D01*
X008523Y008728D01*
X008330Y008536D01*
X008330Y008701D01*
X008360Y008731D01*
X008360Y009079D01*
X008114Y009325D01*
X007766Y009325D01*
X007520Y009079D01*
X007520Y008731D01*
X007766Y008485D01*
X007990Y008485D01*
X007990Y007597D01*
X007962Y007568D01*
X007962Y006720D01*
X008032Y006650D01*
X008289Y006650D01*
X008318Y006679D01*
X008347Y006650D01*
X008604Y006650D01*
X008633Y006679D01*
X008662Y006650D01*
X008822Y006650D01*
X008732Y006560D01*
X008689Y006560D01*
X008596Y006521D01*
X008524Y006449D01*
X008485Y006356D01*
X008485Y006333D01*
X008240Y006088D01*
X008240Y004930D01*
X008095Y004785D01*
X008000Y004785D01*
X008005Y004803D01*
X008005Y004900D01*
X007491Y004900D01*
X007491Y004900D01*
X006977Y004900D01*
X006977Y004803D01*
X006982Y004785D01*
X006676Y004785D01*
X006657Y004795D01*
X006657Y005006D01*
X006587Y005076D01*
X006286Y005076D01*
X006136Y005226D01*
X004802Y005226D01*
X004584Y005443D01*
X004586Y005603D01*
X004628Y005646D01*
X004628Y006611D01*
X004590Y006650D01*
X004590Y006737D01*
X004853Y006737D01*
X004924Y006808D01*
X004924Y007340D01*
X004886Y007378D01*
X004924Y007416D01*
X004924Y007948D01*
X004853Y008019D01*
X004553Y008019D01*
X004384Y008188D01*
X004266Y008305D01*
X001323Y008305D01*
X001140Y008488D01*
X001140Y008511D01*
X001360Y008731D01*
X001360Y009079D01*
X001114Y009325D01*
X000766Y009325D01*
X000520Y009079D01*
X000520Y008731D01*
X000740Y008511D01*
X000740Y008322D01*
X000857Y008205D01*
X001157Y007905D01*
X004101Y007905D01*
X004290Y007716D01*
X004290Y007416D01*
X004328Y007378D01*
X004290Y007340D01*
X004290Y007040D01*
X004190Y006940D01*
X004190Y006650D01*
X004152Y006611D01*
X004152Y005646D01*
X004186Y005612D01*
X004184Y005445D01*
X004184Y005444D01*
X004184Y005362D01*
X004183Y005280D01*
X004184Y005279D01*
X004184Y005278D01*
X004242Y005220D01*
X004299Y005162D01*
X004300Y005162D01*
X004519Y004943D01*
X004636Y004826D01*
X005971Y004826D01*
X006023Y004774D01*
X006023Y004654D01*
X005909Y004654D01*
X005909Y004100D01*
X006148Y004100D01*
X006148Y004110D01*
X006300Y004110D01*
X006300Y004030D01*
X006380Y004030D01*
X006380Y003714D01*
X006408Y003714D01*
X004670Y001975D01*
X003770Y001975D01*
X003120Y001325D01*
X002600Y001325D01*
X003323Y002048D01*
X003323Y002535D01*
X003403Y002535D01*
X003473Y002605D01*
X003473Y002735D01*
X004519Y002735D01*
X004591Y002664D01*
X004591Y002600D01*
X004630Y002506D01*
X004702Y002434D01*
X004796Y002396D01*
X004897Y002396D01*
X004991Y002434D01*
X005062Y002506D01*
X005101Y002600D01*
X005101Y002701D01*
X005062Y002795D01*
X004991Y002867D01*
X004897Y002906D01*
X004830Y002906D01*
X004709Y003026D01*
X004659Y003075D01*
X004659Y003075D01*
X004658Y003075D01*
X004588Y003075D01*
X003473Y003075D01*
X003473Y003205D01*
X003403Y003275D01*
X002903Y003275D01*
X002833Y003205D01*
X002833Y003075D01*
X002204Y003075D01*
X002360Y003231D01*
X002360Y003579D01*
X002114Y003825D01*
X001766Y003825D01*
X001610Y003669D01*
X001610Y003975D01*
X001357Y004228D01*
X001360Y004231D01*
X001360Y004579D01*
X001114Y004825D01*
X000766Y004825D01*
X000520Y004579D01*
X000520Y004231D01*
X000766Y003985D01*
X001114Y003985D01*
X001117Y003988D01*
X001260Y003845D01*
X001258Y003845D01*
X000980Y003845D01*
X000980Y003445D01*
X000900Y003445D01*
X000900Y003845D01*
X000622Y003845D01*
X000586Y003835D01*
X000554Y003817D01*
X000528Y003791D01*
X000510Y003759D01*
X000500Y003723D01*
X000500Y003445D01*
X000900Y003445D01*
X000900Y003365D01*
X000980Y003365D01*
X000980Y002965D01*
X001258Y002965D01*
X001294Y002975D01*
X001317Y002988D01*
X001370Y002935D01*
X001523Y002782D01*
X001510Y002759D01*
X001500Y002723D01*
X001500Y002445D01*
X001900Y002445D01*
X001900Y002365D01*
X001980Y002365D01*
X001980Y002445D01*
X002380Y002445D01*
X002380Y002723D01*
X002377Y002735D01*
X002833Y002735D01*
X002833Y002605D01*
X002903Y002535D01*
X002983Y002535D01*
X002983Y002189D01*
X002117Y001322D01*
X002234Y001440D02*
X000330Y001440D01*
X000330Y001518D02*
X002313Y001518D01*
X002391Y001597D02*
X000330Y001597D01*
X000330Y001675D02*
X002470Y001675D01*
X002548Y001754D02*
X000330Y001754D01*
X000330Y001832D02*
X002627Y001832D01*
X002705Y001911D02*
X000330Y001911D01*
X000330Y001989D02*
X001561Y001989D01*
X001554Y001993D02*
X001586Y001975D01*
X001622Y001965D01*
X001900Y001965D01*
X001900Y002365D01*
X001500Y002365D01*
X001500Y002087D01*
X001510Y002051D01*
X001528Y002019D01*
X001554Y001993D01*
X001505Y002068D02*
X000330Y002068D01*
X000330Y002146D02*
X001500Y002146D01*
X001500Y002225D02*
X000330Y002225D01*
X000330Y002303D02*
X001500Y002303D01*
X001500Y002460D02*
X000330Y002460D01*
X000330Y002382D02*
X001900Y002382D01*
X001900Y002303D02*
X001980Y002303D01*
X001980Y002365D02*
X001980Y001965D01*
X002258Y001965D01*
X002294Y001975D01*
X002326Y001993D01*
X002352Y002019D01*
X002370Y002051D01*
X002380Y002087D01*
X002380Y002365D01*
X001980Y002365D01*
X001980Y002382D02*
X002983Y002382D01*
X002983Y002460D02*
X002380Y002460D01*
X002380Y002539D02*
X002900Y002539D01*
X002833Y002617D02*
X002380Y002617D01*
X002380Y002696D02*
X002833Y002696D01*
X003323Y002460D02*
X004676Y002460D01*
X004617Y002539D02*
X003406Y002539D01*
X003473Y002617D02*
X004591Y002617D01*
X004559Y002696D02*
X003473Y002696D01*
X003323Y002382D02*
X005076Y002382D01*
X005016Y002460D02*
X005155Y002460D01*
X005076Y002539D02*
X005233Y002539D01*
X005312Y002617D02*
X005101Y002617D01*
X005101Y002696D02*
X005390Y002696D01*
X005469Y002774D02*
X005071Y002774D01*
X005005Y002853D02*
X005547Y002853D01*
X005626Y002931D02*
X004804Y002931D01*
X004725Y003010D02*
X005704Y003010D01*
X005783Y003088D02*
X003473Y003088D01*
X003473Y003167D02*
X005861Y003167D01*
X005940Y003245D02*
X003433Y003245D01*
X003283Y003335D02*
X003213Y003405D01*
X003213Y004005D01*
X003283Y004075D01*
X003296Y004075D01*
X003295Y004081D01*
X003305Y004094D01*
X003305Y004168D01*
X003228Y004168D01*
X003158Y004239D01*
X003158Y004454D01*
X003084Y004545D01*
X002845Y004545D01*
X002765Y004545D01*
X002765Y004465D01*
X002469Y004465D01*
X002469Y004270D01*
X002478Y004234D01*
X002496Y004203D01*
X002523Y004176D01*
X002554Y004158D01*
X002590Y004148D01*
X002765Y004148D01*
X002765Y004465D01*
X002845Y004465D01*
X002845Y004148D01*
X003021Y004148D01*
X003056Y004158D01*
X003088Y004176D01*
X003114Y004203D01*
X003133Y004234D01*
X003142Y004270D01*
X003142Y004465D01*
X002845Y004465D01*
X002845Y004545D01*
X002845Y004862D01*
X002980Y004862D01*
X002980Y004968D01*
X002559Y004968D01*
X002489Y005039D01*
X002489Y005235D01*
X002360Y005235D01*
X002360Y005231D01*
X002114Y004985D01*
X001766Y004985D01*
X001520Y005231D01*
X001520Y005235D01*
X001360Y005235D01*
X001360Y005231D01*
X001114Y004985D01*
X000766Y004985D01*
X000520Y005231D01*
X000520Y005579D01*
X000766Y005825D01*
X001114Y005825D01*
X001360Y005579D01*
X001360Y005575D01*
X001520Y005575D01*
X001520Y005579D01*
X001766Y005825D01*
X002114Y005825D01*
X002360Y005579D01*
X002360Y005575D01*
X002492Y005575D01*
X002559Y005642D01*
X002980Y005642D01*
X002980Y005768D01*
X002559Y005768D01*
X002489Y005839D01*
X002489Y006109D01*
X002486Y006118D01*
X002370Y006235D01*
X002360Y006235D01*
X002360Y006231D01*
X002114Y005985D01*
X001766Y005985D01*
X001520Y006231D01*
X001520Y006235D01*
X001360Y006235D01*
X001360Y006231D01*
X001114Y005985D01*
X000766Y005985D01*
X000520Y006231D01*
X000520Y006579D01*
X000766Y006825D01*
X001114Y006825D01*
X001360Y006579D01*
X001360Y006575D01*
X001520Y006575D01*
X001520Y006579D01*
X001766Y006825D01*
X002114Y006825D01*
X002360Y006579D01*
X002360Y006575D01*
X002510Y006575D01*
X002644Y006442D01*
X002980Y006442D01*
X002980Y006469D01*
X002972Y006528D01*
X002980Y006538D01*
X002980Y006551D01*
X003017Y006588D01*
X002539Y006588D01*
X002469Y006658D01*
X002469Y006996D01*
X002297Y007168D01*
X002114Y006985D01*
X001766Y006985D01*
X001520Y007231D01*
X001520Y007579D01*
X001766Y007825D01*
X002114Y007825D01*
X002360Y007579D01*
X002360Y007575D01*
X002370Y007575D01*
X002470Y007475D01*
X002724Y007222D01*
X003072Y007222D01*
X003140Y007153D01*
X003208Y007222D01*
X003741Y007222D01*
X003811Y007152D01*
X003811Y006658D01*
X003741Y006588D01*
X003446Y006588D01*
X003334Y006442D01*
X003721Y006442D01*
X003791Y006371D01*
X003791Y005839D01*
X003721Y005768D01*
X003320Y005768D01*
X003320Y005642D01*
X003721Y005642D01*
X003791Y005571D01*
X003791Y005039D01*
X003721Y004968D01*
X003320Y004968D01*
X003320Y004842D01*
X003721Y004842D01*
X003791Y004771D01*
X003791Y004239D01*
X003721Y004168D01*
X003645Y004168D01*
X003645Y004075D01*
X003783Y004075D01*
X003853Y004005D01*
X003853Y003405D01*
X003783Y003335D01*
X003283Y003335D01*
X003216Y003402D02*
X003104Y003402D01*
X003104Y003401D02*
X003113Y003437D01*
X003113Y003665D01*
X002813Y003665D01*
X002813Y003315D01*
X002992Y003315D01*
X003027Y003325D01*
X003059Y003343D01*
X003085Y003369D01*
X003104Y003401D01*
X003113Y003481D02*
X003213Y003481D01*
X003213Y003559D02*
X003113Y003559D01*
X003113Y003638D02*
X003213Y003638D01*
X003213Y003716D02*
X002813Y003716D01*
X002813Y003745D02*
X002813Y003665D01*
X002733Y003665D01*
X002433Y003665D01*
X002433Y003437D01*
X002443Y003401D01*
X002461Y003369D01*
X002487Y003343D01*
X002519Y003325D01*
X002555Y003315D01*
X002733Y003315D01*
X002733Y003665D01*
X002733Y003745D01*
X002433Y003745D01*
X002433Y003973D01*
X002443Y004009D01*
X002461Y004041D01*
X002487Y004067D01*
X002519Y004085D01*
X002555Y004095D01*
X002733Y004095D01*
X002733Y003745D01*
X002813Y003745D01*
X002813Y004095D01*
X002992Y004095D01*
X003027Y004085D01*
X003059Y004067D01*
X003085Y004041D01*
X003104Y004009D01*
X003113Y003973D01*
X003113Y003745D01*
X002813Y003745D01*
X002813Y003795D02*
X002733Y003795D01*
X002733Y003873D02*
X002813Y003873D01*
X002813Y003952D02*
X002733Y003952D01*
X002733Y004030D02*
X002813Y004030D01*
X002845Y004187D02*
X002765Y004187D01*
X002765Y004266D02*
X002845Y004266D01*
X002845Y004344D02*
X002765Y004344D01*
X002765Y004423D02*
X002845Y004423D01*
X002845Y004501D02*
X003120Y004501D01*
X003142Y004423D02*
X003158Y004423D01*
X003158Y004344D02*
X003142Y004344D01*
X003141Y004266D02*
X003158Y004266D01*
X003210Y004187D02*
X003099Y004187D01*
X003091Y004030D02*
X003238Y004030D01*
X003213Y003952D02*
X003113Y003952D01*
X003113Y003873D02*
X003213Y003873D01*
X003213Y003795D02*
X003113Y003795D01*
X002813Y003638D02*
X002733Y003638D01*
X002733Y003716D02*
X002223Y003716D01*
X002301Y003638D02*
X002433Y003638D01*
X002433Y003559D02*
X002360Y003559D01*
X002360Y003481D02*
X002433Y003481D01*
X002442Y003402D02*
X002360Y003402D01*
X002360Y003324D02*
X002523Y003324D01*
X002360Y003245D02*
X002873Y003245D01*
X002833Y003167D02*
X002295Y003167D01*
X002217Y003088D02*
X002833Y003088D01*
X002813Y003324D02*
X002733Y003324D01*
X002733Y003402D02*
X002813Y003402D01*
X002813Y003481D02*
X002733Y003481D01*
X002733Y003559D02*
X002813Y003559D01*
X002433Y003795D02*
X002144Y003795D01*
X002433Y003873D02*
X001610Y003873D01*
X001610Y003795D02*
X001736Y003795D01*
X001657Y003716D02*
X001610Y003716D01*
X001232Y003873D02*
X000330Y003873D01*
X000330Y003795D02*
X000532Y003795D01*
X000500Y003716D02*
X000330Y003716D01*
X000330Y003638D02*
X000500Y003638D01*
X000500Y003559D02*
X000330Y003559D01*
X000330Y003481D02*
X000500Y003481D01*
X000500Y003365D02*
X000500Y003087D01*
X000510Y003051D01*
X000528Y003019D01*
X000554Y002993D01*
X000586Y002975D01*
X000622Y002965D01*
X000900Y002965D01*
X000900Y003365D01*
X000500Y003365D01*
X000500Y003324D02*
X000330Y003324D01*
X000330Y003402D02*
X000900Y003402D01*
X000900Y003324D02*
X000980Y003324D01*
X000980Y003245D02*
X000900Y003245D01*
X000900Y003167D02*
X000980Y003167D01*
X000980Y003088D02*
X000900Y003088D01*
X000900Y003010D02*
X000980Y003010D01*
X001374Y002931D02*
X000330Y002931D01*
X000330Y002853D02*
X001452Y002853D01*
X001518Y002774D02*
X000330Y002774D01*
X000330Y002696D02*
X001500Y002696D01*
X001500Y002617D02*
X000330Y002617D01*
X000330Y002539D02*
X001500Y002539D01*
X001900Y002225D02*
X001980Y002225D01*
X001980Y002146D02*
X001900Y002146D01*
X001900Y002068D02*
X001980Y002068D01*
X001980Y001989D02*
X001900Y001989D01*
X002319Y001989D02*
X002784Y001989D01*
X002862Y002068D02*
X002375Y002068D01*
X002380Y002146D02*
X002941Y002146D01*
X002983Y002225D02*
X002380Y002225D01*
X002380Y002303D02*
X002983Y002303D01*
X003323Y002303D02*
X004998Y002303D01*
X004919Y002225D02*
X003323Y002225D01*
X003323Y002146D02*
X004841Y002146D01*
X004762Y002068D02*
X003323Y002068D01*
X003264Y001989D02*
X004684Y001989D01*
X004391Y001597D02*
X003872Y001597D01*
X003793Y001518D02*
X004313Y001518D01*
X004234Y001440D02*
X003715Y001440D01*
X003636Y001361D02*
X004156Y001361D01*
X004479Y001204D02*
X004645Y001204D01*
X004567Y001126D02*
X004401Y001126D01*
X004360Y001047D02*
X004520Y001047D01*
X004520Y000969D02*
X004360Y000969D01*
X004360Y000890D02*
X004520Y000890D01*
X004520Y000812D02*
X004360Y000812D01*
X004360Y000733D02*
X004520Y000733D01*
X004597Y000655D02*
X004283Y000655D01*
X004205Y000576D02*
X004675Y000576D01*
X004754Y000498D02*
X004126Y000498D01*
X003754Y000498D02*
X003302Y000498D01*
X003360Y000576D02*
X003675Y000576D01*
X003597Y000655D02*
X003360Y000655D01*
X003360Y000733D02*
X003520Y000733D01*
X003520Y000812D02*
X003360Y000812D01*
X003360Y000890D02*
X003520Y000890D01*
X003520Y000969D02*
X003360Y000969D01*
X003360Y001047D02*
X003520Y001047D01*
X003567Y001126D02*
X003401Y001126D01*
X003479Y001204D02*
X003645Y001204D01*
X003724Y001283D02*
X003558Y001283D01*
X003234Y001440D02*
X002715Y001440D01*
X002793Y001518D02*
X003313Y001518D01*
X003391Y001597D02*
X002872Y001597D01*
X002950Y001675D02*
X003470Y001675D01*
X003548Y001754D02*
X003029Y001754D01*
X003107Y001832D02*
X003627Y001832D01*
X003705Y001911D02*
X003186Y001911D01*
X003156Y001361D02*
X002636Y001361D01*
X002520Y001204D02*
X002479Y001204D01*
X002520Y001126D02*
X002401Y001126D01*
X002360Y001047D02*
X002520Y001047D01*
X002520Y000969D02*
X002360Y000969D01*
X002360Y000890D02*
X002520Y000890D01*
X002520Y000812D02*
X002360Y000812D01*
X002360Y000733D02*
X002520Y000733D01*
X002520Y000655D02*
X002283Y000655D01*
X002205Y000576D02*
X002520Y000576D01*
X002578Y000498D02*
X002126Y000498D01*
X001754Y000498D02*
X001126Y000498D01*
X001205Y000576D02*
X001675Y000576D01*
X001597Y000655D02*
X001283Y000655D01*
X001360Y000733D02*
X001520Y000733D01*
X001520Y000812D02*
X001360Y000812D01*
X001360Y000890D02*
X001520Y000890D01*
X001520Y000969D02*
X001360Y000969D01*
X001360Y001047D02*
X001520Y001047D01*
X001567Y001126D02*
X001313Y001126D01*
X001235Y001204D02*
X001645Y001204D01*
X001724Y001283D02*
X001156Y001283D01*
X000764Y000341D02*
X018116Y000341D01*
X018126Y000498D02*
X018273Y000498D01*
X018205Y000576D02*
X018352Y000576D01*
X018283Y000655D02*
X018430Y000655D01*
X018360Y000733D02*
X018509Y000733D01*
X018550Y000812D02*
X018360Y000812D01*
X018360Y000890D02*
X018550Y000890D01*
X018550Y000969D02*
X018360Y000969D01*
X018360Y001047D02*
X018550Y001047D01*
X018550Y001126D02*
X018313Y001126D01*
X018235Y001204D02*
X018550Y001204D01*
X018550Y001283D02*
X018156Y001283D01*
X018550Y001361D02*
X017724Y001361D01*
X017646Y001440D02*
X018550Y001440D01*
X018550Y001518D02*
X017567Y001518D01*
X017489Y001597D02*
X018550Y001597D01*
X018550Y001675D02*
X017410Y001675D01*
X017332Y001754D02*
X018550Y001754D01*
X018550Y001832D02*
X017253Y001832D01*
X017175Y001911D02*
X018550Y001911D01*
X018550Y001989D02*
X017096Y001989D01*
X017018Y002068D02*
X018550Y002068D01*
X018550Y002146D02*
X016939Y002146D01*
X016861Y002225D02*
X018550Y002225D01*
X018550Y002303D02*
X016782Y002303D01*
X016704Y002382D02*
X018550Y002382D01*
X018550Y002460D02*
X016625Y002460D01*
X016547Y002539D02*
X018550Y002539D01*
X018550Y002617D02*
X016468Y002617D01*
X016390Y002696D02*
X018550Y002696D01*
X018550Y002774D02*
X016311Y002774D01*
X016233Y002853D02*
X018550Y002853D01*
X018550Y002931D02*
X014254Y002931D01*
X014176Y003010D02*
X018550Y003010D01*
X018550Y003088D02*
X016467Y003088D01*
X016499Y003104D02*
X016562Y003150D01*
X016617Y003205D01*
X016663Y003268D01*
X016698Y003337D01*
X016722Y003411D01*
X016734Y003487D01*
X016280Y003487D01*
X016280Y003033D01*
X016356Y003045D01*
X016430Y003069D01*
X016499Y003104D01*
X016579Y003167D02*
X018550Y003167D01*
X018550Y003245D02*
X016646Y003245D01*
X016691Y003324D02*
X018550Y003324D01*
X018550Y003402D02*
X016719Y003402D01*
X016733Y003481D02*
X018550Y003481D01*
X018550Y003559D02*
X016280Y003559D01*
X016280Y003567D02*
X016734Y003567D01*
X016722Y003643D01*
X016698Y003717D01*
X016663Y003786D01*
X016617Y003849D01*
X016562Y003904D01*
X016499Y003950D01*
X016430Y003985D01*
X016356Y004009D01*
X016280Y004021D01*
X016280Y003567D01*
X016280Y003487D01*
X016200Y003487D01*
X016200Y003033D01*
X016124Y003045D01*
X016050Y003069D01*
X015981Y003104D01*
X015918Y003150D01*
X015863Y003205D01*
X015817Y003268D01*
X015782Y003337D01*
X015758Y003411D01*
X015746Y003487D01*
X016200Y003487D01*
X016200Y003567D01*
X015746Y003567D01*
X015758Y003643D01*
X015782Y003717D01*
X015817Y003786D01*
X015863Y003849D01*
X015918Y003904D01*
X015981Y003950D01*
X016050Y003985D01*
X016124Y004009D01*
X016200Y004021D01*
X016200Y003567D01*
X016280Y003567D01*
X016280Y003638D02*
X016200Y003638D01*
X016200Y003716D02*
X016280Y003716D01*
X016280Y003795D02*
X016200Y003795D01*
X016200Y003873D02*
X016280Y003873D01*
X016280Y003952D02*
X016200Y003952D01*
X015984Y003952D02*
X014670Y003952D01*
X014670Y003883D02*
X014615Y003751D01*
X014514Y003650D01*
X014382Y003595D01*
X014238Y003595D01*
X014106Y003650D01*
X014005Y003751D01*
X013950Y003883D01*
X013950Y004027D01*
X014005Y004159D01*
X014106Y004260D01*
X014238Y004315D01*
X014382Y004315D01*
X014514Y004260D01*
X014615Y004159D01*
X014670Y004027D01*
X014670Y003883D01*
X014666Y003873D02*
X015887Y003873D01*
X015823Y003795D02*
X014633Y003795D01*
X014580Y003716D02*
X015782Y003716D01*
X015757Y003638D02*
X014484Y003638D01*
X014136Y003638D02*
X013548Y003638D01*
X013469Y003716D02*
X014040Y003716D01*
X013987Y003795D02*
X013391Y003795D01*
X013312Y003873D02*
X013954Y003873D01*
X013950Y003952D02*
X013234Y003952D01*
X013155Y004030D02*
X013951Y004030D01*
X013984Y004109D02*
X013077Y004109D01*
X012998Y004187D02*
X014033Y004187D01*
X014119Y004266D02*
X013177Y004266D01*
X013181Y004267D02*
X013213Y004285D01*
X013239Y004311D01*
X013258Y004343D01*
X013267Y004379D01*
X013267Y004574D01*
X012971Y004574D01*
X012971Y004257D01*
X013146Y004257D01*
X013181Y004267D01*
X013258Y004344D02*
X017618Y004344D01*
X017618Y004266D02*
X014501Y004266D01*
X014587Y004187D02*
X018013Y004187D01*
X018013Y004176D02*
X017618Y004176D01*
X017618Y003902D01*
X017628Y003867D01*
X017646Y003835D01*
X017672Y003809D01*
X017704Y003790D01*
X017740Y003781D01*
X018013Y003781D01*
X018013Y004176D01*
X018013Y004256D01*
X017618Y004256D01*
X017618Y004530D01*
X017628Y004565D01*
X017646Y004597D01*
X017672Y004623D01*
X017704Y004642D01*
X017740Y004651D01*
X018013Y004651D01*
X018013Y004256D01*
X018093Y004256D01*
X018093Y004651D01*
X018367Y004651D01*
X018403Y004642D01*
X018435Y004623D01*
X018461Y004597D01*
X018479Y004565D01*
X018489Y004530D01*
X018489Y004256D01*
X018093Y004256D01*
X018093Y004176D01*
X018093Y003781D01*
X018367Y003781D01*
X018403Y003790D01*
X018435Y003809D01*
X018461Y003835D01*
X018479Y003867D01*
X018489Y003902D01*
X018489Y004176D01*
X018093Y004176D01*
X018013Y004176D01*
X018013Y004109D02*
X018093Y004109D01*
X018093Y004187D02*
X018550Y004187D01*
X018550Y004109D02*
X018489Y004109D01*
X018489Y004030D02*
X018550Y004030D01*
X018550Y003952D02*
X018489Y003952D01*
X018481Y003873D02*
X018550Y003873D01*
X018550Y003795D02*
X018410Y003795D01*
X018550Y003716D02*
X016698Y003716D01*
X016723Y003638D02*
X018550Y003638D01*
X018093Y003795D02*
X018013Y003795D01*
X018013Y003873D02*
X018093Y003873D01*
X018093Y003952D02*
X018013Y003952D01*
X018013Y004030D02*
X018093Y004030D01*
X018093Y004266D02*
X018013Y004266D01*
X018013Y004344D02*
X018093Y004344D01*
X018093Y004423D02*
X018013Y004423D01*
X018013Y004501D02*
X018093Y004501D01*
X018093Y004580D02*
X018013Y004580D01*
X017636Y004580D02*
X012971Y004580D01*
X012971Y004501D02*
X012891Y004501D01*
X012891Y004574D02*
X012612Y004574D01*
X012473Y004712D01*
X012473Y004714D01*
X012458Y004728D01*
X012465Y004735D01*
X012484Y004767D01*
X012493Y004803D01*
X012493Y004900D01*
X011979Y004900D01*
X011465Y004900D01*
X011979Y004900D01*
X011979Y004900D01*
X011979Y004900D01*
X012493Y004900D01*
X012493Y004997D01*
X012488Y005015D01*
X012615Y005015D01*
X012673Y004957D01*
X012648Y004942D01*
X012622Y004916D01*
X012603Y004884D01*
X012594Y004849D01*
X012594Y004654D01*
X012891Y004654D01*
X012891Y004574D01*
X012891Y004580D02*
X012606Y004580D01*
X012594Y004658D02*
X012527Y004658D01*
X012466Y004737D02*
X012594Y004737D01*
X012594Y004815D02*
X012493Y004815D01*
X012493Y004894D02*
X012609Y004894D01*
X012658Y004972D02*
X012493Y004972D01*
X013203Y004972D02*
X018550Y004972D01*
X018550Y004894D02*
X013253Y004894D01*
X013267Y004815D02*
X018550Y004815D01*
X018550Y004737D02*
X013267Y004737D01*
X013267Y004658D02*
X018550Y004658D01*
X018550Y004580D02*
X018471Y004580D01*
X018489Y004501D02*
X018550Y004501D01*
X018550Y004423D02*
X018489Y004423D01*
X018489Y004344D02*
X018550Y004344D01*
X018550Y004266D02*
X018489Y004266D01*
X017618Y004423D02*
X013267Y004423D01*
X013267Y004501D02*
X017618Y004501D01*
X017618Y004109D02*
X014636Y004109D01*
X014669Y004030D02*
X017618Y004030D01*
X017618Y003952D02*
X016496Y003952D01*
X016593Y003873D02*
X017626Y003873D01*
X017697Y003795D02*
X016657Y003795D01*
X016280Y003481D02*
X016200Y003481D01*
X016200Y003559D02*
X013626Y003559D01*
X013705Y003481D02*
X015747Y003481D01*
X015761Y003402D02*
X013783Y003402D01*
X013862Y003324D02*
X015789Y003324D01*
X015834Y003245D02*
X013940Y003245D01*
X014019Y003167D02*
X015901Y003167D01*
X016013Y003088D02*
X014097Y003088D01*
X013188Y002617D02*
X012468Y002617D01*
X012390Y002696D02*
X013109Y002696D01*
X013031Y002774D02*
X012311Y002774D01*
X012233Y002853D02*
X012952Y002853D01*
X012874Y002931D02*
X012154Y002931D01*
X012149Y003010D02*
X012795Y003010D01*
X012717Y003088D02*
X012149Y003088D01*
X012443Y003167D02*
X012638Y003167D01*
X012560Y003245D02*
X012473Y003245D01*
X012473Y003324D02*
X012481Y003324D01*
X011809Y003088D02*
X011500Y003088D01*
X011509Y003010D02*
X011809Y003010D01*
X011809Y002931D02*
X011509Y002931D01*
X011509Y002853D02*
X011809Y002853D01*
X011831Y002774D02*
X011509Y002774D01*
X011509Y002696D02*
X011909Y002696D01*
X011988Y002617D02*
X011509Y002617D01*
X011547Y002539D02*
X012066Y002539D01*
X012145Y002460D02*
X011625Y002460D01*
X011704Y002382D02*
X012223Y002382D01*
X012302Y002303D02*
X011782Y002303D01*
X011861Y002225D02*
X012380Y002225D01*
X012459Y002146D02*
X011939Y002146D01*
X012018Y002068D02*
X012537Y002068D01*
X012616Y001989D02*
X012096Y001989D01*
X012175Y001911D02*
X012694Y001911D01*
X012773Y001832D02*
X012253Y001832D01*
X012332Y001754D02*
X012851Y001754D01*
X012930Y001675D02*
X012410Y001675D01*
X012489Y001597D02*
X013008Y001597D01*
X013087Y001518D02*
X012567Y001518D01*
X012646Y001440D02*
X013165Y001440D01*
X013244Y001361D02*
X012724Y001361D01*
X012479Y001126D02*
X012313Y001126D01*
X012360Y001047D02*
X012520Y001047D01*
X012520Y000969D02*
X012360Y000969D01*
X012360Y000890D02*
X012520Y000890D01*
X012520Y000812D02*
X012360Y000812D01*
X012360Y000733D02*
X012520Y000733D01*
X012597Y000655D02*
X012283Y000655D01*
X012205Y000576D02*
X012675Y000576D01*
X012754Y000498D02*
X012126Y000498D01*
X011754Y000498D02*
X011126Y000498D01*
X011205Y000576D02*
X011675Y000576D01*
X011597Y000655D02*
X011283Y000655D01*
X011360Y000733D02*
X011520Y000733D01*
X011520Y000812D02*
X011360Y000812D01*
X011360Y000890D02*
X011520Y000890D01*
X011520Y000969D02*
X011360Y000969D01*
X011360Y001047D02*
X011520Y001047D01*
X011479Y001126D02*
X011313Y001126D01*
X011235Y001204D02*
X011401Y001204D01*
X011322Y001283D02*
X011156Y001283D01*
X011244Y001361D02*
X010850Y001361D01*
X010850Y001440D02*
X011165Y001440D01*
X011087Y001518D02*
X010850Y001518D01*
X010850Y001597D02*
X011008Y001597D01*
X010930Y001675D02*
X010850Y001675D01*
X010850Y001754D02*
X010851Y001754D01*
X010510Y001754D02*
X010496Y001754D01*
X010496Y001832D02*
X010510Y001832D01*
X010510Y001911D02*
X010496Y001911D01*
X010496Y001675D02*
X010510Y001675D01*
X010510Y001597D02*
X010463Y001597D01*
X010510Y001518D02*
X009275Y001518D01*
X009346Y001440D02*
X010510Y001440D01*
X010510Y001361D02*
X009724Y001361D01*
X010156Y001283D02*
X010510Y001283D01*
X010510Y001204D02*
X010235Y001204D01*
X010313Y001126D02*
X010510Y001126D01*
X010520Y001047D02*
X010360Y001047D01*
X010360Y000969D02*
X010520Y000969D01*
X010520Y000890D02*
X010360Y000890D01*
X010360Y000812D02*
X010520Y000812D01*
X010520Y000733D02*
X010360Y000733D01*
X010283Y000655D02*
X010597Y000655D01*
X010675Y000576D02*
X010205Y000576D01*
X010126Y000498D02*
X010754Y000498D01*
X009754Y000498D02*
X009126Y000498D01*
X009205Y000576D02*
X009675Y000576D01*
X009597Y000655D02*
X009283Y000655D01*
X009360Y000733D02*
X009520Y000733D01*
X009520Y000812D02*
X009360Y000812D01*
X009360Y000890D02*
X009520Y000890D01*
X009520Y000969D02*
X009360Y000969D01*
X008754Y000498D02*
X008126Y000498D01*
X008205Y000576D02*
X008675Y000576D01*
X008597Y000655D02*
X008283Y000655D01*
X008360Y000733D02*
X008520Y000733D01*
X008520Y000812D02*
X008360Y000812D01*
X008360Y000890D02*
X008520Y000890D01*
X008520Y000969D02*
X008360Y000969D01*
X008360Y001047D02*
X008520Y001047D01*
X008567Y001126D02*
X008401Y001126D01*
X008479Y001204D02*
X008620Y001204D01*
X008620Y001283D02*
X008558Y001283D01*
X008305Y001518D02*
X007793Y001518D01*
X007715Y001440D02*
X008234Y001440D01*
X008156Y001361D02*
X007636Y001361D01*
X007558Y001283D02*
X007724Y001283D01*
X007645Y001204D02*
X007479Y001204D01*
X007401Y001126D02*
X007567Y001126D01*
X007520Y001047D02*
X007360Y001047D01*
X007360Y000969D02*
X007520Y000969D01*
X007520Y000890D02*
X007360Y000890D01*
X007360Y000812D02*
X007520Y000812D01*
X007520Y000733D02*
X007360Y000733D01*
X007283Y000655D02*
X007597Y000655D01*
X007675Y000576D02*
X007205Y000576D01*
X007126Y000498D02*
X007754Y000498D01*
X006754Y000498D02*
X006126Y000498D01*
X006205Y000576D02*
X006675Y000576D01*
X006597Y000655D02*
X006283Y000655D01*
X006360Y000733D02*
X006520Y000733D01*
X006520Y000812D02*
X006360Y000812D01*
X006360Y000890D02*
X006520Y000890D01*
X006520Y000969D02*
X006360Y000969D01*
X006360Y001047D02*
X006520Y001047D01*
X006567Y001126D02*
X006313Y001126D01*
X006235Y001204D02*
X006645Y001204D01*
X006724Y001283D02*
X006156Y001283D01*
X006110Y001361D02*
X007156Y001361D01*
X007234Y001440D02*
X006110Y001440D01*
X006110Y001518D02*
X007313Y001518D01*
X007391Y001597D02*
X006110Y001597D01*
X006110Y001675D02*
X007470Y001675D01*
X007548Y001754D02*
X006110Y001754D01*
X006110Y001832D02*
X007627Y001832D01*
X007705Y001911D02*
X006110Y001911D01*
X006110Y001989D02*
X007784Y001989D01*
X007862Y002068D02*
X006143Y002068D01*
X006221Y002146D02*
X007941Y002146D01*
X007969Y002225D02*
X006300Y002225D01*
X006378Y002303D02*
X007962Y002303D01*
X007962Y002382D02*
X006457Y002382D01*
X006535Y002460D02*
X007962Y002460D01*
X007962Y002539D02*
X006614Y002539D01*
X006692Y002617D02*
X007962Y002617D01*
X007962Y002696D02*
X006771Y002696D01*
X006849Y002774D02*
X007962Y002774D01*
X007962Y002853D02*
X006928Y002853D01*
X007006Y002931D02*
X007962Y002931D01*
X007962Y003010D02*
X007085Y003010D01*
X007163Y003088D02*
X007970Y003088D01*
X007955Y003167D02*
X009310Y003167D01*
X009420Y003167D02*
X009420Y003167D01*
X009420Y003170D02*
X009420Y002656D01*
X009420Y002656D01*
X009420Y003170D01*
X009420Y003088D02*
X009420Y003088D01*
X009420Y003010D02*
X009420Y003010D01*
X009420Y002931D02*
X009420Y002931D01*
X009420Y002853D02*
X009420Y002853D01*
X009420Y002774D02*
X009420Y002774D01*
X009420Y002696D02*
X009420Y002696D01*
X010004Y003167D02*
X010165Y003167D01*
X010197Y003245D02*
X009979Y003245D01*
X009919Y003324D02*
X010276Y003324D01*
X010354Y003402D02*
X007985Y003402D01*
X007985Y003324D02*
X009580Y003324D01*
X009520Y003245D02*
X007985Y003245D01*
X007958Y003481D02*
X010433Y003481D01*
X010511Y003559D02*
X007985Y003559D01*
X007985Y003638D02*
X010540Y003638D01*
X010540Y003716D02*
X007985Y003716D01*
X007959Y003795D02*
X010540Y003795D01*
X010540Y003873D02*
X007985Y003873D01*
X007985Y003952D02*
X010540Y003952D01*
X010540Y004030D02*
X007985Y004030D01*
X007960Y004109D02*
X010540Y004109D01*
X010540Y004187D02*
X007985Y004187D01*
X007985Y004266D02*
X010540Y004266D01*
X010540Y004344D02*
X007985Y004344D01*
X008298Y004423D02*
X010540Y004423D01*
X010540Y004501D02*
X008376Y004501D01*
X008455Y004580D02*
X010540Y004580D01*
X010540Y004658D02*
X008533Y004658D01*
X008612Y004737D02*
X010534Y004737D01*
X010454Y004815D02*
X008640Y004815D01*
X008640Y004894D02*
X010373Y004894D01*
X010292Y004972D02*
X008640Y004972D01*
X008640Y005051D02*
X009732Y005051D01*
X009653Y005129D02*
X008640Y005129D01*
X008640Y005208D02*
X009575Y005208D01*
X009496Y005286D02*
X008640Y005286D01*
X008640Y005365D02*
X009418Y005365D01*
X009339Y005443D02*
X008640Y005443D01*
X008640Y005522D02*
X009261Y005522D01*
X009182Y005600D02*
X008640Y005600D01*
X008640Y005679D02*
X009104Y005679D01*
X009025Y005757D02*
X008640Y005757D01*
X008640Y005836D02*
X008947Y005836D01*
X008868Y005914D02*
X008640Y005914D01*
X008710Y005993D02*
X008790Y005993D01*
X009120Y006228D02*
X009334Y006228D01*
X009256Y006307D02*
X009044Y006307D01*
X009123Y006385D02*
X009220Y006385D01*
X009188Y006450D02*
X009188Y006450D01*
X009201Y006464D02*
X009220Y006464D01*
X008793Y006621D02*
X007968Y006621D01*
X007985Y006603D02*
X007915Y006674D01*
X007661Y006674D01*
X007661Y008424D01*
X007357Y008728D01*
X007360Y008731D01*
X007360Y009079D01*
X007114Y009325D01*
X006766Y009325D01*
X006520Y009079D01*
X006520Y008731D01*
X006766Y008485D01*
X007114Y008485D01*
X007117Y008488D01*
X007321Y008284D01*
X007321Y006674D01*
X007067Y006674D01*
X006997Y006603D01*
X006997Y006520D01*
X006373Y007144D01*
X006373Y008286D01*
X006273Y008385D01*
X006144Y008515D01*
X006360Y008731D01*
X006360Y009079D01*
X006114Y009325D01*
X005766Y009325D01*
X005520Y009079D01*
X005520Y008731D01*
X005766Y008485D01*
X005770Y008485D01*
X005770Y008408D01*
X006033Y008145D01*
X006033Y007244D01*
X005593Y007244D01*
X005593Y007340D01*
X005555Y007378D01*
X005593Y007416D01*
X005593Y007445D01*
X005680Y007409D01*
X005781Y007409D01*
X005875Y007448D01*
X005947Y007520D01*
X005986Y007613D01*
X005986Y007715D01*
X005947Y007809D01*
X005875Y007880D01*
X005781Y007919D01*
X005680Y007919D01*
X005593Y007883D01*
X005593Y007948D01*
X005523Y008019D01*
X005446Y008019D01*
X005446Y008639D01*
X005357Y008728D01*
X005360Y008731D01*
X005360Y009079D01*
X005114Y009325D01*
X004766Y009325D01*
X004520Y009079D01*
X004520Y008731D01*
X004766Y008485D01*
X005106Y008485D01*
X005106Y008019D01*
X005029Y008019D01*
X004959Y007948D01*
X004959Y007416D01*
X004997Y007378D01*
X004959Y007340D01*
X004959Y006808D01*
X005029Y006737D01*
X005220Y006737D01*
X005220Y006680D01*
X005152Y006611D01*
X005152Y005646D01*
X005222Y005576D01*
X005558Y005576D01*
X005628Y005646D01*
X005628Y006611D01*
X005560Y006680D01*
X005560Y006775D01*
X005593Y006808D01*
X005593Y006904D01*
X006133Y006904D01*
X006304Y006732D01*
X006079Y006732D01*
X006032Y006778D01*
X005939Y006817D01*
X005837Y006817D01*
X005744Y006778D01*
X005672Y006706D01*
X005633Y006612D01*
X005633Y006511D01*
X005652Y006465D01*
X005652Y005646D01*
X005722Y005576D01*
X006058Y005576D01*
X006128Y005646D01*
X006128Y006392D01*
X006290Y006392D01*
X006622Y006060D01*
X006550Y006060D01*
X006456Y006021D01*
X006384Y005949D01*
X006346Y005856D01*
X006346Y005754D01*
X006384Y005661D01*
X006426Y005619D01*
X006335Y005582D01*
X006263Y005510D01*
X006224Y005416D01*
X006224Y005315D01*
X006263Y005221D01*
X006335Y005149D01*
X006429Y005111D01*
X006530Y005111D01*
X006624Y005149D01*
X006630Y005156D01*
X006741Y005045D01*
X006994Y005045D01*
X006987Y005033D01*
X006977Y004997D01*
X006977Y004900D01*
X007491Y004900D01*
X007491Y004900D01*
X008005Y004900D01*
X008005Y004997D01*
X007995Y005033D01*
X007977Y005065D01*
X007970Y005072D01*
X007985Y005087D01*
X007985Y005343D01*
X007956Y005373D01*
X007985Y005402D01*
X007985Y005658D01*
X007956Y005687D01*
X007985Y005717D01*
X007985Y005973D01*
X007956Y006002D01*
X007985Y006031D01*
X007985Y006288D01*
X007956Y006317D01*
X007985Y006346D01*
X007985Y006603D01*
X007985Y006542D02*
X008646Y006542D01*
X008538Y006464D02*
X007985Y006464D01*
X007985Y006385D02*
X008497Y006385D01*
X008459Y006307D02*
X007967Y006307D01*
X007985Y006228D02*
X008380Y006228D01*
X008302Y006150D02*
X007985Y006150D01*
X007985Y006071D02*
X008240Y006071D01*
X008240Y005993D02*
X007966Y005993D01*
X007985Y005914D02*
X008240Y005914D01*
X008240Y005836D02*
X007985Y005836D01*
X007985Y005757D02*
X008240Y005757D01*
X008240Y005679D02*
X007965Y005679D01*
X007985Y005600D02*
X008240Y005600D01*
X008240Y005522D02*
X007985Y005522D01*
X007985Y005443D02*
X008240Y005443D01*
X008240Y005365D02*
X007964Y005365D01*
X007985Y005286D02*
X008240Y005286D01*
X008240Y005208D02*
X007985Y005208D01*
X007985Y005129D02*
X008240Y005129D01*
X008240Y005051D02*
X007985Y005051D01*
X008005Y004972D02*
X008240Y004972D01*
X008203Y004894D02*
X008005Y004894D01*
X008005Y004815D02*
X008125Y004815D01*
X006977Y004815D02*
X006657Y004815D01*
X006657Y004894D02*
X006977Y004894D01*
X006977Y004972D02*
X006657Y004972D01*
X006612Y005051D02*
X006735Y005051D01*
X006657Y005129D02*
X006574Y005129D01*
X006384Y005129D02*
X006233Y005129D01*
X006277Y005208D02*
X006155Y005208D01*
X006236Y005286D02*
X004742Y005286D01*
X004663Y005365D02*
X006224Y005365D01*
X006235Y005443D02*
X004585Y005443D01*
X004585Y005522D02*
X006275Y005522D01*
X006379Y005600D02*
X006082Y005600D01*
X006128Y005679D02*
X006377Y005679D01*
X006346Y005757D02*
X006128Y005757D01*
X006128Y005836D02*
X006346Y005836D01*
X006370Y005914D02*
X006128Y005914D01*
X006128Y005993D02*
X006428Y005993D01*
X006532Y006150D02*
X006128Y006150D01*
X006128Y006228D02*
X006454Y006228D01*
X006375Y006307D02*
X006128Y006307D01*
X006128Y006385D02*
X006297Y006385D01*
X006818Y006699D02*
X007321Y006699D01*
X007321Y006778D02*
X006739Y006778D01*
X006661Y006856D02*
X007321Y006856D01*
X007321Y006935D02*
X006582Y006935D01*
X006504Y007013D02*
X007321Y007013D01*
X007321Y007092D02*
X006425Y007092D01*
X006373Y007170D02*
X007321Y007170D01*
X007321Y007249D02*
X006373Y007249D01*
X006373Y007327D02*
X007321Y007327D01*
X007321Y007406D02*
X006373Y007406D01*
X006373Y007484D02*
X007321Y007484D01*
X007321Y007563D02*
X006373Y007563D01*
X006373Y007641D02*
X007321Y007641D01*
X007321Y007720D02*
X006373Y007720D01*
X006373Y007798D02*
X007321Y007798D01*
X007321Y007877D02*
X006373Y007877D01*
X006373Y007955D02*
X007321Y007955D01*
X007321Y008034D02*
X006373Y008034D01*
X006373Y008112D02*
X007321Y008112D01*
X007321Y008191D02*
X006373Y008191D01*
X006373Y008269D02*
X007321Y008269D01*
X007257Y008348D02*
X006311Y008348D01*
X006233Y008426D02*
X007179Y008426D01*
X007502Y008583D02*
X007668Y008583D01*
X007747Y008505D02*
X007581Y008505D01*
X007659Y008426D02*
X007990Y008426D01*
X007990Y008348D02*
X007661Y008348D01*
X007661Y008269D02*
X007990Y008269D01*
X007990Y008191D02*
X007661Y008191D01*
X007661Y008112D02*
X007990Y008112D01*
X007990Y008034D02*
X007661Y008034D01*
X007661Y007955D02*
X007990Y007955D01*
X007990Y007877D02*
X007661Y007877D01*
X007661Y007798D02*
X007990Y007798D01*
X007990Y007720D02*
X007661Y007720D01*
X007661Y007641D02*
X007990Y007641D01*
X007962Y007563D02*
X007661Y007563D01*
X007661Y007484D02*
X007962Y007484D01*
X007962Y007406D02*
X007661Y007406D01*
X007661Y007327D02*
X007962Y007327D01*
X007962Y007249D02*
X007661Y007249D01*
X007661Y007170D02*
X007962Y007170D01*
X007962Y007092D02*
X007661Y007092D01*
X007661Y007013D02*
X007962Y007013D01*
X007962Y006935D02*
X007661Y006935D01*
X007661Y006856D02*
X007962Y006856D01*
X007962Y006778D02*
X007661Y006778D01*
X007661Y006699D02*
X007983Y006699D01*
X007014Y006621D02*
X006896Y006621D01*
X006975Y006542D02*
X006997Y006542D01*
X006259Y006778D02*
X006033Y006778D01*
X006180Y006856D02*
X005593Y006856D01*
X005563Y006778D02*
X005743Y006778D01*
X005669Y006699D02*
X005560Y006699D01*
X005619Y006621D02*
X005636Y006621D01*
X005628Y006542D02*
X005633Y006542D01*
X005628Y006464D02*
X005652Y006464D01*
X005652Y006385D02*
X005628Y006385D01*
X005628Y006307D02*
X005652Y006307D01*
X005652Y006228D02*
X005628Y006228D01*
X005628Y006150D02*
X005652Y006150D01*
X005652Y006071D02*
X005628Y006071D01*
X005628Y005993D02*
X005652Y005993D01*
X005652Y005914D02*
X005628Y005914D01*
X005628Y005836D02*
X005652Y005836D01*
X005652Y005757D02*
X005628Y005757D01*
X005628Y005679D02*
X005652Y005679D01*
X005698Y005600D02*
X005582Y005600D01*
X005198Y005600D02*
X005111Y005600D01*
X005120Y005610D02*
X005139Y005642D01*
X005148Y005677D01*
X005148Y006110D01*
X004909Y006110D01*
X004909Y006148D01*
X004871Y006148D01*
X004871Y006702D01*
X004753Y006702D01*
X004718Y006692D01*
X004686Y006674D01*
X004660Y006648D01*
X004641Y006616D01*
X004632Y006580D01*
X004632Y006148D01*
X004871Y006148D01*
X004871Y006110D01*
X004632Y006110D01*
X004632Y005677D01*
X004641Y005642D01*
X004660Y005610D01*
X004686Y005584D01*
X004718Y005565D01*
X004753Y005556D01*
X004871Y005556D01*
X004871Y006110D01*
X004909Y006110D01*
X004909Y005556D01*
X005027Y005556D01*
X005062Y005565D01*
X005094Y005584D01*
X005120Y005610D01*
X005148Y005679D02*
X005152Y005679D01*
X005148Y005757D02*
X005152Y005757D01*
X005148Y005836D02*
X005152Y005836D01*
X005148Y005914D02*
X005152Y005914D01*
X005148Y005993D02*
X005152Y005993D01*
X005148Y006071D02*
X005152Y006071D01*
X005148Y006148D02*
X004909Y006148D01*
X004909Y006702D01*
X005027Y006702D01*
X005062Y006692D01*
X005094Y006674D01*
X005120Y006648D01*
X005139Y006616D01*
X005148Y006580D01*
X005148Y006148D01*
X005148Y006150D02*
X005152Y006150D01*
X005148Y006228D02*
X005152Y006228D01*
X005148Y006307D02*
X005152Y006307D01*
X005148Y006385D02*
X005152Y006385D01*
X005148Y006464D02*
X005152Y006464D01*
X005148Y006542D02*
X005152Y006542D01*
X005161Y006621D02*
X005136Y006621D01*
X005220Y006699D02*
X005037Y006699D01*
X004989Y006778D02*
X004893Y006778D01*
X004909Y006699D02*
X004871Y006699D01*
X004871Y006621D02*
X004909Y006621D01*
X004909Y006542D02*
X004871Y006542D01*
X004871Y006464D02*
X004909Y006464D01*
X004909Y006385D02*
X004871Y006385D01*
X004871Y006307D02*
X004909Y006307D01*
X004909Y006228D02*
X004871Y006228D01*
X004871Y006150D02*
X004909Y006150D01*
X004909Y006071D02*
X004871Y006071D01*
X004871Y005993D02*
X004909Y005993D01*
X004909Y005914D02*
X004871Y005914D01*
X004871Y005836D02*
X004909Y005836D01*
X004909Y005757D02*
X004871Y005757D01*
X004871Y005679D02*
X004909Y005679D01*
X004909Y005600D02*
X004871Y005600D01*
X004669Y005600D02*
X004586Y005600D01*
X004628Y005679D02*
X004632Y005679D01*
X004628Y005757D02*
X004632Y005757D01*
X004628Y005836D02*
X004632Y005836D01*
X004628Y005914D02*
X004632Y005914D01*
X004628Y005993D02*
X004632Y005993D01*
X004628Y006071D02*
X004632Y006071D01*
X004628Y006150D02*
X004632Y006150D01*
X004628Y006228D02*
X004632Y006228D01*
X004628Y006307D02*
X004632Y006307D01*
X004628Y006385D02*
X004632Y006385D01*
X004628Y006464D02*
X004632Y006464D01*
X004628Y006542D02*
X004632Y006542D01*
X004644Y006621D02*
X004619Y006621D01*
X004590Y006699D02*
X004743Y006699D01*
X004924Y006856D02*
X004959Y006856D01*
X004959Y006935D02*
X004924Y006935D01*
X004924Y007013D02*
X004959Y007013D01*
X004959Y007092D02*
X004924Y007092D01*
X004924Y007170D02*
X004959Y007170D01*
X004959Y007249D02*
X004924Y007249D01*
X004924Y007327D02*
X004959Y007327D01*
X004969Y007406D02*
X004913Y007406D01*
X004924Y007484D02*
X004959Y007484D01*
X004959Y007563D02*
X004924Y007563D01*
X004924Y007641D02*
X004959Y007641D01*
X004959Y007720D02*
X004924Y007720D01*
X004924Y007798D02*
X004959Y007798D01*
X004959Y007877D02*
X004924Y007877D01*
X004917Y007955D02*
X004966Y007955D01*
X005106Y008034D02*
X004538Y008034D01*
X004459Y008112D02*
X005106Y008112D01*
X005106Y008191D02*
X004381Y008191D01*
X004302Y008269D02*
X005106Y008269D01*
X005106Y008348D02*
X001280Y008348D01*
X001202Y008426D02*
X005106Y008426D01*
X005446Y008426D02*
X005770Y008426D01*
X005747Y008505D02*
X005446Y008505D01*
X005446Y008583D02*
X005668Y008583D01*
X005590Y008662D02*
X005424Y008662D01*
X005360Y008740D02*
X005520Y008740D01*
X005520Y008819D02*
X005360Y008819D01*
X005360Y008897D02*
X005520Y008897D01*
X005520Y008976D02*
X005360Y008976D01*
X005360Y009054D02*
X005520Y009054D01*
X005574Y009133D02*
X005306Y009133D01*
X005228Y009211D02*
X005652Y009211D01*
X005731Y009290D02*
X005149Y009290D01*
X004731Y009290D02*
X004149Y009290D01*
X004114Y009325D02*
X003766Y009325D01*
X003520Y009079D01*
X003520Y008731D01*
X003766Y008485D01*
X004114Y008485D01*
X004360Y008731D01*
X004360Y009079D01*
X004114Y009325D01*
X004228Y009211D02*
X004652Y009211D01*
X004574Y009133D02*
X004306Y009133D01*
X004360Y009054D02*
X004520Y009054D01*
X004520Y008976D02*
X004360Y008976D01*
X004360Y008897D02*
X004520Y008897D01*
X004520Y008819D02*
X004360Y008819D01*
X004360Y008740D02*
X004520Y008740D01*
X004590Y008662D02*
X004290Y008662D01*
X004212Y008583D02*
X004668Y008583D01*
X004747Y008505D02*
X004133Y008505D01*
X003747Y008505D02*
X003309Y008505D01*
X003290Y008485D02*
X003360Y008555D01*
X003360Y009255D01*
X003290Y009325D01*
X002590Y009325D01*
X002520Y009255D01*
X002520Y008555D01*
X002590Y008485D01*
X003290Y008485D01*
X003360Y008583D02*
X003668Y008583D01*
X003590Y008662D02*
X003360Y008662D01*
X003360Y008740D02*
X003520Y008740D01*
X003520Y008819D02*
X003360Y008819D01*
X003360Y008897D02*
X003520Y008897D01*
X003520Y008976D02*
X003360Y008976D01*
X003360Y009054D02*
X003520Y009054D01*
X003574Y009133D02*
X003360Y009133D01*
X003360Y009211D02*
X003652Y009211D01*
X003731Y009290D02*
X003325Y009290D01*
X002555Y009290D02*
X002178Y009290D01*
X002122Y009345D02*
X001980Y009345D01*
X001980Y008945D01*
X002380Y008945D01*
X002380Y009087D01*
X002122Y009345D01*
X001980Y009290D02*
X001900Y009290D01*
X001900Y009345D02*
X001758Y009345D01*
X001500Y009087D01*
X001500Y008945D01*
X001900Y008945D01*
X001900Y009345D01*
X001702Y009290D02*
X001149Y009290D01*
X001228Y009211D02*
X001624Y009211D01*
X001545Y009133D02*
X001306Y009133D01*
X001360Y009054D02*
X001500Y009054D01*
X001500Y008976D02*
X001360Y008976D01*
X001360Y008897D02*
X001900Y008897D01*
X001900Y008865D02*
X001500Y008865D01*
X001500Y008723D01*
X001758Y008465D01*
X001900Y008465D01*
X001900Y008865D01*
X001980Y008865D01*
X001980Y008945D01*
X001900Y008945D01*
X001900Y008865D01*
X001900Y008819D02*
X001980Y008819D01*
X001980Y008865D02*
X001980Y008465D01*
X002122Y008465D01*
X002380Y008723D01*
X002380Y008865D01*
X001980Y008865D01*
X001980Y008897D02*
X002520Y008897D01*
X002520Y008819D02*
X002380Y008819D01*
X002380Y008740D02*
X002520Y008740D01*
X002520Y008662D02*
X002319Y008662D01*
X002240Y008583D02*
X002520Y008583D01*
X002571Y008505D02*
X002162Y008505D01*
X001980Y008505D02*
X001900Y008505D01*
X001900Y008583D02*
X001980Y008583D01*
X001980Y008662D02*
X001900Y008662D01*
X001900Y008740D02*
X001980Y008740D01*
X001980Y008976D02*
X001900Y008976D01*
X001900Y009054D02*
X001980Y009054D01*
X001980Y009133D02*
X001900Y009133D01*
X001900Y009211D02*
X001980Y009211D01*
X002256Y009211D02*
X002520Y009211D01*
X002520Y009133D02*
X002335Y009133D01*
X002380Y009054D02*
X002520Y009054D01*
X002520Y008976D02*
X002380Y008976D01*
X001640Y008583D02*
X001212Y008583D01*
X001140Y008505D02*
X001718Y008505D01*
X001561Y008662D02*
X001290Y008662D01*
X001360Y008740D02*
X001500Y008740D01*
X001500Y008819D02*
X001360Y008819D01*
X000740Y008505D02*
X000330Y008505D01*
X000330Y008583D02*
X000668Y008583D01*
X000590Y008662D02*
X000330Y008662D01*
X000330Y008740D02*
X000520Y008740D01*
X000520Y008819D02*
X000330Y008819D01*
X000330Y008897D02*
X000520Y008897D01*
X000520Y008976D02*
X000330Y008976D01*
X000348Y009054D02*
X000520Y009054D01*
X000574Y009133D02*
X000427Y009133D01*
X000505Y009211D02*
X000652Y009211D01*
X000584Y009290D02*
X000731Y009290D01*
X000662Y009368D02*
X018218Y009368D01*
X018149Y009290D02*
X018296Y009290D01*
X018228Y009211D02*
X018375Y009211D01*
X018306Y009133D02*
X018453Y009133D01*
X018532Y009054D02*
X018360Y009054D01*
X018360Y008976D02*
X018550Y008976D01*
X018550Y008897D02*
X018360Y008897D01*
X018360Y008819D02*
X018550Y008819D01*
X018550Y008740D02*
X018360Y008740D01*
X018290Y008662D02*
X018550Y008662D01*
X018550Y008583D02*
X018212Y008583D01*
X018133Y008505D02*
X018550Y008505D01*
X018550Y008426D02*
X017701Y008426D01*
X017623Y008348D02*
X018550Y008348D01*
X018550Y008269D02*
X017544Y008269D01*
X017466Y008191D02*
X018550Y008191D01*
X018550Y008112D02*
X017387Y008112D01*
X017309Y008034D02*
X018550Y008034D01*
X018550Y007955D02*
X017230Y007955D01*
X017152Y007877D02*
X018550Y007877D01*
X018550Y007798D02*
X017073Y007798D01*
X016995Y007720D02*
X018550Y007720D01*
X018550Y007641D02*
X016916Y007641D01*
X016838Y007563D02*
X018550Y007563D01*
X018550Y007484D02*
X014659Y007484D01*
X014581Y007406D02*
X018550Y007406D01*
X018550Y007327D02*
X014502Y007327D01*
X014424Y007249D02*
X017166Y007249D01*
X017103Y007170D02*
X014345Y007170D01*
X014267Y007092D02*
X017103Y007092D01*
X017714Y007249D02*
X017786Y007249D01*
X018334Y007249D02*
X018550Y007249D01*
X018550Y007170D02*
X018397Y007170D01*
X018397Y007092D02*
X018550Y007092D01*
X018550Y007013D02*
X018397Y007013D01*
X018397Y006935D02*
X018550Y006935D01*
X018550Y006856D02*
X018397Y006856D01*
X018397Y006778D02*
X018550Y006778D01*
X018550Y006699D02*
X018397Y006699D01*
X018550Y006621D02*
X016573Y006621D01*
X016646Y006542D02*
X017129Y006542D01*
X017103Y006464D02*
X016679Y006464D01*
X016475Y006699D02*
X017103Y006699D01*
X015908Y007013D02*
X014188Y007013D01*
X014110Y006935D02*
X015829Y006935D01*
X015751Y006856D02*
X014031Y006856D01*
X013953Y006778D02*
X015672Y006778D01*
X015594Y006699D02*
X013874Y006699D01*
X013796Y006621D02*
X015515Y006621D01*
X015437Y006542D02*
X013717Y006542D01*
X013639Y006464D02*
X015358Y006464D01*
X015280Y006385D02*
X013560Y006385D01*
X013482Y006307D02*
X015201Y006307D01*
X015123Y006228D02*
X013403Y006228D01*
X013325Y006150D02*
X014095Y006150D01*
X014017Y006071D02*
X013246Y006071D01*
X013168Y005993D02*
X013977Y005993D01*
X013950Y005914D02*
X013089Y005914D01*
X013011Y005836D02*
X013950Y005836D01*
X013961Y005757D02*
X012932Y005757D01*
X012854Y005679D02*
X013993Y005679D01*
X014056Y005600D02*
X013197Y005600D01*
X013247Y005208D02*
X014328Y005208D01*
X014457Y005129D02*
X013247Y005129D01*
X013247Y005051D02*
X018550Y005051D01*
X018550Y005129D02*
X014575Y005129D01*
X014703Y005208D02*
X017680Y005208D01*
X017638Y005286D02*
X014752Y005286D01*
X014771Y005365D02*
X017638Y005365D01*
X017638Y005443D02*
X014818Y005443D01*
X014897Y005522D02*
X017638Y005522D01*
X017638Y005600D02*
X014975Y005600D01*
X015054Y005679D02*
X017638Y005679D01*
X017638Y005757D02*
X015132Y005757D01*
X015211Y005836D02*
X016081Y005836D01*
X015938Y005914D02*
X015289Y005914D01*
X015368Y005993D02*
X015860Y005993D01*
X015814Y006071D02*
X015446Y006071D01*
X015525Y006150D02*
X015782Y006150D01*
X015766Y006228D02*
X015603Y006228D01*
X015682Y006307D02*
X015766Y006307D01*
X015760Y006385D02*
X015769Y006385D01*
X015044Y006150D02*
X014525Y006150D01*
X014603Y006071D02*
X014966Y006071D01*
X014887Y005993D02*
X014643Y005993D01*
X014670Y005914D02*
X014809Y005914D01*
X014730Y005836D02*
X014670Y005836D01*
X016399Y005836D02*
X017638Y005836D01*
X017638Y005914D02*
X016542Y005914D01*
X016620Y005993D02*
X017135Y005993D01*
X017103Y006071D02*
X016666Y006071D01*
X018397Y006071D02*
X018550Y006071D01*
X018550Y005993D02*
X018415Y005993D01*
X018469Y005914D02*
X018550Y005914D01*
X018550Y005836D02*
X018469Y005836D01*
X018469Y005757D02*
X018550Y005757D01*
X018550Y005679D02*
X018469Y005679D01*
X018469Y005600D02*
X018550Y005600D01*
X018550Y005522D02*
X018469Y005522D01*
X018469Y005443D02*
X018550Y005443D01*
X018550Y005365D02*
X018469Y005365D01*
X018469Y005286D02*
X018550Y005286D01*
X018550Y005208D02*
X018427Y005208D01*
X018397Y006150D02*
X018550Y006150D01*
X018550Y006228D02*
X018397Y006228D01*
X018397Y006307D02*
X018550Y006307D01*
X018550Y006385D02*
X018397Y006385D01*
X018397Y006464D02*
X018550Y006464D01*
X018550Y006542D02*
X018371Y006542D01*
X016671Y007877D02*
X016152Y007877D01*
X016230Y007955D02*
X016750Y007955D01*
X016828Y008034D02*
X016309Y008034D01*
X016387Y008112D02*
X016907Y008112D01*
X016985Y008191D02*
X016466Y008191D01*
X016544Y008269D02*
X017064Y008269D01*
X017142Y008348D02*
X016623Y008348D01*
X016701Y008426D02*
X017221Y008426D01*
X017299Y008505D02*
X017133Y008505D01*
X017212Y008583D02*
X017378Y008583D01*
X017456Y008662D02*
X017290Y008662D01*
X017360Y008740D02*
X017520Y008740D01*
X017520Y008819D02*
X017360Y008819D01*
X017360Y008897D02*
X017520Y008897D01*
X017520Y008976D02*
X017360Y008976D01*
X017360Y009054D02*
X017520Y009054D01*
X017574Y009133D02*
X017306Y009133D01*
X017228Y009211D02*
X017652Y009211D01*
X017731Y009290D02*
X017149Y009290D01*
X016731Y009290D02*
X016149Y009290D01*
X016228Y009211D02*
X016652Y009211D01*
X016574Y009133D02*
X016306Y009133D01*
X016360Y009054D02*
X016520Y009054D01*
X016520Y008976D02*
X016360Y008976D01*
X016360Y008897D02*
X016520Y008897D01*
X016520Y008819D02*
X016360Y008819D01*
X016360Y008740D02*
X016520Y008740D01*
X016456Y008662D02*
X016290Y008662D01*
X016212Y008583D02*
X016378Y008583D01*
X016299Y008505D02*
X016133Y008505D01*
X016221Y008426D02*
X015701Y008426D01*
X015623Y008348D02*
X016142Y008348D01*
X016064Y008269D02*
X015544Y008269D01*
X015466Y008191D02*
X015985Y008191D01*
X015299Y008505D02*
X015133Y008505D01*
X015212Y008583D02*
X015378Y008583D01*
X015456Y008662D02*
X015290Y008662D01*
X015360Y008740D02*
X015520Y008740D01*
X015520Y008819D02*
X015360Y008819D01*
X015360Y008897D02*
X015520Y008897D01*
X015520Y008976D02*
X015360Y008976D01*
X015360Y009054D02*
X015520Y009054D01*
X015574Y009133D02*
X015306Y009133D01*
X015228Y009211D02*
X015652Y009211D01*
X015731Y009290D02*
X015149Y009290D01*
X014731Y009290D02*
X014149Y009290D01*
X014228Y009211D02*
X014652Y009211D01*
X014574Y009133D02*
X014306Y009133D01*
X014360Y009054D02*
X014520Y009054D01*
X014520Y008976D02*
X014360Y008976D01*
X014360Y008897D02*
X014520Y008897D01*
X014520Y008819D02*
X014360Y008819D01*
X014360Y008740D02*
X014520Y008740D01*
X014456Y008662D02*
X014290Y008662D01*
X014212Y008583D02*
X014378Y008583D01*
X014299Y008505D02*
X014133Y008505D01*
X014221Y008426D02*
X013701Y008426D01*
X013623Y008348D02*
X014142Y008348D01*
X014064Y008269D02*
X013544Y008269D01*
X013466Y008191D02*
X013985Y008191D01*
X013907Y008112D02*
X013387Y008112D01*
X013309Y008034D02*
X013828Y008034D01*
X013750Y007955D02*
X013230Y007955D01*
X013593Y007798D02*
X011814Y007798D01*
X011892Y007877D02*
X013671Y007877D01*
X013514Y007720D02*
X011735Y007720D01*
X011657Y007641D02*
X013436Y007641D01*
X013357Y007563D02*
X011578Y007563D01*
X011509Y007484D02*
X013279Y007484D01*
X013200Y007406D02*
X011509Y007406D01*
X011509Y007327D02*
X013122Y007327D01*
X013043Y007249D02*
X011509Y007249D01*
X011509Y007170D02*
X012965Y007170D01*
X012886Y007092D02*
X011509Y007092D01*
X011509Y007013D02*
X012808Y007013D01*
X012729Y006935D02*
X011509Y006935D01*
X011509Y006856D02*
X012651Y006856D01*
X012572Y006778D02*
X011509Y006778D01*
X011487Y006699D02*
X012494Y006699D01*
X011502Y006621D02*
X010007Y006621D01*
X010050Y006699D02*
X010050Y006699D01*
X010050Y006778D02*
X010050Y006778D01*
X010050Y006856D02*
X010050Y006856D01*
X010050Y006935D02*
X010050Y006935D01*
X010050Y007013D02*
X010050Y007013D01*
X010050Y007092D02*
X010050Y007092D01*
X009878Y007623D02*
X009864Y007638D01*
X009607Y007638D01*
X009578Y007609D01*
X009549Y007638D01*
X009305Y007638D01*
X009305Y007662D01*
X009520Y007662D01*
X009580Y007722D01*
X009595Y007696D01*
X009621Y007670D01*
X009653Y007652D01*
X009688Y007642D01*
X009883Y007642D01*
X009883Y007939D01*
X009963Y007939D01*
X009963Y007658D01*
X009953Y007658D01*
X009917Y007649D01*
X009885Y007630D01*
X009878Y007623D01*
X009904Y007641D02*
X009305Y007641D01*
X009578Y007720D02*
X009581Y007720D01*
X009883Y007720D02*
X009963Y007720D01*
X009963Y007798D02*
X009883Y007798D01*
X009883Y007877D02*
X009963Y007877D01*
X009963Y008034D02*
X009883Y008034D01*
X009883Y008112D02*
X009963Y008112D01*
X009963Y008191D02*
X009883Y008191D01*
X009883Y008269D02*
X009963Y008269D01*
X010195Y008348D02*
X009607Y008348D01*
X009602Y008269D02*
X009547Y008269D01*
X009686Y008426D02*
X010221Y008426D01*
X010299Y008505D02*
X010133Y008505D01*
X010212Y008583D02*
X010378Y008583D01*
X010456Y008662D02*
X010290Y008662D01*
X010360Y008740D02*
X010520Y008740D01*
X010520Y008819D02*
X010360Y008819D01*
X010360Y008897D02*
X010520Y008897D01*
X010520Y008976D02*
X010360Y008976D01*
X010360Y009054D02*
X010520Y009054D01*
X010574Y009133D02*
X010306Y009133D01*
X010228Y009211D02*
X010652Y009211D01*
X010731Y009290D02*
X010149Y009290D01*
X009731Y009290D02*
X009149Y009290D01*
X009228Y009211D02*
X009652Y009211D01*
X009574Y009133D02*
X009306Y009133D01*
X009360Y009054D02*
X009520Y009054D01*
X009520Y008976D02*
X009360Y008976D01*
X009360Y008897D02*
X009520Y008897D01*
X009520Y008819D02*
X009360Y008819D01*
X009360Y008740D02*
X009519Y008740D01*
X009440Y008662D02*
X009290Y008662D01*
X009362Y008583D02*
X009212Y008583D01*
X008520Y008740D02*
X008360Y008740D01*
X008360Y008819D02*
X008520Y008819D01*
X008520Y008897D02*
X008360Y008897D01*
X008360Y008976D02*
X008520Y008976D01*
X008520Y009054D02*
X008360Y009054D01*
X008306Y009133D02*
X008574Y009133D01*
X008652Y009211D02*
X008228Y009211D01*
X008149Y009290D02*
X008731Y009290D01*
X008456Y008662D02*
X008330Y008662D01*
X008330Y008583D02*
X008378Y008583D01*
X007590Y008662D02*
X007424Y008662D01*
X007360Y008740D02*
X007520Y008740D01*
X007520Y008819D02*
X007360Y008819D01*
X007360Y008897D02*
X007520Y008897D01*
X007520Y008976D02*
X007360Y008976D01*
X007360Y009054D02*
X007520Y009054D01*
X007574Y009133D02*
X007306Y009133D01*
X007228Y009211D02*
X007652Y009211D01*
X007731Y009290D02*
X007149Y009290D01*
X006731Y009290D02*
X006149Y009290D01*
X006228Y009211D02*
X006652Y009211D01*
X006574Y009133D02*
X006306Y009133D01*
X006360Y009054D02*
X006520Y009054D01*
X006520Y008976D02*
X006360Y008976D01*
X006360Y008897D02*
X006520Y008897D01*
X006520Y008819D02*
X006360Y008819D01*
X006360Y008740D02*
X006520Y008740D01*
X006590Y008662D02*
X006290Y008662D01*
X006212Y008583D02*
X006668Y008583D01*
X006747Y008505D02*
X006154Y008505D01*
X005909Y008269D02*
X005446Y008269D01*
X005446Y008191D02*
X005987Y008191D01*
X006033Y008112D02*
X005446Y008112D01*
X005446Y008034D02*
X006033Y008034D01*
X006033Y007955D02*
X005586Y007955D01*
X005879Y007877D02*
X006033Y007877D01*
X006033Y007798D02*
X005951Y007798D01*
X005984Y007720D02*
X006033Y007720D01*
X006033Y007641D02*
X005986Y007641D01*
X005965Y007563D02*
X006033Y007563D01*
X006033Y007484D02*
X005911Y007484D01*
X006033Y007406D02*
X005583Y007406D01*
X005593Y007327D02*
X006033Y007327D01*
X006033Y007249D02*
X005593Y007249D01*
X004300Y007406D02*
X002540Y007406D01*
X002461Y007484D02*
X004290Y007484D01*
X004290Y007563D02*
X002383Y007563D01*
X002298Y007641D02*
X004290Y007641D01*
X004286Y007720D02*
X002219Y007720D01*
X002141Y007798D02*
X004208Y007798D01*
X004129Y007877D02*
X000330Y007877D01*
X000330Y007955D02*
X001107Y007955D01*
X001029Y008034D02*
X000330Y008034D01*
X000330Y008112D02*
X000950Y008112D01*
X000872Y008191D02*
X000330Y008191D01*
X000330Y008269D02*
X000793Y008269D01*
X000740Y008348D02*
X000330Y008348D01*
X000330Y008426D02*
X000740Y008426D01*
X000330Y007798D02*
X001739Y007798D01*
X001661Y007720D02*
X000330Y007720D01*
X000330Y007641D02*
X001582Y007641D01*
X001520Y007563D02*
X000330Y007563D01*
X000330Y007484D02*
X001520Y007484D01*
X001520Y007406D02*
X000330Y007406D01*
X000330Y007327D02*
X001520Y007327D01*
X001520Y007249D02*
X000330Y007249D01*
X000330Y007170D02*
X001581Y007170D01*
X001660Y007092D02*
X000330Y007092D01*
X000330Y007013D02*
X001738Y007013D01*
X001719Y006778D02*
X001161Y006778D01*
X001240Y006699D02*
X001640Y006699D01*
X001562Y006621D02*
X001318Y006621D01*
X000719Y006778D02*
X000330Y006778D01*
X000330Y006856D02*
X002469Y006856D01*
X002469Y006778D02*
X002161Y006778D01*
X002240Y006699D02*
X002469Y006699D01*
X002507Y006621D02*
X002318Y006621D01*
X002543Y006542D02*
X002980Y006542D01*
X002980Y006464D02*
X002622Y006464D01*
X002377Y006228D02*
X002357Y006228D01*
X002278Y006150D02*
X002455Y006150D01*
X002489Y006071D02*
X002200Y006071D01*
X002121Y005993D02*
X002489Y005993D01*
X002489Y005914D02*
X000330Y005914D01*
X000330Y005836D02*
X002492Y005836D01*
X002517Y005600D02*
X002339Y005600D01*
X002260Y005679D02*
X002980Y005679D01*
X002980Y005757D02*
X002182Y005757D01*
X001698Y005757D02*
X001182Y005757D01*
X001260Y005679D02*
X001620Y005679D01*
X001541Y005600D02*
X001339Y005600D01*
X001336Y005208D02*
X001544Y005208D01*
X001622Y005129D02*
X001258Y005129D01*
X001179Y005051D02*
X001701Y005051D01*
X001766Y004825D02*
X001520Y004579D01*
X001520Y004231D01*
X001766Y003985D01*
X002114Y003985D01*
X002360Y004231D01*
X002360Y004579D01*
X002114Y004825D01*
X001766Y004825D01*
X001756Y004815D02*
X001124Y004815D01*
X001202Y004737D02*
X001678Y004737D01*
X001599Y004658D02*
X001281Y004658D01*
X001359Y004580D02*
X001521Y004580D01*
X001520Y004501D02*
X001360Y004501D01*
X001360Y004423D02*
X001520Y004423D01*
X001520Y004344D02*
X001360Y004344D01*
X001360Y004266D02*
X001520Y004266D01*
X001564Y004187D02*
X001398Y004187D01*
X001477Y004109D02*
X001643Y004109D01*
X001721Y004030D02*
X001555Y004030D01*
X001610Y003952D02*
X002433Y003952D01*
X002455Y004030D02*
X002159Y004030D01*
X002237Y004109D02*
X003305Y004109D01*
X003645Y004109D02*
X004132Y004109D01*
X004132Y004100D02*
X004371Y004100D01*
X004371Y004062D01*
X004409Y004062D01*
X004409Y003508D01*
X004527Y003508D01*
X004562Y003518D01*
X004594Y003536D01*
X004620Y003562D01*
X004639Y003594D01*
X004640Y003600D01*
X004641Y003594D01*
X004660Y003562D01*
X004686Y003536D01*
X004718Y003518D01*
X004753Y003508D01*
X004871Y003508D01*
X004871Y004062D01*
X004909Y004062D01*
X004909Y003508D01*
X005027Y003508D01*
X005062Y003518D01*
X005094Y003536D01*
X005120Y003562D01*
X005139Y003594D01*
X005140Y003600D01*
X005141Y003594D01*
X005160Y003562D01*
X005186Y003536D01*
X005218Y003518D01*
X005253Y003508D01*
X005371Y003508D01*
X005371Y004062D01*
X005409Y004062D01*
X005409Y003508D01*
X005527Y003508D01*
X005562Y003518D01*
X005594Y003536D01*
X005620Y003562D01*
X005639Y003594D01*
X005640Y003600D01*
X005641Y003594D01*
X005660Y003562D01*
X005686Y003536D01*
X005718Y003518D01*
X005753Y003508D01*
X005871Y003508D01*
X005871Y004062D01*
X005909Y004062D01*
X005909Y003508D01*
X006027Y003508D01*
X006062Y003518D01*
X006094Y003536D01*
X006120Y003562D01*
X006139Y003594D01*
X006148Y003630D01*
X006148Y003714D01*
X006300Y003714D01*
X006300Y004030D01*
X006380Y004030D01*
X006380Y004110D01*
X006677Y004110D01*
X006677Y004305D01*
X006667Y004341D01*
X006649Y004373D01*
X006641Y004381D01*
X006654Y004385D01*
X006980Y004385D01*
X006770Y004175D01*
X006770Y004075D01*
X006677Y003982D01*
X006677Y004030D01*
X006725Y004030D01*
X006677Y004030D02*
X006380Y004030D01*
X006380Y003952D02*
X006300Y003952D01*
X006300Y004030D02*
X006148Y004030D01*
X006148Y004062D01*
X005909Y004062D01*
X005909Y004100D01*
X005871Y004100D01*
X005871Y004062D01*
X005632Y004062D01*
X005409Y004062D01*
X005409Y004100D01*
X005871Y004100D01*
X005871Y004654D01*
X005753Y004654D01*
X005718Y004645D01*
X005686Y004626D01*
X005660Y004600D01*
X005641Y004568D01*
X005640Y004563D01*
X005639Y004568D01*
X005620Y004600D01*
X005594Y004626D01*
X005562Y004645D01*
X005527Y004654D01*
X005409Y004654D01*
X005409Y004100D01*
X005371Y004100D01*
X005371Y004062D01*
X005132Y004062D01*
X004909Y004062D01*
X004909Y004100D01*
X005371Y004100D01*
X005371Y004654D01*
X005253Y004654D01*
X005218Y004645D01*
X005186Y004626D01*
X005160Y004600D01*
X005141Y004568D01*
X005140Y004563D01*
X005139Y004568D01*
X005120Y004600D01*
X005094Y004626D01*
X005062Y004645D01*
X005027Y004654D01*
X004909Y004654D01*
X004909Y004100D01*
X004871Y004100D01*
X004871Y004062D01*
X004409Y004062D01*
X004409Y004100D01*
X004648Y004100D01*
X004871Y004100D01*
X004871Y004654D01*
X004753Y004654D01*
X004718Y004645D01*
X004686Y004626D01*
X004660Y004600D01*
X004641Y004568D01*
X004640Y004563D01*
X004639Y004568D01*
X004620Y004600D01*
X004594Y004626D01*
X004562Y004645D01*
X004527Y004654D01*
X004409Y004654D01*
X004409Y004100D01*
X004371Y004100D01*
X004371Y004654D01*
X004253Y004654D01*
X004218Y004645D01*
X004186Y004626D01*
X004160Y004600D01*
X004141Y004568D01*
X004132Y004533D01*
X004132Y004100D01*
X004132Y004062D02*
X004132Y003630D01*
X004141Y003594D01*
X004160Y003562D01*
X004186Y003536D01*
X004218Y003518D01*
X004253Y003508D01*
X004371Y003508D01*
X004371Y004062D01*
X004132Y004062D01*
X004132Y004030D02*
X003828Y004030D01*
X003853Y003952D02*
X004132Y003952D01*
X004132Y003873D02*
X003853Y003873D01*
X003853Y003795D02*
X004132Y003795D01*
X004132Y003716D02*
X003853Y003716D01*
X003853Y003638D02*
X004132Y003638D01*
X004163Y003559D02*
X003853Y003559D01*
X003853Y003481D02*
X006175Y003481D01*
X006117Y003559D02*
X006254Y003559D01*
X006332Y003638D02*
X006148Y003638D01*
X006300Y003716D02*
X006380Y003716D01*
X006380Y003795D02*
X006300Y003795D01*
X006300Y003873D02*
X006380Y003873D01*
X006380Y004109D02*
X006770Y004109D01*
X006782Y004187D02*
X006677Y004187D01*
X006677Y004266D02*
X006860Y004266D01*
X006939Y004344D02*
X006666Y004344D01*
X006300Y004109D02*
X006148Y004109D01*
X005909Y004109D02*
X005871Y004109D01*
X005871Y004187D02*
X005909Y004187D01*
X005909Y004266D02*
X005871Y004266D01*
X005871Y004344D02*
X005909Y004344D01*
X005909Y004423D02*
X005871Y004423D01*
X005871Y004501D02*
X005909Y004501D01*
X005909Y004580D02*
X005871Y004580D01*
X006023Y004658D02*
X003791Y004658D01*
X003791Y004580D02*
X004148Y004580D01*
X004132Y004501D02*
X003791Y004501D01*
X003791Y004423D02*
X004132Y004423D01*
X004132Y004344D02*
X003791Y004344D01*
X003791Y004266D02*
X004132Y004266D01*
X004132Y004187D02*
X003740Y004187D01*
X004371Y004187D02*
X004409Y004187D01*
X004409Y004109D02*
X004371Y004109D01*
X004371Y004030D02*
X004409Y004030D01*
X004409Y003952D02*
X004371Y003952D01*
X004371Y003873D02*
X004409Y003873D01*
X004409Y003795D02*
X004371Y003795D01*
X004371Y003716D02*
X004409Y003716D01*
X004409Y003638D02*
X004371Y003638D01*
X004371Y003559D02*
X004409Y003559D01*
X004617Y003559D02*
X004663Y003559D01*
X004871Y003559D02*
X004909Y003559D01*
X004909Y003638D02*
X004871Y003638D01*
X004871Y003716D02*
X004909Y003716D01*
X004909Y003795D02*
X004871Y003795D01*
X004871Y003873D02*
X004909Y003873D01*
X004909Y003952D02*
X004871Y003952D01*
X004871Y004030D02*
X004909Y004030D01*
X004909Y004109D02*
X004871Y004109D01*
X004871Y004187D02*
X004909Y004187D01*
X004909Y004266D02*
X004871Y004266D01*
X004871Y004344D02*
X004909Y004344D01*
X004909Y004423D02*
X004871Y004423D01*
X004871Y004501D02*
X004909Y004501D01*
X004909Y004580D02*
X004871Y004580D01*
X004648Y004580D02*
X004632Y004580D01*
X004409Y004580D02*
X004371Y004580D01*
X004371Y004501D02*
X004409Y004501D01*
X004409Y004423D02*
X004371Y004423D01*
X004371Y004344D02*
X004409Y004344D01*
X004409Y004266D02*
X004371Y004266D01*
X005132Y004580D02*
X005148Y004580D01*
X005371Y004580D02*
X005409Y004580D01*
X005409Y004501D02*
X005371Y004501D01*
X005371Y004423D02*
X005409Y004423D01*
X005409Y004344D02*
X005371Y004344D01*
X005371Y004266D02*
X005409Y004266D01*
X005409Y004187D02*
X005371Y004187D01*
X005371Y004109D02*
X005409Y004109D01*
X005409Y004030D02*
X005371Y004030D01*
X005371Y003952D02*
X005409Y003952D01*
X005409Y003873D02*
X005371Y003873D01*
X005371Y003795D02*
X005409Y003795D01*
X005409Y003716D02*
X005371Y003716D01*
X005371Y003638D02*
X005409Y003638D01*
X005409Y003559D02*
X005371Y003559D01*
X005163Y003559D02*
X005117Y003559D01*
X005617Y003559D02*
X005663Y003559D01*
X005871Y003559D02*
X005909Y003559D01*
X005909Y003638D02*
X005871Y003638D01*
X005871Y003716D02*
X005909Y003716D01*
X005909Y003795D02*
X005871Y003795D01*
X005871Y003873D02*
X005909Y003873D01*
X005909Y003952D02*
X005871Y003952D01*
X005871Y004030D02*
X005909Y004030D01*
X005648Y004580D02*
X005632Y004580D01*
X006023Y004737D02*
X003791Y004737D01*
X003748Y004815D02*
X005982Y004815D01*
X004569Y004894D02*
X003320Y004894D01*
X002980Y004894D02*
X000330Y004894D01*
X000330Y004972D02*
X002555Y004972D01*
X002489Y005051D02*
X002179Y005051D01*
X002258Y005129D02*
X002489Y005129D01*
X002489Y005208D02*
X002336Y005208D01*
X002554Y004852D02*
X002523Y004834D01*
X002496Y004807D01*
X002478Y004776D01*
X002469Y004740D01*
X002469Y004545D01*
X002765Y004545D01*
X002765Y004862D01*
X002590Y004862D01*
X002554Y004852D01*
X002504Y004815D02*
X002124Y004815D01*
X002202Y004737D02*
X002469Y004737D01*
X002469Y004658D02*
X002281Y004658D01*
X002359Y004580D02*
X002469Y004580D01*
X002360Y004501D02*
X002765Y004501D01*
X002765Y004580D02*
X002845Y004580D01*
X002845Y004658D02*
X002765Y004658D01*
X002765Y004737D02*
X002845Y004737D01*
X002845Y004815D02*
X002765Y004815D01*
X002469Y004423D02*
X002360Y004423D01*
X002360Y004344D02*
X002469Y004344D01*
X002470Y004266D02*
X002360Y004266D01*
X002316Y004187D02*
X002512Y004187D01*
X001153Y003952D02*
X000330Y003952D01*
X000330Y004030D02*
X000721Y004030D01*
X000643Y004109D02*
X000330Y004109D01*
X000330Y004187D02*
X000564Y004187D01*
X000520Y004266D02*
X000330Y004266D01*
X000330Y004344D02*
X000520Y004344D01*
X000520Y004423D02*
X000330Y004423D01*
X000330Y004501D02*
X000520Y004501D01*
X000521Y004580D02*
X000330Y004580D01*
X000330Y004658D02*
X000599Y004658D01*
X000678Y004737D02*
X000330Y004737D01*
X000330Y004815D02*
X000756Y004815D01*
X000701Y005051D02*
X000330Y005051D01*
X000330Y005129D02*
X000622Y005129D01*
X000544Y005208D02*
X000330Y005208D01*
X000330Y005286D02*
X000520Y005286D01*
X000520Y005365D02*
X000330Y005365D01*
X000330Y005443D02*
X000520Y005443D01*
X000520Y005522D02*
X000330Y005522D01*
X000330Y005600D02*
X000541Y005600D01*
X000620Y005679D02*
X000330Y005679D01*
X000330Y005757D02*
X000698Y005757D01*
X000759Y005993D02*
X000330Y005993D01*
X000330Y006071D02*
X000680Y006071D01*
X000602Y006150D02*
X000330Y006150D01*
X000330Y006228D02*
X000523Y006228D01*
X000520Y006307D02*
X000330Y006307D01*
X000330Y006385D02*
X000520Y006385D01*
X000520Y006464D02*
X000330Y006464D01*
X000330Y006542D02*
X000520Y006542D01*
X000562Y006621D02*
X000330Y006621D01*
X000330Y006699D02*
X000640Y006699D01*
X000330Y006935D02*
X002469Y006935D01*
X002452Y007013D02*
X002142Y007013D01*
X002220Y007092D02*
X002373Y007092D01*
X002618Y007327D02*
X004290Y007327D01*
X004290Y007249D02*
X002697Y007249D01*
X003123Y007170D02*
X003157Y007170D01*
X003793Y007170D02*
X004290Y007170D01*
X004290Y007092D02*
X003811Y007092D01*
X003811Y007013D02*
X004263Y007013D01*
X004190Y006935D02*
X003811Y006935D01*
X003811Y006856D02*
X004190Y006856D01*
X004190Y006778D02*
X003811Y006778D01*
X003811Y006699D02*
X004190Y006699D01*
X004161Y006621D02*
X003773Y006621D01*
X003411Y006542D02*
X004152Y006542D01*
X004152Y006464D02*
X003351Y006464D01*
X003778Y006385D02*
X004152Y006385D01*
X004152Y006307D02*
X003791Y006307D01*
X003791Y006228D02*
X004152Y006228D01*
X004152Y006150D02*
X003791Y006150D01*
X003791Y006071D02*
X004152Y006071D01*
X004152Y005993D02*
X003791Y005993D01*
X003791Y005914D02*
X004152Y005914D01*
X004152Y005836D02*
X003788Y005836D01*
X004152Y005757D02*
X003320Y005757D01*
X003320Y005679D02*
X004152Y005679D01*
X004186Y005600D02*
X003763Y005600D01*
X003791Y005522D02*
X004185Y005522D01*
X004184Y005443D02*
X003791Y005443D01*
X003791Y005365D02*
X004184Y005365D01*
X004183Y005286D02*
X003791Y005286D01*
X003791Y005208D02*
X004254Y005208D01*
X004333Y005129D02*
X003791Y005129D01*
X003791Y005051D02*
X004412Y005051D01*
X004490Y004972D02*
X003725Y004972D01*
X003475Y005305D02*
X003575Y005400D01*
X003507Y005366D01*
X001759Y005993D02*
X001121Y005993D01*
X001200Y006071D02*
X001680Y006071D01*
X001602Y006150D02*
X001278Y006150D01*
X001357Y006228D02*
X001523Y006228D01*
X005446Y008348D02*
X005830Y008348D01*
X009198Y006150D02*
X009413Y006150D01*
X009491Y006071D02*
X009277Y006071D01*
X009355Y005993D02*
X009570Y005993D01*
X009648Y005914D02*
X009434Y005914D01*
X009512Y005836D02*
X009727Y005836D01*
X009805Y005757D02*
X009591Y005757D01*
X009669Y005679D02*
X010632Y005679D01*
X010871Y005679D02*
X011505Y005679D01*
X011485Y005757D02*
X010964Y005757D01*
X010999Y005836D02*
X011485Y005836D01*
X011485Y005914D02*
X011007Y005914D01*
X010992Y005993D02*
X011504Y005993D01*
X011485Y006071D02*
X011017Y006071D01*
X011121Y006150D02*
X011485Y006150D01*
X011485Y006228D02*
X011160Y006228D01*
X011171Y006307D02*
X011503Y006307D01*
X011485Y006385D02*
X011158Y006385D01*
X011118Y006464D02*
X011485Y006464D01*
X011485Y006542D02*
X011010Y006542D01*
X010821Y006542D02*
X010086Y006542D01*
X009748Y005600D02*
X011485Y005600D01*
X011485Y005522D02*
X009826Y005522D01*
X009905Y005443D02*
X011485Y005443D01*
X011007Y005365D02*
X010463Y005365D01*
X010543Y005286D02*
X010928Y005286D01*
X010850Y005208D02*
X010624Y005208D01*
X010704Y005129D02*
X010771Y005129D01*
X011180Y004972D02*
X011465Y004972D01*
X011465Y004894D02*
X011101Y004894D01*
X011023Y004815D02*
X011465Y004815D01*
X011492Y004737D02*
X010944Y004737D01*
X010940Y004658D02*
X011485Y004658D01*
X011485Y004580D02*
X010940Y004580D01*
X010940Y004501D02*
X011485Y004501D01*
X011509Y004423D02*
X010940Y004423D01*
X010940Y004344D02*
X011485Y004344D01*
X011485Y004266D02*
X010940Y004266D01*
X010940Y004187D02*
X011485Y004187D01*
X011510Y004109D02*
X010940Y004109D01*
X010940Y004030D02*
X011485Y004030D01*
X011485Y003952D02*
X010940Y003952D01*
X010940Y003873D02*
X011485Y003873D01*
X011511Y003795D02*
X010940Y003795D01*
X010940Y003716D02*
X011485Y003716D01*
X011485Y003638D02*
X010940Y003638D01*
X010940Y003559D02*
X011485Y003559D01*
X011512Y003481D02*
X010940Y003481D01*
X010920Y003402D02*
X011485Y003402D01*
X011485Y003324D02*
X010841Y003324D01*
X010763Y003245D02*
X011485Y003245D01*
X011515Y003167D02*
X010684Y003167D01*
X012547Y002539D02*
X013266Y002539D01*
X013345Y002460D02*
X012625Y002460D01*
X012704Y002382D02*
X013423Y002382D01*
X013502Y002303D02*
X012782Y002303D01*
X012861Y002225D02*
X013580Y002225D01*
X013659Y002146D02*
X012939Y002146D01*
X013018Y002068D02*
X013737Y002068D01*
X013816Y001989D02*
X013096Y001989D01*
X013175Y001911D02*
X013894Y001911D01*
X013973Y001832D02*
X013253Y001832D01*
X013332Y001754D02*
X014051Y001754D01*
X014130Y001675D02*
X013410Y001675D01*
X013489Y001597D02*
X014208Y001597D01*
X014287Y001518D02*
X013567Y001518D01*
X013646Y001440D02*
X014365Y001440D01*
X014444Y001361D02*
X013724Y001361D01*
X013479Y001126D02*
X013313Y001126D01*
X013360Y001047D02*
X013520Y001047D01*
X013520Y000969D02*
X013360Y000969D01*
X013360Y000890D02*
X013520Y000890D01*
X013520Y000812D02*
X013360Y000812D01*
X013360Y000733D02*
X013520Y000733D01*
X013597Y000655D02*
X013283Y000655D01*
X013205Y000576D02*
X013675Y000576D01*
X013754Y000498D02*
X013126Y000498D01*
X014126Y000498D02*
X014754Y000498D01*
X014675Y000576D02*
X014205Y000576D01*
X014283Y000655D02*
X014597Y000655D01*
X014520Y000733D02*
X014360Y000733D01*
X014360Y000812D02*
X014520Y000812D01*
X014520Y000890D02*
X014360Y000890D01*
X014360Y000969D02*
X014520Y000969D01*
X014520Y001047D02*
X014360Y001047D01*
X014313Y001126D02*
X014567Y001126D01*
X014601Y001204D02*
X014235Y001204D01*
X014156Y001283D02*
X014522Y001283D01*
X014767Y001518D02*
X015087Y001518D01*
X015165Y001440D02*
X014846Y001440D01*
X014924Y001361D02*
X015244Y001361D01*
X015322Y001283D02*
X015156Y001283D01*
X015235Y001204D02*
X015401Y001204D01*
X015479Y001126D02*
X015313Y001126D01*
X015360Y001047D02*
X015520Y001047D01*
X015520Y000969D02*
X015360Y000969D01*
X015360Y000890D02*
X015520Y000890D01*
X015520Y000812D02*
X015360Y000812D01*
X015360Y000733D02*
X015520Y000733D01*
X015597Y000655D02*
X015283Y000655D01*
X015205Y000576D02*
X015675Y000576D01*
X015754Y000498D02*
X015126Y000498D01*
X016126Y000498D02*
X016754Y000498D01*
X016675Y000576D02*
X016205Y000576D01*
X016283Y000655D02*
X016597Y000655D01*
X016520Y000733D02*
X016360Y000733D01*
X016360Y000812D02*
X016520Y000812D01*
X016520Y000890D02*
X016360Y000890D01*
X016360Y000969D02*
X016520Y000969D01*
X016520Y001047D02*
X016360Y001047D01*
X016313Y001126D02*
X016479Y001126D01*
X016401Y001204D02*
X016235Y001204D01*
X016156Y001283D02*
X016322Y001283D01*
X016244Y001361D02*
X015724Y001361D01*
X015646Y001440D02*
X016165Y001440D01*
X016087Y001518D02*
X015567Y001518D01*
X015489Y001597D02*
X016008Y001597D01*
X015930Y001675D02*
X015410Y001675D01*
X015332Y001754D02*
X015851Y001754D01*
X015773Y001832D02*
X015253Y001832D01*
X015175Y001911D02*
X015694Y001911D01*
X015616Y001989D02*
X015096Y001989D01*
X015018Y002068D02*
X015537Y002068D01*
X015459Y002146D02*
X014939Y002146D01*
X014861Y002225D02*
X015380Y002225D01*
X015302Y002303D02*
X014782Y002303D01*
X014537Y002068D02*
X014218Y002068D01*
X014296Y001989D02*
X014616Y001989D01*
X014694Y001911D02*
X014375Y001911D01*
X014453Y001832D02*
X014773Y001832D01*
X014851Y001754D02*
X014532Y001754D01*
X014610Y001675D02*
X014930Y001675D01*
X015008Y001597D02*
X014689Y001597D01*
X015782Y002303D02*
X016302Y002303D01*
X016380Y002225D02*
X015861Y002225D01*
X015939Y002146D02*
X016459Y002146D01*
X016537Y002068D02*
X016018Y002068D01*
X016096Y001989D02*
X016616Y001989D01*
X016694Y001911D02*
X016175Y001911D01*
X016253Y001832D02*
X016773Y001832D01*
X016851Y001754D02*
X016332Y001754D01*
X016410Y001675D02*
X016930Y001675D01*
X017008Y001597D02*
X016489Y001597D01*
X016567Y001518D02*
X017087Y001518D01*
X017165Y001440D02*
X016646Y001440D01*
X016724Y001361D02*
X017244Y001361D01*
X017322Y001283D02*
X017156Y001283D01*
X017235Y001204D02*
X017401Y001204D01*
X017479Y001126D02*
X017313Y001126D01*
X017360Y001047D02*
X017520Y001047D01*
X017520Y000969D02*
X017360Y000969D01*
X017360Y000890D02*
X017520Y000890D01*
X017520Y000812D02*
X017360Y000812D01*
X017360Y000733D02*
X017520Y000733D01*
X017597Y000655D02*
X017283Y000655D01*
X017205Y000576D02*
X017675Y000576D01*
X017754Y000498D02*
X017126Y000498D01*
X016223Y002382D02*
X015704Y002382D01*
X015625Y002460D02*
X016145Y002460D01*
X016066Y002539D02*
X015547Y002539D01*
X016200Y003088D02*
X016280Y003088D01*
X016280Y003167D02*
X016200Y003167D01*
X016200Y003245D02*
X016280Y003245D01*
X016280Y003324D02*
X016200Y003324D01*
X016200Y003402D02*
X016280Y003402D01*
X012971Y004266D02*
X012920Y004266D01*
X012891Y004344D02*
X012971Y004344D01*
X012971Y004423D02*
X012891Y004423D01*
X011459Y002146D02*
X011165Y002146D01*
X011165Y002068D02*
X011537Y002068D01*
X011616Y001989D02*
X011165Y001989D01*
X011175Y001911D02*
X011694Y001911D01*
X011773Y001832D02*
X011253Y001832D01*
X011332Y001754D02*
X011851Y001754D01*
X011930Y001675D02*
X011410Y001675D01*
X011489Y001597D02*
X012008Y001597D01*
X012087Y001518D02*
X011567Y001518D01*
X011646Y001440D02*
X012165Y001440D01*
X012244Y001361D02*
X011724Y001361D01*
X012156Y001283D02*
X012322Y001283D01*
X012401Y001204D02*
X012235Y001204D01*
X013156Y001283D02*
X013322Y001283D01*
X013401Y001204D02*
X013235Y001204D01*
X009857Y001597D02*
X009820Y001597D01*
X009530Y001597D02*
X009450Y001597D01*
X009450Y001675D02*
X009530Y001675D01*
X009530Y001754D02*
X009450Y001754D01*
X009450Y001832D02*
X009530Y001832D01*
X008305Y001832D02*
X008107Y001832D01*
X008029Y001754D02*
X008305Y001754D01*
X008305Y001675D02*
X007950Y001675D01*
X007872Y001597D02*
X008305Y001597D01*
X008305Y001911D02*
X008186Y001911D01*
X008264Y001989D02*
X008305Y001989D01*
X005770Y001989D02*
X005764Y001989D01*
X005770Y001911D02*
X005686Y001911D01*
X005607Y001832D02*
X005770Y001832D01*
X005770Y001754D02*
X005529Y001754D01*
X005450Y001675D02*
X005770Y001675D01*
X005770Y001597D02*
X005372Y001597D01*
X005293Y001518D02*
X005770Y001518D01*
X005770Y001440D02*
X005215Y001440D01*
X005136Y001361D02*
X005770Y001361D01*
X005724Y001283D02*
X005156Y001283D01*
X005235Y001204D02*
X005645Y001204D01*
X005567Y001126D02*
X005313Y001126D01*
X005360Y001047D02*
X005520Y001047D01*
X005520Y000969D02*
X005360Y000969D01*
X005360Y000890D02*
X005520Y000890D01*
X005520Y000812D02*
X005360Y000812D01*
X005360Y000733D02*
X005520Y000733D01*
X005597Y000655D02*
X005283Y000655D01*
X005205Y000576D02*
X005675Y000576D01*
X005754Y000498D02*
X005126Y000498D01*
X004724Y001283D02*
X004558Y001283D01*
X004636Y001361D02*
X004770Y001361D01*
X006018Y003324D02*
X003023Y003324D01*
X003850Y003402D02*
X006097Y003402D01*
X006128Y006071D02*
X006611Y006071D01*
X010535Y007798D02*
X010593Y007798D01*
X010535Y007877D02*
X010671Y007877D01*
X010750Y007955D02*
X010535Y007955D01*
X010535Y008034D02*
X010828Y008034D01*
X010907Y008112D02*
X010535Y008112D01*
X010535Y008191D02*
X010985Y008191D01*
X011064Y008269D02*
X010544Y008269D01*
X010623Y008348D02*
X011142Y008348D01*
X011221Y008426D02*
X010701Y008426D01*
X011133Y008505D02*
X011299Y008505D01*
X011378Y008583D02*
X011212Y008583D01*
X011290Y008662D02*
X011456Y008662D01*
X011520Y008740D02*
X011360Y008740D01*
X011360Y008819D02*
X011520Y008819D01*
X011520Y008897D02*
X011360Y008897D01*
X011360Y008976D02*
X011520Y008976D01*
X011520Y009054D02*
X011360Y009054D01*
X011306Y009133D02*
X011574Y009133D01*
X011652Y009211D02*
X011228Y009211D01*
X011149Y009290D02*
X011731Y009290D01*
X012149Y009290D02*
X012731Y009290D01*
X012652Y009211D02*
X012228Y009211D01*
X012306Y009133D02*
X012574Y009133D01*
X012520Y009054D02*
X012360Y009054D01*
X012360Y008976D02*
X012520Y008976D01*
X012520Y008897D02*
X012360Y008897D01*
X012360Y008819D02*
X012520Y008819D01*
X012520Y008740D02*
X012360Y008740D01*
X012290Y008662D02*
X012456Y008662D01*
X012378Y008583D02*
X012212Y008583D01*
X012623Y008348D02*
X013142Y008348D01*
X013221Y008426D02*
X012701Y008426D01*
X012544Y008269D02*
X013064Y008269D01*
X013133Y008505D02*
X013299Y008505D01*
X013378Y008583D02*
X013212Y008583D01*
X013290Y008662D02*
X013456Y008662D01*
X013520Y008740D02*
X013360Y008740D01*
X013360Y008819D02*
X013520Y008819D01*
X013520Y008897D02*
X013360Y008897D01*
X013360Y008976D02*
X013520Y008976D01*
X013520Y009054D02*
X013360Y009054D01*
X013306Y009133D02*
X013574Y009133D01*
X013652Y009211D02*
X013228Y009211D01*
X013149Y009290D02*
X013731Y009290D01*
X018139Y009447D02*
X000741Y009447D01*
X000900Y003795D02*
X000980Y003795D01*
X000980Y003716D02*
X000900Y003716D01*
X000900Y003638D02*
X000980Y003638D01*
X000980Y003559D02*
X000900Y003559D01*
X000900Y003481D02*
X000980Y003481D01*
X000500Y003245D02*
X000330Y003245D01*
X000330Y003167D02*
X000500Y003167D01*
X000500Y003088D02*
X000330Y003088D01*
X000330Y003010D02*
X000538Y003010D01*
M02*
