G75*
G70*
%OFA0B0*%
%FSLAX24Y24*%
%IPPOS*%
%LPD*%
%AMOC8*
5,1,8,0,0,1.08239X$1,22.5*
%
%ADD10C,0.0080*%
%ADD11C,0.0110*%
%ADD12R,0.0128X0.0167*%
%ADD13R,0.0138X0.0138*%
%ADD14C,0.0160*%
D10*
X000150Y000140D02*
X000150Y009740D01*
X018750Y009740D01*
X018750Y000140D01*
X000150Y000140D01*
X000700Y000440D02*
X001200Y000440D01*
X001450Y000690D01*
X001700Y000440D01*
X002200Y000440D01*
X002450Y000690D01*
X002450Y001190D01*
X002200Y001440D01*
X001700Y001440D01*
X001450Y001190D01*
X001450Y000690D01*
X000700Y000440D02*
X000450Y000690D01*
X000450Y001190D01*
X000700Y001440D01*
X001200Y001440D01*
X001450Y001190D01*
X001590Y001580D02*
X001590Y001820D01*
X001710Y001820D01*
X001750Y001780D01*
X001750Y001700D01*
X001710Y001660D01*
X001590Y001660D01*
X001670Y001660D02*
X001750Y001580D01*
X001885Y001620D02*
X001925Y001580D01*
X002005Y001580D01*
X002045Y001620D01*
X002045Y001660D01*
X002005Y001700D01*
X001925Y001700D01*
X001885Y001740D01*
X001885Y001780D01*
X001925Y001820D01*
X002005Y001820D01*
X002045Y001780D01*
X002179Y001820D02*
X002339Y001820D01*
X002259Y001820D02*
X002259Y001580D01*
X002690Y001580D02*
X002690Y001820D01*
X002810Y001820D01*
X002850Y001780D01*
X002850Y001700D01*
X002810Y001660D01*
X002690Y001660D01*
X002985Y001620D02*
X003145Y001780D01*
X003145Y001620D01*
X003105Y001580D01*
X003025Y001580D01*
X002985Y001620D01*
X002985Y001780D01*
X003025Y001820D01*
X003105Y001820D01*
X003145Y001780D01*
X003200Y001440D02*
X002700Y001440D01*
X002450Y001190D01*
X003200Y001440D02*
X003450Y001190D01*
X003700Y001440D01*
X004200Y001440D01*
X004450Y001190D01*
X004450Y000690D01*
X004200Y000440D01*
X003700Y000440D01*
X003450Y000690D01*
X003200Y000440D01*
X002700Y000440D01*
X002450Y000690D01*
X003450Y000690D02*
X003450Y001190D01*
X003790Y001580D02*
X003790Y001820D01*
X003910Y001820D01*
X003950Y001780D01*
X003950Y001700D01*
X003910Y001660D01*
X003790Y001660D01*
X004085Y001580D02*
X004245Y001580D01*
X004165Y001580D02*
X004165Y001820D01*
X004085Y001740D01*
X004690Y001660D02*
X004810Y001660D01*
X004850Y001700D01*
X004850Y001780D01*
X004810Y001820D01*
X004690Y001820D01*
X004690Y001580D01*
X004700Y001440D02*
X005200Y001440D01*
X005450Y001190D01*
X005700Y001440D01*
X006200Y001440D01*
X006450Y001190D01*
X006700Y001440D01*
X007200Y001440D01*
X007450Y001190D01*
X007450Y000690D01*
X007200Y000440D01*
X006700Y000440D01*
X006450Y000690D01*
X006200Y000440D01*
X005700Y000440D01*
X005450Y000690D01*
X005200Y000440D01*
X004700Y000440D01*
X004450Y000690D01*
X005450Y000690D02*
X005450Y001190D01*
X005690Y001580D02*
X005690Y001820D01*
X005810Y001820D01*
X005850Y001780D01*
X005850Y001700D01*
X005810Y001660D01*
X005690Y001660D01*
X005985Y001620D02*
X006025Y001580D01*
X006105Y001580D01*
X006145Y001620D01*
X006145Y001660D01*
X006105Y001700D01*
X006065Y001700D01*
X006105Y001700D02*
X006145Y001740D01*
X006145Y001780D01*
X006105Y001820D01*
X006025Y001820D01*
X005985Y001780D01*
X006690Y001820D02*
X006690Y001580D01*
X006690Y001660D02*
X006810Y001660D01*
X006850Y001700D01*
X006850Y001780D01*
X006810Y001820D01*
X006690Y001820D01*
X006985Y001700D02*
X007145Y001700D01*
X007105Y001580D02*
X007105Y001820D01*
X006985Y001700D01*
X007450Y001190D02*
X007700Y001440D01*
X008200Y001440D01*
X008450Y001190D01*
X008700Y001440D01*
X009200Y001440D01*
X009450Y001190D01*
X009700Y001440D01*
X010200Y001440D01*
X010450Y001190D01*
X010450Y000690D01*
X010200Y000440D01*
X009700Y000440D01*
X009450Y000690D01*
X009200Y000440D01*
X008700Y000440D01*
X008450Y000690D01*
X008200Y000440D01*
X007700Y000440D01*
X007450Y000690D01*
X006450Y000690D02*
X006450Y001190D01*
X007690Y001580D02*
X007690Y001820D01*
X007810Y001820D01*
X007850Y001780D01*
X007850Y001700D01*
X007810Y001660D01*
X007690Y001660D01*
X007985Y001620D02*
X008025Y001580D01*
X008105Y001580D01*
X008145Y001620D01*
X008145Y001700D01*
X008105Y001740D01*
X008065Y001740D01*
X007985Y001700D01*
X007985Y001820D01*
X008145Y001820D01*
X008590Y001820D02*
X008710Y001820D01*
X008750Y001780D01*
X008750Y001700D01*
X008710Y001660D01*
X008590Y001660D01*
X008590Y001580D02*
X008590Y001820D01*
X008885Y001700D02*
X008885Y001620D01*
X008925Y001580D01*
X009005Y001580D01*
X009045Y001620D01*
X009045Y001660D01*
X009005Y001700D01*
X008885Y001700D01*
X008965Y001780D01*
X009045Y001820D01*
X009450Y001190D02*
X009450Y000690D01*
X010450Y000690D02*
X010700Y000440D01*
X011200Y000440D01*
X011450Y000690D01*
X011700Y000440D01*
X012200Y000440D01*
X012450Y000690D01*
X012700Y000440D01*
X013200Y000440D01*
X013450Y000690D01*
X013450Y001190D01*
X013200Y001440D01*
X012700Y001440D01*
X012450Y001190D01*
X012450Y000690D01*
X011450Y000690D02*
X011450Y001190D01*
X011700Y001440D01*
X012200Y001440D01*
X012450Y001190D01*
X012590Y001580D02*
X012590Y001820D01*
X012710Y001820D01*
X012750Y001780D01*
X012750Y001700D01*
X012710Y001660D01*
X012590Y001660D01*
X012885Y001580D02*
X013045Y001580D01*
X012965Y001580D02*
X012965Y001820D01*
X012885Y001740D01*
X013179Y001780D02*
X013179Y001620D01*
X013339Y001780D01*
X013339Y001620D01*
X013299Y001580D01*
X013219Y001580D01*
X013179Y001620D01*
X013179Y001780D02*
X013219Y001820D01*
X013299Y001820D01*
X013339Y001780D01*
X013590Y001820D02*
X013710Y001820D01*
X013750Y001780D01*
X013750Y001700D01*
X013710Y001660D01*
X013590Y001660D01*
X013590Y001580D02*
X013590Y001820D01*
X013885Y001740D02*
X013965Y001820D01*
X013965Y001580D01*
X013885Y001580D02*
X014045Y001580D01*
X014179Y001580D02*
X014339Y001580D01*
X014259Y001580D02*
X014259Y001820D01*
X014179Y001740D01*
X014590Y001660D02*
X014710Y001660D01*
X014750Y001700D01*
X014750Y001780D01*
X014710Y001820D01*
X014590Y001820D01*
X014590Y001580D01*
X014700Y001440D02*
X014450Y001190D01*
X014450Y000690D01*
X014700Y000440D01*
X015200Y000440D01*
X015450Y000690D01*
X015700Y000440D01*
X016200Y000440D01*
X016450Y000690D01*
X016450Y001190D01*
X016200Y001440D01*
X015700Y001440D01*
X015450Y001190D01*
X015450Y000690D01*
X014450Y000690D02*
X014200Y000440D01*
X013700Y000440D01*
X013450Y000690D01*
X013450Y001190D02*
X013700Y001440D01*
X014200Y001440D01*
X014450Y001190D01*
X014700Y001440D02*
X015200Y001440D01*
X015450Y001190D01*
X015339Y001580D02*
X015179Y001580D01*
X015339Y001740D01*
X015339Y001780D01*
X015299Y001820D01*
X015219Y001820D01*
X015179Y001780D01*
X014965Y001820D02*
X014965Y001580D01*
X014885Y001580D02*
X015045Y001580D01*
X014885Y001740D02*
X014965Y001820D01*
X015259Y002026D02*
X015330Y002026D01*
X015400Y002096D01*
X015400Y002446D01*
X015189Y002446D01*
X015119Y002376D01*
X015119Y002236D01*
X015189Y002166D01*
X015400Y002166D01*
X015580Y002166D02*
X015580Y002587D01*
X015650Y002446D02*
X015790Y002446D01*
X015860Y002376D01*
X015860Y002166D01*
X016110Y002236D02*
X016180Y002166D01*
X016110Y002236D02*
X016110Y002517D01*
X016040Y002446D02*
X016180Y002446D01*
X016347Y002376D02*
X016417Y002306D01*
X016557Y002306D01*
X016627Y002236D01*
X016557Y002166D01*
X016347Y002166D01*
X016807Y002166D02*
X016878Y002166D01*
X016878Y002236D01*
X016807Y002236D01*
X016807Y002166D01*
X017038Y002236D02*
X017108Y002166D01*
X017318Y002166D01*
X017498Y002236D02*
X017568Y002166D01*
X017708Y002166D01*
X017778Y002236D01*
X017778Y002376D01*
X017708Y002446D01*
X017568Y002446D01*
X017498Y002376D01*
X017498Y002236D01*
X017318Y002446D02*
X017108Y002446D01*
X017038Y002376D01*
X017038Y002236D01*
X016627Y002446D02*
X016417Y002446D01*
X016347Y002376D01*
X016333Y002767D02*
X016086Y002767D01*
X016086Y003137D01*
X016333Y003137D01*
X016501Y003137D02*
X016501Y002890D01*
X016624Y002767D01*
X016747Y002890D01*
X016747Y003137D01*
X016210Y002952D02*
X016086Y002952D01*
X015919Y002952D02*
X015857Y002890D01*
X015672Y002890D01*
X015672Y002767D02*
X015672Y003137D01*
X015857Y003137D01*
X015919Y003076D01*
X015919Y002952D01*
X015795Y002890D02*
X015919Y002767D01*
X015650Y002446D02*
X015580Y002376D01*
X014939Y002446D02*
X014939Y002166D01*
X014729Y002166D01*
X014659Y002236D01*
X014659Y002446D01*
X014479Y002376D02*
X014409Y002446D01*
X014269Y002446D01*
X014199Y002376D01*
X014199Y002236D01*
X014269Y002166D01*
X014409Y002166D01*
X014479Y002236D01*
X014479Y002376D01*
X014018Y002376D02*
X014018Y002166D01*
X013738Y002166D02*
X013738Y002587D01*
X013501Y002517D02*
X013501Y002236D01*
X013571Y002166D01*
X013738Y002376D02*
X013808Y002446D01*
X013948Y002446D01*
X014018Y002376D01*
X013571Y002446D02*
X013431Y002446D01*
X013251Y002376D02*
X012971Y002376D01*
X012804Y002446D02*
X012664Y002446D01*
X012734Y002517D02*
X012734Y002236D01*
X012804Y002166D01*
X012484Y002236D02*
X012484Y002376D01*
X012414Y002446D01*
X012274Y002446D01*
X012204Y002376D01*
X012204Y002236D01*
X012274Y002166D01*
X012414Y002166D01*
X012484Y002236D01*
X012023Y002236D02*
X011953Y002166D01*
X011743Y002166D01*
X011743Y002587D01*
X011743Y002446D02*
X011953Y002446D01*
X012023Y002376D01*
X012023Y002236D01*
X012025Y001820D02*
X011985Y001780D01*
X011985Y001740D01*
X012025Y001700D01*
X012145Y001700D01*
X012145Y001620D02*
X012145Y001780D01*
X012105Y001820D01*
X012025Y001820D01*
X011850Y001780D02*
X011850Y001700D01*
X011810Y001660D01*
X011690Y001660D01*
X011690Y001580D02*
X011690Y001820D01*
X011810Y001820D01*
X011850Y001780D01*
X011985Y001620D02*
X012025Y001580D01*
X012105Y001580D01*
X012145Y001620D01*
X011450Y001190D02*
X011200Y001440D01*
X010700Y001440D01*
X010450Y001190D01*
X010690Y001580D02*
X010690Y001820D01*
X010810Y001820D01*
X010850Y001780D01*
X010850Y001700D01*
X010810Y001660D01*
X010690Y001660D01*
X010985Y001660D02*
X011025Y001700D01*
X011105Y001700D01*
X011145Y001660D01*
X011145Y001620D01*
X011105Y001580D01*
X011025Y001580D01*
X010985Y001620D01*
X010985Y001660D01*
X011025Y001700D02*
X010985Y001740D01*
X010985Y001780D01*
X011025Y001820D01*
X011105Y001820D01*
X011145Y001780D01*
X011145Y001740D01*
X011105Y001700D01*
X008450Y001190D02*
X008450Y000690D01*
X005145Y001580D02*
X004985Y001580D01*
X005145Y001740D01*
X005145Y001780D01*
X005105Y001820D01*
X005025Y001820D01*
X004985Y001780D01*
X004700Y001440D02*
X004450Y001190D01*
X003389Y002217D02*
X003389Y002377D01*
X003349Y002417D01*
X003229Y002417D01*
X003229Y002177D01*
X003349Y002177D01*
X003389Y002217D01*
X003095Y002177D02*
X003095Y002417D01*
X002935Y002417D02*
X003095Y002177D01*
X002935Y002177D02*
X002935Y002417D01*
X002800Y002377D02*
X002760Y002417D01*
X002680Y002417D01*
X002640Y002377D01*
X002640Y002217D01*
X002680Y002177D01*
X002760Y002177D01*
X002800Y002217D01*
X002800Y002297D01*
X002720Y002297D01*
X002450Y001940D02*
X002450Y002940D01*
X002200Y002940D01*
X002450Y003190D01*
X002450Y003690D01*
X002200Y003940D01*
X001700Y003940D01*
X001450Y003690D01*
X001450Y003190D01*
X001700Y002940D01*
X001450Y002940D01*
X001450Y001940D01*
X002450Y001940D01*
X001241Y001820D02*
X001241Y001580D01*
X001081Y001820D01*
X001081Y001580D01*
X000965Y001580D02*
X000885Y001580D01*
X000925Y001580D02*
X000925Y001820D01*
X000885Y001820D02*
X000965Y001820D01*
X000750Y001820D02*
X000750Y001660D01*
X000670Y001580D01*
X000590Y001660D01*
X000590Y001820D01*
X000586Y002563D02*
X000666Y002643D01*
X000666Y002803D01*
X000801Y002763D02*
X000801Y002723D01*
X000841Y002683D01*
X000921Y002683D01*
X000961Y002643D01*
X000961Y002603D01*
X000921Y002563D01*
X000841Y002563D01*
X000801Y002603D01*
X000801Y002763D02*
X000841Y002803D01*
X000921Y002803D01*
X000961Y002763D01*
X001095Y002763D02*
X001095Y002723D01*
X001135Y002683D01*
X001215Y002683D01*
X001255Y002643D01*
X001255Y002603D01*
X001215Y002563D01*
X001135Y002563D01*
X001095Y002603D01*
X001095Y002763D02*
X001135Y002803D01*
X001215Y002803D01*
X001255Y002763D01*
X001450Y002940D02*
X001450Y003190D01*
X001450Y002940D02*
X000450Y002940D01*
X000450Y003940D01*
X000700Y003940D01*
X000450Y004190D01*
X000450Y004690D01*
X000700Y004940D01*
X001200Y004940D01*
X001450Y004690D01*
X001700Y004940D01*
X001450Y005190D01*
X001450Y005690D01*
X001700Y005940D01*
X001450Y006190D01*
X001450Y006690D01*
X001700Y006940D01*
X001450Y007190D01*
X001450Y007690D01*
X001700Y007940D01*
X002200Y007940D01*
X002450Y007690D01*
X002450Y007190D01*
X002200Y006940D01*
X002450Y006690D01*
X002450Y006190D01*
X002200Y005940D01*
X002450Y005690D01*
X002450Y005190D01*
X002200Y004940D01*
X002450Y004690D01*
X002450Y004190D01*
X002200Y003940D01*
X001700Y003940D02*
X001450Y004190D01*
X001450Y004690D01*
X001200Y004940D02*
X001450Y005190D01*
X001700Y004940D02*
X002200Y004940D01*
X001450Y005690D02*
X001200Y005940D01*
X001450Y006190D01*
X001200Y005940D02*
X000700Y005940D01*
X000450Y006190D01*
X000450Y006690D01*
X000700Y006940D01*
X001200Y006940D01*
X001450Y006690D01*
X001700Y006940D02*
X002200Y006940D01*
X002690Y007380D02*
X002810Y007380D01*
X002850Y007420D01*
X002850Y007580D01*
X002810Y007620D01*
X002690Y007620D01*
X002690Y007380D01*
X003065Y007380D02*
X003065Y007620D01*
X002985Y007620D02*
X003145Y007620D01*
X003279Y007620D02*
X003399Y007620D01*
X003439Y007580D01*
X003439Y007500D01*
X003399Y007460D01*
X003279Y007460D01*
X003279Y007380D02*
X003279Y007620D01*
X003359Y007460D02*
X003439Y007380D01*
X003339Y008080D02*
X003179Y008080D01*
X003259Y008080D02*
X003259Y008320D01*
X003179Y008240D01*
X003045Y008240D02*
X003005Y008200D01*
X003045Y008160D01*
X003045Y008120D01*
X003005Y008080D01*
X002925Y008080D01*
X002885Y008120D01*
X002965Y008200D02*
X003005Y008200D01*
X003045Y008240D02*
X003045Y008280D01*
X003005Y008320D01*
X002925Y008320D01*
X002885Y008280D01*
X002750Y008280D02*
X002750Y008200D01*
X002710Y008160D01*
X002590Y008160D01*
X002590Y008080D02*
X002590Y008320D01*
X002710Y008320D01*
X002750Y008280D01*
X002700Y008440D02*
X003200Y008440D01*
X003450Y008690D01*
X003700Y008440D01*
X004200Y008440D01*
X004450Y008690D01*
X004450Y009190D01*
X004200Y009440D01*
X003700Y009440D01*
X003450Y009190D01*
X003450Y008690D01*
X003590Y008320D02*
X003710Y008320D01*
X003750Y008280D01*
X003750Y008200D01*
X003710Y008160D01*
X003590Y008160D01*
X003590Y008080D02*
X003590Y008320D01*
X003885Y008280D02*
X003925Y008320D01*
X004005Y008320D01*
X004045Y008280D01*
X004045Y008240D01*
X004005Y008200D01*
X004045Y008160D01*
X004045Y008120D01*
X004005Y008080D01*
X003925Y008080D01*
X003885Y008120D01*
X003965Y008200D02*
X004005Y008200D01*
X004179Y008120D02*
X004219Y008080D01*
X004299Y008080D01*
X004339Y008120D01*
X004339Y008280D01*
X004179Y008120D01*
X004179Y008280D01*
X004219Y008320D01*
X004299Y008320D01*
X004339Y008280D01*
X004590Y008320D02*
X004590Y008080D01*
X004590Y008160D02*
X004710Y008160D01*
X004750Y008200D01*
X004750Y008280D01*
X004710Y008320D01*
X004590Y008320D01*
X004700Y008440D02*
X004450Y008690D01*
X004700Y008440D02*
X005200Y008440D01*
X005450Y008690D01*
X005700Y008440D01*
X006200Y008440D01*
X006450Y008690D01*
X006700Y008440D01*
X007200Y008440D01*
X007450Y008690D01*
X007450Y009190D01*
X007200Y009440D01*
X006700Y009440D01*
X006450Y009190D01*
X006450Y008690D01*
X006590Y008320D02*
X006710Y008320D01*
X006750Y008280D01*
X006750Y008200D01*
X006710Y008160D01*
X006590Y008160D01*
X006590Y008080D02*
X006590Y008320D01*
X006339Y008280D02*
X006339Y008240D01*
X006299Y008200D01*
X006219Y008200D01*
X006179Y008240D01*
X006179Y008280D01*
X006219Y008320D01*
X006299Y008320D01*
X006339Y008280D01*
X006299Y008200D02*
X006339Y008160D01*
X006339Y008120D01*
X006299Y008080D01*
X006219Y008080D01*
X006179Y008120D01*
X006179Y008160D01*
X006219Y008200D01*
X006045Y008240D02*
X005885Y008080D01*
X006045Y008080D01*
X005750Y008200D02*
X005710Y008160D01*
X005590Y008160D01*
X005590Y008080D02*
X005590Y008320D01*
X005710Y008320D01*
X005750Y008280D01*
X005750Y008200D01*
X005885Y008280D02*
X005925Y008320D01*
X006005Y008320D01*
X006045Y008280D01*
X006045Y008240D01*
X005339Y008200D02*
X005219Y008200D01*
X005179Y008240D01*
X005179Y008280D01*
X005219Y008320D01*
X005299Y008320D01*
X005339Y008280D01*
X005339Y008120D01*
X005299Y008080D01*
X005219Y008080D01*
X005179Y008120D01*
X005045Y008080D02*
X004885Y008080D01*
X005045Y008240D01*
X005045Y008280D01*
X005005Y008320D01*
X004925Y008320D01*
X004885Y008280D01*
X005450Y008690D02*
X005450Y009190D01*
X005700Y009440D01*
X006200Y009440D01*
X006450Y009190D01*
X007450Y009190D02*
X007700Y009440D01*
X008200Y009440D01*
X008450Y009190D01*
X008700Y009440D01*
X009200Y009440D01*
X009450Y009190D01*
X009700Y009440D01*
X010200Y009440D01*
X010450Y009190D01*
X010450Y008690D01*
X010200Y008440D01*
X009700Y008440D01*
X009450Y008690D01*
X009200Y008440D01*
X008700Y008440D01*
X008450Y008690D01*
X008200Y008440D01*
X007700Y008440D01*
X007450Y008690D01*
X007339Y008320D02*
X007179Y008320D01*
X007045Y008280D02*
X007005Y008320D01*
X006925Y008320D01*
X006885Y008280D01*
X007045Y008280D02*
X007045Y008240D01*
X006885Y008080D01*
X007045Y008080D01*
X007179Y008080D02*
X007179Y008120D01*
X007339Y008280D01*
X007339Y008320D01*
X007590Y008320D02*
X007710Y008320D01*
X007750Y008280D01*
X007750Y008200D01*
X007710Y008160D01*
X007590Y008160D01*
X007590Y008080D02*
X007590Y008320D01*
X007885Y008280D02*
X007925Y008320D01*
X008005Y008320D01*
X008045Y008280D01*
X008045Y008240D01*
X007885Y008080D01*
X008045Y008080D01*
X008179Y008120D02*
X008219Y008080D01*
X008299Y008080D01*
X008339Y008120D01*
X008339Y008160D01*
X008299Y008200D01*
X008179Y008200D01*
X008179Y008120D01*
X008179Y008200D02*
X008259Y008280D01*
X008339Y008320D01*
X008450Y008690D02*
X008450Y009190D01*
X009450Y009190D02*
X009450Y008690D01*
X010450Y008690D02*
X010700Y008440D01*
X011200Y008440D01*
X011450Y008690D01*
X011700Y008440D01*
X012200Y008440D01*
X012450Y008690D01*
X012700Y008440D01*
X013200Y008440D01*
X013450Y008690D01*
X013450Y009190D01*
X013200Y009440D01*
X012700Y009440D01*
X012450Y009190D01*
X012450Y008690D01*
X012590Y008320D02*
X012710Y008320D01*
X012750Y008280D01*
X012750Y008200D01*
X012710Y008160D01*
X012590Y008160D01*
X012590Y008080D02*
X012590Y008320D01*
X012339Y008280D02*
X012299Y008320D01*
X012219Y008320D01*
X012179Y008280D01*
X012045Y008280D02*
X012005Y008320D01*
X011925Y008320D01*
X011885Y008280D01*
X011750Y008280D02*
X011750Y008200D01*
X011710Y008160D01*
X011590Y008160D01*
X011590Y008080D02*
X011590Y008320D01*
X011710Y008320D01*
X011750Y008280D01*
X011885Y008080D02*
X012045Y008240D01*
X012045Y008280D01*
X012045Y008080D02*
X011885Y008080D01*
X012179Y008080D02*
X012339Y008240D01*
X012339Y008280D01*
X012339Y008080D02*
X012179Y008080D01*
X012885Y008080D02*
X013045Y008240D01*
X013045Y008280D01*
X013005Y008320D01*
X012925Y008320D01*
X012885Y008280D01*
X013179Y008240D02*
X013259Y008320D01*
X013259Y008080D01*
X013179Y008080D02*
X013339Y008080D01*
X013590Y008080D02*
X013590Y008320D01*
X013710Y008320D01*
X013750Y008280D01*
X013750Y008200D01*
X013710Y008160D01*
X013590Y008160D01*
X013885Y008080D02*
X014045Y008240D01*
X014045Y008280D01*
X014005Y008320D01*
X013925Y008320D01*
X013885Y008280D01*
X013885Y008080D02*
X014045Y008080D01*
X014179Y008120D02*
X014339Y008280D01*
X014339Y008120D01*
X014299Y008080D01*
X014219Y008080D01*
X014179Y008120D01*
X014179Y008280D01*
X014219Y008320D01*
X014299Y008320D01*
X014339Y008280D01*
X014200Y008440D02*
X013700Y008440D01*
X013450Y008690D01*
X014200Y008440D02*
X014450Y008690D01*
X014700Y008440D01*
X015200Y008440D01*
X015450Y008690D01*
X015700Y008440D01*
X016200Y008440D01*
X016450Y008690D01*
X016450Y009190D01*
X016200Y009440D01*
X015700Y009440D01*
X015450Y009190D01*
X015450Y008690D01*
X015590Y008320D02*
X015710Y008320D01*
X015750Y008280D01*
X015750Y008200D01*
X015710Y008160D01*
X015590Y008160D01*
X015590Y008080D02*
X015590Y008320D01*
X015339Y008280D02*
X015299Y008320D01*
X015219Y008320D01*
X015179Y008280D01*
X015179Y008240D01*
X015219Y008200D01*
X015339Y008200D01*
X015339Y008120D02*
X015339Y008280D01*
X015339Y008120D02*
X015299Y008080D01*
X015219Y008080D01*
X015179Y008120D01*
X015045Y008080D02*
X014885Y008080D01*
X014965Y008080D02*
X014965Y008320D01*
X014885Y008240D01*
X014750Y008280D02*
X014750Y008200D01*
X014710Y008160D01*
X014590Y008160D01*
X014590Y008080D02*
X014590Y008320D01*
X014710Y008320D01*
X014750Y008280D01*
X014450Y008690D02*
X014450Y009190D01*
X014700Y009440D01*
X015200Y009440D01*
X015450Y009190D01*
X014450Y009190D02*
X014200Y009440D01*
X013700Y009440D01*
X013450Y009190D01*
X012450Y009190D02*
X012200Y009440D01*
X011700Y009440D01*
X011450Y009190D01*
X011450Y008690D01*
X011299Y008320D02*
X011339Y008280D01*
X011339Y008240D01*
X011299Y008200D01*
X011339Y008160D01*
X011339Y008120D01*
X011299Y008080D01*
X011219Y008080D01*
X011179Y008120D01*
X011259Y008200D02*
X011299Y008200D01*
X011179Y008280D02*
X011219Y008320D01*
X011299Y008320D01*
X011045Y008280D02*
X011005Y008320D01*
X010925Y008320D01*
X010885Y008280D01*
X010750Y008280D02*
X010750Y008200D01*
X010710Y008160D01*
X010590Y008160D01*
X010590Y008080D02*
X010590Y008320D01*
X010710Y008320D01*
X010750Y008280D01*
X010885Y008080D02*
X011045Y008240D01*
X011045Y008280D01*
X011045Y008080D02*
X010885Y008080D01*
X012885Y008080D02*
X013045Y008080D01*
X011450Y009190D02*
X011200Y009440D01*
X010700Y009440D01*
X010450Y009190D01*
X005450Y009190D02*
X005200Y009440D01*
X004700Y009440D01*
X004450Y009190D01*
X003450Y009190D02*
X003200Y009440D01*
X002700Y009440D01*
X002450Y009190D01*
X002450Y008690D01*
X002200Y008440D01*
X001700Y008440D01*
X001450Y008690D01*
X001200Y008440D01*
X000700Y008440D01*
X000450Y008690D01*
X000450Y009190D01*
X000700Y009440D01*
X001200Y009440D01*
X001450Y009190D01*
X001450Y008690D01*
X001299Y008320D02*
X001339Y008280D01*
X001339Y008240D01*
X001299Y008200D01*
X001339Y008160D01*
X001339Y008120D01*
X001299Y008080D01*
X001219Y008080D01*
X001179Y008120D01*
X001259Y008200D02*
X001299Y008200D01*
X001179Y008280D02*
X001219Y008320D01*
X001299Y008320D01*
X001045Y008320D02*
X001045Y008160D01*
X000965Y008080D01*
X000885Y008160D01*
X000885Y008320D01*
X000750Y008280D02*
X000750Y008240D01*
X000710Y008200D01*
X000750Y008160D01*
X000750Y008120D01*
X000710Y008080D01*
X000630Y008080D01*
X000590Y008120D01*
X000670Y008200D02*
X000710Y008200D01*
X000750Y008280D02*
X000710Y008320D01*
X000630Y008320D01*
X000590Y008280D01*
X001590Y008280D02*
X001590Y008120D01*
X001630Y008080D01*
X001710Y008080D01*
X001750Y008120D01*
X001750Y008200D01*
X001670Y008200D01*
X001590Y008280D02*
X001630Y008320D01*
X001710Y008320D01*
X001750Y008280D01*
X001885Y008320D02*
X002045Y008080D01*
X002045Y008320D01*
X002179Y008320D02*
X002299Y008320D01*
X002339Y008280D01*
X002339Y008120D01*
X002299Y008080D01*
X002179Y008080D01*
X002179Y008320D01*
X001885Y008320D02*
X001885Y008080D01*
X002450Y008690D02*
X002700Y008440D01*
X002450Y009190D02*
X002200Y009440D01*
X001700Y009440D01*
X001450Y009190D01*
X001195Y007330D02*
X001035Y007090D01*
X000900Y007090D02*
X000820Y007170D01*
X000860Y007170D02*
X000740Y007170D01*
X000740Y007090D02*
X000740Y007330D01*
X000860Y007330D01*
X000900Y007290D01*
X000900Y007210D01*
X000860Y007170D01*
X001035Y007330D02*
X001195Y007090D01*
X000700Y005940D02*
X000450Y005690D01*
X000450Y005190D01*
X000700Y004940D01*
X001450Y004190D02*
X001200Y003940D01*
X001450Y003940D01*
X001450Y003690D01*
X001200Y003940D02*
X000700Y003940D01*
X001700Y002940D02*
X002200Y002940D01*
X002790Y003190D02*
X002790Y003490D01*
X003930Y003490D01*
X003930Y003190D01*
X002790Y003190D01*
X000586Y002563D02*
X000506Y002643D01*
X000506Y002803D01*
X001700Y005940D02*
X002200Y005940D01*
X013620Y006090D02*
X013620Y003790D01*
X013622Y003739D01*
X013627Y003688D01*
X013637Y003638D01*
X013650Y003588D01*
X013666Y003540D01*
X013686Y003493D01*
X013710Y003447D01*
X013736Y003404D01*
X013766Y003362D01*
X013799Y003323D01*
X013834Y003286D01*
X013872Y003252D01*
X013913Y003221D01*
X013955Y003192D01*
X014000Y003167D01*
X014046Y003146D01*
X014094Y003127D01*
X014143Y003113D01*
X014193Y003102D01*
X014243Y003094D01*
X014294Y003090D01*
X014346Y003090D01*
X014397Y003094D01*
X014447Y003102D01*
X014497Y003113D01*
X014546Y003127D01*
X014594Y003146D01*
X014640Y003167D01*
X014685Y003192D01*
X014727Y003221D01*
X014768Y003252D01*
X014806Y003286D01*
X014841Y003323D01*
X014874Y003362D01*
X014904Y003404D01*
X014930Y003447D01*
X014954Y003493D01*
X014974Y003540D01*
X014990Y003588D01*
X015003Y003638D01*
X015013Y003688D01*
X015018Y003739D01*
X015020Y003790D01*
X015020Y006090D01*
X015561Y006121D02*
X015561Y003759D01*
X015581Y003759D02*
X015817Y003759D01*
X016683Y003759D02*
X016919Y003759D01*
X016939Y003759D02*
X016939Y006121D01*
X016919Y006121D02*
X016683Y006121D01*
X017090Y006040D02*
X017090Y005760D01*
X017090Y005900D02*
X017510Y005900D01*
X017510Y005579D02*
X017510Y005299D01*
X017090Y005299D01*
X017090Y005579D01*
X017300Y005439D02*
X017300Y005299D01*
X017370Y005119D02*
X017440Y005119D01*
X017510Y005049D01*
X017510Y004909D01*
X017440Y004839D01*
X017300Y004909D02*
X017300Y005049D01*
X017370Y005119D01*
X017160Y005119D02*
X017090Y005049D01*
X017090Y004909D01*
X017160Y004839D01*
X017230Y004839D01*
X017300Y004909D01*
X017510Y004659D02*
X017510Y004378D01*
X017090Y004378D01*
X017090Y004659D01*
X017300Y004519D02*
X017300Y004378D01*
X017300Y004198D02*
X017160Y004198D01*
X017090Y004128D01*
X017090Y003918D01*
X017510Y003918D01*
X017370Y003918D02*
X017370Y004128D01*
X017300Y004198D01*
X017370Y004058D02*
X017510Y004198D01*
X016545Y004349D02*
X016545Y005531D01*
X015955Y005531D01*
X015955Y004349D01*
X016545Y004349D01*
X014670Y004690D02*
X014320Y004690D01*
X014320Y004440D01*
X014320Y004690D02*
X013970Y004690D01*
X013970Y004840D02*
X014670Y004840D01*
X014670Y005040D01*
X013970Y005040D01*
X013970Y004840D01*
X013970Y005190D02*
X014320Y005190D01*
X014320Y005440D01*
X014320Y005190D02*
X014670Y005190D01*
X015020Y006090D02*
X015018Y006141D01*
X015013Y006192D01*
X015003Y006242D01*
X014990Y006292D01*
X014974Y006340D01*
X014954Y006387D01*
X014930Y006433D01*
X014904Y006476D01*
X014874Y006518D01*
X014841Y006557D01*
X014806Y006594D01*
X014768Y006628D01*
X014727Y006659D01*
X014685Y006688D01*
X014640Y006713D01*
X014594Y006734D01*
X014546Y006753D01*
X014497Y006767D01*
X014447Y006778D01*
X014397Y006786D01*
X014346Y006790D01*
X014294Y006790D01*
X014243Y006786D01*
X014193Y006778D01*
X014143Y006767D01*
X014094Y006753D01*
X014046Y006734D01*
X014000Y006713D01*
X013955Y006688D01*
X013913Y006659D01*
X013872Y006628D01*
X013834Y006594D01*
X013799Y006557D01*
X013766Y006518D01*
X013736Y006476D01*
X013710Y006433D01*
X013686Y006387D01*
X013666Y006340D01*
X013650Y006292D01*
X013637Y006242D01*
X013627Y006192D01*
X013622Y006141D01*
X013620Y006090D01*
X015581Y006121D02*
X015817Y006121D01*
X015885Y008080D02*
X016045Y008080D01*
X015965Y008080D02*
X015965Y008320D01*
X015885Y008240D01*
X016179Y008240D02*
X016219Y008200D01*
X016299Y008200D01*
X016339Y008160D01*
X016339Y008120D01*
X016299Y008080D01*
X016219Y008080D01*
X016179Y008120D01*
X016179Y008160D01*
X016219Y008200D01*
X016179Y008240D02*
X016179Y008280D01*
X016219Y008320D01*
X016299Y008320D01*
X016339Y008280D01*
X016339Y008240D01*
X016299Y008200D01*
X016590Y008160D02*
X016710Y008160D01*
X016750Y008200D01*
X016750Y008280D01*
X016710Y008320D01*
X016590Y008320D01*
X016590Y008080D01*
X016885Y008080D02*
X017045Y008080D01*
X016965Y008080D02*
X016965Y008320D01*
X016885Y008240D01*
X017179Y008320D02*
X017339Y008320D01*
X017339Y008280D01*
X017179Y008120D01*
X017179Y008080D01*
X017590Y008080D02*
X017590Y008320D01*
X017710Y008320D01*
X017750Y008280D01*
X017750Y008200D01*
X017710Y008160D01*
X017590Y008160D01*
X017710Y008160D01*
X017750Y008200D01*
X017750Y008280D01*
X017710Y008320D01*
X017590Y008320D01*
X017590Y008080D01*
X017885Y008080D02*
X018045Y008080D01*
X017885Y008080D01*
X017965Y008080D02*
X017965Y008320D01*
X017885Y008240D01*
X017965Y008320D01*
X017965Y008080D01*
X018179Y008120D02*
X018219Y008080D01*
X018299Y008080D01*
X018339Y008120D01*
X018339Y008160D01*
X018299Y008200D01*
X018179Y008200D01*
X018179Y008120D01*
X018219Y008080D01*
X018299Y008080D01*
X018339Y008120D01*
X018339Y008160D01*
X018299Y008200D01*
X018179Y008200D01*
X018259Y008280D01*
X018339Y008320D01*
X018259Y008280D01*
X018179Y008200D01*
X018179Y008120D01*
X018200Y008440D02*
X017700Y008440D01*
X017450Y008690D01*
X017200Y008440D01*
X016700Y008440D01*
X016450Y008690D01*
X017450Y008690D02*
X017450Y009190D01*
X017700Y009440D01*
X018200Y009440D01*
X018450Y009190D01*
X018450Y008690D01*
X018200Y008440D01*
X017450Y009190D02*
X017200Y009440D01*
X016700Y009440D01*
X016450Y009190D01*
X017391Y003137D02*
X017329Y003076D01*
X017329Y002829D01*
X017576Y003076D01*
X017576Y002829D01*
X017514Y002767D01*
X017391Y002767D01*
X017329Y002829D01*
X017744Y002829D02*
X017805Y002829D01*
X017805Y002767D01*
X017744Y002767D01*
X017744Y002829D01*
X017951Y002829D02*
X018013Y002767D01*
X018136Y002767D01*
X018198Y002829D01*
X018198Y002890D01*
X018136Y002952D01*
X018074Y002952D01*
X018136Y002952D02*
X018198Y003014D01*
X018198Y003076D01*
X018136Y003137D01*
X018013Y003137D01*
X017951Y003076D01*
X017576Y003076D02*
X017514Y003137D01*
X017391Y003137D01*
X017958Y002446D02*
X018029Y002446D01*
X018099Y002376D01*
X018169Y002446D01*
X018239Y002376D01*
X018239Y002166D01*
X018099Y002166D02*
X018099Y002376D01*
X017958Y002446D02*
X017958Y002166D01*
X017965Y001820D02*
X017965Y001580D01*
X017885Y001580D02*
X018045Y001580D01*
X018179Y001620D02*
X018219Y001580D01*
X018299Y001580D01*
X018339Y001620D01*
X018339Y001700D01*
X018299Y001740D01*
X018259Y001740D01*
X018179Y001700D01*
X018179Y001820D01*
X018339Y001820D01*
X017965Y001820D02*
X017885Y001740D01*
X017750Y001700D02*
X017710Y001660D01*
X017590Y001660D01*
X017590Y001580D02*
X017590Y001820D01*
X017710Y001820D01*
X017750Y001780D01*
X017750Y001700D01*
X017339Y001700D02*
X017179Y001700D01*
X017299Y001820D01*
X017299Y001580D01*
X017200Y001440D02*
X017450Y001190D01*
X017700Y001440D01*
X018200Y001440D01*
X018450Y001190D01*
X018450Y000690D01*
X018200Y000440D01*
X017700Y000440D01*
X017450Y000690D01*
X017200Y000440D01*
X016700Y000440D01*
X016450Y000690D01*
X017450Y000690D02*
X017450Y001190D01*
X017200Y001440D02*
X016700Y001440D01*
X016450Y001190D01*
X016590Y001580D02*
X016590Y001820D01*
X016710Y001820D01*
X016750Y001780D01*
X016750Y001700D01*
X016710Y001660D01*
X016590Y001660D01*
X016339Y001660D02*
X016299Y001700D01*
X016259Y001700D01*
X016299Y001700D02*
X016339Y001740D01*
X016339Y001780D01*
X016299Y001820D01*
X016219Y001820D01*
X016179Y001780D01*
X015965Y001820D02*
X015885Y001740D01*
X015965Y001820D02*
X015965Y001580D01*
X015885Y001580D02*
X016045Y001580D01*
X016179Y001620D02*
X016219Y001580D01*
X016299Y001580D01*
X016339Y001620D01*
X016339Y001660D01*
X016885Y001580D02*
X017045Y001580D01*
X016965Y001580D02*
X016965Y001820D01*
X016885Y001740D01*
X015750Y001700D02*
X015710Y001660D01*
X015590Y001660D01*
X015590Y001580D02*
X015590Y001820D01*
X015710Y001820D01*
X015750Y001780D01*
X015750Y001700D01*
D11*
X016665Y007069D02*
X016665Y007619D01*
X016941Y007619D01*
X017032Y007528D01*
X017032Y007344D01*
X016941Y007252D01*
X016665Y007252D01*
X016425Y007344D02*
X016333Y007252D01*
X016149Y007252D01*
X016058Y007344D01*
X016058Y007528D01*
X016149Y007619D01*
X016333Y007619D01*
X016425Y007528D01*
X016425Y007344D01*
X015827Y007619D02*
X015735Y007619D01*
X015551Y007436D01*
X015311Y007528D02*
X015219Y007436D01*
X014944Y007436D01*
X014944Y007252D02*
X014944Y007803D01*
X015219Y007803D01*
X015311Y007711D01*
X015311Y007528D01*
X015551Y007619D02*
X015551Y007252D01*
X014703Y007436D02*
X014336Y007436D01*
X014336Y007344D02*
X014336Y007528D01*
X014428Y007619D01*
X014611Y007619D01*
X014703Y007528D01*
X014703Y007436D01*
X014611Y007252D02*
X014428Y007252D01*
X014336Y007344D01*
X014095Y007436D02*
X013728Y007436D01*
X013728Y007344D02*
X013728Y007528D01*
X013820Y007619D01*
X014003Y007619D01*
X014095Y007528D01*
X014095Y007436D01*
X014003Y007252D02*
X013820Y007252D01*
X013728Y007344D01*
X013487Y007252D02*
X013120Y007252D01*
X013120Y007344D01*
X013487Y007711D01*
X013487Y007803D01*
X013120Y007803D01*
X012880Y007528D02*
X012880Y007436D01*
X012513Y007436D01*
X012513Y007344D02*
X012513Y007528D01*
X012604Y007619D01*
X012788Y007619D01*
X012880Y007528D01*
X012604Y007252D02*
X012513Y007344D01*
X012604Y007252D02*
X012788Y007252D01*
X012272Y007436D02*
X012272Y007528D01*
X012180Y007619D01*
X011997Y007619D01*
X011905Y007528D01*
X011905Y007344D01*
X011997Y007252D01*
X012180Y007252D01*
X012272Y007436D02*
X011905Y007436D01*
D12*
X017793Y004719D03*
X018334Y004719D03*
D13*
X018063Y004871D03*
D14*
X015220Y003790D02*
X015220Y006090D01*
X015218Y006149D01*
X015212Y006207D01*
X015203Y006266D01*
X015189Y006323D01*
X015172Y006379D01*
X015151Y006434D01*
X015127Y006488D01*
X015099Y006540D01*
X015068Y006590D01*
X015034Y006638D01*
X014997Y006683D01*
X014956Y006726D01*
X014913Y006767D01*
X014868Y006804D01*
X014820Y006838D01*
X014770Y006869D01*
X014718Y006897D01*
X014664Y006921D01*
X014609Y006942D01*
X014553Y006959D01*
X014496Y006973D01*
X014437Y006982D01*
X014379Y006988D01*
X014320Y006990D01*
X014261Y006988D01*
X014203Y006982D01*
X014144Y006973D01*
X014087Y006959D01*
X014031Y006942D01*
X013976Y006921D01*
X013922Y006897D01*
X013870Y006869D01*
X013820Y006838D01*
X013772Y006804D01*
X013727Y006767D01*
X013684Y006726D01*
X013643Y006683D01*
X013606Y006638D01*
X013572Y006590D01*
X013541Y006540D01*
X013513Y006488D01*
X013489Y006434D01*
X013468Y006379D01*
X013451Y006323D01*
X013437Y006266D01*
X013428Y006207D01*
X013422Y006149D01*
X013420Y006090D01*
X013420Y003790D01*
X013422Y003731D01*
X013428Y003673D01*
X013437Y003614D01*
X013451Y003557D01*
X013468Y003501D01*
X013489Y003446D01*
X013513Y003392D01*
X013541Y003340D01*
X013572Y003290D01*
X013606Y003242D01*
X013643Y003197D01*
X013684Y003154D01*
X013727Y003113D01*
X013772Y003076D01*
X013820Y003042D01*
X013870Y003011D01*
X013922Y002983D01*
X013976Y002959D01*
X014031Y002938D01*
X014087Y002921D01*
X014144Y002907D01*
X014203Y002898D01*
X014261Y002892D01*
X014320Y002890D01*
X014379Y002892D01*
X014437Y002898D01*
X014496Y002907D01*
X014553Y002921D01*
X014609Y002938D01*
X014664Y002959D01*
X014718Y002983D01*
X014770Y003011D01*
X014820Y003042D01*
X014868Y003076D01*
X014913Y003113D01*
X014956Y003154D01*
X014997Y003197D01*
X015034Y003242D01*
X015068Y003290D01*
X015099Y003340D01*
X015127Y003392D01*
X015151Y003446D01*
X015172Y003501D01*
X015189Y003557D01*
X015203Y003614D01*
X015212Y003673D01*
X015218Y003731D01*
X015220Y003790D01*
X007812Y003002D02*
X007812Y003003D01*
X004412Y004802D02*
X004412Y004803D01*
M02*
