G75*
G70*
%OFA0B0*%
%FSLAX24Y24*%
%IPPOS*%
%LPD*%
%AMOC8*
5,1,8,0,0,1.08239X$1,22.5*
%
%ADD10C,0.0080*%
%ADD11R,0.0118X0.0620*%
%ADD12C,0.0100*%
%ADD13C,0.0000*%
D10*
X002847Y001615D02*
X002917Y001545D01*
X003057Y001545D01*
X003127Y001615D01*
X003057Y001755D02*
X002917Y001755D01*
X002847Y001685D01*
X002847Y001615D01*
X003057Y001755D02*
X003127Y001825D01*
X003127Y001895D01*
X003057Y001965D01*
X002917Y001965D01*
X002847Y001895D01*
X003307Y001895D02*
X003378Y001965D01*
X003518Y001965D01*
X003588Y001895D01*
X003588Y001825D01*
X003518Y001755D01*
X003378Y001755D01*
X003307Y001685D01*
X003307Y001615D01*
X003378Y001545D01*
X003518Y001545D01*
X003588Y001615D01*
X003768Y001545D02*
X003768Y001825D01*
X003908Y001965D01*
X004048Y001825D01*
X004048Y001545D01*
X004048Y001755D02*
X003768Y001755D01*
X004228Y001755D02*
X004298Y001685D01*
X004509Y001685D01*
X004228Y001755D02*
X004228Y001895D01*
X004298Y001965D01*
X004509Y001965D01*
X004509Y001545D01*
X004829Y001545D02*
X004829Y001755D01*
X004689Y001895D01*
X004689Y001965D01*
X004829Y001755D02*
X004969Y001895D01*
X004969Y001965D01*
X005149Y001895D02*
X005149Y001825D01*
X005219Y001755D01*
X005429Y001755D01*
X005219Y001755D02*
X005149Y001685D01*
X005149Y001615D01*
X005219Y001545D01*
X005429Y001545D01*
X005429Y001965D01*
X005219Y001965D01*
X005149Y001895D01*
X004479Y002261D02*
X003849Y002261D01*
X003849Y002262D02*
X003833Y002267D01*
X003817Y002275D01*
X003803Y002285D01*
X003791Y002297D01*
X003781Y002312D01*
X003774Y002328D01*
X003770Y002345D01*
X003769Y002362D01*
X003771Y002380D01*
X004480Y002262D02*
X004498Y002268D01*
X004516Y002277D01*
X004531Y002289D01*
X004543Y002305D01*
X004552Y002322D01*
X004558Y002341D01*
X004560Y002360D01*
X004558Y002380D01*
X004558Y002930D02*
X004560Y002950D01*
X004558Y002969D01*
X004552Y002988D01*
X004543Y003005D01*
X004531Y003021D01*
X004516Y003033D01*
X004498Y003042D01*
X004480Y003048D01*
X004479Y003049D02*
X003849Y003049D01*
X003849Y003048D02*
X003833Y003043D01*
X003817Y003035D01*
X003803Y003025D01*
X003791Y003013D01*
X003781Y002998D01*
X003774Y002982D01*
X003770Y002965D01*
X003769Y002948D01*
X003771Y002930D01*
X004705Y003390D02*
X005375Y003390D01*
X005375Y004020D02*
X004705Y004020D01*
X004705Y004490D02*
X005375Y004490D01*
X005375Y005120D02*
X004705Y005120D01*
X008290Y005895D02*
X008290Y003315D01*
X009590Y003315D01*
X009590Y005895D01*
X008290Y005895D01*
X008705Y004761D02*
X008652Y004707D01*
X008652Y004654D01*
X008705Y004600D01*
X008652Y004547D01*
X008652Y004494D01*
X008705Y004440D01*
X008812Y004440D01*
X008865Y004494D01*
X008758Y004600D02*
X008705Y004600D01*
X008865Y004707D02*
X008812Y004761D01*
X008705Y004761D01*
X009020Y004761D02*
X009020Y004494D01*
X009073Y004440D01*
X009180Y004440D01*
X009233Y004494D01*
X009233Y004761D01*
X011151Y005916D02*
X011940Y005916D01*
X011624Y006310D02*
X011387Y006468D01*
X011940Y007494D02*
X011994Y007492D01*
X012047Y007487D01*
X012101Y007477D01*
X012153Y007465D01*
X012204Y007448D01*
X012254Y007429D01*
X012303Y007406D01*
X012350Y007379D01*
X012395Y007350D01*
X012438Y007317D01*
X012479Y007282D01*
X012517Y007244D01*
X012552Y007203D01*
X012585Y007160D01*
X012614Y007115D01*
X012641Y007068D01*
X012664Y007019D01*
X012683Y006969D01*
X012700Y006918D01*
X012712Y006866D01*
X012722Y006812D01*
X012727Y006759D01*
X012729Y006705D01*
X012808Y006705D01*
X011387Y006468D02*
X011370Y006538D01*
X011357Y006608D01*
X011348Y006679D01*
X011342Y006751D01*
X011340Y006823D01*
X011342Y006895D01*
X011348Y006967D01*
X011357Y007038D01*
X011370Y007108D01*
X011387Y007178D01*
X011387Y007179D02*
X011545Y007258D01*
X011730Y007100D02*
X011732Y007131D01*
X011738Y007161D01*
X011748Y007191D01*
X011761Y007219D01*
X011778Y007245D01*
X011798Y007268D01*
X011821Y007289D01*
X011847Y007307D01*
X011874Y007321D01*
X011903Y007332D01*
X011933Y007339D01*
X011964Y007342D01*
X011995Y007341D01*
X012026Y007336D01*
X012056Y007327D01*
X012084Y007315D01*
X012110Y007298D01*
X012135Y007279D01*
X012156Y007257D01*
X012175Y007232D01*
X012190Y007205D01*
X012202Y007176D01*
X012210Y007146D01*
X012214Y007116D01*
X012214Y007084D01*
X012210Y007054D01*
X012202Y007024D01*
X012190Y006995D01*
X012175Y006968D01*
X012156Y006943D01*
X012135Y006921D01*
X012110Y006902D01*
X012084Y006885D01*
X012056Y006873D01*
X012026Y006864D01*
X011995Y006859D01*
X011964Y006858D01*
X011933Y006861D01*
X011903Y006868D01*
X011874Y006879D01*
X011847Y006893D01*
X011821Y006911D01*
X011798Y006932D01*
X011778Y006955D01*
X011761Y006981D01*
X011748Y007009D01*
X011738Y007039D01*
X011732Y007069D01*
X011730Y007100D01*
X011972Y007021D02*
X011974Y007039D01*
X011980Y007055D01*
X011989Y007070D01*
X012002Y007083D01*
X012017Y007092D01*
X012033Y007098D01*
X012051Y007100D01*
X012069Y007098D01*
X012085Y007092D01*
X012100Y007083D01*
X012113Y007070D01*
X012122Y007055D01*
X012128Y007039D01*
X012130Y007021D01*
X012128Y007003D01*
X012122Y006987D01*
X012113Y006972D01*
X012100Y006959D01*
X012085Y006950D01*
X012069Y006944D01*
X012051Y006942D01*
X012033Y006944D01*
X012017Y006950D01*
X012002Y006959D01*
X011989Y006972D01*
X011980Y006987D01*
X011974Y007003D01*
X011972Y007021D01*
X012729Y006705D02*
X012727Y006651D01*
X012722Y006598D01*
X012712Y006544D01*
X012700Y006492D01*
X012683Y006441D01*
X012664Y006391D01*
X012641Y006342D01*
X012614Y006295D01*
X012585Y006250D01*
X012552Y006207D01*
X012517Y006166D01*
X012479Y006128D01*
X012438Y006093D01*
X012395Y006060D01*
X012350Y006031D01*
X012303Y006004D01*
X012254Y005981D01*
X012204Y005962D01*
X012153Y005945D01*
X012101Y005933D01*
X012047Y005923D01*
X011994Y005918D01*
X011940Y005916D01*
X011151Y005916D02*
X011151Y007494D01*
X011940Y007494D01*
X011862Y008047D02*
X011864Y008009D01*
X011863Y007971D01*
X011857Y007933D01*
X011848Y007896D01*
X011835Y007859D01*
X011819Y007825D01*
X011799Y007792D01*
X011776Y007762D01*
X011749Y007734D01*
X011721Y007709D01*
X011689Y007687D01*
X011656Y007668D01*
X011621Y007652D01*
X011585Y007641D01*
X011547Y007633D01*
X011509Y007629D01*
X011471Y007628D01*
X011433Y007632D01*
X011395Y007640D01*
X011359Y007651D01*
X011324Y007666D01*
X011290Y007684D01*
X011259Y007706D01*
X011229Y007731D01*
X011861Y008047D02*
X011877Y008011D01*
X011895Y007976D01*
X011917Y007943D01*
X011942Y007912D01*
X011969Y007884D01*
X011999Y007859D01*
X012032Y007836D01*
X012066Y007817D01*
X012102Y007800D01*
X012139Y007788D01*
X012178Y007778D01*
X012217Y007773D01*
X012256Y007771D01*
X012295Y007773D01*
X012334Y007778D01*
X012373Y007788D01*
X012410Y007800D01*
X012446Y007817D01*
X012480Y007836D01*
X012513Y007859D01*
X012543Y007884D01*
X012570Y007912D01*
X012595Y007943D01*
X012617Y007976D01*
X012635Y008011D01*
X012651Y008047D01*
X012650Y008047D02*
X012639Y008005D01*
X012631Y007963D01*
X012627Y007919D01*
X012628Y007876D01*
X012632Y007833D01*
X012640Y007790D01*
X012652Y007749D01*
X012667Y007708D01*
X012686Y007669D01*
X012709Y007632D01*
X012735Y007598D01*
X012763Y007565D01*
X012795Y007536D01*
X012829Y007509D01*
X012866Y007486D01*
X012904Y007466D01*
X012944Y007449D01*
X012986Y007436D01*
X013028Y007427D01*
X013071Y007422D01*
X013114Y007421D01*
X013158Y007424D01*
X013201Y007430D01*
X013243Y007441D01*
X013284Y007455D01*
X013323Y007473D01*
X013361Y007494D01*
X013360Y007495D02*
X013324Y007463D01*
X013290Y007429D01*
X013259Y007391D01*
X013232Y007352D01*
X013207Y007310D01*
X013186Y007267D01*
X013169Y007222D01*
X013155Y007176D01*
X013145Y007128D01*
X013138Y007080D01*
X013136Y007032D01*
X013138Y006984D01*
X013143Y006936D01*
X013152Y006888D01*
X013165Y006842D01*
X013182Y006796D01*
X013202Y006753D01*
X013226Y006711D01*
X013253Y006671D01*
X013284Y006633D01*
X013317Y006598D01*
X013353Y006565D01*
X013391Y006536D01*
X013432Y006510D01*
X013474Y006487D01*
X013519Y006468D01*
X012808Y006705D02*
X012810Y006730D01*
X012816Y006754D01*
X012825Y006777D01*
X012838Y006798D01*
X012854Y006817D01*
X012873Y006833D01*
X012894Y006846D01*
X012917Y006855D01*
X012941Y006861D01*
X012966Y006863D01*
X012991Y006861D01*
X013015Y006855D01*
X013038Y006846D01*
X013059Y006833D01*
X013078Y006817D01*
X013094Y006798D01*
X013107Y006777D01*
X013116Y006754D01*
X013122Y006730D01*
X013124Y006705D01*
X013122Y006680D01*
X013116Y006656D01*
X013107Y006633D01*
X013094Y006612D01*
X013078Y006593D01*
X013059Y006577D01*
X013038Y006564D01*
X013015Y006555D01*
X012991Y006549D01*
X012966Y006547D01*
X012941Y006549D01*
X012917Y006555D01*
X012894Y006564D01*
X012873Y006577D01*
X012854Y006593D01*
X012838Y006612D01*
X012825Y006633D01*
X012816Y006656D01*
X012810Y006680D01*
X012808Y006705D01*
X011624Y006310D02*
X011597Y006393D01*
X011573Y006477D01*
X011553Y006562D01*
X011538Y006648D01*
X011526Y006735D01*
X011519Y006822D01*
X011516Y006909D01*
X011517Y006997D01*
X011522Y007084D01*
X011532Y007171D01*
X011545Y007257D01*
X011703Y006547D02*
X011705Y006582D01*
X011711Y006617D01*
X011721Y006651D01*
X011734Y006684D01*
X011751Y006715D01*
X011772Y006744D01*
X011796Y006770D01*
X011822Y006794D01*
X011851Y006815D01*
X011882Y006832D01*
X011915Y006845D01*
X011949Y006855D01*
X011984Y006861D01*
X012019Y006863D01*
X012054Y006861D01*
X012089Y006855D01*
X012123Y006845D01*
X012156Y006832D01*
X012187Y006815D01*
X012216Y006794D01*
X012242Y006770D01*
X012266Y006744D01*
X012287Y006715D01*
X012304Y006684D01*
X012317Y006651D01*
X012327Y006617D01*
X012333Y006582D01*
X012335Y006547D01*
X012333Y006512D01*
X012327Y006477D01*
X012317Y006443D01*
X012304Y006410D01*
X012287Y006379D01*
X012266Y006350D01*
X012242Y006324D01*
X012216Y006300D01*
X012187Y006279D01*
X012156Y006262D01*
X012123Y006249D01*
X012089Y006239D01*
X012054Y006233D01*
X012019Y006231D01*
X011984Y006233D01*
X011949Y006239D01*
X011915Y006249D01*
X011882Y006262D01*
X011851Y006279D01*
X011822Y006300D01*
X011796Y006324D01*
X011772Y006350D01*
X011751Y006379D01*
X011734Y006410D01*
X011721Y006443D01*
X011711Y006477D01*
X011705Y006512D01*
X011703Y006547D01*
X012019Y006468D02*
X012021Y006489D01*
X012027Y006509D01*
X012036Y006529D01*
X012048Y006546D01*
X012063Y006560D01*
X012081Y006572D01*
X012101Y006580D01*
X012121Y006585D01*
X012142Y006586D01*
X012163Y006583D01*
X012183Y006577D01*
X012202Y006566D01*
X012219Y006553D01*
X012232Y006537D01*
X012243Y006519D01*
X012251Y006499D01*
X012255Y006479D01*
X012255Y006457D01*
X012251Y006437D01*
X012243Y006417D01*
X012232Y006399D01*
X012219Y006383D01*
X012202Y006370D01*
X012183Y006359D01*
X012163Y006353D01*
X012142Y006350D01*
X012121Y006351D01*
X012101Y006356D01*
X012081Y006364D01*
X012063Y006376D01*
X012048Y006390D01*
X012036Y006407D01*
X012027Y006427D01*
X012021Y006447D01*
X012019Y006468D01*
X013045Y005441D02*
X013018Y005482D01*
X012994Y005525D01*
X012974Y005570D01*
X012957Y005615D01*
X012944Y005662D01*
X012934Y005710D01*
X012928Y005759D01*
X012925Y005807D01*
X012926Y005856D01*
X012931Y005905D01*
X012939Y005953D01*
X012951Y006000D01*
X012966Y006047D01*
X012985Y006092D01*
X013007Y006135D01*
X013033Y006177D01*
X013061Y006217D01*
X013092Y006254D01*
X013126Y006289D01*
X013163Y006322D01*
X013201Y006351D01*
X013242Y006378D01*
X013285Y006402D01*
X013330Y006422D01*
X013375Y006439D01*
X013422Y006452D01*
X013470Y006462D01*
X013519Y006468D01*
X012019Y005284D02*
X012020Y005327D01*
X012017Y005370D01*
X012010Y005413D01*
X012000Y005454D01*
X011986Y005495D01*
X011969Y005535D01*
X011948Y005572D01*
X011924Y005608D01*
X011897Y005641D01*
X011868Y005672D01*
X011835Y005701D01*
X011800Y005726D01*
X011764Y005748D01*
X011725Y005767D01*
X011685Y005783D01*
X011644Y005795D01*
X011601Y005803D01*
X011559Y005808D01*
X011516Y005809D01*
X011473Y005806D01*
X011430Y005799D01*
X011389Y005789D01*
X011348Y005775D01*
X011308Y005758D01*
X012019Y005284D02*
X012030Y005329D01*
X012044Y005373D01*
X012063Y005416D01*
X012085Y005457D01*
X012110Y005496D01*
X012139Y005533D01*
X012170Y005567D01*
X012205Y005599D01*
X012241Y005627D01*
X012281Y005653D01*
X012322Y005675D01*
X012364Y005693D01*
X012409Y005708D01*
X012454Y005719D01*
X012500Y005726D01*
X012546Y005729D01*
X012593Y005728D01*
X012639Y005723D01*
X012685Y005715D01*
X012730Y005703D01*
X012774Y005686D01*
X012816Y005667D01*
X012856Y005643D01*
X012895Y005617D01*
X012931Y005587D01*
X012964Y005555D01*
X012994Y005520D01*
X013022Y005482D01*
X013046Y005442D01*
X014580Y005005D02*
X014580Y004405D01*
X014582Y004388D01*
X014586Y004371D01*
X014593Y004355D01*
X014603Y004341D01*
X014616Y004328D01*
X014630Y004318D01*
X014646Y004311D01*
X014663Y004307D01*
X014680Y004305D01*
X015680Y004305D01*
X015697Y004307D01*
X015714Y004311D01*
X015730Y004318D01*
X015744Y004328D01*
X015757Y004341D01*
X015767Y004355D01*
X015774Y004371D01*
X015778Y004388D01*
X015780Y004405D01*
X015780Y005005D01*
X015778Y005022D01*
X015774Y005039D01*
X015767Y005055D01*
X015757Y005069D01*
X015744Y005082D01*
X015730Y005092D01*
X015714Y005099D01*
X015697Y005103D01*
X015680Y005105D01*
X014680Y005105D01*
X014663Y005103D01*
X014646Y005099D01*
X014630Y005092D01*
X014616Y005082D01*
X014603Y005069D01*
X014593Y005055D01*
X014586Y005039D01*
X014582Y005022D01*
X014580Y005005D01*
X015900Y004975D02*
X017005Y004975D01*
X016965Y004815D02*
X016805Y004815D01*
X016751Y004762D01*
X016751Y004709D01*
X016805Y004655D01*
X016965Y004655D01*
X016805Y004655D02*
X016751Y004602D01*
X016751Y004548D01*
X016805Y004495D01*
X016965Y004495D01*
X016965Y004815D01*
X016597Y004762D02*
X016597Y004548D01*
X016543Y004495D01*
X016436Y004495D01*
X016383Y004548D01*
X016383Y004762D01*
X016436Y004815D01*
X016543Y004815D01*
X016597Y004762D01*
X016228Y004815D02*
X016228Y004495D01*
X016015Y004495D01*
X016122Y004655D02*
X016228Y004655D01*
X016228Y004815D02*
X016015Y004815D01*
X015547Y004140D02*
X015333Y004140D01*
X015280Y004087D01*
X015280Y003927D01*
X015600Y003927D01*
X015600Y004087D01*
X015547Y004140D01*
X015100Y004087D02*
X015100Y003927D01*
X014780Y003927D01*
X014780Y004087D01*
X014833Y004140D01*
X015047Y004140D01*
X015100Y004087D01*
X015047Y003772D02*
X014833Y003772D01*
X014780Y003719D01*
X014780Y003558D01*
X015100Y003558D01*
X015100Y003719D01*
X015047Y003772D01*
X015280Y003772D02*
X015600Y003772D01*
X015600Y003558D02*
X015280Y003558D01*
X015333Y003404D02*
X015280Y003350D01*
X015280Y003243D01*
X015333Y003190D01*
X015547Y003190D01*
X015600Y003243D01*
X015600Y003350D01*
X015547Y003404D01*
X015440Y003404D02*
X015440Y003297D01*
X015440Y003404D02*
X015333Y003404D01*
X015100Y003404D02*
X014887Y003404D01*
X014780Y003297D01*
X014887Y003190D01*
X015100Y003190D01*
X015280Y003772D02*
X015600Y003558D01*
D11*
X005355Y003710D03*
X005355Y004810D03*
D12*
X010955Y004075D02*
X011170Y004290D01*
X011485Y004034D01*
X011568Y004080D01*
X011655Y004116D01*
X011747Y004142D01*
X011788Y004546D01*
X012092Y004546D01*
X012133Y004142D01*
X012225Y004116D01*
X012312Y004080D01*
X012395Y004034D01*
X012710Y004290D01*
X012925Y004075D01*
X012669Y003760D01*
X012715Y003677D01*
X012751Y003590D01*
X012777Y003498D01*
X013181Y003457D01*
X013181Y003153D01*
X012777Y003112D01*
X012751Y003020D01*
X012715Y002933D01*
X012669Y002850D01*
X012925Y002535D01*
X012710Y002320D01*
X012395Y002576D01*
X012312Y002530D01*
X012225Y002494D01*
X012133Y002468D01*
X012092Y002064D01*
X011788Y002064D01*
X011747Y002468D01*
X011655Y002494D01*
X011568Y002530D01*
X011485Y002576D01*
X011170Y002320D01*
X010955Y002535D01*
X011211Y002850D01*
X011176Y002912D01*
X011146Y002976D01*
X011579Y003156D01*
X011609Y003097D01*
X011649Y003045D01*
X011696Y003000D01*
X011751Y002963D01*
X011811Y002936D01*
X011875Y002920D01*
X011940Y002914D01*
X012013Y002921D01*
X012083Y002942D01*
X012149Y002975D01*
X012207Y003020D01*
X012255Y003074D01*
X012293Y003137D01*
X012318Y003206D01*
X012330Y003278D01*
X012328Y003352D01*
X012312Y003423D01*
X012284Y003491D01*
X012243Y003552D01*
X012192Y003604D01*
X012131Y003645D01*
X012065Y003675D01*
X011993Y003692D01*
X011920Y003695D01*
X011848Y003685D01*
X011778Y003661D01*
X011715Y003624D01*
X011659Y003576D01*
X011613Y003519D01*
X011579Y003454D01*
X011146Y003634D01*
X011176Y003698D01*
X011211Y003760D01*
X010955Y004075D01*
X010979Y004045D02*
X011471Y004045D01*
X011505Y004045D02*
X012375Y004045D01*
X012409Y004045D02*
X012901Y004045D01*
X012856Y004144D02*
X012530Y004144D01*
X012651Y004242D02*
X012758Y004242D01*
X012821Y003947D02*
X011059Y003947D01*
X011140Y003848D02*
X012740Y003848D01*
X012675Y003750D02*
X011205Y003750D01*
X011154Y003651D02*
X011762Y003651D01*
X011640Y003553D02*
X011342Y003553D01*
X012119Y003651D02*
X012725Y003651D01*
X012762Y003553D02*
X012242Y003553D01*
X012299Y003454D02*
X013181Y003454D01*
X013181Y003356D02*
X012327Y003356D01*
X012326Y003257D02*
X013181Y003257D01*
X013181Y003159D02*
X012301Y003159D01*
X012243Y003060D02*
X012762Y003060D01*
X012726Y002962D02*
X012123Y002962D01*
X011755Y002962D02*
X011153Y002962D01*
X011204Y002863D02*
X012676Y002863D01*
X012738Y002765D02*
X011142Y002765D01*
X011061Y002666D02*
X012819Y002666D01*
X012899Y002568D02*
X012406Y002568D01*
X012380Y002568D02*
X011500Y002568D01*
X011474Y002568D02*
X010981Y002568D01*
X011021Y002469D02*
X011353Y002469D01*
X011232Y002371D02*
X011120Y002371D01*
X011742Y002469D02*
X012138Y002469D01*
X012123Y002371D02*
X011757Y002371D01*
X011767Y002272D02*
X012113Y002272D01*
X012103Y002174D02*
X011777Y002174D01*
X011787Y002075D02*
X012093Y002075D01*
X012648Y002371D02*
X012760Y002371D01*
X012859Y002469D02*
X012527Y002469D01*
X011637Y003060D02*
X011349Y003060D01*
X011350Y004144D02*
X011024Y004144D01*
X011122Y004242D02*
X011229Y004242D01*
X011747Y004144D02*
X012133Y004144D01*
X012123Y004242D02*
X011757Y004242D01*
X011767Y004341D02*
X012113Y004341D01*
X012103Y004439D02*
X011777Y004439D01*
X011787Y004538D02*
X012093Y004538D01*
D13*
X015198Y004713D02*
X015219Y004713D01*
X015215Y004713D01*
X015214Y004712D01*
X015214Y004710D01*
X015215Y004709D01*
X015219Y004709D01*
X015215Y004709D02*
X015214Y004708D01*
X015214Y004706D01*
X015215Y004705D01*
X015219Y004705D01*
X015219Y004713D01*
X015212Y004712D02*
X015212Y004706D01*
X015211Y004705D01*
X015208Y004705D01*
X015207Y004706D01*
X015207Y004712D01*
X015208Y004713D01*
X015211Y004713D01*
X015212Y004712D01*
X015205Y004713D02*
X015205Y004705D01*
X015200Y004705D01*
X015202Y004709D02*
X015205Y004709D01*
X015205Y004713D02*
X015200Y004713D01*
M02*
