%
M48
M72
T01C0.0130
T02C0.0354
T03C0.0400
%
T01
X813Y1650
X1213Y1650
X1613Y1650
X2013Y1650
X2013Y2050
X1613Y2050
X1213Y2050
X813Y2050
X813Y2450
X1213Y2450
X1613Y2450
X2013Y2450
X2413Y2250
X2413Y2650
X2013Y2850
X1613Y2850
X1213Y2850
X813Y2850
X813Y3250
X1213Y3250
X1613Y3250
X2013Y3250
X2413Y3050
X2013Y3650
X1613Y3650
X1213Y3650
X813Y3650
X5463Y2450
T02
X2463Y1784
X2463Y3516
T03
X5163Y4400
X6163Y4400
X7163Y4400
X7063Y3150
X7063Y2150
X10063Y2150
X10063Y3150
M30
