%
M48
M72
T01C0.0130
T02C0.0354
T03C0.0400
%
T01
X1063Y705
X1463Y705
X2163Y505
X2563Y505
X3263Y705
X3663Y705
X3663Y1105
X3263Y1105
X2563Y905
X2163Y905
X1463Y1105
X1063Y1105
X2163Y1305
X2563Y1305
X2063Y1705
X1663Y1705
X1263Y1705
X863Y1705
X863Y2105
X1263Y2105
X1663Y2105
X2063Y2105
X2463Y2305
X2063Y2505
X1663Y2505
X1263Y2505
X863Y2505
X863Y2905
X1263Y2905
X1663Y2905
X2063Y2905
X2463Y3105
X2063Y3305
X1663Y3305
X1263Y3305
X863Y3305
X863Y3705
X1263Y3705
X1663Y3705
X2063Y3705
X2163Y4105
X2563Y4105
X3263Y4305
X3663Y4305
X3663Y4705
X3263Y4705
X2563Y4505
X2163Y4505
X1463Y4305
X1063Y4305
X1063Y4705
X1463Y4705
X2163Y4905
X2563Y4905
X2463Y2705
T02
X2463Y3571
X2463Y1839
T03
X4763Y1705
X4763Y2705
X4763Y3705
X7063Y3205
X7063Y2205
X10063Y2205
X10063Y3205
M30
