G75*
G70*
%OFA0B0*%
%FSLAX24Y24*%
%IPPOS*%
%LPD*%
%AMOC8*
5,1,8,0,0,1.08239X$1,22.5*
%
%ADD10C,0.0080*%
D10*
X000370Y000400D02*
X000370Y000900D01*
X000620Y001150D01*
X001120Y001150D01*
X001370Y000900D01*
X001620Y001150D01*
X002120Y001150D01*
X002370Y000900D01*
X002620Y001150D01*
X003120Y001150D01*
X003370Y000900D01*
X003370Y000400D01*
X003120Y000150D01*
X002620Y000150D01*
X002370Y000400D01*
X002120Y000150D01*
X001620Y000150D01*
X001370Y000400D01*
X001120Y000150D01*
X000620Y000150D01*
X000370Y000400D01*
X001370Y000400D02*
X001370Y000900D01*
X002370Y000900D02*
X002370Y000400D01*
X003160Y001764D02*
X003160Y001884D01*
X003200Y001924D01*
X003280Y001924D01*
X003320Y001884D01*
X003320Y001764D01*
X003320Y001844D02*
X003400Y001924D01*
X003360Y002059D02*
X003200Y002219D01*
X003360Y002219D01*
X003400Y002179D01*
X003400Y002099D01*
X003360Y002059D01*
X003200Y002059D01*
X003160Y002099D01*
X003160Y002179D01*
X003200Y002219D01*
X003360Y002353D02*
X003360Y002393D01*
X003400Y002393D01*
X003400Y002353D01*
X003360Y002353D01*
X003400Y002501D02*
X003240Y002661D01*
X003200Y002661D01*
X003160Y002621D01*
X003160Y002541D01*
X003200Y002501D01*
X003400Y002501D02*
X003400Y002661D01*
X003400Y002795D02*
X003240Y002795D01*
X003160Y002875D01*
X003240Y002955D01*
X003400Y002955D01*
X003280Y002955D02*
X003280Y002795D01*
X002855Y002309D02*
X000886Y002309D01*
X001536Y002900D02*
X001713Y002900D01*
X001713Y002683D01*
X001811Y002664D02*
X001811Y003136D01*
X001930Y003136D01*
X001930Y002664D01*
X001811Y002664D01*
X002028Y002683D02*
X002028Y002900D01*
X002028Y003117D01*
X002028Y002900D02*
X002185Y002900D01*
X001713Y002900D02*
X001713Y003117D01*
X000886Y003491D02*
X002855Y003491D01*
X003160Y001764D02*
X003400Y001764D01*
M02*
