G75*
G70*
%OFA0B0*%
%FSLAX24Y24*%
%IPPOS*%
%LPD*%
%AMOC8*
5,1,8,0,0,1.08239X$1,22.5*
%
%ADD10R,0.0787X0.0945*%
%ADD11R,0.0433X0.0394*%
%ADD12R,0.0600X0.0600*%
%ADD13OC8,0.0600*%
%ADD14C,0.0160*%
%ADD15C,0.0100*%
D10*
X001083Y002900D03*
X002658Y002900D03*
D11*
X002955Y001650D03*
X002286Y001650D03*
X001455Y001650D03*
X000786Y001650D03*
D12*
X002870Y000650D03*
D13*
X001870Y000650D03*
X000870Y000650D03*
D14*
X000786Y000735D01*
X000786Y001650D01*
X000786Y002603D01*
X001083Y002900D01*
X002286Y002528D02*
X002286Y001650D01*
X002286Y001065D01*
X001870Y000650D01*
X002870Y000650D02*
X002955Y000735D01*
X002955Y001650D01*
X002286Y002528D02*
X002658Y002900D01*
D15*
X000370Y003350D02*
X000370Y000300D01*
X000584Y000300D01*
X000420Y000464D01*
X000420Y000836D01*
X000556Y000972D01*
X000556Y001303D01*
X000507Y001303D01*
X000419Y001391D01*
X000419Y001909D01*
X000507Y001997D01*
X000556Y001997D01*
X000556Y002349D01*
X000539Y002365D01*
X000539Y003435D01*
X000627Y003522D01*
X001539Y003522D01*
X001627Y003435D01*
X001627Y002365D01*
X001539Y002278D01*
X001016Y002278D01*
X001016Y001997D01*
X001064Y001997D01*
X001120Y001941D01*
X001146Y001967D01*
X001181Y001987D01*
X001219Y001997D01*
X001407Y001997D01*
X001407Y001698D01*
X001504Y001698D01*
X001822Y001698D01*
X001822Y001867D01*
X001811Y001905D01*
X001792Y001939D01*
X001764Y001967D01*
X001730Y001987D01*
X001691Y001997D01*
X001504Y001997D01*
X001504Y001698D01*
X001504Y001602D01*
X001822Y001602D01*
X001822Y001433D01*
X001811Y001395D01*
X001792Y001361D01*
X001764Y001333D01*
X001730Y001313D01*
X001691Y001303D01*
X001504Y001303D01*
X001504Y001602D01*
X001407Y001602D01*
X001407Y001303D01*
X001219Y001303D01*
X001181Y001313D01*
X001146Y001333D01*
X001120Y001359D01*
X001064Y001303D01*
X001016Y001303D01*
X001016Y001100D01*
X001057Y001100D01*
X001320Y000836D01*
X001320Y000464D01*
X001157Y000300D01*
X001584Y000300D01*
X001420Y000464D01*
X001420Y000836D01*
X001684Y001100D01*
X001995Y001100D01*
X002056Y001161D01*
X002056Y001303D01*
X002007Y001303D01*
X001919Y001391D01*
X001919Y001909D01*
X002007Y001997D01*
X002056Y001997D01*
X002056Y002623D01*
X002114Y002682D01*
X002114Y003435D01*
X002202Y003522D01*
X003114Y003522D01*
X003202Y003435D01*
X003202Y002365D01*
X003114Y002278D01*
X002516Y002278D01*
X002516Y001997D01*
X002564Y001997D01*
X002620Y001941D01*
X002646Y001967D01*
X002681Y001987D01*
X002719Y001997D01*
X002907Y001997D01*
X002907Y001698D01*
X003004Y001698D01*
X003322Y001698D01*
X003322Y001867D01*
X003311Y001905D01*
X003292Y001939D01*
X003264Y001967D01*
X003230Y001987D01*
X003191Y001997D01*
X003004Y001997D01*
X003004Y001698D01*
X003004Y001602D01*
X003322Y001602D01*
X003322Y001433D01*
X003311Y001395D01*
X003292Y001361D01*
X003264Y001333D01*
X003230Y001313D01*
X003191Y001303D01*
X003004Y001303D01*
X003004Y001602D01*
X002907Y001602D01*
X002907Y001303D01*
X002719Y001303D01*
X002681Y001313D01*
X002646Y001333D01*
X002620Y001359D01*
X002564Y001303D01*
X002516Y001303D01*
X002516Y001091D01*
X002551Y001100D01*
X002820Y001100D01*
X002820Y000700D01*
X002820Y000600D01*
X002420Y000600D01*
X002420Y000330D01*
X002429Y000300D01*
X002157Y000300D01*
X002320Y000464D01*
X002320Y000775D01*
X002420Y000875D01*
X002420Y000700D01*
X002820Y000700D01*
X002920Y000700D01*
X002920Y001100D01*
X003190Y001100D01*
X003228Y001090D01*
X003263Y001070D01*
X003291Y001042D01*
X003310Y001008D01*
X003320Y000970D01*
X003320Y000700D01*
X002920Y000700D01*
X002920Y000600D01*
X003320Y000600D01*
X003320Y000330D01*
X003312Y000300D01*
X003370Y000300D01*
X003370Y003350D01*
X003364Y003418D01*
X003311Y003544D01*
X003215Y003641D01*
X003089Y003693D01*
X003020Y003700D01*
X000720Y003700D01*
X000652Y003693D01*
X000526Y003641D01*
X000429Y003544D01*
X000377Y003418D01*
X000370Y003350D01*
X000370Y003302D02*
X000539Y003302D01*
X000539Y003401D02*
X000375Y003401D01*
X000411Y003499D02*
X000604Y003499D01*
X000483Y003598D02*
X003258Y003598D01*
X003330Y003499D02*
X003137Y003499D01*
X003202Y003401D02*
X003365Y003401D01*
X003370Y003302D02*
X003202Y003302D01*
X003202Y003204D02*
X003370Y003204D01*
X003370Y003105D02*
X003202Y003105D01*
X003202Y003007D02*
X003370Y003007D01*
X003370Y002908D02*
X003202Y002908D01*
X003202Y002810D02*
X003370Y002810D01*
X003370Y002711D02*
X003202Y002711D01*
X003202Y002613D02*
X003370Y002613D01*
X003370Y002514D02*
X003202Y002514D01*
X003202Y002416D02*
X003370Y002416D01*
X003370Y002317D02*
X003153Y002317D01*
X003370Y002219D02*
X002516Y002219D01*
X002516Y002120D02*
X003370Y002120D01*
X003370Y002022D02*
X002516Y002022D01*
X002907Y001923D02*
X003004Y001923D01*
X003004Y001825D02*
X002907Y001825D01*
X002907Y001726D02*
X003004Y001726D01*
X003004Y001628D02*
X003370Y001628D01*
X003370Y001529D02*
X003322Y001529D01*
X003321Y001431D02*
X003370Y001431D01*
X003370Y001332D02*
X003262Y001332D01*
X003370Y001234D02*
X002516Y001234D01*
X002593Y001332D02*
X002648Y001332D01*
X002516Y001135D02*
X003370Y001135D01*
X003370Y001037D02*
X003294Y001037D01*
X003320Y000938D02*
X003370Y000938D01*
X003370Y000840D02*
X003320Y000840D01*
X003320Y000741D02*
X003370Y000741D01*
X003370Y000643D02*
X002920Y000643D01*
X002920Y000741D02*
X002820Y000741D01*
X002820Y000840D02*
X002920Y000840D01*
X002920Y000938D02*
X002820Y000938D01*
X002820Y001037D02*
X002920Y001037D01*
X002907Y001332D02*
X003004Y001332D01*
X003004Y001431D02*
X002907Y001431D01*
X002907Y001529D02*
X003004Y001529D01*
X003322Y001726D02*
X003370Y001726D01*
X003370Y001825D02*
X003322Y001825D01*
X003301Y001923D02*
X003370Y001923D01*
X002420Y000840D02*
X002385Y000840D01*
X002420Y000741D02*
X002320Y000741D01*
X002320Y000643D02*
X002820Y000643D01*
X002420Y000544D02*
X002320Y000544D01*
X002302Y000446D02*
X002420Y000446D01*
X002420Y000347D02*
X002204Y000347D01*
X001621Y001037D02*
X001120Y001037D01*
X001219Y000938D02*
X001522Y000938D01*
X001424Y000840D02*
X001317Y000840D01*
X001320Y000741D02*
X001420Y000741D01*
X001420Y000643D02*
X001320Y000643D01*
X001320Y000544D02*
X001420Y000544D01*
X001439Y000446D02*
X001302Y000446D01*
X001204Y000347D02*
X001537Y000347D01*
X002030Y001135D02*
X001016Y001135D01*
X001016Y001234D02*
X002056Y001234D01*
X001978Y001332D02*
X001762Y001332D01*
X001821Y001431D02*
X001919Y001431D01*
X001919Y001529D02*
X001822Y001529D01*
X001919Y001628D02*
X001504Y001628D01*
X001504Y001529D02*
X001407Y001529D01*
X001407Y001431D02*
X001504Y001431D01*
X001504Y001332D02*
X001407Y001332D01*
X001148Y001332D02*
X001093Y001332D01*
X001407Y001726D02*
X001504Y001726D01*
X001504Y001825D02*
X001407Y001825D01*
X001407Y001923D02*
X001504Y001923D01*
X001801Y001923D02*
X001933Y001923D01*
X001919Y001825D02*
X001822Y001825D01*
X001822Y001726D02*
X001919Y001726D01*
X002056Y002022D02*
X001016Y002022D01*
X001016Y002120D02*
X002056Y002120D01*
X002056Y002219D02*
X001016Y002219D01*
X000556Y002219D02*
X000370Y002219D01*
X000370Y002317D02*
X000556Y002317D01*
X000539Y002416D02*
X000370Y002416D01*
X000370Y002514D02*
X000539Y002514D01*
X000539Y002613D02*
X000370Y002613D01*
X000370Y002711D02*
X000539Y002711D01*
X000539Y002810D02*
X000370Y002810D01*
X000370Y002908D02*
X000539Y002908D01*
X000539Y003007D02*
X000370Y003007D01*
X000370Y003105D02*
X000539Y003105D01*
X000539Y003204D02*
X000370Y003204D01*
X000680Y003696D02*
X003061Y003696D01*
X002179Y003499D02*
X001562Y003499D01*
X001627Y003401D02*
X002114Y003401D01*
X002114Y003302D02*
X001627Y003302D01*
X001627Y003204D02*
X002114Y003204D01*
X002114Y003105D02*
X001627Y003105D01*
X001627Y003007D02*
X002114Y003007D01*
X002114Y002908D02*
X001627Y002908D01*
X001627Y002810D02*
X002114Y002810D01*
X002114Y002711D02*
X001627Y002711D01*
X001627Y002613D02*
X002056Y002613D01*
X002056Y002514D02*
X001627Y002514D01*
X001627Y002416D02*
X002056Y002416D01*
X002056Y002317D02*
X001578Y002317D01*
X000556Y002120D02*
X000370Y002120D01*
X000370Y002022D02*
X000556Y002022D01*
X000433Y001923D02*
X000370Y001923D01*
X000370Y001825D02*
X000419Y001825D01*
X000419Y001726D02*
X000370Y001726D01*
X000370Y001628D02*
X000419Y001628D01*
X000419Y001529D02*
X000370Y001529D01*
X000370Y001431D02*
X000419Y001431D01*
X000370Y001332D02*
X000478Y001332D01*
X000556Y001234D02*
X000370Y001234D01*
X000370Y001135D02*
X000556Y001135D01*
X000556Y001037D02*
X000370Y001037D01*
X000370Y000938D02*
X000522Y000938D01*
X000424Y000840D02*
X000370Y000840D01*
X000370Y000741D02*
X000420Y000741D01*
X000420Y000643D02*
X000370Y000643D01*
X000370Y000544D02*
X000420Y000544D01*
X000439Y000446D02*
X000370Y000446D01*
X000370Y000347D02*
X000537Y000347D01*
X003320Y000347D02*
X003370Y000347D01*
X003370Y000446D02*
X003320Y000446D01*
X003320Y000544D02*
X003370Y000544D01*
M02*
