%
M48
M72
T01C0.0320
T02C0.0400
T03C0.0472
%
T01
X860Y1860
X1860Y1860
X2860Y1860
X3860Y1860
X3860Y4860
X2860Y4860
X1860Y4860
X860Y4860
T02
X860Y860
X1860Y860
X2860Y860
X3860Y860
X5860Y3860
X6860Y3860
X6860Y4860
X5860Y4860
X5860Y5860
X6860Y5860
X3860Y5860
X2860Y5860
X1860Y5860
X860Y5860
T03
X4982Y1060
X7738Y1060
M30
