G75*
G70*
%OFA0B0*%
%FSLAX24Y24*%
%IPPOS*%
%LPD*%
%AMOC8*
5,1,8,0,0,1.08239X$1,22.5*
%
%ADD10R,0.0433X0.0394*%
%ADD11C,0.0480*%
%ADD12R,0.0945X0.0630*%
%ADD13C,0.0660*%
%ADD14C,0.0591*%
%ADD15C,0.0600*%
%ADD16C,0.0160*%
%ADD17C,0.0100*%
D10*
X001680Y002945D03*
X001680Y003615D03*
X001715Y004280D03*
X001045Y004280D03*
D11*
X001680Y005180D03*
X002680Y005180D03*
X003680Y005180D03*
X004680Y005180D03*
X004680Y002180D03*
X003680Y002180D03*
X002680Y002180D03*
X001680Y002180D03*
D12*
X002680Y003089D03*
X002680Y004271D03*
D13*
X006680Y004480D03*
X007680Y004480D03*
X007680Y005480D03*
X006680Y005480D03*
X006680Y006480D03*
X007680Y006480D03*
D14*
X008260Y002466D03*
X008260Y000694D03*
X005700Y000694D03*
X005700Y002466D03*
D15*
X004680Y001180D03*
X003680Y001180D03*
X002680Y001180D03*
X001680Y001180D03*
X001680Y006180D03*
X002680Y006180D03*
X003680Y006180D03*
X004680Y006180D03*
D16*
X000360Y007000D02*
X000360Y000360D01*
X005363Y000360D01*
X005338Y000385D01*
X005294Y000445D01*
X005260Y000512D01*
X005237Y000583D01*
X005225Y000657D01*
X005225Y000676D01*
X005682Y000676D01*
X005682Y000713D01*
X005682Y001169D01*
X005663Y001169D01*
X005589Y001158D01*
X005518Y001135D01*
X005451Y001101D01*
X005391Y001057D01*
X005338Y001004D01*
X005294Y000943D01*
X005260Y000877D01*
X005237Y000805D01*
X005225Y000732D01*
X005225Y000713D01*
X005682Y000713D01*
X005719Y000713D01*
X005719Y001169D01*
X005738Y001169D01*
X005812Y001158D01*
X005883Y001135D01*
X005950Y001101D01*
X006010Y001057D01*
X006063Y001004D01*
X006107Y000943D01*
X006141Y000877D01*
X006164Y000805D01*
X006176Y000732D01*
X006176Y000713D01*
X005719Y000713D01*
X005719Y000676D01*
X006176Y000676D01*
X006176Y000657D01*
X006164Y000583D01*
X006141Y000512D01*
X006107Y000445D01*
X006063Y000385D01*
X006038Y000360D01*
X007922Y000360D01*
X007897Y000385D01*
X007853Y000445D01*
X007819Y000512D01*
X007796Y000583D01*
X007784Y000657D01*
X007784Y000676D01*
X008241Y000676D01*
X008241Y000713D01*
X008241Y001169D01*
X008222Y001169D01*
X008148Y001158D01*
X008077Y001135D01*
X008010Y001101D01*
X007950Y001057D01*
X007897Y001004D01*
X007853Y000943D01*
X007819Y000877D01*
X007796Y000805D01*
X007784Y000732D01*
X007784Y000713D01*
X008241Y000713D01*
X008278Y000713D01*
X008278Y001169D01*
X008297Y001169D01*
X008371Y001158D01*
X008442Y001135D01*
X008509Y001101D01*
X008569Y001057D01*
X008600Y001026D01*
X008600Y002191D01*
X008506Y002097D01*
X008346Y002031D01*
X008173Y002031D01*
X008013Y002097D01*
X007891Y002219D01*
X007824Y002379D01*
X007824Y002552D01*
X007891Y002712D01*
X008013Y002835D01*
X008173Y002901D01*
X008346Y002901D01*
X008506Y002835D01*
X008600Y002741D01*
X008600Y007000D01*
X000360Y007000D01*
X000360Y006996D02*
X008600Y006996D01*
X008600Y006837D02*
X007988Y006837D01*
X007946Y006878D02*
X007773Y006950D01*
X007587Y006950D01*
X007414Y006878D01*
X007282Y006746D01*
X007210Y006573D01*
X007210Y006387D01*
X007242Y006310D01*
X007101Y006170D01*
X007035Y006170D01*
X007078Y006214D01*
X007150Y006387D01*
X007150Y006573D01*
X007078Y006746D01*
X006946Y006878D01*
X006773Y006950D01*
X006587Y006950D01*
X006414Y006878D01*
X006282Y006746D01*
X006210Y006573D01*
X006210Y006387D01*
X006282Y006214D01*
X006325Y006170D01*
X005901Y006170D01*
X005790Y006059D01*
X005790Y006059D01*
X005301Y005570D01*
X005190Y005459D01*
X005190Y004759D01*
X004892Y004461D01*
X003292Y004461D01*
X003292Y004644D01*
X003210Y004726D01*
X002150Y004726D01*
X002068Y004644D01*
X002068Y004538D01*
X001989Y004617D01*
X001870Y004617D01*
X001870Y004847D01*
X001895Y004858D01*
X002002Y004965D01*
X002060Y005104D01*
X002060Y005256D01*
X002002Y005395D01*
X001895Y005502D01*
X001756Y005560D01*
X001604Y005560D01*
X001465Y005502D01*
X001358Y005395D01*
X001300Y005256D01*
X001300Y005104D01*
X001358Y004965D01*
X001465Y004858D01*
X001490Y004847D01*
X001490Y004617D01*
X001440Y004617D01*
X001408Y004584D01*
X001406Y004587D01*
X001372Y004621D01*
X001331Y004645D01*
X001286Y004657D01*
X001064Y004657D01*
X001064Y004298D01*
X001027Y004298D01*
X001027Y004262D01*
X000649Y004262D01*
X000649Y004059D01*
X000661Y004014D01*
X000685Y003973D01*
X000718Y003939D01*
X000759Y003915D01*
X000805Y003903D01*
X001027Y003903D01*
X001027Y004262D01*
X001064Y004262D01*
X001064Y003903D01*
X001286Y003903D01*
X001331Y003915D01*
X001372Y003939D01*
X001406Y003973D01*
X001408Y003976D01*
X001432Y003951D01*
X001405Y003951D01*
X001323Y003869D01*
X001323Y003360D01*
X001403Y003280D01*
X001323Y003200D01*
X001323Y002691D01*
X001405Y002609D01*
X001490Y002609D01*
X001490Y002513D01*
X001465Y002502D01*
X001358Y002395D01*
X001300Y002256D01*
X001300Y002104D01*
X001358Y001965D01*
X001465Y001858D01*
X001604Y001800D01*
X001756Y001800D01*
X001895Y001858D01*
X002002Y001965D01*
X002060Y002104D01*
X002060Y002256D01*
X002002Y002395D01*
X001895Y002502D01*
X001870Y002513D01*
X001870Y002609D01*
X001955Y002609D01*
X002037Y002691D01*
X002037Y002717D01*
X002040Y002705D01*
X002064Y002664D01*
X002097Y002630D01*
X002138Y002607D01*
X002184Y002594D01*
X002603Y002594D01*
X002603Y003012D01*
X002757Y003012D01*
X002757Y002594D01*
X003176Y002594D01*
X003222Y002607D01*
X003263Y002630D01*
X003296Y002664D01*
X003320Y002705D01*
X003332Y002751D01*
X003332Y003012D01*
X002757Y003012D01*
X002757Y003167D01*
X002603Y003167D01*
X002603Y003584D01*
X002184Y003584D01*
X002138Y003572D01*
X002097Y003548D01*
X002064Y003515D01*
X002040Y003474D01*
X002037Y003462D01*
X002037Y003869D01*
X001963Y003943D01*
X001989Y003943D01*
X002068Y004022D01*
X002068Y003898D01*
X002150Y003816D01*
X003210Y003816D01*
X003292Y003898D01*
X003292Y004081D01*
X005049Y004081D01*
X005459Y004490D01*
X005570Y004601D01*
X005570Y005301D01*
X006059Y005790D01*
X006325Y005790D01*
X006282Y005746D01*
X006210Y005573D01*
X006210Y005387D01*
X006282Y005214D01*
X006414Y005082D01*
X006587Y005010D01*
X006773Y005010D01*
X006946Y005082D01*
X007078Y005214D01*
X007150Y005387D01*
X007150Y005573D01*
X007078Y005746D01*
X007035Y005790D01*
X007259Y005790D01*
X007370Y005901D01*
X007510Y006042D01*
X007587Y006010D01*
X007773Y006010D01*
X007946Y006082D01*
X008078Y006214D01*
X008150Y006387D01*
X008150Y006573D01*
X008078Y006746D01*
X007946Y006878D01*
X008106Y006679D02*
X008600Y006679D01*
X008600Y006520D02*
X008150Y006520D01*
X008140Y006362D02*
X008600Y006362D01*
X008600Y006203D02*
X008068Y006203D01*
X007857Y006045D02*
X008600Y006045D01*
X008600Y005886D02*
X007928Y005886D01*
X007946Y005878D02*
X007773Y005950D01*
X007587Y005950D01*
X007414Y005878D01*
X007282Y005746D01*
X007210Y005573D01*
X007210Y005387D01*
X007282Y005214D01*
X007414Y005082D01*
X007587Y005010D01*
X007773Y005010D01*
X007946Y005082D01*
X008078Y005214D01*
X008150Y005387D01*
X008150Y005573D01*
X008078Y005746D01*
X007946Y005878D01*
X008086Y005728D02*
X008600Y005728D01*
X008600Y005569D02*
X008150Y005569D01*
X008150Y005411D02*
X008600Y005411D01*
X008600Y005252D02*
X008094Y005252D01*
X007958Y005094D02*
X008600Y005094D01*
X008600Y004935D02*
X007910Y004935D01*
X007876Y004953D02*
X007799Y004977D01*
X007720Y004990D01*
X007700Y004990D01*
X007700Y004500D01*
X007660Y004500D01*
X007660Y004990D01*
X007640Y004990D01*
X007561Y004977D01*
X007484Y004953D01*
X007413Y004916D01*
X007348Y004869D01*
X007291Y004812D01*
X007244Y004747D01*
X007207Y004676D01*
X007183Y004599D01*
X007170Y004520D01*
X007170Y004500D01*
X007660Y004500D01*
X007660Y004460D01*
X007170Y004460D01*
X007170Y004440D01*
X007183Y004361D01*
X007207Y004284D01*
X007244Y004213D01*
X007291Y004148D01*
X007348Y004091D01*
X007413Y004044D01*
X007484Y004007D01*
X007561Y003983D01*
X007640Y003970D01*
X007660Y003970D01*
X007660Y004460D01*
X007700Y004460D01*
X007700Y004500D01*
X008190Y004500D01*
X008190Y004520D01*
X008177Y004599D01*
X008153Y004676D01*
X008116Y004747D01*
X008069Y004812D01*
X008012Y004869D01*
X007947Y004916D01*
X007876Y004953D01*
X007700Y004935D02*
X007660Y004935D01*
X007450Y004935D02*
X006810Y004935D01*
X006773Y004950D02*
X006946Y004878D01*
X007078Y004746D01*
X007150Y004573D01*
X007150Y004387D01*
X007078Y004214D01*
X006946Y004082D01*
X006773Y004010D01*
X006587Y004010D01*
X006414Y004082D01*
X006282Y004214D01*
X006210Y004387D01*
X006210Y004573D01*
X006282Y004746D01*
X006414Y004878D01*
X006587Y004950D01*
X006773Y004950D01*
X006550Y004935D02*
X005570Y004935D01*
X005570Y005094D02*
X006402Y005094D01*
X006266Y005252D02*
X005570Y005252D01*
X005679Y005411D02*
X006210Y005411D01*
X006210Y005569D02*
X005838Y005569D01*
X005996Y005728D02*
X006274Y005728D01*
X005776Y006045D02*
X005100Y006045D01*
X005120Y006092D02*
X005053Y005931D01*
X004929Y005807D01*
X004768Y005740D01*
X004592Y005740D01*
X004431Y005807D01*
X004307Y005931D01*
X004240Y006092D01*
X004240Y006268D01*
X004307Y006429D01*
X004431Y006553D01*
X004592Y006620D01*
X004768Y006620D01*
X004929Y006553D01*
X005053Y006429D01*
X005120Y006268D01*
X005120Y006092D01*
X005120Y006203D02*
X006292Y006203D01*
X006220Y006362D02*
X005081Y006362D01*
X004962Y006520D02*
X006210Y006520D01*
X006254Y006679D02*
X000360Y006679D01*
X000360Y006837D02*
X006372Y006837D01*
X006988Y006837D02*
X007372Y006837D01*
X007254Y006679D02*
X007106Y006679D01*
X007150Y006520D02*
X007210Y006520D01*
X007220Y006362D02*
X007140Y006362D01*
X007134Y006203D02*
X007068Y006203D01*
X007355Y005886D02*
X007432Y005886D01*
X007274Y005728D02*
X007086Y005728D01*
X007150Y005569D02*
X007210Y005569D01*
X007210Y005411D02*
X007150Y005411D01*
X007094Y005252D02*
X007266Y005252D01*
X007402Y005094D02*
X006958Y005094D01*
X007048Y004777D02*
X007265Y004777D01*
X007189Y004618D02*
X007132Y004618D01*
X007150Y004460D02*
X007170Y004460D01*
X007202Y004301D02*
X007115Y004301D01*
X007007Y004143D02*
X007296Y004143D01*
X007556Y003984D02*
X003292Y003984D01*
X003220Y003826D02*
X008600Y003826D01*
X008600Y003667D02*
X002037Y003667D01*
X002037Y003509D02*
X002060Y003509D01*
X002037Y003826D02*
X002140Y003826D01*
X002068Y003984D02*
X002030Y003984D01*
X002603Y003509D02*
X002757Y003509D01*
X002757Y003584D02*
X002757Y003167D01*
X003332Y003167D01*
X003332Y003428D01*
X003320Y003474D01*
X003296Y003515D01*
X003263Y003548D01*
X003222Y003572D01*
X003176Y003584D01*
X002757Y003584D01*
X002757Y003350D02*
X002603Y003350D01*
X002603Y003192D02*
X002757Y003192D01*
X002757Y003033D02*
X008600Y003033D01*
X008600Y002875D02*
X008410Y002875D01*
X008109Y002875D02*
X005851Y002875D01*
X005787Y002901D02*
X005947Y002835D01*
X006069Y002712D01*
X006136Y002552D01*
X006136Y002379D01*
X006069Y002219D01*
X005947Y002097D01*
X005787Y002031D01*
X005614Y002031D01*
X005454Y002097D01*
X005331Y002219D01*
X005265Y002379D01*
X005265Y002552D01*
X005331Y002712D01*
X005454Y002835D01*
X005614Y002901D01*
X005787Y002901D01*
X005550Y002875D02*
X003332Y002875D01*
X003323Y002716D02*
X005335Y002716D01*
X005267Y002558D02*
X004864Y002558D01*
X004841Y002569D02*
X004778Y002590D01*
X004713Y002600D01*
X004680Y002600D01*
X004680Y002180D01*
X004680Y002180D01*
X005100Y002180D01*
X005100Y002213D01*
X005090Y002278D01*
X005069Y002341D01*
X005039Y002400D01*
X005000Y002454D01*
X004954Y002500D01*
X004900Y002539D01*
X004841Y002569D01*
X004680Y002558D02*
X004680Y002558D01*
X004680Y002600D02*
X004647Y002600D01*
X004582Y002590D01*
X004519Y002569D01*
X004460Y002539D01*
X004406Y002500D01*
X004360Y002454D01*
X004321Y002400D01*
X004291Y002341D01*
X004270Y002278D01*
X004260Y002213D01*
X004260Y002180D01*
X004680Y002180D01*
X004680Y002180D01*
X004680Y002180D01*
X004680Y002600D01*
X004496Y002558D02*
X003762Y002558D01*
X003756Y002560D02*
X003604Y002560D01*
X003465Y002502D01*
X003358Y002395D01*
X003300Y002256D01*
X003300Y002104D01*
X003358Y001965D01*
X003465Y001858D01*
X003604Y001800D01*
X003756Y001800D01*
X003895Y001858D01*
X004002Y001965D01*
X004060Y002104D01*
X004060Y002256D01*
X004002Y002395D01*
X003895Y002502D01*
X003756Y002560D01*
X003598Y002558D02*
X002762Y002558D01*
X002756Y002560D02*
X002604Y002560D01*
X002465Y002502D01*
X002358Y002395D01*
X002300Y002256D01*
X002300Y002104D01*
X002358Y001965D01*
X002465Y001858D01*
X002604Y001800D01*
X002756Y001800D01*
X002895Y001858D01*
X003002Y001965D01*
X003060Y002104D01*
X003060Y002256D01*
X003002Y002395D01*
X002895Y002502D01*
X002756Y002560D01*
X002598Y002558D02*
X001870Y002558D01*
X001998Y002399D02*
X002362Y002399D01*
X002300Y002241D02*
X002060Y002241D01*
X002051Y002082D02*
X002309Y002082D01*
X002399Y001924D02*
X001961Y001924D01*
X001768Y001620D02*
X001592Y001620D01*
X001431Y001553D01*
X001307Y001429D01*
X001240Y001268D01*
X001240Y001092D01*
X001307Y000931D01*
X001431Y000807D01*
X001592Y000740D01*
X001768Y000740D01*
X001929Y000807D01*
X002053Y000931D01*
X002120Y001092D01*
X002120Y001268D01*
X002053Y001429D01*
X001929Y001553D01*
X001768Y001620D01*
X001800Y001607D02*
X002560Y001607D01*
X002592Y001620D02*
X002431Y001553D01*
X002307Y001429D01*
X002240Y001268D01*
X002240Y001092D01*
X002307Y000931D01*
X002431Y000807D01*
X002592Y000740D01*
X002768Y000740D01*
X002929Y000807D01*
X003053Y000931D01*
X003120Y001092D01*
X003120Y001268D01*
X003053Y001429D01*
X002929Y001553D01*
X002768Y001620D01*
X002592Y001620D01*
X002800Y001607D02*
X003560Y001607D01*
X003592Y001620D02*
X003431Y001553D01*
X003307Y001429D01*
X003240Y001268D01*
X003240Y001092D01*
X003307Y000931D01*
X003431Y000807D01*
X003592Y000740D01*
X003768Y000740D01*
X003929Y000807D01*
X004053Y000931D01*
X004120Y001092D01*
X004120Y001268D01*
X004053Y001429D01*
X003929Y001553D01*
X003768Y001620D01*
X003592Y001620D01*
X003800Y001607D02*
X004460Y001607D01*
X004428Y001591D02*
X004496Y001625D01*
X004568Y001648D01*
X004642Y001660D01*
X004660Y001660D01*
X004660Y001200D01*
X004700Y001200D01*
X005160Y001200D01*
X005160Y001218D01*
X005148Y001292D01*
X005125Y001364D01*
X005091Y001432D01*
X005046Y001493D01*
X004993Y001546D01*
X004932Y001591D01*
X004864Y001625D01*
X004792Y001648D01*
X004718Y001660D01*
X004700Y001660D01*
X004700Y001200D01*
X004700Y001160D01*
X005160Y001160D01*
X005160Y001142D01*
X005148Y001068D01*
X005125Y000996D01*
X005091Y000928D01*
X005046Y000867D01*
X004993Y000814D01*
X005240Y000814D01*
X005315Y000973D02*
X005113Y000973D01*
X005158Y001131D02*
X005511Y001131D01*
X005682Y001131D02*
X005719Y001131D01*
X005719Y000973D02*
X005682Y000973D01*
X005682Y000814D02*
X005719Y000814D01*
X005890Y001131D02*
X008070Y001131D01*
X008241Y001131D02*
X008278Y001131D01*
X008278Y000973D02*
X008241Y000973D01*
X008241Y000814D02*
X008278Y000814D01*
X008449Y001131D02*
X008600Y001131D01*
X008600Y001290D02*
X005149Y001290D01*
X005079Y001448D02*
X008600Y001448D01*
X008600Y001607D02*
X004900Y001607D01*
X004700Y001607D02*
X004660Y001607D01*
X004647Y001760D02*
X004582Y001770D01*
X004519Y001791D01*
X004460Y001821D01*
X004406Y001860D01*
X004360Y001906D01*
X004321Y001960D01*
X004291Y002019D01*
X004270Y002082D01*
X004051Y002082D01*
X004060Y002241D02*
X004264Y002241D01*
X004260Y002180D02*
X004260Y002147D01*
X004270Y002082D01*
X004260Y002180D02*
X004680Y002180D01*
X005100Y002180D01*
X005100Y002147D01*
X005090Y002082D01*
X005490Y002082D01*
X005323Y002241D02*
X005096Y002241D01*
X005090Y002082D02*
X005069Y002019D01*
X005039Y001960D01*
X005000Y001906D01*
X004954Y001860D01*
X004900Y001821D01*
X004841Y001791D01*
X004778Y001770D01*
X004713Y001760D01*
X004680Y001760D01*
X004680Y002180D01*
X004680Y002180D01*
X004680Y001760D01*
X004647Y001760D01*
X004615Y001765D02*
X000360Y001765D01*
X000360Y001607D02*
X001560Y001607D01*
X001326Y001448D02*
X000360Y001448D01*
X000360Y001290D02*
X001249Y001290D01*
X001240Y001131D02*
X000360Y001131D01*
X000360Y000973D02*
X001290Y000973D01*
X001424Y000814D02*
X000360Y000814D01*
X000360Y000656D02*
X005225Y000656D01*
X005268Y000497D02*
X000360Y000497D01*
X001936Y000814D02*
X002424Y000814D01*
X002290Y000973D02*
X002070Y000973D01*
X002120Y001131D02*
X002240Y001131D01*
X002249Y001290D02*
X002111Y001290D01*
X002034Y001448D02*
X002326Y001448D01*
X002961Y001924D02*
X003399Y001924D01*
X003309Y002082D02*
X003051Y002082D01*
X003060Y002241D02*
X003300Y002241D01*
X003362Y002399D02*
X002998Y002399D01*
X002757Y002716D02*
X002603Y002716D01*
X002603Y002875D02*
X002757Y002875D01*
X003332Y003192D02*
X008600Y003192D01*
X008600Y003350D02*
X003332Y003350D01*
X003300Y003509D02*
X008600Y003509D01*
X008600Y003984D02*
X007804Y003984D01*
X007799Y003983D02*
X007876Y004007D01*
X007947Y004044D01*
X008012Y004091D01*
X008069Y004148D01*
X008116Y004213D01*
X008153Y004284D01*
X008177Y004361D01*
X008190Y004440D01*
X008190Y004460D01*
X007700Y004460D01*
X007700Y003970D01*
X007720Y003970D01*
X007799Y003983D01*
X007700Y003984D02*
X007660Y003984D01*
X007660Y004143D02*
X007700Y004143D01*
X007700Y004301D02*
X007660Y004301D01*
X007660Y004460D02*
X007700Y004460D01*
X007700Y004618D02*
X007660Y004618D01*
X007660Y004777D02*
X007700Y004777D01*
X008095Y004777D02*
X008600Y004777D01*
X008600Y004618D02*
X008171Y004618D01*
X008190Y004460D02*
X008600Y004460D01*
X008600Y004301D02*
X008158Y004301D01*
X008064Y004143D02*
X008600Y004143D01*
X007894Y002716D02*
X006066Y002716D01*
X006134Y002558D02*
X007826Y002558D01*
X007824Y002399D02*
X006136Y002399D01*
X006078Y002241D02*
X007882Y002241D01*
X008049Y002082D02*
X005911Y002082D01*
X005265Y002399D02*
X005040Y002399D01*
X004680Y002399D02*
X004680Y002399D01*
X004680Y002241D02*
X004680Y002241D01*
X004680Y002082D02*
X004680Y002082D01*
X004680Y001924D02*
X004680Y001924D01*
X004680Y001765D02*
X004680Y001765D01*
X004745Y001765D02*
X008600Y001765D01*
X008600Y001924D02*
X005013Y001924D01*
X004700Y001448D02*
X004660Y001448D01*
X004660Y001290D02*
X004700Y001290D01*
X004660Y001200D02*
X004660Y001160D01*
X004700Y001160D01*
X004700Y000700D01*
X004718Y000700D01*
X004792Y000712D01*
X004864Y000735D01*
X004932Y000769D01*
X004993Y000814D01*
X004700Y000814D02*
X004660Y000814D01*
X004660Y000700D02*
X004660Y001160D01*
X004200Y001160D01*
X004200Y001142D01*
X004212Y001068D01*
X004235Y000996D01*
X004269Y000928D01*
X004314Y000867D01*
X004367Y000814D01*
X003936Y000814D01*
X004070Y000973D02*
X004247Y000973D01*
X004202Y001131D02*
X004120Y001131D01*
X004200Y001200D02*
X004660Y001200D01*
X004660Y001131D02*
X004700Y001131D01*
X004700Y000973D02*
X004660Y000973D01*
X004496Y000735D02*
X004428Y000769D01*
X004367Y000814D01*
X004496Y000735D02*
X004568Y000712D01*
X004642Y000700D01*
X004660Y000700D01*
X004200Y001200D02*
X004200Y001218D01*
X004212Y001292D01*
X004235Y001364D01*
X004269Y001432D01*
X004314Y001493D01*
X004367Y001546D01*
X004428Y001591D01*
X004281Y001448D02*
X004034Y001448D01*
X004111Y001290D02*
X004211Y001290D01*
X004347Y001924D02*
X003961Y001924D01*
X003998Y002399D02*
X004320Y002399D01*
X003326Y001448D02*
X003034Y001448D01*
X003111Y001290D02*
X003249Y001290D01*
X003240Y001131D02*
X003120Y001131D01*
X003070Y000973D02*
X003290Y000973D01*
X003424Y000814D02*
X002936Y000814D01*
X001399Y001924D02*
X000360Y001924D01*
X000360Y002082D02*
X001309Y002082D01*
X001300Y002241D02*
X000360Y002241D01*
X000360Y002399D02*
X001362Y002399D01*
X001490Y002558D02*
X000360Y002558D01*
X000360Y002716D02*
X001323Y002716D01*
X001323Y002875D02*
X000360Y002875D01*
X000360Y003033D02*
X001323Y003033D01*
X001323Y003192D02*
X000360Y003192D01*
X000360Y003350D02*
X001333Y003350D01*
X001323Y003509D02*
X000360Y003509D01*
X000360Y003667D02*
X001323Y003667D01*
X001323Y003826D02*
X000360Y003826D01*
X000360Y003984D02*
X000678Y003984D01*
X000649Y004143D02*
X000360Y004143D01*
X000360Y004301D02*
X000649Y004301D01*
X000649Y004298D02*
X001027Y004298D01*
X001027Y004657D01*
X000805Y004657D01*
X000759Y004645D01*
X000718Y004621D01*
X000685Y004587D01*
X000661Y004546D01*
X000649Y004501D01*
X000649Y004298D01*
X000649Y004460D02*
X000360Y004460D01*
X000360Y004618D02*
X000715Y004618D01*
X001027Y004618D02*
X001064Y004618D01*
X001064Y004460D02*
X001027Y004460D01*
X001027Y004301D02*
X001064Y004301D01*
X001064Y004143D02*
X001027Y004143D01*
X001027Y003984D02*
X001064Y003984D01*
X001375Y004618D02*
X001490Y004618D01*
X001490Y004777D02*
X000360Y004777D01*
X000360Y004935D02*
X001388Y004935D01*
X001305Y005094D02*
X000360Y005094D01*
X000360Y005252D02*
X001300Y005252D01*
X001373Y005411D02*
X000360Y005411D01*
X000360Y005569D02*
X005300Y005569D01*
X005301Y005570D02*
X005301Y005570D01*
X005190Y005411D02*
X004987Y005411D01*
X005002Y005395D02*
X004895Y005502D01*
X004756Y005560D01*
X004604Y005560D01*
X004465Y005502D01*
X004358Y005395D01*
X004300Y005256D01*
X004300Y005104D01*
X004358Y004965D01*
X004465Y004858D01*
X004604Y004800D01*
X004756Y004800D01*
X004895Y004858D01*
X005002Y004965D01*
X005060Y005104D01*
X005060Y005256D01*
X005002Y005395D01*
X005060Y005252D02*
X005190Y005252D01*
X005190Y005094D02*
X005055Y005094D01*
X004972Y004935D02*
X005190Y004935D01*
X005190Y004777D02*
X001870Y004777D01*
X001870Y004618D02*
X002068Y004618D01*
X002358Y004965D02*
X002465Y004858D01*
X002604Y004800D01*
X002756Y004800D01*
X002895Y004858D01*
X003002Y004965D01*
X003060Y005104D01*
X003060Y005256D01*
X003002Y005395D01*
X002895Y005502D01*
X002756Y005560D01*
X002604Y005560D01*
X002465Y005502D01*
X002358Y005395D01*
X002300Y005256D01*
X002300Y005104D01*
X002358Y004965D01*
X002388Y004935D02*
X001972Y004935D01*
X002055Y005094D02*
X002305Y005094D01*
X002300Y005252D02*
X002060Y005252D01*
X001987Y005411D02*
X002373Y005411D01*
X002592Y005740D02*
X002768Y005740D01*
X002929Y005807D01*
X003053Y005931D01*
X003120Y006092D01*
X003120Y006268D01*
X003053Y006429D01*
X002929Y006553D01*
X002768Y006620D01*
X002592Y006620D01*
X002431Y006553D01*
X002307Y006429D01*
X002240Y006268D01*
X002240Y006092D01*
X002307Y005931D01*
X002431Y005807D01*
X002592Y005740D01*
X002352Y005886D02*
X002008Y005886D01*
X002053Y005931D02*
X001929Y005807D01*
X001768Y005740D01*
X001592Y005740D01*
X001431Y005807D01*
X001307Y005931D01*
X001240Y006092D01*
X001240Y006268D01*
X001307Y006429D01*
X001431Y006553D01*
X001592Y006620D01*
X001768Y006620D01*
X001929Y006553D01*
X002053Y006429D01*
X002120Y006268D01*
X002120Y006092D01*
X002053Y005931D01*
X002100Y006045D02*
X002260Y006045D01*
X002240Y006203D02*
X002120Y006203D01*
X002081Y006362D02*
X002279Y006362D01*
X002398Y006520D02*
X001962Y006520D01*
X001398Y006520D02*
X000360Y006520D01*
X000360Y006362D02*
X001279Y006362D01*
X001240Y006203D02*
X000360Y006203D01*
X000360Y006045D02*
X001260Y006045D01*
X001352Y005886D02*
X000360Y005886D01*
X000360Y005728D02*
X005459Y005728D01*
X005617Y005886D02*
X005008Y005886D01*
X004373Y005411D02*
X003987Y005411D01*
X004002Y005395D02*
X003895Y005502D01*
X003756Y005560D01*
X003604Y005560D01*
X003465Y005502D01*
X003358Y005395D01*
X003300Y005256D01*
X003300Y005104D01*
X003358Y004965D01*
X003465Y004858D01*
X003604Y004800D01*
X003756Y004800D01*
X003895Y004858D01*
X004002Y004965D01*
X004060Y005104D01*
X004060Y005256D01*
X004002Y005395D01*
X004060Y005252D02*
X004300Y005252D01*
X004305Y005094D02*
X004055Y005094D01*
X003972Y004935D02*
X004388Y004935D01*
X005049Y004618D02*
X003292Y004618D01*
X002936Y004271D02*
X002680Y004271D01*
X002972Y004935D02*
X003388Y004935D01*
X003305Y005094D02*
X003055Y005094D01*
X003060Y005252D02*
X003300Y005252D01*
X003373Y005411D02*
X002987Y005411D01*
X003431Y005807D02*
X003592Y005740D01*
X003768Y005740D01*
X003929Y005807D01*
X004053Y005931D01*
X004120Y006092D01*
X004120Y006268D01*
X004053Y006429D01*
X003929Y006553D01*
X003768Y006620D01*
X003592Y006620D01*
X003431Y006553D01*
X003307Y006429D01*
X003240Y006268D01*
X003240Y006092D01*
X003307Y005931D01*
X003431Y005807D01*
X003352Y005886D02*
X003008Y005886D01*
X003100Y006045D02*
X003260Y006045D01*
X003240Y006203D02*
X003120Y006203D01*
X003081Y006362D02*
X003279Y006362D01*
X003398Y006520D02*
X002962Y006520D01*
X003962Y006520D02*
X004398Y006520D01*
X004279Y006362D02*
X004081Y006362D01*
X004120Y006203D02*
X004240Y006203D01*
X004260Y006045D02*
X004100Y006045D01*
X004008Y005886D02*
X004352Y005886D01*
X005570Y004777D02*
X006312Y004777D01*
X006228Y004618D02*
X005570Y004618D01*
X005428Y004460D02*
X006210Y004460D01*
X006245Y004301D02*
X005270Y004301D01*
X005111Y004143D02*
X006353Y004143D01*
X008470Y002082D02*
X008600Y002082D01*
X007874Y000973D02*
X006086Y000973D01*
X006161Y000814D02*
X007799Y000814D01*
X007784Y000656D02*
X006176Y000656D01*
X006133Y000497D02*
X007827Y000497D01*
X002037Y002716D02*
X002037Y002716D01*
D17*
X001680Y002945D02*
X001680Y002180D01*
X001680Y003615D02*
X001715Y003649D01*
X001715Y004280D01*
X002671Y004280D01*
X002680Y004271D01*
X002936Y004271D02*
X004971Y004271D01*
X005380Y004680D01*
X005380Y005380D01*
X005980Y005980D01*
X007180Y005980D01*
X007680Y006480D01*
X001715Y004280D02*
X001680Y004315D01*
X001680Y005180D01*
M02*
