G75*
G70*
%OFA0B0*%
%FSLAX24Y24*%
%IPPOS*%
%LPD*%
%AMOC8*
5,1,8,0,0,1.08239X$1,22.5*
%
%ADD10C,0.0080*%
%ADD11C,0.0160*%
D10*
X000180Y000180D02*
X000180Y007180D01*
X008780Y007180D01*
X008780Y000180D01*
X000180Y000180D01*
X000370Y000520D02*
X000740Y000520D01*
X000740Y000705D01*
X000678Y000767D01*
X000555Y000767D01*
X000493Y000705D01*
X000493Y000520D01*
X000555Y000934D02*
X000678Y000934D01*
X000740Y000996D01*
X000740Y001120D01*
X000678Y001181D01*
X000555Y001181D01*
X000493Y001120D01*
X000493Y000996D01*
X000555Y000934D01*
X000493Y001349D02*
X000493Y001472D01*
X000431Y001410D02*
X000678Y001410D01*
X000740Y001472D01*
X000555Y001625D02*
X000555Y001872D01*
X000493Y002039D02*
X000493Y002163D01*
X000431Y002101D02*
X000678Y002101D01*
X000740Y002163D01*
X000740Y002316D02*
X000370Y002316D01*
X000493Y002377D02*
X000493Y002501D01*
X000555Y002562D01*
X000740Y002562D01*
X000678Y002730D02*
X000555Y002730D01*
X000493Y002792D01*
X000493Y002915D01*
X000555Y002977D01*
X000678Y002977D01*
X000740Y002915D01*
X000740Y002792D01*
X000678Y002730D01*
X000493Y002377D02*
X000555Y002316D01*
X001180Y002580D02*
X005180Y002580D01*
X005180Y004780D01*
X001180Y004780D01*
X001180Y003930D01*
X001210Y003928D01*
X001240Y003923D01*
X001269Y003914D01*
X001296Y003901D01*
X001322Y003886D01*
X001346Y003867D01*
X001367Y003846D01*
X001386Y003822D01*
X001401Y003796D01*
X001414Y003769D01*
X001423Y003740D01*
X001428Y003710D01*
X001430Y003680D01*
X001428Y003650D01*
X001423Y003620D01*
X001414Y003591D01*
X001401Y003564D01*
X001386Y003538D01*
X001367Y003514D01*
X001346Y003493D01*
X001322Y003474D01*
X001296Y003459D01*
X001269Y003446D01*
X001240Y003437D01*
X001210Y003432D01*
X001180Y003430D01*
X001180Y002580D01*
X000678Y003144D02*
X000740Y003206D01*
X000740Y003391D01*
X000493Y003391D01*
X000555Y003559D02*
X000678Y003559D01*
X000740Y003620D01*
X000740Y003805D01*
X000802Y003805D02*
X000493Y003805D01*
X000493Y003620D01*
X000555Y003559D01*
X000863Y003682D02*
X000863Y003744D01*
X000802Y003805D01*
X000740Y003973D02*
X000370Y003973D01*
X000493Y004035D02*
X000493Y004158D01*
X000555Y004220D01*
X000740Y004220D01*
X000678Y004449D02*
X000740Y004511D01*
X000678Y004449D02*
X000431Y004449D01*
X000493Y004387D02*
X000493Y004511D01*
X000555Y004664D02*
X000493Y004725D01*
X000493Y004910D01*
X000617Y004849D02*
X000617Y004725D01*
X000555Y004664D01*
X000740Y004664D02*
X000740Y004849D01*
X000678Y004910D01*
X000617Y004849D01*
X000678Y005078D02*
X000678Y005140D01*
X000740Y005140D01*
X000740Y005078D01*
X000678Y005078D01*
X000678Y005285D02*
X000555Y005285D01*
X000493Y005347D01*
X000493Y005532D01*
X000555Y005699D02*
X000678Y005699D01*
X000740Y005761D01*
X000740Y005885D01*
X000678Y005946D01*
X000555Y005946D01*
X000493Y005885D01*
X000493Y005761D01*
X000555Y005699D01*
X000740Y005532D02*
X000740Y005347D01*
X000678Y005285D01*
X000740Y006114D02*
X000493Y006114D01*
X000493Y006175D01*
X000555Y006237D01*
X000493Y006299D01*
X000555Y006361D01*
X000740Y006361D01*
X000740Y006237D02*
X000555Y006237D01*
X000493Y004035D02*
X000555Y003973D01*
X000493Y003144D02*
X000678Y003144D01*
X005799Y002761D02*
X005799Y000399D01*
X008161Y000399D01*
X008161Y002761D01*
X005799Y002761D01*
X006070Y003020D02*
X006070Y003300D01*
X006070Y003160D02*
X006210Y003300D01*
X006280Y003300D01*
X006454Y003230D02*
X006524Y003300D01*
X006664Y003300D01*
X006734Y003230D01*
X006734Y003160D01*
X006454Y003160D01*
X006454Y003090D02*
X006454Y003230D01*
X006454Y003090D02*
X006524Y003020D01*
X006664Y003020D01*
X006914Y003020D02*
X007124Y003020D01*
X007194Y003090D01*
X007124Y003160D01*
X006984Y003160D01*
X006914Y003230D01*
X006984Y003300D01*
X007194Y003300D01*
X007374Y003230D02*
X007445Y003300D01*
X007585Y003300D01*
X007655Y003230D01*
X007655Y003160D01*
X007374Y003160D01*
X007374Y003090D02*
X007374Y003230D01*
X007374Y003090D02*
X007445Y003020D01*
X007585Y003020D01*
X007905Y003090D02*
X007975Y003020D01*
X007905Y003090D02*
X007905Y003370D01*
X007835Y003300D02*
X007975Y003300D01*
X008180Y003980D02*
X008180Y006980D01*
X006180Y006980D01*
X006180Y003980D01*
X008180Y003980D01*
X006270Y001580D02*
X006272Y001633D01*
X006278Y001686D01*
X006288Y001738D01*
X006302Y001789D01*
X006319Y001839D01*
X006340Y001888D01*
X006365Y001935D01*
X006393Y001980D01*
X006425Y002023D01*
X006460Y002063D01*
X006497Y002100D01*
X006537Y002135D01*
X006580Y002167D01*
X006625Y002195D01*
X006672Y002220D01*
X006721Y002241D01*
X006771Y002258D01*
X006822Y002272D01*
X006874Y002282D01*
X006927Y002288D01*
X006980Y002290D01*
X007033Y002288D01*
X007086Y002282D01*
X007138Y002272D01*
X007189Y002258D01*
X007239Y002241D01*
X007288Y002220D01*
X007335Y002195D01*
X007380Y002167D01*
X007423Y002135D01*
X007463Y002100D01*
X007500Y002063D01*
X007535Y002023D01*
X007567Y001980D01*
X007595Y001935D01*
X007620Y001888D01*
X007641Y001839D01*
X007658Y001789D01*
X007672Y001738D01*
X007682Y001686D01*
X007688Y001633D01*
X007690Y001580D01*
X007688Y001527D01*
X007682Y001474D01*
X007672Y001422D01*
X007658Y001371D01*
X007641Y001321D01*
X007620Y001272D01*
X007595Y001225D01*
X007567Y001180D01*
X007535Y001137D01*
X007500Y001097D01*
X007463Y001060D01*
X007423Y001025D01*
X007380Y000993D01*
X007335Y000965D01*
X007288Y000940D01*
X007239Y000919D01*
X007189Y000902D01*
X007138Y000888D01*
X007086Y000878D01*
X007033Y000872D01*
X006980Y000870D01*
X006927Y000872D01*
X006874Y000878D01*
X006822Y000888D01*
X006771Y000902D01*
X006721Y000919D01*
X006672Y000940D01*
X006625Y000965D01*
X006580Y000993D01*
X006537Y001025D01*
X006497Y001060D01*
X006460Y001097D01*
X006425Y001137D01*
X006393Y001180D01*
X006365Y001225D01*
X006340Y001272D01*
X006319Y001321D01*
X006302Y001371D01*
X006288Y001422D01*
X006278Y001474D01*
X006272Y001527D01*
X006270Y001580D01*
D11*
X005980Y004980D02*
X005780Y004980D01*
X005780Y005980D01*
X005980Y005980D01*
X005980Y004980D01*
X005980Y005094D02*
X005780Y005094D01*
X005780Y005252D02*
X005980Y005252D01*
X005980Y005411D02*
X005780Y005411D01*
X005780Y005569D02*
X005980Y005569D01*
X005980Y005728D02*
X005780Y005728D01*
X005780Y005886D02*
X005980Y005886D01*
M02*
