%
M48
M72
T01C0.0320
T02C0.0400
T03C0.0472
%
T01
X880Y1880
X1880Y1880
X2880Y1880
X3880Y1880
X3880Y4880
X2880Y4880
X1880Y4880
X880Y4880
T02
X880Y880
X1880Y880
X2880Y880
X3880Y880
X5880Y3880
X6880Y3880
X6880Y4880
X5880Y4880
X5880Y5880
X6880Y5880
X3880Y5880
X2880Y5880
X1880Y5880
X880Y5880
T03
X5002Y1080
X7758Y1080
M30
