G75*
G70*
%OFA0B0*%
%FSLAX24Y24*%
%IPPOS*%
%LPD*%
%AMOC8*
5,1,8,0,0,1.08239X$1,22.5*
%
%ADD10C,0.0080*%
%ADD11R,0.1024X0.0118*%
%ADD12C,0.0137*%
%ADD13C,0.0091*%
%ADD14C,0.0114*%
D10*
X000600Y000350D02*
X000350Y000600D01*
X000350Y001100D01*
X000600Y001350D01*
X001100Y001350D01*
X001350Y001100D01*
X001600Y001350D01*
X002100Y001350D01*
X002350Y001100D01*
X002350Y000600D01*
X002100Y000350D01*
X001600Y000350D01*
X001350Y000600D01*
X001350Y001100D01*
X001350Y000600D02*
X001100Y000350D01*
X000600Y000350D01*
X002350Y000600D02*
X002600Y000350D01*
X003100Y000350D01*
X003350Y000600D01*
X003600Y000350D01*
X004100Y000350D01*
X004350Y000600D01*
X004350Y001100D01*
X004100Y001350D01*
X003600Y001350D01*
X003350Y001100D01*
X003100Y001350D01*
X002600Y001350D01*
X002350Y001100D01*
X003350Y001100D02*
X003350Y000600D01*
X005382Y001593D02*
X005413Y001607D01*
X005442Y001623D01*
X005469Y001643D01*
X005494Y001665D01*
X005516Y001691D01*
X005535Y001718D01*
X005552Y001748D01*
X005564Y001779D01*
X005574Y001811D01*
X005579Y001844D01*
X005581Y001878D01*
X005579Y001912D01*
X005574Y001945D01*
X005564Y001977D01*
X005552Y002008D01*
X005535Y002038D01*
X005516Y002065D01*
X005494Y002091D01*
X005469Y002113D01*
X005442Y002133D01*
X005413Y002149D01*
X005382Y002163D01*
X005417Y002153D01*
X005454Y002148D01*
X005490Y002146D01*
X005527Y002148D01*
X005563Y002154D01*
X005599Y002164D01*
X005633Y002178D01*
X005665Y002195D01*
X005696Y002215D01*
X005724Y002239D01*
X005749Y002265D01*
X005772Y002294D01*
X005791Y002326D01*
X005807Y002359D01*
X005820Y002393D01*
X005828Y002429D01*
X005833Y002465D01*
X005834Y002502D01*
X005831Y002539D01*
X005824Y002575D01*
X005813Y002610D01*
X005799Y002644D01*
X005781Y002676D01*
X005952Y001365D02*
X006020Y001355D01*
X006089Y001348D01*
X006158Y001344D01*
X006228Y001345D01*
X006297Y001349D01*
X006366Y001356D01*
X006434Y001367D01*
X006502Y001382D01*
X006569Y001400D01*
X006635Y001422D01*
X006521Y001251D01*
X006920Y001080D02*
X006920Y001650D01*
X006236Y001707D02*
X006238Y001737D01*
X006244Y001766D01*
X006253Y001794D01*
X006267Y001821D01*
X006283Y001846D01*
X006303Y001868D01*
X006325Y001888D01*
X006350Y001904D01*
X006377Y001918D01*
X006405Y001927D01*
X006434Y001933D01*
X006464Y001935D01*
X006494Y001933D01*
X006523Y001927D01*
X006551Y001918D01*
X006578Y001904D01*
X006603Y001888D01*
X006625Y001868D01*
X006645Y001846D01*
X006661Y001821D01*
X006675Y001794D01*
X006684Y001766D01*
X006690Y001737D01*
X006692Y001707D01*
X006690Y001677D01*
X006684Y001648D01*
X006675Y001620D01*
X006661Y001593D01*
X006645Y001568D01*
X006625Y001546D01*
X006603Y001526D01*
X006578Y001510D01*
X006551Y001496D01*
X006523Y001487D01*
X006494Y001481D01*
X006464Y001479D01*
X006434Y001481D01*
X006405Y001487D01*
X006377Y001496D01*
X006350Y001510D01*
X006325Y001526D01*
X006303Y001546D01*
X006283Y001568D01*
X006267Y001593D01*
X006253Y001620D01*
X006244Y001648D01*
X006238Y001677D01*
X006236Y001707D01*
X005780Y001650D02*
X005782Y001695D01*
X005787Y001739D01*
X005796Y001783D01*
X005808Y001826D01*
X005823Y001868D01*
X005842Y001909D01*
X005864Y001948D01*
X005889Y001985D01*
X005917Y002020D01*
X005947Y002053D01*
X005980Y002083D01*
X006015Y002111D01*
X006052Y002136D01*
X006091Y002158D01*
X006132Y002177D01*
X006174Y002192D01*
X006217Y002204D01*
X006261Y002213D01*
X006305Y002218D01*
X006350Y002220D01*
X006350Y002277D01*
X006521Y001252D02*
X006465Y001238D01*
X006408Y001228D01*
X006351Y001222D01*
X006294Y001218D01*
X006236Y001218D01*
X006179Y001222D01*
X006122Y001228D01*
X006065Y001238D01*
X006009Y001252D01*
X006008Y001251D02*
X005951Y001365D01*
X005891Y001673D02*
X005893Y001699D01*
X005899Y001724D01*
X005908Y001748D01*
X005921Y001771D01*
X005937Y001791D01*
X005957Y001809D01*
X005978Y001824D01*
X006001Y001835D01*
X006026Y001843D01*
X006052Y001847D01*
X006078Y001847D01*
X006104Y001843D01*
X006129Y001835D01*
X006152Y001824D01*
X006173Y001809D01*
X006193Y001791D01*
X006209Y001771D01*
X006222Y001748D01*
X006231Y001724D01*
X006237Y001699D01*
X006239Y001673D01*
X006237Y001647D01*
X006231Y001622D01*
X006222Y001598D01*
X006209Y001575D01*
X006193Y001555D01*
X006173Y001537D01*
X006152Y001522D01*
X006129Y001511D01*
X006104Y001503D01*
X006078Y001499D01*
X006052Y001499D01*
X006026Y001503D01*
X006001Y001511D01*
X005978Y001522D01*
X005957Y001537D01*
X005937Y001555D01*
X005921Y001575D01*
X005908Y001598D01*
X005899Y001622D01*
X005893Y001647D01*
X005891Y001673D01*
X005780Y001650D02*
X005780Y001080D01*
X006920Y001080D01*
X007033Y001194D02*
X007018Y001228D01*
X007007Y001264D01*
X007000Y001301D01*
X006996Y001338D01*
X006997Y001375D01*
X007001Y001412D01*
X007009Y001448D01*
X007021Y001484D01*
X007037Y001517D01*
X007056Y001549D01*
X007078Y001579D01*
X007103Y001607D01*
X007131Y001631D01*
X007162Y001653D01*
X007194Y001671D01*
X007228Y001686D01*
X007264Y001697D01*
X007301Y001704D01*
X007338Y001708D01*
X007375Y001707D01*
X007790Y001990D02*
X007790Y002110D01*
X007830Y002150D01*
X007910Y002150D01*
X007950Y002110D01*
X007950Y001990D01*
X008030Y001990D02*
X007790Y001990D01*
X007375Y001707D02*
X007337Y001716D01*
X007301Y001729D01*
X007265Y001746D01*
X007232Y001766D01*
X007201Y001789D01*
X007172Y001815D01*
X007145Y001844D01*
X007122Y001875D01*
X007102Y001909D01*
X007085Y001944D01*
X007072Y001980D01*
X007062Y002018D01*
X007056Y002057D01*
X007054Y002096D01*
X007056Y002135D01*
X007061Y002173D01*
X007070Y002211D01*
X007083Y002248D01*
X007100Y002283D01*
X007119Y002317D01*
X007142Y002348D01*
X007168Y002377D01*
X007197Y002404D01*
X007228Y002427D01*
X007261Y002448D01*
X007262Y002447D02*
X007227Y002425D01*
X007191Y002406D01*
X007153Y002390D01*
X007114Y002378D01*
X007074Y002368D01*
X007033Y002363D01*
X006992Y002361D01*
X006951Y002363D01*
X006910Y002368D01*
X006870Y002377D01*
X006831Y002389D01*
X006793Y002404D01*
X006756Y002423D01*
X006721Y002445D01*
X006689Y002470D01*
X006658Y002498D01*
X006630Y002528D01*
X006605Y002560D01*
X006583Y002595D01*
X006564Y002631D01*
X006548Y002669D01*
X006536Y002708D01*
X006526Y002748D01*
X006521Y002789D01*
X006522Y002789D02*
X006506Y002753D01*
X006486Y002719D01*
X006464Y002686D01*
X006439Y002656D01*
X006411Y002628D01*
X006381Y002602D01*
X006349Y002580D01*
X006315Y002560D01*
X006279Y002544D01*
X006242Y002531D01*
X006203Y002521D01*
X006164Y002515D01*
X006125Y002513D01*
X006086Y002514D01*
X006046Y002519D01*
X006008Y002527D01*
X005970Y002539D01*
X005934Y002554D01*
X005899Y002572D01*
X005866Y002594D01*
X005835Y002618D01*
X005806Y002645D01*
X005780Y002675D01*
X005094Y003059D02*
X004852Y003034D01*
X004826Y002953D01*
X004787Y002877D01*
X004941Y002688D01*
X004812Y002559D01*
X004623Y002713D01*
X004547Y002674D01*
X004440Y002933D01*
X004480Y002955D01*
X004516Y002984D01*
X004545Y003020D01*
X004567Y003060D01*
X004580Y003104D01*
X004584Y003150D01*
X004579Y003200D01*
X004563Y003248D01*
X004537Y003291D01*
X004502Y003328D01*
X004460Y003357D01*
X004414Y003376D01*
X004364Y003384D01*
X004313Y003381D01*
X004265Y003368D01*
X004220Y003345D01*
X004181Y003312D01*
X004150Y003272D01*
X004129Y003227D01*
X004117Y003178D01*
X004117Y003127D01*
X004127Y003078D01*
X004148Y003031D01*
X004178Y002991D01*
X004216Y002958D01*
X004260Y002933D01*
X004153Y002674D01*
X004077Y002713D01*
X003888Y002559D01*
X003759Y002688D01*
X003913Y002877D01*
X003874Y002953D01*
X003848Y003034D01*
X003606Y003059D01*
X003606Y003241D01*
X003848Y003266D01*
X003874Y003347D01*
X003913Y003423D01*
X003759Y003612D01*
X003888Y003741D01*
X004077Y003587D01*
X004153Y003626D01*
X004234Y003652D01*
X004259Y003894D01*
X004441Y003894D01*
X004466Y003652D01*
X004547Y003626D01*
X004623Y003587D01*
X004812Y003741D01*
X004941Y003612D01*
X004787Y003423D01*
X004826Y003347D01*
X004852Y003266D01*
X005094Y003241D01*
X005094Y003059D01*
X005054Y003055D02*
X004563Y003055D01*
X004583Y003133D02*
X005094Y003133D01*
X005094Y003212D02*
X004575Y003212D01*
X004538Y003290D02*
X004845Y003290D01*
X004815Y003369D02*
X004431Y003369D01*
X004266Y003369D02*
X003885Y003369D01*
X003893Y003447D02*
X004807Y003447D01*
X004871Y003526D02*
X003829Y003526D01*
X003765Y003604D02*
X004056Y003604D01*
X004109Y003604D02*
X004591Y003604D01*
X004644Y003604D02*
X004935Y003604D01*
X004870Y003683D02*
X004740Y003683D01*
X004463Y003683D02*
X004237Y003683D01*
X004245Y003761D02*
X004455Y003761D01*
X004447Y003840D02*
X004253Y003840D01*
X003960Y003683D02*
X003830Y003683D01*
X003855Y003290D02*
X004164Y003290D01*
X004125Y003212D02*
X003606Y003212D01*
X003606Y003133D02*
X004117Y003133D01*
X004137Y003055D02*
X003646Y003055D01*
X003866Y002976D02*
X004195Y002976D01*
X004245Y002898D02*
X003902Y002898D01*
X003866Y002819D02*
X004213Y002819D01*
X004180Y002741D02*
X003802Y002741D01*
X003785Y002662D02*
X004015Y002662D01*
X003918Y002584D02*
X003864Y002584D01*
X004455Y002898D02*
X004798Y002898D01*
X004834Y002976D02*
X004506Y002976D01*
X004487Y002819D02*
X004834Y002819D01*
X004898Y002741D02*
X004520Y002741D01*
X004685Y002662D02*
X004915Y002662D01*
X004836Y002584D02*
X004782Y002584D01*
X006350Y002220D02*
X006395Y002218D01*
X006439Y002213D01*
X006483Y002204D01*
X006526Y002192D01*
X006568Y002177D01*
X006609Y002158D01*
X006648Y002136D01*
X006685Y002111D01*
X006720Y002083D01*
X006753Y002053D01*
X006783Y002020D01*
X006811Y001985D01*
X006836Y001948D01*
X006858Y001909D01*
X006877Y001868D01*
X006892Y001826D01*
X006904Y001783D01*
X006913Y001739D01*
X006918Y001695D01*
X006920Y001650D01*
X007790Y002325D02*
X007830Y002285D01*
X007910Y002285D01*
X007950Y002325D01*
X007950Y002405D01*
X007910Y002445D01*
X007830Y002445D01*
X007790Y002405D01*
X007790Y002325D01*
X007950Y002579D02*
X007950Y002659D01*
X007990Y002619D02*
X007830Y002619D01*
X007790Y002659D01*
X007910Y002776D02*
X007910Y002936D01*
X007950Y003070D02*
X007950Y003150D01*
X007990Y003110D02*
X007830Y003110D01*
X007790Y003150D01*
X007790Y003267D02*
X008030Y003267D01*
X007950Y003307D02*
X007950Y003387D01*
X007910Y003427D01*
X007790Y003427D01*
X007830Y003561D02*
X007790Y003602D01*
X007790Y003682D01*
X007830Y003722D01*
X007910Y003722D01*
X007950Y003682D01*
X007950Y003602D01*
X007910Y003561D01*
X007830Y003561D01*
X007950Y003307D02*
X007910Y003267D01*
X007950Y003856D02*
X007830Y003856D01*
X007790Y003896D01*
X007790Y004016D01*
X007950Y004016D01*
X007910Y004151D02*
X007830Y004151D01*
X007790Y004191D01*
X007790Y004311D01*
X007750Y004311D02*
X007950Y004311D01*
X007950Y004191D01*
X007910Y004151D01*
X007710Y004231D02*
X007710Y004271D01*
X007750Y004311D01*
X007790Y004445D02*
X008030Y004445D01*
X007950Y004485D02*
X007950Y004566D01*
X007910Y004606D01*
X007790Y004606D01*
X007910Y004445D02*
X007950Y004485D01*
X007950Y004740D02*
X007950Y004820D01*
X007990Y004780D02*
X007830Y004780D01*
X007790Y004820D01*
X007790Y004937D02*
X007790Y005057D01*
X007830Y005097D01*
X007870Y005057D01*
X007870Y004977D01*
X007910Y004937D01*
X007950Y004977D01*
X007950Y005097D01*
X007830Y005231D02*
X007790Y005231D01*
X007790Y005271D01*
X007830Y005271D01*
X007830Y005231D01*
X007830Y005378D02*
X007790Y005419D01*
X007790Y005539D01*
X007830Y005673D02*
X007790Y005713D01*
X007790Y005793D01*
X007830Y005833D01*
X007910Y005833D01*
X007950Y005793D01*
X007950Y005713D01*
X007910Y005673D01*
X007830Y005673D01*
X007950Y005539D02*
X007950Y005419D01*
X007910Y005378D01*
X007830Y005378D01*
X007790Y005968D02*
X007950Y005968D01*
X007950Y006008D01*
X007910Y006048D01*
X007950Y006088D01*
X007910Y006128D01*
X007790Y006128D01*
X007790Y006048D02*
X007910Y006048D01*
X004350Y006100D02*
X004350Y005600D01*
X004100Y005350D01*
X003600Y005350D01*
X003350Y005600D01*
X003350Y006100D01*
X003600Y006350D01*
X004100Y006350D01*
X004350Y006100D01*
X003350Y006100D02*
X003100Y006350D01*
X002600Y006350D01*
X002350Y006100D01*
X002100Y006350D01*
X001600Y006350D01*
X001350Y006100D01*
X001100Y006350D01*
X000600Y006350D01*
X000350Y006100D01*
X000350Y005600D01*
X000600Y005350D01*
X001100Y005350D01*
X001350Y005600D01*
X001600Y005350D01*
X002100Y005350D01*
X002350Y005600D01*
X002350Y006100D01*
X002350Y005600D02*
X002600Y005350D01*
X003100Y005350D01*
X003350Y005600D01*
X001350Y005600D02*
X001350Y006100D01*
X001319Y003980D02*
X001319Y002720D01*
X002381Y002720D02*
X002381Y003980D01*
X005382Y001593D02*
X005413Y001595D01*
X005445Y001593D01*
X005476Y001588D01*
X005506Y001578D01*
X005535Y001566D01*
X005562Y001550D01*
X005588Y001531D01*
X005610Y001510D01*
X005631Y001485D01*
X005648Y001459D01*
X005662Y001431D01*
X005673Y001401D01*
X005680Y001371D01*
X005684Y001339D01*
X005684Y001308D01*
X005680Y001276D01*
X005672Y001246D01*
X005662Y001216D01*
X005647Y001188D01*
X005630Y001162D01*
X005610Y001138D01*
D11*
X001850Y003527D03*
D12*
X006447Y001792D02*
X006449Y001808D01*
X006454Y001824D01*
X006463Y001838D01*
X006475Y001850D01*
X006489Y001859D01*
X006505Y001864D01*
X006521Y001866D01*
X006537Y001864D01*
X006553Y001859D01*
X006567Y001850D01*
X006579Y001838D01*
X006588Y001824D01*
X006593Y001808D01*
X006595Y001792D01*
X006593Y001776D01*
X006588Y001760D01*
X006579Y001746D01*
X006567Y001734D01*
X006553Y001725D01*
X006537Y001720D01*
X006521Y001718D01*
X006505Y001720D01*
X006489Y001725D01*
X006475Y001734D01*
X006463Y001746D01*
X006454Y001760D01*
X006449Y001776D01*
X006447Y001792D01*
D13*
X006076Y001730D02*
X006078Y001743D01*
X006083Y001755D01*
X006092Y001765D01*
X006103Y001772D01*
X006115Y001776D01*
X006129Y001776D01*
X006141Y001772D01*
X006152Y001765D01*
X006161Y001755D01*
X006166Y001743D01*
X006168Y001730D01*
X006166Y001717D01*
X006161Y001705D01*
X006152Y001695D01*
X006141Y001688D01*
X006129Y001684D01*
X006115Y001684D01*
X006103Y001688D01*
X006092Y001695D01*
X006083Y001705D01*
X006078Y001717D01*
X006076Y001730D01*
D14*
X006293Y002334D02*
X006295Y002349D01*
X006301Y002362D01*
X006310Y002374D01*
X006321Y002383D01*
X006335Y002389D01*
X006350Y002391D01*
X006365Y002389D01*
X006378Y002383D01*
X006390Y002374D01*
X006399Y002363D01*
X006405Y002349D01*
X006407Y002334D01*
X006405Y002319D01*
X006399Y002306D01*
X006390Y002294D01*
X006379Y002285D01*
X006365Y002279D01*
X006350Y002277D01*
X006335Y002279D01*
X006322Y002285D01*
X006310Y002294D01*
X006301Y002305D01*
X006295Y002319D01*
X006293Y002334D01*
M02*
