G75*
G70*
%OFA0B0*%
%FSLAX24Y24*%
%IPPOS*%
%LPD*%
%AMOC8*
5,1,8,0,0,1.08239X$1,22.5*
%
%ADD10C,0.0080*%
%ADD11C,0.0160*%
D10*
X000180Y000180D02*
X000180Y006580D01*
X008880Y006580D01*
X008880Y000180D01*
X000180Y000180D01*
X000380Y000380D02*
X000380Y001380D01*
X001380Y001380D01*
X001380Y001130D01*
X001630Y001380D01*
X002130Y001380D01*
X002380Y001130D01*
X002380Y000630D01*
X002130Y000380D01*
X001630Y000380D01*
X001380Y000630D01*
X001380Y001130D01*
X001380Y000630D02*
X001380Y000380D01*
X000380Y000380D01*
X002380Y000630D02*
X002630Y000380D01*
X003130Y000380D01*
X003380Y000630D01*
X003630Y000380D01*
X004130Y000380D01*
X004380Y000630D01*
X004380Y001130D01*
X004130Y001380D01*
X003630Y001380D01*
X003380Y001130D01*
X003130Y001380D01*
X002630Y001380D01*
X002380Y001130D01*
X003380Y001130D02*
X003380Y000630D01*
X002837Y002333D02*
X002623Y002333D01*
X002570Y002387D01*
X002570Y002494D01*
X002623Y002547D01*
X002570Y002702D02*
X002784Y002915D01*
X002837Y002915D01*
X002890Y002862D01*
X002890Y002755D01*
X002837Y002702D01*
X002837Y002547D02*
X002890Y002494D01*
X002890Y002387D01*
X002837Y002333D01*
X002570Y002702D02*
X002570Y002915D01*
X000890Y002808D02*
X000570Y002808D01*
X000570Y002702D02*
X000570Y002915D01*
X000784Y002702D02*
X000890Y002808D01*
X000837Y002547D02*
X000890Y002494D01*
X000890Y002387D01*
X000837Y002333D01*
X000623Y002333D01*
X000570Y002387D01*
X000570Y002494D01*
X000623Y002547D01*
X000380Y005380D02*
X000380Y006380D01*
X001380Y006380D01*
X001380Y006130D01*
X001630Y006380D01*
X002130Y006380D01*
X002380Y006130D01*
X002380Y005630D01*
X002130Y005380D01*
X001630Y005380D01*
X001380Y005630D01*
X001380Y006130D01*
X001380Y005630D02*
X001380Y005380D01*
X000380Y005380D01*
X002380Y005630D02*
X002630Y005380D01*
X003130Y005380D01*
X003380Y005630D01*
X003630Y005380D01*
X004130Y005380D01*
X004380Y005630D01*
X004380Y006130D01*
X004130Y006380D01*
X003630Y006380D01*
X003380Y006130D01*
X003130Y006380D01*
X002630Y006380D01*
X002380Y006130D01*
X003380Y006130D02*
X003380Y005630D01*
X006452Y003290D02*
X006452Y002970D01*
X006558Y002970D02*
X006345Y002970D01*
X006558Y003184D02*
X006452Y003290D01*
X006713Y003237D02*
X006713Y003130D01*
X006766Y003077D01*
X006927Y003077D01*
X006820Y003077D02*
X006713Y002970D01*
X006927Y002970D02*
X006927Y003290D01*
X006766Y003290D01*
X006713Y003237D01*
X008197Y003682D02*
X008197Y003744D01*
X008258Y003805D01*
X008567Y003805D01*
X008567Y003620D01*
X008505Y003559D01*
X008382Y003559D01*
X008320Y003620D01*
X008320Y003805D01*
X008320Y003973D02*
X008690Y003973D01*
X008567Y004035D02*
X008567Y004158D01*
X008505Y004220D01*
X008320Y004220D01*
X008382Y004449D02*
X008320Y004511D01*
X008382Y004449D02*
X008629Y004449D01*
X008567Y004387D02*
X008567Y004511D01*
X008505Y004664D02*
X008567Y004725D01*
X008567Y004910D01*
X008443Y004849D02*
X008443Y004725D01*
X008505Y004664D01*
X008320Y004664D02*
X008320Y004849D01*
X008382Y004910D01*
X008443Y004849D01*
X008382Y005078D02*
X008320Y005078D01*
X008320Y005140D01*
X008382Y005140D01*
X008382Y005078D01*
X008382Y005285D02*
X008320Y005347D01*
X008320Y005532D01*
X008382Y005699D02*
X008320Y005761D01*
X008320Y005885D01*
X008382Y005946D01*
X008505Y005946D01*
X008567Y005885D01*
X008567Y005761D01*
X008505Y005699D01*
X008382Y005699D01*
X008567Y005532D02*
X008567Y005347D01*
X008505Y005285D01*
X008382Y005285D01*
X008320Y006114D02*
X008567Y006114D01*
X008567Y006175D01*
X008505Y006237D01*
X008567Y006299D01*
X008505Y006361D01*
X008320Y006361D01*
X008320Y006237D02*
X008505Y006237D01*
X008567Y004035D02*
X008505Y003973D01*
X008567Y003391D02*
X008320Y003391D01*
X008320Y003206D01*
X008382Y003144D01*
X008567Y003144D01*
X008505Y002977D02*
X008382Y002977D01*
X008320Y002915D01*
X008320Y002792D01*
X008382Y002730D01*
X008505Y002730D01*
X008567Y002792D01*
X008567Y002915D01*
X008505Y002977D01*
X008505Y002562D02*
X008320Y002562D01*
X008505Y002562D02*
X008567Y002501D01*
X008567Y002377D01*
X008505Y002316D01*
X008690Y002316D02*
X008320Y002316D01*
X008320Y002163D02*
X008382Y002101D01*
X008629Y002101D01*
X008567Y002039D02*
X008567Y002163D01*
X008505Y001872D02*
X008505Y001625D01*
X008567Y001472D02*
X008567Y001349D01*
X008629Y001410D02*
X008382Y001410D01*
X008320Y001472D01*
X008382Y001181D02*
X008505Y001181D01*
X008567Y001120D01*
X008567Y000996D01*
X008505Y000934D01*
X008382Y000934D01*
X008320Y000996D01*
X008320Y001120D01*
X008382Y001181D01*
X008382Y000767D02*
X008505Y000767D01*
X008567Y000705D01*
X008567Y000520D01*
X008690Y000520D02*
X008320Y000520D01*
X008320Y000705D01*
X008382Y000767D01*
D11*
X006949Y001123D02*
X006917Y001131D01*
X006885Y001143D01*
X006856Y001158D01*
X006828Y001176D01*
X006803Y001198D01*
X006780Y001222D01*
X006760Y001248D01*
X006743Y001276D01*
X006729Y001307D01*
X006718Y001338D01*
X006711Y001371D01*
X006708Y001404D01*
X006709Y001437D01*
X006713Y001470D01*
X006721Y001502D01*
X006732Y001533D01*
X006747Y001563D01*
X006764Y001591D01*
X006785Y001617D01*
X006809Y001640D01*
X006835Y001661D01*
X006863Y001678D01*
X006864Y001679D02*
X006834Y001660D01*
X006802Y001644D01*
X006770Y001631D01*
X006736Y001622D01*
X006701Y001616D01*
X006666Y001614D01*
X006631Y001615D01*
X006596Y001620D01*
X006561Y001628D01*
X006528Y001640D01*
X006496Y001654D01*
X006466Y001672D01*
X006438Y001693D01*
X006411Y001716D01*
X006388Y001742D01*
X006367Y001771D01*
X006349Y001801D01*
X006334Y001833D01*
X006322Y001866D01*
X006313Y001900D01*
X006308Y001935D01*
X006394Y000909D02*
X006339Y000891D01*
X006283Y000876D01*
X006227Y000864D01*
X006169Y000856D01*
X006112Y000851D01*
X006054Y000850D01*
X005996Y000852D01*
X005939Y000857D01*
X005881Y000866D01*
X005924Y000781D01*
X005753Y000653D02*
X005753Y001080D01*
X005835Y001097D02*
X005837Y001119D01*
X005842Y001141D01*
X005852Y001161D01*
X005864Y001179D01*
X005879Y001195D01*
X005897Y001209D01*
X005917Y001219D01*
X005938Y001225D01*
X005960Y001228D01*
X005983Y001227D01*
X006004Y001222D01*
X006025Y001214D01*
X006044Y001202D01*
X006061Y001188D01*
X006075Y001170D01*
X006085Y001151D01*
X006093Y001130D01*
X006097Y001108D01*
X006097Y001086D01*
X006093Y001064D01*
X006085Y001043D01*
X006075Y001024D01*
X006061Y001006D01*
X006044Y000992D01*
X006025Y000980D01*
X006004Y000972D01*
X005983Y000967D01*
X005960Y000966D01*
X005938Y000969D01*
X005917Y000975D01*
X005897Y000985D01*
X005879Y000999D01*
X005864Y001015D01*
X005852Y001033D01*
X005842Y001053D01*
X005837Y001075D01*
X005835Y001097D01*
X005975Y001140D02*
X005977Y001151D01*
X005982Y001161D01*
X005990Y001168D01*
X006001Y001173D01*
X006012Y001174D01*
X006023Y001171D01*
X006032Y001165D01*
X006039Y001156D01*
X006043Y001146D01*
X006043Y001134D01*
X006039Y001124D01*
X006032Y001115D01*
X006023Y001109D01*
X006012Y001106D01*
X006001Y001107D01*
X005990Y001112D01*
X005982Y001119D01*
X005977Y001129D01*
X005975Y001140D01*
X005753Y001080D02*
X005755Y001119D01*
X005760Y001158D01*
X005769Y001197D01*
X005782Y001234D01*
X005798Y001270D01*
X005817Y001305D01*
X005839Y001337D01*
X005864Y001368D01*
X005892Y001396D01*
X005923Y001421D01*
X005955Y001443D01*
X005990Y001462D01*
X006026Y001478D01*
X006063Y001491D01*
X006102Y001500D01*
X006141Y001505D01*
X006180Y001507D01*
X006180Y001550D01*
X006137Y001593D02*
X006139Y001606D01*
X006144Y001617D01*
X006153Y001627D01*
X006164Y001633D01*
X006177Y001636D01*
X006190Y001635D01*
X006202Y001630D01*
X006212Y001622D01*
X006219Y001612D01*
X006223Y001599D01*
X006223Y001587D01*
X006219Y001574D01*
X006212Y001564D01*
X006201Y001556D01*
X006190Y001551D01*
X006177Y001550D01*
X006164Y001553D01*
X006153Y001559D01*
X006144Y001569D01*
X006139Y001580D01*
X006137Y001593D01*
X006308Y000780D02*
X006261Y000769D01*
X006213Y000761D01*
X006165Y000757D01*
X006116Y000755D01*
X006067Y000757D01*
X006019Y000761D01*
X005971Y000769D01*
X005924Y000780D01*
X005753Y000653D02*
X006607Y000653D01*
X006607Y001080D01*
X006394Y000909D02*
X006308Y000781D01*
X006607Y001080D02*
X006605Y001119D01*
X006600Y001158D01*
X006591Y001197D01*
X006578Y001234D01*
X006562Y001270D01*
X006543Y001305D01*
X006521Y001337D01*
X006496Y001368D01*
X006468Y001396D01*
X006437Y001421D01*
X006405Y001443D01*
X006370Y001462D01*
X006334Y001478D01*
X006297Y001491D01*
X006258Y001500D01*
X006219Y001505D01*
X006180Y001507D01*
X006252Y001187D02*
X006254Y001201D01*
X006260Y001215D01*
X006268Y001227D01*
X006280Y001235D01*
X006294Y001241D01*
X006308Y001243D01*
X006322Y001241D01*
X006336Y001235D01*
X006348Y001227D01*
X006356Y001215D01*
X006362Y001201D01*
X006364Y001187D01*
X006362Y001173D01*
X006356Y001159D01*
X006348Y001147D01*
X006336Y001139D01*
X006322Y001133D01*
X006308Y001131D01*
X006294Y001133D01*
X006280Y001139D01*
X006268Y001147D01*
X006260Y001159D01*
X006254Y001173D01*
X006252Y001187D01*
X006094Y001123D02*
X006096Y001148D01*
X006102Y001173D01*
X006111Y001197D01*
X006124Y001219D01*
X006140Y001239D01*
X006158Y001257D01*
X006180Y001271D01*
X006203Y001282D01*
X006227Y001290D01*
X006252Y001294D01*
X006278Y001294D01*
X006303Y001290D01*
X006327Y001282D01*
X006351Y001271D01*
X006372Y001257D01*
X006390Y001239D01*
X006406Y001219D01*
X006419Y001197D01*
X006428Y001173D01*
X006434Y001148D01*
X006436Y001123D01*
X006434Y001098D01*
X006428Y001073D01*
X006419Y001049D01*
X006406Y001027D01*
X006390Y001007D01*
X006372Y000989D01*
X006350Y000975D01*
X006327Y000964D01*
X006303Y000956D01*
X006278Y000952D01*
X006252Y000952D01*
X006227Y000956D01*
X006203Y000964D01*
X006179Y000975D01*
X006158Y000989D01*
X006140Y001007D01*
X006124Y001027D01*
X006111Y001049D01*
X006102Y001073D01*
X006096Y001098D01*
X006094Y001123D01*
X005624Y000695D02*
X005642Y000717D01*
X005656Y000740D01*
X005668Y000765D01*
X005675Y000792D01*
X005679Y000819D01*
X005680Y000846D01*
X005676Y000874D01*
X005669Y000900D01*
X005659Y000926D01*
X005645Y000950D01*
X005628Y000971D01*
X005608Y000990D01*
X005586Y001007D01*
X005561Y001020D01*
X005536Y001029D01*
X005509Y001036D01*
X005481Y001038D01*
X005454Y001037D01*
X005454Y001038D02*
X005480Y001049D01*
X005505Y001064D01*
X005528Y001083D01*
X005549Y001103D01*
X005566Y001127D01*
X005580Y001152D01*
X005591Y001179D01*
X005599Y001207D01*
X005603Y001236D01*
X005603Y001266D01*
X005599Y001295D01*
X005591Y001323D01*
X005580Y001350D01*
X005566Y001375D01*
X005549Y001399D01*
X005528Y001419D01*
X005505Y001438D01*
X005480Y001453D01*
X005454Y001464D01*
X005454Y001465D02*
X005484Y001457D01*
X005515Y001453D01*
X005547Y001452D01*
X005579Y001456D01*
X005609Y001463D01*
X005639Y001475D01*
X005667Y001489D01*
X005693Y001507D01*
X005717Y001528D01*
X005737Y001552D01*
X005755Y001578D01*
X005770Y001606D01*
X005781Y001636D01*
X005788Y001667D01*
X005792Y001698D01*
X005791Y001730D01*
X005787Y001761D01*
X005779Y001792D01*
X005767Y001821D01*
X005752Y001849D01*
X005753Y001849D02*
X005777Y001823D01*
X005804Y001799D01*
X005833Y001778D01*
X005864Y001761D01*
X005897Y001747D01*
X005931Y001737D01*
X005966Y001730D01*
X006002Y001728D01*
X006038Y001730D01*
X006073Y001735D01*
X006107Y001744D01*
X006141Y001757D01*
X006172Y001774D01*
X006202Y001794D01*
X006229Y001817D01*
X006253Y001843D01*
X006275Y001871D01*
X006293Y001902D01*
X006308Y001935D01*
X006949Y001122D02*
X006918Y001123D01*
X006887Y001119D01*
X006857Y001112D01*
X006828Y001102D01*
X006800Y001088D01*
X006774Y001071D01*
X006750Y001051D01*
X006729Y001029D01*
X006710Y001004D01*
X006694Y000977D01*
X006682Y000949D01*
X006673Y000919D01*
X006667Y000889D01*
X006665Y000858D01*
X006667Y000827D01*
X006672Y000796D01*
X006681Y000766D01*
X006693Y000738D01*
X004571Y002918D02*
X004442Y002789D01*
X004253Y002943D01*
X004177Y002904D01*
X004070Y003163D01*
X004110Y003185D01*
X004146Y003214D01*
X004175Y003250D01*
X004197Y003290D01*
X004210Y003334D01*
X004214Y003380D01*
X004209Y003430D01*
X004193Y003478D01*
X004167Y003521D01*
X004132Y003558D01*
X004090Y003587D01*
X004044Y003606D01*
X003994Y003614D01*
X003943Y003611D01*
X003895Y003598D01*
X003850Y003575D01*
X003811Y003542D01*
X003780Y003502D01*
X003759Y003457D01*
X003747Y003408D01*
X003747Y003357D01*
X003757Y003308D01*
X003778Y003261D01*
X003808Y003221D01*
X003846Y003188D01*
X003890Y003163D01*
X003783Y002904D01*
X003707Y002943D01*
X003518Y002789D01*
X003389Y002918D01*
X003543Y003107D01*
X003504Y003183D01*
X003478Y003264D01*
X003236Y003289D01*
X003236Y003471D01*
X003478Y003496D01*
X003504Y003577D01*
X003543Y003653D01*
X003389Y003842D01*
X003518Y003971D01*
X003707Y003817D01*
X003783Y003856D01*
X003864Y003882D01*
X003889Y004124D01*
X004071Y004124D01*
X004096Y003882D01*
X004177Y003856D01*
X004253Y003817D01*
X004442Y003971D01*
X004571Y003842D01*
X004417Y003653D01*
X004456Y003577D01*
X004482Y003496D01*
X004724Y003471D01*
X004724Y003289D01*
X004482Y003264D01*
X004456Y003183D01*
X004417Y003107D01*
X004571Y002918D01*
X004527Y002875D02*
X004337Y002875D01*
X004477Y003033D02*
X004124Y003033D01*
X004118Y003192D02*
X004459Y003192D01*
X004211Y003350D02*
X004724Y003350D01*
X004478Y003509D02*
X004175Y003509D01*
X004428Y003667D02*
X003532Y003667D01*
X003402Y003826D02*
X003697Y003826D01*
X003723Y003826D02*
X004237Y003826D01*
X004263Y003826D02*
X004558Y003826D01*
X004086Y003984D02*
X003874Y003984D01*
X003785Y003509D02*
X003482Y003509D01*
X003236Y003350D02*
X003748Y003350D01*
X003842Y003192D02*
X003501Y003192D01*
X003483Y003033D02*
X003836Y003033D01*
X003623Y002875D02*
X003433Y002875D01*
M02*
