G75*
G70*
%OFA0B0*%
%FSLAX24Y24*%
%IPPOS*%
%LPD*%
%AMOC8*
5,1,8,0,0,1.08239X$1,22.5*
%
%ADD10C,0.0560*%
%ADD11C,0.0660*%
%ADD12C,0.0640*%
%ADD13C,0.0756*%
%ADD14C,0.0120*%
D10*
X000860Y001860D03*
X001860Y001860D03*
X002860Y001860D03*
X003860Y001860D03*
X003860Y004860D03*
X002860Y004860D03*
X001860Y004860D03*
X000860Y004860D03*
D11*
X005860Y004860D03*
X006860Y004860D03*
X006860Y003860D03*
X005860Y003860D03*
X005860Y005860D03*
X006860Y005860D03*
D12*
X000860Y000860D03*
X001860Y000860D03*
X002860Y000860D03*
X003860Y000860D03*
X003860Y005860D03*
X002860Y005860D03*
X001860Y005860D03*
X000860Y005860D03*
D13*
X004982Y001060D03*
X007738Y001060D03*
D14*
X004982Y001060D02*
X004982Y001938D01*
X004560Y002360D01*
X001160Y002360D01*
X000860Y002060D01*
X000860Y001860D01*
X000860Y000860D01*
X001860Y000860D02*
X001860Y001860D01*
X002860Y001860D02*
X002860Y000860D01*
X002560Y003960D02*
X004960Y003960D01*
X005860Y004860D01*
X006360Y005360D02*
X004860Y005360D01*
X004360Y004860D01*
X003860Y004860D01*
X003860Y005860D01*
X002860Y005860D02*
X002860Y004860D01*
X002560Y003960D02*
X001860Y004660D01*
X001860Y004860D01*
X001860Y005860D01*
X000860Y005860D02*
X000860Y004860D01*
X006360Y005360D02*
X006860Y004860D01*
M02*
