G75*
G70*
%OFA0B0*%
%FSLAX24Y24*%
%IPPOS*%
%LPD*%
%AMOC8*
5,1,8,0,0,1.08239X$1,22.5*
%
%ADD10C,0.0480*%
%ADD11C,0.0660*%
%ADD12C,0.0600*%
%ADD13C,0.0709*%
%ADD14C,0.0160*%
D10*
X000880Y001880D03*
X001880Y001880D03*
X002880Y001880D03*
X003880Y001880D03*
X003880Y004880D03*
X002880Y004880D03*
X001880Y004880D03*
X000880Y004880D03*
D11*
X005880Y004880D03*
X006880Y004880D03*
X006880Y005880D03*
X005880Y005880D03*
X005880Y003880D03*
X006880Y003880D03*
D12*
X000880Y000880D03*
X001880Y000880D03*
X002880Y000880D03*
X003880Y000880D03*
X003880Y005880D03*
X002880Y005880D03*
X001880Y005880D03*
X000880Y005880D03*
D13*
X005002Y001080D03*
X007758Y001080D03*
D14*
X005002Y001080D02*
X004980Y001102D01*
X004980Y001980D01*
X004580Y002380D01*
X001180Y002380D01*
X000880Y002080D01*
X000880Y001880D01*
X000880Y000880D01*
X001880Y000880D02*
X001880Y001880D01*
X002880Y001880D02*
X002880Y000880D01*
X002580Y003980D02*
X004980Y003980D01*
X005880Y004880D01*
X006380Y005380D02*
X004880Y005380D01*
X004380Y004880D01*
X003880Y004880D01*
X003880Y005880D01*
X002880Y005880D02*
X002880Y004880D01*
X002580Y003980D02*
X001880Y004680D01*
X001880Y004880D01*
X001880Y005880D01*
X000880Y005880D02*
X000880Y004880D01*
X006380Y005380D02*
X006880Y004880D01*
M02*
