%
M48
M72
T01C0.0197
T02C0.0320
T03C0.0400
T04C0.0472
%
T01
X5250Y3040
X6450Y5440
X6650Y5840
X8750Y6340
X10250Y5940
X10650Y6340
X14526Y5416
X13444Y4171
X10350Y3640
X10050Y3340
X10450Y540
X3950Y5440
X3950Y6600
X10450Y9340
T02
X14320Y5890
X14320Y3990
T03
X950Y940
X1950Y940
X2950Y940
X3950Y940
X4950Y940
X5950Y940
X6950Y940
X7950Y940
X8950Y940
X9950Y940
X10950Y940
X11950Y940
X12950Y940
X13950Y940
X14950Y940
X15950Y940
X16950Y940
X17950Y940
X17950Y8940
X16950Y8940
X15950Y8940
X14950Y8940
X13950Y8940
X12950Y8940
X11950Y8940
X10950Y8940
X9950Y8940
X8950Y8940
X7950Y8940
X6950Y8940
X5950Y8940
X4950Y8940
X3950Y8940
X2950Y8940
X1950Y8940
X950Y8940
X1950Y7440
X1950Y6440
X950Y6440
X950Y5440
X1950Y5440
X1950Y4440
X950Y4440
X950Y3440
X1950Y3440
X1950Y2440
T04
X16250Y3759
X16250Y6121
M30
