G75*
G70*
%OFA0B0*%
%FSLAX24Y24*%
%IPPOS*%
%LPD*%
%AMOC8*
5,1,8,0,0,1.08239X$1,22.5*
%
%ADD10C,0.0480*%
%ADD11R,0.0600X0.0600*%
%ADD12OC8,0.0600*%
%ADD13R,0.0709X0.0630*%
%ADD14C,0.0709*%
%ADD15R,0.0880X0.0480*%
%ADD16R,0.0866X0.1417*%
%ADD17R,0.0358X0.0480*%
%ADD18R,0.0250X0.0500*%
%ADD19C,0.0337*%
%ADD20C,0.0100*%
%ADD21C,0.0160*%
D10*
X014320Y003990D03*
X014320Y005890D03*
D11*
X002950Y008940D03*
X000950Y003440D03*
X001950Y002440D03*
X002950Y000940D03*
D12*
X001950Y000940D03*
X000950Y000940D03*
X003950Y000940D03*
X004950Y000940D03*
X005950Y000940D03*
X006950Y000940D03*
X007950Y000940D03*
X008950Y000940D03*
X009950Y000940D03*
X010950Y000940D03*
X011950Y000940D03*
X012950Y000940D03*
X013950Y000940D03*
X014950Y000940D03*
X015950Y000940D03*
X016950Y000940D03*
X017950Y000940D03*
X017950Y008940D03*
X016950Y008940D03*
X015950Y008940D03*
X014950Y008940D03*
X013950Y008940D03*
X012950Y008940D03*
X011950Y008940D03*
X010950Y008940D03*
X009950Y008940D03*
X008950Y008940D03*
X007950Y008940D03*
X006950Y008940D03*
X005950Y008940D03*
X004950Y008940D03*
X003950Y008940D03*
X001950Y008940D03*
X000950Y008940D03*
X001950Y007440D03*
X001950Y006440D03*
X000950Y006440D03*
X000950Y005440D03*
X001950Y005440D03*
X001950Y004440D03*
X000950Y004440D03*
X001950Y003440D03*
D13*
X007000Y006689D03*
X008080Y006689D03*
X008080Y007791D03*
X007000Y007791D03*
D14*
X016250Y006121D03*
X016250Y003759D03*
D15*
X007730Y003730D03*
X007730Y004640D03*
X007730Y005550D03*
D16*
X010170Y004640D03*
D17*
X005690Y004840D03*
X004410Y004840D03*
X004410Y003740D03*
X005690Y003740D03*
D18*
X004627Y002690D03*
X004273Y002690D03*
X014840Y004740D03*
X015190Y004740D03*
X015540Y004740D03*
D19*
X014526Y005416D03*
X013444Y004171D03*
X010350Y003640D03*
X010050Y003340D03*
X006450Y005440D03*
X006650Y005840D03*
X008750Y006340D03*
X010250Y005940D03*
X010650Y006340D03*
X010450Y009340D03*
X003950Y006600D03*
X003950Y005440D03*
X005250Y003040D03*
X010450Y000540D03*
D20*
X000350Y000340D02*
X000350Y009540D01*
X018550Y009540D01*
X018550Y000340D01*
X000350Y000340D01*
X000350Y000436D02*
X018550Y000436D01*
X018550Y000534D02*
X018124Y000534D01*
X018120Y000530D02*
X018360Y000770D01*
X018360Y001110D01*
X018120Y001350D01*
X017780Y001350D01*
X017540Y001110D01*
X017540Y000770D01*
X017780Y000530D01*
X018120Y000530D01*
X018222Y000633D02*
X018550Y000633D01*
X018550Y000731D02*
X018321Y000731D01*
X018360Y000830D02*
X018550Y000830D01*
X018550Y000928D02*
X018360Y000928D01*
X018360Y001027D02*
X018550Y001027D01*
X018550Y001125D02*
X018345Y001125D01*
X018246Y001224D02*
X018550Y001224D01*
X018550Y001322D02*
X018148Y001322D01*
X018550Y001421D02*
X002199Y001421D01*
X002129Y001350D02*
X003279Y002500D01*
X004038Y002500D01*
X004038Y002394D01*
X004102Y002330D01*
X004443Y002330D01*
X004450Y002337D01*
X004457Y002330D01*
X004798Y002330D01*
X004862Y002394D01*
X004862Y002986D01*
X004820Y003028D01*
X004820Y003121D01*
X005249Y003550D01*
X005401Y003550D01*
X005401Y003454D01*
X005465Y003390D01*
X005914Y003390D01*
X005979Y003454D01*
X005979Y004026D01*
X005914Y004090D01*
X005880Y004090D01*
X005880Y004490D01*
X005914Y004490D01*
X005979Y004554D01*
X005979Y004650D01*
X006644Y004650D01*
X006716Y004645D01*
X006721Y004650D01*
X006729Y004650D01*
X006780Y004701D01*
X007349Y005200D01*
X008216Y005200D01*
X008260Y005244D01*
X008260Y004946D01*
X008216Y004990D01*
X007244Y004990D01*
X007180Y004926D01*
X007180Y004354D01*
X007244Y004290D01*
X008216Y004290D01*
X008280Y004354D01*
X008280Y004450D01*
X008429Y004450D01*
X008490Y004511D01*
X008490Y003474D01*
X008584Y003380D01*
X009772Y003380D01*
X009772Y003288D01*
X009684Y003200D01*
X005484Y003200D01*
X005408Y003276D01*
X005305Y003318D01*
X005195Y003318D01*
X005092Y003276D01*
X005014Y003198D01*
X004972Y003095D01*
X004820Y003095D01*
X004851Y002997D02*
X004972Y002997D01*
X004972Y002985D02*
X005014Y002882D01*
X005092Y002804D01*
X005195Y002762D01*
X005305Y002762D01*
X005408Y002804D01*
X005484Y002880D01*
X009816Y002880D01*
X009998Y003062D01*
X010105Y003062D01*
X010208Y003104D01*
X010284Y003180D01*
X014916Y003180D01*
X016410Y004674D01*
X016410Y005685D01*
X016513Y005727D01*
X016644Y005858D01*
X016714Y006029D01*
X016714Y006213D01*
X016644Y006384D01*
X016513Y006515D01*
X016342Y006585D01*
X016158Y006585D01*
X015987Y006515D01*
X015856Y006384D01*
X015786Y006213D01*
X015786Y006029D01*
X015856Y005858D01*
X015987Y005727D01*
X016090Y005685D01*
X016090Y004806D01*
X015815Y004531D01*
X015815Y004727D01*
X015553Y004727D01*
X015553Y004753D01*
X015527Y004753D01*
X015527Y005140D01*
X015395Y005140D01*
X015357Y005130D01*
X015323Y005110D01*
X015313Y005100D01*
X015019Y005100D01*
X015015Y005096D01*
X015011Y005100D01*
X015000Y005100D01*
X015000Y005156D01*
X014906Y005250D01*
X014802Y005355D01*
X014804Y005360D01*
X014804Y005471D01*
X014762Y005573D01*
X014683Y005652D01*
X014608Y005683D01*
X014617Y005692D01*
X014670Y005820D01*
X014670Y005960D01*
X014617Y006088D01*
X014518Y006187D01*
X014390Y006240D01*
X014250Y006240D01*
X014242Y006237D01*
X013949Y006530D01*
X010854Y006530D01*
X010808Y006576D01*
X010705Y006618D01*
X010595Y006618D01*
X010492Y006576D01*
X010414Y006498D01*
X010372Y006395D01*
X010372Y006285D01*
X010414Y006182D01*
X010466Y006130D01*
X010454Y006130D01*
X010408Y006176D01*
X010305Y006218D01*
X010195Y006218D01*
X010092Y006176D01*
X010014Y006098D01*
X009973Y006000D01*
X008640Y006000D01*
X008640Y006084D01*
X008695Y006062D01*
X008805Y006062D01*
X008908Y006104D01*
X008986Y006182D01*
X009028Y006285D01*
X009028Y006395D01*
X008986Y006498D01*
X008908Y006576D01*
X008805Y006618D01*
X008695Y006618D01*
X008592Y006576D01*
X008547Y006531D01*
X008544Y006533D01*
X008544Y007049D01*
X008480Y007114D01*
X007680Y007114D01*
X007616Y007049D01*
X007616Y006328D01*
X007680Y006264D01*
X008260Y006264D01*
X008260Y005856D01*
X008216Y005900D01*
X007359Y005900D01*
X007190Y006069D01*
X007190Y006264D01*
X007400Y006264D01*
X007464Y006328D01*
X007464Y007049D01*
X007400Y007114D01*
X006600Y007114D01*
X006536Y007049D01*
X006536Y006328D01*
X006600Y006264D01*
X006810Y006264D01*
X006810Y006074D01*
X006808Y006076D01*
X006705Y006118D01*
X006595Y006118D01*
X006492Y006076D01*
X006416Y006000D01*
X004776Y006000D01*
X004228Y006548D01*
X004228Y006655D01*
X004186Y006758D01*
X004110Y006834D01*
X004110Y008530D01*
X004120Y008530D01*
X004360Y008770D01*
X004360Y009110D01*
X004120Y009350D01*
X003780Y009350D01*
X003540Y009110D01*
X003540Y008770D01*
X003780Y008530D01*
X003790Y008530D01*
X003790Y006834D01*
X003714Y006758D01*
X003672Y006655D01*
X003672Y006545D01*
X003714Y006442D01*
X003792Y006364D01*
X003895Y006322D01*
X004002Y006322D01*
X004644Y005680D01*
X006302Y005680D01*
X006292Y005676D01*
X006216Y005600D01*
X004184Y005600D01*
X004108Y005676D01*
X004005Y005718D01*
X003898Y005718D01*
X003110Y006506D01*
X003110Y008530D01*
X003296Y008530D01*
X003360Y008594D01*
X003360Y009286D01*
X003296Y009350D01*
X002604Y009350D01*
X002540Y009286D01*
X002540Y008594D01*
X002604Y008530D01*
X002790Y008530D01*
X002790Y006374D01*
X003672Y005492D01*
X003672Y005385D01*
X003714Y005282D01*
X003792Y005204D01*
X003895Y005162D01*
X004005Y005162D01*
X004108Y005204D01*
X004184Y005280D01*
X006216Y005280D01*
X006292Y005204D01*
X006395Y005162D01*
X006505Y005162D01*
X006608Y005204D01*
X006686Y005282D01*
X006728Y005385D01*
X006728Y005495D01*
X006701Y005562D01*
X006705Y005562D01*
X006808Y005604D01*
X006886Y005682D01*
X006928Y005785D01*
X006928Y005793D01*
X007172Y005550D01*
X006579Y005030D01*
X005979Y005030D01*
X005979Y005126D01*
X005914Y005190D01*
X005465Y005190D01*
X005401Y005126D01*
X005401Y004554D01*
X005465Y004490D01*
X005500Y004490D01*
X005500Y004090D01*
X005465Y004090D01*
X005401Y004026D01*
X005401Y003930D01*
X005091Y003930D01*
X004699Y003538D01*
X004699Y004026D01*
X004635Y004090D01*
X004186Y004090D01*
X004121Y004026D01*
X004121Y003720D01*
X004083Y003681D01*
X004083Y003031D01*
X004038Y002986D01*
X004038Y002880D01*
X003121Y002880D01*
X002400Y002159D01*
X002400Y002390D01*
X002000Y002390D01*
X002000Y002490D01*
X001900Y002490D01*
X001900Y002890D01*
X001630Y002890D01*
X001592Y002880D01*
X001558Y002860D01*
X001530Y002832D01*
X001510Y002798D01*
X001500Y002760D01*
X001500Y002490D01*
X001900Y002490D01*
X001900Y002390D01*
X002000Y002390D01*
X002000Y001990D01*
X002231Y001990D01*
X001971Y001730D01*
X001471Y001730D01*
X001360Y001619D01*
X001091Y001350D01*
X000780Y001350D01*
X000540Y001110D01*
X000540Y000770D01*
X000780Y000530D01*
X001120Y000530D01*
X001360Y000770D01*
X001360Y001081D01*
X001629Y001350D01*
X002129Y001350D01*
X002120Y001350D02*
X001780Y001350D01*
X001540Y001110D01*
X001540Y000770D01*
X001780Y000530D01*
X002120Y000530D01*
X002360Y000770D01*
X002360Y001110D01*
X002120Y001350D01*
X002148Y001322D02*
X002576Y001322D01*
X002604Y001350D02*
X002540Y001286D01*
X002540Y000594D01*
X002604Y000530D01*
X003296Y000530D01*
X003360Y000594D01*
X003360Y001286D01*
X003296Y001350D01*
X002604Y001350D01*
X002540Y001224D02*
X002246Y001224D01*
X002345Y001125D02*
X002540Y001125D01*
X002540Y001027D02*
X002360Y001027D01*
X002360Y000928D02*
X002540Y000928D01*
X002540Y000830D02*
X002360Y000830D01*
X002321Y000731D02*
X002540Y000731D01*
X002540Y000633D02*
X002222Y000633D01*
X002124Y000534D02*
X002600Y000534D01*
X003300Y000534D02*
X003776Y000534D01*
X003780Y000530D02*
X004120Y000530D01*
X004360Y000770D01*
X004360Y001110D01*
X004120Y001350D01*
X003780Y001350D01*
X003540Y001110D01*
X003540Y000770D01*
X003780Y000530D01*
X003678Y000633D02*
X003360Y000633D01*
X003360Y000731D02*
X003579Y000731D01*
X003540Y000830D02*
X003360Y000830D01*
X003360Y000928D02*
X003540Y000928D01*
X003540Y001027D02*
X003360Y001027D01*
X003360Y001125D02*
X003555Y001125D01*
X003654Y001224D02*
X003360Y001224D01*
X003324Y001322D02*
X003752Y001322D01*
X004148Y001322D02*
X004752Y001322D01*
X004780Y001350D02*
X004540Y001110D01*
X004540Y000770D01*
X004780Y000530D01*
X005120Y000530D01*
X005360Y000770D01*
X005360Y001110D01*
X005120Y001350D01*
X004780Y001350D01*
X004654Y001224D02*
X004246Y001224D01*
X004345Y001125D02*
X004555Y001125D01*
X004540Y001027D02*
X004360Y001027D01*
X004360Y000928D02*
X004540Y000928D01*
X004540Y000830D02*
X004360Y000830D01*
X004321Y000731D02*
X004579Y000731D01*
X004678Y000633D02*
X004222Y000633D01*
X004124Y000534D02*
X004776Y000534D01*
X005124Y000534D02*
X005776Y000534D01*
X005780Y000530D02*
X006120Y000530D01*
X006360Y000770D01*
X006360Y001110D01*
X006120Y001350D01*
X005780Y001350D01*
X005540Y001110D01*
X005540Y000770D01*
X005780Y000530D01*
X005678Y000633D02*
X005222Y000633D01*
X005321Y000731D02*
X005579Y000731D01*
X005540Y000830D02*
X005360Y000830D01*
X005360Y000928D02*
X005540Y000928D01*
X005540Y001027D02*
X005360Y001027D01*
X005345Y001125D02*
X005555Y001125D01*
X005654Y001224D02*
X005246Y001224D01*
X005148Y001322D02*
X005752Y001322D01*
X006148Y001322D02*
X006752Y001322D01*
X006780Y001350D02*
X006540Y001110D01*
X006540Y000770D01*
X006780Y000530D01*
X007120Y000530D01*
X007360Y000770D01*
X007360Y001110D01*
X007120Y001350D01*
X006780Y001350D01*
X006654Y001224D02*
X006246Y001224D01*
X006345Y001125D02*
X006555Y001125D01*
X006540Y001027D02*
X006360Y001027D01*
X006360Y000928D02*
X006540Y000928D01*
X006540Y000830D02*
X006360Y000830D01*
X006321Y000731D02*
X006579Y000731D01*
X006678Y000633D02*
X006222Y000633D01*
X006124Y000534D02*
X006776Y000534D01*
X007124Y000534D02*
X007776Y000534D01*
X007780Y000530D02*
X008120Y000530D01*
X008360Y000770D01*
X008360Y001110D01*
X008120Y001350D01*
X007780Y001350D01*
X007540Y001110D01*
X007540Y000770D01*
X007780Y000530D01*
X007678Y000633D02*
X007222Y000633D01*
X007321Y000731D02*
X007579Y000731D01*
X007540Y000830D02*
X007360Y000830D01*
X007360Y000928D02*
X007540Y000928D01*
X007540Y001027D02*
X007360Y001027D01*
X007345Y001125D02*
X007555Y001125D01*
X007654Y001224D02*
X007246Y001224D01*
X007148Y001322D02*
X007752Y001322D01*
X008148Y001322D02*
X008752Y001322D01*
X008780Y001350D02*
X008540Y001110D01*
X008540Y000770D01*
X008780Y000530D01*
X009120Y000530D01*
X009360Y000770D01*
X009360Y001110D01*
X009120Y001350D01*
X008780Y001350D01*
X008654Y001224D02*
X008246Y001224D01*
X008345Y001125D02*
X008555Y001125D01*
X008540Y001027D02*
X008360Y001027D01*
X008360Y000928D02*
X008540Y000928D01*
X008540Y000830D02*
X008360Y000830D01*
X008321Y000731D02*
X008579Y000731D01*
X008678Y000633D02*
X008222Y000633D01*
X008124Y000534D02*
X008776Y000534D01*
X009124Y000534D02*
X009776Y000534D01*
X009780Y000530D02*
X010120Y000530D01*
X010360Y000770D01*
X010360Y001110D01*
X010120Y001350D01*
X009780Y001350D01*
X009540Y001110D01*
X009540Y000770D01*
X009780Y000530D01*
X009678Y000633D02*
X009222Y000633D01*
X009321Y000731D02*
X009579Y000731D01*
X009540Y000830D02*
X009360Y000830D01*
X009360Y000928D02*
X009540Y000928D01*
X009540Y001027D02*
X009360Y001027D01*
X009345Y001125D02*
X009555Y001125D01*
X009654Y001224D02*
X009246Y001224D01*
X009148Y001322D02*
X009752Y001322D01*
X010148Y001322D02*
X010752Y001322D01*
X010780Y001350D02*
X010540Y001110D01*
X010540Y000770D01*
X010780Y000530D01*
X011120Y000530D01*
X011360Y000770D01*
X011360Y001110D01*
X011120Y001350D01*
X010780Y001350D01*
X010654Y001224D02*
X010246Y001224D01*
X010345Y001125D02*
X010555Y001125D01*
X010540Y001027D02*
X010360Y001027D01*
X010360Y000928D02*
X010540Y000928D01*
X010540Y000830D02*
X010360Y000830D01*
X010321Y000731D02*
X010579Y000731D01*
X010678Y000633D02*
X010222Y000633D01*
X010124Y000534D02*
X010776Y000534D01*
X011124Y000534D02*
X011776Y000534D01*
X011780Y000530D02*
X012120Y000530D01*
X012360Y000770D01*
X012360Y001110D01*
X012120Y001350D01*
X011780Y001350D01*
X011540Y001110D01*
X011540Y000770D01*
X011780Y000530D01*
X011678Y000633D02*
X011222Y000633D01*
X011321Y000731D02*
X011579Y000731D01*
X011540Y000830D02*
X011360Y000830D01*
X011360Y000928D02*
X011540Y000928D01*
X011540Y001027D02*
X011360Y001027D01*
X011345Y001125D02*
X011555Y001125D01*
X011654Y001224D02*
X011246Y001224D01*
X011148Y001322D02*
X011752Y001322D01*
X012148Y001322D02*
X012752Y001322D01*
X012780Y001350D02*
X012540Y001110D01*
X012540Y000770D01*
X012780Y000530D01*
X013120Y000530D01*
X013360Y000770D01*
X013360Y001110D01*
X013120Y001350D01*
X012780Y001350D01*
X012654Y001224D02*
X012246Y001224D01*
X012345Y001125D02*
X012555Y001125D01*
X012540Y001027D02*
X012360Y001027D01*
X012360Y000928D02*
X012540Y000928D01*
X012540Y000830D02*
X012360Y000830D01*
X012321Y000731D02*
X012579Y000731D01*
X012678Y000633D02*
X012222Y000633D01*
X012124Y000534D02*
X012776Y000534D01*
X013124Y000534D02*
X013776Y000534D01*
X013780Y000530D02*
X014120Y000530D01*
X014360Y000770D01*
X014360Y001110D01*
X014120Y001350D01*
X013780Y001350D01*
X013540Y001110D01*
X013540Y000770D01*
X013780Y000530D01*
X013678Y000633D02*
X013222Y000633D01*
X013321Y000731D02*
X013579Y000731D01*
X013540Y000830D02*
X013360Y000830D01*
X013360Y000928D02*
X013540Y000928D01*
X013540Y001027D02*
X013360Y001027D01*
X013345Y001125D02*
X013555Y001125D01*
X013654Y001224D02*
X013246Y001224D01*
X013148Y001322D02*
X013752Y001322D01*
X014148Y001322D02*
X014752Y001322D01*
X014780Y001350D02*
X014540Y001110D01*
X014540Y000770D01*
X014780Y000530D01*
X015120Y000530D01*
X015360Y000770D01*
X015360Y001110D01*
X015120Y001350D01*
X014780Y001350D01*
X014654Y001224D02*
X014246Y001224D01*
X014345Y001125D02*
X014555Y001125D01*
X014540Y001027D02*
X014360Y001027D01*
X014360Y000928D02*
X014540Y000928D01*
X014540Y000830D02*
X014360Y000830D01*
X014321Y000731D02*
X014579Y000731D01*
X014678Y000633D02*
X014222Y000633D01*
X014124Y000534D02*
X014776Y000534D01*
X015124Y000534D02*
X015776Y000534D01*
X015780Y000530D02*
X016120Y000530D01*
X016360Y000770D01*
X016360Y001110D01*
X016120Y001350D01*
X015780Y001350D01*
X015540Y001110D01*
X015540Y000770D01*
X015780Y000530D01*
X015678Y000633D02*
X015222Y000633D01*
X015321Y000731D02*
X015579Y000731D01*
X015540Y000830D02*
X015360Y000830D01*
X015360Y000928D02*
X015540Y000928D01*
X015540Y001027D02*
X015360Y001027D01*
X015345Y001125D02*
X015555Y001125D01*
X015654Y001224D02*
X015246Y001224D01*
X015148Y001322D02*
X015752Y001322D01*
X016148Y001322D02*
X016752Y001322D01*
X016780Y001350D02*
X016540Y001110D01*
X016540Y000770D01*
X016780Y000530D01*
X017120Y000530D01*
X017360Y000770D01*
X017360Y001110D01*
X017120Y001350D01*
X016780Y001350D01*
X016654Y001224D02*
X016246Y001224D01*
X016345Y001125D02*
X016555Y001125D01*
X016540Y001027D02*
X016360Y001027D01*
X016360Y000928D02*
X016540Y000928D01*
X016540Y000830D02*
X016360Y000830D01*
X016321Y000731D02*
X016579Y000731D01*
X016678Y000633D02*
X016222Y000633D01*
X016124Y000534D02*
X016776Y000534D01*
X017124Y000534D02*
X017776Y000534D01*
X017678Y000633D02*
X017222Y000633D01*
X017321Y000731D02*
X017579Y000731D01*
X017540Y000830D02*
X017360Y000830D01*
X017360Y000928D02*
X017540Y000928D01*
X017540Y001027D02*
X017360Y001027D01*
X017345Y001125D02*
X017555Y001125D01*
X017654Y001224D02*
X017246Y001224D01*
X017148Y001322D02*
X017752Y001322D01*
X018550Y001519D02*
X002298Y001519D01*
X002396Y001618D02*
X018550Y001618D01*
X018550Y001716D02*
X002495Y001716D01*
X002593Y001815D02*
X018550Y001815D01*
X018550Y001913D02*
X002692Y001913D01*
X002790Y002012D02*
X018550Y002012D01*
X018550Y002110D02*
X002889Y002110D01*
X002987Y002209D02*
X018550Y002209D01*
X018550Y002307D02*
X003086Y002307D01*
X003184Y002406D02*
X004038Y002406D01*
X004862Y002406D02*
X018550Y002406D01*
X018550Y002504D02*
X004862Y002504D01*
X004862Y002603D02*
X018550Y002603D01*
X018550Y002701D02*
X004862Y002701D01*
X004862Y002800D02*
X005103Y002800D01*
X005007Y002898D02*
X004862Y002898D01*
X004972Y002985D02*
X004972Y003095D01*
X005012Y003194D02*
X004892Y003194D01*
X004991Y003292D02*
X005131Y003292D01*
X005089Y003391D02*
X005464Y003391D01*
X005401Y003489D02*
X005188Y003489D01*
X005369Y003292D02*
X009772Y003292D01*
X009750Y003040D02*
X010050Y003340D01*
X014850Y003340D01*
X016250Y004740D01*
X016250Y006121D01*
X015818Y005952D02*
X014670Y005952D01*
X014670Y005853D02*
X015861Y005853D01*
X015960Y005755D02*
X014643Y005755D01*
X014673Y005656D02*
X016090Y005656D01*
X016090Y005558D02*
X014768Y005558D01*
X014804Y005459D02*
X016090Y005459D01*
X016090Y005361D02*
X014804Y005361D01*
X014894Y005262D02*
X016090Y005262D01*
X016090Y005164D02*
X014993Y005164D01*
X014840Y005090D02*
X014840Y004740D01*
X015190Y004740D02*
X015190Y004080D01*
X014650Y003540D01*
X012050Y003540D01*
X011950Y003640D01*
X010350Y003640D01*
X010072Y003618D02*
X010072Y003695D01*
X010107Y003781D01*
X009717Y003781D01*
X009679Y003792D01*
X009645Y003811D01*
X009617Y003839D01*
X009597Y003873D01*
X009587Y003912D01*
X009587Y004590D01*
X010120Y004590D01*
X010120Y004690D01*
X009587Y004690D01*
X009587Y005368D01*
X009597Y005407D01*
X009617Y005441D01*
X009645Y005469D01*
X009679Y005488D01*
X009717Y005499D01*
X010120Y005499D01*
X010120Y004690D01*
X010220Y004690D01*
X010220Y005499D01*
X010623Y005499D01*
X010661Y005488D01*
X010695Y005469D01*
X010723Y005441D01*
X010743Y005407D01*
X010753Y005368D01*
X010753Y004690D01*
X010220Y004690D01*
X010220Y004590D01*
X010753Y004590D01*
X010753Y003912D01*
X010743Y003873D01*
X010723Y003839D01*
X010695Y003811D01*
X010676Y003800D01*
X012016Y003800D01*
X012110Y003706D01*
X012116Y003700D01*
X012450Y003700D01*
X012450Y005685D01*
X012388Y005750D01*
X010454Y005750D01*
X010408Y005704D01*
X010305Y005662D01*
X010195Y005662D01*
X010092Y005704D01*
X010014Y005782D01*
X009990Y005840D01*
X008650Y005840D01*
X008650Y003540D01*
X009856Y003540D01*
X009892Y003576D01*
X009995Y003618D01*
X010072Y003618D01*
X010072Y003686D02*
X008650Y003686D01*
X008650Y003588D02*
X009920Y003588D01*
X009705Y003785D02*
X008650Y003785D01*
X008650Y003883D02*
X009595Y003883D01*
X009587Y003982D02*
X008650Y003982D01*
X008650Y004080D02*
X009587Y004080D01*
X009587Y004179D02*
X008650Y004179D01*
X008650Y004277D02*
X009587Y004277D01*
X009587Y004376D02*
X008650Y004376D01*
X008650Y004474D02*
X009587Y004474D01*
X009587Y004573D02*
X008650Y004573D01*
X008650Y004671D02*
X010120Y004671D01*
X010120Y004770D02*
X010220Y004770D01*
X010220Y004868D02*
X010120Y004868D01*
X010120Y004967D02*
X010220Y004967D01*
X010220Y005065D02*
X010120Y005065D01*
X010120Y005164D02*
X010220Y005164D01*
X010220Y005262D02*
X010120Y005262D01*
X010120Y005361D02*
X010220Y005361D01*
X010220Y005459D02*
X010120Y005459D01*
X010042Y005755D02*
X008650Y005755D01*
X008650Y005656D02*
X012450Y005656D01*
X012450Y005558D02*
X008650Y005558D01*
X008650Y005459D02*
X009635Y005459D01*
X009587Y005361D02*
X008650Y005361D01*
X008650Y005262D02*
X009587Y005262D01*
X009587Y005164D02*
X008650Y005164D01*
X008650Y005065D02*
X009587Y005065D01*
X009587Y004967D02*
X008650Y004967D01*
X008650Y004868D02*
X009587Y004868D01*
X009587Y004770D02*
X008650Y004770D01*
X008260Y004967D02*
X008239Y004967D01*
X008260Y005065D02*
X007195Y005065D01*
X007221Y004967D02*
X007083Y004967D01*
X007180Y004868D02*
X006970Y004868D01*
X006858Y004770D02*
X007180Y004770D01*
X007180Y004671D02*
X006750Y004671D01*
X007180Y004573D02*
X005979Y004573D01*
X005880Y004474D02*
X007180Y004474D01*
X007180Y004376D02*
X005880Y004376D01*
X005880Y004277D02*
X008490Y004277D01*
X008490Y004179D02*
X005880Y004179D01*
X005925Y004080D02*
X007188Y004080D01*
X007198Y004090D02*
X007170Y004062D01*
X007150Y004028D01*
X007140Y003990D01*
X007140Y003780D01*
X007680Y003780D01*
X007680Y004120D01*
X007270Y004120D01*
X007232Y004110D01*
X007198Y004090D01*
X007140Y003982D02*
X005979Y003982D01*
X005979Y003883D02*
X007140Y003883D01*
X007140Y003785D02*
X005979Y003785D01*
X005979Y003686D02*
X007680Y003686D01*
X007680Y003680D02*
X007140Y003680D01*
X007140Y003470D01*
X007150Y003432D01*
X007170Y003398D01*
X007198Y003370D01*
X007232Y003350D01*
X007270Y003340D01*
X007680Y003340D01*
X007680Y003680D01*
X007780Y003680D01*
X007780Y003780D01*
X007680Y003780D01*
X007680Y003680D01*
X007680Y003588D02*
X007780Y003588D01*
X007780Y003680D02*
X007780Y003340D01*
X008190Y003340D01*
X008228Y003350D01*
X008262Y003370D01*
X008290Y003398D01*
X008310Y003432D01*
X008320Y003470D01*
X008320Y003680D01*
X007780Y003680D01*
X007780Y003686D02*
X008490Y003686D01*
X008490Y003588D02*
X008320Y003588D01*
X008320Y003489D02*
X008490Y003489D01*
X008573Y003391D02*
X008283Y003391D01*
X007780Y003391D02*
X007680Y003391D01*
X007680Y003489D02*
X007780Y003489D01*
X007780Y003780D02*
X008320Y003780D01*
X008320Y003990D01*
X008310Y004028D01*
X008290Y004062D01*
X008262Y004090D01*
X008228Y004110D01*
X008190Y004120D01*
X007780Y004120D01*
X007780Y003780D01*
X007780Y003785D02*
X007680Y003785D01*
X007680Y003883D02*
X007780Y003883D01*
X007780Y003982D02*
X007680Y003982D01*
X007680Y004080D02*
X007780Y004080D01*
X008272Y004080D02*
X008490Y004080D01*
X008490Y003982D02*
X008320Y003982D01*
X008320Y003883D02*
X008490Y003883D01*
X008490Y003785D02*
X008320Y003785D01*
X008280Y004376D02*
X008490Y004376D01*
X008490Y004474D02*
X008453Y004474D01*
X008260Y005164D02*
X007307Y005164D01*
X006956Y005361D02*
X006718Y005361D01*
X006728Y005459D02*
X007068Y005459D01*
X007164Y005558D02*
X006703Y005558D01*
X006860Y005656D02*
X007065Y005656D01*
X006967Y005755D02*
X006916Y005755D01*
X006650Y005840D02*
X004710Y005840D01*
X003950Y006600D01*
X003950Y008940D01*
X003540Y008907D02*
X003360Y008907D01*
X003360Y009005D02*
X003540Y009005D01*
X003540Y009104D02*
X003360Y009104D01*
X003360Y009202D02*
X003632Y009202D01*
X003731Y009301D02*
X003345Y009301D01*
X002950Y008940D02*
X002950Y006440D01*
X003950Y005440D01*
X006450Y005440D01*
X006666Y005262D02*
X006843Y005262D01*
X006731Y005164D02*
X006510Y005164D01*
X006390Y005164D02*
X005941Y005164D01*
X005979Y005065D02*
X006618Y005065D01*
X006234Y005262D02*
X004166Y005262D01*
X004186Y005190D02*
X004121Y005126D01*
X004121Y005030D01*
X002271Y005030D01*
X002091Y004850D01*
X001780Y004850D01*
X001540Y004610D01*
X001540Y004270D01*
X001780Y004030D01*
X002120Y004030D01*
X002360Y004270D01*
X002360Y004581D01*
X002429Y004650D01*
X004121Y004650D01*
X004121Y004554D01*
X004186Y004490D01*
X004635Y004490D01*
X004699Y004554D01*
X004699Y005126D01*
X004635Y005190D01*
X004186Y005190D01*
X004159Y005164D02*
X004010Y005164D01*
X003890Y005164D02*
X002253Y005164D01*
X002352Y005262D02*
X003734Y005262D01*
X003682Y005361D02*
X002360Y005361D01*
X002360Y005270D02*
X002120Y005030D01*
X001780Y005030D01*
X001540Y005270D01*
X001540Y005610D01*
X001780Y005850D01*
X002120Y005850D01*
X002360Y005610D01*
X002360Y005270D01*
X002360Y005459D02*
X003672Y005459D01*
X003606Y005558D02*
X002360Y005558D01*
X002314Y005656D02*
X003508Y005656D01*
X003409Y005755D02*
X002215Y005755D01*
X002120Y006030D02*
X001780Y006030D01*
X001540Y006270D01*
X001540Y006610D01*
X001780Y006850D01*
X002120Y006850D01*
X002360Y006610D01*
X002360Y006270D01*
X002120Y006030D01*
X002140Y006050D02*
X003114Y006050D01*
X003212Y005952D02*
X000350Y005952D01*
X000350Y006050D02*
X000760Y006050D01*
X000780Y006030D02*
X001120Y006030D01*
X001360Y006270D01*
X001360Y006610D01*
X001120Y006850D01*
X000780Y006850D01*
X000540Y006610D01*
X000540Y006270D01*
X000780Y006030D01*
X000662Y006149D02*
X000350Y006149D01*
X000350Y006247D02*
X000563Y006247D01*
X000540Y006346D02*
X000350Y006346D01*
X000350Y006444D02*
X000540Y006444D01*
X000540Y006543D02*
X000350Y006543D01*
X000350Y006641D02*
X000571Y006641D01*
X000670Y006740D02*
X000350Y006740D01*
X000350Y006838D02*
X000768Y006838D01*
X001132Y006838D02*
X001768Y006838D01*
X001670Y006740D02*
X001230Y006740D01*
X001329Y006641D02*
X001571Y006641D01*
X001540Y006543D02*
X001360Y006543D01*
X001360Y006444D02*
X001540Y006444D01*
X001540Y006346D02*
X001360Y006346D01*
X001337Y006247D02*
X001563Y006247D01*
X001662Y006149D02*
X001238Y006149D01*
X001140Y006050D02*
X001760Y006050D01*
X002238Y006149D02*
X003015Y006149D01*
X002917Y006247D02*
X002337Y006247D01*
X002360Y006346D02*
X002818Y006346D01*
X002790Y006444D02*
X002360Y006444D01*
X002360Y006543D02*
X002790Y006543D01*
X002790Y006641D02*
X002329Y006641D01*
X002230Y006740D02*
X002790Y006740D01*
X002790Y006838D02*
X002132Y006838D01*
X002120Y007030D02*
X001780Y007030D01*
X001540Y007270D01*
X001540Y007610D01*
X001780Y007850D01*
X002120Y007850D01*
X002360Y007610D01*
X002360Y007270D01*
X002120Y007030D01*
X002125Y007035D02*
X002790Y007035D01*
X002790Y006937D02*
X000350Y006937D01*
X000350Y007035D02*
X001775Y007035D01*
X001677Y007134D02*
X000350Y007134D01*
X000350Y007232D02*
X001578Y007232D01*
X001540Y007331D02*
X000350Y007331D01*
X000350Y007429D02*
X001540Y007429D01*
X001540Y007528D02*
X000350Y007528D01*
X000350Y007626D02*
X001556Y007626D01*
X001655Y007725D02*
X000350Y007725D01*
X000350Y007823D02*
X001753Y007823D01*
X002147Y007823D02*
X002790Y007823D01*
X002790Y007725D02*
X002245Y007725D01*
X002344Y007626D02*
X002790Y007626D01*
X002790Y007528D02*
X002360Y007528D01*
X002360Y007429D02*
X002790Y007429D01*
X002790Y007331D02*
X002360Y007331D01*
X002322Y007232D02*
X002790Y007232D01*
X002790Y007134D02*
X002223Y007134D01*
X003110Y007134D02*
X003790Y007134D01*
X003790Y007232D02*
X003110Y007232D01*
X003110Y007331D02*
X003790Y007331D01*
X003790Y007429D02*
X003110Y007429D01*
X003110Y007528D02*
X003790Y007528D01*
X003790Y007626D02*
X003110Y007626D01*
X003110Y007725D02*
X003790Y007725D01*
X003790Y007823D02*
X003110Y007823D01*
X003110Y007922D02*
X003790Y007922D01*
X003790Y008020D02*
X003110Y008020D01*
X003110Y008119D02*
X003790Y008119D01*
X003790Y008217D02*
X003110Y008217D01*
X003110Y008316D02*
X003790Y008316D01*
X003790Y008414D02*
X003110Y008414D01*
X003110Y008513D02*
X003790Y008513D01*
X003699Y008611D02*
X003360Y008611D01*
X003360Y008710D02*
X003601Y008710D01*
X003540Y008808D02*
X003360Y008808D01*
X002790Y008513D02*
X002159Y008513D01*
X002136Y008490D02*
X002000Y008490D01*
X002000Y008890D01*
X002000Y008990D01*
X002400Y008990D01*
X002400Y009126D01*
X002136Y009390D01*
X002000Y009390D01*
X002000Y008990D01*
X001900Y008990D01*
X001900Y009390D01*
X001764Y009390D01*
X001500Y009126D01*
X001500Y008990D01*
X001900Y008990D01*
X001900Y008890D01*
X002000Y008890D01*
X002400Y008890D01*
X002400Y008754D01*
X002136Y008490D01*
X002000Y008513D02*
X001900Y008513D01*
X001900Y008490D02*
X001764Y008490D01*
X001500Y008754D01*
X001500Y008890D01*
X001900Y008890D01*
X001900Y008490D01*
X001741Y008513D02*
X000350Y008513D01*
X000350Y008611D02*
X000699Y008611D01*
X000780Y008530D02*
X000540Y008770D01*
X000540Y009110D01*
X000780Y009350D01*
X001120Y009350D01*
X001360Y009110D01*
X001360Y008770D01*
X001120Y008530D01*
X000780Y008530D01*
X000601Y008710D02*
X000350Y008710D01*
X000350Y008808D02*
X000540Y008808D01*
X000540Y008907D02*
X000350Y008907D01*
X000350Y009005D02*
X000540Y009005D01*
X000540Y009104D02*
X000350Y009104D01*
X000350Y009202D02*
X000632Y009202D01*
X000731Y009301D02*
X000350Y009301D01*
X000350Y009399D02*
X018550Y009399D01*
X018550Y009301D02*
X018169Y009301D01*
X018120Y009350D02*
X017780Y009350D01*
X017540Y009110D01*
X017540Y008770D01*
X017780Y008530D01*
X018120Y008530D01*
X018360Y008770D01*
X018360Y009110D01*
X018120Y009350D01*
X018268Y009202D02*
X018550Y009202D01*
X018550Y009104D02*
X018360Y009104D01*
X018360Y009005D02*
X018550Y009005D01*
X018550Y008907D02*
X018360Y008907D01*
X018360Y008808D02*
X018550Y008808D01*
X018550Y008710D02*
X018299Y008710D01*
X018201Y008611D02*
X018550Y008611D01*
X018550Y008513D02*
X004110Y008513D01*
X004110Y008414D02*
X018550Y008414D01*
X018550Y008316D02*
X004110Y008316D01*
X004110Y008217D02*
X006544Y008217D01*
X006554Y008226D02*
X006526Y008198D01*
X006506Y008164D01*
X006496Y008126D01*
X006496Y007841D01*
X006950Y007841D01*
X006950Y007741D01*
X007050Y007741D01*
X007050Y007326D01*
X007374Y007326D01*
X007412Y007336D01*
X007446Y007356D01*
X007474Y007384D01*
X007494Y007418D01*
X007504Y007456D01*
X007504Y007741D01*
X007050Y007741D01*
X007050Y007841D01*
X007504Y007841D01*
X007504Y008126D01*
X007494Y008164D01*
X007474Y008198D01*
X007446Y008226D01*
X007412Y008246D01*
X007374Y008256D01*
X007050Y008256D01*
X007050Y007841D01*
X006950Y007841D01*
X006950Y008256D01*
X006626Y008256D01*
X006588Y008246D01*
X006554Y008226D01*
X006496Y008119D02*
X004110Y008119D01*
X004110Y008020D02*
X006496Y008020D01*
X006496Y007922D02*
X004110Y007922D01*
X004110Y007823D02*
X006950Y007823D01*
X006950Y007741D02*
X006496Y007741D01*
X006496Y007456D01*
X006506Y007418D01*
X006526Y007384D01*
X006554Y007356D01*
X006588Y007336D01*
X006626Y007326D01*
X006950Y007326D01*
X006950Y007741D01*
X006950Y007725D02*
X007050Y007725D01*
X007050Y007823D02*
X008030Y007823D01*
X008030Y007841D02*
X008030Y007741D01*
X008130Y007741D01*
X008130Y007326D01*
X008454Y007326D01*
X008492Y007336D01*
X008526Y007356D01*
X008554Y007384D01*
X008574Y007418D01*
X008584Y007456D01*
X008584Y007741D01*
X008130Y007741D01*
X008130Y007841D01*
X008584Y007841D01*
X008584Y008126D01*
X008574Y008164D01*
X008554Y008198D01*
X008526Y008226D01*
X008492Y008246D01*
X008454Y008256D01*
X008130Y008256D01*
X008130Y007841D01*
X008030Y007841D01*
X007576Y007841D01*
X007576Y008126D01*
X007586Y008164D01*
X007606Y008198D01*
X007634Y008226D01*
X007668Y008246D01*
X007706Y008256D01*
X008030Y008256D01*
X008030Y007841D01*
X008030Y007922D02*
X008130Y007922D01*
X008130Y008020D02*
X008030Y008020D01*
X008030Y008119D02*
X008130Y008119D01*
X008130Y008217D02*
X008030Y008217D01*
X007624Y008217D02*
X007456Y008217D01*
X007504Y008119D02*
X007576Y008119D01*
X007576Y008020D02*
X007504Y008020D01*
X007504Y007922D02*
X007576Y007922D01*
X007576Y007741D02*
X007576Y007456D01*
X007586Y007418D01*
X007606Y007384D01*
X007634Y007356D01*
X007668Y007336D01*
X007706Y007326D01*
X008030Y007326D01*
X008030Y007741D01*
X007576Y007741D01*
X007576Y007725D02*
X007504Y007725D01*
X007504Y007626D02*
X007576Y007626D01*
X007576Y007528D02*
X007504Y007528D01*
X007497Y007429D02*
X007583Y007429D01*
X007690Y007331D02*
X007390Y007331D01*
X007050Y007331D02*
X006950Y007331D01*
X006950Y007429D02*
X007050Y007429D01*
X007050Y007528D02*
X006950Y007528D01*
X006950Y007626D02*
X007050Y007626D01*
X007050Y007922D02*
X006950Y007922D01*
X006950Y008020D02*
X007050Y008020D01*
X007050Y008119D02*
X006950Y008119D01*
X006950Y008217D02*
X007050Y008217D01*
X007120Y008530D02*
X006780Y008530D01*
X006540Y008770D01*
X006540Y009110D01*
X006780Y009350D01*
X007120Y009350D01*
X007360Y009110D01*
X007360Y008770D01*
X007120Y008530D01*
X007201Y008611D02*
X007699Y008611D01*
X007780Y008530D02*
X007540Y008770D01*
X007540Y009110D01*
X007780Y009350D01*
X008120Y009350D01*
X008360Y009110D01*
X008360Y008770D01*
X008120Y008530D01*
X007780Y008530D01*
X007601Y008710D02*
X007299Y008710D01*
X007360Y008808D02*
X007540Y008808D01*
X007540Y008907D02*
X007360Y008907D01*
X007360Y009005D02*
X007540Y009005D01*
X007540Y009104D02*
X007360Y009104D01*
X007268Y009202D02*
X007632Y009202D01*
X007731Y009301D02*
X007169Y009301D01*
X006731Y009301D02*
X006169Y009301D01*
X006120Y009350D02*
X005780Y009350D01*
X005540Y009110D01*
X005540Y008770D01*
X005780Y008530D01*
X006120Y008530D01*
X006360Y008770D01*
X006360Y009110D01*
X006120Y009350D01*
X006268Y009202D02*
X006632Y009202D01*
X006540Y009104D02*
X006360Y009104D01*
X006360Y009005D02*
X006540Y009005D01*
X006540Y008907D02*
X006360Y008907D01*
X006360Y008808D02*
X006540Y008808D01*
X006601Y008710D02*
X006299Y008710D01*
X006201Y008611D02*
X006699Y008611D01*
X005699Y008611D02*
X005201Y008611D01*
X005120Y008530D02*
X005360Y008770D01*
X005360Y009110D01*
X005120Y009350D01*
X004780Y009350D01*
X004540Y009110D01*
X004540Y008770D01*
X004780Y008530D01*
X005120Y008530D01*
X005299Y008710D02*
X005601Y008710D01*
X005540Y008808D02*
X005360Y008808D01*
X005360Y008907D02*
X005540Y008907D01*
X005540Y009005D02*
X005360Y009005D01*
X005360Y009104D02*
X005540Y009104D01*
X005632Y009202D02*
X005268Y009202D01*
X005169Y009301D02*
X005731Y009301D01*
X004731Y009301D02*
X004169Y009301D01*
X004268Y009202D02*
X004632Y009202D01*
X004540Y009104D02*
X004360Y009104D01*
X004360Y009005D02*
X004540Y009005D01*
X004540Y008907D02*
X004360Y008907D01*
X004360Y008808D02*
X004540Y008808D01*
X004601Y008710D02*
X004299Y008710D01*
X004201Y008611D02*
X004699Y008611D01*
X004110Y007725D02*
X006496Y007725D01*
X006496Y007626D02*
X004110Y007626D01*
X004110Y007528D02*
X006496Y007528D01*
X006503Y007429D02*
X004110Y007429D01*
X004110Y007331D02*
X006610Y007331D01*
X006536Y007035D02*
X004110Y007035D01*
X004110Y006937D02*
X006536Y006937D01*
X006536Y006838D02*
X004110Y006838D01*
X004194Y006740D02*
X006536Y006740D01*
X006536Y006641D02*
X004228Y006641D01*
X004234Y006543D02*
X006536Y006543D01*
X006536Y006444D02*
X004332Y006444D01*
X004431Y006346D02*
X006536Y006346D01*
X006810Y006247D02*
X004529Y006247D01*
X004628Y006149D02*
X006810Y006149D01*
X006466Y006050D02*
X004726Y006050D01*
X004471Y005853D02*
X003763Y005853D01*
X003665Y005952D02*
X004372Y005952D01*
X004274Y006050D02*
X003566Y006050D01*
X003468Y006149D02*
X004175Y006149D01*
X004077Y006247D02*
X003369Y006247D01*
X003271Y006346D02*
X003837Y006346D01*
X003713Y006444D02*
X003172Y006444D01*
X003110Y006543D02*
X003672Y006543D01*
X003672Y006641D02*
X003110Y006641D01*
X003110Y006740D02*
X003706Y006740D01*
X003790Y006838D02*
X003110Y006838D01*
X003110Y006937D02*
X003790Y006937D01*
X003790Y007035D02*
X003110Y007035D01*
X004110Y007134D02*
X018550Y007134D01*
X018550Y007232D02*
X004110Y007232D01*
X002790Y007922D02*
X000350Y007922D01*
X000350Y008020D02*
X002790Y008020D01*
X002790Y008119D02*
X000350Y008119D01*
X000350Y008217D02*
X002790Y008217D01*
X002790Y008316D02*
X000350Y008316D01*
X000350Y008414D02*
X002790Y008414D01*
X002540Y008611D02*
X002257Y008611D01*
X002356Y008710D02*
X002540Y008710D01*
X002540Y008808D02*
X002400Y008808D01*
X002540Y008907D02*
X002000Y008907D01*
X002000Y009005D02*
X001900Y009005D01*
X001900Y008907D02*
X001360Y008907D01*
X001360Y009005D02*
X001500Y009005D01*
X001500Y009104D02*
X001360Y009104D01*
X001268Y009202D02*
X001576Y009202D01*
X001674Y009301D02*
X001169Y009301D01*
X001900Y009301D02*
X002000Y009301D01*
X002000Y009202D02*
X001900Y009202D01*
X001900Y009104D02*
X002000Y009104D01*
X002226Y009301D02*
X002555Y009301D01*
X002540Y009202D02*
X002324Y009202D01*
X002400Y009104D02*
X002540Y009104D01*
X002540Y009005D02*
X002400Y009005D01*
X002000Y008808D02*
X001900Y008808D01*
X001900Y008710D02*
X002000Y008710D01*
X002000Y008611D02*
X001900Y008611D01*
X001643Y008611D02*
X001201Y008611D01*
X001299Y008710D02*
X001544Y008710D01*
X001500Y008808D02*
X001360Y008808D01*
X000350Y009498D02*
X018550Y009498D01*
X017731Y009301D02*
X017169Y009301D01*
X017120Y009350D02*
X016780Y009350D01*
X016540Y009110D01*
X016540Y008770D01*
X016780Y008530D01*
X017120Y008530D01*
X017360Y008770D01*
X017360Y009110D01*
X017120Y009350D01*
X017268Y009202D02*
X017632Y009202D01*
X017540Y009104D02*
X017360Y009104D01*
X017360Y009005D02*
X017540Y009005D01*
X017540Y008907D02*
X017360Y008907D01*
X017360Y008808D02*
X017540Y008808D01*
X017601Y008710D02*
X017299Y008710D01*
X017201Y008611D02*
X017699Y008611D01*
X018550Y008217D02*
X008536Y008217D01*
X008584Y008119D02*
X018550Y008119D01*
X018550Y008020D02*
X008584Y008020D01*
X008584Y007922D02*
X018550Y007922D01*
X018550Y007823D02*
X008130Y007823D01*
X008130Y007725D02*
X008030Y007725D01*
X008030Y007626D02*
X008130Y007626D01*
X008130Y007528D02*
X008030Y007528D01*
X008030Y007429D02*
X008130Y007429D01*
X008130Y007331D02*
X008030Y007331D01*
X008470Y007331D02*
X018550Y007331D01*
X018550Y007429D02*
X008577Y007429D01*
X008584Y007528D02*
X018550Y007528D01*
X018550Y007626D02*
X008584Y007626D01*
X008584Y007725D02*
X018550Y007725D01*
X018550Y007035D02*
X008544Y007035D01*
X008544Y006937D02*
X018550Y006937D01*
X018550Y006838D02*
X008544Y006838D01*
X008544Y006740D02*
X018550Y006740D01*
X018550Y006641D02*
X008544Y006641D01*
X008544Y006543D02*
X008559Y006543D01*
X008941Y006543D02*
X010459Y006543D01*
X010392Y006444D02*
X009008Y006444D01*
X009028Y006346D02*
X010372Y006346D01*
X010387Y006247D02*
X009013Y006247D01*
X008952Y006149D02*
X010065Y006149D01*
X009994Y006050D02*
X008640Y006050D01*
X008260Y006050D02*
X007209Y006050D01*
X007190Y006149D02*
X008260Y006149D01*
X008260Y006247D02*
X007190Y006247D01*
X007464Y006346D02*
X007616Y006346D01*
X007616Y006444D02*
X007464Y006444D01*
X007464Y006543D02*
X007616Y006543D01*
X007616Y006641D02*
X007464Y006641D01*
X007464Y006740D02*
X007616Y006740D01*
X007616Y006838D02*
X007464Y006838D01*
X007464Y006937D02*
X007616Y006937D01*
X007616Y007035D02*
X007464Y007035D01*
X007307Y005952D02*
X008260Y005952D01*
X006272Y005656D02*
X004128Y005656D01*
X003862Y005755D02*
X004569Y005755D01*
X004662Y005164D02*
X005438Y005164D01*
X005401Y005065D02*
X004699Y005065D01*
X004699Y004967D02*
X005401Y004967D01*
X005401Y004868D02*
X004699Y004868D01*
X004699Y004770D02*
X005401Y004770D01*
X005401Y004671D02*
X004699Y004671D01*
X004699Y004573D02*
X005401Y004573D01*
X005500Y004474D02*
X002360Y004474D01*
X002360Y004376D02*
X005500Y004376D01*
X005500Y004277D02*
X002360Y004277D01*
X002268Y004179D02*
X005500Y004179D01*
X005455Y004080D02*
X004645Y004080D01*
X004699Y003982D02*
X005401Y003982D01*
X005044Y003883D02*
X004699Y003883D01*
X004699Y003785D02*
X004946Y003785D01*
X004847Y003686D02*
X004699Y003686D01*
X004699Y003588D02*
X004749Y003588D01*
X004121Y003785D02*
X002185Y003785D01*
X002120Y003850D02*
X001780Y003850D01*
X001540Y003610D01*
X001540Y003270D01*
X001780Y003030D01*
X002120Y003030D01*
X002360Y003270D01*
X002360Y003610D01*
X002120Y003850D01*
X002284Y003686D02*
X004088Y003686D01*
X004083Y003588D02*
X002360Y003588D01*
X002360Y003489D02*
X004083Y003489D01*
X004083Y003391D02*
X002360Y003391D01*
X002360Y003292D02*
X004083Y003292D01*
X004083Y003194D02*
X002283Y003194D01*
X002185Y003095D02*
X004083Y003095D01*
X004049Y002997D02*
X001294Y002997D01*
X001308Y003000D02*
X001342Y003020D01*
X001370Y003048D01*
X001390Y003082D01*
X001400Y003120D01*
X001400Y003390D01*
X001000Y003390D01*
X001000Y003490D01*
X000900Y003490D01*
X000900Y003890D01*
X000630Y003890D01*
X000592Y003880D01*
X000558Y003860D01*
X000530Y003832D01*
X000510Y003798D01*
X000500Y003760D01*
X000500Y003490D01*
X000900Y003490D01*
X000900Y003390D01*
X001000Y003390D01*
X001000Y002990D01*
X001270Y002990D01*
X001308Y003000D01*
X001393Y003095D02*
X001715Y003095D01*
X001617Y003194D02*
X001400Y003194D01*
X001400Y003292D02*
X001540Y003292D01*
X001540Y003391D02*
X001000Y003391D01*
X001000Y003489D02*
X001540Y003489D01*
X001540Y003588D02*
X001400Y003588D01*
X001400Y003490D02*
X001400Y003760D01*
X001390Y003798D01*
X001370Y003832D01*
X001342Y003860D01*
X001308Y003880D01*
X001270Y003890D01*
X001000Y003890D01*
X001000Y003490D01*
X001400Y003490D01*
X001400Y003686D02*
X001616Y003686D01*
X001715Y003785D02*
X001393Y003785D01*
X001296Y003883D02*
X004121Y003883D01*
X004121Y003982D02*
X000350Y003982D01*
X000350Y004080D02*
X000730Y004080D01*
X000780Y004030D02*
X001120Y004030D01*
X001360Y004270D01*
X001360Y004610D01*
X001120Y004850D01*
X000780Y004850D01*
X000540Y004610D01*
X000540Y004270D01*
X000780Y004030D01*
X000900Y003883D02*
X001000Y003883D01*
X001000Y003785D02*
X000900Y003785D01*
X000900Y003686D02*
X001000Y003686D01*
X001000Y003588D02*
X000900Y003588D01*
X000900Y003489D02*
X000350Y003489D01*
X000350Y003391D02*
X000900Y003391D01*
X000900Y003390D02*
X000500Y003390D01*
X000500Y003120D01*
X000510Y003082D01*
X000530Y003048D01*
X000558Y003020D01*
X000592Y003000D01*
X000630Y002990D01*
X000900Y002990D01*
X000900Y003390D01*
X000900Y003292D02*
X001000Y003292D01*
X001000Y003194D02*
X000900Y003194D01*
X000900Y003095D02*
X001000Y003095D01*
X001000Y002997D02*
X000900Y002997D01*
X000606Y002997D02*
X000350Y002997D01*
X000350Y003095D02*
X000507Y003095D01*
X000500Y003194D02*
X000350Y003194D01*
X000350Y003292D02*
X000500Y003292D01*
X000500Y003588D02*
X000350Y003588D01*
X000350Y003686D02*
X000500Y003686D01*
X000507Y003785D02*
X000350Y003785D01*
X000350Y003883D02*
X000604Y003883D01*
X000632Y004179D02*
X000350Y004179D01*
X000350Y004277D02*
X000540Y004277D01*
X000540Y004376D02*
X000350Y004376D01*
X000350Y004474D02*
X000540Y004474D01*
X000540Y004573D02*
X000350Y004573D01*
X000350Y004671D02*
X000601Y004671D01*
X000700Y004770D02*
X000350Y004770D01*
X000350Y004868D02*
X002109Y004868D01*
X002208Y004967D02*
X000350Y004967D01*
X000350Y005065D02*
X000745Y005065D01*
X000780Y005030D02*
X001120Y005030D01*
X001360Y005270D01*
X001360Y005610D01*
X001120Y005850D01*
X000780Y005850D01*
X000540Y005610D01*
X000540Y005270D01*
X000780Y005030D01*
X000647Y005164D02*
X000350Y005164D01*
X000350Y005262D02*
X000548Y005262D01*
X000540Y005361D02*
X000350Y005361D01*
X000350Y005459D02*
X000540Y005459D01*
X000540Y005558D02*
X000350Y005558D01*
X000350Y005656D02*
X000586Y005656D01*
X000685Y005755D02*
X000350Y005755D01*
X000350Y005853D02*
X003311Y005853D01*
X004121Y005065D02*
X002155Y005065D01*
X001745Y005065D02*
X001155Y005065D01*
X001253Y005164D02*
X001647Y005164D01*
X001548Y005262D02*
X001352Y005262D01*
X001360Y005361D02*
X001540Y005361D01*
X001540Y005459D02*
X001360Y005459D01*
X001360Y005558D02*
X001540Y005558D01*
X001586Y005656D02*
X001314Y005656D01*
X001215Y005755D02*
X001685Y005755D01*
X001700Y004770D02*
X001200Y004770D01*
X001299Y004671D02*
X001601Y004671D01*
X001540Y004573D02*
X001360Y004573D01*
X001360Y004474D02*
X001540Y004474D01*
X001540Y004376D02*
X001360Y004376D01*
X001360Y004277D02*
X001540Y004277D01*
X001632Y004179D02*
X001268Y004179D01*
X001170Y004080D02*
X001730Y004080D01*
X002170Y004080D02*
X004175Y004080D01*
X004121Y004573D02*
X002360Y004573D01*
X005250Y003040D02*
X009750Y003040D01*
X009834Y002898D02*
X018550Y002898D01*
X018550Y002800D02*
X005397Y002800D01*
X005915Y003391D02*
X007177Y003391D01*
X007140Y003489D02*
X005979Y003489D01*
X005979Y003588D02*
X007140Y003588D01*
X009933Y002997D02*
X018550Y002997D01*
X018550Y003095D02*
X010186Y003095D01*
X010745Y003883D02*
X012450Y003883D01*
X012450Y003785D02*
X012032Y003785D01*
X012450Y003982D02*
X010753Y003982D01*
X010753Y004080D02*
X012450Y004080D01*
X012450Y004179D02*
X010753Y004179D01*
X010753Y004277D02*
X012450Y004277D01*
X012450Y004376D02*
X010753Y004376D01*
X010753Y004474D02*
X012450Y004474D01*
X012450Y004573D02*
X010753Y004573D01*
X010753Y004770D02*
X012450Y004770D01*
X012450Y004868D02*
X010753Y004868D01*
X010753Y004967D02*
X012450Y004967D01*
X012450Y005065D02*
X010753Y005065D01*
X010753Y005164D02*
X012450Y005164D01*
X012450Y005262D02*
X010753Y005262D01*
X010753Y005361D02*
X012450Y005361D01*
X012450Y005459D02*
X010705Y005459D01*
X010448Y006149D02*
X010435Y006149D01*
X010841Y006543D02*
X016054Y006543D01*
X015916Y006444D02*
X014035Y006444D01*
X014133Y006346D02*
X015840Y006346D01*
X015800Y006247D02*
X014232Y006247D01*
X014556Y006149D02*
X015786Y006149D01*
X015786Y006050D02*
X014633Y006050D01*
X014526Y005416D02*
X014526Y005404D01*
X014840Y005090D01*
X015527Y005065D02*
X015553Y005065D01*
X015553Y005140D02*
X015553Y004753D01*
X015815Y004753D01*
X015815Y005010D01*
X015805Y005048D01*
X015785Y005082D01*
X015757Y005110D01*
X015723Y005130D01*
X015685Y005140D01*
X015553Y005140D01*
X015795Y005065D02*
X016090Y005065D01*
X016090Y004967D02*
X015815Y004967D01*
X015815Y004868D02*
X016090Y004868D01*
X016053Y004770D02*
X015815Y004770D01*
X015815Y004671D02*
X015955Y004671D01*
X015856Y004573D02*
X015815Y004573D01*
X015553Y004573D02*
X015527Y004573D01*
X015527Y004671D02*
X015553Y004671D01*
X015553Y004727D02*
X015553Y004340D01*
X015624Y004340D01*
X015350Y004066D01*
X015350Y004354D01*
X015357Y004350D01*
X015395Y004340D01*
X015527Y004340D01*
X015527Y004727D01*
X015553Y004727D01*
X015553Y004770D02*
X015527Y004770D01*
X015527Y004868D02*
X015553Y004868D01*
X015553Y004967D02*
X015527Y004967D01*
X016309Y004573D02*
X018550Y004573D01*
X018550Y004671D02*
X016407Y004671D01*
X016410Y004770D02*
X018550Y004770D01*
X018550Y004868D02*
X016410Y004868D01*
X016410Y004967D02*
X018550Y004967D01*
X018550Y005065D02*
X016410Y005065D01*
X016410Y005164D02*
X018550Y005164D01*
X018550Y005262D02*
X016410Y005262D01*
X016410Y005361D02*
X018550Y005361D01*
X018550Y005459D02*
X016410Y005459D01*
X016410Y005558D02*
X018550Y005558D01*
X018550Y005656D02*
X016410Y005656D01*
X016540Y005755D02*
X018550Y005755D01*
X018550Y005853D02*
X016639Y005853D01*
X016682Y005952D02*
X018550Y005952D01*
X018550Y006050D02*
X016714Y006050D01*
X016714Y006149D02*
X018550Y006149D01*
X018550Y006247D02*
X016700Y006247D01*
X016660Y006346D02*
X018550Y006346D01*
X018550Y006444D02*
X016584Y006444D01*
X016446Y006543D02*
X018550Y006543D01*
X016360Y008770D02*
X016120Y008530D01*
X015780Y008530D01*
X015540Y008770D01*
X015540Y009110D01*
X015780Y009350D01*
X016120Y009350D01*
X016360Y009110D01*
X016360Y008770D01*
X016360Y008808D02*
X016540Y008808D01*
X016540Y008907D02*
X016360Y008907D01*
X016360Y009005D02*
X016540Y009005D01*
X016540Y009104D02*
X016360Y009104D01*
X016268Y009202D02*
X016632Y009202D01*
X016731Y009301D02*
X016169Y009301D01*
X015731Y009301D02*
X015169Y009301D01*
X015120Y009350D02*
X014780Y009350D01*
X014540Y009110D01*
X014540Y008770D01*
X014780Y008530D01*
X015120Y008530D01*
X015360Y008770D01*
X015360Y009110D01*
X015120Y009350D01*
X015268Y009202D02*
X015632Y009202D01*
X015540Y009104D02*
X015360Y009104D01*
X015360Y009005D02*
X015540Y009005D01*
X015540Y008907D02*
X015360Y008907D01*
X015360Y008808D02*
X015540Y008808D01*
X015601Y008710D02*
X015299Y008710D01*
X015201Y008611D02*
X015699Y008611D01*
X016201Y008611D02*
X016699Y008611D01*
X016601Y008710D02*
X016299Y008710D01*
X014699Y008611D02*
X014201Y008611D01*
X014120Y008530D02*
X014360Y008770D01*
X014360Y009110D01*
X014120Y009350D01*
X013780Y009350D01*
X013540Y009110D01*
X013540Y008770D01*
X013780Y008530D01*
X014120Y008530D01*
X014299Y008710D02*
X014601Y008710D01*
X014540Y008808D02*
X014360Y008808D01*
X014360Y008907D02*
X014540Y008907D01*
X014540Y009005D02*
X014360Y009005D01*
X014360Y009104D02*
X014540Y009104D01*
X014632Y009202D02*
X014268Y009202D01*
X014169Y009301D02*
X014731Y009301D01*
X013731Y009301D02*
X013169Y009301D01*
X013120Y009350D02*
X012780Y009350D01*
X012540Y009110D01*
X012540Y008770D01*
X012780Y008530D01*
X013120Y008530D01*
X013360Y008770D01*
X013360Y009110D01*
X013120Y009350D01*
X013268Y009202D02*
X013632Y009202D01*
X013540Y009104D02*
X013360Y009104D01*
X013360Y009005D02*
X013540Y009005D01*
X013540Y008907D02*
X013360Y008907D01*
X013360Y008808D02*
X013540Y008808D01*
X013601Y008710D02*
X013299Y008710D01*
X013201Y008611D02*
X013699Y008611D01*
X012699Y008611D02*
X012201Y008611D01*
X012120Y008530D02*
X012360Y008770D01*
X012360Y009110D01*
X012120Y009350D01*
X011780Y009350D01*
X011540Y009110D01*
X011540Y008770D01*
X011780Y008530D01*
X012120Y008530D01*
X012299Y008710D02*
X012601Y008710D01*
X012540Y008808D02*
X012360Y008808D01*
X012360Y008907D02*
X012540Y008907D01*
X012540Y009005D02*
X012360Y009005D01*
X012360Y009104D02*
X012540Y009104D01*
X012632Y009202D02*
X012268Y009202D01*
X012169Y009301D02*
X012731Y009301D01*
X011731Y009301D02*
X011169Y009301D01*
X011120Y009350D02*
X010780Y009350D01*
X010540Y009110D01*
X010540Y008770D01*
X010780Y008530D01*
X011120Y008530D01*
X011360Y008770D01*
X011360Y009110D01*
X011120Y009350D01*
X011268Y009202D02*
X011632Y009202D01*
X011540Y009104D02*
X011360Y009104D01*
X011360Y009005D02*
X011540Y009005D01*
X011540Y008907D02*
X011360Y008907D01*
X011360Y008808D02*
X011540Y008808D01*
X011601Y008710D02*
X011299Y008710D01*
X011201Y008611D02*
X011699Y008611D01*
X010699Y008611D02*
X010201Y008611D01*
X010120Y008530D02*
X010360Y008770D01*
X010360Y009110D01*
X010120Y009350D01*
X009780Y009350D01*
X009540Y009110D01*
X009540Y008770D01*
X009780Y008530D01*
X010120Y008530D01*
X010299Y008710D02*
X010601Y008710D01*
X010540Y008808D02*
X010360Y008808D01*
X010360Y008907D02*
X010540Y008907D01*
X010540Y009005D02*
X010360Y009005D01*
X010360Y009104D02*
X010540Y009104D01*
X010632Y009202D02*
X010268Y009202D01*
X010169Y009301D02*
X010731Y009301D01*
X009731Y009301D02*
X009169Y009301D01*
X009120Y009350D02*
X008780Y009350D01*
X008540Y009110D01*
X008540Y008770D01*
X008780Y008530D01*
X009120Y008530D01*
X009360Y008770D01*
X009360Y009110D01*
X009120Y009350D01*
X009268Y009202D02*
X009632Y009202D01*
X009540Y009104D02*
X009360Y009104D01*
X009360Y009005D02*
X009540Y009005D01*
X009540Y008907D02*
X009360Y008907D01*
X009360Y008808D02*
X009540Y008808D01*
X009601Y008710D02*
X009299Y008710D01*
X009201Y008611D02*
X009699Y008611D01*
X008699Y008611D02*
X008201Y008611D01*
X008299Y008710D02*
X008601Y008710D01*
X008540Y008808D02*
X008360Y008808D01*
X008360Y008907D02*
X008540Y008907D01*
X008540Y009005D02*
X008360Y009005D01*
X008360Y009104D02*
X008540Y009104D01*
X008632Y009202D02*
X008268Y009202D01*
X008169Y009301D02*
X008731Y009301D01*
X012610Y005516D02*
X013977Y004076D01*
X013970Y004060D01*
X013970Y003920D01*
X014023Y003792D01*
X014115Y003700D01*
X012610Y003700D01*
X012610Y005516D01*
X012610Y005459D02*
X012664Y005459D01*
X012610Y005361D02*
X012758Y005361D01*
X012851Y005262D02*
X012610Y005262D01*
X012610Y005164D02*
X012945Y005164D01*
X013038Y005065D02*
X012610Y005065D01*
X012610Y004967D02*
X013132Y004967D01*
X013225Y004868D02*
X012610Y004868D01*
X012610Y004770D02*
X013319Y004770D01*
X013412Y004671D02*
X012610Y004671D01*
X012610Y004573D02*
X013505Y004573D01*
X013599Y004474D02*
X012610Y004474D01*
X012610Y004376D02*
X013692Y004376D01*
X013786Y004277D02*
X012610Y004277D01*
X012610Y004179D02*
X013879Y004179D01*
X013973Y004080D02*
X012610Y004080D01*
X012610Y003982D02*
X013970Y003982D01*
X013985Y003883D02*
X012610Y003883D01*
X012610Y003785D02*
X014031Y003785D01*
X015028Y003292D02*
X016055Y003292D01*
X016056Y003292D02*
X016132Y003267D01*
X016200Y003256D01*
X016200Y003709D01*
X015747Y003709D01*
X015758Y003641D01*
X015783Y003565D01*
X015819Y003495D01*
X015865Y003430D01*
X015921Y003374D01*
X015986Y003328D01*
X016056Y003292D01*
X016200Y003292D02*
X016300Y003292D01*
X016300Y003256D02*
X016368Y003267D01*
X016444Y003292D01*
X016445Y003292D02*
X018550Y003292D01*
X018550Y003194D02*
X014930Y003194D01*
X015127Y003391D02*
X015905Y003391D01*
X015823Y003489D02*
X015225Y003489D01*
X015324Y003588D02*
X015775Y003588D01*
X015751Y003686D02*
X015422Y003686D01*
X015521Y003785D02*
X016200Y003785D01*
X016200Y003809D02*
X016200Y003709D01*
X016300Y003709D01*
X016300Y003809D01*
X016200Y003809D01*
X016200Y004262D01*
X016132Y004251D01*
X016056Y004226D01*
X015986Y004190D01*
X015921Y004144D01*
X015865Y004087D01*
X015819Y004023D01*
X015783Y003952D01*
X015758Y003877D01*
X015747Y003809D01*
X016200Y003809D01*
X016200Y003883D02*
X016300Y003883D01*
X016300Y003809D02*
X016300Y004262D01*
X016368Y004251D01*
X016444Y004226D01*
X016514Y004190D01*
X016579Y004144D01*
X016635Y004087D01*
X016681Y004023D01*
X016717Y003952D01*
X016742Y003877D01*
X016753Y003809D01*
X016300Y003809D01*
X016300Y003785D02*
X018550Y003785D01*
X018550Y003883D02*
X016740Y003883D01*
X016703Y003982D02*
X018550Y003982D01*
X018550Y004080D02*
X016640Y004080D01*
X016530Y004179D02*
X018550Y004179D01*
X018550Y004277D02*
X016013Y004277D01*
X015970Y004179D02*
X015915Y004179D01*
X015860Y004080D02*
X015816Y004080D01*
X015797Y003982D02*
X015718Y003982D01*
X015760Y003883D02*
X015619Y003883D01*
X015364Y004080D02*
X015350Y004080D01*
X015350Y004179D02*
X015462Y004179D01*
X015561Y004277D02*
X015350Y004277D01*
X015527Y004376D02*
X015553Y004376D01*
X015553Y004474D02*
X015527Y004474D01*
X016112Y004376D02*
X018550Y004376D01*
X018550Y004474D02*
X016210Y004474D01*
X016200Y004179D02*
X016300Y004179D01*
X016300Y004080D02*
X016200Y004080D01*
X016200Y003982D02*
X016300Y003982D01*
X016300Y003709D02*
X016753Y003709D01*
X016742Y003641D01*
X016717Y003565D01*
X016681Y003495D01*
X016635Y003430D01*
X016579Y003374D01*
X016514Y003328D01*
X016444Y003292D01*
X016300Y003256D02*
X016300Y003709D01*
X016300Y003686D02*
X016200Y003686D01*
X016200Y003588D02*
X016300Y003588D01*
X016300Y003489D02*
X016200Y003489D01*
X016200Y003391D02*
X016300Y003391D01*
X016595Y003391D02*
X018550Y003391D01*
X018550Y003489D02*
X016677Y003489D01*
X016725Y003588D02*
X018550Y003588D01*
X018550Y003686D02*
X016749Y003686D01*
X012450Y004671D02*
X010220Y004671D01*
X004038Y002898D02*
X000350Y002898D01*
X000350Y002800D02*
X001511Y002800D01*
X001500Y002701D02*
X000350Y002701D01*
X000350Y002603D02*
X001500Y002603D01*
X001500Y002504D02*
X000350Y002504D01*
X000350Y002406D02*
X001900Y002406D01*
X001900Y002390D02*
X001500Y002390D01*
X001500Y002120D01*
X001510Y002082D01*
X001530Y002048D01*
X001558Y002020D01*
X001592Y002000D01*
X001630Y001990D01*
X001900Y001990D01*
X001900Y002390D01*
X001900Y002307D02*
X002000Y002307D01*
X002000Y002209D02*
X001900Y002209D01*
X001900Y002110D02*
X002000Y002110D01*
X002000Y002012D02*
X001900Y002012D01*
X002154Y001913D02*
X000350Y001913D01*
X000350Y001815D02*
X002056Y001815D01*
X001573Y002012D02*
X000350Y002012D01*
X000350Y002110D02*
X001503Y002110D01*
X001500Y002209D02*
X000350Y002209D01*
X000350Y002307D02*
X001500Y002307D01*
X001900Y002504D02*
X002000Y002504D01*
X002000Y002490D02*
X002000Y002890D01*
X002270Y002890D01*
X002308Y002880D01*
X002342Y002860D01*
X002370Y002832D01*
X002390Y002798D01*
X002400Y002760D01*
X002400Y002490D01*
X002000Y002490D01*
X002000Y002406D02*
X002647Y002406D01*
X002745Y002504D02*
X002400Y002504D01*
X002400Y002603D02*
X002844Y002603D01*
X002942Y002701D02*
X002400Y002701D01*
X002389Y002800D02*
X003041Y002800D01*
X002548Y002307D02*
X002400Y002307D01*
X002400Y002209D02*
X002450Y002209D01*
X002000Y002603D02*
X001900Y002603D01*
X001900Y002701D02*
X002000Y002701D01*
X002000Y002800D02*
X001900Y002800D01*
X001457Y001716D02*
X000350Y001716D01*
X000350Y001618D02*
X001359Y001618D01*
X001260Y001519D02*
X000350Y001519D01*
X000350Y001421D02*
X001162Y001421D01*
X001502Y001224D02*
X001654Y001224D01*
X001601Y001322D02*
X001752Y001322D01*
X001555Y001125D02*
X001404Y001125D01*
X001360Y001027D02*
X001540Y001027D01*
X001540Y000928D02*
X001360Y000928D01*
X001360Y000830D02*
X001540Y000830D01*
X001579Y000731D02*
X001321Y000731D01*
X001222Y000633D02*
X001678Y000633D01*
X001776Y000534D02*
X001124Y000534D01*
X000776Y000534D02*
X000350Y000534D01*
X000350Y000633D02*
X000678Y000633D01*
X000579Y000731D02*
X000350Y000731D01*
X000350Y000830D02*
X000540Y000830D01*
X000540Y000928D02*
X000350Y000928D01*
X000350Y001027D02*
X000540Y001027D01*
X000555Y001125D02*
X000350Y001125D01*
X000350Y001224D02*
X000654Y001224D01*
X000752Y001322D02*
X000350Y001322D01*
D21*
X000950Y000940D02*
X001550Y001540D01*
X002050Y001540D01*
X003200Y002690D01*
X004273Y002690D01*
X004273Y003603D01*
X004410Y003740D01*
X004630Y003200D02*
X005170Y003740D01*
X005690Y003740D01*
X005690Y004840D01*
X006650Y004840D01*
X007460Y005550D01*
X007730Y005550D01*
X007449Y005541D02*
X007000Y005990D01*
X007000Y006689D01*
X008080Y006689D02*
X008450Y006359D01*
X008450Y006340D01*
X008750Y006340D01*
X008450Y006340D02*
X008450Y004740D01*
X008350Y004640D01*
X007730Y004640D01*
X010250Y005940D02*
X012470Y005940D01*
X014320Y003990D01*
X014320Y005890D02*
X013870Y006340D01*
X010650Y006340D01*
X004630Y003200D02*
X004630Y002693D01*
X004627Y002690D01*
X002350Y004840D02*
X001950Y004440D01*
X002350Y004840D02*
X004410Y004840D01*
M02*
