G75*
G70*
%OFA0B0*%
%FSLAX24Y24*%
%IPPOS*%
%LPD*%
%AMOC8*
5,1,8,0,0,1.08239X$1,22.5*
%
%ADD10C,0.0480*%
%ADD11R,0.0600X0.0600*%
%ADD12OC8,0.0600*%
%ADD13R,0.0709X0.0630*%
%ADD14C,0.0709*%
%ADD15R,0.0880X0.0480*%
%ADD16R,0.0866X0.1417*%
%ADD17R,0.0358X0.0480*%
%ADD18R,0.0250X0.0500*%
%ADD19C,0.0337*%
%ADD20C,0.0100*%
%ADD21C,0.0160*%
D10*
X014320Y003955D03*
X014320Y005855D03*
D11*
X002950Y008905D03*
X000950Y003405D03*
X001950Y002405D03*
X002950Y000905D03*
D12*
X001950Y000905D03*
X000950Y000905D03*
X003950Y000905D03*
X004950Y000905D03*
X005950Y000905D03*
X006950Y000905D03*
X007950Y000905D03*
X008950Y000905D03*
X009950Y000905D03*
X010950Y000905D03*
X011950Y000905D03*
X012950Y000905D03*
X013950Y000905D03*
X014950Y000905D03*
X015950Y000905D03*
X016950Y000905D03*
X017950Y000905D03*
X017950Y008905D03*
X016950Y008905D03*
X015950Y008905D03*
X014950Y008905D03*
X013950Y008905D03*
X012950Y008905D03*
X011950Y008905D03*
X010950Y008905D03*
X009950Y008905D03*
X008950Y008905D03*
X007950Y008905D03*
X006950Y008905D03*
X005950Y008905D03*
X004950Y008905D03*
X003950Y008905D03*
X001950Y008905D03*
X000950Y008905D03*
X001950Y007405D03*
X001950Y006405D03*
X000950Y006405D03*
X000950Y005405D03*
X001950Y005405D03*
X001950Y004405D03*
X000950Y004405D03*
X001950Y003405D03*
D13*
X007000Y006654D03*
X008080Y006654D03*
X008080Y007756D03*
X007000Y007756D03*
D14*
X016250Y006086D03*
X016250Y003724D03*
D15*
X007730Y003695D03*
X007730Y004605D03*
X007730Y005515D03*
D16*
X010170Y004605D03*
D17*
X005690Y004805D03*
X004410Y004805D03*
X004410Y003705D03*
X005690Y003705D03*
D18*
X004627Y002655D03*
X004273Y002655D03*
X014840Y004705D03*
X015190Y004705D03*
X015540Y004705D03*
D19*
X014526Y005381D03*
X013444Y004136D03*
X010350Y003605D03*
X010050Y003305D03*
X006450Y005405D03*
X006650Y005805D03*
X008750Y006305D03*
X010250Y005905D03*
X010650Y006305D03*
X010450Y009305D03*
X003950Y006565D03*
X003950Y005405D03*
X005250Y003005D03*
X010450Y000505D03*
D20*
X000350Y000305D02*
X000350Y009505D01*
X018550Y009505D01*
X018550Y000305D01*
X000350Y000305D01*
X000350Y000401D02*
X018550Y000401D01*
X018550Y000499D02*
X018124Y000499D01*
X018120Y000495D02*
X018360Y000735D01*
X018360Y001075D01*
X018120Y001315D01*
X017780Y001315D01*
X017540Y001075D01*
X017540Y000735D01*
X017780Y000495D01*
X018120Y000495D01*
X018222Y000598D02*
X018550Y000598D01*
X018550Y000696D02*
X018321Y000696D01*
X018360Y000795D02*
X018550Y000795D01*
X018550Y000893D02*
X018360Y000893D01*
X018360Y000992D02*
X018550Y000992D01*
X018550Y001090D02*
X018345Y001090D01*
X018246Y001189D02*
X018550Y001189D01*
X018550Y001287D02*
X018148Y001287D01*
X018550Y001386D02*
X002199Y001386D01*
X002129Y001315D02*
X003279Y002465D01*
X004038Y002465D01*
X004038Y002359D01*
X004102Y002295D01*
X004443Y002295D01*
X004450Y002302D01*
X004457Y002295D01*
X004798Y002295D01*
X004862Y002359D01*
X004862Y002951D01*
X004820Y002993D01*
X004820Y003086D01*
X005249Y003515D01*
X005401Y003515D01*
X005401Y003419D01*
X005465Y003355D01*
X005914Y003355D01*
X005979Y003419D01*
X005979Y003991D01*
X005914Y004055D01*
X005880Y004055D01*
X005880Y004455D01*
X005914Y004455D01*
X005979Y004519D01*
X005979Y004615D01*
X006644Y004615D01*
X006716Y004610D01*
X006721Y004615D01*
X006729Y004615D01*
X006780Y004666D01*
X007349Y005165D01*
X008216Y005165D01*
X008260Y005209D01*
X008260Y004911D01*
X008216Y004955D01*
X007244Y004955D01*
X007180Y004891D01*
X007180Y004319D01*
X007244Y004255D01*
X008216Y004255D01*
X008280Y004319D01*
X008280Y004415D01*
X008429Y004415D01*
X008490Y004476D01*
X008490Y003439D01*
X008584Y003345D01*
X009772Y003345D01*
X009772Y003253D01*
X009684Y003165D01*
X005484Y003165D01*
X005408Y003241D01*
X005305Y003283D01*
X005195Y003283D01*
X005092Y003241D01*
X005014Y003163D01*
X004972Y003060D01*
X004820Y003060D01*
X004851Y002962D02*
X004972Y002962D01*
X004972Y002950D02*
X005014Y002847D01*
X005092Y002769D01*
X005195Y002727D01*
X005305Y002727D01*
X005408Y002769D01*
X005484Y002845D01*
X009816Y002845D01*
X009998Y003027D01*
X010105Y003027D01*
X010208Y003069D01*
X010284Y003145D01*
X014916Y003145D01*
X016410Y004639D01*
X016410Y005650D01*
X016513Y005692D01*
X016644Y005823D01*
X016714Y005994D01*
X016714Y006178D01*
X016644Y006349D01*
X016513Y006480D01*
X016342Y006550D01*
X016158Y006550D01*
X015987Y006480D01*
X015856Y006349D01*
X015786Y006178D01*
X015786Y005994D01*
X015856Y005823D01*
X015987Y005692D01*
X016090Y005650D01*
X016090Y004771D01*
X015815Y004496D01*
X015815Y004692D01*
X015553Y004692D01*
X015553Y004718D01*
X015527Y004718D01*
X015527Y005105D01*
X015395Y005105D01*
X015357Y005095D01*
X015323Y005075D01*
X015313Y005065D01*
X015019Y005065D01*
X015015Y005061D01*
X015011Y005065D01*
X015000Y005065D01*
X015000Y005121D01*
X014906Y005215D01*
X014802Y005320D01*
X014804Y005325D01*
X014804Y005436D01*
X014762Y005538D01*
X014683Y005617D01*
X014608Y005648D01*
X014617Y005657D01*
X014670Y005785D01*
X014670Y005925D01*
X014617Y006053D01*
X014518Y006152D01*
X014390Y006205D01*
X014250Y006205D01*
X014242Y006202D01*
X013949Y006495D01*
X010854Y006495D01*
X010808Y006541D01*
X010705Y006583D01*
X010595Y006583D01*
X010492Y006541D01*
X010414Y006463D01*
X010372Y006360D01*
X010372Y006250D01*
X010414Y006147D01*
X010466Y006095D01*
X010454Y006095D01*
X010408Y006141D01*
X010305Y006183D01*
X010195Y006183D01*
X010092Y006141D01*
X010014Y006063D01*
X009973Y005965D01*
X008640Y005965D01*
X008640Y006049D01*
X008695Y006027D01*
X008805Y006027D01*
X008908Y006069D01*
X008986Y006147D01*
X009028Y006250D01*
X009028Y006360D01*
X008986Y006463D01*
X008908Y006541D01*
X008805Y006583D01*
X008695Y006583D01*
X008592Y006541D01*
X008547Y006496D01*
X008544Y006498D01*
X008544Y007014D01*
X008480Y007079D01*
X007680Y007079D01*
X007616Y007014D01*
X007616Y006293D01*
X007680Y006229D01*
X008260Y006229D01*
X008260Y005821D01*
X008216Y005865D01*
X007359Y005865D01*
X007190Y006034D01*
X007190Y006229D01*
X007400Y006229D01*
X007464Y006293D01*
X007464Y007014D01*
X007400Y007079D01*
X006600Y007079D01*
X006536Y007014D01*
X006536Y006293D01*
X006600Y006229D01*
X006810Y006229D01*
X006810Y006039D01*
X006808Y006041D01*
X006705Y006083D01*
X006595Y006083D01*
X006492Y006041D01*
X006416Y005965D01*
X004776Y005965D01*
X004228Y006513D01*
X004228Y006620D01*
X004186Y006723D01*
X004110Y006799D01*
X004110Y008495D01*
X004120Y008495D01*
X004360Y008735D01*
X004360Y009075D01*
X004120Y009315D01*
X003780Y009315D01*
X003540Y009075D01*
X003540Y008735D01*
X003780Y008495D01*
X003790Y008495D01*
X003790Y006799D01*
X003714Y006723D01*
X003672Y006620D01*
X003672Y006510D01*
X003714Y006407D01*
X003792Y006329D01*
X003895Y006287D01*
X004002Y006287D01*
X004644Y005645D01*
X006302Y005645D01*
X006292Y005641D01*
X006216Y005565D01*
X004184Y005565D01*
X004108Y005641D01*
X004005Y005683D01*
X003898Y005683D01*
X003110Y006471D01*
X003110Y008495D01*
X003296Y008495D01*
X003360Y008559D01*
X003360Y009251D01*
X003296Y009315D01*
X002604Y009315D01*
X002540Y009251D01*
X002540Y008559D01*
X002604Y008495D01*
X002790Y008495D01*
X002790Y006339D01*
X003672Y005457D01*
X003672Y005350D01*
X003714Y005247D01*
X003792Y005169D01*
X003895Y005127D01*
X004005Y005127D01*
X004108Y005169D01*
X004184Y005245D01*
X006216Y005245D01*
X006292Y005169D01*
X006395Y005127D01*
X006505Y005127D01*
X006608Y005169D01*
X006686Y005247D01*
X006728Y005350D01*
X006728Y005460D01*
X006701Y005527D01*
X006705Y005527D01*
X006808Y005569D01*
X006886Y005647D01*
X006928Y005750D01*
X006928Y005758D01*
X007172Y005515D01*
X006579Y004995D01*
X005979Y004995D01*
X005979Y005091D01*
X005914Y005155D01*
X005465Y005155D01*
X005401Y005091D01*
X005401Y004519D01*
X005465Y004455D01*
X005500Y004455D01*
X005500Y004055D01*
X005465Y004055D01*
X005401Y003991D01*
X005401Y003895D01*
X005091Y003895D01*
X004699Y003503D01*
X004699Y003991D01*
X004635Y004055D01*
X004186Y004055D01*
X004121Y003991D01*
X004121Y003685D01*
X004083Y003646D01*
X004083Y002996D01*
X004038Y002951D01*
X004038Y002845D01*
X003121Y002845D01*
X002400Y002124D01*
X002400Y002355D01*
X002000Y002355D01*
X002000Y002455D01*
X001900Y002455D01*
X001900Y002855D01*
X001630Y002855D01*
X001592Y002845D01*
X001558Y002825D01*
X001530Y002797D01*
X001510Y002763D01*
X001500Y002725D01*
X001500Y002455D01*
X001900Y002455D01*
X001900Y002355D01*
X002000Y002355D01*
X002000Y001955D01*
X002231Y001955D01*
X001971Y001695D01*
X001471Y001695D01*
X001360Y001584D01*
X001091Y001315D01*
X000780Y001315D01*
X000540Y001075D01*
X000540Y000735D01*
X000780Y000495D01*
X001120Y000495D01*
X001360Y000735D01*
X001360Y001046D01*
X001629Y001315D01*
X002129Y001315D01*
X002120Y001315D02*
X001780Y001315D01*
X001540Y001075D01*
X001540Y000735D01*
X001780Y000495D01*
X002120Y000495D01*
X002360Y000735D01*
X002360Y001075D01*
X002120Y001315D01*
X002148Y001287D02*
X002576Y001287D01*
X002604Y001315D02*
X002540Y001251D01*
X002540Y000559D01*
X002604Y000495D01*
X003296Y000495D01*
X003360Y000559D01*
X003360Y001251D01*
X003296Y001315D01*
X002604Y001315D01*
X002540Y001189D02*
X002246Y001189D01*
X002345Y001090D02*
X002540Y001090D01*
X002540Y000992D02*
X002360Y000992D01*
X002360Y000893D02*
X002540Y000893D01*
X002540Y000795D02*
X002360Y000795D01*
X002321Y000696D02*
X002540Y000696D01*
X002540Y000598D02*
X002222Y000598D01*
X002124Y000499D02*
X002600Y000499D01*
X003300Y000499D02*
X003776Y000499D01*
X003780Y000495D02*
X004120Y000495D01*
X004360Y000735D01*
X004360Y001075D01*
X004120Y001315D01*
X003780Y001315D01*
X003540Y001075D01*
X003540Y000735D01*
X003780Y000495D01*
X003678Y000598D02*
X003360Y000598D01*
X003360Y000696D02*
X003579Y000696D01*
X003540Y000795D02*
X003360Y000795D01*
X003360Y000893D02*
X003540Y000893D01*
X003540Y000992D02*
X003360Y000992D01*
X003360Y001090D02*
X003555Y001090D01*
X003654Y001189D02*
X003360Y001189D01*
X003324Y001287D02*
X003752Y001287D01*
X004148Y001287D02*
X004752Y001287D01*
X004780Y001315D02*
X004540Y001075D01*
X004540Y000735D01*
X004780Y000495D01*
X005120Y000495D01*
X005360Y000735D01*
X005360Y001075D01*
X005120Y001315D01*
X004780Y001315D01*
X004654Y001189D02*
X004246Y001189D01*
X004345Y001090D02*
X004555Y001090D01*
X004540Y000992D02*
X004360Y000992D01*
X004360Y000893D02*
X004540Y000893D01*
X004540Y000795D02*
X004360Y000795D01*
X004321Y000696D02*
X004579Y000696D01*
X004678Y000598D02*
X004222Y000598D01*
X004124Y000499D02*
X004776Y000499D01*
X005124Y000499D02*
X005776Y000499D01*
X005780Y000495D02*
X006120Y000495D01*
X006360Y000735D01*
X006360Y001075D01*
X006120Y001315D01*
X005780Y001315D01*
X005540Y001075D01*
X005540Y000735D01*
X005780Y000495D01*
X005678Y000598D02*
X005222Y000598D01*
X005321Y000696D02*
X005579Y000696D01*
X005540Y000795D02*
X005360Y000795D01*
X005360Y000893D02*
X005540Y000893D01*
X005540Y000992D02*
X005360Y000992D01*
X005345Y001090D02*
X005555Y001090D01*
X005654Y001189D02*
X005246Y001189D01*
X005148Y001287D02*
X005752Y001287D01*
X006148Y001287D02*
X006752Y001287D01*
X006780Y001315D02*
X006540Y001075D01*
X006540Y000735D01*
X006780Y000495D01*
X007120Y000495D01*
X007360Y000735D01*
X007360Y001075D01*
X007120Y001315D01*
X006780Y001315D01*
X006654Y001189D02*
X006246Y001189D01*
X006345Y001090D02*
X006555Y001090D01*
X006540Y000992D02*
X006360Y000992D01*
X006360Y000893D02*
X006540Y000893D01*
X006540Y000795D02*
X006360Y000795D01*
X006321Y000696D02*
X006579Y000696D01*
X006678Y000598D02*
X006222Y000598D01*
X006124Y000499D02*
X006776Y000499D01*
X007124Y000499D02*
X007776Y000499D01*
X007780Y000495D02*
X008120Y000495D01*
X008360Y000735D01*
X008360Y001075D01*
X008120Y001315D01*
X007780Y001315D01*
X007540Y001075D01*
X007540Y000735D01*
X007780Y000495D01*
X007678Y000598D02*
X007222Y000598D01*
X007321Y000696D02*
X007579Y000696D01*
X007540Y000795D02*
X007360Y000795D01*
X007360Y000893D02*
X007540Y000893D01*
X007540Y000992D02*
X007360Y000992D01*
X007345Y001090D02*
X007555Y001090D01*
X007654Y001189D02*
X007246Y001189D01*
X007148Y001287D02*
X007752Y001287D01*
X008148Y001287D02*
X008752Y001287D01*
X008780Y001315D02*
X008540Y001075D01*
X008540Y000735D01*
X008780Y000495D01*
X009120Y000495D01*
X009360Y000735D01*
X009360Y001075D01*
X009120Y001315D01*
X008780Y001315D01*
X008654Y001189D02*
X008246Y001189D01*
X008345Y001090D02*
X008555Y001090D01*
X008540Y000992D02*
X008360Y000992D01*
X008360Y000893D02*
X008540Y000893D01*
X008540Y000795D02*
X008360Y000795D01*
X008321Y000696D02*
X008579Y000696D01*
X008678Y000598D02*
X008222Y000598D01*
X008124Y000499D02*
X008776Y000499D01*
X009124Y000499D02*
X009776Y000499D01*
X009780Y000495D02*
X010120Y000495D01*
X010360Y000735D01*
X010360Y001075D01*
X010120Y001315D01*
X009780Y001315D01*
X009540Y001075D01*
X009540Y000735D01*
X009780Y000495D01*
X009678Y000598D02*
X009222Y000598D01*
X009321Y000696D02*
X009579Y000696D01*
X009540Y000795D02*
X009360Y000795D01*
X009360Y000893D02*
X009540Y000893D01*
X009540Y000992D02*
X009360Y000992D01*
X009345Y001090D02*
X009555Y001090D01*
X009654Y001189D02*
X009246Y001189D01*
X009148Y001287D02*
X009752Y001287D01*
X010148Y001287D02*
X010752Y001287D01*
X010780Y001315D02*
X010540Y001075D01*
X010540Y000735D01*
X010780Y000495D01*
X011120Y000495D01*
X011360Y000735D01*
X011360Y001075D01*
X011120Y001315D01*
X010780Y001315D01*
X010654Y001189D02*
X010246Y001189D01*
X010345Y001090D02*
X010555Y001090D01*
X010540Y000992D02*
X010360Y000992D01*
X010360Y000893D02*
X010540Y000893D01*
X010540Y000795D02*
X010360Y000795D01*
X010321Y000696D02*
X010579Y000696D01*
X010678Y000598D02*
X010222Y000598D01*
X010124Y000499D02*
X010776Y000499D01*
X011124Y000499D02*
X011776Y000499D01*
X011780Y000495D02*
X012120Y000495D01*
X012360Y000735D01*
X012360Y001075D01*
X012120Y001315D01*
X011780Y001315D01*
X011540Y001075D01*
X011540Y000735D01*
X011780Y000495D01*
X011678Y000598D02*
X011222Y000598D01*
X011321Y000696D02*
X011579Y000696D01*
X011540Y000795D02*
X011360Y000795D01*
X011360Y000893D02*
X011540Y000893D01*
X011540Y000992D02*
X011360Y000992D01*
X011345Y001090D02*
X011555Y001090D01*
X011654Y001189D02*
X011246Y001189D01*
X011148Y001287D02*
X011752Y001287D01*
X012148Y001287D02*
X012752Y001287D01*
X012780Y001315D02*
X012540Y001075D01*
X012540Y000735D01*
X012780Y000495D01*
X013120Y000495D01*
X013360Y000735D01*
X013360Y001075D01*
X013120Y001315D01*
X012780Y001315D01*
X012654Y001189D02*
X012246Y001189D01*
X012345Y001090D02*
X012555Y001090D01*
X012540Y000992D02*
X012360Y000992D01*
X012360Y000893D02*
X012540Y000893D01*
X012540Y000795D02*
X012360Y000795D01*
X012321Y000696D02*
X012579Y000696D01*
X012678Y000598D02*
X012222Y000598D01*
X012124Y000499D02*
X012776Y000499D01*
X013124Y000499D02*
X013776Y000499D01*
X013780Y000495D02*
X014120Y000495D01*
X014360Y000735D01*
X014360Y001075D01*
X014120Y001315D01*
X013780Y001315D01*
X013540Y001075D01*
X013540Y000735D01*
X013780Y000495D01*
X013678Y000598D02*
X013222Y000598D01*
X013321Y000696D02*
X013579Y000696D01*
X013540Y000795D02*
X013360Y000795D01*
X013360Y000893D02*
X013540Y000893D01*
X013540Y000992D02*
X013360Y000992D01*
X013345Y001090D02*
X013555Y001090D01*
X013654Y001189D02*
X013246Y001189D01*
X013148Y001287D02*
X013752Y001287D01*
X014148Y001287D02*
X014752Y001287D01*
X014780Y001315D02*
X014540Y001075D01*
X014540Y000735D01*
X014780Y000495D01*
X015120Y000495D01*
X015360Y000735D01*
X015360Y001075D01*
X015120Y001315D01*
X014780Y001315D01*
X014654Y001189D02*
X014246Y001189D01*
X014345Y001090D02*
X014555Y001090D01*
X014540Y000992D02*
X014360Y000992D01*
X014360Y000893D02*
X014540Y000893D01*
X014540Y000795D02*
X014360Y000795D01*
X014321Y000696D02*
X014579Y000696D01*
X014678Y000598D02*
X014222Y000598D01*
X014124Y000499D02*
X014776Y000499D01*
X015124Y000499D02*
X015776Y000499D01*
X015780Y000495D02*
X016120Y000495D01*
X016360Y000735D01*
X016360Y001075D01*
X016120Y001315D01*
X015780Y001315D01*
X015540Y001075D01*
X015540Y000735D01*
X015780Y000495D01*
X015678Y000598D02*
X015222Y000598D01*
X015321Y000696D02*
X015579Y000696D01*
X015540Y000795D02*
X015360Y000795D01*
X015360Y000893D02*
X015540Y000893D01*
X015540Y000992D02*
X015360Y000992D01*
X015345Y001090D02*
X015555Y001090D01*
X015654Y001189D02*
X015246Y001189D01*
X015148Y001287D02*
X015752Y001287D01*
X016148Y001287D02*
X016752Y001287D01*
X016780Y001315D02*
X016540Y001075D01*
X016540Y000735D01*
X016780Y000495D01*
X017120Y000495D01*
X017360Y000735D01*
X017360Y001075D01*
X017120Y001315D01*
X016780Y001315D01*
X016654Y001189D02*
X016246Y001189D01*
X016345Y001090D02*
X016555Y001090D01*
X016540Y000992D02*
X016360Y000992D01*
X016360Y000893D02*
X016540Y000893D01*
X016540Y000795D02*
X016360Y000795D01*
X016321Y000696D02*
X016579Y000696D01*
X016678Y000598D02*
X016222Y000598D01*
X016124Y000499D02*
X016776Y000499D01*
X017124Y000499D02*
X017776Y000499D01*
X017678Y000598D02*
X017222Y000598D01*
X017321Y000696D02*
X017579Y000696D01*
X017540Y000795D02*
X017360Y000795D01*
X017360Y000893D02*
X017540Y000893D01*
X017540Y000992D02*
X017360Y000992D01*
X017345Y001090D02*
X017555Y001090D01*
X017654Y001189D02*
X017246Y001189D01*
X017148Y001287D02*
X017752Y001287D01*
X018550Y001484D02*
X002298Y001484D01*
X002396Y001583D02*
X018550Y001583D01*
X018550Y001681D02*
X002495Y001681D01*
X002593Y001780D02*
X018550Y001780D01*
X018550Y001878D02*
X002692Y001878D01*
X002790Y001977D02*
X018550Y001977D01*
X018550Y002075D02*
X002889Y002075D01*
X002987Y002174D02*
X018550Y002174D01*
X018550Y002272D02*
X003086Y002272D01*
X003184Y002371D02*
X004038Y002371D01*
X004862Y002371D02*
X018550Y002371D01*
X018550Y002469D02*
X004862Y002469D01*
X004862Y002568D02*
X018550Y002568D01*
X018550Y002666D02*
X004862Y002666D01*
X004862Y002765D02*
X005103Y002765D01*
X005007Y002863D02*
X004862Y002863D01*
X004972Y002950D02*
X004972Y003060D01*
X005012Y003159D02*
X004892Y003159D01*
X004991Y003257D02*
X005131Y003257D01*
X005089Y003356D02*
X005464Y003356D01*
X005401Y003454D02*
X005188Y003454D01*
X005369Y003257D02*
X009772Y003257D01*
X009750Y003005D02*
X010050Y003305D01*
X014850Y003305D01*
X016250Y004705D01*
X016250Y006086D01*
X015818Y005917D02*
X014670Y005917D01*
X014670Y005818D02*
X015861Y005818D01*
X015960Y005720D02*
X014643Y005720D01*
X014673Y005621D02*
X016090Y005621D01*
X016090Y005523D02*
X014768Y005523D01*
X014804Y005424D02*
X016090Y005424D01*
X016090Y005326D02*
X014804Y005326D01*
X014894Y005227D02*
X016090Y005227D01*
X016090Y005129D02*
X014993Y005129D01*
X014840Y005055D02*
X014840Y004705D01*
X015190Y004705D02*
X015190Y004045D01*
X014650Y003505D01*
X012050Y003505D01*
X011950Y003605D01*
X010350Y003605D01*
X010072Y003583D02*
X010072Y003660D01*
X010107Y003746D01*
X009717Y003746D01*
X009679Y003757D01*
X009645Y003776D01*
X009617Y003804D01*
X009597Y003838D01*
X009587Y003877D01*
X009587Y004555D01*
X010120Y004555D01*
X010120Y004655D01*
X009587Y004655D01*
X009587Y005333D01*
X009597Y005372D01*
X009617Y005406D01*
X009645Y005434D01*
X009679Y005453D01*
X009717Y005464D01*
X010120Y005464D01*
X010120Y004655D01*
X010220Y004655D01*
X010220Y005464D01*
X010623Y005464D01*
X010661Y005453D01*
X010695Y005434D01*
X010723Y005406D01*
X010743Y005372D01*
X010753Y005333D01*
X010753Y004655D01*
X010220Y004655D01*
X010220Y004555D01*
X010753Y004555D01*
X010753Y003877D01*
X010743Y003838D01*
X010723Y003804D01*
X010695Y003776D01*
X010676Y003765D01*
X012016Y003765D01*
X012110Y003671D01*
X012116Y003665D01*
X012450Y003665D01*
X012450Y005650D01*
X012388Y005715D01*
X010454Y005715D01*
X010408Y005669D01*
X010305Y005627D01*
X010195Y005627D01*
X010092Y005669D01*
X010014Y005747D01*
X009990Y005805D01*
X008650Y005805D01*
X008650Y003505D01*
X009856Y003505D01*
X009892Y003541D01*
X009995Y003583D01*
X010072Y003583D01*
X010072Y003651D02*
X008650Y003651D01*
X008650Y003553D02*
X009920Y003553D01*
X009705Y003750D02*
X008650Y003750D01*
X008650Y003848D02*
X009595Y003848D01*
X009587Y003947D02*
X008650Y003947D01*
X008650Y004045D02*
X009587Y004045D01*
X009587Y004144D02*
X008650Y004144D01*
X008650Y004242D02*
X009587Y004242D01*
X009587Y004341D02*
X008650Y004341D01*
X008650Y004439D02*
X009587Y004439D01*
X009587Y004538D02*
X008650Y004538D01*
X008650Y004636D02*
X010120Y004636D01*
X010120Y004735D02*
X010220Y004735D01*
X010220Y004833D02*
X010120Y004833D01*
X010120Y004932D02*
X010220Y004932D01*
X010220Y005030D02*
X010120Y005030D01*
X010120Y005129D02*
X010220Y005129D01*
X010220Y005227D02*
X010120Y005227D01*
X010120Y005326D02*
X010220Y005326D01*
X010220Y005424D02*
X010120Y005424D01*
X010042Y005720D02*
X008650Y005720D01*
X008650Y005621D02*
X012450Y005621D01*
X012450Y005523D02*
X008650Y005523D01*
X008650Y005424D02*
X009635Y005424D01*
X009587Y005326D02*
X008650Y005326D01*
X008650Y005227D02*
X009587Y005227D01*
X009587Y005129D02*
X008650Y005129D01*
X008650Y005030D02*
X009587Y005030D01*
X009587Y004932D02*
X008650Y004932D01*
X008650Y004833D02*
X009587Y004833D01*
X009587Y004735D02*
X008650Y004735D01*
X008260Y004932D02*
X008239Y004932D01*
X008260Y005030D02*
X007195Y005030D01*
X007221Y004932D02*
X007083Y004932D01*
X007180Y004833D02*
X006970Y004833D01*
X006858Y004735D02*
X007180Y004735D01*
X007180Y004636D02*
X006750Y004636D01*
X007180Y004538D02*
X005979Y004538D01*
X005880Y004439D02*
X007180Y004439D01*
X007180Y004341D02*
X005880Y004341D01*
X005880Y004242D02*
X008490Y004242D01*
X008490Y004144D02*
X005880Y004144D01*
X005925Y004045D02*
X007188Y004045D01*
X007198Y004055D02*
X007170Y004027D01*
X007150Y003993D01*
X007140Y003955D01*
X007140Y003745D01*
X007680Y003745D01*
X007680Y004085D01*
X007270Y004085D01*
X007232Y004075D01*
X007198Y004055D01*
X007140Y003947D02*
X005979Y003947D01*
X005979Y003848D02*
X007140Y003848D01*
X007140Y003750D02*
X005979Y003750D01*
X005979Y003651D02*
X007680Y003651D01*
X007680Y003645D02*
X007140Y003645D01*
X007140Y003435D01*
X007150Y003397D01*
X007170Y003363D01*
X007198Y003335D01*
X007232Y003315D01*
X007270Y003305D01*
X007680Y003305D01*
X007680Y003645D01*
X007780Y003645D01*
X007780Y003745D01*
X007680Y003745D01*
X007680Y003645D01*
X007680Y003553D02*
X007780Y003553D01*
X007780Y003645D02*
X007780Y003305D01*
X008190Y003305D01*
X008228Y003315D01*
X008262Y003335D01*
X008290Y003363D01*
X008310Y003397D01*
X008320Y003435D01*
X008320Y003645D01*
X007780Y003645D01*
X007780Y003651D02*
X008490Y003651D01*
X008490Y003553D02*
X008320Y003553D01*
X008320Y003454D02*
X008490Y003454D01*
X008573Y003356D02*
X008283Y003356D01*
X007780Y003356D02*
X007680Y003356D01*
X007680Y003454D02*
X007780Y003454D01*
X007780Y003745D02*
X008320Y003745D01*
X008320Y003955D01*
X008310Y003993D01*
X008290Y004027D01*
X008262Y004055D01*
X008228Y004075D01*
X008190Y004085D01*
X007780Y004085D01*
X007780Y003745D01*
X007780Y003750D02*
X007680Y003750D01*
X007680Y003848D02*
X007780Y003848D01*
X007780Y003947D02*
X007680Y003947D01*
X007680Y004045D02*
X007780Y004045D01*
X008272Y004045D02*
X008490Y004045D01*
X008490Y003947D02*
X008320Y003947D01*
X008320Y003848D02*
X008490Y003848D01*
X008490Y003750D02*
X008320Y003750D01*
X008280Y004341D02*
X008490Y004341D01*
X008490Y004439D02*
X008453Y004439D01*
X008260Y005129D02*
X007307Y005129D01*
X006956Y005326D02*
X006718Y005326D01*
X006728Y005424D02*
X007068Y005424D01*
X007164Y005523D02*
X006703Y005523D01*
X006860Y005621D02*
X007065Y005621D01*
X006967Y005720D02*
X006916Y005720D01*
X006650Y005805D02*
X004710Y005805D01*
X003950Y006565D01*
X003950Y008905D01*
X003540Y008872D02*
X003360Y008872D01*
X003360Y008970D02*
X003540Y008970D01*
X003540Y009069D02*
X003360Y009069D01*
X003360Y009167D02*
X003632Y009167D01*
X003731Y009266D02*
X003345Y009266D01*
X002950Y008905D02*
X002950Y006405D01*
X003950Y005405D01*
X006450Y005405D01*
X006666Y005227D02*
X006843Y005227D01*
X006731Y005129D02*
X006510Y005129D01*
X006390Y005129D02*
X005941Y005129D01*
X005979Y005030D02*
X006618Y005030D01*
X006234Y005227D02*
X004166Y005227D01*
X004186Y005155D02*
X004121Y005091D01*
X004121Y004995D01*
X002271Y004995D01*
X002091Y004815D01*
X001780Y004815D01*
X001540Y004575D01*
X001540Y004235D01*
X001780Y003995D01*
X002120Y003995D01*
X002360Y004235D01*
X002360Y004546D01*
X002429Y004615D01*
X004121Y004615D01*
X004121Y004519D01*
X004186Y004455D01*
X004635Y004455D01*
X004699Y004519D01*
X004699Y005091D01*
X004635Y005155D01*
X004186Y005155D01*
X004159Y005129D02*
X004010Y005129D01*
X003890Y005129D02*
X002253Y005129D01*
X002352Y005227D02*
X003734Y005227D01*
X003682Y005326D02*
X002360Y005326D01*
X002360Y005235D02*
X002120Y004995D01*
X001780Y004995D01*
X001540Y005235D01*
X001540Y005575D01*
X001780Y005815D01*
X002120Y005815D01*
X002360Y005575D01*
X002360Y005235D01*
X002360Y005424D02*
X003672Y005424D01*
X003606Y005523D02*
X002360Y005523D01*
X002314Y005621D02*
X003508Y005621D01*
X003409Y005720D02*
X002215Y005720D01*
X002120Y005995D02*
X001780Y005995D01*
X001540Y006235D01*
X001540Y006575D01*
X001780Y006815D01*
X002120Y006815D01*
X002360Y006575D01*
X002360Y006235D01*
X002120Y005995D01*
X002140Y006015D02*
X003114Y006015D01*
X003212Y005917D02*
X000350Y005917D01*
X000350Y006015D02*
X000760Y006015D01*
X000780Y005995D02*
X001120Y005995D01*
X001360Y006235D01*
X001360Y006575D01*
X001120Y006815D01*
X000780Y006815D01*
X000540Y006575D01*
X000540Y006235D01*
X000780Y005995D01*
X000662Y006114D02*
X000350Y006114D01*
X000350Y006212D02*
X000563Y006212D01*
X000540Y006311D02*
X000350Y006311D01*
X000350Y006409D02*
X000540Y006409D01*
X000540Y006508D02*
X000350Y006508D01*
X000350Y006606D02*
X000571Y006606D01*
X000670Y006705D02*
X000350Y006705D01*
X000350Y006803D02*
X000768Y006803D01*
X001132Y006803D02*
X001768Y006803D01*
X001670Y006705D02*
X001230Y006705D01*
X001329Y006606D02*
X001571Y006606D01*
X001540Y006508D02*
X001360Y006508D01*
X001360Y006409D02*
X001540Y006409D01*
X001540Y006311D02*
X001360Y006311D01*
X001337Y006212D02*
X001563Y006212D01*
X001662Y006114D02*
X001238Y006114D01*
X001140Y006015D02*
X001760Y006015D01*
X002238Y006114D02*
X003015Y006114D01*
X002917Y006212D02*
X002337Y006212D01*
X002360Y006311D02*
X002818Y006311D01*
X002790Y006409D02*
X002360Y006409D01*
X002360Y006508D02*
X002790Y006508D01*
X002790Y006606D02*
X002329Y006606D01*
X002230Y006705D02*
X002790Y006705D01*
X002790Y006803D02*
X002132Y006803D01*
X002120Y006995D02*
X001780Y006995D01*
X001540Y007235D01*
X001540Y007575D01*
X001780Y007815D01*
X002120Y007815D01*
X002360Y007575D01*
X002360Y007235D01*
X002120Y006995D01*
X002125Y007000D02*
X002790Y007000D01*
X002790Y006902D02*
X000350Y006902D01*
X000350Y007000D02*
X001775Y007000D01*
X001677Y007099D02*
X000350Y007099D01*
X000350Y007197D02*
X001578Y007197D01*
X001540Y007296D02*
X000350Y007296D01*
X000350Y007394D02*
X001540Y007394D01*
X001540Y007493D02*
X000350Y007493D01*
X000350Y007591D02*
X001556Y007591D01*
X001655Y007690D02*
X000350Y007690D01*
X000350Y007788D02*
X001753Y007788D01*
X002147Y007788D02*
X002790Y007788D01*
X002790Y007690D02*
X002245Y007690D01*
X002344Y007591D02*
X002790Y007591D01*
X002790Y007493D02*
X002360Y007493D01*
X002360Y007394D02*
X002790Y007394D01*
X002790Y007296D02*
X002360Y007296D01*
X002322Y007197D02*
X002790Y007197D01*
X002790Y007099D02*
X002223Y007099D01*
X003110Y007099D02*
X003790Y007099D01*
X003790Y007197D02*
X003110Y007197D01*
X003110Y007296D02*
X003790Y007296D01*
X003790Y007394D02*
X003110Y007394D01*
X003110Y007493D02*
X003790Y007493D01*
X003790Y007591D02*
X003110Y007591D01*
X003110Y007690D02*
X003790Y007690D01*
X003790Y007788D02*
X003110Y007788D01*
X003110Y007887D02*
X003790Y007887D01*
X003790Y007985D02*
X003110Y007985D01*
X003110Y008084D02*
X003790Y008084D01*
X003790Y008182D02*
X003110Y008182D01*
X003110Y008281D02*
X003790Y008281D01*
X003790Y008379D02*
X003110Y008379D01*
X003110Y008478D02*
X003790Y008478D01*
X003699Y008576D02*
X003360Y008576D01*
X003360Y008675D02*
X003601Y008675D01*
X003540Y008773D02*
X003360Y008773D01*
X002790Y008478D02*
X002159Y008478D01*
X002136Y008455D02*
X002400Y008719D01*
X002400Y008855D01*
X002000Y008855D01*
X002000Y008955D01*
X002400Y008955D01*
X002400Y009091D01*
X002136Y009355D01*
X002000Y009355D01*
X002000Y008955D01*
X001900Y008955D01*
X001900Y009355D01*
X001764Y009355D01*
X001500Y009091D01*
X001500Y008955D01*
X001900Y008955D01*
X001900Y008855D01*
X002000Y008855D01*
X002000Y008455D01*
X002136Y008455D01*
X002000Y008478D02*
X001900Y008478D01*
X001900Y008455D02*
X001900Y008855D01*
X001500Y008855D01*
X001500Y008719D01*
X001764Y008455D01*
X001900Y008455D01*
X001900Y008576D02*
X002000Y008576D01*
X002000Y008675D02*
X001900Y008675D01*
X001900Y008773D02*
X002000Y008773D01*
X002000Y008872D02*
X002540Y008872D01*
X002540Y008970D02*
X002400Y008970D01*
X002400Y009069D02*
X002540Y009069D01*
X002540Y009167D02*
X002324Y009167D01*
X002226Y009266D02*
X002555Y009266D01*
X002000Y009266D02*
X001900Y009266D01*
X001900Y009167D02*
X002000Y009167D01*
X002000Y009069D02*
X001900Y009069D01*
X001900Y008970D02*
X002000Y008970D01*
X001900Y008872D02*
X001360Y008872D01*
X001360Y008970D02*
X001500Y008970D01*
X001500Y009069D02*
X001360Y009069D01*
X001360Y009075D02*
X001120Y009315D01*
X000780Y009315D01*
X000540Y009075D01*
X000540Y008735D01*
X000780Y008495D01*
X001120Y008495D01*
X001360Y008735D01*
X001360Y009075D01*
X001268Y009167D02*
X001576Y009167D01*
X001674Y009266D02*
X001169Y009266D01*
X000731Y009266D02*
X000350Y009266D01*
X000350Y009364D02*
X018550Y009364D01*
X018550Y009266D02*
X018169Y009266D01*
X018120Y009315D02*
X017780Y009315D01*
X017540Y009075D01*
X017540Y008735D01*
X017780Y008495D01*
X018120Y008495D01*
X018360Y008735D01*
X018360Y009075D01*
X018120Y009315D01*
X018268Y009167D02*
X018550Y009167D01*
X018550Y009069D02*
X018360Y009069D01*
X018360Y008970D02*
X018550Y008970D01*
X018550Y008872D02*
X018360Y008872D01*
X018360Y008773D02*
X018550Y008773D01*
X018550Y008675D02*
X018299Y008675D01*
X018201Y008576D02*
X018550Y008576D01*
X018550Y008478D02*
X004110Y008478D01*
X004110Y008379D02*
X018550Y008379D01*
X018550Y008281D02*
X004110Y008281D01*
X004110Y008182D02*
X006544Y008182D01*
X006554Y008191D02*
X006526Y008163D01*
X006506Y008129D01*
X006496Y008091D01*
X006496Y007806D01*
X006950Y007806D01*
X006950Y007706D01*
X007050Y007706D01*
X007050Y007291D01*
X007374Y007291D01*
X007412Y007301D01*
X007446Y007321D01*
X007474Y007349D01*
X007494Y007383D01*
X007504Y007421D01*
X007504Y007706D01*
X007050Y007706D01*
X007050Y007806D01*
X007504Y007806D01*
X007504Y008091D01*
X007494Y008129D01*
X007474Y008163D01*
X007446Y008191D01*
X007412Y008211D01*
X007374Y008221D01*
X007050Y008221D01*
X007050Y007806D01*
X006950Y007806D01*
X006950Y008221D01*
X006626Y008221D01*
X006588Y008211D01*
X006554Y008191D01*
X006496Y008084D02*
X004110Y008084D01*
X004110Y007985D02*
X006496Y007985D01*
X006496Y007887D02*
X004110Y007887D01*
X004110Y007788D02*
X006950Y007788D01*
X006950Y007706D02*
X006496Y007706D01*
X006496Y007421D01*
X006506Y007383D01*
X006526Y007349D01*
X006554Y007321D01*
X006588Y007301D01*
X006626Y007291D01*
X006950Y007291D01*
X006950Y007706D01*
X006950Y007690D02*
X007050Y007690D01*
X007050Y007788D02*
X008030Y007788D01*
X008030Y007806D02*
X008030Y007706D01*
X008130Y007706D01*
X008130Y007291D01*
X008454Y007291D01*
X008492Y007301D01*
X008526Y007321D01*
X008554Y007349D01*
X008574Y007383D01*
X008584Y007421D01*
X008584Y007706D01*
X008130Y007706D01*
X008130Y007806D01*
X008584Y007806D01*
X008584Y008091D01*
X008574Y008129D01*
X008554Y008163D01*
X008526Y008191D01*
X008492Y008211D01*
X008454Y008221D01*
X008130Y008221D01*
X008130Y007806D01*
X008030Y007806D01*
X007576Y007806D01*
X007576Y008091D01*
X007586Y008129D01*
X007606Y008163D01*
X007634Y008191D01*
X007668Y008211D01*
X007706Y008221D01*
X008030Y008221D01*
X008030Y007806D01*
X008030Y007887D02*
X008130Y007887D01*
X008130Y007985D02*
X008030Y007985D01*
X008030Y008084D02*
X008130Y008084D01*
X008130Y008182D02*
X008030Y008182D01*
X007624Y008182D02*
X007456Y008182D01*
X007504Y008084D02*
X007576Y008084D01*
X007576Y007985D02*
X007504Y007985D01*
X007504Y007887D02*
X007576Y007887D01*
X007576Y007706D02*
X007576Y007421D01*
X007586Y007383D01*
X007606Y007349D01*
X007634Y007321D01*
X007668Y007301D01*
X007706Y007291D01*
X008030Y007291D01*
X008030Y007706D01*
X007576Y007706D01*
X007576Y007690D02*
X007504Y007690D01*
X007504Y007591D02*
X007576Y007591D01*
X007576Y007493D02*
X007504Y007493D01*
X007497Y007394D02*
X007583Y007394D01*
X007690Y007296D02*
X007390Y007296D01*
X007050Y007296D02*
X006950Y007296D01*
X006950Y007394D02*
X007050Y007394D01*
X007050Y007493D02*
X006950Y007493D01*
X006950Y007591D02*
X007050Y007591D01*
X007050Y007887D02*
X006950Y007887D01*
X006950Y007985D02*
X007050Y007985D01*
X007050Y008084D02*
X006950Y008084D01*
X006950Y008182D02*
X007050Y008182D01*
X007120Y008495D02*
X006780Y008495D01*
X006540Y008735D01*
X006540Y009075D01*
X006780Y009315D01*
X007120Y009315D01*
X007360Y009075D01*
X007360Y008735D01*
X007120Y008495D01*
X007201Y008576D02*
X007699Y008576D01*
X007780Y008495D02*
X008120Y008495D01*
X008360Y008735D01*
X008360Y009075D01*
X008120Y009315D01*
X007780Y009315D01*
X007540Y009075D01*
X007540Y008735D01*
X007780Y008495D01*
X007601Y008675D02*
X007299Y008675D01*
X007360Y008773D02*
X007540Y008773D01*
X007540Y008872D02*
X007360Y008872D01*
X007360Y008970D02*
X007540Y008970D01*
X007540Y009069D02*
X007360Y009069D01*
X007268Y009167D02*
X007632Y009167D01*
X007731Y009266D02*
X007169Y009266D01*
X006731Y009266D02*
X006169Y009266D01*
X006120Y009315D02*
X005780Y009315D01*
X005540Y009075D01*
X005540Y008735D01*
X005780Y008495D01*
X006120Y008495D01*
X006360Y008735D01*
X006360Y009075D01*
X006120Y009315D01*
X006268Y009167D02*
X006632Y009167D01*
X006540Y009069D02*
X006360Y009069D01*
X006360Y008970D02*
X006540Y008970D01*
X006540Y008872D02*
X006360Y008872D01*
X006360Y008773D02*
X006540Y008773D01*
X006601Y008675D02*
X006299Y008675D01*
X006201Y008576D02*
X006699Y008576D01*
X005699Y008576D02*
X005201Y008576D01*
X005120Y008495D02*
X005360Y008735D01*
X005360Y009075D01*
X005120Y009315D01*
X004780Y009315D01*
X004540Y009075D01*
X004540Y008735D01*
X004780Y008495D01*
X005120Y008495D01*
X005299Y008675D02*
X005601Y008675D01*
X005540Y008773D02*
X005360Y008773D01*
X005360Y008872D02*
X005540Y008872D01*
X005540Y008970D02*
X005360Y008970D01*
X005360Y009069D02*
X005540Y009069D01*
X005632Y009167D02*
X005268Y009167D01*
X005169Y009266D02*
X005731Y009266D01*
X004731Y009266D02*
X004169Y009266D01*
X004268Y009167D02*
X004632Y009167D01*
X004540Y009069D02*
X004360Y009069D01*
X004360Y008970D02*
X004540Y008970D01*
X004540Y008872D02*
X004360Y008872D01*
X004360Y008773D02*
X004540Y008773D01*
X004601Y008675D02*
X004299Y008675D01*
X004201Y008576D02*
X004699Y008576D01*
X004110Y007690D02*
X006496Y007690D01*
X006496Y007591D02*
X004110Y007591D01*
X004110Y007493D02*
X006496Y007493D01*
X006503Y007394D02*
X004110Y007394D01*
X004110Y007296D02*
X006610Y007296D01*
X006536Y007000D02*
X004110Y007000D01*
X004110Y006902D02*
X006536Y006902D01*
X006536Y006803D02*
X004110Y006803D01*
X004194Y006705D02*
X006536Y006705D01*
X006536Y006606D02*
X004228Y006606D01*
X004234Y006508D02*
X006536Y006508D01*
X006536Y006409D02*
X004332Y006409D01*
X004431Y006311D02*
X006536Y006311D01*
X006810Y006212D02*
X004529Y006212D01*
X004628Y006114D02*
X006810Y006114D01*
X006466Y006015D02*
X004726Y006015D01*
X004471Y005818D02*
X003763Y005818D01*
X003665Y005917D02*
X004372Y005917D01*
X004274Y006015D02*
X003566Y006015D01*
X003468Y006114D02*
X004175Y006114D01*
X004077Y006212D02*
X003369Y006212D01*
X003271Y006311D02*
X003837Y006311D01*
X003713Y006409D02*
X003172Y006409D01*
X003110Y006508D02*
X003672Y006508D01*
X003672Y006606D02*
X003110Y006606D01*
X003110Y006705D02*
X003706Y006705D01*
X003790Y006803D02*
X003110Y006803D01*
X003110Y006902D02*
X003790Y006902D01*
X003790Y007000D02*
X003110Y007000D01*
X004110Y007099D02*
X018550Y007099D01*
X018550Y007197D02*
X004110Y007197D01*
X002790Y007887D02*
X000350Y007887D01*
X000350Y007985D02*
X002790Y007985D01*
X002790Y008084D02*
X000350Y008084D01*
X000350Y008182D02*
X002790Y008182D01*
X002790Y008281D02*
X000350Y008281D01*
X000350Y008379D02*
X002790Y008379D01*
X002540Y008576D02*
X002257Y008576D01*
X002356Y008675D02*
X002540Y008675D01*
X002540Y008773D02*
X002400Y008773D01*
X001741Y008478D02*
X000350Y008478D01*
X000350Y008576D02*
X000699Y008576D01*
X000601Y008675D02*
X000350Y008675D01*
X000350Y008773D02*
X000540Y008773D01*
X000540Y008872D02*
X000350Y008872D01*
X000350Y008970D02*
X000540Y008970D01*
X000540Y009069D02*
X000350Y009069D01*
X000350Y009167D02*
X000632Y009167D01*
X000350Y009463D02*
X018550Y009463D01*
X017731Y009266D02*
X017169Y009266D01*
X017120Y009315D02*
X016780Y009315D01*
X016540Y009075D01*
X016540Y008735D01*
X016780Y008495D01*
X017120Y008495D01*
X017360Y008735D01*
X017360Y009075D01*
X017120Y009315D01*
X017268Y009167D02*
X017632Y009167D01*
X017540Y009069D02*
X017360Y009069D01*
X017360Y008970D02*
X017540Y008970D01*
X017540Y008872D02*
X017360Y008872D01*
X017360Y008773D02*
X017540Y008773D01*
X017601Y008675D02*
X017299Y008675D01*
X017201Y008576D02*
X017699Y008576D01*
X018550Y008182D02*
X008536Y008182D01*
X008584Y008084D02*
X018550Y008084D01*
X018550Y007985D02*
X008584Y007985D01*
X008584Y007887D02*
X018550Y007887D01*
X018550Y007788D02*
X008130Y007788D01*
X008130Y007690D02*
X008030Y007690D01*
X008030Y007591D02*
X008130Y007591D01*
X008130Y007493D02*
X008030Y007493D01*
X008030Y007394D02*
X008130Y007394D01*
X008130Y007296D02*
X008030Y007296D01*
X008470Y007296D02*
X018550Y007296D01*
X018550Y007394D02*
X008577Y007394D01*
X008584Y007493D02*
X018550Y007493D01*
X018550Y007591D02*
X008584Y007591D01*
X008584Y007690D02*
X018550Y007690D01*
X018550Y007000D02*
X008544Y007000D01*
X008544Y006902D02*
X018550Y006902D01*
X018550Y006803D02*
X008544Y006803D01*
X008544Y006705D02*
X018550Y006705D01*
X018550Y006606D02*
X008544Y006606D01*
X008544Y006508D02*
X008559Y006508D01*
X008941Y006508D02*
X010459Y006508D01*
X010392Y006409D02*
X009008Y006409D01*
X009028Y006311D02*
X010372Y006311D01*
X010387Y006212D02*
X009013Y006212D01*
X008952Y006114D02*
X010065Y006114D01*
X009994Y006015D02*
X008640Y006015D01*
X008260Y006015D02*
X007209Y006015D01*
X007190Y006114D02*
X008260Y006114D01*
X008260Y006212D02*
X007190Y006212D01*
X007464Y006311D02*
X007616Y006311D01*
X007616Y006409D02*
X007464Y006409D01*
X007464Y006508D02*
X007616Y006508D01*
X007616Y006606D02*
X007464Y006606D01*
X007464Y006705D02*
X007616Y006705D01*
X007616Y006803D02*
X007464Y006803D01*
X007464Y006902D02*
X007616Y006902D01*
X007616Y007000D02*
X007464Y007000D01*
X007307Y005917D02*
X008260Y005917D01*
X006272Y005621D02*
X004128Y005621D01*
X003862Y005720D02*
X004569Y005720D01*
X004662Y005129D02*
X005438Y005129D01*
X005401Y005030D02*
X004699Y005030D01*
X004699Y004932D02*
X005401Y004932D01*
X005401Y004833D02*
X004699Y004833D01*
X004699Y004735D02*
X005401Y004735D01*
X005401Y004636D02*
X004699Y004636D01*
X004699Y004538D02*
X005401Y004538D01*
X005500Y004439D02*
X002360Y004439D01*
X002360Y004341D02*
X005500Y004341D01*
X005500Y004242D02*
X002360Y004242D01*
X002268Y004144D02*
X005500Y004144D01*
X005455Y004045D02*
X004645Y004045D01*
X004699Y003947D02*
X005401Y003947D01*
X005044Y003848D02*
X004699Y003848D01*
X004699Y003750D02*
X004946Y003750D01*
X004847Y003651D02*
X004699Y003651D01*
X004699Y003553D02*
X004749Y003553D01*
X004121Y003750D02*
X002185Y003750D01*
X002120Y003815D02*
X001780Y003815D01*
X001540Y003575D01*
X001540Y003235D01*
X001780Y002995D01*
X002120Y002995D01*
X002360Y003235D01*
X002360Y003575D01*
X002120Y003815D01*
X002284Y003651D02*
X004088Y003651D01*
X004083Y003553D02*
X002360Y003553D01*
X002360Y003454D02*
X004083Y003454D01*
X004083Y003356D02*
X002360Y003356D01*
X002360Y003257D02*
X004083Y003257D01*
X004083Y003159D02*
X002283Y003159D01*
X002185Y003060D02*
X004083Y003060D01*
X004049Y002962D02*
X001294Y002962D01*
X001308Y002965D02*
X001342Y002985D01*
X001370Y003013D01*
X001390Y003047D01*
X001400Y003085D01*
X001400Y003355D01*
X001000Y003355D01*
X001000Y003455D01*
X000900Y003455D01*
X000900Y003855D01*
X000630Y003855D01*
X000592Y003845D01*
X000558Y003825D01*
X000530Y003797D01*
X000510Y003763D01*
X000500Y003725D01*
X000500Y003455D01*
X000900Y003455D01*
X000900Y003355D01*
X001000Y003355D01*
X001000Y002955D01*
X001270Y002955D01*
X001308Y002965D01*
X001393Y003060D02*
X001715Y003060D01*
X001617Y003159D02*
X001400Y003159D01*
X001400Y003257D02*
X001540Y003257D01*
X001540Y003356D02*
X001000Y003356D01*
X001000Y003454D02*
X001540Y003454D01*
X001540Y003553D02*
X001400Y003553D01*
X001400Y003455D02*
X001400Y003725D01*
X001390Y003763D01*
X001370Y003797D01*
X001342Y003825D01*
X001308Y003845D01*
X001270Y003855D01*
X001000Y003855D01*
X001000Y003455D01*
X001400Y003455D01*
X001400Y003651D02*
X001616Y003651D01*
X001715Y003750D02*
X001393Y003750D01*
X001296Y003848D02*
X004121Y003848D01*
X004121Y003947D02*
X000350Y003947D01*
X000350Y004045D02*
X000730Y004045D01*
X000780Y003995D02*
X001120Y003995D01*
X001360Y004235D01*
X001360Y004575D01*
X001120Y004815D01*
X000780Y004815D01*
X000540Y004575D01*
X000540Y004235D01*
X000780Y003995D01*
X000900Y003848D02*
X001000Y003848D01*
X001000Y003750D02*
X000900Y003750D01*
X000900Y003651D02*
X001000Y003651D01*
X001000Y003553D02*
X000900Y003553D01*
X000900Y003454D02*
X000350Y003454D01*
X000350Y003356D02*
X000900Y003356D01*
X000900Y003355D02*
X000500Y003355D01*
X000500Y003085D01*
X000510Y003047D01*
X000530Y003013D01*
X000558Y002985D01*
X000592Y002965D01*
X000630Y002955D01*
X000900Y002955D01*
X000900Y003355D01*
X000900Y003257D02*
X001000Y003257D01*
X001000Y003159D02*
X000900Y003159D01*
X000900Y003060D02*
X001000Y003060D01*
X001000Y002962D02*
X000900Y002962D01*
X000606Y002962D02*
X000350Y002962D01*
X000350Y003060D02*
X000507Y003060D01*
X000500Y003159D02*
X000350Y003159D01*
X000350Y003257D02*
X000500Y003257D01*
X000500Y003553D02*
X000350Y003553D01*
X000350Y003651D02*
X000500Y003651D01*
X000507Y003750D02*
X000350Y003750D01*
X000350Y003848D02*
X000604Y003848D01*
X000632Y004144D02*
X000350Y004144D01*
X000350Y004242D02*
X000540Y004242D01*
X000540Y004341D02*
X000350Y004341D01*
X000350Y004439D02*
X000540Y004439D01*
X000540Y004538D02*
X000350Y004538D01*
X000350Y004636D02*
X000601Y004636D01*
X000700Y004735D02*
X000350Y004735D01*
X000350Y004833D02*
X002109Y004833D01*
X002208Y004932D02*
X000350Y004932D01*
X000350Y005030D02*
X000745Y005030D01*
X000780Y004995D02*
X001120Y004995D01*
X001360Y005235D01*
X001360Y005575D01*
X001120Y005815D01*
X000780Y005815D01*
X000540Y005575D01*
X000540Y005235D01*
X000780Y004995D01*
X000647Y005129D02*
X000350Y005129D01*
X000350Y005227D02*
X000548Y005227D01*
X000540Y005326D02*
X000350Y005326D01*
X000350Y005424D02*
X000540Y005424D01*
X000540Y005523D02*
X000350Y005523D01*
X000350Y005621D02*
X000586Y005621D01*
X000685Y005720D02*
X000350Y005720D01*
X000350Y005818D02*
X003311Y005818D01*
X004121Y005030D02*
X002155Y005030D01*
X001745Y005030D02*
X001155Y005030D01*
X001253Y005129D02*
X001647Y005129D01*
X001548Y005227D02*
X001352Y005227D01*
X001360Y005326D02*
X001540Y005326D01*
X001540Y005424D02*
X001360Y005424D01*
X001360Y005523D02*
X001540Y005523D01*
X001586Y005621D02*
X001314Y005621D01*
X001215Y005720D02*
X001685Y005720D01*
X001700Y004735D02*
X001200Y004735D01*
X001299Y004636D02*
X001601Y004636D01*
X001540Y004538D02*
X001360Y004538D01*
X001360Y004439D02*
X001540Y004439D01*
X001540Y004341D02*
X001360Y004341D01*
X001360Y004242D02*
X001540Y004242D01*
X001632Y004144D02*
X001268Y004144D01*
X001170Y004045D02*
X001730Y004045D01*
X002170Y004045D02*
X004175Y004045D01*
X004121Y004538D02*
X002360Y004538D01*
X005250Y003005D02*
X009750Y003005D01*
X009834Y002863D02*
X018550Y002863D01*
X018550Y002765D02*
X005397Y002765D01*
X005915Y003356D02*
X007177Y003356D01*
X007140Y003454D02*
X005979Y003454D01*
X005979Y003553D02*
X007140Y003553D01*
X009933Y002962D02*
X018550Y002962D01*
X018550Y003060D02*
X010186Y003060D01*
X010745Y003848D02*
X012450Y003848D01*
X012450Y003750D02*
X012032Y003750D01*
X012450Y003947D02*
X010753Y003947D01*
X010753Y004045D02*
X012450Y004045D01*
X012450Y004144D02*
X010753Y004144D01*
X010753Y004242D02*
X012450Y004242D01*
X012450Y004341D02*
X010753Y004341D01*
X010753Y004439D02*
X012450Y004439D01*
X012450Y004538D02*
X010753Y004538D01*
X010753Y004735D02*
X012450Y004735D01*
X012450Y004833D02*
X010753Y004833D01*
X010753Y004932D02*
X012450Y004932D01*
X012450Y005030D02*
X010753Y005030D01*
X010753Y005129D02*
X012450Y005129D01*
X012450Y005227D02*
X010753Y005227D01*
X010753Y005326D02*
X012450Y005326D01*
X012450Y005424D02*
X010705Y005424D01*
X010448Y006114D02*
X010435Y006114D01*
X010841Y006508D02*
X016054Y006508D01*
X015916Y006409D02*
X014035Y006409D01*
X014133Y006311D02*
X015840Y006311D01*
X015800Y006212D02*
X014232Y006212D01*
X014556Y006114D02*
X015786Y006114D01*
X015786Y006015D02*
X014633Y006015D01*
X014526Y005381D02*
X014526Y005369D01*
X014840Y005055D01*
X015527Y005030D02*
X015553Y005030D01*
X015553Y005105D02*
X015553Y004718D01*
X015815Y004718D01*
X015815Y004975D01*
X015805Y005013D01*
X015785Y005047D01*
X015757Y005075D01*
X015723Y005095D01*
X015685Y005105D01*
X015553Y005105D01*
X015795Y005030D02*
X016090Y005030D01*
X016090Y004932D02*
X015815Y004932D01*
X015815Y004833D02*
X016090Y004833D01*
X016053Y004735D02*
X015815Y004735D01*
X015815Y004636D02*
X015955Y004636D01*
X015856Y004538D02*
X015815Y004538D01*
X015553Y004538D02*
X015527Y004538D01*
X015527Y004636D02*
X015553Y004636D01*
X015553Y004692D02*
X015553Y004305D01*
X015624Y004305D01*
X015350Y004031D01*
X015350Y004319D01*
X015357Y004315D01*
X015395Y004305D01*
X015527Y004305D01*
X015527Y004692D01*
X015553Y004692D01*
X015553Y004735D02*
X015527Y004735D01*
X015527Y004833D02*
X015553Y004833D01*
X015553Y004932D02*
X015527Y004932D01*
X016309Y004538D02*
X018550Y004538D01*
X018550Y004636D02*
X016407Y004636D01*
X016410Y004735D02*
X018550Y004735D01*
X018550Y004833D02*
X016410Y004833D01*
X016410Y004932D02*
X018550Y004932D01*
X018550Y005030D02*
X016410Y005030D01*
X016410Y005129D02*
X018550Y005129D01*
X018550Y005227D02*
X016410Y005227D01*
X016410Y005326D02*
X018550Y005326D01*
X018550Y005424D02*
X016410Y005424D01*
X016410Y005523D02*
X018550Y005523D01*
X018550Y005621D02*
X016410Y005621D01*
X016540Y005720D02*
X018550Y005720D01*
X018550Y005818D02*
X016639Y005818D01*
X016682Y005917D02*
X018550Y005917D01*
X018550Y006015D02*
X016714Y006015D01*
X016714Y006114D02*
X018550Y006114D01*
X018550Y006212D02*
X016700Y006212D01*
X016660Y006311D02*
X018550Y006311D01*
X018550Y006409D02*
X016584Y006409D01*
X016446Y006508D02*
X018550Y006508D01*
X016360Y008735D02*
X016120Y008495D01*
X015780Y008495D01*
X015540Y008735D01*
X015540Y009075D01*
X015780Y009315D01*
X016120Y009315D01*
X016360Y009075D01*
X016360Y008735D01*
X016360Y008773D02*
X016540Y008773D01*
X016540Y008872D02*
X016360Y008872D01*
X016360Y008970D02*
X016540Y008970D01*
X016540Y009069D02*
X016360Y009069D01*
X016268Y009167D02*
X016632Y009167D01*
X016731Y009266D02*
X016169Y009266D01*
X015731Y009266D02*
X015169Y009266D01*
X015120Y009315D02*
X014780Y009315D01*
X014540Y009075D01*
X014540Y008735D01*
X014780Y008495D01*
X015120Y008495D01*
X015360Y008735D01*
X015360Y009075D01*
X015120Y009315D01*
X015268Y009167D02*
X015632Y009167D01*
X015540Y009069D02*
X015360Y009069D01*
X015360Y008970D02*
X015540Y008970D01*
X015540Y008872D02*
X015360Y008872D01*
X015360Y008773D02*
X015540Y008773D01*
X015601Y008675D02*
X015299Y008675D01*
X015201Y008576D02*
X015699Y008576D01*
X016201Y008576D02*
X016699Y008576D01*
X016601Y008675D02*
X016299Y008675D01*
X014699Y008576D02*
X014201Y008576D01*
X014120Y008495D02*
X014360Y008735D01*
X014360Y009075D01*
X014120Y009315D01*
X013780Y009315D01*
X013540Y009075D01*
X013540Y008735D01*
X013780Y008495D01*
X014120Y008495D01*
X014299Y008675D02*
X014601Y008675D01*
X014540Y008773D02*
X014360Y008773D01*
X014360Y008872D02*
X014540Y008872D01*
X014540Y008970D02*
X014360Y008970D01*
X014360Y009069D02*
X014540Y009069D01*
X014632Y009167D02*
X014268Y009167D01*
X014169Y009266D02*
X014731Y009266D01*
X013731Y009266D02*
X013169Y009266D01*
X013120Y009315D02*
X012780Y009315D01*
X012540Y009075D01*
X012540Y008735D01*
X012780Y008495D01*
X013120Y008495D01*
X013360Y008735D01*
X013360Y009075D01*
X013120Y009315D01*
X013268Y009167D02*
X013632Y009167D01*
X013540Y009069D02*
X013360Y009069D01*
X013360Y008970D02*
X013540Y008970D01*
X013540Y008872D02*
X013360Y008872D01*
X013360Y008773D02*
X013540Y008773D01*
X013601Y008675D02*
X013299Y008675D01*
X013201Y008576D02*
X013699Y008576D01*
X012699Y008576D02*
X012201Y008576D01*
X012120Y008495D02*
X012360Y008735D01*
X012360Y009075D01*
X012120Y009315D01*
X011780Y009315D01*
X011540Y009075D01*
X011540Y008735D01*
X011780Y008495D01*
X012120Y008495D01*
X012299Y008675D02*
X012601Y008675D01*
X012540Y008773D02*
X012360Y008773D01*
X012360Y008872D02*
X012540Y008872D01*
X012540Y008970D02*
X012360Y008970D01*
X012360Y009069D02*
X012540Y009069D01*
X012632Y009167D02*
X012268Y009167D01*
X012169Y009266D02*
X012731Y009266D01*
X011731Y009266D02*
X011169Y009266D01*
X011120Y009315D02*
X010780Y009315D01*
X010540Y009075D01*
X010540Y008735D01*
X010780Y008495D01*
X011120Y008495D01*
X011360Y008735D01*
X011360Y009075D01*
X011120Y009315D01*
X011268Y009167D02*
X011632Y009167D01*
X011540Y009069D02*
X011360Y009069D01*
X011360Y008970D02*
X011540Y008970D01*
X011540Y008872D02*
X011360Y008872D01*
X011360Y008773D02*
X011540Y008773D01*
X011601Y008675D02*
X011299Y008675D01*
X011201Y008576D02*
X011699Y008576D01*
X010699Y008576D02*
X010201Y008576D01*
X010120Y008495D02*
X010360Y008735D01*
X010360Y009075D01*
X010120Y009315D01*
X009780Y009315D01*
X009540Y009075D01*
X009540Y008735D01*
X009780Y008495D01*
X010120Y008495D01*
X010299Y008675D02*
X010601Y008675D01*
X010540Y008773D02*
X010360Y008773D01*
X010360Y008872D02*
X010540Y008872D01*
X010540Y008970D02*
X010360Y008970D01*
X010360Y009069D02*
X010540Y009069D01*
X010632Y009167D02*
X010268Y009167D01*
X010169Y009266D02*
X010731Y009266D01*
X009731Y009266D02*
X009169Y009266D01*
X009120Y009315D02*
X008780Y009315D01*
X008540Y009075D01*
X008540Y008735D01*
X008780Y008495D01*
X009120Y008495D01*
X009360Y008735D01*
X009360Y009075D01*
X009120Y009315D01*
X009268Y009167D02*
X009632Y009167D01*
X009540Y009069D02*
X009360Y009069D01*
X009360Y008970D02*
X009540Y008970D01*
X009540Y008872D02*
X009360Y008872D01*
X009360Y008773D02*
X009540Y008773D01*
X009601Y008675D02*
X009299Y008675D01*
X009201Y008576D02*
X009699Y008576D01*
X008699Y008576D02*
X008201Y008576D01*
X008299Y008675D02*
X008601Y008675D01*
X008540Y008773D02*
X008360Y008773D01*
X008360Y008872D02*
X008540Y008872D01*
X008540Y008970D02*
X008360Y008970D01*
X008360Y009069D02*
X008540Y009069D01*
X008632Y009167D02*
X008268Y009167D01*
X008169Y009266D02*
X008731Y009266D01*
X001643Y008576D02*
X001201Y008576D01*
X001299Y008675D02*
X001544Y008675D01*
X001500Y008773D02*
X001360Y008773D01*
X010220Y004636D02*
X012450Y004636D01*
X012610Y004636D02*
X013412Y004636D01*
X013505Y004538D02*
X012610Y004538D01*
X012610Y004439D02*
X013599Y004439D01*
X013692Y004341D02*
X012610Y004341D01*
X012610Y004242D02*
X013786Y004242D01*
X013879Y004144D02*
X012610Y004144D01*
X012610Y004045D02*
X013973Y004045D01*
X013977Y004041D02*
X012610Y005481D01*
X012610Y003665D01*
X014115Y003665D01*
X014023Y003757D01*
X013970Y003885D01*
X013970Y004025D01*
X013977Y004041D01*
X013970Y003947D02*
X012610Y003947D01*
X012610Y003848D02*
X013985Y003848D01*
X014031Y003750D02*
X012610Y003750D01*
X012610Y004735D02*
X013319Y004735D01*
X013225Y004833D02*
X012610Y004833D01*
X012610Y004932D02*
X013132Y004932D01*
X013038Y005030D02*
X012610Y005030D01*
X012610Y005129D02*
X012945Y005129D01*
X012851Y005227D02*
X012610Y005227D01*
X012610Y005326D02*
X012758Y005326D01*
X012664Y005424D02*
X012610Y005424D01*
X015350Y004242D02*
X015561Y004242D01*
X015553Y004341D02*
X015527Y004341D01*
X015527Y004439D02*
X015553Y004439D01*
X016013Y004242D02*
X018550Y004242D01*
X018550Y004144D02*
X016530Y004144D01*
X016514Y004155D02*
X016444Y004191D01*
X016368Y004216D01*
X016300Y004227D01*
X016300Y003774D01*
X016200Y003774D01*
X016200Y004227D01*
X016132Y004216D01*
X016056Y004191D01*
X015986Y004155D01*
X015921Y004109D01*
X015865Y004052D01*
X015819Y003988D01*
X015783Y003917D01*
X015758Y003842D01*
X015747Y003774D01*
X016200Y003774D01*
X016200Y003674D01*
X015747Y003674D01*
X015758Y003606D01*
X015783Y003530D01*
X015819Y003460D01*
X015865Y003395D01*
X015921Y003339D01*
X015986Y003293D01*
X016056Y003257D01*
X016055Y003257D02*
X015028Y003257D01*
X014930Y003159D02*
X018550Y003159D01*
X018550Y003257D02*
X016445Y003257D01*
X016444Y003257D02*
X016514Y003293D01*
X016579Y003339D01*
X016635Y003395D01*
X016681Y003460D01*
X016717Y003530D01*
X016742Y003606D01*
X016753Y003674D01*
X016300Y003674D01*
X016300Y003774D01*
X016753Y003774D01*
X016742Y003842D01*
X016717Y003917D01*
X016681Y003988D01*
X016635Y004052D01*
X016579Y004109D01*
X016514Y004155D01*
X016640Y004045D02*
X018550Y004045D01*
X018550Y003947D02*
X016703Y003947D01*
X016740Y003848D02*
X018550Y003848D01*
X018550Y003750D02*
X016300Y003750D01*
X016300Y003674D02*
X016200Y003674D01*
X016200Y003221D01*
X016132Y003232D01*
X016056Y003257D01*
X016200Y003257D02*
X016300Y003257D01*
X016300Y003221D02*
X016368Y003232D01*
X016444Y003257D01*
X016300Y003221D02*
X016300Y003674D01*
X016300Y003651D02*
X016200Y003651D01*
X016200Y003553D02*
X016300Y003553D01*
X016300Y003454D02*
X016200Y003454D01*
X016200Y003356D02*
X016300Y003356D01*
X016595Y003356D02*
X018550Y003356D01*
X018550Y003454D02*
X016677Y003454D01*
X016725Y003553D02*
X018550Y003553D01*
X018550Y003651D02*
X016749Y003651D01*
X016300Y003848D02*
X016200Y003848D01*
X016200Y003750D02*
X015521Y003750D01*
X015619Y003848D02*
X015760Y003848D01*
X015797Y003947D02*
X015718Y003947D01*
X015816Y004045D02*
X015860Y004045D01*
X015915Y004144D02*
X015970Y004144D01*
X016200Y004144D02*
X016300Y004144D01*
X016300Y004045D02*
X016200Y004045D01*
X016200Y003947D02*
X016300Y003947D01*
X015751Y003651D02*
X015422Y003651D01*
X015324Y003553D02*
X015775Y003553D01*
X015823Y003454D02*
X015225Y003454D01*
X015127Y003356D02*
X015905Y003356D01*
X015364Y004045D02*
X015350Y004045D01*
X015350Y004144D02*
X015462Y004144D01*
X016112Y004341D02*
X018550Y004341D01*
X018550Y004439D02*
X016210Y004439D01*
X004038Y002863D02*
X000350Y002863D01*
X000350Y002765D02*
X001511Y002765D01*
X001500Y002666D02*
X000350Y002666D01*
X000350Y002568D02*
X001500Y002568D01*
X001500Y002469D02*
X000350Y002469D01*
X000350Y002371D02*
X001900Y002371D01*
X001900Y002355D02*
X001500Y002355D01*
X001500Y002085D01*
X001510Y002047D01*
X001530Y002013D01*
X001558Y001985D01*
X001592Y001965D01*
X001630Y001955D01*
X001900Y001955D01*
X001900Y002355D01*
X001900Y002272D02*
X002000Y002272D01*
X002000Y002174D02*
X001900Y002174D01*
X001900Y002075D02*
X002000Y002075D01*
X002000Y001977D02*
X001900Y001977D01*
X002154Y001878D02*
X000350Y001878D01*
X000350Y001780D02*
X002056Y001780D01*
X001573Y001977D02*
X000350Y001977D01*
X000350Y002075D02*
X001503Y002075D01*
X001500Y002174D02*
X000350Y002174D01*
X000350Y002272D02*
X001500Y002272D01*
X001900Y002469D02*
X002000Y002469D01*
X002000Y002455D02*
X002000Y002855D01*
X002270Y002855D01*
X002308Y002845D01*
X002342Y002825D01*
X002370Y002797D01*
X002390Y002763D01*
X002400Y002725D01*
X002400Y002455D01*
X002000Y002455D01*
X002000Y002371D02*
X002647Y002371D01*
X002745Y002469D02*
X002400Y002469D01*
X002400Y002568D02*
X002844Y002568D01*
X002942Y002666D02*
X002400Y002666D01*
X002389Y002765D02*
X003041Y002765D01*
X002548Y002272D02*
X002400Y002272D01*
X002400Y002174D02*
X002450Y002174D01*
X002000Y002568D02*
X001900Y002568D01*
X001900Y002666D02*
X002000Y002666D01*
X002000Y002765D02*
X001900Y002765D01*
X001457Y001681D02*
X000350Y001681D01*
X000350Y001583D02*
X001359Y001583D01*
X001260Y001484D02*
X000350Y001484D01*
X000350Y001386D02*
X001162Y001386D01*
X001502Y001189D02*
X001654Y001189D01*
X001601Y001287D02*
X001752Y001287D01*
X001555Y001090D02*
X001404Y001090D01*
X001360Y000992D02*
X001540Y000992D01*
X001540Y000893D02*
X001360Y000893D01*
X001360Y000795D02*
X001540Y000795D01*
X001579Y000696D02*
X001321Y000696D01*
X001222Y000598D02*
X001678Y000598D01*
X001776Y000499D02*
X001124Y000499D01*
X000776Y000499D02*
X000350Y000499D01*
X000350Y000598D02*
X000678Y000598D01*
X000579Y000696D02*
X000350Y000696D01*
X000350Y000795D02*
X000540Y000795D01*
X000540Y000893D02*
X000350Y000893D01*
X000350Y000992D02*
X000540Y000992D01*
X000555Y001090D02*
X000350Y001090D01*
X000350Y001189D02*
X000654Y001189D01*
X000752Y001287D02*
X000350Y001287D01*
D21*
X000950Y000905D02*
X001550Y001505D01*
X002050Y001505D01*
X003200Y002655D01*
X004273Y002655D01*
X004273Y003568D01*
X004410Y003705D01*
X004630Y003165D02*
X005170Y003705D01*
X005690Y003705D01*
X005690Y004805D01*
X006650Y004805D01*
X007460Y005515D01*
X007730Y005515D01*
X007449Y005506D02*
X007000Y005955D01*
X007000Y006654D01*
X008080Y006654D02*
X008450Y006324D01*
X008450Y006305D01*
X008750Y006305D01*
X008450Y006305D02*
X008450Y004705D01*
X008350Y004605D01*
X007730Y004605D01*
X010250Y005905D02*
X012470Y005905D01*
X014320Y003955D01*
X014320Y005855D02*
X013870Y006305D01*
X010650Y006305D01*
X004630Y003165D02*
X004630Y002658D01*
X004627Y002655D01*
X002350Y004805D02*
X001950Y004405D01*
X002350Y004805D02*
X004410Y004805D01*
M02*
