G75*
G70*
%OFA0B0*%
%FSLAX24Y24*%
%IPPOS*%
%LPD*%
%AMOC8*
5,1,8,0,0,1.08239X$1,22.5*
%
%ADD10R,0.0236X0.0866*%
%ADD11R,0.0394X0.0433*%
%ADD12R,0.0433X0.0394*%
%ADD13R,0.0591X0.0591*%
%ADD14R,0.0157X0.0748*%
%ADD15R,0.0748X0.0157*%
%ADD16R,0.0310X0.0350*%
D10*
X004400Y004116D03*
X004900Y004116D03*
X005400Y004116D03*
X005900Y004116D03*
X005900Y006164D03*
X005400Y006164D03*
X004900Y006164D03*
X004400Y006164D03*
D11*
X003485Y006140D03*
X002815Y006140D03*
X002815Y005340D03*
X003485Y005340D03*
X003485Y004540D03*
X002815Y004540D03*
X006350Y004775D03*
X006350Y004105D03*
X005680Y007109D03*
X005010Y007109D03*
X005010Y007717D03*
X005680Y007717D03*
X012941Y005318D03*
X012941Y004649D03*
D12*
X017450Y006305D03*
X018070Y006305D03*
X018070Y006975D03*
X017450Y006975D03*
X009933Y008014D03*
X009264Y008014D03*
X003485Y006940D03*
X002815Y006940D03*
X009500Y001912D03*
X010170Y001912D03*
D13*
X018063Y004251D03*
X018063Y005629D03*
D14*
X011320Y007179D03*
X011005Y007179D03*
X010690Y007179D03*
X010375Y007179D03*
X010060Y007179D03*
X009745Y007179D03*
X009430Y007179D03*
X009115Y007179D03*
X008800Y007179D03*
X008485Y007179D03*
X008170Y007179D03*
X008170Y002691D03*
X008485Y002691D03*
X008800Y002691D03*
X009115Y002691D03*
X009430Y002691D03*
X009745Y002691D03*
X010060Y002691D03*
X010375Y002691D03*
X010690Y002691D03*
X011005Y002691D03*
X011320Y002691D03*
D15*
X011989Y003360D03*
X011989Y003675D03*
X011989Y003990D03*
X011989Y004305D03*
X011989Y004620D03*
X011989Y004935D03*
X011989Y005250D03*
X011989Y005565D03*
X011989Y005880D03*
X011989Y006195D03*
X011989Y006510D03*
X007501Y006510D03*
X007501Y006195D03*
X007501Y005880D03*
X007501Y005565D03*
X007501Y005250D03*
X007501Y004935D03*
X007501Y004620D03*
X007501Y004305D03*
X007501Y003990D03*
X007501Y003675D03*
X007501Y003360D03*
D16*
X003360Y002940D03*
X002980Y003740D03*
X003740Y003740D03*
M02*
