G75*
G70*
%OFA0B0*%
%FSLAX24Y24*%
%IPPOS*%
%LPD*%
%AMOC8*
5,1,8,0,0,1.08239X$1,22.5*
%
%ADD10C,0.0100*%
%ADD11C,0.0080*%
%ADD12C,0.0060*%
%ADD13C,0.0237*%
%ADD14C,0.0316*%
%ADD15C,0.0158*%
D10*
X014615Y002435D02*
X014871Y002750D01*
X014836Y002812D01*
X014806Y002876D01*
X015239Y003056D01*
X015269Y002997D01*
X015309Y002945D01*
X015356Y002900D01*
X015411Y002863D01*
X015471Y002836D01*
X015535Y002820D01*
X015600Y002814D01*
X015673Y002821D01*
X015743Y002842D01*
X015809Y002875D01*
X015867Y002920D01*
X015915Y002974D01*
X015953Y003037D01*
X015978Y003106D01*
X015990Y003178D01*
X015988Y003252D01*
X015972Y003323D01*
X015944Y003391D01*
X015903Y003452D01*
X015852Y003504D01*
X015791Y003545D01*
X015725Y003575D01*
X015653Y003592D01*
X015580Y003595D01*
X015508Y003585D01*
X015438Y003561D01*
X015375Y003524D01*
X015319Y003476D01*
X015273Y003419D01*
X015239Y003354D01*
X014806Y003534D01*
X014836Y003598D01*
X014871Y003660D01*
X014615Y003975D01*
X014830Y004190D01*
X015145Y003934D01*
X015228Y003980D01*
X015315Y004016D01*
X015407Y004042D01*
X015448Y004446D01*
X015752Y004446D01*
X015793Y004042D01*
X015885Y004016D01*
X015972Y003980D01*
X016055Y003934D01*
X016370Y004190D01*
X016585Y003975D01*
X016329Y003660D01*
X016375Y003577D01*
X016411Y003490D01*
X016437Y003398D01*
X016841Y003357D01*
X016841Y003053D01*
X016437Y003012D01*
X016411Y002920D01*
X016375Y002833D01*
X016329Y002750D01*
X016585Y002435D01*
X016370Y002220D01*
X016055Y002476D01*
X015972Y002430D01*
X015885Y002394D01*
X015793Y002368D01*
X015752Y001964D01*
X015448Y001964D01*
X015407Y002368D01*
X015315Y002394D01*
X015228Y002430D01*
X015145Y002476D01*
X014830Y002220D01*
X014615Y002435D01*
X014871Y002750D01*
X014836Y002812D01*
X014806Y002876D01*
X015239Y003056D01*
X015269Y002997D01*
X015309Y002945D01*
X015356Y002900D01*
X015411Y002863D01*
X015471Y002836D01*
X015535Y002820D01*
X015600Y002814D01*
X015673Y002821D01*
X015743Y002842D01*
X015809Y002875D01*
X015867Y002920D01*
X015915Y002974D01*
X015953Y003037D01*
X015978Y003106D01*
X015990Y003178D01*
X015988Y003252D01*
X015972Y003323D01*
X015944Y003391D01*
X015903Y003452D01*
X015852Y003504D01*
X015791Y003545D01*
X015725Y003575D01*
X015653Y003592D01*
X015580Y003595D01*
X015508Y003585D01*
X015438Y003561D01*
X015375Y003524D01*
X015319Y003476D01*
X015273Y003419D01*
X015239Y003354D01*
X014806Y003534D01*
X014836Y003598D01*
X014871Y003660D01*
X014615Y003975D01*
X014830Y004190D01*
X015145Y003934D01*
X015228Y003980D01*
X015315Y004016D01*
X015407Y004042D01*
X015448Y004446D01*
X015752Y004446D01*
X015793Y004042D01*
X015885Y004016D01*
X015972Y003980D01*
X016055Y003934D01*
X016370Y004190D01*
X016585Y003975D01*
X016329Y003660D01*
X016375Y003577D01*
X016411Y003490D01*
X016437Y003398D01*
X016841Y003357D01*
X016841Y003053D01*
X016437Y003012D01*
X016411Y002920D01*
X016375Y002833D01*
X016329Y002750D01*
X016585Y002435D01*
X016370Y002220D01*
X016055Y002476D01*
X015972Y002430D01*
X015885Y002394D01*
X015793Y002368D01*
X015752Y001964D01*
X015448Y001964D01*
X015407Y002368D01*
X015315Y002394D01*
X015228Y002430D01*
X015145Y002476D01*
X014830Y002220D01*
X014615Y002435D01*
X014642Y002469D02*
X015136Y002469D01*
X014642Y002469D01*
X014680Y002371D02*
X015015Y002371D01*
X014680Y002371D01*
X014778Y002272D02*
X014894Y002272D01*
X014778Y002272D01*
X015158Y002469D02*
X016042Y002469D01*
X015158Y002469D01*
X015397Y002371D02*
X015803Y002371D01*
X015397Y002371D01*
X015416Y002272D02*
X015784Y002272D01*
X015416Y002272D01*
X015426Y002174D02*
X015774Y002174D01*
X015426Y002174D01*
X015436Y002075D02*
X015764Y002075D01*
X015436Y002075D01*
X015446Y001977D02*
X015754Y001977D01*
X015446Y001977D01*
X016185Y002371D02*
X016520Y002371D01*
X016185Y002371D01*
X016064Y002469D02*
X016558Y002469D01*
X016064Y002469D01*
X016306Y002272D02*
X016422Y002272D01*
X016306Y002272D01*
X016477Y002568D02*
X014723Y002568D01*
X016477Y002568D01*
X016397Y002666D02*
X014803Y002666D01*
X016397Y002666D01*
X016337Y002765D02*
X014863Y002765D01*
X016337Y002765D01*
X016387Y002863D02*
X015785Y002863D01*
X016387Y002863D01*
X016423Y002962D02*
X015904Y002962D01*
X016423Y002962D01*
X016841Y003060D02*
X015961Y003060D01*
X016841Y003060D01*
X016841Y003159D02*
X015986Y003159D01*
X016841Y003159D01*
X016841Y003257D02*
X015987Y003257D01*
X016841Y003257D01*
X016841Y003356D02*
X015959Y003356D01*
X016841Y003356D01*
X016421Y003454D02*
X015901Y003454D01*
X016421Y003454D01*
X016385Y003553D02*
X015776Y003553D01*
X016385Y003553D01*
X016334Y003651D02*
X014866Y003651D01*
X016334Y003651D01*
X016401Y003750D02*
X014799Y003750D01*
X016401Y003750D01*
X016482Y003848D02*
X014718Y003848D01*
X016482Y003848D01*
X016562Y003947D02*
X016071Y003947D01*
X016562Y003947D01*
X016515Y004045D02*
X016192Y004045D01*
X016515Y004045D01*
X016416Y004144D02*
X016313Y004144D01*
X016416Y004144D01*
X016032Y003947D02*
X015168Y003947D01*
X016032Y003947D01*
X015793Y004045D02*
X015407Y004045D01*
X015793Y004045D01*
X015783Y004144D02*
X015417Y004144D01*
X015783Y004144D01*
X015773Y004242D02*
X015427Y004242D01*
X015773Y004242D01*
X015763Y004341D02*
X015437Y004341D01*
X015763Y004341D01*
X015753Y004439D02*
X015447Y004439D01*
X015753Y004439D01*
X015008Y004045D02*
X014685Y004045D01*
X015008Y004045D01*
X014887Y004144D02*
X014784Y004144D01*
X014887Y004144D01*
X015129Y003947D02*
X014638Y003947D01*
X015129Y003947D01*
X015424Y003553D02*
X014815Y003553D01*
X015424Y003553D01*
X015301Y003454D02*
X014999Y003454D01*
X015301Y003454D01*
X015240Y003356D02*
X015237Y003356D01*
X015240Y003356D01*
X015296Y002962D02*
X015012Y002962D01*
X015296Y002962D01*
X015411Y002863D02*
X014812Y002863D01*
X015411Y002863D01*
D11*
X013150Y003315D02*
X011850Y003315D01*
X011850Y005895D01*
X013150Y005895D01*
X013150Y003315D01*
X015579Y005284D02*
X015590Y005329D01*
X015604Y005373D01*
X015623Y005416D01*
X015645Y005457D01*
X015670Y005496D01*
X015699Y005533D01*
X015730Y005567D01*
X015765Y005599D01*
X015801Y005627D01*
X015841Y005653D01*
X015882Y005675D01*
X015924Y005693D01*
X015969Y005708D01*
X016014Y005719D01*
X016060Y005726D01*
X016106Y005729D01*
X016153Y005728D01*
X016199Y005723D01*
X016245Y005715D01*
X016290Y005703D01*
X016334Y005686D01*
X016376Y005667D01*
X016416Y005643D01*
X016455Y005617D01*
X016491Y005587D01*
X016524Y005555D01*
X016554Y005520D01*
X016582Y005482D01*
X016606Y005442D01*
X016605Y005441D02*
X016578Y005482D01*
X016554Y005525D01*
X016534Y005570D01*
X016517Y005615D01*
X016504Y005662D01*
X016494Y005710D01*
X016488Y005759D01*
X016485Y005807D01*
X016486Y005856D01*
X016491Y005905D01*
X016499Y005953D01*
X016511Y006000D01*
X016526Y006047D01*
X016545Y006092D01*
X016567Y006135D01*
X016593Y006177D01*
X016621Y006217D01*
X016652Y006254D01*
X016686Y006289D01*
X016723Y006322D01*
X016761Y006351D01*
X016802Y006378D01*
X016845Y006402D01*
X016890Y006422D01*
X016935Y006439D01*
X016982Y006452D01*
X017030Y006462D01*
X017079Y006468D01*
X016368Y006705D02*
X016289Y006705D01*
X014947Y006468D02*
X014930Y006538D01*
X014917Y006608D01*
X014908Y006679D01*
X014902Y006751D01*
X014900Y006823D01*
X014902Y006895D01*
X014908Y006967D01*
X014917Y007038D01*
X014930Y007108D01*
X014947Y007178D01*
X014947Y007179D02*
X015105Y007258D01*
X014711Y007494D02*
X015500Y007494D01*
X014711Y007494D02*
X014711Y005916D01*
X015500Y005916D01*
X015184Y006310D02*
X014947Y006468D01*
X015500Y007494D02*
X015554Y007492D01*
X015607Y007487D01*
X015661Y007477D01*
X015713Y007465D01*
X015764Y007448D01*
X015814Y007429D01*
X015863Y007406D01*
X015910Y007379D01*
X015955Y007350D01*
X015998Y007317D01*
X016039Y007282D01*
X016077Y007244D01*
X016112Y007203D01*
X016145Y007160D01*
X016174Y007115D01*
X016201Y007068D01*
X016224Y007019D01*
X016243Y006969D01*
X016260Y006918D01*
X016272Y006866D01*
X016282Y006812D01*
X016287Y006759D01*
X016289Y006705D01*
X015184Y006310D02*
X015157Y006393D01*
X015133Y006477D01*
X015113Y006562D01*
X015098Y006648D01*
X015086Y006735D01*
X015079Y006822D01*
X015076Y006909D01*
X015077Y006997D01*
X015082Y007084D01*
X015092Y007171D01*
X015105Y007257D01*
X016289Y006705D02*
X016287Y006651D01*
X016282Y006598D01*
X016272Y006544D01*
X016260Y006492D01*
X016243Y006441D01*
X016224Y006391D01*
X016201Y006342D01*
X016174Y006295D01*
X016145Y006250D01*
X016112Y006207D01*
X016077Y006166D01*
X016039Y006128D01*
X015998Y006093D01*
X015955Y006060D01*
X015910Y006031D01*
X015863Y006004D01*
X015814Y005981D01*
X015764Y005962D01*
X015713Y005945D01*
X015661Y005933D01*
X015607Y005923D01*
X015554Y005918D01*
X015500Y005916D01*
X015579Y005284D02*
X015580Y005327D01*
X015577Y005370D01*
X015570Y005413D01*
X015560Y005454D01*
X015546Y005495D01*
X015529Y005535D01*
X015508Y005572D01*
X015484Y005608D01*
X015457Y005641D01*
X015428Y005672D01*
X015395Y005701D01*
X015360Y005726D01*
X015324Y005748D01*
X015285Y005767D01*
X015245Y005783D01*
X015204Y005795D01*
X015161Y005803D01*
X015119Y005808D01*
X015076Y005809D01*
X015033Y005806D01*
X014990Y005799D01*
X014949Y005789D01*
X014908Y005775D01*
X014868Y005758D01*
X017079Y006468D02*
X017034Y006487D01*
X016992Y006510D01*
X016951Y006536D01*
X016913Y006565D01*
X016877Y006598D01*
X016844Y006633D01*
X016813Y006671D01*
X016786Y006711D01*
X016762Y006753D01*
X016742Y006796D01*
X016725Y006842D01*
X016712Y006888D01*
X016703Y006936D01*
X016698Y006984D01*
X016696Y007032D01*
X016698Y007080D01*
X016705Y007128D01*
X016715Y007176D01*
X016729Y007222D01*
X016746Y007267D01*
X016767Y007310D01*
X016792Y007352D01*
X016819Y007391D01*
X016850Y007429D01*
X016884Y007463D01*
X016920Y007495D01*
X016921Y007494D02*
X016883Y007473D01*
X016844Y007455D01*
X016803Y007441D01*
X016761Y007430D01*
X016718Y007424D01*
X016674Y007421D01*
X016631Y007422D01*
X016588Y007427D01*
X016546Y007436D01*
X016504Y007449D01*
X016464Y007466D01*
X016426Y007486D01*
X016389Y007509D01*
X016355Y007536D01*
X016323Y007565D01*
X016295Y007598D01*
X016269Y007632D01*
X016246Y007669D01*
X016227Y007708D01*
X016212Y007749D01*
X016200Y007790D01*
X016192Y007833D01*
X016188Y007876D01*
X016187Y007919D01*
X016191Y007963D01*
X016199Y008005D01*
X016210Y008047D01*
X016211Y008047D02*
X016195Y008011D01*
X016177Y007976D01*
X016155Y007943D01*
X016130Y007912D01*
X016103Y007884D01*
X016073Y007859D01*
X016040Y007836D01*
X016006Y007817D01*
X015970Y007800D01*
X015933Y007788D01*
X015894Y007778D01*
X015855Y007773D01*
X015816Y007771D01*
X015777Y007773D01*
X015738Y007778D01*
X015699Y007788D01*
X015662Y007800D01*
X015626Y007817D01*
X015592Y007836D01*
X015559Y007859D01*
X015529Y007884D01*
X015502Y007912D01*
X015477Y007943D01*
X015455Y007976D01*
X015437Y008011D01*
X015421Y008047D01*
X015422Y008047D02*
X015424Y008009D01*
X015423Y007971D01*
X015417Y007933D01*
X015408Y007896D01*
X015395Y007859D01*
X015379Y007825D01*
X015359Y007792D01*
X015336Y007762D01*
X015309Y007734D01*
X015281Y007709D01*
X015249Y007687D01*
X015216Y007668D01*
X015181Y007652D01*
X015145Y007641D01*
X015107Y007633D01*
X015069Y007629D01*
X015031Y007628D01*
X014993Y007632D01*
X014955Y007640D01*
X014919Y007651D01*
X014884Y007666D01*
X014850Y007684D01*
X014819Y007706D01*
X014789Y007731D01*
D12*
X015290Y007100D02*
X015292Y007131D01*
X015298Y007161D01*
X015308Y007191D01*
X015321Y007219D01*
X015338Y007245D01*
X015358Y007268D01*
X015381Y007289D01*
X015407Y007307D01*
X015434Y007321D01*
X015463Y007332D01*
X015493Y007339D01*
X015524Y007342D01*
X015555Y007341D01*
X015586Y007336D01*
X015616Y007327D01*
X015644Y007315D01*
X015670Y007298D01*
X015695Y007279D01*
X015716Y007257D01*
X015735Y007232D01*
X015750Y007205D01*
X015762Y007176D01*
X015770Y007146D01*
X015774Y007116D01*
X015774Y007084D01*
X015770Y007054D01*
X015762Y007024D01*
X015750Y006995D01*
X015735Y006968D01*
X015716Y006943D01*
X015695Y006921D01*
X015670Y006902D01*
X015644Y006885D01*
X015616Y006873D01*
X015586Y006864D01*
X015555Y006859D01*
X015524Y006858D01*
X015493Y006861D01*
X015463Y006868D01*
X015434Y006879D01*
X015407Y006893D01*
X015381Y006911D01*
X015358Y006932D01*
X015338Y006955D01*
X015321Y006981D01*
X015308Y007009D01*
X015298Y007039D01*
X015292Y007069D01*
X015290Y007100D01*
X015263Y006547D02*
X015265Y006582D01*
X015271Y006617D01*
X015281Y006651D01*
X015294Y006684D01*
X015311Y006715D01*
X015332Y006744D01*
X015356Y006770D01*
X015382Y006794D01*
X015411Y006815D01*
X015442Y006832D01*
X015475Y006845D01*
X015509Y006855D01*
X015544Y006861D01*
X015579Y006863D01*
X015614Y006861D01*
X015649Y006855D01*
X015683Y006845D01*
X015716Y006832D01*
X015747Y006815D01*
X015776Y006794D01*
X015802Y006770D01*
X015826Y006744D01*
X015847Y006715D01*
X015864Y006684D01*
X015877Y006651D01*
X015887Y006617D01*
X015893Y006582D01*
X015895Y006547D01*
X015893Y006512D01*
X015887Y006477D01*
X015877Y006443D01*
X015864Y006410D01*
X015847Y006379D01*
X015826Y006350D01*
X015802Y006324D01*
X015776Y006300D01*
X015747Y006279D01*
X015716Y006262D01*
X015683Y006249D01*
X015649Y006239D01*
X015614Y006233D01*
X015579Y006231D01*
X015544Y006233D01*
X015509Y006239D01*
X015475Y006249D01*
X015442Y006262D01*
X015411Y006279D01*
X015382Y006300D01*
X015356Y006324D01*
X015332Y006350D01*
X015311Y006379D01*
X015294Y006410D01*
X015281Y006443D01*
X015271Y006477D01*
X015265Y006512D01*
X015263Y006547D01*
D13*
X015697Y006468D03*
D14*
X016526Y006705D03*
D15*
X015611Y007021D03*
M02*
