G75*
G70*
%OFA0B0*%
%FSLAX24Y24*%
%IPPOS*%
%LPD*%
%AMOC8*
5,1,8,0,0,1.08239X$1,22.5*
%
%ADD10R,0.0316X0.0946*%
%ADD11R,0.0474X0.0513*%
%ADD12C,0.0560*%
%ADD13R,0.0513X0.0474*%
%ADD14R,0.0671X0.0671*%
%ADD15R,0.0680X0.0680*%
%ADD16OC8,0.0680*%
%ADD17C,0.0789*%
%ADD18R,0.0237X0.0828*%
%ADD19R,0.0828X0.0237*%
%ADD20R,0.0390X0.0430*%
D10*
X004400Y004081D03*
X004900Y004081D03*
X005400Y004081D03*
X005900Y004081D03*
X005900Y006129D03*
X005400Y006129D03*
X004900Y006129D03*
X004400Y006129D03*
D11*
X003485Y006105D03*
X002815Y006105D03*
X002815Y005305D03*
X003485Y005305D03*
X003485Y004505D03*
X002815Y004505D03*
X006350Y004740D03*
X006350Y004070D03*
X005680Y007074D03*
X005010Y007074D03*
X005010Y007682D03*
X005680Y007682D03*
X012941Y005283D03*
X012941Y004614D03*
D12*
X014320Y003955D03*
X014320Y005855D03*
D13*
X017450Y006270D03*
X018070Y006270D03*
X018070Y006940D03*
X017450Y006940D03*
X009933Y007979D03*
X009264Y007979D03*
X003485Y006905D03*
X002815Y006905D03*
X009500Y001877D03*
X010170Y001877D03*
D14*
X018063Y004216D03*
X018063Y005594D03*
D15*
X002950Y008905D03*
X000950Y003405D03*
X001950Y002405D03*
X002950Y000905D03*
D16*
X000950Y000905D03*
X001950Y000905D03*
X003950Y000905D03*
X004950Y000905D03*
X005950Y000905D03*
X006950Y000905D03*
X007950Y000905D03*
X008950Y000905D03*
X009950Y000905D03*
X010950Y000905D03*
X011950Y000905D03*
X012950Y000905D03*
X013950Y000905D03*
X014950Y000905D03*
X015950Y000905D03*
X016950Y000905D03*
X017950Y000905D03*
X017950Y008905D03*
X016950Y008905D03*
X015950Y008905D03*
X014950Y008905D03*
X013950Y008905D03*
X012950Y008905D03*
X011950Y008905D03*
X010950Y008905D03*
X009950Y008905D03*
X008950Y008905D03*
X007950Y008905D03*
X006950Y008905D03*
X005950Y008905D03*
X004950Y008905D03*
X003950Y008905D03*
X001950Y008905D03*
X000950Y008905D03*
X001950Y007405D03*
X001950Y006405D03*
X000950Y006405D03*
X000950Y005405D03*
X001950Y005405D03*
X001950Y004405D03*
X000950Y004405D03*
X001950Y003405D03*
D17*
X016250Y003724D03*
X016250Y006086D03*
D18*
X011320Y007144D03*
X011005Y007144D03*
X010690Y007144D03*
X010375Y007144D03*
X010060Y007144D03*
X009745Y007144D03*
X009430Y007144D03*
X009115Y007144D03*
X008800Y007144D03*
X008485Y007144D03*
X008170Y007144D03*
X008170Y002656D03*
X008485Y002656D03*
X008800Y002656D03*
X009115Y002656D03*
X009430Y002656D03*
X009745Y002656D03*
X010060Y002656D03*
X010375Y002656D03*
X010690Y002656D03*
X011005Y002656D03*
X011320Y002656D03*
D19*
X011989Y003325D03*
X011989Y003640D03*
X011989Y003955D03*
X011989Y004270D03*
X011989Y004585D03*
X011989Y004900D03*
X011989Y005215D03*
X011989Y005530D03*
X011989Y005845D03*
X011989Y006160D03*
X011989Y006475D03*
X007501Y006475D03*
X007501Y006160D03*
X007501Y005845D03*
X007501Y005530D03*
X007501Y005215D03*
X007501Y004900D03*
X007501Y004585D03*
X007501Y004270D03*
X007501Y003955D03*
X007501Y003640D03*
X007501Y003325D03*
D20*
X003740Y003705D03*
X002980Y003705D03*
X003360Y002905D03*
M02*
