G75*
G70*
%OFA0B0*%
%FSLAX24Y24*%
%IPPOS*%
%LPD*%
%AMOC8*
5,1,8,0,0,1.08239X$1,22.5*
%
%ADD10R,0.0316X0.0946*%
%ADD11R,0.0474X0.0513*%
%ADD12C,0.0560*%
%ADD13R,0.0513X0.0474*%
%ADD14R,0.0671X0.0671*%
%ADD15R,0.0680X0.0680*%
%ADD16OC8,0.0680*%
%ADD17C,0.0789*%
%ADD18R,0.0237X0.0828*%
%ADD19R,0.0828X0.0237*%
%ADD20R,0.0480X0.0580*%
D10*
X004390Y004081D03*
X004890Y004081D03*
X005390Y004081D03*
X005890Y004081D03*
X005890Y006129D03*
X005390Y006129D03*
X004890Y006129D03*
X004390Y006129D03*
D11*
X003475Y006105D03*
X002805Y006105D03*
X002805Y005305D03*
X003475Y005305D03*
X003475Y004505D03*
X002805Y004505D03*
X006340Y004740D03*
X006340Y004070D03*
X005276Y007074D03*
X004607Y007074D03*
X004607Y007682D03*
X005276Y007682D03*
X012931Y005283D03*
X012931Y004614D03*
D12*
X014310Y003955D03*
X014310Y005855D03*
D13*
X017440Y006270D03*
X018060Y006270D03*
X018060Y006940D03*
X017440Y006940D03*
X009923Y007979D03*
X009254Y007979D03*
X003475Y006905D03*
X002805Y006905D03*
X009490Y001877D03*
X010160Y001877D03*
D14*
X018053Y004216D03*
X018053Y005594D03*
D15*
X002940Y008905D03*
X000940Y003405D03*
X001940Y002405D03*
X002940Y000905D03*
D16*
X000940Y000905D03*
X001940Y000905D03*
X003940Y000905D03*
X004940Y000905D03*
X005940Y000905D03*
X006940Y000905D03*
X007940Y000905D03*
X008940Y000905D03*
X009940Y000905D03*
X010940Y000905D03*
X011940Y000905D03*
X012940Y000905D03*
X013940Y000905D03*
X014940Y000905D03*
X015940Y000905D03*
X016940Y000905D03*
X017940Y000905D03*
X017940Y008905D03*
X016940Y008905D03*
X015940Y008905D03*
X014940Y008905D03*
X013940Y008905D03*
X012940Y008905D03*
X011940Y008905D03*
X010940Y008905D03*
X009940Y008905D03*
X008940Y008905D03*
X007940Y008905D03*
X006940Y008905D03*
X005940Y008905D03*
X004940Y008905D03*
X003940Y008905D03*
X001940Y008905D03*
X000940Y008905D03*
X001940Y007405D03*
X001940Y006405D03*
X000940Y006405D03*
X000940Y005405D03*
X001940Y005405D03*
X001940Y004405D03*
X000940Y004405D03*
X001940Y003405D03*
D17*
X016240Y003527D03*
X016240Y006283D03*
D18*
X011310Y007144D03*
X010995Y007144D03*
X010680Y007144D03*
X010365Y007144D03*
X010050Y007144D03*
X009735Y007144D03*
X009420Y007144D03*
X009105Y007144D03*
X008790Y007144D03*
X008475Y007144D03*
X008160Y007144D03*
X008160Y002656D03*
X008475Y002656D03*
X008790Y002656D03*
X009105Y002656D03*
X009420Y002656D03*
X009735Y002656D03*
X010050Y002656D03*
X010365Y002656D03*
X010680Y002656D03*
X010995Y002656D03*
X011310Y002656D03*
D19*
X011979Y003325D03*
X011979Y003640D03*
X011979Y003955D03*
X011979Y004270D03*
X011979Y004585D03*
X011979Y004900D03*
X011979Y005215D03*
X011979Y005530D03*
X011979Y005845D03*
X011979Y006160D03*
X011979Y006475D03*
X007491Y006475D03*
X007491Y006160D03*
X007491Y005845D03*
X007491Y005530D03*
X007491Y005215D03*
X007491Y004900D03*
X007491Y004585D03*
X007491Y004270D03*
X007491Y003955D03*
X007491Y003640D03*
X007491Y003325D03*
D20*
X003533Y003705D03*
X002773Y003705D03*
X003153Y002905D03*
M02*
