G75*
G70*
%OFA0B0*%
%FSLAX24Y24*%
%IPPOS*%
%LPD*%
%AMOC8*
5,1,8,0,0,1.08239X$1,22.5*
%
%ADD10C,0.0560*%
%ADD11R,0.0680X0.0680*%
%ADD12OC8,0.0680*%
%ADD13R,0.0789X0.0710*%
%ADD14C,0.0789*%
%ADD15R,0.0960X0.0560*%
%ADD16R,0.0946X0.1497*%
D10*
X017870Y003955D03*
X017870Y005855D03*
D11*
X006500Y008905D03*
X004500Y003405D03*
X005500Y002405D03*
X006500Y000905D03*
D12*
X004500Y000905D03*
X005500Y000905D03*
X007500Y000905D03*
X008500Y000905D03*
X009500Y000905D03*
X010500Y000905D03*
X011500Y000905D03*
X012500Y000905D03*
X013500Y000905D03*
X014500Y000905D03*
X015500Y000905D03*
X016500Y000905D03*
X017500Y000905D03*
X018500Y000905D03*
X019500Y000905D03*
X020500Y000905D03*
X021500Y000905D03*
X005500Y003405D03*
X005500Y004405D03*
X004500Y004405D03*
X004500Y005405D03*
X005500Y005405D03*
X005500Y006405D03*
X004500Y006405D03*
X005500Y007405D03*
X005500Y008905D03*
X004500Y008905D03*
X007500Y008905D03*
X008500Y008905D03*
X009500Y008905D03*
X010500Y008905D03*
X011500Y008905D03*
X012500Y008905D03*
X013500Y008905D03*
X014500Y008905D03*
X015500Y008905D03*
X016500Y008905D03*
X017500Y008905D03*
X018500Y008905D03*
X019500Y008905D03*
X020500Y008905D03*
X021500Y008905D03*
D13*
X012030Y007556D03*
X011150Y007556D03*
X011150Y006454D03*
X012030Y006454D03*
D14*
X019800Y006086D03*
X019800Y003724D03*
D15*
X011280Y003695D03*
X011280Y004605D03*
X011280Y005515D03*
D16*
X013720Y004605D03*
M02*
