G75*
G70*
%OFA0B0*%
%FSLAX24Y24*%
%IPPOS*%
%LPD*%
%AMOC8*
5,1,8,0,0,1.08239X$1,22.5*
%
%ADD10C,0.0560*%
%ADD11R,0.0680X0.0680*%
%ADD12OC8,0.0680*%
%ADD13R,0.0789X0.0710*%
%ADD14C,0.0789*%
%ADD15R,0.0960X0.0560*%
%ADD16R,0.0946X0.1497*%
%ADD17R,0.0438X0.0560*%
%ADD18R,0.0330X0.0580*%
D10*
X014320Y003990D03*
X014320Y005890D03*
D11*
X002950Y008940D03*
X000950Y003440D03*
X001950Y002440D03*
X002950Y000940D03*
D12*
X000950Y000940D03*
X001950Y000940D03*
X003950Y000940D03*
X004950Y000940D03*
X005950Y000940D03*
X006950Y000940D03*
X007950Y000940D03*
X008950Y000940D03*
X009950Y000940D03*
X010950Y000940D03*
X011950Y000940D03*
X012950Y000940D03*
X013950Y000940D03*
X014950Y000940D03*
X015950Y000940D03*
X016950Y000940D03*
X017950Y000940D03*
X017950Y008940D03*
X016950Y008940D03*
X015950Y008940D03*
X014950Y008940D03*
X013950Y008940D03*
X012950Y008940D03*
X011950Y008940D03*
X010950Y008940D03*
X009950Y008940D03*
X008950Y008940D03*
X007950Y008940D03*
X006950Y008940D03*
X005950Y008940D03*
X004950Y008940D03*
X003950Y008940D03*
X001950Y008940D03*
X000950Y008940D03*
X001950Y007440D03*
X001950Y006440D03*
X000950Y006440D03*
X000950Y005440D03*
X001950Y005440D03*
X001950Y004440D03*
X000950Y004440D03*
X001950Y003440D03*
D13*
X007000Y006689D03*
X008080Y006689D03*
X008080Y007791D03*
X007000Y007791D03*
D14*
X016250Y006121D03*
X016250Y003759D03*
D15*
X007730Y003730D03*
X007730Y004640D03*
X007730Y005550D03*
D16*
X010170Y004640D03*
D17*
X005690Y004840D03*
X004410Y004840D03*
X004410Y003740D03*
X005690Y003740D03*
D18*
X004627Y002690D03*
X004273Y002690D03*
X014840Y004740D03*
X015190Y004740D03*
X015540Y004740D03*
M02*
