G75*
G70*
%OFA0B0*%
%FSLAX24Y24*%
%IPPOS*%
%LPD*%
%AMOC8*
5,1,8,0,0,1.08239X$1,22.5*
%
%ADD10C,0.0080*%
D10*
X001477Y000500D02*
X001584Y000500D01*
X001739Y000500D02*
X001952Y000500D01*
X002107Y000554D02*
X002107Y000607D01*
X002160Y000660D01*
X002267Y000660D01*
X002320Y000607D01*
X002107Y000554D02*
X002320Y000340D01*
X002107Y000340D01*
X001952Y000340D02*
X001952Y000660D01*
X001739Y000660D02*
X001739Y000340D01*
X001530Y000340D02*
X001530Y000607D01*
X001477Y000660D01*
X001990Y000885D02*
X001990Y001099D01*
X001990Y000992D02*
X002310Y000992D01*
X002204Y000885D01*
X002689Y000660D02*
X002689Y000340D01*
X002475Y000340D01*
X002844Y000340D02*
X003004Y000340D01*
X003057Y000393D01*
X003057Y000500D01*
X003004Y000554D01*
X002844Y000554D01*
X002844Y000233D01*
X003212Y000660D02*
X003425Y000340D01*
X003580Y000340D02*
X003740Y000340D01*
X003794Y000393D01*
X003794Y000554D01*
X003986Y000660D02*
X003986Y000340D01*
X004039Y000340D02*
X003932Y000340D01*
X004170Y000340D02*
X004223Y000340D01*
X004223Y000393D01*
X004170Y000393D01*
X004170Y000340D01*
X004378Y000393D02*
X004378Y000554D01*
X004592Y000554D02*
X004592Y000393D01*
X004538Y000340D01*
X004485Y000393D01*
X004432Y000340D01*
X004378Y000393D01*
X004746Y000393D02*
X004800Y000340D01*
X004907Y000340D01*
X004960Y000393D01*
X004960Y000500D01*
X004907Y000554D01*
X004800Y000554D01*
X004746Y000500D01*
X004746Y000393D01*
X004039Y000660D02*
X003986Y000660D01*
X003580Y000554D02*
X003580Y000287D01*
X003634Y000233D01*
X003687Y000233D01*
X004690Y000890D02*
X004690Y001104D01*
X004690Y000997D02*
X005010Y000997D01*
X004904Y000890D01*
X004957Y001258D02*
X004743Y001258D01*
X004957Y001472D01*
X004743Y001472D01*
X004690Y001418D01*
X004690Y001312D01*
X004743Y001258D01*
X004957Y001258D02*
X005010Y001312D01*
X005010Y001418D01*
X004957Y001472D01*
X005010Y001627D02*
X004690Y001627D01*
X004797Y001627D02*
X005010Y001840D01*
X004850Y001680D02*
X004690Y001840D01*
X004607Y002240D02*
X004500Y002240D01*
X004607Y002240D02*
X004660Y002293D01*
X004660Y002400D01*
X004607Y002454D01*
X004500Y002454D01*
X004446Y002400D01*
X004446Y002347D01*
X004660Y002347D01*
X004292Y002347D02*
X004078Y002347D01*
X004078Y002400D01*
X004132Y002454D01*
X004238Y002454D01*
X004292Y002400D01*
X004292Y002293D01*
X004238Y002240D01*
X004132Y002240D01*
X003923Y002240D02*
X003710Y002240D01*
X003555Y002293D02*
X003555Y002400D01*
X003502Y002454D01*
X003395Y002454D01*
X003342Y002400D01*
X003342Y002347D01*
X003555Y002347D01*
X003555Y002293D02*
X003502Y002240D01*
X003395Y002240D01*
X003187Y002293D02*
X003187Y002400D01*
X003133Y002454D01*
X003027Y002454D01*
X002973Y002400D01*
X002973Y002347D01*
X003187Y002347D01*
X003187Y002293D02*
X003133Y002240D01*
X003027Y002240D01*
X002818Y002240D02*
X002818Y002560D01*
X002658Y002560D01*
X002605Y002507D01*
X002605Y002400D01*
X002658Y002347D01*
X002818Y002347D01*
X002712Y002347D02*
X002605Y002240D01*
X002450Y002293D02*
X002397Y002240D01*
X002290Y002240D01*
X002237Y002293D01*
X002237Y002400D01*
X002343Y002400D01*
X002237Y002507D02*
X002290Y002560D01*
X002397Y002560D01*
X002450Y002507D01*
X002450Y002293D01*
X002082Y002240D02*
X001922Y002240D01*
X001868Y002293D01*
X001868Y002347D01*
X001922Y002400D01*
X002082Y002400D01*
X001922Y002400D02*
X001868Y002454D01*
X001868Y002507D01*
X001922Y002560D01*
X002082Y002560D01*
X002082Y002240D01*
X002150Y001835D02*
X002150Y001622D01*
X002310Y001782D01*
X001990Y001782D01*
X002043Y001467D02*
X001990Y001414D01*
X001990Y001307D01*
X002043Y001253D01*
X002257Y001467D01*
X002043Y001467D01*
X002257Y001467D02*
X002310Y001414D01*
X002310Y001307D01*
X002257Y001253D01*
X002043Y001253D01*
X003923Y002240D02*
X003923Y002293D01*
X003710Y002507D01*
X003710Y002560D01*
X003923Y002560D01*
M02*
