G75*
G70*
%OFA0B0*%
%FSLAX24Y24*%
%IPPOS*%
%LPD*%
%AMOC8*
5,1,8,0,0,1.08239X$1,22.5*
%
%ADD10C,0.0080*%
%ADD11R,0.1024X0.0118*%
%ADD12C,0.0137*%
%ADD13C,0.0091*%
%ADD14C,0.0114*%
%ADD15C,0.0100*%
D10*
X000600Y000350D02*
X000350Y000600D01*
X000350Y001100D01*
X000600Y001350D01*
X001100Y001350D01*
X001350Y001100D01*
X001600Y001350D01*
X002100Y001350D01*
X002350Y001100D01*
X002350Y000600D01*
X002100Y000350D01*
X001600Y000350D01*
X001350Y000600D01*
X001350Y001100D01*
X002350Y001100D02*
X002600Y001350D01*
X003100Y001350D01*
X003350Y001100D01*
X003600Y001350D01*
X004100Y001350D01*
X004350Y001100D01*
X004600Y001350D01*
X005100Y001350D01*
X005350Y001100D01*
X005350Y000600D01*
X005100Y000350D01*
X004600Y000350D01*
X004350Y000600D01*
X004350Y001100D01*
X003350Y001100D02*
X003350Y000600D01*
X003600Y000350D01*
X004100Y000350D01*
X004350Y000600D01*
X003350Y000600D02*
X003100Y000350D01*
X002600Y000350D01*
X002350Y000600D01*
X001350Y000600D02*
X001100Y000350D01*
X000600Y000350D01*
X005350Y000600D02*
X005600Y000350D01*
X006100Y000350D01*
X006350Y000600D01*
X006600Y000350D01*
X007100Y000350D01*
X007350Y000600D01*
X007600Y000350D01*
X008100Y000350D01*
X008350Y000600D01*
X008350Y001100D01*
X008100Y001350D01*
X007600Y001350D01*
X007350Y001100D01*
X007100Y001350D01*
X006600Y001350D01*
X006350Y001100D01*
X006100Y001350D01*
X005600Y001350D01*
X005350Y001100D01*
X006350Y001100D02*
X006350Y000600D01*
X007350Y000600D02*
X007350Y001100D01*
X008350Y001100D02*
X008600Y001350D01*
X009100Y001350D01*
X009350Y001100D01*
X009600Y001350D01*
X010100Y001350D01*
X010350Y001100D01*
X010350Y000600D01*
X010100Y000350D01*
X009600Y000350D01*
X009350Y000600D01*
X009350Y001100D01*
X009350Y000600D02*
X009100Y000350D01*
X008600Y000350D01*
X008350Y000600D01*
X011382Y001593D02*
X011413Y001607D01*
X011442Y001623D01*
X011469Y001643D01*
X011494Y001665D01*
X011516Y001691D01*
X011535Y001718D01*
X011552Y001748D01*
X011564Y001779D01*
X011574Y001811D01*
X011579Y001844D01*
X011581Y001878D01*
X011579Y001912D01*
X011574Y001945D01*
X011564Y001977D01*
X011552Y002008D01*
X011535Y002038D01*
X011516Y002065D01*
X011494Y002091D01*
X011469Y002113D01*
X011442Y002133D01*
X011413Y002149D01*
X011382Y002163D01*
X011417Y002153D01*
X011454Y002148D01*
X011490Y002146D01*
X011527Y002148D01*
X011563Y002154D01*
X011599Y002164D01*
X011633Y002178D01*
X011665Y002195D01*
X011696Y002215D01*
X011724Y002239D01*
X011749Y002265D01*
X011772Y002294D01*
X011791Y002326D01*
X011807Y002359D01*
X011820Y002393D01*
X011828Y002429D01*
X011833Y002465D01*
X011834Y002502D01*
X011831Y002539D01*
X011824Y002575D01*
X011813Y002610D01*
X011799Y002644D01*
X011781Y002676D01*
X011952Y001365D02*
X012020Y001355D01*
X012089Y001348D01*
X012158Y001344D01*
X012228Y001345D01*
X012297Y001349D01*
X012366Y001356D01*
X012434Y001367D01*
X012502Y001382D01*
X012569Y001400D01*
X012635Y001422D01*
X012521Y001251D01*
X012920Y001080D02*
X012920Y001650D01*
X012236Y001707D02*
X012238Y001737D01*
X012244Y001766D01*
X012253Y001794D01*
X012267Y001821D01*
X012283Y001846D01*
X012303Y001868D01*
X012325Y001888D01*
X012350Y001904D01*
X012377Y001918D01*
X012405Y001927D01*
X012434Y001933D01*
X012464Y001935D01*
X012494Y001933D01*
X012523Y001927D01*
X012551Y001918D01*
X012578Y001904D01*
X012603Y001888D01*
X012625Y001868D01*
X012645Y001846D01*
X012661Y001821D01*
X012675Y001794D01*
X012684Y001766D01*
X012690Y001737D01*
X012692Y001707D01*
X012690Y001677D01*
X012684Y001648D01*
X012675Y001620D01*
X012661Y001593D01*
X012645Y001568D01*
X012625Y001546D01*
X012603Y001526D01*
X012578Y001510D01*
X012551Y001496D01*
X012523Y001487D01*
X012494Y001481D01*
X012464Y001479D01*
X012434Y001481D01*
X012405Y001487D01*
X012377Y001496D01*
X012350Y001510D01*
X012325Y001526D01*
X012303Y001546D01*
X012283Y001568D01*
X012267Y001593D01*
X012253Y001620D01*
X012244Y001648D01*
X012238Y001677D01*
X012236Y001707D01*
X011780Y001650D02*
X011782Y001695D01*
X011787Y001739D01*
X011796Y001783D01*
X011808Y001826D01*
X011823Y001868D01*
X011842Y001909D01*
X011864Y001948D01*
X011889Y001985D01*
X011917Y002020D01*
X011947Y002053D01*
X011980Y002083D01*
X012015Y002111D01*
X012052Y002136D01*
X012091Y002158D01*
X012132Y002177D01*
X012174Y002192D01*
X012217Y002204D01*
X012261Y002213D01*
X012305Y002218D01*
X012350Y002220D01*
X012350Y002277D01*
X012521Y001252D02*
X012465Y001238D01*
X012408Y001228D01*
X012351Y001222D01*
X012294Y001218D01*
X012236Y001218D01*
X012179Y001222D01*
X012122Y001228D01*
X012065Y001238D01*
X012009Y001252D01*
X012008Y001251D02*
X011951Y001365D01*
X011610Y001138D02*
X011630Y001162D01*
X011647Y001188D01*
X011662Y001216D01*
X011672Y001246D01*
X011680Y001276D01*
X011684Y001308D01*
X011684Y001339D01*
X011680Y001371D01*
X011673Y001401D01*
X011662Y001431D01*
X011648Y001459D01*
X011631Y001485D01*
X011610Y001510D01*
X011588Y001531D01*
X011562Y001550D01*
X011535Y001566D01*
X011506Y001578D01*
X011476Y001588D01*
X011445Y001593D01*
X011413Y001595D01*
X011382Y001593D01*
X011780Y001650D02*
X011780Y001080D01*
X012920Y001080D01*
X013033Y001194D02*
X013018Y001228D01*
X013007Y001264D01*
X013000Y001301D01*
X012996Y001338D01*
X012997Y001375D01*
X013001Y001412D01*
X013009Y001448D01*
X013021Y001484D01*
X013037Y001517D01*
X013056Y001549D01*
X013078Y001579D01*
X013103Y001607D01*
X013131Y001631D01*
X013162Y001653D01*
X013194Y001671D01*
X013228Y001686D01*
X013264Y001697D01*
X013301Y001704D01*
X013338Y001708D01*
X013375Y001707D01*
X013790Y001890D02*
X013790Y002010D01*
X013830Y002050D01*
X013910Y002050D01*
X013950Y002010D01*
X013950Y001890D01*
X014030Y001890D02*
X013790Y001890D01*
X013375Y001707D02*
X013337Y001716D01*
X013301Y001729D01*
X013265Y001746D01*
X013232Y001766D01*
X013201Y001789D01*
X013172Y001815D01*
X013145Y001844D01*
X013122Y001875D01*
X013102Y001909D01*
X013085Y001944D01*
X013072Y001980D01*
X013062Y002018D01*
X013056Y002057D01*
X013054Y002096D01*
X013056Y002135D01*
X013061Y002173D01*
X013070Y002211D01*
X013083Y002248D01*
X013100Y002283D01*
X013119Y002317D01*
X013142Y002348D01*
X013168Y002377D01*
X013197Y002404D01*
X013228Y002427D01*
X013261Y002448D01*
X013790Y002559D02*
X013830Y002519D01*
X013990Y002519D01*
X013950Y002479D02*
X013950Y002559D01*
X013910Y002676D02*
X013910Y002836D01*
X013950Y002970D02*
X013950Y003050D01*
X013990Y003010D02*
X013830Y003010D01*
X013790Y003050D01*
X013790Y003167D02*
X014030Y003167D01*
X013950Y003207D02*
X013950Y003287D01*
X013910Y003327D01*
X013790Y003327D01*
X013830Y003461D02*
X013790Y003502D01*
X013790Y003582D01*
X013830Y003622D01*
X013910Y003622D01*
X013950Y003582D01*
X013950Y003502D01*
X013910Y003461D01*
X013830Y003461D01*
X013950Y003207D02*
X013910Y003167D01*
X013262Y002447D02*
X013227Y002425D01*
X013191Y002406D01*
X013153Y002390D01*
X013114Y002378D01*
X013074Y002368D01*
X013033Y002363D01*
X012992Y002361D01*
X012951Y002363D01*
X012910Y002368D01*
X012870Y002377D01*
X012831Y002389D01*
X012793Y002404D01*
X012756Y002423D01*
X012721Y002445D01*
X012689Y002470D01*
X012658Y002498D01*
X012630Y002528D01*
X012605Y002560D01*
X012583Y002595D01*
X012564Y002631D01*
X012548Y002669D01*
X012536Y002708D01*
X012526Y002748D01*
X012521Y002789D01*
X012522Y002789D02*
X012506Y002753D01*
X012486Y002719D01*
X012464Y002686D01*
X012439Y002656D01*
X012411Y002628D01*
X012381Y002602D01*
X012349Y002580D01*
X012315Y002560D01*
X012279Y002544D01*
X012242Y002531D01*
X012203Y002521D01*
X012164Y002515D01*
X012125Y002513D01*
X012086Y002514D01*
X012046Y002519D01*
X012008Y002527D01*
X011970Y002539D01*
X011934Y002554D01*
X011899Y002572D01*
X011866Y002594D01*
X011835Y002618D01*
X011806Y002645D01*
X011780Y002675D01*
X013790Y002305D02*
X013790Y002225D01*
X013830Y002185D01*
X013910Y002185D01*
X013950Y002225D01*
X013950Y002305D01*
X013910Y002345D01*
X013830Y002345D01*
X013790Y002305D01*
X012920Y001650D02*
X012918Y001695D01*
X012913Y001739D01*
X012904Y001783D01*
X012892Y001826D01*
X012877Y001868D01*
X012858Y001909D01*
X012836Y001948D01*
X012811Y001985D01*
X012783Y002020D01*
X012753Y002053D01*
X012720Y002083D01*
X012685Y002111D01*
X012648Y002136D01*
X012609Y002158D01*
X012568Y002177D01*
X012526Y002192D01*
X012483Y002204D01*
X012439Y002213D01*
X012395Y002218D01*
X012350Y002220D01*
X011891Y001673D02*
X011893Y001699D01*
X011899Y001724D01*
X011908Y001748D01*
X011921Y001771D01*
X011937Y001791D01*
X011957Y001809D01*
X011978Y001824D01*
X012001Y001835D01*
X012026Y001843D01*
X012052Y001847D01*
X012078Y001847D01*
X012104Y001843D01*
X012129Y001835D01*
X012152Y001824D01*
X012173Y001809D01*
X012193Y001791D01*
X012209Y001771D01*
X012222Y001748D01*
X012231Y001724D01*
X012237Y001699D01*
X012239Y001673D01*
X012237Y001647D01*
X012231Y001622D01*
X012222Y001598D01*
X012209Y001575D01*
X012193Y001555D01*
X012173Y001537D01*
X012152Y001522D01*
X012129Y001511D01*
X012104Y001503D01*
X012078Y001499D01*
X012052Y001499D01*
X012026Y001503D01*
X012001Y001511D01*
X011978Y001522D01*
X011957Y001537D01*
X011937Y001555D01*
X011921Y001575D01*
X011908Y001598D01*
X011899Y001622D01*
X011893Y001647D01*
X011891Y001673D01*
X013830Y003756D02*
X013790Y003796D01*
X013790Y003916D01*
X013950Y003916D01*
X013910Y004051D02*
X013830Y004051D01*
X013790Y004091D01*
X013790Y004211D01*
X013750Y004211D02*
X013950Y004211D01*
X013950Y004091D01*
X013910Y004051D01*
X013710Y004131D02*
X013710Y004171D01*
X013750Y004211D01*
X013790Y004345D02*
X014030Y004345D01*
X013950Y004385D02*
X013950Y004466D01*
X013910Y004506D01*
X013790Y004506D01*
X013830Y004680D02*
X013790Y004720D01*
X013830Y004680D02*
X013990Y004680D01*
X013950Y004640D02*
X013950Y004720D01*
X013910Y004837D02*
X013950Y004877D01*
X013950Y004997D01*
X013870Y004957D02*
X013870Y004877D01*
X013910Y004837D01*
X013790Y004837D02*
X013790Y004957D01*
X013830Y004997D01*
X013870Y004957D01*
X013830Y005131D02*
X013830Y005171D01*
X013790Y005171D01*
X013790Y005131D01*
X013830Y005131D01*
X013830Y005278D02*
X013790Y005319D01*
X013790Y005439D01*
X013950Y005439D02*
X013950Y005319D01*
X013910Y005278D01*
X013830Y005278D01*
X013830Y005573D02*
X013790Y005613D01*
X013790Y005693D01*
X013830Y005733D01*
X013910Y005733D01*
X013950Y005693D01*
X013950Y005613D01*
X013910Y005573D01*
X013830Y005573D01*
X013790Y005868D02*
X013950Y005868D01*
X013950Y005908D01*
X013910Y005948D01*
X013950Y005988D01*
X013910Y006028D01*
X013790Y006028D01*
X013790Y005948D02*
X013910Y005948D01*
X013950Y004385D02*
X013910Y004345D01*
X013950Y003756D02*
X013830Y003756D01*
X010350Y005600D02*
X010100Y005350D01*
X009600Y005350D01*
X009350Y005600D01*
X009350Y006100D01*
X009600Y006350D01*
X010100Y006350D01*
X010350Y006100D01*
X010350Y005600D01*
X009350Y005600D02*
X009100Y005350D01*
X008600Y005350D01*
X008350Y005600D01*
X008350Y006100D01*
X008100Y006350D01*
X007600Y006350D01*
X007350Y006100D01*
X007100Y006350D01*
X006600Y006350D01*
X006350Y006100D01*
X006100Y006350D01*
X005600Y006350D01*
X005350Y006100D01*
X005100Y006350D01*
X004600Y006350D01*
X004350Y006100D01*
X004100Y006350D01*
X003600Y006350D01*
X003350Y006100D01*
X003100Y006350D01*
X002600Y006350D01*
X002350Y006100D01*
X002100Y006350D01*
X001600Y006350D01*
X001350Y006100D01*
X001100Y006350D01*
X000600Y006350D01*
X000350Y006100D01*
X000350Y005600D01*
X000600Y005350D01*
X001100Y005350D01*
X001350Y005600D01*
X001600Y005350D01*
X002100Y005350D01*
X002350Y005600D01*
X002350Y006100D01*
X003350Y006100D02*
X003350Y005600D01*
X003600Y005350D01*
X004100Y005350D01*
X004350Y005600D01*
X004600Y005350D01*
X005100Y005350D01*
X005350Y005600D01*
X005350Y006100D01*
X004350Y006100D02*
X004350Y005600D01*
X003350Y005600D02*
X003100Y005350D01*
X002600Y005350D01*
X002350Y005600D01*
X001350Y005600D02*
X001350Y006100D01*
X005350Y005600D02*
X005600Y005350D01*
X006100Y005350D01*
X006350Y005600D01*
X006600Y005350D01*
X007100Y005350D01*
X007350Y005600D01*
X007600Y005350D01*
X008100Y005350D01*
X008350Y005600D01*
X007350Y005600D02*
X007350Y006100D01*
X006350Y006100D02*
X006350Y005600D01*
X008350Y006100D02*
X008600Y006350D01*
X009100Y006350D01*
X009350Y006100D01*
X005134Y004241D02*
X003166Y004241D01*
X003993Y003867D02*
X003993Y003650D01*
X003993Y003433D01*
X004091Y003414D02*
X004209Y003414D01*
X004209Y003886D01*
X004091Y003886D01*
X004091Y003414D01*
X004307Y003433D02*
X004307Y003650D01*
X004445Y003650D01*
X004307Y003650D02*
X004307Y003867D01*
X003993Y003650D02*
X003875Y003650D01*
X003166Y003059D02*
X005134Y003059D01*
X002281Y002720D02*
X002281Y003980D01*
X001219Y003980D02*
X001219Y002720D01*
D11*
X001750Y003527D03*
D12*
X012447Y001792D02*
X012449Y001808D01*
X012454Y001824D01*
X012463Y001838D01*
X012475Y001850D01*
X012489Y001859D01*
X012505Y001864D01*
X012521Y001866D01*
X012537Y001864D01*
X012553Y001859D01*
X012567Y001850D01*
X012579Y001838D01*
X012588Y001824D01*
X012593Y001808D01*
X012595Y001792D01*
X012593Y001776D01*
X012588Y001760D01*
X012579Y001746D01*
X012567Y001734D01*
X012553Y001725D01*
X012537Y001720D01*
X012521Y001718D01*
X012505Y001720D01*
X012489Y001725D01*
X012475Y001734D01*
X012463Y001746D01*
X012454Y001760D01*
X012449Y001776D01*
X012447Y001792D01*
D13*
X012076Y001730D02*
X012078Y001743D01*
X012083Y001755D01*
X012092Y001765D01*
X012103Y001772D01*
X012115Y001776D01*
X012129Y001776D01*
X012141Y001772D01*
X012152Y001765D01*
X012161Y001755D01*
X012166Y001743D01*
X012168Y001730D01*
X012166Y001717D01*
X012161Y001705D01*
X012152Y001695D01*
X012141Y001688D01*
X012129Y001684D01*
X012115Y001684D01*
X012103Y001688D01*
X012092Y001695D01*
X012083Y001705D01*
X012078Y001717D01*
X012076Y001730D01*
D14*
X012293Y002334D02*
X012295Y002349D01*
X012301Y002362D01*
X012310Y002374D01*
X012321Y002383D01*
X012335Y002389D01*
X012350Y002391D01*
X012365Y002389D01*
X012378Y002383D01*
X012390Y002374D01*
X012399Y002363D01*
X012405Y002349D01*
X012407Y002334D01*
X012405Y002319D01*
X012399Y002306D01*
X012390Y002294D01*
X012379Y002285D01*
X012365Y002279D01*
X012350Y002277D01*
X012335Y002279D01*
X012322Y002285D01*
X012310Y002294D01*
X012301Y002305D01*
X012295Y002319D01*
X012293Y002334D01*
D15*
X009594Y003159D02*
X009352Y003134D01*
X009326Y003053D01*
X009287Y002977D01*
X009441Y002788D01*
X009312Y002659D01*
X009123Y002813D01*
X009047Y002774D01*
X008940Y003033D01*
X008980Y003055D01*
X009016Y003084D01*
X009045Y003120D01*
X009067Y003160D01*
X009080Y003204D01*
X009084Y003250D01*
X009079Y003300D01*
X009063Y003348D01*
X009037Y003391D01*
X009002Y003428D01*
X008960Y003457D01*
X008914Y003476D01*
X008864Y003484D01*
X008813Y003481D01*
X008765Y003468D01*
X008720Y003445D01*
X008681Y003412D01*
X008650Y003372D01*
X008629Y003327D01*
X008617Y003278D01*
X008617Y003227D01*
X008627Y003178D01*
X008648Y003131D01*
X008678Y003091D01*
X008716Y003058D01*
X008760Y003033D01*
X008653Y002774D01*
X008577Y002813D01*
X008388Y002659D01*
X008259Y002788D01*
X008413Y002977D01*
X008374Y003053D01*
X008348Y003134D01*
X008106Y003159D01*
X008106Y003341D01*
X008348Y003366D01*
X008374Y003447D01*
X008413Y003523D01*
X008259Y003712D01*
X008388Y003841D01*
X008577Y003687D01*
X008653Y003726D01*
X008734Y003752D01*
X008759Y003994D01*
X008941Y003994D01*
X008966Y003752D01*
X009047Y003726D01*
X009123Y003687D01*
X009312Y003841D01*
X009441Y003712D01*
X009287Y003523D01*
X009326Y003447D01*
X009352Y003366D01*
X009594Y003341D01*
X009594Y003159D01*
X009594Y003204D02*
X009080Y003204D01*
X009033Y003105D02*
X009343Y003105D01*
X009303Y003007D02*
X008951Y003007D01*
X008992Y002908D02*
X009343Y002908D01*
X009424Y002810D02*
X009127Y002810D01*
X009117Y002810D02*
X009032Y002810D01*
X009248Y002711D02*
X009364Y002711D01*
X008749Y003007D02*
X008397Y003007D01*
X008357Y002908D02*
X008708Y002908D01*
X008668Y002810D02*
X008583Y002810D01*
X008573Y002810D02*
X008276Y002810D01*
X008336Y002711D02*
X008452Y002711D01*
X008357Y003105D02*
X008667Y003105D01*
X008622Y003204D02*
X008106Y003204D01*
X008106Y003302D02*
X008623Y003302D01*
X008672Y003401D02*
X008359Y003401D01*
X008400Y003499D02*
X009300Y003499D01*
X009348Y003598D02*
X008352Y003598D01*
X008272Y003696D02*
X008566Y003696D01*
X008594Y003696D02*
X009106Y003696D01*
X009134Y003696D02*
X009428Y003696D01*
X009358Y003795D02*
X009255Y003795D01*
X008962Y003795D02*
X008738Y003795D01*
X008748Y003893D02*
X008952Y003893D01*
X008942Y003992D02*
X008758Y003992D01*
X008445Y003795D02*
X008342Y003795D01*
X009028Y003401D02*
X009341Y003401D01*
X009594Y003302D02*
X009078Y003302D01*
M02*
