G75*
G70*
%OFA0B0*%
%FSLAX24Y24*%
%IPPOS*%
%LPD*%
%AMOC8*
5,1,8,0,0,1.08239X$1,22.5*
%
%ADD10R,0.0394X0.0433*%
%ADD11R,0.0433X0.0394*%
%ADD12C,0.0660*%
%ADD13C,0.0512*%
%ADD14C,0.0640*%
%ADD15R,0.0945X0.0630*%
%ADD16R,0.0787X0.0945*%
%ADD17C,0.0756*%
%ADD18C,0.0100*%
%ADD19C,0.0270*%
D10*
X000750Y003415D03*
X000750Y004085D03*
D11*
X003115Y002650D03*
X003785Y002650D03*
X004515Y002650D03*
X005185Y002650D03*
X006850Y002615D03*
X006850Y003285D03*
D12*
X011850Y003850D03*
X012850Y003850D03*
X012850Y004850D03*
X011850Y004850D03*
X011850Y005850D03*
X012850Y005850D03*
D13*
X009850Y004850D03*
X008850Y004850D03*
X007850Y004850D03*
X006850Y004850D03*
X005850Y004850D03*
X004850Y004850D03*
X003850Y004850D03*
X002850Y004850D03*
X001850Y004850D03*
X000850Y004850D03*
X000850Y001850D03*
X001850Y001850D03*
X002850Y001850D03*
X003850Y001850D03*
X004850Y001850D03*
X005850Y001850D03*
X006850Y001850D03*
X007850Y001850D03*
X008850Y001850D03*
X009850Y001850D03*
D14*
X009850Y000850D03*
X008850Y000850D03*
X007850Y000850D03*
X006850Y000850D03*
X005850Y000850D03*
X004850Y000850D03*
X003850Y000850D03*
X002850Y000850D03*
X001850Y000850D03*
X000850Y000850D03*
X000850Y005850D03*
X001850Y005850D03*
X002850Y005850D03*
X003850Y005850D03*
X004850Y005850D03*
X005850Y005850D03*
X006850Y005850D03*
X007850Y005850D03*
X008850Y005850D03*
X009850Y005850D03*
D15*
X001750Y003941D03*
X001750Y002759D03*
D16*
X003363Y003650D03*
X004937Y003650D03*
D17*
X010972Y001050D03*
X013728Y001050D03*
D18*
X000712Y000300D02*
X000300Y000712D01*
X000300Y005988D01*
X000712Y006400D01*
X013888Y006400D01*
X014300Y005988D01*
X014300Y000712D01*
X013888Y000300D01*
X000712Y000300D01*
X000665Y000347D02*
X013935Y000347D01*
X014033Y000446D02*
X010091Y000446D01*
X010096Y000448D02*
X010156Y000492D01*
X010208Y000544D01*
X010252Y000604D01*
X010286Y000670D01*
X010308Y000740D01*
X010318Y000800D01*
X009900Y000800D01*
X009900Y000900D01*
X010318Y000900D01*
X010308Y000960D01*
X010286Y001030D01*
X010252Y001096D01*
X010208Y001156D01*
X010156Y001208D01*
X010096Y001252D01*
X010030Y001286D01*
X009960Y001308D01*
X009900Y001318D01*
X009900Y000900D01*
X009800Y000900D01*
X009800Y001318D01*
X009740Y001308D01*
X009670Y001286D01*
X009604Y001252D01*
X009544Y001208D01*
X009492Y001156D01*
X009448Y001096D01*
X009414Y001030D01*
X009392Y000960D01*
X009382Y000900D01*
X009800Y000900D01*
X009800Y000800D01*
X009900Y000800D01*
X009900Y000382D01*
X009960Y000392D01*
X010030Y000414D01*
X010096Y000448D01*
X010209Y000544D02*
X010814Y000544D01*
X010867Y000522D02*
X011077Y000522D01*
X011271Y000602D01*
X011420Y000751D01*
X011500Y000945D01*
X011500Y001155D01*
X011420Y001349D01*
X011271Y001498D01*
X011172Y001539D01*
X011172Y002342D01*
X010898Y002615D01*
X011683Y003400D01*
X011755Y003370D01*
X011945Y003370D01*
X012122Y003443D01*
X012257Y003578D01*
X012330Y003755D01*
X012330Y003945D01*
X012257Y004122D01*
X012229Y004150D01*
X012433Y004150D01*
X012683Y004400D01*
X012755Y004370D01*
X012945Y004370D01*
X013122Y004443D01*
X013257Y004578D01*
X013330Y004755D01*
X013330Y004945D01*
X013257Y005122D01*
X013122Y005257D01*
X012945Y005330D01*
X012755Y005330D01*
X012578Y005257D01*
X012443Y005122D01*
X012370Y004945D01*
X012370Y004755D01*
X012400Y004683D01*
X012267Y004550D01*
X012229Y004550D01*
X012257Y004578D01*
X012330Y004755D01*
X012330Y004945D01*
X012257Y005122D01*
X012122Y005257D01*
X011945Y005330D01*
X011755Y005330D01*
X011578Y005257D01*
X011443Y005122D01*
X011370Y004945D01*
X011370Y004755D01*
X011443Y004578D01*
X011471Y004550D01*
X011067Y004550D01*
X010950Y004433D01*
X010767Y004250D01*
X010153Y004250D01*
X010111Y004292D01*
X010007Y004335D01*
X009893Y004335D01*
X009789Y004292D01*
X009708Y004211D01*
X009665Y004107D01*
X009665Y003993D01*
X009708Y003889D01*
X009789Y003808D01*
X009893Y003765D01*
X010007Y003765D01*
X010111Y003808D01*
X010153Y003850D01*
X010933Y003850D01*
X011233Y004150D01*
X011471Y004150D01*
X011443Y004122D01*
X011370Y003945D01*
X011370Y003755D01*
X011400Y003683D01*
X010533Y002815D01*
X007217Y002815D01*
X007217Y002874D01*
X007141Y002950D01*
X009947Y002950D01*
X009989Y002908D01*
X007183Y002908D01*
X007141Y002950D02*
X007141Y002950D01*
X006950Y003150D02*
X010150Y003150D01*
X010435Y003105D02*
X010822Y003105D01*
X010921Y003204D02*
X010435Y003204D01*
X010435Y003207D02*
X010392Y003311D01*
X010311Y003392D01*
X010207Y003435D01*
X010093Y003435D01*
X009989Y003392D01*
X009947Y003350D01*
X007217Y003350D01*
X007217Y003544D01*
X007129Y003631D01*
X006571Y003631D01*
X006483Y003544D01*
X006483Y003485D01*
X006398Y003485D01*
X006250Y003633D01*
X006250Y004133D01*
X006133Y004250D01*
X005936Y004446D01*
X006080Y004506D01*
X006194Y004620D01*
X006256Y004769D01*
X006256Y004931D01*
X006194Y005080D01*
X006080Y005194D01*
X005931Y005256D01*
X005769Y005256D01*
X005620Y005194D01*
X005506Y005080D01*
X005444Y004931D01*
X005444Y004769D01*
X005506Y004620D01*
X005576Y004550D01*
X005124Y004550D01*
X005194Y004620D01*
X005256Y004769D01*
X005256Y004931D01*
X005194Y005080D01*
X005080Y005194D01*
X004931Y005256D01*
X004769Y005256D01*
X004620Y005194D01*
X004506Y005080D01*
X004444Y004931D01*
X004444Y004769D01*
X004506Y004620D01*
X004576Y004550D01*
X004124Y004550D01*
X004194Y004620D01*
X004256Y004769D01*
X004256Y004931D01*
X004194Y005080D01*
X004080Y005194D01*
X003931Y005256D01*
X003769Y005256D01*
X003620Y005194D01*
X003506Y005080D01*
X003444Y004931D01*
X003444Y004769D01*
X003506Y004620D01*
X003576Y004550D01*
X003124Y004550D01*
X003194Y004620D01*
X003256Y004769D01*
X003256Y004931D01*
X003194Y005080D01*
X003080Y005194D01*
X002931Y005256D01*
X002769Y005256D01*
X002620Y005194D01*
X002506Y005080D01*
X002444Y004931D01*
X002444Y004769D01*
X002506Y004620D01*
X002576Y004550D01*
X002267Y004550D01*
X002150Y004433D01*
X002123Y004406D01*
X001577Y004406D01*
X001244Y004739D01*
X001256Y004769D01*
X001256Y004931D01*
X001194Y005080D01*
X001080Y005194D01*
X000931Y005256D01*
X000769Y005256D01*
X000620Y005194D01*
X000506Y005080D01*
X000444Y004931D01*
X000444Y004769D01*
X000506Y004620D01*
X000620Y004506D01*
X000752Y004451D01*
X000491Y004451D01*
X000403Y004363D01*
X000403Y003806D01*
X000459Y003750D01*
X000433Y003724D01*
X000413Y003690D01*
X000403Y003652D01*
X000403Y003464D01*
X000702Y003464D01*
X000702Y003367D01*
X000798Y003367D01*
X000798Y003049D01*
X000967Y003049D01*
X001005Y003059D01*
X001039Y003079D01*
X001067Y003107D01*
X001087Y003141D01*
X001097Y003179D01*
X001097Y003367D01*
X000798Y003367D01*
X000798Y003464D01*
X001097Y003464D01*
X001097Y003652D01*
X001087Y003690D01*
X001067Y003724D01*
X001041Y003750D01*
X001097Y003806D01*
X001097Y003885D01*
X001128Y003885D01*
X001128Y003563D01*
X001215Y003476D01*
X002285Y003476D01*
X002372Y003563D01*
X002372Y004090D01*
X002433Y004150D01*
X002819Y004150D01*
X002819Y003115D01*
X002907Y003028D01*
X003585Y003028D01*
X003585Y002997D01*
X003506Y002997D01*
X003450Y002941D01*
X003424Y002967D01*
X003390Y002987D01*
X003352Y002997D01*
X003164Y002997D01*
X003164Y002698D01*
X003067Y002698D01*
X003067Y002602D01*
X002749Y002602D01*
X002749Y002433D01*
X002759Y002395D01*
X002779Y002361D01*
X002807Y002333D01*
X002841Y002313D01*
X002879Y002303D01*
X003067Y002303D01*
X003067Y002602D01*
X003164Y002602D01*
X003164Y002303D01*
X003352Y002303D01*
X003390Y002313D01*
X003424Y002333D01*
X003450Y002359D01*
X003506Y002303D01*
X003650Y002303D01*
X003650Y002207D01*
X003620Y002194D01*
X003506Y002080D01*
X003444Y001931D01*
X003444Y001769D01*
X003506Y001620D01*
X003620Y001506D01*
X003769Y001444D01*
X003931Y001444D01*
X004080Y001506D01*
X004194Y001620D01*
X004256Y001769D01*
X004256Y001931D01*
X004194Y002080D01*
X004080Y002194D01*
X004050Y002207D01*
X004050Y002303D01*
X004063Y002303D01*
X004150Y002390D01*
X004237Y002303D01*
X004315Y002303D01*
X004315Y002102D01*
X004456Y001961D01*
X004444Y001931D01*
X004444Y001769D01*
X004506Y001620D01*
X004620Y001506D01*
X004769Y001444D01*
X004931Y001444D01*
X005080Y001506D01*
X005194Y001620D01*
X005256Y001769D01*
X005256Y001931D01*
X005194Y002080D01*
X005080Y002194D01*
X004931Y002256D01*
X004769Y002256D01*
X004739Y002244D01*
X004715Y002267D01*
X004715Y002303D01*
X004794Y002303D01*
X004850Y002359D01*
X004876Y002333D01*
X004910Y002313D01*
X004948Y002303D01*
X005136Y002303D01*
X005136Y002602D01*
X005233Y002602D01*
X005233Y002698D01*
X005551Y002698D01*
X005551Y002867D01*
X005541Y002905D01*
X005521Y002939D01*
X005493Y002967D01*
X005459Y002987D01*
X005421Y002997D01*
X005233Y002997D01*
X005233Y002698D01*
X005136Y002698D01*
X005136Y002997D01*
X004948Y002997D01*
X004910Y002987D01*
X004876Y002967D01*
X004850Y002941D01*
X004794Y002997D01*
X004715Y002997D01*
X004715Y003028D01*
X005393Y003028D01*
X005481Y003115D01*
X005481Y004150D01*
X005667Y004150D01*
X005850Y003967D01*
X005850Y003467D01*
X005967Y003350D01*
X006233Y003085D01*
X006483Y003085D01*
X006483Y003026D01*
X006559Y002950D01*
X006504Y002895D01*
X006407Y002935D01*
X006293Y002935D01*
X006189Y002892D01*
X006108Y002811D01*
X006065Y002707D01*
X006065Y002593D01*
X006108Y002489D01*
X006189Y002408D01*
X006293Y002365D01*
X006407Y002365D01*
X006483Y002397D01*
X006483Y002356D01*
X006571Y002269D01*
X007129Y002269D01*
X007217Y002356D01*
X007217Y002415D01*
X010533Y002415D01*
X010772Y002176D01*
X010772Y001539D01*
X010673Y001498D01*
X010524Y001349D01*
X010444Y001155D01*
X010444Y000945D01*
X010524Y000751D01*
X010673Y000602D01*
X010867Y000522D01*
X010633Y000643D02*
X010272Y000643D01*
X010309Y000741D02*
X010534Y000741D01*
X010488Y000840D02*
X009900Y000840D01*
X009900Y000741D02*
X009800Y000741D01*
X009800Y000800D02*
X009800Y000382D01*
X009740Y000392D01*
X009670Y000414D01*
X009604Y000448D01*
X009544Y000492D01*
X009492Y000544D01*
X009448Y000604D01*
X009414Y000670D01*
X009392Y000740D01*
X009382Y000800D01*
X009800Y000800D01*
X009800Y000840D02*
X009320Y000840D01*
X009320Y000757D02*
X009248Y000584D01*
X009116Y000452D01*
X008943Y000380D01*
X008757Y000380D01*
X008584Y000452D01*
X008452Y000584D01*
X008380Y000757D01*
X008380Y000943D01*
X008452Y001116D01*
X008584Y001248D01*
X008757Y001320D01*
X008943Y001320D01*
X009116Y001248D01*
X009248Y001116D01*
X009320Y000943D01*
X009320Y000757D01*
X009314Y000741D02*
X009391Y000741D01*
X009428Y000643D02*
X009273Y000643D01*
X009209Y000544D02*
X009491Y000544D01*
X009609Y000446D02*
X009102Y000446D01*
X008598Y000446D02*
X008102Y000446D01*
X008116Y000452D02*
X008248Y000584D01*
X008320Y000757D01*
X008320Y000943D01*
X008248Y001116D01*
X008116Y001248D01*
X007943Y001320D01*
X007757Y001320D01*
X007584Y001248D01*
X007452Y001116D01*
X007380Y000943D01*
X007380Y000757D01*
X007452Y000584D01*
X007584Y000452D01*
X007757Y000380D01*
X007943Y000380D01*
X008116Y000452D01*
X008209Y000544D02*
X008491Y000544D01*
X008427Y000643D02*
X008273Y000643D01*
X008314Y000741D02*
X008386Y000741D01*
X008380Y000840D02*
X008320Y000840D01*
X008320Y000938D02*
X008380Y000938D01*
X008419Y001037D02*
X008281Y001037D01*
X008230Y001135D02*
X008470Y001135D01*
X008569Y001234D02*
X008131Y001234D01*
X008080Y001506D02*
X007931Y001444D01*
X007769Y001444D01*
X007620Y001506D01*
X007506Y001620D01*
X007444Y001769D01*
X007444Y001931D01*
X007506Y002080D01*
X007620Y002194D01*
X007769Y002256D01*
X007931Y002256D01*
X008080Y002194D01*
X008194Y002080D01*
X008256Y001931D01*
X008256Y001769D01*
X008194Y001620D01*
X008080Y001506D01*
X008103Y001529D02*
X008597Y001529D01*
X008620Y001506D02*
X008769Y001444D01*
X008931Y001444D01*
X009080Y001506D01*
X009194Y001620D01*
X009256Y001769D01*
X009256Y001931D01*
X009194Y002080D01*
X009080Y002194D01*
X008931Y002256D01*
X008769Y002256D01*
X008620Y002194D01*
X008506Y002080D01*
X008444Y001931D01*
X008444Y001769D01*
X008506Y001620D01*
X008620Y001506D01*
X008503Y001628D02*
X008197Y001628D01*
X008238Y001726D02*
X008462Y001726D01*
X008444Y001825D02*
X008256Y001825D01*
X008256Y001923D02*
X008444Y001923D01*
X008482Y002022D02*
X008218Y002022D01*
X008154Y002120D02*
X008546Y002120D01*
X008679Y002219D02*
X008021Y002219D01*
X007679Y002219D02*
X007021Y002219D01*
X007080Y002194D02*
X006931Y002256D01*
X006769Y002256D01*
X006620Y002194D01*
X006506Y002080D01*
X006444Y001931D01*
X006444Y001769D01*
X006506Y001620D01*
X006620Y001506D01*
X006769Y001444D01*
X006931Y001444D01*
X007080Y001506D01*
X007194Y001620D01*
X007256Y001769D01*
X007256Y001931D01*
X007194Y002080D01*
X007080Y002194D01*
X007154Y002120D02*
X007546Y002120D01*
X007482Y002022D02*
X007218Y002022D01*
X007256Y001923D02*
X007444Y001923D01*
X007444Y001825D02*
X007256Y001825D01*
X007238Y001726D02*
X007462Y001726D01*
X007503Y001628D02*
X007197Y001628D01*
X007103Y001529D02*
X007597Y001529D01*
X007569Y001234D02*
X007131Y001234D01*
X007116Y001248D02*
X006943Y001320D01*
X006757Y001320D01*
X006584Y001248D01*
X006452Y001116D01*
X006380Y000943D01*
X006380Y000757D01*
X006452Y000584D01*
X006584Y000452D01*
X006757Y000380D01*
X006943Y000380D01*
X007116Y000452D01*
X007248Y000584D01*
X007320Y000757D01*
X007320Y000943D01*
X007248Y001116D01*
X007116Y001248D01*
X007230Y001135D02*
X007470Y001135D01*
X007419Y001037D02*
X007281Y001037D01*
X007320Y000938D02*
X007380Y000938D01*
X007380Y000840D02*
X007320Y000840D01*
X007314Y000741D02*
X007386Y000741D01*
X007427Y000643D02*
X007273Y000643D01*
X007209Y000544D02*
X007491Y000544D01*
X007598Y000446D02*
X007102Y000446D01*
X006598Y000446D02*
X006102Y000446D01*
X006116Y000452D02*
X006248Y000584D01*
X006320Y000757D01*
X006320Y000943D01*
X006248Y001116D01*
X006116Y001248D01*
X005943Y001320D01*
X005757Y001320D01*
X005584Y001248D01*
X005452Y001116D01*
X005380Y000943D01*
X005380Y000757D01*
X005452Y000584D01*
X005584Y000452D01*
X005757Y000380D01*
X005943Y000380D01*
X006116Y000452D01*
X006209Y000544D02*
X006491Y000544D01*
X006427Y000643D02*
X006273Y000643D01*
X006314Y000741D02*
X006386Y000741D01*
X006380Y000840D02*
X006320Y000840D01*
X006320Y000938D02*
X006380Y000938D01*
X006419Y001037D02*
X006281Y001037D01*
X006230Y001135D02*
X006470Y001135D01*
X006569Y001234D02*
X006131Y001234D01*
X006080Y001506D02*
X005931Y001444D01*
X005769Y001444D01*
X005620Y001506D01*
X005506Y001620D01*
X005444Y001769D01*
X005444Y001931D01*
X005506Y002080D01*
X005620Y002194D01*
X005769Y002256D01*
X005931Y002256D01*
X006080Y002194D01*
X006194Y002080D01*
X006256Y001931D01*
X006256Y001769D01*
X006194Y001620D01*
X006080Y001506D01*
X006103Y001529D02*
X006597Y001529D01*
X006503Y001628D02*
X006197Y001628D01*
X006238Y001726D02*
X006462Y001726D01*
X006444Y001825D02*
X006256Y001825D01*
X006256Y001923D02*
X006444Y001923D01*
X006482Y002022D02*
X006218Y002022D01*
X006154Y002120D02*
X006546Y002120D01*
X006679Y002219D02*
X006021Y002219D01*
X006181Y002416D02*
X005546Y002416D01*
X005551Y002433D02*
X005541Y002395D01*
X005521Y002361D01*
X005493Y002333D01*
X005459Y002313D01*
X005421Y002303D01*
X005233Y002303D01*
X005233Y002602D01*
X005551Y002602D01*
X005551Y002433D01*
X005551Y002514D02*
X006098Y002514D01*
X006065Y002613D02*
X005233Y002613D01*
X005233Y002711D02*
X005136Y002711D01*
X005136Y002810D02*
X005233Y002810D01*
X005233Y002908D02*
X005136Y002908D01*
X005539Y002908D02*
X006228Y002908D01*
X006108Y002810D02*
X005551Y002810D01*
X005551Y002711D02*
X006067Y002711D01*
X006350Y002650D02*
X006785Y002615D01*
X006850Y002615D01*
X010615Y002615D01*
X010972Y002259D01*
X010972Y001050D01*
X011456Y000840D02*
X013243Y000840D01*
X013239Y000847D02*
X013276Y000773D01*
X013325Y000706D01*
X013384Y000647D01*
X013451Y000598D01*
X013525Y000561D01*
X013604Y000535D01*
X013678Y000523D01*
X013678Y001000D01*
X013778Y001000D01*
X013778Y001100D01*
X014255Y001100D01*
X014243Y001174D01*
X014217Y001253D01*
X014179Y001327D01*
X014131Y001394D01*
X014072Y001453D01*
X014005Y001502D01*
X013931Y001539D01*
X013852Y001565D01*
X013778Y001577D01*
X013778Y001100D01*
X013678Y001100D01*
X013678Y001577D01*
X013604Y001565D01*
X013525Y001539D01*
X013451Y001502D01*
X013384Y001453D01*
X013325Y001394D01*
X013276Y001327D01*
X013239Y001253D01*
X013213Y001174D01*
X013201Y001100D01*
X013678Y001100D01*
X013678Y001000D01*
X013201Y001000D01*
X013213Y000926D01*
X013239Y000847D01*
X013300Y000741D02*
X011410Y000741D01*
X011311Y000643D02*
X013391Y000643D01*
X013577Y000544D02*
X011130Y000544D01*
X011497Y000938D02*
X013211Y000938D01*
X013207Y001135D02*
X011500Y001135D01*
X011500Y001037D02*
X013678Y001037D01*
X013678Y001135D02*
X013778Y001135D01*
X013778Y001037D02*
X014300Y001037D01*
X014255Y001000D02*
X013778Y001000D01*
X013778Y000523D01*
X013852Y000535D01*
X013931Y000561D01*
X014005Y000598D01*
X014072Y000647D01*
X014131Y000706D01*
X014179Y000773D01*
X014217Y000847D01*
X014243Y000926D01*
X014255Y001000D01*
X014245Y000938D02*
X014300Y000938D01*
X014300Y000840D02*
X014213Y000840D01*
X014156Y000741D02*
X014300Y000741D01*
X014230Y000643D02*
X014065Y000643D01*
X014132Y000544D02*
X013879Y000544D01*
X013778Y000544D02*
X013678Y000544D01*
X013678Y000643D02*
X013778Y000643D01*
X013778Y000741D02*
X013678Y000741D01*
X013678Y000840D02*
X013778Y000840D01*
X013778Y000938D02*
X013678Y000938D01*
X013678Y001234D02*
X013778Y001234D01*
X013778Y001332D02*
X013678Y001332D01*
X013678Y001431D02*
X013778Y001431D01*
X013778Y001529D02*
X013678Y001529D01*
X013505Y001529D02*
X011195Y001529D01*
X011338Y001431D02*
X013362Y001431D01*
X013280Y001332D02*
X011427Y001332D01*
X011467Y001234D02*
X013232Y001234D01*
X013951Y001529D02*
X014300Y001529D01*
X014300Y001431D02*
X014094Y001431D01*
X014176Y001332D02*
X014300Y001332D01*
X014300Y001234D02*
X014223Y001234D01*
X014249Y001135D02*
X014300Y001135D01*
X014300Y001628D02*
X011172Y001628D01*
X011172Y001726D02*
X014300Y001726D01*
X014300Y001825D02*
X011172Y001825D01*
X011172Y001923D02*
X014300Y001923D01*
X014300Y002022D02*
X011172Y002022D01*
X011172Y002120D02*
X014300Y002120D01*
X014300Y002219D02*
X011172Y002219D01*
X011172Y002317D02*
X014300Y002317D01*
X014300Y002416D02*
X011098Y002416D01*
X011000Y002514D02*
X014300Y002514D01*
X014300Y002613D02*
X010901Y002613D01*
X010994Y002711D02*
X014300Y002711D01*
X014300Y002810D02*
X011092Y002810D01*
X011191Y002908D02*
X014300Y002908D01*
X014300Y003007D02*
X011289Y003007D01*
X011388Y003105D02*
X014300Y003105D01*
X014300Y003204D02*
X011486Y003204D01*
X011585Y003302D02*
X014300Y003302D01*
X014300Y003401D02*
X013020Y003401D01*
X013034Y003405D02*
X013102Y003439D01*
X013163Y003484D01*
X013216Y003537D01*
X013261Y003598D01*
X013295Y003666D01*
X013318Y003738D01*
X013328Y003800D01*
X012900Y003800D01*
X012900Y003900D01*
X012800Y003900D01*
X012800Y004328D01*
X012738Y004318D01*
X012666Y004295D01*
X012598Y004261D01*
X012537Y004216D01*
X012484Y004163D01*
X012439Y004102D01*
X012405Y004034D01*
X012382Y003962D01*
X012372Y003900D01*
X012800Y003900D01*
X012800Y003800D01*
X012372Y003800D01*
X012382Y003738D01*
X012405Y003666D01*
X012439Y003598D01*
X012484Y003537D01*
X012537Y003484D01*
X012598Y003439D01*
X012666Y003405D01*
X012738Y003382D01*
X012800Y003372D01*
X012800Y003800D01*
X012900Y003800D01*
X012900Y003372D01*
X012962Y003382D01*
X013034Y003405D01*
X012900Y003401D02*
X012800Y003401D01*
X012680Y003401D02*
X012019Y003401D01*
X012178Y003499D02*
X012522Y003499D01*
X012440Y003598D02*
X012265Y003598D01*
X012306Y003696D02*
X012395Y003696D01*
X012373Y003795D02*
X012330Y003795D01*
X012330Y003893D02*
X012800Y003893D01*
X012800Y003992D02*
X012900Y003992D01*
X012900Y003900D02*
X012900Y004328D01*
X012962Y004318D01*
X013034Y004295D01*
X013102Y004261D01*
X013163Y004216D01*
X013216Y004163D01*
X013261Y004102D01*
X013295Y004034D01*
X013318Y003962D01*
X013328Y003900D01*
X012900Y003900D01*
X012900Y003893D02*
X014300Y003893D01*
X014300Y003992D02*
X013309Y003992D01*
X013266Y004090D02*
X014300Y004090D01*
X014300Y004189D02*
X013190Y004189D01*
X013050Y004287D02*
X014300Y004287D01*
X014300Y004386D02*
X012983Y004386D01*
X012717Y004386D02*
X012668Y004386D01*
X012650Y004287D02*
X012570Y004287D01*
X012510Y004189D02*
X012471Y004189D01*
X012434Y004090D02*
X012270Y004090D01*
X012311Y003992D02*
X012391Y003992D01*
X012800Y004090D02*
X012900Y004090D01*
X012900Y004189D02*
X012800Y004189D01*
X012800Y004287D02*
X012900Y004287D01*
X013163Y004484D02*
X014300Y004484D01*
X014300Y004583D02*
X013259Y004583D01*
X013300Y004681D02*
X014300Y004681D01*
X014300Y004780D02*
X013330Y004780D01*
X013330Y004878D02*
X014300Y004878D01*
X014300Y004977D02*
X013317Y004977D01*
X013276Y005075D02*
X014300Y005075D01*
X014300Y005174D02*
X013205Y005174D01*
X013085Y005272D02*
X014300Y005272D01*
X014300Y005371D02*
X012947Y005371D01*
X012945Y005370D02*
X013122Y005443D01*
X013257Y005578D01*
X013330Y005755D01*
X013330Y005945D01*
X013257Y006122D01*
X013122Y006257D01*
X012945Y006330D01*
X012755Y006330D01*
X012578Y006257D01*
X012443Y006122D01*
X012370Y005945D01*
X012370Y005755D01*
X012443Y005578D01*
X012578Y005443D01*
X012755Y005370D01*
X012945Y005370D01*
X012753Y005371D02*
X011947Y005371D01*
X011945Y005370D02*
X012122Y005443D01*
X012257Y005578D01*
X012330Y005755D01*
X012330Y005945D01*
X012257Y006122D01*
X012122Y006257D01*
X011945Y006330D01*
X011755Y006330D01*
X011578Y006257D01*
X011443Y006122D01*
X011370Y005945D01*
X011370Y005755D01*
X011443Y005578D01*
X011578Y005443D01*
X011755Y005370D01*
X011945Y005370D01*
X011753Y005371D02*
X000300Y005371D01*
X000300Y005469D02*
X000566Y005469D01*
X000584Y005452D02*
X000757Y005380D01*
X000943Y005380D01*
X001116Y005452D01*
X001248Y005584D01*
X001320Y005757D01*
X001320Y005943D01*
X001248Y006116D01*
X001116Y006248D01*
X000943Y006320D01*
X000757Y006320D01*
X000584Y006248D01*
X000452Y006116D01*
X000380Y005943D01*
X000380Y005757D01*
X000452Y005584D01*
X000584Y005452D01*
X000468Y005568D02*
X000300Y005568D01*
X000300Y005666D02*
X000417Y005666D01*
X000380Y005765D02*
X000300Y005765D01*
X000300Y005863D02*
X000380Y005863D01*
X000387Y005962D02*
X000300Y005962D01*
X000372Y006060D02*
X000428Y006060D01*
X000471Y006159D02*
X000494Y006159D01*
X000569Y006257D02*
X000604Y006257D01*
X000668Y006356D02*
X013932Y006356D01*
X014031Y006257D02*
X013122Y006257D01*
X013220Y006159D02*
X014129Y006159D01*
X014228Y006060D02*
X013283Y006060D01*
X013323Y005962D02*
X014300Y005962D01*
X014300Y005863D02*
X013330Y005863D01*
X013330Y005765D02*
X014300Y005765D01*
X014300Y005666D02*
X013293Y005666D01*
X013246Y005568D02*
X014300Y005568D01*
X014300Y005469D02*
X013148Y005469D01*
X012615Y005272D02*
X012085Y005272D01*
X012205Y005174D02*
X012495Y005174D01*
X012424Y005075D02*
X012276Y005075D01*
X012317Y004977D02*
X012383Y004977D01*
X012370Y004878D02*
X012330Y004878D01*
X012330Y004780D02*
X012370Y004780D01*
X012398Y004681D02*
X012300Y004681D01*
X012300Y004583D02*
X012259Y004583D01*
X012350Y004350D02*
X012850Y004850D01*
X012350Y004350D02*
X011150Y004350D01*
X010850Y004050D01*
X009950Y004050D01*
X009699Y004189D02*
X006194Y004189D01*
X006250Y004090D02*
X009665Y004090D01*
X009666Y003992D02*
X006250Y003992D01*
X006250Y003893D02*
X009707Y003893D01*
X009822Y003795D02*
X006250Y003795D01*
X006250Y003696D02*
X011394Y003696D01*
X011370Y003795D02*
X010078Y003795D01*
X010010Y003401D02*
X007217Y003401D01*
X007217Y003499D02*
X011216Y003499D01*
X011315Y003598D02*
X007163Y003598D01*
X006850Y003285D02*
X006850Y003250D01*
X006950Y003150D01*
X006850Y003285D02*
X006315Y003285D01*
X006050Y003550D01*
X006050Y004050D01*
X005750Y004350D01*
X002350Y004350D01*
X001941Y003941D01*
X001750Y003941D01*
X001606Y004085D01*
X000750Y004085D01*
X000403Y004090D02*
X000300Y004090D01*
X000300Y004189D02*
X000403Y004189D01*
X000403Y004287D02*
X000300Y004287D01*
X000300Y004386D02*
X000425Y004386D01*
X000300Y004484D02*
X000673Y004484D01*
X000543Y004583D02*
X000300Y004583D01*
X000300Y004681D02*
X000481Y004681D01*
X000444Y004780D02*
X000300Y004780D01*
X000300Y004878D02*
X000444Y004878D01*
X000463Y004977D02*
X000300Y004977D01*
X000300Y005075D02*
X000504Y005075D01*
X000599Y005174D02*
X000300Y005174D01*
X000300Y005272D02*
X011615Y005272D01*
X011495Y005174D02*
X010101Y005174D01*
X010080Y005194D02*
X009931Y005256D01*
X009769Y005256D01*
X009620Y005194D01*
X009506Y005080D01*
X009444Y004931D01*
X009444Y004769D01*
X009506Y004620D01*
X009620Y004506D01*
X009769Y004444D01*
X009931Y004444D01*
X010080Y004506D01*
X010194Y004620D01*
X010256Y004769D01*
X010256Y004931D01*
X010194Y005080D01*
X010080Y005194D01*
X010196Y005075D02*
X011424Y005075D01*
X011383Y004977D02*
X010237Y004977D01*
X010256Y004878D02*
X011370Y004878D01*
X011370Y004780D02*
X010256Y004780D01*
X010219Y004681D02*
X011400Y004681D01*
X011441Y004583D02*
X010157Y004583D01*
X010027Y004484D02*
X011001Y004484D01*
X010903Y004386D02*
X005997Y004386D01*
X006027Y004484D02*
X006673Y004484D01*
X006620Y004506D02*
X006769Y004444D01*
X006931Y004444D01*
X007080Y004506D01*
X007194Y004620D01*
X007256Y004769D01*
X007256Y004931D01*
X007194Y005080D01*
X007080Y005194D01*
X006931Y005256D01*
X006769Y005256D01*
X006620Y005194D01*
X006506Y005080D01*
X006444Y004931D01*
X006444Y004769D01*
X006506Y004620D01*
X006620Y004506D01*
X006543Y004583D02*
X006157Y004583D01*
X006219Y004681D02*
X006481Y004681D01*
X006444Y004780D02*
X006256Y004780D01*
X006256Y004878D02*
X006444Y004878D01*
X006463Y004977D02*
X006237Y004977D01*
X006196Y005075D02*
X006504Y005075D01*
X006599Y005174D02*
X006101Y005174D01*
X005943Y005380D02*
X005757Y005380D01*
X005584Y005452D01*
X005452Y005584D01*
X005380Y005757D01*
X005380Y005943D01*
X005452Y006116D01*
X005584Y006248D01*
X005757Y006320D01*
X005943Y006320D01*
X006116Y006248D01*
X006248Y006116D01*
X006320Y005943D01*
X006320Y005757D01*
X006248Y005584D01*
X006116Y005452D01*
X005943Y005380D01*
X006134Y005469D02*
X006566Y005469D01*
X006584Y005452D02*
X006757Y005380D01*
X006943Y005380D01*
X007116Y005452D01*
X007248Y005584D01*
X007320Y005757D01*
X007320Y005943D01*
X007248Y006116D01*
X007116Y006248D01*
X006943Y006320D01*
X006757Y006320D01*
X006584Y006248D01*
X006452Y006116D01*
X006380Y005943D01*
X006380Y005757D01*
X006452Y005584D01*
X006584Y005452D01*
X006468Y005568D02*
X006232Y005568D01*
X006283Y005666D02*
X006417Y005666D01*
X006380Y005765D02*
X006320Y005765D01*
X006320Y005863D02*
X006380Y005863D01*
X006387Y005962D02*
X006313Y005962D01*
X006272Y006060D02*
X006428Y006060D01*
X006494Y006159D02*
X006206Y006159D01*
X006096Y006257D02*
X006604Y006257D01*
X007096Y006257D02*
X007604Y006257D01*
X007584Y006248D02*
X007757Y006320D01*
X007943Y006320D01*
X008116Y006248D01*
X008248Y006116D01*
X008320Y005943D01*
X008320Y005757D01*
X008248Y005584D01*
X008116Y005452D01*
X007943Y005380D01*
X007757Y005380D01*
X007584Y005452D01*
X007452Y005584D01*
X007380Y005757D01*
X007380Y005943D01*
X007452Y006116D01*
X007584Y006248D01*
X007494Y006159D02*
X007206Y006159D01*
X007272Y006060D02*
X007428Y006060D01*
X007387Y005962D02*
X007313Y005962D01*
X007320Y005863D02*
X007380Y005863D01*
X007380Y005765D02*
X007320Y005765D01*
X007283Y005666D02*
X007417Y005666D01*
X007468Y005568D02*
X007232Y005568D01*
X007134Y005469D02*
X007566Y005469D01*
X007620Y005194D02*
X007769Y005256D01*
X007931Y005256D01*
X008080Y005194D01*
X008194Y005080D01*
X008256Y004931D01*
X008256Y004769D01*
X008194Y004620D01*
X008080Y004506D01*
X007931Y004444D01*
X007769Y004444D01*
X007620Y004506D01*
X007506Y004620D01*
X007444Y004769D01*
X007444Y004931D01*
X007506Y005080D01*
X007620Y005194D01*
X007599Y005174D02*
X007101Y005174D01*
X007196Y005075D02*
X007504Y005075D01*
X007463Y004977D02*
X007237Y004977D01*
X007256Y004878D02*
X007444Y004878D01*
X007444Y004780D02*
X007256Y004780D01*
X007219Y004681D02*
X007481Y004681D01*
X007543Y004583D02*
X007157Y004583D01*
X007027Y004484D02*
X007673Y004484D01*
X008027Y004484D02*
X008673Y004484D01*
X008620Y004506D02*
X008769Y004444D01*
X008931Y004444D01*
X009080Y004506D01*
X009194Y004620D01*
X009256Y004769D01*
X009256Y004931D01*
X009194Y005080D01*
X009080Y005194D01*
X008931Y005256D01*
X008769Y005256D01*
X008620Y005194D01*
X008506Y005080D01*
X008444Y004931D01*
X008444Y004769D01*
X008506Y004620D01*
X008620Y004506D01*
X008543Y004583D02*
X008157Y004583D01*
X008219Y004681D02*
X008481Y004681D01*
X008444Y004780D02*
X008256Y004780D01*
X008256Y004878D02*
X008444Y004878D01*
X008463Y004977D02*
X008237Y004977D01*
X008196Y005075D02*
X008504Y005075D01*
X008599Y005174D02*
X008101Y005174D01*
X008134Y005469D02*
X008566Y005469D01*
X008584Y005452D02*
X008757Y005380D01*
X008943Y005380D01*
X009116Y005452D01*
X009248Y005584D01*
X009320Y005757D01*
X009320Y005943D01*
X009248Y006116D01*
X009116Y006248D01*
X008943Y006320D01*
X008757Y006320D01*
X008584Y006248D01*
X008452Y006116D01*
X008380Y005943D01*
X008380Y005757D01*
X008452Y005584D01*
X008584Y005452D01*
X008468Y005568D02*
X008232Y005568D01*
X008283Y005666D02*
X008417Y005666D01*
X008380Y005765D02*
X008320Y005765D01*
X008320Y005863D02*
X008380Y005863D01*
X008387Y005962D02*
X008313Y005962D01*
X008272Y006060D02*
X008428Y006060D01*
X008494Y006159D02*
X008206Y006159D01*
X008096Y006257D02*
X008604Y006257D01*
X009096Y006257D02*
X009604Y006257D01*
X009584Y006248D02*
X009452Y006116D01*
X009380Y005943D01*
X009380Y005757D01*
X009452Y005584D01*
X009584Y005452D01*
X009757Y005380D01*
X009943Y005380D01*
X010116Y005452D01*
X010248Y005584D01*
X010320Y005757D01*
X010320Y005943D01*
X010248Y006116D01*
X010116Y006248D01*
X009943Y006320D01*
X009757Y006320D01*
X009584Y006248D01*
X009494Y006159D02*
X009206Y006159D01*
X009272Y006060D02*
X009428Y006060D01*
X009387Y005962D02*
X009313Y005962D01*
X009320Y005863D02*
X009380Y005863D01*
X009380Y005765D02*
X009320Y005765D01*
X009283Y005666D02*
X009417Y005666D01*
X009468Y005568D02*
X009232Y005568D01*
X009134Y005469D02*
X009566Y005469D01*
X009599Y005174D02*
X009101Y005174D01*
X009196Y005075D02*
X009504Y005075D01*
X009463Y004977D02*
X009237Y004977D01*
X009256Y004878D02*
X009444Y004878D01*
X009444Y004780D02*
X009256Y004780D01*
X009219Y004681D02*
X009481Y004681D01*
X009543Y004583D02*
X009157Y004583D01*
X009027Y004484D02*
X009673Y004484D01*
X009784Y004287D02*
X006096Y004287D01*
X005727Y004090D02*
X005481Y004090D01*
X005481Y003992D02*
X005826Y003992D01*
X005850Y003893D02*
X005481Y003893D01*
X005481Y003795D02*
X005850Y003795D01*
X005850Y003696D02*
X005481Y003696D01*
X005481Y003598D02*
X005850Y003598D01*
X005850Y003499D02*
X005481Y003499D01*
X005481Y003401D02*
X005917Y003401D01*
X006015Y003302D02*
X005481Y003302D01*
X005481Y003204D02*
X006114Y003204D01*
X006212Y003105D02*
X005471Y003105D01*
X004715Y003007D02*
X006503Y003007D01*
X006517Y002908D02*
X006472Y002908D01*
X006483Y003499D02*
X006384Y003499D01*
X006285Y003598D02*
X006537Y003598D01*
X004937Y003650D02*
X004515Y003228D01*
X004515Y002650D01*
X004515Y002185D01*
X004850Y001850D01*
X005238Y001726D02*
X005462Y001726D01*
X005503Y001628D02*
X005197Y001628D01*
X005103Y001529D02*
X005597Y001529D01*
X005569Y001234D02*
X005131Y001234D01*
X005116Y001248D02*
X004943Y001320D01*
X004757Y001320D01*
X004584Y001248D01*
X004452Y001116D01*
X004380Y000943D01*
X004380Y000757D01*
X004452Y000584D01*
X004584Y000452D01*
X004757Y000380D01*
X004943Y000380D01*
X005116Y000452D01*
X005248Y000584D01*
X005320Y000757D01*
X005320Y000943D01*
X005248Y001116D01*
X005116Y001248D01*
X005230Y001135D02*
X005470Y001135D01*
X005419Y001037D02*
X005281Y001037D01*
X005320Y000938D02*
X005380Y000938D01*
X005380Y000840D02*
X005320Y000840D01*
X005314Y000741D02*
X005386Y000741D01*
X005427Y000643D02*
X005273Y000643D01*
X005209Y000544D02*
X005491Y000544D01*
X005598Y000446D02*
X005102Y000446D01*
X004598Y000446D02*
X004102Y000446D01*
X004116Y000452D02*
X004248Y000584D01*
X004320Y000757D01*
X004320Y000943D01*
X004248Y001116D01*
X004116Y001248D01*
X003943Y001320D01*
X003757Y001320D01*
X003584Y001248D01*
X003452Y001116D01*
X003380Y000943D01*
X003380Y000757D01*
X003452Y000584D01*
X003584Y000452D01*
X003757Y000380D01*
X003943Y000380D01*
X004116Y000452D01*
X004209Y000544D02*
X004491Y000544D01*
X004427Y000643D02*
X004273Y000643D01*
X004314Y000741D02*
X004386Y000741D01*
X004380Y000840D02*
X004320Y000840D01*
X004320Y000938D02*
X004380Y000938D01*
X004419Y001037D02*
X004281Y001037D01*
X004230Y001135D02*
X004470Y001135D01*
X004569Y001234D02*
X004131Y001234D01*
X004103Y001529D02*
X004597Y001529D01*
X004503Y001628D02*
X004197Y001628D01*
X004238Y001726D02*
X004462Y001726D01*
X004444Y001825D02*
X004256Y001825D01*
X004256Y001923D02*
X004444Y001923D01*
X004396Y002022D02*
X004218Y002022D01*
X004154Y002120D02*
X004315Y002120D01*
X004315Y002219D02*
X004050Y002219D01*
X004077Y002317D02*
X004223Y002317D01*
X003650Y002219D02*
X003021Y002219D01*
X003080Y002194D02*
X002931Y002256D01*
X002769Y002256D01*
X002620Y002194D01*
X002506Y002080D01*
X002444Y001931D01*
X002444Y001769D01*
X002506Y001620D01*
X002620Y001506D01*
X002769Y001444D01*
X002931Y001444D01*
X003080Y001506D01*
X003194Y001620D01*
X003256Y001769D01*
X003256Y001931D01*
X003194Y002080D01*
X003080Y002194D01*
X003154Y002120D02*
X003546Y002120D01*
X003482Y002022D02*
X003218Y002022D01*
X003256Y001923D02*
X003444Y001923D01*
X003444Y001825D02*
X003256Y001825D01*
X003238Y001726D02*
X003462Y001726D01*
X003503Y001628D02*
X003197Y001628D01*
X003103Y001529D02*
X003597Y001529D01*
X003569Y001234D02*
X003131Y001234D01*
X003116Y001248D02*
X002943Y001320D01*
X002757Y001320D01*
X002584Y001248D01*
X002452Y001116D01*
X002380Y000943D01*
X002380Y000757D01*
X002452Y000584D01*
X002584Y000452D01*
X002757Y000380D01*
X002943Y000380D01*
X003116Y000452D01*
X003248Y000584D01*
X003320Y000757D01*
X003320Y000943D01*
X003248Y001116D01*
X003116Y001248D01*
X003230Y001135D02*
X003470Y001135D01*
X003419Y001037D02*
X003281Y001037D01*
X003320Y000938D02*
X003380Y000938D01*
X003380Y000840D02*
X003320Y000840D01*
X003314Y000741D02*
X003386Y000741D01*
X003427Y000643D02*
X003273Y000643D01*
X003209Y000544D02*
X003491Y000544D01*
X003598Y000446D02*
X003102Y000446D01*
X002598Y000446D02*
X002102Y000446D01*
X002116Y000452D02*
X002248Y000584D01*
X002320Y000757D01*
X002320Y000943D01*
X002248Y001116D01*
X002116Y001248D01*
X001943Y001320D01*
X001757Y001320D01*
X001584Y001248D01*
X001452Y001116D01*
X001380Y000943D01*
X001380Y000757D01*
X001452Y000584D01*
X001584Y000452D01*
X001757Y000380D01*
X001943Y000380D01*
X002116Y000452D01*
X002209Y000544D02*
X002491Y000544D01*
X002427Y000643D02*
X002273Y000643D01*
X002314Y000741D02*
X002386Y000741D01*
X002380Y000840D02*
X002320Y000840D01*
X002320Y000938D02*
X002380Y000938D01*
X002419Y001037D02*
X002281Y001037D01*
X002230Y001135D02*
X002470Y001135D01*
X002569Y001234D02*
X002131Y001234D01*
X002080Y001506D02*
X001931Y001444D01*
X001769Y001444D01*
X001620Y001506D01*
X001506Y001620D01*
X001444Y001769D01*
X001444Y001931D01*
X001506Y002080D01*
X001620Y002194D01*
X001769Y002256D01*
X001931Y002256D01*
X002080Y002194D01*
X002194Y002080D01*
X002256Y001931D01*
X002256Y001769D01*
X002194Y001620D01*
X002080Y001506D01*
X002103Y001529D02*
X002597Y001529D01*
X002503Y001628D02*
X002197Y001628D01*
X002238Y001726D02*
X002462Y001726D01*
X002444Y001825D02*
X002256Y001825D01*
X002256Y001923D02*
X002444Y001923D01*
X002482Y002022D02*
X002218Y002022D01*
X002154Y002120D02*
X002546Y002120D01*
X002679Y002219D02*
X002021Y002219D01*
X001800Y002294D02*
X002242Y002294D01*
X002280Y002305D01*
X002315Y002324D01*
X002342Y002352D01*
X002362Y002387D01*
X002372Y002425D01*
X002372Y002709D01*
X001800Y002709D01*
X001800Y002294D01*
X001800Y002317D02*
X001700Y002317D01*
X001700Y002294D02*
X001700Y002709D01*
X001800Y002709D01*
X001800Y002809D01*
X002372Y002809D01*
X002372Y003094D01*
X002362Y003132D01*
X002342Y003167D01*
X002315Y003194D01*
X002280Y003214D01*
X002242Y003224D01*
X001800Y003224D01*
X001800Y002809D01*
X001700Y002809D01*
X001700Y002709D01*
X001128Y002709D01*
X001128Y002425D01*
X001138Y002387D01*
X001158Y002352D01*
X001185Y002324D01*
X001220Y002305D01*
X001258Y002294D01*
X001700Y002294D01*
X001679Y002219D02*
X001021Y002219D01*
X001080Y002194D02*
X000931Y002256D01*
X000769Y002256D01*
X000620Y002194D01*
X000506Y002080D01*
X000444Y001931D01*
X000444Y001769D01*
X000506Y001620D01*
X000620Y001506D01*
X000769Y001444D01*
X000931Y001444D01*
X001080Y001506D01*
X001194Y001620D01*
X001256Y001769D01*
X001256Y001931D01*
X001194Y002080D01*
X001080Y002194D01*
X001154Y002120D02*
X001546Y002120D01*
X001482Y002022D02*
X001218Y002022D01*
X001256Y001923D02*
X001444Y001923D01*
X001444Y001825D02*
X001256Y001825D01*
X001238Y001726D02*
X001462Y001726D01*
X001503Y001628D02*
X001197Y001628D01*
X001103Y001529D02*
X001597Y001529D01*
X001569Y001234D02*
X001131Y001234D01*
X001116Y001248D02*
X000943Y001320D01*
X000757Y001320D01*
X000584Y001248D01*
X000452Y001116D01*
X000380Y000943D01*
X000380Y000757D01*
X000452Y000584D01*
X000584Y000452D01*
X000757Y000380D01*
X000943Y000380D01*
X001116Y000452D01*
X001248Y000584D01*
X001320Y000757D01*
X001320Y000943D01*
X001248Y001116D01*
X001116Y001248D01*
X001230Y001135D02*
X001470Y001135D01*
X001419Y001037D02*
X001281Y001037D01*
X001320Y000938D02*
X001380Y000938D01*
X001380Y000840D02*
X001320Y000840D01*
X001314Y000741D02*
X001386Y000741D01*
X001427Y000643D02*
X001273Y000643D01*
X001209Y000544D02*
X001491Y000544D01*
X001598Y000446D02*
X001102Y000446D01*
X000598Y000446D02*
X000567Y000446D01*
X000491Y000544D02*
X000468Y000544D01*
X000427Y000643D02*
X000370Y000643D01*
X000386Y000741D02*
X000300Y000741D01*
X000300Y000840D02*
X000380Y000840D01*
X000380Y000938D02*
X000300Y000938D01*
X000300Y001037D02*
X000419Y001037D01*
X000470Y001135D02*
X000300Y001135D01*
X000300Y001234D02*
X000569Y001234D01*
X000300Y001332D02*
X010517Y001332D01*
X010477Y001234D02*
X010122Y001234D01*
X010224Y001135D02*
X010444Y001135D01*
X010444Y001037D02*
X010282Y001037D01*
X010312Y000938D02*
X010447Y000938D01*
X009900Y000938D02*
X009800Y000938D01*
X009800Y001037D02*
X009900Y001037D01*
X009900Y001135D02*
X009800Y001135D01*
X009800Y001234D02*
X009900Y001234D01*
X009578Y001234D02*
X009131Y001234D01*
X009230Y001135D02*
X009476Y001135D01*
X009418Y001037D02*
X009281Y001037D01*
X009320Y000938D02*
X009388Y000938D01*
X009800Y000643D02*
X009900Y000643D01*
X009900Y000544D02*
X009800Y000544D01*
X009800Y000446D02*
X009900Y000446D01*
X009890Y001444D02*
X009968Y001460D01*
X010042Y001490D01*
X010109Y001535D01*
X010165Y001591D01*
X010210Y001658D01*
X010240Y001732D01*
X010256Y001810D01*
X010256Y001820D01*
X009880Y001820D01*
X009880Y001880D01*
X009820Y001880D01*
X009820Y002256D01*
X009810Y002256D01*
X009732Y002240D01*
X009658Y002210D01*
X009591Y002165D01*
X009535Y002109D01*
X009490Y002042D01*
X009460Y001968D01*
X009444Y001890D01*
X009444Y001880D01*
X009820Y001880D01*
X009820Y001820D01*
X009444Y001820D01*
X009444Y001810D01*
X009460Y001732D01*
X009490Y001658D01*
X009535Y001591D01*
X009591Y001535D01*
X009658Y001490D01*
X009732Y001460D01*
X009810Y001444D01*
X009820Y001444D01*
X009820Y001820D01*
X009880Y001820D01*
X009880Y001444D01*
X009890Y001444D01*
X009880Y001529D02*
X009820Y001529D01*
X009820Y001628D02*
X009880Y001628D01*
X009880Y001726D02*
X009820Y001726D01*
X009820Y001825D02*
X009256Y001825D01*
X009256Y001923D02*
X009451Y001923D01*
X009482Y002022D02*
X009218Y002022D01*
X009154Y002120D02*
X009546Y002120D01*
X009679Y002219D02*
X009021Y002219D01*
X009820Y002219D02*
X009880Y002219D01*
X009880Y002256D02*
X009880Y001880D01*
X010256Y001880D01*
X010256Y001890D01*
X010240Y001968D01*
X010210Y002042D01*
X010165Y002109D01*
X010109Y002165D01*
X010042Y002210D01*
X009968Y002240D01*
X009890Y002256D01*
X009880Y002256D01*
X010021Y002219D02*
X010729Y002219D01*
X010631Y002317D02*
X007177Y002317D01*
X006523Y002317D02*
X005465Y002317D01*
X005679Y002219D02*
X005021Y002219D01*
X005136Y002317D02*
X005233Y002317D01*
X005233Y002416D02*
X005136Y002416D01*
X005136Y002514D02*
X005233Y002514D01*
X004904Y002317D02*
X004808Y002317D01*
X005154Y002120D02*
X005546Y002120D01*
X005482Y002022D02*
X005218Y002022D01*
X005256Y001923D02*
X005444Y001923D01*
X005444Y001825D02*
X005256Y001825D01*
X003850Y001850D02*
X003850Y002585D01*
X003785Y002650D01*
X003785Y003228D01*
X003363Y003650D01*
X002819Y003696D02*
X002372Y003696D01*
X002372Y003795D02*
X002819Y003795D01*
X002819Y003893D02*
X002372Y003893D01*
X002372Y003992D02*
X002819Y003992D01*
X002819Y004090D02*
X002373Y004090D01*
X002201Y004484D02*
X002027Y004484D01*
X002080Y004506D02*
X001931Y004444D01*
X001769Y004444D01*
X001620Y004506D01*
X001506Y004620D01*
X001444Y004769D01*
X001444Y004931D01*
X001506Y005080D01*
X001620Y005194D01*
X001769Y005256D01*
X001931Y005256D01*
X002080Y005194D01*
X002194Y005080D01*
X002256Y004931D01*
X002256Y004769D01*
X002194Y004620D01*
X002080Y004506D01*
X002157Y004583D02*
X002543Y004583D01*
X002481Y004681D02*
X002219Y004681D01*
X002256Y004780D02*
X002444Y004780D01*
X002444Y004878D02*
X002256Y004878D01*
X002237Y004977D02*
X002463Y004977D01*
X002504Y005075D02*
X002196Y005075D01*
X002101Y005174D02*
X002599Y005174D01*
X002757Y005380D02*
X002943Y005380D01*
X003116Y005452D01*
X003248Y005584D01*
X003320Y005757D01*
X003320Y005943D01*
X003248Y006116D01*
X003116Y006248D01*
X002943Y006320D01*
X002757Y006320D01*
X002584Y006248D01*
X002452Y006116D01*
X002380Y005943D01*
X002380Y005757D01*
X002452Y005584D01*
X002584Y005452D01*
X002757Y005380D01*
X002566Y005469D02*
X002134Y005469D01*
X002116Y005452D02*
X002248Y005584D01*
X002320Y005757D01*
X002320Y005943D01*
X002248Y006116D01*
X002116Y006248D01*
X001943Y006320D01*
X001757Y006320D01*
X001584Y006248D01*
X001452Y006116D01*
X001380Y005943D01*
X001380Y005757D01*
X001452Y005584D01*
X001584Y005452D01*
X001757Y005380D01*
X001943Y005380D01*
X002116Y005452D01*
X002232Y005568D02*
X002468Y005568D01*
X002417Y005666D02*
X002283Y005666D01*
X002320Y005765D02*
X002380Y005765D01*
X002380Y005863D02*
X002320Y005863D01*
X002313Y005962D02*
X002387Y005962D01*
X002428Y006060D02*
X002272Y006060D01*
X002206Y006159D02*
X002494Y006159D01*
X002604Y006257D02*
X002096Y006257D01*
X001604Y006257D02*
X001096Y006257D01*
X001206Y006159D02*
X001494Y006159D01*
X001428Y006060D02*
X001272Y006060D01*
X001313Y005962D02*
X001387Y005962D01*
X001380Y005863D02*
X001320Y005863D01*
X001320Y005765D02*
X001380Y005765D01*
X001417Y005666D02*
X001283Y005666D01*
X001232Y005568D02*
X001468Y005568D01*
X001566Y005469D02*
X001134Y005469D01*
X001101Y005174D02*
X001599Y005174D01*
X001504Y005075D02*
X001196Y005075D01*
X001237Y004977D02*
X001463Y004977D01*
X001444Y004878D02*
X001256Y004878D01*
X001256Y004780D02*
X001444Y004780D01*
X001481Y004681D02*
X001302Y004681D01*
X001400Y004583D02*
X001543Y004583D01*
X001499Y004484D02*
X001673Y004484D01*
X001750Y003950D02*
X000850Y004850D01*
X000403Y003992D02*
X000300Y003992D01*
X000300Y003893D02*
X000403Y003893D01*
X000415Y003795D02*
X000300Y003795D01*
X000300Y003696D02*
X000417Y003696D01*
X000403Y003598D02*
X000300Y003598D01*
X000300Y003499D02*
X000403Y003499D01*
X000403Y003367D02*
X000403Y003179D01*
X000413Y003141D01*
X000433Y003107D01*
X000461Y003079D01*
X000495Y003059D01*
X000533Y003049D01*
X000702Y003049D01*
X000702Y003367D01*
X000403Y003367D01*
X000403Y003302D02*
X000300Y003302D01*
X000300Y003401D02*
X000702Y003401D01*
X000798Y003401D02*
X002819Y003401D01*
X002819Y003302D02*
X001097Y003302D01*
X001220Y003214D02*
X001258Y003224D01*
X001700Y003224D01*
X001700Y002809D01*
X001128Y002809D01*
X001128Y003094D01*
X001138Y003132D01*
X001158Y003167D01*
X001185Y003194D01*
X001220Y003214D01*
X001201Y003204D02*
X001097Y003204D01*
X001065Y003105D02*
X001130Y003105D01*
X001128Y003007D02*
X000300Y003007D01*
X000300Y002908D02*
X001128Y002908D01*
X001128Y002810D02*
X000300Y002810D01*
X000300Y002711D02*
X001700Y002711D01*
X001700Y002810D02*
X001800Y002810D01*
X001800Y002711D02*
X002749Y002711D01*
X002749Y002698D02*
X003067Y002698D01*
X003067Y002997D01*
X002879Y002997D01*
X002841Y002987D01*
X002807Y002967D01*
X002779Y002939D01*
X002759Y002905D01*
X002749Y002867D01*
X002749Y002698D01*
X002749Y002810D02*
X002372Y002810D01*
X002372Y002908D02*
X002761Y002908D01*
X002372Y003007D02*
X003585Y003007D01*
X003164Y002908D02*
X003067Y002908D01*
X003067Y002810D02*
X003164Y002810D01*
X003164Y002711D02*
X003067Y002711D01*
X003067Y002613D02*
X002372Y002613D01*
X002372Y002514D02*
X002749Y002514D01*
X002754Y002416D02*
X002370Y002416D01*
X002302Y002317D02*
X002835Y002317D01*
X003067Y002317D02*
X003164Y002317D01*
X003164Y002416D02*
X003067Y002416D01*
X003067Y002514D02*
X003164Y002514D01*
X003396Y002317D02*
X003492Y002317D01*
X001800Y002416D02*
X001700Y002416D01*
X001700Y002514D02*
X001800Y002514D01*
X001800Y002613D02*
X001700Y002613D01*
X001700Y002908D02*
X001800Y002908D01*
X001800Y003007D02*
X001700Y003007D01*
X001700Y003105D02*
X001800Y003105D01*
X001800Y003204D02*
X001700Y003204D01*
X002299Y003204D02*
X002819Y003204D01*
X002829Y003105D02*
X002370Y003105D01*
X002308Y003499D02*
X002819Y003499D01*
X002819Y003598D02*
X002372Y003598D01*
X001750Y003941D02*
X001750Y003950D01*
X001128Y003795D02*
X001085Y003795D01*
X001083Y003696D02*
X001128Y003696D01*
X001128Y003598D02*
X001097Y003598D01*
X001097Y003499D02*
X001192Y003499D01*
X000798Y003302D02*
X000702Y003302D01*
X000702Y003204D02*
X000798Y003204D01*
X000798Y003105D02*
X000702Y003105D01*
X000435Y003105D02*
X000300Y003105D01*
X000300Y003204D02*
X000403Y003204D01*
X000300Y002613D02*
X001128Y002613D01*
X001128Y002514D02*
X000300Y002514D01*
X000300Y002416D02*
X001130Y002416D01*
X001198Y002317D02*
X000300Y002317D01*
X000300Y002219D02*
X000679Y002219D01*
X000546Y002120D02*
X000300Y002120D01*
X000300Y002022D02*
X000482Y002022D01*
X000444Y001923D02*
X000300Y001923D01*
X000300Y001825D02*
X000444Y001825D01*
X000462Y001726D02*
X000300Y001726D01*
X000300Y001628D02*
X000503Y001628D01*
X000597Y001529D02*
X000300Y001529D01*
X000300Y001431D02*
X010606Y001431D01*
X010749Y001529D02*
X010100Y001529D01*
X010190Y001628D02*
X010772Y001628D01*
X010772Y001726D02*
X010238Y001726D01*
X010249Y001923D02*
X010772Y001923D01*
X010772Y001825D02*
X009880Y001825D01*
X009880Y001923D02*
X009820Y001923D01*
X009820Y002022D02*
X009880Y002022D01*
X009880Y002120D02*
X009820Y002120D01*
X010154Y002120D02*
X010772Y002120D01*
X010772Y002022D02*
X010218Y002022D01*
X009462Y001726D02*
X009238Y001726D01*
X009197Y001628D02*
X009510Y001628D01*
X009600Y001529D02*
X009103Y001529D01*
X010615Y002615D02*
X011850Y003850D01*
X011389Y003992D02*
X011074Y003992D01*
X010976Y003893D02*
X011370Y003893D01*
X011430Y004090D02*
X011173Y004090D01*
X010804Y004287D02*
X010116Y004287D01*
X010290Y003401D02*
X011118Y003401D01*
X011019Y003302D02*
X010396Y003302D01*
X010435Y003207D02*
X010435Y003093D01*
X010392Y002989D01*
X010311Y002908D01*
X010625Y002908D01*
X010724Y003007D02*
X010399Y003007D01*
X010311Y002908D02*
X010207Y002865D01*
X010093Y002865D01*
X009989Y002908D01*
X012800Y003499D02*
X012900Y003499D01*
X012900Y003598D02*
X012800Y003598D01*
X012800Y003696D02*
X012900Y003696D01*
X012900Y003795D02*
X012800Y003795D01*
X013260Y003598D02*
X014300Y003598D01*
X014300Y003499D02*
X013178Y003499D01*
X013305Y003696D02*
X014300Y003696D01*
X014300Y003795D02*
X013327Y003795D01*
X012552Y005469D02*
X012148Y005469D01*
X012246Y005568D02*
X012454Y005568D01*
X012407Y005666D02*
X012293Y005666D01*
X012330Y005765D02*
X012370Y005765D01*
X012370Y005863D02*
X012330Y005863D01*
X012323Y005962D02*
X012377Y005962D01*
X012417Y006060D02*
X012283Y006060D01*
X012220Y006159D02*
X012480Y006159D01*
X012578Y006257D02*
X012122Y006257D01*
X011578Y006257D02*
X010096Y006257D01*
X010206Y006159D02*
X011480Y006159D01*
X011417Y006060D02*
X010272Y006060D01*
X010313Y005962D02*
X011377Y005962D01*
X011370Y005863D02*
X010320Y005863D01*
X010320Y005765D02*
X011370Y005765D01*
X011407Y005666D02*
X010283Y005666D01*
X010232Y005568D02*
X011454Y005568D01*
X011552Y005469D02*
X010134Y005469D01*
X005599Y005174D02*
X005101Y005174D01*
X005196Y005075D02*
X005504Y005075D01*
X005463Y004977D02*
X005237Y004977D01*
X005256Y004878D02*
X005444Y004878D01*
X005444Y004780D02*
X005256Y004780D01*
X005219Y004681D02*
X005481Y004681D01*
X005543Y004583D02*
X005157Y004583D01*
X004543Y004583D02*
X004157Y004583D01*
X004219Y004681D02*
X004481Y004681D01*
X004444Y004780D02*
X004256Y004780D01*
X004256Y004878D02*
X004444Y004878D01*
X004463Y004977D02*
X004237Y004977D01*
X004196Y005075D02*
X004504Y005075D01*
X004599Y005174D02*
X004101Y005174D01*
X003943Y005380D02*
X003757Y005380D01*
X003584Y005452D01*
X003452Y005584D01*
X003380Y005757D01*
X003380Y005943D01*
X003452Y006116D01*
X003584Y006248D01*
X003757Y006320D01*
X003943Y006320D01*
X004116Y006248D01*
X004248Y006116D01*
X004320Y005943D01*
X004320Y005757D01*
X004248Y005584D01*
X004116Y005452D01*
X003943Y005380D01*
X004134Y005469D02*
X004566Y005469D01*
X004584Y005452D02*
X004757Y005380D01*
X004943Y005380D01*
X005116Y005452D01*
X005248Y005584D01*
X005320Y005757D01*
X005320Y005943D01*
X005248Y006116D01*
X005116Y006248D01*
X004943Y006320D01*
X004757Y006320D01*
X004584Y006248D01*
X004452Y006116D01*
X004380Y005943D01*
X004380Y005757D01*
X004452Y005584D01*
X004584Y005452D01*
X004468Y005568D02*
X004232Y005568D01*
X004283Y005666D02*
X004417Y005666D01*
X004380Y005765D02*
X004320Y005765D01*
X004320Y005863D02*
X004380Y005863D01*
X004387Y005962D02*
X004313Y005962D01*
X004272Y006060D02*
X004428Y006060D01*
X004494Y006159D02*
X004206Y006159D01*
X004096Y006257D02*
X004604Y006257D01*
X005096Y006257D02*
X005604Y006257D01*
X005494Y006159D02*
X005206Y006159D01*
X005272Y006060D02*
X005428Y006060D01*
X005387Y005962D02*
X005313Y005962D01*
X005320Y005863D02*
X005380Y005863D01*
X005380Y005765D02*
X005320Y005765D01*
X005283Y005666D02*
X005417Y005666D01*
X005468Y005568D02*
X005232Y005568D01*
X005134Y005469D02*
X005566Y005469D01*
X003599Y005174D02*
X003101Y005174D01*
X003196Y005075D02*
X003504Y005075D01*
X003463Y004977D02*
X003237Y004977D01*
X003256Y004878D02*
X003444Y004878D01*
X003444Y004780D02*
X003256Y004780D01*
X003219Y004681D02*
X003481Y004681D01*
X003543Y004583D02*
X003157Y004583D01*
X003134Y005469D02*
X003566Y005469D01*
X003468Y005568D02*
X003232Y005568D01*
X003283Y005666D02*
X003417Y005666D01*
X003380Y005765D02*
X003320Y005765D01*
X003320Y005863D02*
X003380Y005863D01*
X003387Y005962D02*
X003313Y005962D01*
X003272Y006060D02*
X003428Y006060D01*
X003494Y006159D02*
X003206Y006159D01*
X003096Y006257D02*
X003604Y006257D01*
D19*
X009950Y004050D03*
X010150Y003150D03*
X006350Y002650D03*
M02*
