G75*
%MOIN*%
%OFA0B0*%
%FSLAX24Y24*%
%IPPOS*%
%LPD*%
%AMOC8*
5,1,8,0,0,1.08239X$1,22.5*
%
%ADD10C,0.0080*%
%ADD11C,0.0100*%
D10*
X000630Y000380D02*
X000380Y000630D01*
X000380Y001130D01*
X000630Y001380D01*
X000380Y001630D01*
X000380Y002130D01*
X000630Y002380D01*
X001130Y002380D01*
X001380Y002130D01*
X001380Y001630D01*
X001130Y001380D01*
X000630Y001380D01*
X001130Y001380D02*
X001380Y001130D01*
X001380Y000630D01*
X001130Y000380D01*
X000630Y000380D01*
X001620Y000690D02*
X001690Y000620D01*
X001900Y000620D01*
X001900Y001040D01*
X001690Y001040D01*
X001620Y000970D01*
X001620Y000690D01*
X002081Y000690D02*
X002081Y001040D01*
X002361Y001040D02*
X002361Y000690D01*
X002291Y000620D01*
X002151Y000620D01*
X002081Y000690D01*
X002541Y000620D02*
X002541Y000900D01*
X002681Y001040D01*
X002821Y000900D01*
X002821Y000620D01*
X002821Y000830D02*
X002541Y000830D01*
X002291Y001620D02*
X002151Y001620D01*
X002081Y001690D01*
X002081Y001830D01*
X002221Y001830D01*
X002361Y001690D02*
X002291Y001620D01*
X002361Y001690D02*
X002361Y001970D01*
X002291Y002040D01*
X002151Y002040D01*
X002081Y001970D01*
X001900Y001900D02*
X001760Y002040D01*
X001760Y001620D01*
X001900Y001620D02*
X001620Y001620D01*
X001130Y002380D02*
X001380Y002630D01*
X001380Y003130D01*
X001130Y003380D01*
X001380Y003630D01*
X001380Y004130D01*
X001130Y004380D01*
X001380Y004630D01*
X001380Y005130D01*
X001130Y005380D01*
X000630Y005380D01*
X000380Y005130D01*
X000380Y004630D01*
X000630Y004380D01*
X000380Y004130D01*
X000380Y003630D01*
X000630Y003380D01*
X000380Y003130D01*
X000380Y002630D01*
X000630Y002380D01*
X001620Y002690D02*
X001690Y002620D01*
X001830Y002620D01*
X001900Y002690D01*
X001900Y002760D01*
X001830Y002830D01*
X001690Y002830D01*
X001620Y002760D01*
X001620Y002690D01*
X001690Y002830D02*
X001620Y002900D01*
X001620Y002970D01*
X001690Y003040D01*
X001830Y003040D01*
X001900Y002970D01*
X001900Y002900D01*
X001830Y002830D01*
X002081Y002830D02*
X002221Y002830D01*
X002081Y002830D02*
X002081Y002690D01*
X002151Y002620D01*
X002291Y002620D01*
X002361Y002690D01*
X002361Y002970D01*
X002291Y003040D01*
X002151Y003040D01*
X002081Y002970D01*
X002737Y002730D02*
X002737Y002590D01*
X002807Y002520D01*
X003017Y002520D01*
X003017Y002380D02*
X003017Y002800D01*
X002807Y002800D01*
X002737Y002730D01*
X003197Y002730D02*
X003197Y002520D01*
X003338Y002520D02*
X003338Y002730D01*
X003267Y002800D01*
X003197Y002730D01*
X003338Y002730D02*
X003408Y002800D01*
X003478Y002800D01*
X003478Y002520D01*
X003658Y002520D02*
X003658Y002800D01*
X003798Y002940D01*
X003938Y002800D01*
X003938Y002520D01*
X004118Y002660D02*
X004398Y002660D01*
X004398Y002590D02*
X004398Y002730D01*
X004328Y002800D01*
X004188Y002800D01*
X004118Y002730D01*
X004118Y002660D01*
X003938Y002730D02*
X003658Y002730D01*
X004188Y002520D02*
X004328Y002520D01*
X004398Y002590D01*
X004579Y002660D02*
X004859Y002660D01*
X004859Y002590D02*
X004859Y002730D01*
X004789Y002800D01*
X004649Y002800D01*
X004579Y002730D01*
X004579Y002660D01*
X004649Y002520D02*
X004789Y002520D01*
X004859Y002590D01*
X005039Y002520D02*
X005319Y002520D01*
X005319Y002590D01*
X005039Y002870D01*
X005039Y002940D01*
X005319Y002940D01*
X005499Y002730D02*
X005569Y002800D01*
X005710Y002800D01*
X005780Y002730D01*
X005780Y002590D01*
X005710Y002520D01*
X005569Y002520D01*
X005499Y002660D02*
X005780Y002660D01*
X005960Y002660D02*
X006240Y002660D01*
X006240Y002590D02*
X006240Y002730D01*
X006170Y002800D01*
X006030Y002800D01*
X005960Y002730D01*
X005960Y002660D01*
X006030Y002520D02*
X006170Y002520D01*
X006240Y002590D01*
X006420Y002540D02*
X006700Y002540D01*
X006840Y002400D01*
X006700Y002260D01*
X006420Y002260D01*
X006490Y002080D02*
X006770Y002080D01*
X006840Y002010D01*
X006840Y001869D01*
X006770Y001799D01*
X006490Y001799D01*
X006420Y001869D01*
X006420Y002010D01*
X006490Y002080D01*
X007026Y002040D02*
X007026Y001720D01*
X007133Y001827D01*
X007240Y001720D01*
X007240Y002040D01*
X007380Y002380D02*
X007380Y001380D01*
X007680Y001380D01*
X007380Y001080D01*
X007380Y000680D01*
X007680Y000380D01*
X008080Y000380D01*
X008380Y000680D01*
X008380Y001080D01*
X008080Y001380D01*
X007680Y001380D01*
X008080Y001380D02*
X008380Y001380D01*
X008380Y002380D01*
X008080Y002380D01*
X007680Y002380D01*
X007380Y002380D01*
X007380Y002680D02*
X007680Y002380D01*
X008080Y002380D02*
X008380Y002680D01*
X008380Y003080D01*
X008080Y003380D01*
X007680Y003380D01*
X007380Y003080D01*
X007380Y002680D01*
X007240Y002880D02*
X007026Y002880D01*
X007630Y003380D02*
X007680Y003380D01*
X007630Y003380D02*
X007380Y003630D01*
X007380Y004130D01*
X007630Y004380D01*
X008130Y004380D01*
X008380Y004130D01*
X008380Y003630D01*
X008130Y003380D01*
X008080Y003380D01*
X007240Y003790D02*
X007170Y003720D01*
X007030Y003720D01*
X006960Y003790D01*
X006960Y003860D01*
X007030Y003930D01*
X007170Y003930D01*
X007240Y004000D01*
X007240Y004070D01*
X007170Y004140D01*
X007030Y004140D01*
X006960Y004070D01*
X006780Y004140D02*
X006569Y004140D01*
X006499Y004070D01*
X006499Y003930D01*
X006569Y003860D01*
X006780Y003860D01*
X006780Y003720D02*
X006780Y004140D01*
X006319Y003930D02*
X006039Y003930D01*
X005430Y003730D02*
X005280Y003730D01*
X005280Y003880D01*
X005280Y003730D02*
X005130Y003730D01*
X005280Y003730D02*
X005280Y003580D01*
X003680Y004380D02*
X003682Y004446D01*
X003688Y004511D01*
X003698Y004576D01*
X003711Y004641D01*
X003729Y004704D01*
X003750Y004767D01*
X003775Y004827D01*
X003804Y004887D01*
X003836Y004944D01*
X003871Y005000D01*
X003910Y005053D01*
X003952Y005104D01*
X003996Y005152D01*
X004044Y005197D01*
X004094Y005240D01*
X004147Y005279D01*
X004202Y005316D01*
X004259Y005349D01*
X004318Y005378D01*
X004378Y005404D01*
X004440Y005426D01*
X004503Y005445D01*
X004567Y005459D01*
X004632Y005470D01*
X004698Y005477D01*
X004764Y005480D01*
X004829Y005479D01*
X004895Y005474D01*
X004960Y005465D01*
X005025Y005452D01*
X005088Y005436D01*
X005151Y005416D01*
X005212Y005391D01*
X005272Y005364D01*
X005330Y005333D01*
X005386Y005298D01*
X005440Y005260D01*
X005491Y005219D01*
X005540Y005175D01*
X005586Y005128D01*
X005630Y005079D01*
X005670Y005027D01*
X005707Y004972D01*
X005741Y004916D01*
X005771Y004857D01*
X005798Y004797D01*
X005821Y004736D01*
X005840Y004673D01*
X005856Y004609D01*
X005868Y004544D01*
X005876Y004479D01*
X005880Y004413D01*
X005880Y004347D01*
X005876Y004281D01*
X005868Y004216D01*
X005856Y004151D01*
X005840Y004087D01*
X005821Y004024D01*
X005798Y003963D01*
X005771Y003903D01*
X005741Y003844D01*
X005707Y003788D01*
X005670Y003733D01*
X005630Y003681D01*
X005586Y003632D01*
X005540Y003585D01*
X005491Y003541D01*
X005440Y003500D01*
X005386Y003462D01*
X005330Y003427D01*
X005272Y003396D01*
X005212Y003369D01*
X005151Y003344D01*
X005088Y003324D01*
X005025Y003308D01*
X004960Y003295D01*
X004895Y003286D01*
X004829Y003281D01*
X004764Y003280D01*
X004698Y003283D01*
X004632Y003290D01*
X004567Y003301D01*
X004503Y003315D01*
X004440Y003334D01*
X004378Y003356D01*
X004318Y003382D01*
X004259Y003411D01*
X004202Y003444D01*
X004147Y003481D01*
X004094Y003520D01*
X004044Y003563D01*
X003996Y003608D01*
X003952Y003656D01*
X003910Y003707D01*
X003871Y003760D01*
X003836Y003816D01*
X003804Y003873D01*
X003775Y003933D01*
X003750Y003993D01*
X003729Y004056D01*
X003711Y004119D01*
X003698Y004184D01*
X003688Y004249D01*
X003682Y004314D01*
X003680Y004380D01*
X002821Y004690D02*
X002751Y004620D01*
X002611Y004620D01*
X002541Y004690D01*
X002541Y004830D01*
X002681Y004830D01*
X002821Y004970D02*
X002821Y004690D01*
X002821Y004970D02*
X002751Y005040D01*
X002611Y005040D01*
X002541Y004970D01*
X002361Y005040D02*
X002081Y004620D01*
X002081Y005040D01*
X001900Y005040D02*
X001690Y005040D01*
X001620Y004970D01*
X001620Y004690D01*
X001690Y004620D01*
X001900Y004620D01*
X001900Y005040D01*
X002361Y005040D02*
X002361Y004620D01*
X002291Y004040D02*
X002151Y004040D01*
X002081Y003970D01*
X001900Y003970D02*
X001830Y004040D01*
X001690Y004040D01*
X001620Y003970D01*
X001900Y003970D02*
X001900Y003690D01*
X001830Y003620D01*
X001690Y003620D01*
X001620Y003690D01*
X002081Y003690D02*
X002151Y003620D01*
X002291Y003620D01*
X002361Y003690D01*
X002361Y003970D01*
X002291Y004040D01*
X002541Y004040D02*
X002541Y003760D01*
X002681Y003620D01*
X002821Y003760D01*
X002821Y004040D01*
X001130Y004380D02*
X000630Y004380D01*
X000630Y003380D02*
X001130Y003380D01*
X003002Y002140D02*
X003002Y001820D01*
X003108Y001820D02*
X002895Y001820D01*
X003108Y002034D02*
X003002Y002140D01*
X003239Y001873D02*
X003239Y001820D01*
X003292Y001820D01*
X003292Y001873D01*
X003239Y001873D01*
X003447Y001873D02*
X003501Y001820D01*
X003607Y001820D01*
X003661Y001873D01*
X003447Y002087D01*
X003447Y001873D01*
X003661Y001873D02*
X003661Y002087D01*
X003607Y002140D01*
X003501Y002140D01*
X003447Y002087D01*
X003816Y002087D02*
X003816Y001980D01*
X003869Y001927D01*
X004029Y001927D01*
X003922Y001927D02*
X003816Y001820D01*
X004029Y001820D02*
X004029Y002140D01*
X003869Y002140D01*
X003816Y002087D01*
X005499Y002660D02*
X005499Y002730D01*
X006420Y001619D02*
X006840Y001619D01*
X006840Y001339D01*
X007133Y000987D02*
X007133Y000773D01*
X007240Y000880D02*
X007026Y000880D01*
X007630Y004380D02*
X007380Y004630D01*
X007380Y005130D01*
X007630Y005380D01*
X008130Y005380D01*
X008380Y005130D01*
X008380Y004630D01*
X008130Y004380D01*
X007240Y004690D02*
X007170Y004620D01*
X007030Y004620D01*
X006960Y004690D01*
X006960Y004760D01*
X007030Y004830D01*
X007170Y004830D01*
X007240Y004900D01*
X007240Y004970D01*
X007170Y005040D01*
X007030Y005040D01*
X006960Y004970D01*
X006780Y005040D02*
X006569Y005040D01*
X006499Y004970D01*
X006499Y004830D01*
X006569Y004760D01*
X006780Y004760D01*
X006780Y004620D02*
X006780Y005040D01*
X006319Y004830D02*
X006039Y004830D01*
X006179Y004970D02*
X006179Y004690D01*
D11*
X005302Y002273D02*
X005058Y002273D01*
X005025Y001950D01*
X004917Y001915D01*
X004816Y001863D01*
X004564Y002068D01*
X004392Y001896D01*
X004597Y001644D01*
X004545Y001543D01*
X004510Y001435D01*
X004187Y001402D01*
X004187Y001158D01*
X004510Y001125D01*
X004545Y001017D01*
X004597Y000916D01*
X004392Y000664D01*
X004564Y000492D01*
X004816Y000697D01*
X004917Y000645D01*
X005060Y000991D01*
X005004Y001022D01*
X004955Y001063D01*
X004915Y001114D01*
X004887Y001171D01*
X004871Y001233D01*
X004868Y001298D01*
X004878Y001361D01*
X004901Y001421D01*
X004936Y001475D01*
X004981Y001521D01*
X005034Y001556D01*
X005093Y001580D01*
X005157Y001592D01*
X005221Y001590D01*
X005283Y001575D01*
X005341Y001548D01*
X005393Y001509D01*
X005435Y001461D01*
X005466Y001405D01*
X005486Y001344D01*
X005493Y001280D01*
X005486Y001219D01*
X005469Y001160D01*
X005440Y001106D01*
X005401Y001059D01*
X005354Y001020D01*
X005300Y000991D01*
X005443Y000645D01*
X005544Y000697D01*
X005796Y000492D01*
X005968Y000664D01*
X005763Y000916D01*
X005815Y001017D01*
X005850Y001125D01*
X006173Y001158D01*
X006173Y001402D01*
X005850Y001435D01*
X005815Y001543D01*
X005763Y001644D01*
X005968Y001896D01*
X005796Y002068D01*
X005544Y001863D01*
X005443Y001915D01*
X005335Y001950D01*
X005302Y002273D01*
X005304Y002249D02*
X005056Y002249D01*
X005046Y002150D02*
X005314Y002150D01*
X005324Y002052D02*
X005036Y002052D01*
X005026Y001953D02*
X005334Y001953D01*
X005655Y001953D02*
X005911Y001953D01*
X005934Y001855D02*
X004426Y001855D01*
X004449Y001953D02*
X004705Y001953D01*
X004585Y002052D02*
X004548Y002052D01*
X004506Y001756D02*
X005854Y001756D01*
X005774Y001658D02*
X004586Y001658D01*
X004553Y001559D02*
X005041Y001559D01*
X004926Y001461D02*
X004518Y001461D01*
X004187Y001362D02*
X004879Y001362D01*
X004870Y001264D02*
X004187Y001264D01*
X004187Y001165D02*
X004890Y001165D01*
X004952Y001067D02*
X004529Y001067D01*
X004570Y000968D02*
X005051Y000968D01*
X005010Y000870D02*
X004559Y000870D01*
X004479Y000771D02*
X004969Y000771D01*
X004928Y000673D02*
X004863Y000673D01*
X004786Y000673D02*
X004399Y000673D01*
X004482Y000574D02*
X004665Y000574D01*
X005350Y000870D02*
X005801Y000870D01*
X005790Y000968D02*
X005309Y000968D01*
X005407Y001067D02*
X005831Y001067D01*
X006173Y001165D02*
X005470Y001165D01*
X005491Y001264D02*
X006173Y001264D01*
X006173Y001362D02*
X005480Y001362D01*
X005435Y001461D02*
X005842Y001461D01*
X005807Y001559D02*
X005317Y001559D01*
X005775Y002052D02*
X005812Y002052D01*
X005881Y000771D02*
X005391Y000771D01*
X005432Y000673D02*
X005497Y000673D01*
X005574Y000673D02*
X005961Y000673D01*
X005878Y000574D02*
X005695Y000574D01*
M02*
