%
M48
M72
T01C0.0130
T02C0.0320
T03C0.0400
T04C0.0472
%
T01
X4846Y2651
X9749Y3133
X10040Y2281
X10440Y505
X13434Y4136
X14516Y5381
X10916Y6305
X10752Y5905
X8740Y6305
X6601Y5805
X6479Y5366
X5888Y6562
X5731Y7664
X3507Y6132
X3507Y5366
X10440Y9305
T02
X14310Y5855
X14310Y3955
T03
X940Y905
X1940Y905
X2940Y905
X3940Y905
X4940Y905
X5940Y905
X6940Y905
X7940Y905
X8940Y905
X9940Y905
X10940Y905
X11940Y905
X12940Y905
X13940Y905
X14940Y905
X15940Y905
X16940Y905
X17940Y905
X17940Y8905
X16940Y8905
X15940Y8905
X14940Y8905
X13940Y8905
X12940Y8905
X11940Y8905
X10940Y8905
X9940Y8905
X8940Y8905
X7940Y8905
X6940Y8905
X5940Y8905
X4940Y8905
X3940Y8905
X2940Y8905
X1940Y8905
X940Y8905
X1940Y7405
X1940Y6405
X940Y6405
X940Y5405
X1940Y5405
X1940Y4405
X940Y4405
X940Y3405
X1940Y3405
X1940Y2405
T04
X16240Y3527
X16240Y6283
M30
