G75*
G70*
%OFA0B0*%
%FSLAX24Y24*%
%IPPOS*%
%LPD*%
%AMOC8*
5,1,8,0,0,1.08239X$1,22.5*
%
%ADD10OC8,0.0540*%
%ADD11OC8,0.0660*%
%ADD12R,0.0769X0.0690*%
%ADD13OC8,0.0769*%
%ADD14R,0.0940X0.0540*%
%ADD15R,0.0926X0.1477*%
%ADD16R,0.0847X0.0769*%
%ADD17R,0.0310X0.0560*%
%ADD18R,0.0560X0.0310*%
D10*
X014310Y003890D03*
X014310Y005790D03*
D11*
X000940Y000840D03*
X001940Y000840D03*
X002940Y000840D03*
X003940Y000840D03*
X004940Y000840D03*
X005940Y000840D03*
X006940Y000840D03*
X007940Y000840D03*
X008940Y000840D03*
X009940Y000840D03*
X010940Y000840D03*
X011940Y000840D03*
X012940Y000840D03*
X013940Y000840D03*
X014940Y000840D03*
X015940Y000840D03*
X016940Y000840D03*
X017940Y000840D03*
X017940Y008840D03*
X016940Y008840D03*
X015940Y008840D03*
X014940Y008840D03*
X013940Y008840D03*
X012940Y008840D03*
X011940Y008840D03*
X010940Y008840D03*
X009940Y008840D03*
X008940Y008840D03*
X007940Y008840D03*
X006940Y008840D03*
X005940Y008840D03*
X004940Y008840D03*
X003940Y008840D03*
X002940Y008840D03*
X001940Y008840D03*
X000940Y008840D03*
X001940Y007340D03*
X001940Y006340D03*
X000940Y006340D03*
X000940Y005340D03*
X001940Y005340D03*
X001940Y004340D03*
X000940Y004340D03*
X000940Y003340D03*
X001940Y003340D03*
X001940Y002340D03*
D12*
X007740Y006589D03*
X008890Y006589D03*
X008890Y007691D03*
X007740Y007691D03*
D13*
X016240Y006218D03*
X016240Y003462D03*
D14*
X007720Y003630D03*
X007720Y004540D03*
X007720Y005450D03*
D15*
X010160Y004540D03*
D16*
X005337Y004640D03*
X003743Y004640D03*
X003743Y003640D03*
X005337Y003640D03*
D17*
X004192Y002540D03*
X003837Y002540D03*
X014830Y004640D03*
X015180Y004640D03*
X015530Y004640D03*
D18*
X006636Y004645D03*
X006636Y004290D03*
M02*
