G75*
G70*
%OFA0B0*%
%FSLAX24Y24*%
%IPPOS*%
%LPD*%
%AMOC8*
5,1,8,0,0,1.08239X$1,22.5*
%
%ADD10C,0.0480*%
%ADD11C,0.0660*%
%ADD12C,0.0591*%
%ADD13C,0.0600*%
%ADD14C,0.0100*%
D10*
X001680Y002180D03*
X002680Y002180D03*
X003680Y002180D03*
X004680Y002180D03*
X004680Y005180D03*
X003680Y005180D03*
X002680Y005180D03*
X001680Y005180D03*
D11*
X006680Y005480D03*
X007680Y005480D03*
X007680Y004480D03*
X006680Y004480D03*
X006680Y006480D03*
X007680Y006480D03*
D12*
X008260Y002466D03*
X008260Y000694D03*
X005700Y000694D03*
X005700Y002466D03*
D13*
X001680Y001180D03*
X002680Y001180D03*
X003680Y001180D03*
X004680Y001180D03*
X004680Y006180D03*
X003680Y006180D03*
X002680Y006180D03*
X001680Y006180D03*
D14*
X001680Y005180D01*
X002680Y005180D02*
X002680Y004880D01*
X003080Y004480D01*
X005680Y004480D01*
X006680Y005480D01*
X007180Y005980D02*
X005580Y005980D01*
X005380Y006180D01*
X004680Y006180D01*
X004680Y005180D01*
X003680Y005180D02*
X003680Y006180D01*
X004380Y006880D01*
X006280Y006880D01*
X006680Y006480D01*
X007180Y005980D02*
X007680Y005480D01*
X006680Y004480D02*
X005700Y003500D01*
X005700Y002466D01*
X005394Y002466D01*
X004680Y003180D01*
X002180Y003180D01*
X001680Y002680D01*
X001680Y002180D01*
X001680Y001180D01*
X002680Y001180D02*
X002680Y002180D01*
X003680Y002180D02*
X003680Y001180D01*
X005700Y002466D02*
X008260Y002466D01*
X002680Y005180D02*
X002680Y006180D01*
M02*
