G75*
G70*
%OFA0B0*%
%FSLAX24Y24*%
%IPPOS*%
%LPD*%
%AMOC8*
5,1,8,0,0,1.08239X$1,22.5*
%
%ADD10C,0.0080*%
%ADD11C,0.0160*%
D10*
X000350Y002250D02*
X004350Y002250D01*
X004350Y004450D01*
X000350Y004450D01*
X000350Y003600D01*
X000380Y003598D01*
X000410Y003593D01*
X000439Y003584D01*
X000466Y003571D01*
X000492Y003556D01*
X000516Y003537D01*
X000537Y003516D01*
X000556Y003492D01*
X000571Y003466D01*
X000584Y003439D01*
X000593Y003410D01*
X000598Y003380D01*
X000600Y003350D01*
X000598Y003320D01*
X000593Y003290D01*
X000584Y003261D01*
X000571Y003234D01*
X000556Y003208D01*
X000537Y003184D01*
X000516Y003163D01*
X000492Y003144D01*
X000466Y003129D01*
X000439Y003116D01*
X000410Y003107D01*
X000380Y003102D01*
X000350Y003100D01*
X000350Y002250D01*
X000990Y002690D02*
X001204Y002904D01*
X001204Y002957D01*
X001150Y003010D01*
X001043Y003010D01*
X000990Y002957D01*
X000990Y002690D02*
X001204Y002690D01*
X001358Y002743D02*
X001412Y002690D01*
X001518Y002690D01*
X001572Y002743D01*
X001572Y002850D01*
X001518Y002904D01*
X001465Y002904D01*
X001358Y002850D01*
X001358Y003010D01*
X001572Y003010D01*
X001727Y002690D02*
X001940Y003010D01*
X002095Y002850D02*
X002308Y002850D01*
X002463Y002850D02*
X002463Y003010D01*
X002677Y003010D01*
X002623Y002904D02*
X002677Y002850D01*
X002677Y002743D01*
X002623Y002690D01*
X002517Y002690D01*
X002463Y002743D01*
X002463Y002850D02*
X002570Y002904D01*
X002623Y002904D01*
X002832Y002690D02*
X003045Y003010D01*
X003200Y002957D02*
X003200Y002904D01*
X003253Y002850D01*
X003360Y002850D01*
X003413Y002797D01*
X003413Y002743D01*
X003360Y002690D01*
X003253Y002690D01*
X003200Y002743D01*
X003200Y002797D01*
X003253Y002850D01*
X003360Y002850D02*
X003413Y002904D01*
X003413Y002957D01*
X003360Y003010D01*
X003253Y003010D01*
X003200Y002957D01*
X003568Y003010D02*
X003568Y002850D01*
X003675Y002904D01*
X003728Y002904D01*
X003782Y002850D01*
X003782Y002743D01*
X003728Y002690D01*
X003622Y002690D01*
X003568Y002743D01*
X003568Y003010D02*
X003782Y003010D01*
X003728Y003290D02*
X003622Y003290D01*
X003568Y003343D01*
X003675Y003450D02*
X003728Y003450D01*
X003782Y003397D01*
X003782Y003343D01*
X003728Y003290D01*
X003728Y003450D02*
X003782Y003504D01*
X003782Y003557D01*
X003728Y003610D01*
X003622Y003610D01*
X003568Y003557D01*
X003307Y003610D02*
X003307Y003290D01*
X003413Y003290D02*
X003200Y003290D01*
X003200Y003504D02*
X003307Y003610D01*
X003146Y003793D02*
X003093Y003793D01*
X003146Y003793D02*
X003200Y003847D01*
X003200Y004114D01*
X002986Y004114D02*
X002986Y003953D01*
X003039Y003900D01*
X003200Y003900D01*
X003045Y003610D02*
X002832Y003290D01*
X002677Y003290D02*
X002463Y003290D01*
X002677Y003504D01*
X002677Y003557D01*
X002623Y003610D01*
X002517Y003610D01*
X002463Y003557D01*
X002202Y003610D02*
X002202Y003290D01*
X002308Y003290D02*
X002095Y003290D01*
X002095Y003504D02*
X002202Y003610D01*
X001940Y003610D02*
X001727Y003290D01*
X001572Y003290D02*
X001358Y003290D01*
X001465Y003290D02*
X001465Y003610D01*
X001358Y003504D01*
X001204Y003290D02*
X000990Y003290D01*
X001097Y003290D02*
X001097Y003610D01*
X000990Y003504D01*
X001390Y003900D02*
X001390Y004114D01*
X001497Y004220D01*
X001604Y004114D01*
X001604Y003900D01*
X001604Y004060D02*
X001390Y004060D01*
X001758Y004220D02*
X001972Y004220D01*
X001865Y004220D02*
X001865Y003900D01*
X002127Y004114D02*
X002233Y004114D01*
X002180Y004167D02*
X002180Y003953D01*
X002233Y003900D01*
X002372Y003900D02*
X002479Y003900D01*
X002426Y003900D02*
X002426Y004114D01*
X002372Y004114D01*
X002426Y004220D02*
X002426Y004274D01*
X002618Y004114D02*
X002778Y004114D01*
X002831Y004060D01*
X002831Y003900D01*
X002618Y003900D02*
X002618Y004114D01*
X002255Y003010D02*
X002095Y002850D01*
X002255Y002690D02*
X002255Y003010D01*
X004690Y003010D02*
X004690Y002690D01*
X004690Y002797D02*
X004850Y002797D01*
X004904Y002850D01*
X004904Y002957D01*
X004850Y003010D01*
X004690Y003010D01*
X004797Y002797D02*
X004904Y002690D01*
X005058Y002743D02*
X005058Y002850D01*
X005112Y002904D01*
X005218Y002904D01*
X005272Y002850D01*
X005272Y002797D01*
X005058Y002797D01*
X005058Y002743D02*
X005112Y002690D01*
X005218Y002690D01*
X005427Y002904D02*
X005533Y002690D01*
X005640Y002904D01*
X006163Y002957D02*
X006163Y002743D01*
X006377Y002957D01*
X006377Y002743D01*
X006323Y002690D01*
X006217Y002690D01*
X006163Y002743D01*
X006163Y002957D02*
X006217Y003010D01*
X006323Y003010D01*
X006377Y002957D01*
X006532Y002743D02*
X006585Y002743D01*
X006585Y002690D01*
X006532Y002690D01*
X006532Y002743D01*
X006716Y002743D02*
X006769Y002690D01*
X006876Y002690D01*
X006929Y002743D01*
X006929Y002797D01*
X006876Y002850D01*
X006822Y002850D01*
X006876Y002850D02*
X006929Y002904D01*
X006929Y002957D01*
X006876Y003010D01*
X006769Y003010D01*
X006716Y002957D01*
X007084Y002904D02*
X007084Y002690D01*
X007084Y002850D02*
X007298Y002850D01*
X007298Y002904D02*
X007298Y002690D01*
X007298Y002904D02*
X007191Y003010D01*
X007084Y002904D01*
X007590Y002891D02*
X007590Y002611D01*
X007800Y002431D02*
X007870Y002431D01*
X007870Y002150D01*
X007940Y002150D02*
X007800Y002150D01*
X007730Y002220D01*
X007730Y002361D01*
X007800Y002431D01*
X007940Y002611D02*
X008010Y002611D01*
X008010Y002891D01*
X007940Y003071D02*
X007800Y003071D01*
X007730Y003141D01*
X007730Y003281D01*
X007800Y003351D01*
X007870Y003351D01*
X007870Y003071D01*
X007940Y003071D02*
X008010Y003141D01*
X008010Y003281D01*
X007940Y003532D02*
X007800Y003532D01*
X007730Y003602D01*
X007730Y003742D01*
X007800Y003812D01*
X007870Y003812D01*
X007870Y003532D01*
X007940Y003532D02*
X008010Y003602D01*
X008010Y003742D01*
X007350Y003350D02*
X007350Y006350D01*
X005350Y006350D01*
X005350Y003350D01*
X007350Y003350D01*
X007590Y002891D02*
X007660Y002891D01*
X007940Y002611D01*
X008010Y002361D02*
X008010Y002220D01*
X007940Y002150D01*
X007870Y001970D02*
X007800Y001970D01*
X007730Y001900D01*
X007730Y001760D01*
X007800Y001690D01*
X007940Y001690D01*
X008010Y001760D01*
X008010Y001900D01*
X007870Y001970D02*
X007870Y001690D01*
X007531Y001719D02*
X007531Y001483D01*
X007531Y001739D02*
X005169Y001739D01*
X005169Y001719D02*
X005169Y001483D01*
X005759Y001345D02*
X006941Y001345D01*
X006941Y000755D01*
X005759Y000755D01*
X005759Y001345D01*
X005844Y001990D02*
X005774Y002060D01*
X005774Y002200D01*
X005844Y002270D01*
X005984Y002270D01*
X006054Y002200D01*
X006054Y002130D01*
X005774Y002130D01*
X005844Y001990D02*
X005984Y001990D01*
X006234Y001990D02*
X006444Y001990D01*
X006514Y002060D01*
X006444Y002130D01*
X006304Y002130D01*
X006234Y002200D01*
X006304Y002270D01*
X006514Y002270D01*
X006694Y002200D02*
X006765Y002270D01*
X006905Y002270D01*
X006975Y002200D01*
X006975Y002130D01*
X006694Y002130D01*
X006694Y002060D02*
X006694Y002200D01*
X006694Y002060D02*
X006765Y001990D01*
X006905Y001990D01*
X007225Y002060D02*
X007295Y001990D01*
X007225Y002060D02*
X007225Y002340D01*
X007155Y002270D02*
X007295Y002270D01*
X005600Y002270D02*
X005530Y002270D01*
X005390Y002130D01*
X005390Y001990D02*
X005390Y002270D01*
X005169Y000617D02*
X005169Y000381D01*
X005169Y000361D02*
X007531Y000361D01*
X007531Y000381D02*
X007531Y000617D01*
X007590Y004452D02*
X007590Y004733D01*
X007590Y004592D02*
X008010Y004592D01*
X008010Y004913D02*
X008010Y005053D01*
X008010Y004983D02*
X007730Y004983D01*
X007730Y004913D01*
X007590Y004983D02*
X007520Y004983D01*
X007730Y005220D02*
X007730Y005430D01*
X007800Y005500D01*
X008010Y005500D01*
X007940Y005680D02*
X008010Y005750D01*
X008010Y005960D01*
X008080Y005960D02*
X008150Y005890D01*
X008150Y005820D01*
X008080Y005960D02*
X007730Y005960D01*
X007730Y005680D02*
X007940Y005680D01*
X008010Y005220D02*
X007730Y005220D01*
D11*
X005350Y005222D02*
X004950Y005222D01*
X004950Y005350D02*
X004950Y004350D01*
X005350Y004350D01*
X005350Y005350D01*
X004950Y005350D01*
X004950Y005064D02*
X005350Y005064D01*
X005350Y004905D02*
X004950Y004905D01*
X004950Y004747D02*
X005350Y004747D01*
X005350Y004588D02*
X004950Y004588D01*
X004950Y004430D02*
X005350Y004430D01*
M02*
