G75*
G70*
%OFA0B0*%
%FSLAX24Y24*%
%IPPOS*%
%LPD*%
%AMOC8*
5,1,8,0,0,1.08239X$1,22.5*
%
%ADD10R,0.0394X0.0433*%
%ADD11C,0.0480*%
%ADD12R,0.0945X0.0630*%
%ADD13C,0.0660*%
%ADD14C,0.0600*%
%ADD15C,0.0709*%
%ADD16C,0.0160*%
D10*
X000780Y003445D03*
X000780Y004115D03*
X005145Y003180D03*
X005815Y003180D03*
D11*
X003880Y001880D03*
X002880Y001880D03*
X001880Y001880D03*
X000880Y001880D03*
X000880Y004880D03*
X001880Y004880D03*
X002880Y004880D03*
X003880Y004880D03*
D12*
X001880Y003971D03*
X001880Y002789D03*
D13*
X005880Y003880D03*
X006880Y003880D03*
X006880Y004880D03*
X005880Y004880D03*
X005880Y005880D03*
X006880Y005880D03*
D14*
X003880Y005880D03*
X002880Y005880D03*
X001880Y005880D03*
X000880Y005880D03*
X000880Y000880D03*
X001880Y000880D03*
X002880Y000880D03*
X003880Y000880D03*
D15*
X005002Y001080D03*
X007758Y001080D03*
D16*
X000360Y000360D02*
X000360Y006400D01*
X008700Y006400D01*
X008700Y000360D01*
X000360Y000360D01*
X000360Y000497D02*
X000655Y000497D01*
X000631Y000507D02*
X000792Y000440D01*
X000968Y000440D01*
X001129Y000507D01*
X001253Y000631D01*
X001320Y000792D01*
X001320Y000968D01*
X001253Y001129D01*
X001129Y001253D01*
X000968Y001320D01*
X000792Y001320D01*
X000631Y001253D01*
X000507Y001129D01*
X000440Y000968D01*
X000440Y000792D01*
X000507Y000631D01*
X000631Y000507D01*
X000497Y000656D02*
X000360Y000656D01*
X000360Y000814D02*
X000440Y000814D01*
X000442Y000973D02*
X000360Y000973D01*
X000360Y001131D02*
X000509Y001131D01*
X000360Y001290D02*
X000719Y001290D01*
X000804Y001500D02*
X000956Y001500D01*
X001095Y001558D01*
X001202Y001665D01*
X001260Y001804D01*
X001260Y001956D01*
X001202Y002095D01*
X001095Y002202D01*
X000956Y002260D01*
X000804Y002260D01*
X000665Y002202D01*
X000558Y002095D01*
X000500Y001956D01*
X000500Y001804D01*
X000558Y001665D01*
X000665Y001558D01*
X000804Y001500D01*
X000616Y001607D02*
X000360Y001607D01*
X000360Y001448D02*
X004671Y001448D01*
X004722Y001499D02*
X004583Y001360D01*
X004508Y001178D01*
X004508Y000982D01*
X004583Y000800D01*
X004722Y000661D01*
X004904Y000586D01*
X005100Y000586D01*
X005282Y000661D01*
X005421Y000800D01*
X005496Y000982D01*
X005496Y001178D01*
X005421Y001360D01*
X005282Y001499D01*
X005200Y001533D01*
X005200Y001889D01*
X006035Y002724D01*
X006035Y002823D01*
X006069Y002823D01*
X006151Y002905D01*
X006151Y003455D01*
X006131Y003475D01*
X006146Y003482D01*
X006278Y003614D01*
X006350Y003787D01*
X006350Y003973D01*
X006278Y004146D01*
X006265Y004160D01*
X006271Y004160D01*
X006400Y004289D01*
X006600Y004489D01*
X006600Y004495D01*
X006614Y004482D01*
X006787Y004410D01*
X006973Y004410D01*
X007146Y004482D01*
X007278Y004614D01*
X007350Y004787D01*
X007350Y004973D01*
X007278Y005146D01*
X007146Y005278D01*
X006973Y005350D01*
X006787Y005350D01*
X006614Y005278D01*
X006600Y005265D01*
X006600Y005289D01*
X006740Y005429D01*
X006787Y005410D01*
X006973Y005410D01*
X007146Y005482D01*
X007278Y005614D01*
X007350Y005787D01*
X007350Y005973D01*
X007278Y006146D01*
X007146Y006278D01*
X006973Y006350D01*
X006787Y006350D01*
X006614Y006278D01*
X006482Y006146D01*
X006410Y005973D01*
X006410Y005787D01*
X006429Y005740D01*
X006289Y005600D01*
X006160Y005471D01*
X006160Y005265D01*
X006146Y005278D01*
X005973Y005350D01*
X005787Y005350D01*
X005614Y005278D01*
X005482Y005146D01*
X005410Y004973D01*
X005410Y004787D01*
X005482Y004614D01*
X005495Y004600D01*
X005389Y004600D01*
X004925Y004136D01*
X004925Y003537D01*
X004891Y003537D01*
X004809Y003455D01*
X004809Y003400D01*
X003571Y003400D01*
X002781Y004191D01*
X002492Y004191D01*
X002492Y004344D01*
X002410Y004426D01*
X001350Y004426D01*
X001268Y004344D01*
X001268Y004200D01*
X001117Y004200D01*
X001117Y004389D01*
X001100Y004406D01*
X001100Y004563D01*
X001202Y004665D01*
X001260Y004804D01*
X001260Y004956D01*
X001202Y005095D01*
X001095Y005202D01*
X000956Y005260D01*
X000804Y005260D01*
X000665Y005202D01*
X000558Y005095D01*
X000500Y004956D01*
X000500Y004804D01*
X000558Y004665D01*
X000660Y004563D01*
X000660Y004471D01*
X000525Y004471D01*
X000443Y004389D01*
X000443Y003840D01*
X000476Y003808D01*
X000473Y003806D01*
X000439Y003772D01*
X000415Y003731D01*
X000403Y003686D01*
X000403Y003464D01*
X000762Y003464D01*
X000762Y003427D01*
X000798Y003427D01*
X000798Y003049D01*
X001001Y003049D01*
X001046Y003061D01*
X001087Y003085D01*
X001121Y003118D01*
X001145Y003159D01*
X001157Y003205D01*
X001157Y003427D01*
X000798Y003427D01*
X000798Y003464D01*
X001157Y003464D01*
X001157Y003686D01*
X001145Y003731D01*
X001128Y003760D01*
X001268Y003760D01*
X001268Y003598D01*
X001350Y003516D01*
X002410Y003516D01*
X002492Y003598D01*
X002492Y003751D01*
X002598Y003751D01*
X003260Y003089D01*
X003389Y002960D01*
X004809Y002960D01*
X004809Y002905D01*
X004891Y002823D01*
X005400Y002823D01*
X005480Y002903D01*
X005536Y002847D01*
X004889Y002200D01*
X004760Y002071D01*
X004760Y001515D01*
X004722Y001499D01*
X004760Y001607D02*
X004200Y001607D01*
X004200Y001606D02*
X004239Y001660D01*
X004269Y001719D01*
X004290Y001782D01*
X004300Y001847D01*
X004300Y001880D01*
X004300Y001913D01*
X004290Y001978D01*
X004269Y002041D01*
X004239Y002100D01*
X004200Y002154D01*
X004154Y002200D01*
X004100Y002239D01*
X004041Y002269D01*
X003978Y002290D01*
X003913Y002300D01*
X003880Y002300D01*
X003880Y001880D01*
X003880Y001880D01*
X004300Y001880D01*
X003880Y001880D01*
X003880Y001880D01*
X003880Y001880D01*
X003460Y001880D01*
X003460Y001913D01*
X003470Y001978D01*
X003491Y002041D01*
X003521Y002100D01*
X003560Y002154D01*
X003606Y002200D01*
X003660Y002239D01*
X003719Y002269D01*
X003782Y002290D01*
X003847Y002300D01*
X003880Y002300D01*
X003880Y001880D01*
X003880Y001460D01*
X003913Y001460D01*
X003978Y001470D01*
X004041Y001491D01*
X004100Y001521D01*
X004154Y001560D01*
X004200Y001606D01*
X004284Y001765D02*
X004760Y001765D01*
X004760Y001924D02*
X004298Y001924D01*
X004248Y002082D02*
X004771Y002082D01*
X004980Y001980D02*
X004980Y001102D01*
X005002Y001080D01*
X005427Y000814D02*
X007294Y000814D01*
X007301Y000800D02*
X007263Y000875D01*
X007237Y000955D01*
X007224Y001038D01*
X007224Y001042D01*
X007720Y001042D01*
X007796Y001042D01*
X007796Y001118D01*
X008292Y001118D01*
X008292Y001122D01*
X008279Y001205D01*
X008253Y001285D01*
X008215Y001360D01*
X008166Y001428D01*
X008106Y001488D01*
X008038Y001537D01*
X007963Y001575D01*
X007883Y001601D01*
X007800Y001614D01*
X007796Y001614D01*
X007796Y001118D01*
X007720Y001118D01*
X007720Y001614D01*
X007716Y001614D01*
X007633Y001601D01*
X007553Y001575D01*
X007478Y001537D01*
X007410Y001488D01*
X007350Y001428D01*
X007301Y001360D01*
X007263Y001285D01*
X007237Y001205D01*
X007224Y001122D01*
X007224Y001118D01*
X007720Y001118D01*
X007720Y001042D01*
X007720Y000546D01*
X007716Y000546D01*
X007633Y000559D01*
X007553Y000585D01*
X007478Y000623D01*
X007410Y000672D01*
X007350Y000732D01*
X007301Y000800D01*
X007433Y000656D02*
X005269Y000656D01*
X005493Y000973D02*
X007234Y000973D01*
X007225Y001131D02*
X005496Y001131D01*
X005450Y001290D02*
X007265Y001290D01*
X007370Y001448D02*
X005333Y001448D01*
X005200Y001607D02*
X007666Y001607D01*
X007720Y001607D02*
X007796Y001607D01*
X007849Y001607D02*
X008700Y001607D01*
X008700Y001448D02*
X008146Y001448D01*
X008251Y001290D02*
X008700Y001290D01*
X008700Y001131D02*
X008291Y001131D01*
X008292Y001042D02*
X007796Y001042D01*
X007796Y000546D01*
X007800Y000546D01*
X007883Y000559D01*
X007963Y000585D01*
X008038Y000623D01*
X008106Y000672D01*
X008166Y000732D01*
X008215Y000800D01*
X008253Y000875D01*
X008279Y000955D01*
X008292Y001038D01*
X008292Y001042D01*
X008282Y000973D02*
X008700Y000973D01*
X008700Y000814D02*
X008222Y000814D01*
X008083Y000656D02*
X008700Y000656D01*
X008700Y000497D02*
X004169Y000497D01*
X004193Y000514D02*
X004246Y000567D01*
X004291Y000628D01*
X004325Y000696D01*
X004348Y000768D01*
X004360Y000842D01*
X004360Y000860D01*
X003900Y000860D01*
X003900Y000900D01*
X004360Y000900D01*
X004360Y000918D01*
X004348Y000992D01*
X004325Y001064D01*
X004291Y001132D01*
X004246Y001193D01*
X004193Y001246D01*
X004132Y001291D01*
X004064Y001325D01*
X003992Y001348D01*
X003918Y001360D01*
X003900Y001360D01*
X003900Y000900D01*
X003860Y000900D01*
X003860Y001360D01*
X003842Y001360D01*
X003768Y001348D01*
X003696Y001325D01*
X003628Y001291D01*
X003567Y001246D01*
X003514Y001193D01*
X003469Y001132D01*
X003435Y001064D01*
X003412Y000992D01*
X003400Y000918D01*
X003400Y000900D01*
X003860Y000900D01*
X003860Y000860D01*
X003900Y000860D01*
X003900Y000400D01*
X003918Y000400D01*
X003992Y000412D01*
X004064Y000435D01*
X004132Y000469D01*
X004193Y000514D01*
X004304Y000656D02*
X004735Y000656D01*
X004577Y000814D02*
X004356Y000814D01*
X004351Y000973D02*
X004512Y000973D01*
X004508Y001131D02*
X004291Y001131D01*
X004133Y001290D02*
X004554Y001290D01*
X003900Y001290D02*
X003860Y001290D01*
X003847Y001460D02*
X003782Y001470D01*
X003719Y001491D01*
X003660Y001521D01*
X003606Y001560D01*
X003560Y001606D01*
X003521Y001660D01*
X003491Y001719D01*
X003470Y001782D01*
X003460Y001847D01*
X003460Y001880D01*
X003880Y001880D01*
X003880Y001880D01*
X003880Y001460D01*
X003847Y001460D01*
X003880Y001607D02*
X003880Y001607D01*
X003880Y001765D02*
X003880Y001765D01*
X003880Y001924D02*
X003880Y001924D01*
X003880Y002082D02*
X003880Y002082D01*
X003880Y002241D02*
X003880Y002241D01*
X003662Y002241D02*
X003003Y002241D01*
X002956Y002260D02*
X003095Y002202D01*
X003202Y002095D01*
X003260Y001956D01*
X003260Y001804D01*
X003202Y001665D01*
X003095Y001558D01*
X002956Y001500D01*
X002804Y001500D01*
X002665Y001558D01*
X002558Y001665D01*
X002500Y001804D01*
X002500Y001956D01*
X002558Y002095D01*
X002665Y002202D01*
X002804Y002260D01*
X002956Y002260D01*
X002757Y002241D02*
X002003Y002241D01*
X001956Y002260D02*
X002095Y002202D01*
X002202Y002095D01*
X002260Y001956D01*
X002260Y001804D01*
X002202Y001665D01*
X002095Y001558D01*
X001956Y001500D01*
X001804Y001500D01*
X001665Y001558D01*
X001558Y001665D01*
X001500Y001804D01*
X001500Y001956D01*
X001558Y002095D01*
X001665Y002202D01*
X001804Y002260D01*
X001956Y002260D01*
X001957Y002294D02*
X002376Y002294D01*
X002422Y002307D01*
X002463Y002330D01*
X002496Y002364D01*
X002520Y002405D01*
X002532Y002451D01*
X002532Y002712D01*
X001957Y002712D01*
X001957Y002294D01*
X001957Y002399D02*
X001803Y002399D01*
X001803Y002294D02*
X001803Y002712D01*
X001957Y002712D01*
X001957Y002867D01*
X001803Y002867D01*
X001803Y003284D01*
X001384Y003284D01*
X001338Y003272D01*
X001297Y003248D01*
X001264Y003215D01*
X001240Y003174D01*
X001228Y003128D01*
X001228Y002867D01*
X001803Y002867D01*
X001803Y002712D01*
X001228Y002712D01*
X001228Y002451D01*
X001240Y002405D01*
X001264Y002364D01*
X001297Y002330D01*
X001338Y002307D01*
X001384Y002294D01*
X001803Y002294D01*
X001757Y002241D02*
X001003Y002241D01*
X001243Y002399D02*
X000360Y002399D01*
X000360Y002241D02*
X000757Y002241D01*
X000552Y002082D02*
X000360Y002082D01*
X000360Y001924D02*
X000500Y001924D01*
X000516Y001765D02*
X000360Y001765D01*
X001041Y001290D02*
X001719Y001290D01*
X001792Y001320D02*
X001631Y001253D01*
X001507Y001129D01*
X001440Y000968D01*
X001440Y000792D01*
X001507Y000631D01*
X001631Y000507D01*
X001792Y000440D01*
X001968Y000440D01*
X002129Y000507D01*
X002253Y000631D01*
X002320Y000792D01*
X002320Y000968D01*
X002253Y001129D01*
X002129Y001253D01*
X001968Y001320D01*
X001792Y001320D01*
X002041Y001290D02*
X002719Y001290D01*
X002792Y001320D02*
X002631Y001253D01*
X002507Y001129D01*
X002440Y000968D01*
X002440Y000792D01*
X002507Y000631D01*
X002631Y000507D01*
X002792Y000440D01*
X002968Y000440D01*
X003129Y000507D01*
X003253Y000631D01*
X003320Y000792D01*
X003320Y000968D01*
X003253Y001129D01*
X003129Y001253D01*
X002968Y001320D01*
X002792Y001320D01*
X003041Y001290D02*
X003627Y001290D01*
X003469Y001131D02*
X003251Y001131D01*
X003318Y000973D02*
X003409Y000973D01*
X003400Y000860D02*
X003400Y000842D01*
X003412Y000768D01*
X003435Y000696D01*
X003469Y000628D01*
X003514Y000567D01*
X003567Y000514D01*
X003628Y000469D01*
X003696Y000435D01*
X003768Y000412D01*
X003842Y000400D01*
X003860Y000400D01*
X003860Y000860D01*
X003400Y000860D01*
X003404Y000814D02*
X003320Y000814D01*
X003263Y000656D02*
X003456Y000656D01*
X003591Y000497D02*
X003105Y000497D01*
X002655Y000497D02*
X002105Y000497D01*
X002263Y000656D02*
X002497Y000656D01*
X002440Y000814D02*
X002320Y000814D01*
X002318Y000973D02*
X002442Y000973D01*
X002509Y001131D02*
X002251Y001131D01*
X002144Y001607D02*
X002616Y001607D01*
X002516Y001765D02*
X002244Y001765D01*
X002260Y001924D02*
X002500Y001924D01*
X002552Y002082D02*
X002208Y002082D01*
X002517Y002399D02*
X005088Y002399D01*
X005246Y002558D02*
X002532Y002558D01*
X002532Y002867D02*
X002532Y003128D01*
X002520Y003174D01*
X002496Y003215D01*
X002463Y003248D01*
X002422Y003272D01*
X002376Y003284D01*
X001957Y003284D01*
X001957Y002867D01*
X002532Y002867D01*
X002532Y002875D02*
X004839Y002875D01*
X005145Y003180D02*
X003480Y003180D01*
X002689Y003971D01*
X001880Y003971D01*
X001871Y003980D01*
X000780Y003980D01*
X000780Y004115D01*
X000880Y004015D01*
X000880Y004880D01*
X000557Y005094D02*
X000360Y005094D01*
X000360Y005252D02*
X000785Y005252D01*
X000975Y005252D02*
X001785Y005252D01*
X001804Y005260D02*
X001665Y005202D01*
X001558Y005095D01*
X001500Y004956D01*
X001500Y004804D01*
X001558Y004665D01*
X001665Y004558D01*
X001804Y004500D01*
X001956Y004500D01*
X002095Y004558D01*
X002202Y004665D01*
X002260Y004804D01*
X002260Y004956D01*
X002202Y005095D01*
X002095Y005202D01*
X001956Y005260D01*
X001804Y005260D01*
X001975Y005252D02*
X002785Y005252D01*
X002804Y005260D02*
X002665Y005202D01*
X002558Y005095D01*
X002500Y004956D01*
X002500Y004804D01*
X002558Y004665D01*
X002665Y004558D01*
X002710Y004539D01*
X002789Y004460D01*
X003060Y004189D01*
X003060Y004189D01*
X003189Y004060D01*
X004371Y004060D01*
X005740Y005429D01*
X005787Y005410D01*
X005973Y005410D01*
X006146Y005482D01*
X006278Y005614D01*
X006350Y005787D01*
X006350Y005973D01*
X006278Y006146D01*
X006146Y006278D01*
X005973Y006350D01*
X005787Y006350D01*
X005614Y006278D01*
X005482Y006146D01*
X005410Y005973D01*
X005410Y005787D01*
X005429Y005740D01*
X004189Y004500D01*
X003371Y004500D01*
X003203Y004668D01*
X003260Y004804D01*
X003260Y004956D01*
X003202Y005095D01*
X003095Y005202D01*
X002956Y005260D01*
X002804Y005260D01*
X002975Y005252D02*
X003785Y005252D01*
X003804Y005260D02*
X003665Y005202D01*
X003558Y005095D01*
X003500Y004956D01*
X003500Y004804D01*
X003558Y004665D01*
X003665Y004558D01*
X003804Y004500D01*
X003956Y004500D01*
X004095Y004558D01*
X004202Y004665D01*
X004260Y004804D01*
X004260Y004956D01*
X004202Y005095D01*
X004095Y005202D01*
X003956Y005260D01*
X003804Y005260D01*
X003975Y005252D02*
X004941Y005252D01*
X004782Y005094D02*
X004203Y005094D01*
X004260Y004935D02*
X004624Y004935D01*
X004465Y004777D02*
X004248Y004777D01*
X004307Y004618D02*
X004155Y004618D01*
X004280Y004280D02*
X005880Y005880D01*
X005439Y006045D02*
X004288Y006045D01*
X004320Y005968D02*
X004253Y006129D01*
X004129Y006253D01*
X003968Y006320D01*
X003792Y006320D01*
X003631Y006253D01*
X003507Y006129D01*
X003440Y005968D01*
X003440Y005792D01*
X003507Y005631D01*
X003631Y005507D01*
X003792Y005440D01*
X003968Y005440D01*
X004129Y005507D01*
X004253Y005631D01*
X004320Y005792D01*
X004320Y005968D01*
X004320Y005886D02*
X005410Y005886D01*
X005416Y005728D02*
X004293Y005728D01*
X004191Y005569D02*
X005258Y005569D01*
X005099Y005411D02*
X000360Y005411D01*
X000360Y005569D02*
X000569Y005569D01*
X000507Y005631D02*
X000631Y005507D01*
X000792Y005440D01*
X000968Y005440D01*
X001129Y005507D01*
X001253Y005631D01*
X001320Y005792D01*
X001320Y005968D01*
X001253Y006129D01*
X001129Y006253D01*
X000968Y006320D01*
X000792Y006320D01*
X000631Y006253D01*
X000507Y006129D01*
X000440Y005968D01*
X000440Y005792D01*
X000507Y005631D01*
X000467Y005728D02*
X000360Y005728D01*
X000360Y005886D02*
X000440Y005886D01*
X000472Y006045D02*
X000360Y006045D01*
X000360Y006203D02*
X000581Y006203D01*
X000360Y006362D02*
X008700Y006362D01*
X008700Y006203D02*
X007222Y006203D01*
X007321Y006045D02*
X008700Y006045D01*
X008700Y005886D02*
X007350Y005886D01*
X007326Y005728D02*
X008700Y005728D01*
X008700Y005569D02*
X007234Y005569D01*
X006975Y005411D02*
X008700Y005411D01*
X008700Y005252D02*
X007173Y005252D01*
X007300Y005094D02*
X008700Y005094D01*
X008700Y004935D02*
X007350Y004935D01*
X007346Y004777D02*
X008700Y004777D01*
X008700Y004618D02*
X007280Y004618D01*
X007093Y004460D02*
X008700Y004460D01*
X008700Y004301D02*
X007168Y004301D01*
X007147Y004316D02*
X007212Y004269D01*
X007269Y004212D01*
X007316Y004147D01*
X007353Y004076D01*
X007377Y003999D01*
X007390Y003920D01*
X007390Y003900D01*
X006900Y003900D01*
X006860Y003900D01*
X006860Y004390D01*
X006840Y004390D01*
X006761Y004377D01*
X006684Y004353D01*
X006613Y004316D01*
X006548Y004269D01*
X006491Y004212D01*
X006444Y004147D01*
X006407Y004076D01*
X006383Y003999D01*
X006370Y003920D01*
X006370Y003900D01*
X006860Y003900D01*
X006860Y003860D01*
X006370Y003860D01*
X006370Y003840D01*
X006383Y003761D01*
X006407Y003684D01*
X006444Y003613D01*
X006491Y003548D01*
X006548Y003491D01*
X006613Y003444D01*
X006684Y003407D01*
X006761Y003383D01*
X006840Y003370D01*
X006860Y003370D01*
X006860Y003860D01*
X006900Y003860D01*
X006900Y003900D01*
X006900Y004390D01*
X006920Y004390D01*
X006999Y004377D01*
X007076Y004353D01*
X007147Y004316D01*
X007319Y004143D02*
X008700Y004143D01*
X008700Y003984D02*
X007380Y003984D01*
X007390Y003860D02*
X006900Y003860D01*
X006900Y003370D01*
X006920Y003370D01*
X006999Y003383D01*
X007076Y003407D01*
X007147Y003444D01*
X007212Y003491D01*
X007269Y003548D01*
X007316Y003613D01*
X007353Y003684D01*
X007377Y003761D01*
X007390Y003840D01*
X007390Y003860D01*
X007388Y003826D02*
X008700Y003826D01*
X008700Y003667D02*
X007344Y003667D01*
X007230Y003509D02*
X008700Y003509D01*
X008700Y003350D02*
X006151Y003350D01*
X006151Y003192D02*
X008700Y003192D01*
X008700Y003033D02*
X006151Y003033D01*
X006121Y002875D02*
X008700Y002875D01*
X008700Y002716D02*
X006027Y002716D01*
X005815Y002815D02*
X004980Y001980D01*
X005235Y001924D02*
X008700Y001924D01*
X008700Y002082D02*
X005393Y002082D01*
X005552Y002241D02*
X008700Y002241D01*
X008700Y002399D02*
X005710Y002399D01*
X005869Y002558D02*
X008700Y002558D01*
X008700Y001765D02*
X005200Y001765D01*
X004929Y002241D02*
X004098Y002241D01*
X003512Y002082D02*
X003208Y002082D01*
X003260Y001924D02*
X003462Y001924D01*
X003476Y001765D02*
X003244Y001765D01*
X003144Y001607D02*
X003560Y001607D01*
X003860Y001131D02*
X003900Y001131D01*
X003900Y000973D02*
X003860Y000973D01*
X003860Y000814D02*
X003900Y000814D01*
X003900Y000656D02*
X003860Y000656D01*
X003860Y000497D02*
X003900Y000497D01*
X001655Y000497D02*
X001105Y000497D01*
X001263Y000656D02*
X001497Y000656D01*
X001440Y000814D02*
X001320Y000814D01*
X001318Y000973D02*
X001442Y000973D01*
X001509Y001131D02*
X001251Y001131D01*
X001144Y001607D02*
X001616Y001607D01*
X001516Y001765D02*
X001244Y001765D01*
X001260Y001924D02*
X001500Y001924D01*
X001552Y002082D02*
X001208Y002082D01*
X001228Y002558D02*
X000360Y002558D01*
X000360Y002716D02*
X001803Y002716D01*
X001957Y002716D02*
X005405Y002716D01*
X005451Y002875D02*
X005509Y002875D01*
X005815Y002815D02*
X005815Y003180D01*
X005880Y003245D01*
X005880Y003880D01*
X006300Y003667D02*
X006416Y003667D01*
X006372Y003826D02*
X006350Y003826D01*
X006346Y003984D02*
X006380Y003984D01*
X006441Y004143D02*
X006280Y004143D01*
X006412Y004301D02*
X006592Y004301D01*
X006571Y004460D02*
X006667Y004460D01*
X006860Y004301D02*
X006900Y004301D01*
X006900Y004143D02*
X006860Y004143D01*
X006860Y003984D02*
X006900Y003984D01*
X006900Y003826D02*
X006860Y003826D01*
X006860Y003667D02*
X006900Y003667D01*
X006900Y003509D02*
X006860Y003509D01*
X006530Y003509D02*
X006173Y003509D01*
X005145Y003180D02*
X005145Y004045D01*
X005480Y004380D01*
X006180Y004380D01*
X006380Y004580D01*
X006380Y005380D01*
X006880Y005880D01*
X006439Y006045D02*
X006321Y006045D01*
X006350Y005886D02*
X006410Y005886D01*
X006416Y005728D02*
X006326Y005728D01*
X006258Y005569D02*
X006234Y005569D01*
X006160Y005411D02*
X005975Y005411D01*
X005785Y005411D02*
X005722Y005411D01*
X005587Y005252D02*
X005563Y005252D01*
X005460Y005094D02*
X005405Y005094D01*
X005410Y004935D02*
X005246Y004935D01*
X005088Y004777D02*
X005414Y004777D01*
X005480Y004618D02*
X004929Y004618D01*
X004771Y004460D02*
X005248Y004460D01*
X005090Y004301D02*
X004612Y004301D01*
X004454Y004143D02*
X004931Y004143D01*
X004925Y003984D02*
X002987Y003984D01*
X003146Y003826D02*
X004925Y003826D01*
X004925Y003667D02*
X003304Y003667D01*
X003463Y003509D02*
X004862Y003509D01*
X004280Y004280D02*
X003280Y004280D01*
X002880Y004680D01*
X002880Y004880D01*
X002557Y005094D02*
X002203Y005094D01*
X002260Y004935D02*
X002500Y004935D01*
X002512Y004777D02*
X002248Y004777D01*
X002155Y004618D02*
X002605Y004618D01*
X002789Y004460D02*
X002789Y004460D01*
X001100Y004460D01*
X001117Y004301D02*
X001268Y004301D01*
X001155Y004618D02*
X001605Y004618D01*
X001512Y004777D02*
X001248Y004777D01*
X001260Y004935D02*
X001500Y004935D01*
X001557Y005094D02*
X001203Y005094D01*
X001631Y005507D02*
X001792Y005440D01*
X001968Y005440D01*
X002129Y005507D01*
X002253Y005631D01*
X002320Y005792D01*
X002320Y005968D01*
X002253Y006129D01*
X002129Y006253D01*
X001968Y006320D01*
X001792Y006320D01*
X001631Y006253D01*
X001507Y006129D01*
X001440Y005968D01*
X001440Y005792D01*
X001507Y005631D01*
X001631Y005507D01*
X001569Y005569D02*
X001191Y005569D01*
X001293Y005728D02*
X001467Y005728D01*
X001440Y005886D02*
X001320Y005886D01*
X001288Y006045D02*
X001472Y006045D01*
X001581Y006203D02*
X001179Y006203D01*
X002179Y006203D02*
X002581Y006203D01*
X002631Y006253D02*
X002507Y006129D01*
X002440Y005968D01*
X002440Y005792D01*
X002507Y005631D01*
X002631Y005507D01*
X002792Y005440D01*
X002968Y005440D01*
X003129Y005507D01*
X003253Y005631D01*
X003320Y005792D01*
X003320Y005968D01*
X003253Y006129D01*
X003129Y006253D01*
X002968Y006320D01*
X002792Y006320D01*
X002631Y006253D01*
X002472Y006045D02*
X002288Y006045D01*
X002320Y005886D02*
X002440Y005886D01*
X002467Y005728D02*
X002293Y005728D01*
X002191Y005569D02*
X002569Y005569D01*
X003191Y005569D02*
X003569Y005569D01*
X003467Y005728D02*
X003293Y005728D01*
X003320Y005886D02*
X003440Y005886D01*
X003472Y006045D02*
X003288Y006045D01*
X003179Y006203D02*
X003581Y006203D01*
X004179Y006203D02*
X005538Y006203D01*
X006222Y006203D02*
X006538Y006203D01*
X006722Y005411D02*
X006785Y005411D01*
X003557Y005094D02*
X003203Y005094D01*
X003260Y004935D02*
X003500Y004935D01*
X003512Y004777D02*
X003248Y004777D01*
X003253Y004618D02*
X003605Y004618D01*
X003106Y004143D02*
X002829Y004143D01*
X002948Y004301D02*
X002492Y004301D01*
X002492Y003667D02*
X002682Y003667D01*
X002840Y003509D02*
X001157Y003509D01*
X001157Y003350D02*
X002999Y003350D01*
X003157Y003192D02*
X002510Y003192D01*
X002532Y003033D02*
X003316Y003033D01*
X001957Y003033D02*
X001803Y003033D01*
X001803Y002875D02*
X001957Y002875D01*
X001957Y003192D02*
X001803Y003192D01*
X001250Y003192D02*
X001153Y003192D01*
X001228Y003033D02*
X000360Y003033D01*
X000439Y003118D02*
X000473Y003085D01*
X000514Y003061D01*
X000559Y003049D01*
X000762Y003049D01*
X000762Y003427D01*
X000403Y003427D01*
X000403Y003205D01*
X000415Y003159D01*
X000439Y003118D01*
X000407Y003192D02*
X000360Y003192D01*
X000360Y003350D02*
X000403Y003350D01*
X000403Y003509D02*
X000360Y003509D01*
X000360Y003667D02*
X000403Y003667D01*
X000360Y003826D02*
X000458Y003826D01*
X000443Y003984D02*
X000360Y003984D01*
X000360Y004143D02*
X000443Y004143D01*
X000443Y004301D02*
X000360Y004301D01*
X000360Y004460D02*
X000513Y004460D01*
X000605Y004618D02*
X000360Y004618D01*
X000360Y004777D02*
X000512Y004777D01*
X000500Y004935D02*
X000360Y004935D01*
X001157Y003667D02*
X001268Y003667D01*
X000798Y003350D02*
X000762Y003350D01*
X000762Y003192D02*
X000798Y003192D01*
X001228Y002875D02*
X000360Y002875D01*
X001803Y002558D02*
X001957Y002558D01*
X007720Y001448D02*
X007796Y001448D01*
X007796Y001290D02*
X007720Y001290D01*
X007720Y001131D02*
X007796Y001131D01*
X007796Y000973D02*
X007720Y000973D01*
X007720Y000814D02*
X007796Y000814D01*
X007796Y000656D02*
X007720Y000656D01*
M02*
