G75*
G70*
%OFA0B0*%
%FSLAX24Y24*%
%IPPOS*%
%LPD*%
%AMOC8*
5,1,8,0,0,1.08239X$1,22.5*
%
%ADD10R,0.0394X0.0433*%
%ADD11C,0.0480*%
%ADD12R,0.0945X0.0630*%
%ADD13R,0.0433X0.0394*%
%ADD14C,0.0660*%
%ADD15C,0.0600*%
%ADD16C,0.0709*%
%ADD17C,0.0100*%
%ADD18C,0.0120*%
D10*
X000750Y003415D03*
X000750Y004085D03*
D11*
X000850Y004850D03*
X001850Y004850D03*
X002850Y004850D03*
X003850Y004850D03*
X003850Y001850D03*
X002850Y001850D03*
X001850Y001850D03*
X000850Y001850D03*
D12*
X001850Y002759D03*
X001850Y003941D03*
D13*
X002850Y003285D03*
X002850Y002615D03*
D14*
X005850Y003850D03*
X006850Y003850D03*
X006850Y004850D03*
X005850Y004850D03*
X005850Y005850D03*
X006850Y005850D03*
D15*
X003850Y005850D03*
X002850Y005850D03*
X001850Y005850D03*
X000850Y005850D03*
X000850Y000850D03*
X001850Y000850D03*
X002850Y000850D03*
X003850Y000850D03*
D16*
X004972Y001050D03*
X007728Y001050D03*
D17*
X000651Y000446D02*
X000567Y000446D01*
X000595Y000469D02*
X000760Y000400D01*
X000940Y000400D01*
X001105Y000469D01*
X001231Y000595D01*
X001300Y000760D01*
X001300Y000940D01*
X001231Y001105D01*
X001105Y001231D01*
X000940Y001300D01*
X000760Y001300D01*
X000595Y001231D01*
X000469Y001105D01*
X000400Y000940D01*
X000400Y000760D01*
X000469Y000595D01*
X000595Y000469D01*
X000520Y000544D02*
X000468Y000544D01*
X000449Y000643D02*
X000370Y000643D01*
X000300Y000712D02*
X000300Y005988D01*
X000712Y006400D01*
X007888Y006400D01*
X008300Y005988D01*
X008300Y000712D01*
X007888Y000300D01*
X000712Y000300D01*
X000300Y000712D01*
X000300Y000741D02*
X000408Y000741D01*
X000400Y000840D02*
X000300Y000840D01*
X000300Y000938D02*
X000400Y000938D01*
X000440Y001037D02*
X000300Y001037D01*
X000300Y001135D02*
X000499Y001135D01*
X000600Y001234D02*
X000300Y001234D01*
X000300Y001332D02*
X004543Y001332D01*
X004544Y001336D02*
X004468Y001150D01*
X004468Y000950D01*
X004544Y000764D01*
X004686Y000622D01*
X004872Y000546D01*
X005072Y000546D01*
X005258Y000622D01*
X005400Y000764D01*
X005476Y000950D01*
X005476Y001150D01*
X005400Y001336D01*
X005258Y001478D01*
X005172Y001513D01*
X005172Y002342D01*
X004905Y002608D01*
X005693Y003396D01*
X005755Y003370D01*
X005945Y003370D01*
X006122Y003443D01*
X006257Y003578D01*
X006330Y003755D01*
X006330Y003945D01*
X006257Y004122D01*
X006188Y004191D01*
X006260Y004263D01*
X006509Y004512D01*
X006578Y004443D01*
X006755Y004370D01*
X006945Y004370D01*
X007122Y004443D01*
X007257Y004578D01*
X007330Y004755D01*
X007330Y004945D01*
X007257Y005122D01*
X007122Y005257D01*
X006945Y005330D01*
X006755Y005330D01*
X006578Y005257D01*
X006560Y005239D01*
X006560Y005263D01*
X006693Y005396D01*
X006755Y005370D01*
X006945Y005370D01*
X007122Y005443D01*
X007257Y005578D01*
X007330Y005755D01*
X007330Y005945D01*
X007257Y006122D01*
X007122Y006257D01*
X006945Y006330D01*
X006755Y006330D01*
X006578Y006257D01*
X006443Y006122D01*
X006370Y005945D01*
X006370Y005755D01*
X006396Y005693D01*
X006263Y005560D01*
X006140Y005437D01*
X006140Y005239D01*
X006122Y005257D01*
X005945Y005330D01*
X005755Y005330D01*
X005578Y005257D01*
X005443Y005122D01*
X005370Y004945D01*
X005370Y004755D01*
X005443Y004578D01*
X005462Y004559D01*
X004398Y003495D01*
X003217Y003495D01*
X003217Y003544D01*
X003129Y003631D01*
X002676Y003631D01*
X002472Y003752D01*
X002472Y004318D01*
X002385Y004406D01*
X001315Y004406D01*
X001228Y004318D01*
X001228Y004195D01*
X001097Y004195D01*
X001097Y004363D01*
X001060Y004400D01*
X001060Y004515D01*
X001071Y004519D01*
X001181Y004629D01*
X001240Y004772D01*
X001240Y004928D01*
X001181Y005071D01*
X001071Y005181D01*
X000928Y005240D01*
X000772Y005240D01*
X000629Y005181D01*
X000519Y005071D01*
X000460Y004928D01*
X000460Y004772D01*
X000519Y004629D01*
X000629Y004519D01*
X000640Y004515D01*
X000640Y004451D01*
X000491Y004451D01*
X000403Y004363D01*
X000403Y003806D01*
X000459Y003750D01*
X000433Y003724D01*
X000413Y003690D01*
X000403Y003652D01*
X000403Y003464D01*
X000702Y003464D01*
X000702Y003367D01*
X000798Y003367D01*
X000798Y003049D01*
X000967Y003049D01*
X001005Y003059D01*
X001039Y003079D01*
X001067Y003107D01*
X001087Y003141D01*
X001097Y003179D01*
X001097Y003367D01*
X000798Y003367D01*
X000798Y003464D01*
X001097Y003464D01*
X001097Y003652D01*
X001087Y003690D01*
X001067Y003724D01*
X001041Y003750D01*
X001066Y003775D01*
X001228Y003775D01*
X001228Y003563D01*
X001315Y003476D01*
X002116Y003476D01*
X002483Y003258D01*
X002483Y003026D01*
X002559Y002950D01*
X002483Y002874D01*
X002483Y002356D01*
X002571Y002269D01*
X003129Y002269D01*
X003217Y002356D01*
X003217Y002405D01*
X004543Y002405D01*
X004772Y002176D01*
X004772Y001513D01*
X004686Y001478D01*
X004544Y001336D01*
X004502Y001234D02*
X004088Y001234D01*
X004086Y001235D02*
X004023Y001267D01*
X003955Y001289D01*
X003900Y001298D01*
X003900Y000900D01*
X004298Y000900D01*
X004289Y000955D01*
X004267Y001023D01*
X004235Y001086D01*
X004193Y001143D01*
X004143Y001193D01*
X004086Y001235D01*
X004199Y001135D02*
X004468Y001135D01*
X004468Y001037D02*
X004260Y001037D01*
X004292Y000938D02*
X004473Y000938D01*
X004513Y000840D02*
X003900Y000840D01*
X003900Y000800D02*
X003900Y000900D01*
X003800Y000900D01*
X003800Y001298D01*
X003745Y001289D01*
X003677Y001267D01*
X003614Y001235D01*
X003557Y001193D01*
X003507Y001143D01*
X003465Y001086D01*
X003433Y001023D01*
X003411Y000955D01*
X003402Y000900D01*
X003800Y000900D01*
X003800Y000800D01*
X003900Y000800D01*
X004298Y000800D01*
X004289Y000745D01*
X004267Y000677D01*
X004235Y000614D01*
X004193Y000557D01*
X004143Y000507D01*
X004086Y000465D01*
X004023Y000433D01*
X003955Y000411D01*
X003900Y000402D01*
X003900Y000800D01*
X003900Y000741D02*
X003800Y000741D01*
X003800Y000800D02*
X003800Y000402D01*
X003745Y000411D01*
X003677Y000433D01*
X003614Y000465D01*
X003557Y000507D01*
X003507Y000557D01*
X003465Y000614D01*
X003433Y000677D01*
X003411Y000745D01*
X003402Y000800D01*
X003800Y000800D01*
X003800Y000840D02*
X003300Y000840D01*
X003300Y000760D02*
X003231Y000595D01*
X003105Y000469D01*
X002940Y000400D01*
X002760Y000400D01*
X002595Y000469D01*
X002469Y000595D01*
X002400Y000760D01*
X002400Y000940D01*
X002469Y001105D01*
X002595Y001231D01*
X002760Y001300D01*
X002940Y001300D01*
X003105Y001231D01*
X003231Y001105D01*
X003300Y000940D01*
X003300Y000760D01*
X003292Y000741D02*
X003412Y000741D01*
X003451Y000643D02*
X003251Y000643D01*
X003180Y000544D02*
X003520Y000544D01*
X003653Y000446D02*
X003049Y000446D01*
X002651Y000446D02*
X002049Y000446D01*
X002105Y000469D02*
X001940Y000400D01*
X001760Y000400D01*
X001595Y000469D01*
X001469Y000595D01*
X001400Y000760D01*
X001400Y000940D01*
X001469Y001105D01*
X001595Y001231D01*
X001760Y001300D01*
X001940Y001300D01*
X002105Y001231D01*
X002231Y001105D01*
X002300Y000940D01*
X002300Y000760D01*
X002231Y000595D01*
X002105Y000469D01*
X002180Y000544D02*
X002520Y000544D01*
X002449Y000643D02*
X002251Y000643D01*
X002292Y000741D02*
X002408Y000741D01*
X002400Y000840D02*
X002300Y000840D01*
X002300Y000938D02*
X002400Y000938D01*
X002440Y001037D02*
X002260Y001037D01*
X002201Y001135D02*
X002499Y001135D01*
X002600Y001234D02*
X002100Y001234D01*
X001928Y001460D02*
X002071Y001519D01*
X002181Y001629D01*
X002240Y001772D01*
X002240Y001928D01*
X002181Y002071D01*
X002071Y002181D01*
X001928Y002240D01*
X001772Y002240D01*
X001629Y002181D01*
X001519Y002071D01*
X001460Y001928D01*
X001460Y001772D01*
X001519Y001629D01*
X001629Y001519D01*
X001772Y001460D01*
X001928Y001460D01*
X002081Y001529D02*
X002619Y001529D01*
X002629Y001519D02*
X002772Y001460D01*
X002928Y001460D01*
X003071Y001519D01*
X003181Y001629D01*
X003240Y001772D01*
X003240Y001928D01*
X003181Y002071D01*
X003071Y002181D01*
X002928Y002240D01*
X002772Y002240D01*
X002629Y002181D01*
X002519Y002071D01*
X002460Y001928D01*
X002460Y001772D01*
X002519Y001629D01*
X002629Y001519D01*
X002521Y001628D02*
X002179Y001628D01*
X002221Y001726D02*
X002479Y001726D01*
X002460Y001825D02*
X002240Y001825D01*
X002240Y001923D02*
X002460Y001923D01*
X002499Y002022D02*
X002201Y002022D01*
X002132Y002120D02*
X002568Y002120D01*
X002721Y002219D02*
X001979Y002219D01*
X001900Y002294D02*
X002342Y002294D01*
X002380Y002305D01*
X002415Y002324D01*
X002442Y002352D01*
X002462Y002387D01*
X002472Y002425D01*
X002472Y002709D01*
X001900Y002709D01*
X001900Y002294D01*
X001900Y002317D02*
X001800Y002317D01*
X001800Y002294D02*
X001800Y002709D01*
X001900Y002709D01*
X001900Y002809D01*
X002472Y002809D01*
X002472Y003094D01*
X002462Y003132D01*
X002442Y003167D01*
X002415Y003194D01*
X002380Y003214D01*
X002342Y003224D01*
X001900Y003224D01*
X001900Y002809D01*
X001800Y002809D01*
X001800Y002709D01*
X001228Y002709D01*
X001228Y002425D01*
X001238Y002387D01*
X001258Y002352D01*
X001285Y002324D01*
X001320Y002305D01*
X001358Y002294D01*
X001800Y002294D01*
X001721Y002219D02*
X000979Y002219D01*
X000928Y002240D02*
X001071Y002181D01*
X001181Y002071D01*
X001240Y001928D01*
X001240Y001772D01*
X001181Y001629D01*
X001071Y001519D01*
X000928Y001460D01*
X000772Y001460D01*
X000629Y001519D01*
X000519Y001629D01*
X000460Y001772D01*
X000460Y001928D01*
X000519Y002071D01*
X000629Y002181D01*
X000772Y002240D01*
X000928Y002240D01*
X000721Y002219D02*
X000300Y002219D01*
X000300Y002317D02*
X001298Y002317D01*
X001230Y002416D02*
X000300Y002416D01*
X000300Y002514D02*
X001228Y002514D01*
X001228Y002613D02*
X000300Y002613D01*
X000300Y002711D02*
X001800Y002711D01*
X001800Y002809D02*
X001228Y002809D01*
X001228Y003094D01*
X001238Y003132D01*
X001258Y003167D01*
X001285Y003194D01*
X001320Y003214D01*
X001358Y003224D01*
X001800Y003224D01*
X001800Y002809D01*
X001800Y002810D02*
X001900Y002810D01*
X001900Y002711D02*
X002483Y002711D01*
X002472Y002810D02*
X002483Y002810D01*
X002472Y002908D02*
X002517Y002908D01*
X002503Y003007D02*
X002472Y003007D01*
X002470Y003105D02*
X002483Y003105D01*
X002483Y003204D02*
X002399Y003204D01*
X002409Y003302D02*
X001097Y003302D01*
X001097Y003204D02*
X001301Y003204D01*
X001230Y003105D02*
X001065Y003105D01*
X001228Y003007D02*
X000300Y003007D01*
X000300Y002908D02*
X001228Y002908D01*
X001228Y002810D02*
X000300Y002810D01*
X000461Y003079D02*
X000495Y003059D01*
X000533Y003049D01*
X000702Y003049D01*
X000702Y003367D01*
X000403Y003367D01*
X000403Y003179D01*
X000413Y003141D01*
X000433Y003107D01*
X000461Y003079D01*
X000435Y003105D02*
X000300Y003105D01*
X000300Y003204D02*
X000403Y003204D01*
X000403Y003302D02*
X000300Y003302D01*
X000300Y003401D02*
X000702Y003401D01*
X000798Y003401D02*
X002242Y003401D01*
X001900Y003204D02*
X001800Y003204D01*
X001800Y003105D02*
X001900Y003105D01*
X001900Y003007D02*
X001800Y003007D01*
X001800Y002908D02*
X001900Y002908D01*
X001900Y002613D02*
X001800Y002613D01*
X001800Y002514D02*
X001900Y002514D01*
X001900Y002416D02*
X001800Y002416D01*
X001568Y002120D02*
X001132Y002120D01*
X001201Y002022D02*
X001499Y002022D01*
X001460Y001923D02*
X001240Y001923D01*
X001240Y001825D02*
X001460Y001825D01*
X001479Y001726D02*
X001221Y001726D01*
X001179Y001628D02*
X001521Y001628D01*
X001619Y001529D02*
X001081Y001529D01*
X001100Y001234D02*
X001600Y001234D01*
X001499Y001135D02*
X001201Y001135D01*
X001260Y001037D02*
X001440Y001037D01*
X001400Y000938D02*
X001300Y000938D01*
X001300Y000840D02*
X001400Y000840D01*
X001408Y000741D02*
X001292Y000741D01*
X001251Y000643D02*
X001449Y000643D01*
X001520Y000544D02*
X001180Y000544D01*
X001049Y000446D02*
X001651Y000446D01*
X000665Y000347D02*
X007935Y000347D01*
X008033Y000446D02*
X004047Y000446D01*
X003900Y000446D02*
X003800Y000446D01*
X003800Y000544D02*
X003900Y000544D01*
X003900Y000643D02*
X003800Y000643D01*
X004180Y000544D02*
X008132Y000544D01*
X008230Y000643D02*
X008025Y000643D01*
X008057Y000665D02*
X008113Y000721D01*
X008159Y000786D01*
X008195Y000856D01*
X008220Y000932D01*
X008231Y001000D01*
X007778Y001000D01*
X007778Y001100D01*
X008231Y001100D01*
X008220Y001168D01*
X008195Y001244D01*
X008159Y001314D01*
X008113Y001379D01*
X008057Y001435D01*
X007992Y001481D01*
X007922Y001517D01*
X007846Y001542D01*
X007778Y001553D01*
X007778Y001100D01*
X007678Y001100D01*
X007678Y001553D01*
X007610Y001542D01*
X007534Y001517D01*
X007464Y001481D01*
X007399Y001435D01*
X007343Y001379D01*
X007297Y001314D01*
X007261Y001244D01*
X007236Y001168D01*
X007225Y001100D01*
X007678Y001100D01*
X007678Y001000D01*
X007778Y001000D01*
X007778Y000547D01*
X007846Y000558D01*
X007922Y000583D01*
X007992Y000619D01*
X008057Y000665D01*
X008127Y000741D02*
X008300Y000741D01*
X008300Y000840D02*
X008187Y000840D01*
X008221Y000938D02*
X008300Y000938D01*
X008300Y001037D02*
X007778Y001037D01*
X007778Y001135D02*
X007678Y001135D01*
X007678Y001037D02*
X005476Y001037D01*
X005476Y001135D02*
X007231Y001135D01*
X007257Y001234D02*
X005442Y001234D01*
X005401Y001332D02*
X007309Y001332D01*
X007395Y001431D02*
X005305Y001431D01*
X005172Y001529D02*
X007570Y001529D01*
X007678Y001529D02*
X007778Y001529D01*
X007778Y001431D02*
X007678Y001431D01*
X007678Y001332D02*
X007778Y001332D01*
X007778Y001234D02*
X007678Y001234D01*
X007678Y001000D02*
X007225Y001000D01*
X007236Y000932D01*
X007261Y000856D01*
X007297Y000786D01*
X007343Y000721D01*
X007399Y000665D01*
X007464Y000619D01*
X007534Y000583D01*
X007610Y000558D01*
X007678Y000547D01*
X007678Y001000D01*
X007678Y000938D02*
X007778Y000938D01*
X007778Y000840D02*
X007678Y000840D01*
X007678Y000741D02*
X007778Y000741D01*
X007778Y000643D02*
X007678Y000643D01*
X007431Y000643D02*
X005278Y000643D01*
X005376Y000741D02*
X007329Y000741D01*
X007269Y000840D02*
X005431Y000840D01*
X005472Y000938D02*
X007235Y000938D01*
X007886Y001529D02*
X008300Y001529D01*
X008300Y001431D02*
X008061Y001431D01*
X008146Y001332D02*
X008300Y001332D01*
X008300Y001234D02*
X008199Y001234D01*
X008225Y001135D02*
X008300Y001135D01*
X008300Y001628D02*
X005172Y001628D01*
X005172Y001726D02*
X008300Y001726D01*
X008300Y001825D02*
X005172Y001825D01*
X005172Y001923D02*
X008300Y001923D01*
X008300Y002022D02*
X005172Y002022D01*
X005172Y002120D02*
X008300Y002120D01*
X008300Y002219D02*
X005172Y002219D01*
X005172Y002317D02*
X008300Y002317D01*
X008300Y002416D02*
X005098Y002416D01*
X005000Y002514D02*
X008300Y002514D01*
X008300Y002613D02*
X004909Y002613D01*
X005008Y002711D02*
X008300Y002711D01*
X008300Y002810D02*
X005106Y002810D01*
X005205Y002908D02*
X008300Y002908D01*
X008300Y003007D02*
X005303Y003007D01*
X005402Y003105D02*
X008300Y003105D01*
X008300Y003204D02*
X005500Y003204D01*
X005599Y003302D02*
X008300Y003302D01*
X008300Y003401D02*
X007020Y003401D01*
X007034Y003405D02*
X007102Y003439D01*
X007163Y003484D01*
X007216Y003537D01*
X007261Y003598D01*
X007295Y003666D01*
X007318Y003738D01*
X007328Y003800D01*
X006900Y003800D01*
X006900Y003900D01*
X006800Y003900D01*
X006800Y004328D01*
X006738Y004318D01*
X006666Y004295D01*
X006598Y004261D01*
X006537Y004216D01*
X006484Y004163D01*
X006439Y004102D01*
X006405Y004034D01*
X006382Y003962D01*
X006372Y003900D01*
X006800Y003900D01*
X006800Y003800D01*
X006372Y003800D01*
X006382Y003738D01*
X006405Y003666D01*
X006439Y003598D01*
X006484Y003537D01*
X006537Y003484D01*
X006598Y003439D01*
X006666Y003405D01*
X006738Y003382D01*
X006800Y003372D01*
X006800Y003800D01*
X006900Y003800D01*
X006900Y003372D01*
X006962Y003382D01*
X007034Y003405D01*
X006900Y003401D02*
X006800Y003401D01*
X006800Y003499D02*
X006900Y003499D01*
X006900Y003598D02*
X006800Y003598D01*
X006800Y003696D02*
X006900Y003696D01*
X006900Y003795D02*
X006800Y003795D01*
X006800Y003893D02*
X006330Y003893D01*
X006311Y003992D02*
X006391Y003992D01*
X006434Y004090D02*
X006270Y004090D01*
X006190Y004189D02*
X006510Y004189D01*
X006650Y004287D02*
X006284Y004287D01*
X006382Y004386D02*
X006717Y004386D01*
X006800Y004287D02*
X006900Y004287D01*
X006900Y004328D02*
X006900Y003900D01*
X007328Y003900D01*
X007318Y003962D01*
X007295Y004034D01*
X007261Y004102D01*
X007216Y004163D01*
X007163Y004216D01*
X007102Y004261D01*
X007034Y004295D01*
X006962Y004318D01*
X006900Y004328D01*
X006983Y004386D02*
X008300Y004386D01*
X008300Y004484D02*
X007163Y004484D01*
X007259Y004583D02*
X008300Y004583D01*
X008300Y004681D02*
X007300Y004681D01*
X007330Y004780D02*
X008300Y004780D01*
X008300Y004878D02*
X007330Y004878D01*
X007317Y004977D02*
X008300Y004977D01*
X008300Y005075D02*
X007276Y005075D01*
X007205Y005174D02*
X008300Y005174D01*
X008300Y005272D02*
X007085Y005272D01*
X006947Y005371D02*
X008300Y005371D01*
X008300Y005469D02*
X007148Y005469D01*
X007246Y005568D02*
X008300Y005568D01*
X008300Y005666D02*
X007293Y005666D01*
X007330Y005765D02*
X008300Y005765D01*
X008300Y005863D02*
X007330Y005863D01*
X007323Y005962D02*
X008300Y005962D01*
X008228Y006060D02*
X007283Y006060D01*
X007220Y006159D02*
X008129Y006159D01*
X008031Y006257D02*
X007122Y006257D01*
X006578Y006257D02*
X006122Y006257D01*
X005945Y006330D01*
X005755Y006330D01*
X005578Y006257D01*
X005443Y006122D01*
X005370Y005945D01*
X005370Y005755D01*
X005396Y005693D01*
X004163Y004460D01*
X003337Y004460D01*
X003174Y004623D01*
X003181Y004629D01*
X003240Y004772D01*
X003240Y004928D01*
X003181Y005071D01*
X003071Y005181D01*
X002928Y005240D01*
X002772Y005240D01*
X002629Y005181D01*
X002519Y005071D01*
X002460Y004928D01*
X002460Y004772D01*
X002519Y004629D01*
X002629Y004519D01*
X002722Y004481D01*
X003040Y004163D01*
X003163Y004040D01*
X004337Y004040D01*
X005693Y005396D01*
X005755Y005370D01*
X005945Y005370D01*
X006122Y005443D01*
X006257Y005578D01*
X006330Y005755D01*
X006330Y005945D01*
X006257Y006122D01*
X006122Y006257D01*
X006220Y006159D02*
X006480Y006159D01*
X006417Y006060D02*
X006283Y006060D01*
X006323Y005962D02*
X006377Y005962D01*
X006370Y005863D02*
X006330Y005863D01*
X006330Y005765D02*
X006370Y005765D01*
X006369Y005666D02*
X006293Y005666D01*
X006271Y005568D02*
X006246Y005568D01*
X006172Y005469D02*
X006148Y005469D01*
X006140Y005371D02*
X005947Y005371D01*
X006085Y005272D02*
X006140Y005272D01*
X005753Y005371D02*
X005667Y005371D01*
X005615Y005272D02*
X005569Y005272D01*
X005495Y005174D02*
X005470Y005174D01*
X005424Y005075D02*
X005372Y005075D01*
X005383Y004977D02*
X005273Y004977D01*
X005370Y004878D02*
X005175Y004878D01*
X005076Y004780D02*
X005370Y004780D01*
X005400Y004681D02*
X004978Y004681D01*
X004879Y004583D02*
X005441Y004583D01*
X005387Y004484D02*
X004781Y004484D01*
X004682Y004386D02*
X005289Y004386D01*
X005190Y004287D02*
X004584Y004287D01*
X004485Y004189D02*
X005092Y004189D01*
X004993Y004090D02*
X004387Y004090D01*
X004796Y003893D02*
X002472Y003893D01*
X002472Y003992D02*
X004895Y003992D01*
X004698Y003795D02*
X002472Y003795D01*
X002568Y003696D02*
X004599Y003696D01*
X004501Y003598D02*
X003163Y003598D01*
X003217Y003499D02*
X004402Y003499D01*
X004615Y002615D02*
X004972Y002259D01*
X004972Y001050D01*
X004568Y000741D02*
X004288Y000741D01*
X004249Y000643D02*
X004666Y000643D01*
X003900Y000938D02*
X003800Y000938D01*
X003800Y001037D02*
X003900Y001037D01*
X003900Y001135D02*
X003800Y001135D01*
X003800Y001234D02*
X003900Y001234D01*
X003888Y001460D02*
X003964Y001475D01*
X004035Y001504D01*
X004099Y001547D01*
X004153Y001601D01*
X004196Y001665D01*
X004225Y001736D01*
X004240Y001812D01*
X004240Y001820D01*
X003880Y001820D01*
X003880Y001880D01*
X003820Y001880D01*
X003820Y002240D01*
X003812Y002240D01*
X003736Y002225D01*
X003665Y002196D01*
X003601Y002153D01*
X003547Y002099D01*
X003504Y002035D01*
X003475Y001964D01*
X003460Y001888D01*
X003460Y001880D01*
X003820Y001880D01*
X003820Y001820D01*
X003460Y001820D01*
X003460Y001812D01*
X003475Y001736D01*
X003504Y001665D01*
X003547Y001601D01*
X003601Y001547D01*
X003665Y001504D01*
X003736Y001475D01*
X003812Y001460D01*
X003820Y001460D01*
X003820Y001820D01*
X003880Y001820D01*
X003880Y001460D01*
X003888Y001460D01*
X003880Y001529D02*
X003820Y001529D01*
X003820Y001628D02*
X003880Y001628D01*
X003880Y001726D02*
X003820Y001726D01*
X003820Y001825D02*
X003240Y001825D01*
X003240Y001923D02*
X003467Y001923D01*
X003499Y002022D02*
X003201Y002022D01*
X003132Y002120D02*
X003568Y002120D01*
X003721Y002219D02*
X002979Y002219D01*
X003177Y002317D02*
X004631Y002317D01*
X004729Y002219D02*
X003979Y002219D01*
X003964Y002225D02*
X003888Y002240D01*
X003880Y002240D01*
X003880Y001880D01*
X004240Y001880D01*
X004240Y001888D01*
X004225Y001964D01*
X004196Y002035D01*
X004153Y002099D01*
X004099Y002153D01*
X004035Y002196D01*
X003964Y002225D01*
X003880Y002219D02*
X003820Y002219D01*
X003820Y002120D02*
X003880Y002120D01*
X003880Y002022D02*
X003820Y002022D01*
X003820Y001923D02*
X003880Y001923D01*
X003880Y001825D02*
X004772Y001825D01*
X004772Y001923D02*
X004233Y001923D01*
X004201Y002022D02*
X004772Y002022D01*
X004772Y002120D02*
X004132Y002120D01*
X004221Y001726D02*
X004772Y001726D01*
X004772Y001628D02*
X004170Y001628D01*
X004072Y001529D02*
X004772Y001529D01*
X004639Y001431D02*
X000300Y001431D01*
X000300Y001529D02*
X000619Y001529D01*
X000521Y001628D02*
X000300Y001628D01*
X000300Y001726D02*
X000479Y001726D01*
X000460Y001825D02*
X000300Y001825D01*
X000300Y001923D02*
X000460Y001923D01*
X000499Y002022D02*
X000300Y002022D01*
X000300Y002120D02*
X000568Y002120D01*
X000702Y003105D02*
X000798Y003105D01*
X000798Y003204D02*
X000702Y003204D01*
X000702Y003302D02*
X000798Y003302D01*
X001097Y003499D02*
X001292Y003499D01*
X001228Y003598D02*
X001097Y003598D01*
X001083Y003696D02*
X001228Y003696D01*
X001228Y004287D02*
X001097Y004287D01*
X001075Y004386D02*
X001295Y004386D01*
X001134Y004583D02*
X001566Y004583D01*
X001519Y004629D02*
X001629Y004519D01*
X001772Y004460D01*
X001928Y004460D01*
X002071Y004519D01*
X002181Y004629D01*
X002240Y004772D01*
X002240Y004928D01*
X002181Y005071D01*
X002071Y005181D01*
X001928Y005240D01*
X001772Y005240D01*
X001629Y005181D01*
X001519Y005071D01*
X001460Y004928D01*
X001460Y004772D01*
X001519Y004629D01*
X001498Y004681D02*
X001202Y004681D01*
X001240Y004780D02*
X001460Y004780D01*
X001460Y004878D02*
X001240Y004878D01*
X001220Y004977D02*
X001480Y004977D01*
X001523Y005075D02*
X001177Y005075D01*
X001078Y005174D02*
X001622Y005174D01*
X001760Y005400D02*
X001940Y005400D01*
X002105Y005469D01*
X002595Y005469D01*
X002760Y005400D01*
X002940Y005400D01*
X003105Y005469D01*
X003595Y005469D01*
X003760Y005400D01*
X003940Y005400D01*
X004105Y005469D01*
X005172Y005469D01*
X005074Y005371D02*
X000300Y005371D01*
X000300Y005469D02*
X000595Y005469D01*
X000760Y005400D01*
X000940Y005400D01*
X001105Y005469D01*
X001595Y005469D01*
X001760Y005400D01*
X001595Y005469D02*
X001469Y005595D01*
X001400Y005760D01*
X001400Y005940D01*
X001469Y006105D01*
X001595Y006231D01*
X001760Y006300D01*
X001940Y006300D01*
X002105Y006231D01*
X002231Y006105D01*
X002300Y005940D01*
X002300Y005760D01*
X002231Y005595D01*
X002105Y005469D01*
X002204Y005568D02*
X002496Y005568D01*
X002469Y005595D02*
X002595Y005469D01*
X002469Y005595D02*
X002400Y005760D01*
X002400Y005940D01*
X002469Y006105D01*
X002595Y006231D01*
X002760Y006300D01*
X002940Y006300D01*
X003105Y006231D01*
X003231Y006105D01*
X003300Y005940D01*
X003300Y005760D01*
X003231Y005595D01*
X003105Y005469D01*
X003204Y005568D02*
X003496Y005568D01*
X003469Y005595D02*
X003595Y005469D01*
X003469Y005595D02*
X003400Y005760D01*
X003400Y005940D01*
X003469Y006105D01*
X003595Y006231D01*
X003760Y006300D01*
X003940Y006300D01*
X004105Y006231D01*
X004231Y006105D01*
X004300Y005940D01*
X004300Y005760D01*
X004231Y005595D01*
X004105Y005469D01*
X004204Y005568D02*
X005271Y005568D01*
X005369Y005666D02*
X004261Y005666D01*
X004300Y005765D02*
X005370Y005765D01*
X005370Y005863D02*
X004300Y005863D01*
X004291Y005962D02*
X005377Y005962D01*
X005417Y006060D02*
X004250Y006060D01*
X004178Y006159D02*
X005480Y006159D01*
X005578Y006257D02*
X004043Y006257D01*
X003657Y006257D02*
X003043Y006257D01*
X003178Y006159D02*
X003522Y006159D01*
X003450Y006060D02*
X003250Y006060D01*
X003291Y005962D02*
X003409Y005962D01*
X003400Y005863D02*
X003300Y005863D01*
X003300Y005765D02*
X003400Y005765D01*
X003439Y005666D02*
X003261Y005666D01*
X003629Y005181D02*
X003772Y005240D01*
X003928Y005240D01*
X004071Y005181D01*
X004181Y005071D01*
X004240Y004928D01*
X004240Y004772D01*
X004181Y004629D01*
X004071Y004519D01*
X003928Y004460D01*
X003772Y004460D01*
X003629Y004519D01*
X003519Y004629D01*
X003460Y004772D01*
X003460Y004928D01*
X003519Y005071D01*
X003629Y005181D01*
X003622Y005174D02*
X003078Y005174D01*
X003177Y005075D02*
X003523Y005075D01*
X003480Y004977D02*
X003220Y004977D01*
X003240Y004878D02*
X003460Y004878D01*
X003460Y004780D02*
X003240Y004780D01*
X003202Y004681D02*
X003498Y004681D01*
X003566Y004583D02*
X003214Y004583D01*
X003313Y004484D02*
X003714Y004484D01*
X003986Y004484D02*
X004187Y004484D01*
X004134Y004583D02*
X004286Y004583D01*
X004202Y004681D02*
X004384Y004681D01*
X004483Y004780D02*
X004240Y004780D01*
X004240Y004878D02*
X004581Y004878D01*
X004680Y004977D02*
X004220Y004977D01*
X004177Y005075D02*
X004778Y005075D01*
X004877Y005174D02*
X004078Y005174D01*
X004975Y005272D02*
X000300Y005272D01*
X000300Y005174D02*
X000622Y005174D01*
X000523Y005075D02*
X000300Y005075D01*
X000300Y004977D02*
X000480Y004977D01*
X000460Y004878D02*
X000300Y004878D01*
X000300Y004780D02*
X000460Y004780D01*
X000498Y004681D02*
X000300Y004681D01*
X000300Y004583D02*
X000566Y004583D01*
X000640Y004484D02*
X000300Y004484D01*
X000300Y004386D02*
X000425Y004386D01*
X000403Y004287D02*
X000300Y004287D01*
X000300Y004189D02*
X000403Y004189D01*
X000403Y004090D02*
X000300Y004090D01*
X000300Y003992D02*
X000403Y003992D01*
X000403Y003893D02*
X000300Y003893D01*
X000300Y003795D02*
X000415Y003795D01*
X000417Y003696D02*
X000300Y003696D01*
X000300Y003598D02*
X000403Y003598D01*
X000403Y003499D02*
X000300Y003499D01*
X001060Y004484D02*
X001714Y004484D01*
X001986Y004484D02*
X002714Y004484D01*
X002818Y004386D02*
X002405Y004386D01*
X002472Y004287D02*
X002916Y004287D01*
X003015Y004189D02*
X002472Y004189D01*
X002472Y004090D02*
X003113Y004090D01*
X002566Y004583D02*
X002134Y004583D01*
X002202Y004681D02*
X002498Y004681D01*
X002460Y004780D02*
X002240Y004780D01*
X002240Y004878D02*
X002460Y004878D01*
X002480Y004977D02*
X002220Y004977D01*
X002177Y005075D02*
X002523Y005075D01*
X002622Y005174D02*
X002078Y005174D01*
X002261Y005666D02*
X002439Y005666D01*
X002400Y005765D02*
X002300Y005765D01*
X002300Y005863D02*
X002400Y005863D01*
X002409Y005962D02*
X002291Y005962D01*
X002250Y006060D02*
X002450Y006060D01*
X002522Y006159D02*
X002178Y006159D01*
X002043Y006257D02*
X002657Y006257D01*
X001657Y006257D02*
X001043Y006257D01*
X001105Y006231D02*
X000940Y006300D01*
X000760Y006300D01*
X000595Y006231D01*
X000469Y006105D01*
X000400Y005940D01*
X000400Y005760D01*
X000469Y005595D01*
X000595Y005469D01*
X000496Y005568D02*
X000300Y005568D01*
X000300Y005666D02*
X000439Y005666D01*
X000400Y005765D02*
X000300Y005765D01*
X000300Y005863D02*
X000400Y005863D01*
X000409Y005962D02*
X000300Y005962D01*
X000372Y006060D02*
X000450Y006060D01*
X000471Y006159D02*
X000522Y006159D01*
X000569Y006257D02*
X000657Y006257D01*
X000668Y006356D02*
X007932Y006356D01*
X006753Y005371D02*
X006667Y005371D01*
X006615Y005272D02*
X006569Y005272D01*
X006537Y004484D02*
X006481Y004484D01*
X006800Y004189D02*
X006900Y004189D01*
X006900Y004090D02*
X006800Y004090D01*
X006800Y003992D02*
X006900Y003992D01*
X006900Y003893D02*
X008300Y003893D01*
X008300Y003992D02*
X007309Y003992D01*
X007266Y004090D02*
X008300Y004090D01*
X008300Y004189D02*
X007190Y004189D01*
X007050Y004287D02*
X008300Y004287D01*
X008300Y003795D02*
X007327Y003795D01*
X007305Y003696D02*
X008300Y003696D01*
X008300Y003598D02*
X007260Y003598D01*
X007178Y003499D02*
X008300Y003499D01*
X006680Y003401D02*
X006019Y003401D01*
X006178Y003499D02*
X006522Y003499D01*
X006440Y003598D02*
X006265Y003598D01*
X006306Y003696D02*
X006395Y003696D01*
X006373Y003795D02*
X006330Y003795D01*
X003530Y001628D02*
X003179Y001628D01*
X003221Y001726D02*
X003479Y001726D01*
X003628Y001529D02*
X003081Y001529D01*
X003100Y001234D02*
X003612Y001234D01*
X003501Y001135D02*
X003201Y001135D01*
X003260Y001037D02*
X003440Y001037D01*
X003408Y000938D02*
X003300Y000938D01*
X002523Y002317D02*
X002402Y002317D01*
X002470Y002416D02*
X002483Y002416D01*
X002472Y002514D02*
X002483Y002514D01*
X002472Y002613D02*
X002483Y002613D01*
X001105Y005469D02*
X001231Y005595D01*
X001300Y005760D01*
X001300Y005940D01*
X001231Y006105D01*
X001105Y006231D01*
X001178Y006159D02*
X001522Y006159D01*
X001450Y006060D02*
X001250Y006060D01*
X001291Y005962D02*
X001409Y005962D01*
X001400Y005863D02*
X001300Y005863D01*
X001300Y005765D02*
X001400Y005765D01*
X001439Y005666D02*
X001261Y005666D01*
X001204Y005568D02*
X001496Y005568D01*
D18*
X000850Y004850D02*
X000850Y003985D01*
X001806Y003985D01*
X001850Y003941D01*
X002006Y003785D01*
X002850Y003285D01*
X004485Y003285D01*
X005550Y004350D01*
X006050Y004350D01*
X006350Y004650D01*
X006350Y005350D01*
X006850Y005850D01*
X005850Y005850D02*
X004250Y004250D01*
X003250Y004250D01*
X002850Y004650D01*
X002850Y004850D01*
X000850Y003985D02*
X000750Y004085D01*
X002850Y002615D02*
X004615Y002615D01*
X005850Y003850D01*
M02*
