G75*
G70*
%OFA0B0*%
%FSLAX24Y24*%
%IPPOS*%
%LPD*%
%AMOC8*
5,1,8,0,0,1.08239X$1,22.5*
%
%ADD10C,0.0080*%
%ADD11C,0.0070*%
D10*
X000180Y000180D02*
X000180Y007180D01*
X008780Y007180D01*
X008780Y000180D01*
X000180Y000180D01*
X001180Y000930D02*
X001430Y000680D01*
X001930Y000680D01*
X002180Y000930D01*
X002430Y000680D01*
X002930Y000680D01*
X003180Y000930D01*
X003430Y000680D01*
X003930Y000680D01*
X004180Y000930D01*
X004430Y000680D01*
X004930Y000680D01*
X005180Y000930D01*
X005180Y001430D01*
X004930Y001680D01*
X004430Y001680D01*
X004180Y001430D01*
X003930Y001680D01*
X003430Y001680D01*
X003180Y001430D01*
X002930Y001680D01*
X002430Y001680D01*
X002180Y001430D01*
X001930Y001680D01*
X001430Y001680D01*
X001180Y001430D01*
X001180Y000930D01*
X001180Y002580D02*
X005180Y002580D01*
X005180Y004780D01*
X001180Y004780D01*
X001180Y003930D01*
X001210Y003928D01*
X001240Y003923D01*
X001269Y003914D01*
X001296Y003901D01*
X001322Y003886D01*
X001346Y003867D01*
X001367Y003846D01*
X001386Y003822D01*
X001401Y003796D01*
X001414Y003769D01*
X001423Y003740D01*
X001428Y003710D01*
X001430Y003680D01*
X001428Y003650D01*
X001423Y003620D01*
X001414Y003591D01*
X001401Y003564D01*
X001386Y003538D01*
X001367Y003514D01*
X001346Y003493D01*
X001322Y003474D01*
X001296Y003459D01*
X001269Y003446D01*
X001240Y003437D01*
X001210Y003432D01*
X001180Y003430D01*
X001180Y002580D01*
X001430Y005680D02*
X001930Y005680D01*
X002180Y005930D01*
X002430Y005680D01*
X002930Y005680D01*
X003180Y005930D01*
X003430Y005680D01*
X003930Y005680D01*
X004180Y005930D01*
X004430Y005680D01*
X004930Y005680D01*
X005180Y005930D01*
X005180Y006430D01*
X004930Y006680D01*
X004430Y006680D01*
X004180Y006430D01*
X003930Y006680D01*
X003430Y006680D01*
X003180Y006430D01*
X002930Y006680D01*
X002430Y006680D01*
X002180Y006430D01*
X001930Y006680D01*
X001430Y006680D01*
X001180Y006430D01*
X001180Y005930D01*
X001430Y005680D01*
X005870Y003300D02*
X005870Y003020D01*
X005870Y003160D02*
X006010Y003300D01*
X006080Y003300D01*
X006254Y003230D02*
X006324Y003300D01*
X006464Y003300D01*
X006534Y003230D01*
X006534Y003160D01*
X006254Y003160D01*
X006254Y003090D02*
X006254Y003230D01*
X006254Y003090D02*
X006324Y003020D01*
X006464Y003020D01*
X006714Y003020D02*
X006924Y003020D01*
X006994Y003090D01*
X006924Y003160D01*
X006784Y003160D01*
X006714Y003230D01*
X006784Y003300D01*
X006994Y003300D01*
X007174Y003230D02*
X007245Y003300D01*
X007385Y003300D01*
X007455Y003230D01*
X007455Y003160D01*
X007174Y003160D01*
X007174Y003090D02*
X007174Y003230D01*
X007174Y003090D02*
X007245Y003020D01*
X007385Y003020D01*
X007635Y003300D02*
X007775Y003300D01*
X007705Y003370D02*
X007705Y003090D01*
X007775Y003020D01*
X008161Y002761D02*
X005799Y002761D01*
X005799Y000399D01*
X008161Y000399D01*
X008161Y002761D01*
X006270Y001580D02*
X006272Y001633D01*
X006278Y001686D01*
X006288Y001738D01*
X006302Y001789D01*
X006319Y001839D01*
X006340Y001888D01*
X006365Y001935D01*
X006393Y001980D01*
X006425Y002023D01*
X006460Y002063D01*
X006497Y002100D01*
X006537Y002135D01*
X006580Y002167D01*
X006625Y002195D01*
X006672Y002220D01*
X006721Y002241D01*
X006771Y002258D01*
X006822Y002272D01*
X006874Y002282D01*
X006927Y002288D01*
X006980Y002290D01*
X007033Y002288D01*
X007086Y002282D01*
X007138Y002272D01*
X007189Y002258D01*
X007239Y002241D01*
X007288Y002220D01*
X007335Y002195D01*
X007380Y002167D01*
X007423Y002135D01*
X007463Y002100D01*
X007500Y002063D01*
X007535Y002023D01*
X007567Y001980D01*
X007595Y001935D01*
X007620Y001888D01*
X007641Y001839D01*
X007658Y001789D01*
X007672Y001738D01*
X007682Y001686D01*
X007688Y001633D01*
X007690Y001580D01*
X007688Y001527D01*
X007682Y001474D01*
X007672Y001422D01*
X007658Y001371D01*
X007641Y001321D01*
X007620Y001272D01*
X007595Y001225D01*
X007567Y001180D01*
X007535Y001137D01*
X007500Y001097D01*
X007463Y001060D01*
X007423Y001025D01*
X007380Y000993D01*
X007335Y000965D01*
X007288Y000940D01*
X007239Y000919D01*
X007189Y000902D01*
X007138Y000888D01*
X007086Y000878D01*
X007033Y000872D01*
X006980Y000870D01*
X006927Y000872D01*
X006874Y000878D01*
X006822Y000888D01*
X006771Y000902D01*
X006721Y000919D01*
X006672Y000940D01*
X006625Y000965D01*
X006580Y000993D01*
X006537Y001025D01*
X006497Y001060D01*
X006460Y001097D01*
X006425Y001137D01*
X006393Y001180D01*
X006365Y001225D01*
X006340Y001272D01*
X006319Y001321D01*
X006302Y001371D01*
X006288Y001422D01*
X006278Y001474D01*
X006272Y001527D01*
X006270Y001580D01*
X006180Y003980D02*
X008180Y003980D01*
X008180Y006980D01*
X006180Y006980D01*
X006180Y003980D01*
D11*
X000872Y003744D02*
X000808Y003807D01*
X000491Y003807D01*
X000491Y003617D01*
X000555Y003554D01*
X000682Y003554D01*
X000745Y003617D01*
X000745Y003807D01*
X000872Y003744D02*
X000872Y003680D01*
X000745Y003968D02*
X000365Y003968D01*
X000491Y004031D02*
X000491Y004158D01*
X000555Y004221D01*
X000745Y004221D01*
X000682Y004446D02*
X000745Y004509D01*
X000682Y004446D02*
X000428Y004446D01*
X000491Y004382D02*
X000491Y004509D01*
X000555Y004659D02*
X000491Y004722D01*
X000491Y004912D01*
X000618Y004849D02*
X000618Y004722D01*
X000555Y004659D01*
X000745Y004659D02*
X000745Y004849D01*
X000682Y004912D01*
X000618Y004849D01*
X000682Y005073D02*
X000682Y005136D01*
X000745Y005136D01*
X000745Y005073D01*
X000682Y005073D01*
X000682Y005280D02*
X000555Y005280D01*
X000491Y005343D01*
X000491Y005534D01*
X000555Y005694D02*
X000682Y005694D01*
X000745Y005758D01*
X000745Y005885D01*
X000682Y005948D01*
X000555Y005948D01*
X000491Y005885D01*
X000491Y005758D01*
X000555Y005694D01*
X000745Y005534D02*
X000745Y005343D01*
X000682Y005280D01*
X000745Y006109D02*
X000491Y006109D01*
X000491Y006172D01*
X000555Y006236D01*
X000491Y006299D01*
X000555Y006362D01*
X000745Y006362D01*
X000745Y006236D02*
X000555Y006236D01*
X000491Y004031D02*
X000555Y003968D01*
X000491Y003393D02*
X000745Y003393D01*
X000745Y003203D01*
X000682Y003139D01*
X000491Y003139D01*
X000555Y002978D02*
X000491Y002915D01*
X000491Y002788D01*
X000555Y002725D01*
X000682Y002725D01*
X000745Y002788D01*
X000745Y002915D01*
X000682Y002978D01*
X000555Y002978D01*
X000555Y002564D02*
X000745Y002564D01*
X000555Y002564D02*
X000491Y002501D01*
X000491Y002374D01*
X000555Y002311D01*
X000491Y002161D02*
X000491Y002034D01*
X000428Y002098D02*
X000682Y002098D01*
X000745Y002161D01*
X000745Y002311D02*
X000365Y002311D01*
X000555Y001873D02*
X000555Y001620D01*
X000491Y001470D02*
X000491Y001344D01*
X000428Y001407D02*
X000682Y001407D01*
X000745Y001470D01*
X000682Y001183D02*
X000555Y001183D01*
X000491Y001120D01*
X000491Y000993D01*
X000555Y000929D01*
X000682Y000929D01*
X000745Y000993D01*
X000745Y001120D01*
X000682Y001183D01*
X000682Y000769D02*
X000555Y000769D01*
X000491Y000705D01*
X000491Y000515D01*
X000365Y000515D02*
X000745Y000515D01*
X000745Y000705D01*
X000682Y000769D01*
M02*
