G75*
G70*
%OFA0B0*%
%FSLAX24Y24*%
%IPPOS*%
%LPD*%
%AMOC8*
5,1,8,0,0,1.08239X$1,22.5*
%
%ADD10R,0.0600X0.0600*%
%ADD11OC8,0.0600*%
%ADD12R,0.0433X0.0394*%
%ADD13R,0.0472X0.0217*%
%ADD14R,0.0512X0.0591*%
%ADD15R,0.0394X0.0433*%
%ADD16C,0.0120*%
%ADD17C,0.0100*%
%ADD18C,0.0337*%
D10*
X004500Y001160D03*
X007500Y004160D03*
X009500Y001160D03*
D11*
X010500Y001160D03*
X007500Y001160D03*
X006500Y001160D03*
X005500Y001160D03*
X007500Y005160D03*
D12*
X007500Y002595D03*
X007500Y001925D03*
X006500Y001925D03*
X006500Y002595D03*
X005500Y002595D03*
X005500Y001925D03*
X004500Y001925D03*
X004500Y002595D03*
D13*
X009538Y003886D03*
X009538Y004260D03*
X009538Y004634D03*
X010562Y004634D03*
X010562Y003886D03*
D14*
X010074Y005360D03*
X009326Y005360D03*
D15*
X009765Y003360D03*
X010435Y003360D03*
D16*
X003710Y000370D02*
X003710Y011446D01*
X011260Y011446D01*
X011260Y000370D01*
X003710Y000370D01*
X003710Y000397D02*
X011260Y000397D01*
X011260Y000516D02*
X003710Y000516D01*
X003710Y000634D02*
X011260Y000634D01*
X011260Y000753D02*
X010743Y000753D01*
X010691Y000700D02*
X010960Y000969D01*
X010960Y001120D01*
X010540Y001120D01*
X010540Y001200D01*
X010960Y001200D01*
X010960Y001351D01*
X010691Y001620D01*
X010540Y001620D01*
X010540Y001200D01*
X010460Y001200D01*
X010460Y001620D01*
X010309Y001620D01*
X010040Y001351D01*
X010040Y001200D01*
X010460Y001200D01*
X010460Y001120D01*
X010540Y001120D01*
X010540Y000700D01*
X010691Y000700D01*
X010540Y000753D02*
X010460Y000753D01*
X010460Y000700D02*
X010460Y001120D01*
X010040Y001120D01*
X010040Y000969D01*
X010309Y000700D01*
X010460Y000700D01*
X010460Y000871D02*
X010540Y000871D01*
X010540Y000990D02*
X010460Y000990D01*
X010460Y001108D02*
X010540Y001108D01*
X010540Y001227D02*
X010460Y001227D01*
X010460Y001345D02*
X010540Y001345D01*
X010540Y001464D02*
X010460Y001464D01*
X010460Y001582D02*
X010540Y001582D01*
X010271Y001582D02*
X007680Y001582D01*
X007680Y001574D02*
X007680Y001609D01*
X007766Y001609D01*
X007837Y001679D01*
X007837Y002172D01*
X007766Y002242D01*
X007234Y002242D01*
X007163Y002172D01*
X007163Y001679D01*
X007234Y001609D01*
X007320Y001609D01*
X007320Y001574D01*
X007080Y001334D01*
X007080Y000986D01*
X007326Y000740D01*
X007674Y000740D01*
X007920Y000986D01*
X007920Y001334D01*
X007680Y001574D01*
X007790Y001464D02*
X009080Y001464D01*
X009080Y001510D02*
X009080Y000810D01*
X009150Y000740D01*
X009850Y000740D01*
X009920Y000810D01*
X009920Y001510D01*
X009850Y001580D01*
X009150Y001580D01*
X009080Y001510D01*
X009080Y001345D02*
X007909Y001345D01*
X007920Y001227D02*
X009080Y001227D01*
X009080Y001108D02*
X007920Y001108D01*
X007920Y000990D02*
X009080Y000990D01*
X009080Y000871D02*
X007805Y000871D01*
X007686Y000753D02*
X009138Y000753D01*
X009862Y000753D02*
X010257Y000753D01*
X010138Y000871D02*
X009920Y000871D01*
X009920Y000990D02*
X010040Y000990D01*
X010040Y001108D02*
X009920Y001108D01*
X009920Y001227D02*
X010040Y001227D01*
X010040Y001345D02*
X009920Y001345D01*
X009920Y001464D02*
X010153Y001464D01*
X010729Y001582D02*
X011260Y001582D01*
X011260Y001464D02*
X010847Y001464D01*
X010960Y001345D02*
X011260Y001345D01*
X011260Y001227D02*
X010960Y001227D01*
X010960Y001108D02*
X011260Y001108D01*
X011260Y000990D02*
X010960Y000990D01*
X010862Y000871D02*
X011260Y000871D01*
X011260Y001701D02*
X007837Y001701D01*
X007837Y001819D02*
X011260Y001819D01*
X011260Y001938D02*
X007837Y001938D01*
X007837Y002056D02*
X011260Y002056D01*
X011260Y002175D02*
X007834Y002175D01*
X007766Y002278D02*
X007837Y002348D01*
X007837Y002841D01*
X007766Y002911D01*
X007424Y002911D01*
X007291Y003044D01*
X007345Y003097D01*
X007388Y003203D01*
X007388Y003317D01*
X007345Y003423D01*
X007263Y003505D01*
X007157Y003548D01*
X007043Y003548D01*
X006937Y003505D01*
X006855Y003423D01*
X006812Y003317D01*
X006812Y003203D01*
X006855Y003097D01*
X006930Y003022D01*
X006930Y002924D01*
X007163Y002691D01*
X007163Y002348D01*
X007234Y002278D01*
X007766Y002278D01*
X007781Y002293D02*
X011260Y002293D01*
X011260Y002412D02*
X007837Y002412D01*
X007837Y002530D02*
X011260Y002530D01*
X011260Y002649D02*
X007837Y002649D01*
X007837Y002767D02*
X011260Y002767D01*
X011260Y002886D02*
X007792Y002886D01*
X007331Y003004D02*
X010159Y003004D01*
X010176Y002994D02*
X010217Y002983D01*
X010396Y002983D01*
X010396Y003322D01*
X010473Y003322D01*
X010473Y003398D01*
X010791Y003398D01*
X010791Y003598D01*
X010781Y003638D01*
X010769Y003658D01*
X010848Y003658D01*
X010918Y003728D01*
X010918Y003788D01*
X010920Y003790D01*
X011020Y003890D01*
X011020Y004022D01*
X011095Y004097D01*
X011138Y004203D01*
X011138Y004317D01*
X011095Y004423D01*
X011013Y004505D01*
X010918Y004544D01*
X010918Y004792D01*
X010848Y004862D01*
X010276Y004862D01*
X010206Y004792D01*
X010206Y004476D01*
X010276Y004406D01*
X010598Y004406D01*
X010562Y004317D01*
X010562Y004203D01*
X010598Y004114D01*
X010276Y004114D01*
X010206Y004044D01*
X010206Y003734D01*
X010176Y003726D01*
X010140Y003705D01*
X010110Y003675D01*
X010089Y003638D01*
X010082Y003614D01*
X010082Y003626D01*
X010012Y003697D01*
X009935Y003697D01*
X009935Y003755D01*
X009970Y003790D01*
X010070Y003890D01*
X010070Y004630D01*
X009970Y004730D01*
X009896Y004804D01*
X009882Y004804D01*
X009824Y004862D01*
X009252Y004862D01*
X009182Y004792D01*
X009182Y004476D01*
X009183Y004475D01*
X009174Y004467D01*
X009153Y004430D01*
X009142Y004389D01*
X009142Y004260D01*
X009142Y004131D01*
X009153Y004090D01*
X009174Y004053D01*
X009183Y004045D01*
X009182Y004044D01*
X009182Y003728D01*
X009252Y003658D01*
X009480Y003658D01*
X009449Y003626D01*
X009449Y003480D01*
X009188Y003480D01*
X009113Y003555D01*
X009007Y003598D01*
X008893Y003598D01*
X008787Y003555D01*
X008705Y003473D01*
X008662Y003367D01*
X008662Y003253D01*
X008705Y003147D01*
X008787Y003065D01*
X008893Y003022D01*
X009007Y003022D01*
X009113Y003065D01*
X009188Y003140D01*
X009449Y003140D01*
X009449Y003094D01*
X009519Y003023D01*
X010012Y003023D01*
X010082Y003094D01*
X010082Y003106D01*
X010089Y003082D01*
X010110Y003045D01*
X010140Y003015D01*
X010176Y002994D01*
X010396Y003004D02*
X010473Y003004D01*
X010473Y002983D02*
X010653Y002983D01*
X010693Y002994D01*
X010730Y003015D01*
X010760Y003045D01*
X010781Y003082D01*
X010791Y003122D01*
X010791Y003322D01*
X010473Y003322D01*
X010473Y002983D01*
X010473Y003123D02*
X010396Y003123D01*
X010396Y003241D02*
X010473Y003241D01*
X010473Y003360D02*
X011260Y003360D01*
X011260Y003478D02*
X010791Y003478D01*
X010791Y003597D02*
X011260Y003597D01*
X011260Y003715D02*
X010905Y003715D01*
X010964Y003834D02*
X011260Y003834D01*
X011260Y003952D02*
X011020Y003952D01*
X011068Y004071D02*
X011260Y004071D01*
X011260Y004189D02*
X011133Y004189D01*
X011138Y004308D02*
X011260Y004308D01*
X011260Y004426D02*
X011092Y004426D01*
X011260Y004545D02*
X010918Y004545D01*
X010918Y004663D02*
X011260Y004663D01*
X011260Y004782D02*
X010918Y004782D01*
X011260Y004900D02*
X007891Y004900D01*
X007960Y004969D02*
X007960Y005120D01*
X007540Y005120D01*
X007540Y005200D01*
X007460Y005200D01*
X007460Y005620D01*
X007309Y005620D01*
X007040Y005351D01*
X007040Y005200D01*
X007460Y005200D01*
X007460Y005120D01*
X007040Y005120D01*
X007040Y004969D01*
X007309Y004700D01*
X007460Y004700D01*
X007460Y005120D01*
X007540Y005120D01*
X007540Y004700D01*
X007691Y004700D01*
X007960Y004969D01*
X007960Y005019D02*
X008950Y005019D01*
X008950Y005015D02*
X009020Y004945D01*
X009632Y004945D01*
X009677Y004990D01*
X009690Y004966D01*
X009720Y004937D01*
X009756Y004916D01*
X009797Y004905D01*
X010014Y004905D01*
X010014Y005300D01*
X010134Y005300D01*
X010134Y004905D01*
X010351Y004905D01*
X010392Y004916D01*
X010428Y004937D01*
X010458Y004966D01*
X010479Y005003D01*
X010490Y005044D01*
X010490Y005300D01*
X010134Y005300D01*
X010134Y005420D01*
X010014Y005420D01*
X010014Y005815D01*
X009797Y005815D01*
X009756Y005804D01*
X009720Y005783D01*
X009690Y005754D01*
X009677Y005730D01*
X009632Y005775D01*
X009020Y005775D01*
X008950Y005705D01*
X008950Y005610D01*
X008857Y005648D01*
X008743Y005648D01*
X008637Y005605D01*
X008555Y005523D01*
X008512Y005417D01*
X008512Y005303D01*
X008555Y005197D01*
X008637Y005115D01*
X008743Y005072D01*
X008857Y005072D01*
X008950Y005110D01*
X008950Y005015D01*
X009182Y004782D02*
X007772Y004782D01*
X007850Y004580D02*
X007920Y004510D01*
X007920Y003810D01*
X007850Y003740D01*
X007150Y003740D01*
X007080Y003810D01*
X007080Y004510D01*
X007150Y004580D01*
X007850Y004580D01*
X007885Y004545D02*
X009182Y004545D01*
X009182Y004663D02*
X006670Y004663D01*
X006670Y004545D02*
X007115Y004545D01*
X007080Y004426D02*
X006670Y004426D01*
X006670Y004308D02*
X007080Y004308D01*
X007080Y004189D02*
X006670Y004189D01*
X006670Y004071D02*
X007080Y004071D01*
X007080Y003952D02*
X006670Y003952D01*
X006670Y003834D02*
X007080Y003834D01*
X006910Y003478D02*
X006670Y003478D01*
X006670Y003360D02*
X006829Y003360D01*
X006812Y003241D02*
X006670Y003241D01*
X006670Y003123D02*
X006845Y003123D01*
X006930Y003004D02*
X006670Y003004D01*
X006670Y002911D02*
X006670Y005740D01*
X007252Y006322D01*
X007357Y006322D01*
X007463Y006365D01*
X007545Y006447D01*
X007588Y006553D01*
X007588Y006667D01*
X007545Y006773D01*
X007463Y006855D01*
X007357Y006898D01*
X007243Y006898D01*
X007137Y006855D01*
X007055Y006773D01*
X007012Y006667D01*
X007012Y006562D01*
X006330Y005880D01*
X006330Y002911D01*
X006234Y002911D01*
X006163Y002841D01*
X006163Y002348D01*
X006234Y002278D01*
X006766Y002278D01*
X006837Y002348D01*
X006837Y002841D01*
X006766Y002911D01*
X006670Y002911D01*
X006792Y002886D02*
X006969Y002886D01*
X007087Y002767D02*
X006837Y002767D01*
X006837Y002649D02*
X007163Y002649D01*
X007163Y002530D02*
X006837Y002530D01*
X006837Y002412D02*
X007163Y002412D01*
X007219Y002293D02*
X006781Y002293D01*
X006766Y002242D02*
X006234Y002242D01*
X006163Y002172D01*
X006163Y001679D01*
X006234Y001609D01*
X006320Y001609D01*
X006320Y001574D01*
X006080Y001334D01*
X006080Y000986D01*
X006326Y000740D01*
X006674Y000740D01*
X006920Y000986D01*
X006920Y001334D01*
X006680Y001574D01*
X006680Y001609D01*
X006766Y001609D01*
X006837Y001679D01*
X006837Y002172D01*
X006766Y002242D01*
X006834Y002175D02*
X007166Y002175D01*
X007163Y002056D02*
X006837Y002056D01*
X006837Y001938D02*
X007163Y001938D01*
X007163Y001819D02*
X006837Y001819D01*
X006837Y001701D02*
X007163Y001701D01*
X007320Y001582D02*
X006680Y001582D01*
X006790Y001464D02*
X007210Y001464D01*
X007091Y001345D02*
X006909Y001345D01*
X006920Y001227D02*
X007080Y001227D01*
X007080Y001108D02*
X006920Y001108D01*
X006920Y000990D02*
X007080Y000990D01*
X007195Y000871D02*
X006805Y000871D01*
X006686Y000753D02*
X007314Y000753D01*
X007500Y001160D02*
X007500Y001925D01*
X006500Y001925D02*
X006500Y001160D01*
X006195Y000871D02*
X005805Y000871D01*
X005920Y000986D02*
X005674Y000740D01*
X005326Y000740D01*
X005080Y000986D01*
X005080Y001334D01*
X005320Y001574D01*
X005320Y001609D01*
X005234Y001609D01*
X005163Y001679D01*
X005163Y002172D01*
X005234Y002242D01*
X005766Y002242D01*
X005837Y002172D01*
X005837Y001679D01*
X005766Y001609D01*
X005680Y001609D01*
X005680Y001574D01*
X005920Y001334D01*
X005920Y000986D01*
X005920Y000990D02*
X006080Y000990D01*
X006080Y001108D02*
X005920Y001108D01*
X005920Y001227D02*
X006080Y001227D01*
X006091Y001345D02*
X005909Y001345D01*
X005790Y001464D02*
X006210Y001464D01*
X006320Y001582D02*
X005680Y001582D01*
X005837Y001701D02*
X006163Y001701D01*
X006163Y001819D02*
X005837Y001819D01*
X005837Y001938D02*
X006163Y001938D01*
X006163Y002056D02*
X005837Y002056D01*
X005834Y002175D02*
X006166Y002175D01*
X006219Y002293D02*
X005781Y002293D01*
X005766Y002278D02*
X005837Y002348D01*
X005837Y002841D01*
X005766Y002911D01*
X005670Y002911D01*
X005670Y005390D01*
X008052Y007772D01*
X008157Y007772D01*
X008263Y007815D01*
X008345Y007897D01*
X008388Y008003D01*
X008388Y008117D01*
X008345Y008223D01*
X008263Y008305D01*
X008157Y008348D01*
X008043Y008348D01*
X007937Y008305D01*
X007855Y008223D01*
X007812Y008117D01*
X007812Y008012D01*
X005330Y005530D01*
X005330Y002911D01*
X005234Y002911D01*
X005163Y002841D01*
X005163Y002348D01*
X005234Y002278D01*
X005766Y002278D01*
X005837Y002412D02*
X006163Y002412D01*
X006163Y002530D02*
X005837Y002530D01*
X005837Y002649D02*
X006163Y002649D01*
X006163Y002767D02*
X005837Y002767D01*
X005792Y002886D02*
X006208Y002886D01*
X006330Y003004D02*
X005670Y003004D01*
X005670Y003123D02*
X006330Y003123D01*
X006330Y003241D02*
X005670Y003241D01*
X005670Y003360D02*
X006330Y003360D01*
X006330Y003478D02*
X005670Y003478D01*
X005670Y003597D02*
X006330Y003597D01*
X006330Y003715D02*
X005670Y003715D01*
X005670Y003834D02*
X006330Y003834D01*
X006330Y003952D02*
X005670Y003952D01*
X005670Y004071D02*
X006330Y004071D01*
X006330Y004189D02*
X005670Y004189D01*
X005670Y004308D02*
X006330Y004308D01*
X006330Y004426D02*
X005670Y004426D01*
X005670Y004545D02*
X006330Y004545D01*
X006330Y004663D02*
X005670Y004663D01*
X005670Y004782D02*
X006330Y004782D01*
X006330Y004900D02*
X005670Y004900D01*
X005670Y005019D02*
X006330Y005019D01*
X006330Y005137D02*
X005670Y005137D01*
X005670Y005256D02*
X006330Y005256D01*
X006330Y005374D02*
X005670Y005374D01*
X005773Y005493D02*
X006330Y005493D01*
X006330Y005611D02*
X005891Y005611D01*
X006010Y005730D02*
X006330Y005730D01*
X006330Y005848D02*
X006128Y005848D01*
X006247Y005967D02*
X006416Y005967D01*
X006365Y006085D02*
X006535Y006085D01*
X006484Y006204D02*
X006653Y006204D01*
X006602Y006322D02*
X006772Y006322D01*
X006721Y006441D02*
X006890Y006441D01*
X006839Y006559D02*
X007009Y006559D01*
X007016Y006678D02*
X006958Y006678D01*
X007076Y006796D02*
X007078Y006796D01*
X007195Y006915D02*
X011260Y006915D01*
X011260Y007033D02*
X007313Y007033D01*
X007432Y007152D02*
X011260Y007152D01*
X011260Y007270D02*
X007550Y007270D01*
X007669Y007389D02*
X011260Y007389D01*
X011260Y007507D02*
X007787Y007507D01*
X007906Y007626D02*
X011260Y007626D01*
X011260Y007744D02*
X008024Y007744D01*
X008310Y007863D02*
X011260Y007863D01*
X011260Y007981D02*
X008379Y007981D01*
X008388Y008100D02*
X011260Y008100D01*
X011260Y008218D02*
X008347Y008218D01*
X008186Y008337D02*
X011260Y008337D01*
X011260Y008455D02*
X008169Y008455D01*
X008121Y008435D02*
X008227Y008479D01*
X008308Y008560D01*
X008352Y008666D01*
X008352Y008781D01*
X008308Y008887D01*
X008227Y008968D01*
X008121Y009012D01*
X008006Y009012D01*
X007900Y008968D01*
X007819Y008887D01*
X007775Y008781D01*
X007775Y008676D01*
X004330Y005230D01*
X004330Y002911D01*
X004234Y002911D01*
X004163Y002841D01*
X004163Y002348D01*
X004234Y002278D01*
X004766Y002278D01*
X004837Y002348D01*
X004837Y002841D01*
X004766Y002911D01*
X004670Y002911D01*
X004670Y005090D01*
X008016Y008435D01*
X008121Y008435D01*
X008014Y008337D02*
X007917Y008337D01*
X007853Y008218D02*
X007798Y008218D01*
X007812Y008100D02*
X007680Y008100D01*
X007781Y007981D02*
X007561Y007981D01*
X007662Y007863D02*
X007443Y007863D01*
X007544Y007744D02*
X007324Y007744D01*
X007425Y007626D02*
X007206Y007626D01*
X007307Y007507D02*
X007087Y007507D01*
X007188Y007389D02*
X006969Y007389D01*
X007070Y007270D02*
X006850Y007270D01*
X006951Y007152D02*
X006732Y007152D01*
X006833Y007033D02*
X006613Y007033D01*
X006714Y006915D02*
X006495Y006915D01*
X006596Y006796D02*
X006376Y006796D01*
X006477Y006678D02*
X006258Y006678D01*
X006359Y006559D02*
X006139Y006559D01*
X006240Y006441D02*
X006021Y006441D01*
X006122Y006322D02*
X005902Y006322D01*
X006003Y006204D02*
X005784Y006204D01*
X005885Y006085D02*
X005665Y006085D01*
X005766Y005967D02*
X005547Y005967D01*
X005648Y005848D02*
X005428Y005848D01*
X005529Y005730D02*
X005310Y005730D01*
X005411Y005611D02*
X005191Y005611D01*
X005073Y005493D02*
X005330Y005493D01*
X005330Y005374D02*
X004954Y005374D01*
X004836Y005256D02*
X005330Y005256D01*
X005330Y005137D02*
X004717Y005137D01*
X004670Y005019D02*
X005330Y005019D01*
X005330Y004900D02*
X004670Y004900D01*
X004670Y004782D02*
X005330Y004782D01*
X005330Y004663D02*
X004670Y004663D01*
X004670Y004545D02*
X005330Y004545D01*
X005330Y004426D02*
X004670Y004426D01*
X004670Y004308D02*
X005330Y004308D01*
X005330Y004189D02*
X004670Y004189D01*
X004670Y004071D02*
X005330Y004071D01*
X005330Y003952D02*
X004670Y003952D01*
X004670Y003834D02*
X005330Y003834D01*
X005330Y003715D02*
X004670Y003715D01*
X004670Y003597D02*
X005330Y003597D01*
X005330Y003478D02*
X004670Y003478D01*
X004670Y003360D02*
X005330Y003360D01*
X005330Y003241D02*
X004670Y003241D01*
X004670Y003123D02*
X005330Y003123D01*
X005330Y003004D02*
X004670Y003004D01*
X004792Y002886D02*
X005208Y002886D01*
X005163Y002767D02*
X004837Y002767D01*
X004837Y002649D02*
X005163Y002649D01*
X005163Y002530D02*
X004837Y002530D01*
X004837Y002412D02*
X005163Y002412D01*
X005219Y002293D02*
X004781Y002293D01*
X004766Y002242D02*
X004234Y002242D01*
X004163Y002172D01*
X004163Y001679D01*
X004234Y001609D01*
X004320Y001609D01*
X004320Y001580D01*
X004150Y001580D01*
X004080Y001510D01*
X004080Y000810D01*
X004150Y000740D01*
X004850Y000740D01*
X004920Y000810D01*
X004920Y001510D01*
X004850Y001580D01*
X004680Y001580D01*
X004680Y001609D01*
X004766Y001609D01*
X004837Y001679D01*
X004837Y002172D01*
X004766Y002242D01*
X004834Y002175D02*
X005166Y002175D01*
X005163Y002056D02*
X004837Y002056D01*
X004837Y001938D02*
X005163Y001938D01*
X005163Y001819D02*
X004837Y001819D01*
X004837Y001701D02*
X005163Y001701D01*
X005320Y001582D02*
X004680Y001582D01*
X004920Y001464D02*
X005210Y001464D01*
X005091Y001345D02*
X004920Y001345D01*
X004920Y001227D02*
X005080Y001227D01*
X005080Y001108D02*
X004920Y001108D01*
X004920Y000990D02*
X005080Y000990D01*
X005195Y000871D02*
X004920Y000871D01*
X004862Y000753D02*
X005314Y000753D01*
X005686Y000753D02*
X006314Y000753D01*
X005500Y001160D02*
X005500Y001925D01*
X004500Y001925D02*
X004500Y001160D01*
X004080Y001108D02*
X003710Y001108D01*
X003710Y000990D02*
X004080Y000990D01*
X004080Y000871D02*
X003710Y000871D01*
X003710Y000753D02*
X004138Y000753D01*
X004080Y001227D02*
X003710Y001227D01*
X003710Y001345D02*
X004080Y001345D01*
X004080Y001464D02*
X003710Y001464D01*
X003710Y001582D02*
X004320Y001582D01*
X004163Y001701D02*
X003710Y001701D01*
X003710Y001819D02*
X004163Y001819D01*
X004163Y001938D02*
X003710Y001938D01*
X003710Y002056D02*
X004163Y002056D01*
X004166Y002175D02*
X003710Y002175D01*
X003710Y002293D02*
X004219Y002293D01*
X004163Y002412D02*
X003710Y002412D01*
X003710Y002530D02*
X004163Y002530D01*
X004163Y002649D02*
X003710Y002649D01*
X003710Y002767D02*
X004163Y002767D01*
X004208Y002886D02*
X003710Y002886D01*
X003710Y003004D02*
X004330Y003004D01*
X004330Y003123D02*
X003710Y003123D01*
X003710Y003241D02*
X004330Y003241D01*
X004330Y003360D02*
X003710Y003360D01*
X003710Y003478D02*
X004330Y003478D01*
X004330Y003597D02*
X003710Y003597D01*
X003710Y003715D02*
X004330Y003715D01*
X004330Y003834D02*
X003710Y003834D01*
X003710Y003952D02*
X004330Y003952D01*
X004330Y004071D02*
X003710Y004071D01*
X003710Y004189D02*
X004330Y004189D01*
X004330Y004308D02*
X003710Y004308D01*
X003710Y004426D02*
X004330Y004426D01*
X004330Y004545D02*
X003710Y004545D01*
X003710Y004663D02*
X004330Y004663D01*
X004330Y004782D02*
X003710Y004782D01*
X003710Y004900D02*
X004330Y004900D01*
X004330Y005019D02*
X003710Y005019D01*
X003710Y005137D02*
X004330Y005137D01*
X004355Y005256D02*
X003710Y005256D01*
X003710Y005374D02*
X004474Y005374D01*
X004592Y005493D02*
X003710Y005493D01*
X003710Y005611D02*
X004711Y005611D01*
X004829Y005730D02*
X003710Y005730D01*
X003710Y005848D02*
X004948Y005848D01*
X005066Y005967D02*
X003710Y005967D01*
X003710Y006085D02*
X005185Y006085D01*
X005303Y006204D02*
X003710Y006204D01*
X003710Y006322D02*
X005422Y006322D01*
X005540Y006441D02*
X003710Y006441D01*
X003710Y006559D02*
X005659Y006559D01*
X005777Y006678D02*
X003710Y006678D01*
X003710Y006796D02*
X005896Y006796D01*
X006014Y006915D02*
X003710Y006915D01*
X003710Y007033D02*
X006133Y007033D01*
X006251Y007152D02*
X003710Y007152D01*
X003710Y007270D02*
X006370Y007270D01*
X006488Y007389D02*
X003710Y007389D01*
X003710Y007507D02*
X006607Y007507D01*
X006725Y007626D02*
X003710Y007626D01*
X003710Y007744D02*
X006844Y007744D01*
X006962Y007863D02*
X003710Y007863D01*
X003710Y007981D02*
X007081Y007981D01*
X007199Y008100D02*
X003710Y008100D01*
X003710Y008218D02*
X007318Y008218D01*
X007436Y008337D02*
X003710Y008337D01*
X003710Y008455D02*
X007555Y008455D01*
X007673Y008574D02*
X003710Y008574D01*
X003710Y008692D02*
X007775Y008692D01*
X007788Y008811D02*
X003710Y008811D01*
X003710Y008929D02*
X007861Y008929D01*
X008266Y008929D02*
X011260Y008929D01*
X011260Y008811D02*
X008340Y008811D01*
X008352Y008692D02*
X011260Y008692D01*
X011260Y008574D02*
X008314Y008574D01*
X007522Y006796D02*
X011260Y006796D01*
X011260Y006678D02*
X007584Y006678D01*
X007588Y006559D02*
X011260Y006559D01*
X011260Y006441D02*
X007538Y006441D01*
X007358Y006322D02*
X011260Y006322D01*
X011260Y006204D02*
X007134Y006204D01*
X007015Y006085D02*
X011260Y006085D01*
X011260Y005967D02*
X006897Y005967D01*
X006778Y005848D02*
X011260Y005848D01*
X011260Y005730D02*
X010472Y005730D01*
X010479Y005717D02*
X010458Y005754D01*
X010428Y005783D01*
X010392Y005804D01*
X010351Y005815D01*
X010134Y005815D01*
X010134Y005420D01*
X010490Y005420D01*
X010490Y005676D01*
X010479Y005717D01*
X010490Y005611D02*
X011260Y005611D01*
X011260Y005493D02*
X010490Y005493D01*
X010490Y005256D02*
X011260Y005256D01*
X011260Y005374D02*
X010134Y005374D01*
X010134Y005256D02*
X010014Y005256D01*
X010014Y005137D02*
X010134Y005137D01*
X010134Y005019D02*
X010014Y005019D01*
X009919Y004782D02*
X010206Y004782D01*
X010206Y004663D02*
X010037Y004663D01*
X010070Y004545D02*
X010206Y004545D01*
X010256Y004426D02*
X010070Y004426D01*
X010070Y004308D02*
X010562Y004308D01*
X010567Y004189D02*
X010070Y004189D01*
X010070Y004071D02*
X010232Y004071D01*
X010206Y003952D02*
X010070Y003952D01*
X010014Y003834D02*
X010206Y003834D01*
X010158Y003715D02*
X009935Y003715D01*
X009449Y003597D02*
X009012Y003597D01*
X008888Y003597D02*
X006670Y003597D01*
X006670Y003715D02*
X009195Y003715D01*
X009182Y003834D02*
X007920Y003834D01*
X007920Y003952D02*
X009182Y003952D01*
X009164Y004071D02*
X007920Y004071D01*
X007920Y004189D02*
X009142Y004189D01*
X009142Y004260D02*
X009538Y004260D01*
X009538Y004260D01*
X009142Y004260D01*
X009142Y004308D02*
X007920Y004308D01*
X007920Y004426D02*
X009152Y004426D01*
X008615Y005137D02*
X007540Y005137D01*
X007540Y005200D02*
X007960Y005200D01*
X007960Y005351D01*
X007691Y005620D01*
X007540Y005620D01*
X007540Y005200D01*
X007540Y005256D02*
X007460Y005256D01*
X007460Y005374D02*
X007540Y005374D01*
X007540Y005493D02*
X007460Y005493D01*
X007460Y005611D02*
X007540Y005611D01*
X007700Y005611D02*
X008652Y005611D01*
X008543Y005493D02*
X007818Y005493D01*
X007937Y005374D02*
X008512Y005374D01*
X008531Y005256D02*
X007960Y005256D01*
X007540Y005019D02*
X007460Y005019D01*
X007460Y005137D02*
X006670Y005137D01*
X006670Y005019D02*
X007040Y005019D01*
X007109Y004900D02*
X006670Y004900D01*
X006670Y004782D02*
X007228Y004782D01*
X007460Y004782D02*
X007540Y004782D01*
X007540Y004900D02*
X007460Y004900D01*
X007040Y005256D02*
X006670Y005256D01*
X006670Y005374D02*
X007063Y005374D01*
X007182Y005493D02*
X006670Y005493D01*
X006670Y005611D02*
X007300Y005611D01*
X006670Y005730D02*
X008975Y005730D01*
X008950Y005611D02*
X008948Y005611D01*
X010014Y005611D02*
X010134Y005611D01*
X010134Y005493D02*
X010014Y005493D01*
X010014Y005730D02*
X010134Y005730D01*
X010490Y005137D02*
X011260Y005137D01*
X011260Y005019D02*
X010483Y005019D01*
X008710Y003478D02*
X007290Y003478D01*
X007371Y003360D02*
X008662Y003360D01*
X008666Y003241D02*
X007388Y003241D01*
X007355Y003123D02*
X008730Y003123D01*
X009170Y003123D02*
X009449Y003123D01*
X010710Y003004D02*
X011260Y003004D01*
X011260Y003123D02*
X010791Y003123D01*
X010791Y003241D02*
X011260Y003241D01*
X011260Y009048D02*
X003710Y009048D01*
X003710Y009166D02*
X011260Y009166D01*
X011260Y009285D02*
X003710Y009285D01*
X003710Y009403D02*
X011260Y009403D01*
X011260Y009522D02*
X003710Y009522D01*
X003710Y009640D02*
X011260Y009640D01*
X011260Y009759D02*
X003710Y009759D01*
X003710Y009877D02*
X011260Y009877D01*
X011260Y009996D02*
X003710Y009996D01*
X003710Y010114D02*
X011260Y010114D01*
X011260Y010233D02*
X003710Y010233D01*
X003710Y010351D02*
X011260Y010351D01*
X011260Y010470D02*
X003710Y010470D01*
X003710Y010588D02*
X011260Y010588D01*
X011260Y010707D02*
X003710Y010707D01*
X003710Y010825D02*
X011260Y010825D01*
X011260Y010944D02*
X003710Y010944D01*
X003710Y011062D02*
X011260Y011062D01*
X011260Y011181D02*
X003710Y011181D01*
X003710Y011299D02*
X011260Y011299D01*
X011260Y011418D02*
X003710Y011418D01*
D17*
X008064Y008724D02*
X004500Y005160D01*
X004500Y002595D01*
X005500Y002595D02*
X005500Y005460D01*
X008100Y008060D01*
X007300Y006610D02*
X006500Y005810D01*
X006500Y002595D01*
X007100Y002995D02*
X007500Y002595D01*
X007100Y002995D02*
X007100Y003260D01*
X008950Y003310D02*
X009715Y003310D01*
X009765Y003360D01*
X009765Y003851D01*
X009800Y003886D01*
X009826Y003886D01*
X009900Y003960D01*
X009900Y004560D01*
X009826Y004634D01*
X009538Y004634D01*
X009326Y005360D02*
X008800Y005360D01*
X009538Y003886D02*
X009800Y003886D01*
X010562Y003886D02*
X010776Y003886D01*
X010850Y003960D01*
X010850Y004260D01*
D18*
X010850Y004260D03*
X008950Y003310D03*
X007100Y003260D03*
X008800Y005360D03*
X007300Y006610D03*
X008100Y008060D03*
X008064Y008724D03*
M02*
