G75*
G70*
%OFA0B0*%
%FSLAX24Y24*%
%IPPOS*%
%LPD*%
%AMOC8*
5,1,8,0,0,1.08239X$1,22.5*
%
%ADD10C,0.0080*%
%ADD11C,0.0137*%
%ADD12C,0.0091*%
%ADD13C,0.0114*%
%ADD14C,0.0100*%
D10*
X004340Y002950D02*
X004660Y002950D01*
X004660Y003110D01*
X004607Y003164D01*
X004500Y003164D01*
X004447Y003110D01*
X004447Y002950D01*
X004447Y003057D02*
X004340Y003164D01*
X004340Y003318D02*
X004554Y003532D01*
X004607Y003532D01*
X004660Y003478D01*
X004660Y003372D01*
X004607Y003318D01*
X004340Y003318D02*
X004340Y003532D01*
X005340Y003532D02*
X005340Y003318D01*
X005340Y003425D02*
X005660Y003425D01*
X005554Y003318D01*
X005607Y003164D02*
X005500Y003164D01*
X005447Y003110D01*
X005447Y002950D01*
X005447Y003057D02*
X005340Y003164D01*
X005340Y002950D02*
X005660Y002950D01*
X005660Y003110D01*
X005607Y003164D01*
X006340Y003144D02*
X006447Y003037D01*
X006447Y003090D02*
X006447Y002930D01*
X006340Y002930D02*
X006660Y002930D01*
X006660Y003090D01*
X006607Y003144D01*
X006500Y003144D01*
X006447Y003090D01*
X006500Y003298D02*
X006500Y003512D01*
X006340Y003458D02*
X006660Y003458D01*
X006500Y003298D01*
X007340Y003372D02*
X007393Y003318D01*
X007340Y003372D02*
X007340Y003478D01*
X007393Y003532D01*
X007447Y003532D01*
X007500Y003478D01*
X007500Y003425D01*
X007500Y003478D02*
X007554Y003532D01*
X007607Y003532D01*
X007660Y003478D01*
X007660Y003372D01*
X007607Y003318D01*
X007607Y003164D02*
X007500Y003164D01*
X007447Y003110D01*
X007447Y002950D01*
X007447Y003057D02*
X007340Y003164D01*
X007340Y002950D02*
X007660Y002950D01*
X007660Y003110D01*
X007607Y003164D01*
X008940Y004103D02*
X008940Y004210D01*
X008993Y004264D01*
X009260Y004264D01*
X009154Y004418D02*
X009260Y004525D01*
X008940Y004525D01*
X008940Y004418D02*
X008940Y004632D01*
X008940Y004103D02*
X008993Y004050D01*
X009260Y004050D01*
X009881Y003700D02*
X010219Y003700D01*
X010369Y004154D02*
X010369Y004366D01*
X010219Y004820D02*
X009881Y004820D01*
X010550Y005183D02*
X010550Y005290D01*
X010603Y005344D01*
X010550Y005498D02*
X010550Y005712D01*
X010550Y005605D02*
X010870Y005605D01*
X010764Y005498D01*
X010817Y005344D02*
X010870Y005290D01*
X010870Y005183D01*
X010817Y005130D01*
X010603Y005130D01*
X010550Y005183D01*
X010550Y006000D02*
X010480Y006070D01*
X010480Y006210D01*
X010550Y006280D01*
X010760Y006280D01*
X010760Y006420D02*
X010760Y006000D01*
X010550Y006000D01*
X010300Y006070D02*
X010300Y006210D01*
X010230Y006280D01*
X010089Y006280D01*
X010019Y006210D01*
X010019Y006070D01*
X010089Y006000D01*
X010230Y006000D01*
X010300Y006070D01*
X009839Y006280D02*
X009699Y006280D01*
X009769Y006350D02*
X009769Y006070D01*
X009699Y006000D01*
X009532Y006210D02*
X009252Y006210D01*
X009072Y006280D02*
X008932Y006280D01*
X009002Y006350D02*
X009002Y006070D01*
X008932Y006000D01*
X008765Y006000D02*
X008765Y006420D01*
X008695Y006280D02*
X008555Y006280D01*
X008485Y006210D01*
X008485Y006000D01*
X008305Y006070D02*
X008305Y006210D01*
X008235Y006280D01*
X008094Y006280D01*
X008024Y006210D01*
X008024Y006070D01*
X008094Y006000D01*
X008235Y006000D01*
X008305Y006070D01*
X008695Y006280D02*
X008765Y006210D01*
X007844Y006280D02*
X007844Y006070D01*
X007774Y006000D01*
X007564Y006000D01*
X007564Y006280D01*
X007384Y006210D02*
X007384Y006070D01*
X007314Y006000D01*
X007104Y006000D01*
X007104Y005930D02*
X007104Y006280D01*
X007314Y006280D01*
X007384Y006210D01*
X007244Y005860D02*
X007174Y005860D01*
X007104Y005930D01*
X006923Y006000D02*
X006923Y006420D01*
X006853Y006280D02*
X006713Y006280D01*
X006643Y006210D01*
X006643Y006000D01*
X006393Y006070D02*
X006323Y006000D01*
X006393Y006070D02*
X006393Y006350D01*
X006463Y006280D02*
X006323Y006280D01*
X006156Y006210D02*
X006086Y006280D01*
X005876Y006280D01*
X005946Y006140D02*
X006086Y006140D01*
X006156Y006210D01*
X006156Y006000D02*
X005946Y006000D01*
X005876Y006070D01*
X005946Y006140D01*
X005696Y006070D02*
X005626Y006070D01*
X005626Y006000D01*
X005696Y006000D01*
X005696Y006070D01*
X005465Y006070D02*
X005465Y006210D01*
X005395Y006280D01*
X005185Y006280D01*
X005005Y006210D02*
X005005Y006070D01*
X004935Y006000D01*
X004795Y006000D01*
X004725Y006070D01*
X004725Y006210D01*
X004795Y006280D01*
X004935Y006280D01*
X005005Y006210D01*
X005185Y006000D02*
X005395Y006000D01*
X005465Y006070D01*
X004545Y006000D02*
X004545Y006280D01*
X004475Y006280D01*
X004405Y006210D01*
X004335Y006280D01*
X004264Y006210D01*
X004264Y006000D01*
X004405Y006000D02*
X004405Y006210D01*
X006853Y006280D02*
X006923Y006210D01*
X008860Y007148D02*
X008880Y007172D01*
X008897Y007198D01*
X008912Y007226D01*
X008922Y007256D01*
X008930Y007286D01*
X008934Y007318D01*
X008934Y007349D01*
X008930Y007381D01*
X008923Y007411D01*
X008912Y007441D01*
X008898Y007469D01*
X008881Y007495D01*
X008860Y007520D01*
X008838Y007541D01*
X008812Y007560D01*
X008785Y007576D01*
X008756Y007588D01*
X008726Y007598D01*
X008695Y007603D01*
X008663Y007605D01*
X008632Y007603D01*
X008663Y007617D01*
X008692Y007633D01*
X008719Y007653D01*
X008744Y007675D01*
X008766Y007701D01*
X008785Y007728D01*
X008802Y007758D01*
X008814Y007789D01*
X008824Y007821D01*
X008829Y007854D01*
X008831Y007888D01*
X008829Y007922D01*
X008824Y007955D01*
X008814Y007987D01*
X008802Y008018D01*
X008785Y008048D01*
X008766Y008075D01*
X008744Y008101D01*
X008719Y008123D01*
X008692Y008143D01*
X008663Y008159D01*
X008632Y008173D01*
X008667Y008163D01*
X008704Y008158D01*
X008740Y008156D01*
X008777Y008158D01*
X008813Y008164D01*
X008849Y008174D01*
X008883Y008188D01*
X008915Y008205D01*
X008946Y008225D01*
X008974Y008249D01*
X008999Y008275D01*
X009022Y008304D01*
X009041Y008336D01*
X009057Y008369D01*
X009070Y008403D01*
X009078Y008439D01*
X009083Y008475D01*
X009084Y008512D01*
X009081Y008549D01*
X009074Y008585D01*
X009063Y008620D01*
X009049Y008654D01*
X009031Y008686D01*
X009030Y008685D02*
X009056Y008655D01*
X009085Y008628D01*
X009116Y008604D01*
X009149Y008582D01*
X009184Y008564D01*
X009220Y008549D01*
X009258Y008537D01*
X009296Y008529D01*
X009336Y008524D01*
X009375Y008523D01*
X009414Y008525D01*
X009453Y008531D01*
X009492Y008541D01*
X009529Y008554D01*
X009565Y008570D01*
X009599Y008590D01*
X009631Y008612D01*
X009661Y008638D01*
X009689Y008666D01*
X009714Y008696D01*
X009736Y008729D01*
X009756Y008763D01*
X009772Y008799D01*
X009885Y007432D02*
X009819Y007410D01*
X009752Y007392D01*
X009684Y007377D01*
X009616Y007366D01*
X009547Y007359D01*
X009478Y007355D01*
X009408Y007354D01*
X009339Y007358D01*
X009270Y007365D01*
X009202Y007375D01*
X009201Y007375D02*
X009258Y007261D01*
X009030Y007090D02*
X009030Y007660D01*
X009141Y007683D02*
X009143Y007709D01*
X009149Y007734D01*
X009158Y007758D01*
X009171Y007781D01*
X009187Y007801D01*
X009207Y007819D01*
X009228Y007834D01*
X009251Y007845D01*
X009276Y007853D01*
X009302Y007857D01*
X009328Y007857D01*
X009354Y007853D01*
X009379Y007845D01*
X009402Y007834D01*
X009423Y007819D01*
X009443Y007801D01*
X009459Y007781D01*
X009472Y007758D01*
X009481Y007734D01*
X009487Y007709D01*
X009489Y007683D01*
X009487Y007657D01*
X009481Y007632D01*
X009472Y007608D01*
X009459Y007585D01*
X009443Y007565D01*
X009423Y007547D01*
X009402Y007532D01*
X009379Y007521D01*
X009354Y007513D01*
X009328Y007509D01*
X009302Y007509D01*
X009276Y007513D01*
X009251Y007521D01*
X009228Y007532D01*
X009207Y007547D01*
X009187Y007565D01*
X009171Y007585D01*
X009158Y007608D01*
X009149Y007632D01*
X009143Y007657D01*
X009141Y007683D01*
X009030Y007660D02*
X009032Y007705D01*
X009037Y007749D01*
X009046Y007793D01*
X009058Y007836D01*
X009073Y007878D01*
X009092Y007919D01*
X009114Y007958D01*
X009139Y007995D01*
X009167Y008030D01*
X009197Y008063D01*
X009230Y008093D01*
X009265Y008121D01*
X009302Y008146D01*
X009341Y008168D01*
X009382Y008187D01*
X009424Y008202D01*
X009467Y008214D01*
X009511Y008223D01*
X009555Y008228D01*
X009600Y008230D01*
X009600Y008287D01*
X009771Y007262D02*
X009715Y007248D01*
X009658Y007238D01*
X009601Y007232D01*
X009544Y007228D01*
X009486Y007228D01*
X009429Y007232D01*
X009372Y007238D01*
X009315Y007248D01*
X009259Y007262D01*
X009030Y007090D02*
X010170Y007090D01*
X010170Y007660D01*
X009885Y007432D02*
X009771Y007261D01*
X010170Y007660D02*
X010168Y007705D01*
X010163Y007749D01*
X010154Y007793D01*
X010142Y007836D01*
X010127Y007878D01*
X010108Y007919D01*
X010086Y007958D01*
X010061Y007995D01*
X010033Y008030D01*
X010003Y008063D01*
X009970Y008093D01*
X009935Y008121D01*
X009898Y008146D01*
X009859Y008168D01*
X009818Y008187D01*
X009776Y008202D01*
X009733Y008214D01*
X009689Y008223D01*
X009645Y008228D01*
X009600Y008230D01*
X009486Y007717D02*
X009488Y007747D01*
X009494Y007776D01*
X009503Y007804D01*
X009517Y007831D01*
X009533Y007856D01*
X009553Y007878D01*
X009575Y007898D01*
X009600Y007914D01*
X009627Y007928D01*
X009655Y007937D01*
X009684Y007943D01*
X009714Y007945D01*
X009744Y007943D01*
X009773Y007937D01*
X009801Y007928D01*
X009828Y007914D01*
X009853Y007898D01*
X009875Y007878D01*
X009895Y007856D01*
X009911Y007831D01*
X009925Y007804D01*
X009934Y007776D01*
X009940Y007747D01*
X009942Y007717D01*
X009940Y007687D01*
X009934Y007658D01*
X009925Y007630D01*
X009911Y007603D01*
X009895Y007578D01*
X009875Y007556D01*
X009853Y007536D01*
X009828Y007520D01*
X009801Y007506D01*
X009773Y007497D01*
X009744Y007491D01*
X009714Y007489D01*
X009684Y007491D01*
X009655Y007497D01*
X009627Y007506D01*
X009600Y007520D01*
X009575Y007536D01*
X009553Y007556D01*
X009533Y007578D01*
X009517Y007603D01*
X009503Y007630D01*
X009494Y007658D01*
X009488Y007687D01*
X009486Y007717D01*
X010283Y007204D02*
X010268Y007238D01*
X010257Y007274D01*
X010250Y007311D01*
X010246Y007348D01*
X010247Y007385D01*
X010251Y007422D01*
X010259Y007458D01*
X010271Y007494D01*
X010287Y007527D01*
X010306Y007559D01*
X010328Y007589D01*
X010353Y007617D01*
X010381Y007641D01*
X010412Y007663D01*
X010444Y007681D01*
X010478Y007696D01*
X010514Y007707D01*
X010551Y007714D01*
X010588Y007718D01*
X010625Y007717D01*
X010587Y007726D01*
X010551Y007739D01*
X010515Y007756D01*
X010482Y007776D01*
X010451Y007799D01*
X010422Y007825D01*
X010395Y007854D01*
X010372Y007885D01*
X010352Y007919D01*
X010335Y007954D01*
X010322Y007990D01*
X010312Y008028D01*
X010306Y008067D01*
X010304Y008106D01*
X010306Y008145D01*
X010311Y008183D01*
X010320Y008221D01*
X010333Y008258D01*
X010350Y008293D01*
X010369Y008327D01*
X010392Y008358D01*
X010418Y008387D01*
X010447Y008414D01*
X010478Y008437D01*
X010511Y008458D01*
X010512Y008457D02*
X010477Y008435D01*
X010441Y008416D01*
X010403Y008400D01*
X010364Y008388D01*
X010324Y008378D01*
X010283Y008373D01*
X010242Y008371D01*
X010201Y008373D01*
X010160Y008378D01*
X010120Y008387D01*
X010081Y008399D01*
X010043Y008414D01*
X010006Y008433D01*
X009971Y008455D01*
X009939Y008480D01*
X009908Y008508D01*
X009880Y008538D01*
X009855Y008570D01*
X009833Y008605D01*
X009814Y008641D01*
X009798Y008679D01*
X009786Y008718D01*
X009776Y008758D01*
X009771Y008799D01*
X008260Y009500D02*
X008260Y009920D01*
X008050Y009920D01*
X007980Y009850D01*
X007980Y009710D01*
X008050Y009640D01*
X008260Y009640D01*
X008120Y009640D02*
X007980Y009500D01*
X007800Y009570D02*
X007519Y009850D01*
X007519Y009570D01*
X007589Y009500D01*
X007730Y009500D01*
X007800Y009570D01*
X007800Y009850D01*
X007730Y009920D01*
X007589Y009920D01*
X007519Y009850D01*
X007339Y009570D02*
X007269Y009570D01*
X007269Y009500D01*
X007339Y009500D01*
X007339Y009570D01*
X007109Y009500D02*
X006829Y009500D01*
X006969Y009500D02*
X006969Y009920D01*
X007109Y009780D01*
X007098Y010200D02*
X007098Y010460D01*
X007185Y010547D01*
X007272Y010460D01*
X007272Y010200D01*
X007445Y010200D02*
X007445Y010547D01*
X007358Y010547D01*
X007272Y010460D01*
X006893Y010547D02*
X006806Y010547D01*
X006806Y010200D01*
X006893Y010200D02*
X006719Y010200D01*
X006524Y010287D02*
X006438Y010200D01*
X006177Y010200D01*
X005972Y010200D02*
X005972Y010547D01*
X005972Y010373D02*
X005798Y010547D01*
X005712Y010547D01*
X005512Y010460D02*
X005512Y010287D01*
X005425Y010200D01*
X005251Y010200D01*
X005165Y010287D01*
X005165Y010460D01*
X005251Y010547D01*
X005425Y010547D01*
X005512Y010460D01*
X004959Y010547D02*
X004872Y010460D01*
X004699Y010460D01*
X004612Y010373D01*
X004612Y010287D01*
X004699Y010200D01*
X004872Y010200D01*
X004959Y010287D01*
X004959Y010547D02*
X004959Y010634D01*
X004872Y010720D01*
X004699Y010720D01*
X004612Y010634D01*
X004407Y010720D02*
X004146Y010720D01*
X004060Y010634D01*
X004060Y010287D01*
X004146Y010200D01*
X004407Y010200D01*
X004407Y010720D01*
X006177Y010547D02*
X006438Y010547D01*
X006524Y010460D01*
X006524Y010287D01*
X006806Y010720D02*
X006806Y010807D01*
X008203Y010460D02*
X008203Y010373D01*
X008550Y010373D01*
X008550Y010287D02*
X008463Y010200D01*
X008290Y010200D01*
X008550Y010287D02*
X008550Y010460D01*
X008463Y010547D01*
X008290Y010547D01*
X008203Y010460D01*
X008756Y010460D02*
X008756Y010373D01*
X009103Y010373D01*
X009103Y010287D02*
X009016Y010200D01*
X008842Y010200D01*
X008756Y010460D02*
X008842Y010547D01*
X009016Y010547D01*
X009103Y010460D01*
X009103Y010287D01*
X009308Y010200D02*
X009655Y010200D01*
X009655Y010287D01*
X009308Y010634D01*
X009308Y010720D01*
X009655Y010720D01*
X009861Y010460D02*
X009861Y010373D01*
X010208Y010373D01*
X010208Y010287D02*
X010208Y010460D01*
X010121Y010547D01*
X009947Y010547D01*
X009861Y010460D01*
X009947Y010200D02*
X010121Y010200D01*
X010208Y010287D01*
X010413Y010373D02*
X010413Y010460D01*
X010500Y010547D01*
X010673Y010547D01*
X010760Y010460D01*
X010760Y010287D01*
X010673Y010200D01*
X010500Y010200D01*
X010413Y010373D02*
X010760Y010373D01*
X010347Y002920D02*
X010186Y002920D01*
X010133Y002867D01*
X010133Y002760D01*
X010186Y002707D01*
X010347Y002707D01*
X010347Y002600D02*
X010347Y002920D01*
X010240Y002707D02*
X010133Y002600D01*
X009978Y002653D02*
X009925Y002600D01*
X009818Y002600D01*
X009765Y002653D01*
X009765Y002760D01*
X009818Y002814D01*
X009872Y002814D01*
X009978Y002760D01*
X009978Y002920D01*
X009765Y002920D01*
D11*
X009697Y007802D02*
X009699Y007818D01*
X009704Y007834D01*
X009713Y007848D01*
X009725Y007860D01*
X009739Y007869D01*
X009755Y007874D01*
X009771Y007876D01*
X009787Y007874D01*
X009803Y007869D01*
X009817Y007860D01*
X009829Y007848D01*
X009838Y007834D01*
X009843Y007818D01*
X009845Y007802D01*
X009843Y007786D01*
X009838Y007770D01*
X009829Y007756D01*
X009817Y007744D01*
X009803Y007735D01*
X009787Y007730D01*
X009771Y007728D01*
X009755Y007730D01*
X009739Y007735D01*
X009725Y007744D01*
X009713Y007756D01*
X009704Y007770D01*
X009699Y007786D01*
X009697Y007802D01*
D12*
X009326Y007740D02*
X009328Y007753D01*
X009333Y007765D01*
X009342Y007775D01*
X009353Y007782D01*
X009365Y007786D01*
X009379Y007786D01*
X009391Y007782D01*
X009402Y007775D01*
X009411Y007765D01*
X009416Y007753D01*
X009418Y007740D01*
X009416Y007727D01*
X009411Y007715D01*
X009402Y007705D01*
X009391Y007698D01*
X009379Y007694D01*
X009365Y007694D01*
X009353Y007698D01*
X009342Y007705D01*
X009333Y007715D01*
X009328Y007727D01*
X009326Y007740D01*
D13*
X009543Y008344D02*
X009545Y008359D01*
X009551Y008372D01*
X009560Y008384D01*
X009571Y008393D01*
X009585Y008399D01*
X009600Y008401D01*
X009615Y008399D01*
X009628Y008393D01*
X009640Y008384D01*
X009649Y008373D01*
X009655Y008359D01*
X009657Y008344D01*
X009655Y008329D01*
X009649Y008316D01*
X009640Y008304D01*
X009629Y008295D01*
X009615Y008289D01*
X009600Y008287D01*
X009585Y008289D01*
X009572Y008295D01*
X009560Y008304D01*
X009551Y008315D01*
X009545Y008329D01*
X009543Y008344D01*
D14*
X006144Y008769D02*
X005902Y008744D01*
X005876Y008663D01*
X005837Y008587D01*
X005991Y008398D01*
X005862Y008269D01*
X005673Y008423D01*
X005597Y008384D01*
X005490Y008643D01*
X005530Y008665D01*
X005566Y008694D01*
X005595Y008730D01*
X005617Y008770D01*
X005630Y008814D01*
X005634Y008860D01*
X005629Y008910D01*
X005613Y008958D01*
X005587Y009001D01*
X005552Y009038D01*
X005510Y009067D01*
X005464Y009086D01*
X005414Y009094D01*
X005363Y009091D01*
X005315Y009078D01*
X005270Y009055D01*
X005231Y009022D01*
X005200Y008982D01*
X005179Y008937D01*
X005167Y008888D01*
X005167Y008837D01*
X005177Y008788D01*
X005198Y008741D01*
X005228Y008701D01*
X005266Y008668D01*
X005310Y008643D01*
X005203Y008384D01*
X005127Y008423D01*
X004938Y008269D01*
X004809Y008398D01*
X004963Y008587D01*
X004924Y008663D01*
X004898Y008744D01*
X004656Y008769D01*
X004656Y008951D01*
X004898Y008976D01*
X004924Y009057D01*
X004963Y009133D01*
X004809Y009322D01*
X004938Y009451D01*
X005127Y009297D01*
X005203Y009336D01*
X005284Y009362D01*
X005309Y009604D01*
X005491Y009604D01*
X005516Y009362D01*
X005597Y009336D01*
X005673Y009297D01*
X005862Y009451D01*
X005991Y009322D01*
X005837Y009133D01*
X005876Y009057D01*
X005902Y008976D01*
X006144Y008951D01*
X006144Y008769D01*
X006144Y008828D02*
X005631Y008828D01*
X005623Y008927D02*
X006144Y008927D01*
X005887Y009025D02*
X005565Y009025D01*
X005842Y009124D02*
X004958Y009124D01*
X004913Y009025D02*
X005234Y009025D01*
X005176Y008927D02*
X004656Y008927D01*
X004656Y008828D02*
X005169Y008828D01*
X005207Y008730D02*
X004902Y008730D01*
X004940Y008631D02*
X005305Y008631D01*
X005264Y008533D02*
X004918Y008533D01*
X004838Y008434D02*
X005224Y008434D01*
X005020Y008336D02*
X004872Y008336D01*
X005495Y008631D02*
X005860Y008631D01*
X005882Y008533D02*
X005536Y008533D01*
X005576Y008434D02*
X005962Y008434D01*
X005928Y008336D02*
X005780Y008336D01*
X005898Y008730D02*
X005595Y008730D01*
X005910Y009222D02*
X004890Y009222D01*
X004810Y009321D02*
X005098Y009321D01*
X005172Y009321D02*
X005628Y009321D01*
X005702Y009321D02*
X005990Y009321D01*
X005894Y009419D02*
X005823Y009419D01*
X005510Y009419D02*
X005290Y009419D01*
X005300Y009518D02*
X005500Y009518D01*
X004977Y009419D02*
X004906Y009419D01*
M02*
