G75*
G70*
%OFA0B0*%
%FSLAX24Y24*%
%IPPOS*%
%LPD*%
%AMOC8*
5,1,8,0,0,1.08239X$1,22.5*
%
%ADD10C,0.0080*%
%ADD11R,0.0400X0.0400*%
D10*
X000640Y001140D02*
X000960Y001354D01*
X000907Y001508D02*
X000960Y001562D01*
X000960Y001668D01*
X000907Y001722D01*
X000854Y001722D01*
X000640Y001508D01*
X000640Y001722D01*
X000640Y001354D02*
X000960Y001140D01*
X001200Y001890D02*
X001307Y001890D01*
X001360Y001943D01*
X001360Y001997D01*
X001307Y002050D01*
X001200Y002050D01*
X001146Y001997D01*
X001146Y001943D01*
X001200Y001890D01*
X001200Y002050D02*
X001146Y002104D01*
X001146Y002157D01*
X001200Y002210D01*
X001307Y002210D01*
X001360Y002157D01*
X001360Y002104D01*
X001307Y002050D01*
X001360Y002390D02*
X001146Y002390D01*
X001253Y002390D02*
X001253Y002710D01*
X001360Y002604D01*
X001360Y002890D02*
X001146Y002890D01*
X001253Y002890D02*
X001253Y003210D01*
X001360Y003104D01*
X001360Y003390D02*
X001146Y003390D01*
X001253Y003390D02*
X001253Y003710D01*
X001360Y003604D01*
X000992Y003550D02*
X000992Y003443D01*
X000938Y003390D01*
X000832Y003390D01*
X000778Y003443D01*
X000778Y003497D01*
X000832Y003550D01*
X000992Y003550D01*
X000885Y003657D01*
X000778Y003710D01*
X000832Y003210D02*
X000938Y003210D01*
X000992Y003157D01*
X000832Y003210D02*
X000778Y003157D01*
X000778Y003104D01*
X000992Y002890D01*
X000778Y002890D01*
X000832Y002710D02*
X000778Y002657D01*
X000992Y002443D01*
X000938Y002390D01*
X000832Y002390D01*
X000778Y002443D01*
X000778Y002657D01*
X000832Y002710D02*
X000938Y002710D01*
X000992Y002657D01*
X000992Y002443D01*
X001690Y001722D02*
X001690Y001508D01*
X001690Y001615D02*
X002010Y001615D01*
X001904Y001508D01*
X002010Y001354D02*
X001690Y001140D01*
X001690Y001354D02*
X002010Y001140D01*
X002640Y001193D02*
X002640Y001300D01*
X002693Y001354D01*
X002800Y001354D01*
X002800Y001247D01*
X002907Y001354D02*
X002960Y001300D01*
X002960Y001193D01*
X002907Y001140D01*
X002693Y001140D01*
X002640Y001193D01*
X002640Y001508D02*
X002960Y001508D01*
X002640Y001722D01*
X002960Y001722D01*
X002960Y001877D02*
X002960Y002037D01*
X002907Y002090D01*
X002693Y002090D01*
X002640Y002037D01*
X002640Y001877D01*
X002960Y001877D01*
X002510Y002390D02*
X002404Y002497D01*
X002510Y002604D01*
X002190Y002604D01*
X002190Y002758D02*
X002510Y002758D01*
X002350Y002758D02*
X002350Y002972D01*
X002510Y002972D02*
X002190Y002972D01*
X002190Y003127D02*
X002190Y003340D01*
X002190Y003127D02*
X002404Y003340D01*
X002404Y003127D01*
X002510Y002390D02*
X002190Y002390D01*
D11*
X001800Y002550D03*
X001800Y003050D03*
X001800Y003550D03*
X001800Y002050D03*
M02*
