%
M48
M72
T01C0.0197
T02C0.0320
T03C0.0400
T04C0.0472
%
T01
X6357Y3106
X7600Y4805
X7500Y5405
X7500Y6105
X10000Y5405
X10200Y5805
X12200Y5005
X13800Y5905
X14200Y6305
X16994Y4136
X18900Y4105
X13100Y3405
X14000Y505
X14000Y9305
T02
X17870Y5855
X17870Y3955
T03
X4500Y905
X5500Y905
X6500Y905
X7500Y905
X8500Y905
X9500Y905
X10500Y905
X11500Y905
X12500Y905
X13500Y905
X14500Y905
X15500Y905
X16500Y905
X17500Y905
X18500Y905
X19500Y905
X20500Y905
X21500Y905
X5500Y2405
X5500Y3405
X4500Y3405
X4500Y4405
X5500Y4405
X5500Y5405
X4500Y5405
X4500Y6405
X5500Y6405
X5500Y7405
X5500Y8905
X4500Y8905
X6500Y8905
X7500Y8905
X8500Y8905
X9500Y8905
X10500Y8905
X11500Y8905
X12500Y8905
X13500Y8905
X14500Y8905
X15500Y8905
X16500Y8905
X17500Y8905
X18500Y8905
X19500Y8905
X20500Y8905
X21500Y8905
T04
X19800Y6086
X19800Y3724
M30
