G75*
G70*
%OFA0B0*%
%FSLAX24Y24*%
%IPPOS*%
%LPD*%
%AMOC8*
5,1,8,0,0,1.08239X$1,22.5*
%
%ADD10R,0.0880X0.0480*%
%ADD11R,0.0866X0.1417*%
%ADD12R,0.0600X0.0600*%
%ADD13OC8,0.0600*%
%ADD14R,0.0394X0.0433*%
%ADD15C,0.0240*%
%ADD16C,0.0337*%
%ADD17C,0.0100*%
%ADD18C,0.0160*%
D10*
X003883Y001740D03*
X003883Y002650D03*
X003883Y003560D03*
D11*
X001443Y002650D03*
D12*
X007063Y003050D03*
X007163Y004400D03*
X010063Y003050D03*
D13*
X010063Y002050D03*
X007063Y002050D03*
X006163Y004400D03*
X005163Y004400D03*
D14*
X005313Y001785D03*
X004713Y001785D03*
X004713Y001115D03*
X005313Y001115D03*
D15*
X004668Y001740D02*
X004713Y001785D01*
X005313Y001785D01*
X005497Y001785D01*
X006263Y002550D01*
X006863Y003250D02*
X007063Y003050D01*
X006863Y003250D02*
X005163Y003250D01*
X005163Y004400D01*
X005163Y003250D02*
X004563Y002650D01*
X003883Y002650D01*
X003883Y001740D02*
X004668Y001740D01*
D16*
X006263Y002550D03*
D17*
X006541Y002514D02*
X010583Y002514D01*
X010583Y002416D02*
X010334Y002416D01*
X010249Y002500D02*
X010113Y002500D01*
X010113Y002100D01*
X010513Y002100D01*
X010513Y002236D01*
X010249Y002500D01*
X010113Y002416D02*
X010013Y002416D01*
X010013Y002500D02*
X009876Y002500D01*
X009613Y002236D01*
X009613Y002100D01*
X010013Y002100D01*
X010013Y002500D01*
X009792Y002416D02*
X007334Y002416D01*
X007249Y002500D02*
X007113Y002500D01*
X007113Y002100D01*
X007513Y002100D01*
X007513Y002236D01*
X007249Y002500D01*
X007113Y002416D02*
X007013Y002416D01*
X007013Y002500D02*
X006876Y002500D01*
X006613Y002236D01*
X006613Y002100D01*
X007013Y002100D01*
X007013Y002500D01*
X006792Y002416D02*
X006508Y002416D01*
X006499Y002392D02*
X006541Y002495D01*
X006541Y002605D01*
X006499Y002708D01*
X006421Y002786D01*
X006318Y002828D01*
X006207Y002828D01*
X006105Y002786D01*
X006027Y002708D01*
X005984Y002605D01*
X005984Y002597D01*
X005499Y002111D01*
X005070Y002111D01*
X005013Y002054D01*
X004955Y002111D01*
X004470Y002111D01*
X004409Y002050D01*
X004368Y002090D01*
X003863Y002090D01*
X003863Y002300D01*
X004368Y002300D01*
X004433Y002364D01*
X004433Y002420D01*
X004658Y002420D01*
X005258Y003020D01*
X006653Y003020D01*
X006653Y002704D01*
X006717Y002640D01*
X007408Y002640D01*
X007473Y002704D01*
X007473Y003396D01*
X007408Y003460D01*
X006978Y003460D01*
X006958Y003480D01*
X005393Y003480D01*
X005393Y004050D01*
X005573Y004230D01*
X005573Y004570D01*
X005333Y004810D01*
X004993Y004810D01*
X004753Y004570D01*
X004753Y004230D01*
X004933Y004050D01*
X004933Y003345D01*
X004468Y002880D01*
X004433Y002880D01*
X004433Y002936D01*
X004368Y003000D01*
X003863Y003000D01*
X003863Y003510D01*
X003933Y003510D01*
X003933Y003610D01*
X004473Y003610D01*
X004473Y003820D01*
X004463Y003858D01*
X004443Y003892D01*
X004415Y003920D01*
X004381Y003940D01*
X004343Y003950D01*
X003933Y003950D01*
X003933Y003610D01*
X003863Y003610D01*
X003863Y004946D01*
X010583Y004946D01*
X010583Y000350D01*
X003863Y000350D01*
X003863Y001390D01*
X004368Y001390D01*
X004387Y001409D01*
X004376Y001390D01*
X004366Y001352D01*
X004366Y001164D01*
X004664Y001164D01*
X004664Y001067D01*
X004366Y001067D01*
X004366Y000879D01*
X004376Y000841D01*
X004396Y000807D01*
X004424Y000779D01*
X004458Y000759D01*
X004496Y000749D01*
X004664Y000749D01*
X004664Y001067D01*
X004761Y001067D01*
X004761Y000749D01*
X004929Y000749D01*
X004968Y000759D01*
X005002Y000779D01*
X005013Y000790D01*
X005024Y000779D01*
X005058Y000759D01*
X005096Y000749D01*
X005264Y000749D01*
X005264Y001067D01*
X004761Y001067D01*
X004761Y001164D01*
X005060Y001164D01*
X005264Y001164D01*
X005264Y001067D01*
X005361Y001067D01*
X005361Y000749D01*
X005529Y000749D01*
X005568Y000759D01*
X005602Y000779D01*
X005630Y000807D01*
X005649Y000841D01*
X005660Y000879D01*
X005660Y001067D01*
X005361Y001067D01*
X005361Y001164D01*
X005660Y001164D01*
X005660Y001352D01*
X005649Y001390D01*
X005630Y001424D01*
X005602Y001452D01*
X005568Y001471D01*
X005620Y001523D01*
X005620Y001582D01*
X006310Y002272D01*
X006318Y002272D01*
X006421Y002314D01*
X006499Y002392D01*
X006424Y002317D02*
X006693Y002317D01*
X006613Y002219D02*
X006257Y002219D01*
X006158Y002120D02*
X006613Y002120D01*
X006613Y002000D02*
X006613Y001864D01*
X006876Y001600D01*
X007013Y001600D01*
X007013Y002000D01*
X007113Y002000D01*
X007113Y002100D01*
X007013Y002100D01*
X007013Y002000D01*
X006613Y002000D01*
X006613Y001923D02*
X005961Y001923D01*
X005863Y001825D02*
X006652Y001825D01*
X006750Y001726D02*
X005764Y001726D01*
X005666Y001628D02*
X006849Y001628D01*
X007013Y001628D02*
X007113Y001628D01*
X007113Y001600D02*
X007249Y001600D01*
X007513Y001864D01*
X007513Y002000D01*
X007113Y002000D01*
X007113Y001600D01*
X007277Y001628D02*
X009849Y001628D01*
X009876Y001600D02*
X009613Y001864D01*
X009613Y002000D01*
X010013Y002000D01*
X010113Y002000D01*
X010113Y002100D01*
X010013Y002100D01*
X010013Y002000D01*
X010013Y001600D01*
X009876Y001600D01*
X010013Y001628D02*
X010113Y001628D01*
X010113Y001600D02*
X010249Y001600D01*
X010513Y001864D01*
X010513Y002000D01*
X010113Y002000D01*
X010113Y001600D01*
X010113Y001726D02*
X010013Y001726D01*
X010013Y001825D02*
X010113Y001825D01*
X010113Y001923D02*
X010013Y001923D01*
X010013Y002022D02*
X007113Y002022D01*
X007013Y002022D02*
X006060Y002022D01*
X005606Y002219D02*
X003863Y002219D01*
X003863Y002120D02*
X005508Y002120D01*
X005705Y002317D02*
X004385Y002317D01*
X004433Y002416D02*
X005803Y002416D01*
X005902Y002514D02*
X004752Y002514D01*
X004851Y002613D02*
X005987Y002613D01*
X006030Y002711D02*
X004949Y002711D01*
X005048Y002810D02*
X006162Y002810D01*
X006364Y002810D02*
X006653Y002810D01*
X006653Y002908D02*
X005146Y002908D01*
X005245Y003007D02*
X006653Y003007D01*
X006653Y002711D02*
X006496Y002711D01*
X006538Y002613D02*
X010583Y002613D01*
X010473Y002704D02*
X010408Y002640D01*
X009717Y002640D01*
X009653Y002704D01*
X009653Y003396D01*
X009717Y003460D01*
X010408Y003460D01*
X010473Y003396D01*
X010473Y002704D01*
X010473Y002711D02*
X010583Y002711D01*
X010583Y002810D02*
X010473Y002810D01*
X010473Y002908D02*
X010583Y002908D01*
X010583Y003007D02*
X010473Y003007D01*
X010473Y003105D02*
X010583Y003105D01*
X010583Y003204D02*
X010473Y003204D01*
X010473Y003302D02*
X010583Y003302D01*
X010583Y003401D02*
X010468Y003401D01*
X010583Y003499D02*
X005393Y003499D01*
X005393Y003598D02*
X010583Y003598D01*
X010583Y003696D02*
X005393Y003696D01*
X005393Y003795D02*
X010583Y003795D01*
X010583Y003893D02*
X005393Y003893D01*
X005393Y003992D02*
X005991Y003992D01*
X005993Y003990D02*
X006333Y003990D01*
X006573Y004230D01*
X006573Y004570D01*
X006333Y004810D01*
X005993Y004810D01*
X005753Y004570D01*
X005753Y004230D01*
X005993Y003990D01*
X005893Y004090D02*
X005433Y004090D01*
X005531Y004189D02*
X005794Y004189D01*
X005753Y004287D02*
X005573Y004287D01*
X005573Y004386D02*
X005753Y004386D01*
X005753Y004484D02*
X005573Y004484D01*
X005560Y004583D02*
X005766Y004583D01*
X005864Y004681D02*
X005462Y004681D01*
X005363Y004780D02*
X005963Y004780D01*
X006363Y004780D02*
X006787Y004780D01*
X006817Y004810D02*
X006753Y004746D01*
X006753Y004054D01*
X006817Y003990D01*
X007508Y003990D01*
X007573Y004054D01*
X007573Y004746D01*
X007508Y004810D01*
X006817Y004810D01*
X006753Y004681D02*
X006462Y004681D01*
X006560Y004583D02*
X006753Y004583D01*
X006753Y004484D02*
X006573Y004484D01*
X006573Y004386D02*
X006753Y004386D01*
X006753Y004287D02*
X006573Y004287D01*
X006531Y004189D02*
X006753Y004189D01*
X006753Y004090D02*
X006433Y004090D01*
X006334Y003992D02*
X006816Y003992D01*
X007510Y003992D02*
X010583Y003992D01*
X010583Y004090D02*
X007573Y004090D01*
X007573Y004189D02*
X010583Y004189D01*
X010583Y004287D02*
X007573Y004287D01*
X007573Y004386D02*
X010583Y004386D01*
X010583Y004484D02*
X007573Y004484D01*
X007573Y004583D02*
X010583Y004583D01*
X010583Y004681D02*
X007573Y004681D01*
X007539Y004780D02*
X010583Y004780D01*
X010583Y004878D02*
X003863Y004878D01*
X003863Y004780D02*
X004963Y004780D01*
X004864Y004681D02*
X003863Y004681D01*
X003863Y004583D02*
X004766Y004583D01*
X004753Y004484D02*
X003863Y004484D01*
X003863Y004386D02*
X004753Y004386D01*
X004753Y004287D02*
X003863Y004287D01*
X003863Y004189D02*
X004794Y004189D01*
X004893Y004090D02*
X003863Y004090D01*
X003863Y003992D02*
X004933Y003992D01*
X004933Y003893D02*
X004442Y003893D01*
X004473Y003795D02*
X004933Y003795D01*
X004933Y003696D02*
X004473Y003696D01*
X004473Y003510D02*
X004473Y003300D01*
X004463Y003262D01*
X004443Y003228D01*
X004415Y003200D01*
X004381Y003180D01*
X004343Y003170D01*
X003933Y003170D01*
X003933Y003510D01*
X004473Y003510D01*
X004473Y003499D02*
X004933Y003499D01*
X004933Y003598D02*
X003933Y003598D01*
X003933Y003499D02*
X003863Y003499D01*
X003863Y003401D02*
X003933Y003401D01*
X003933Y003302D02*
X003863Y003302D01*
X003863Y003204D02*
X003933Y003204D01*
X003863Y003105D02*
X004693Y003105D01*
X004791Y003204D02*
X004418Y003204D01*
X004473Y003302D02*
X004890Y003302D01*
X004933Y003401D02*
X004473Y003401D01*
X003933Y003696D02*
X003863Y003696D01*
X003863Y003795D02*
X003933Y003795D01*
X003933Y003893D02*
X003863Y003893D01*
X003863Y003007D02*
X004594Y003007D01*
X004496Y002908D02*
X004433Y002908D01*
X007013Y002317D02*
X007113Y002317D01*
X007113Y002219D02*
X007013Y002219D01*
X007013Y002120D02*
X007113Y002120D01*
X007432Y002317D02*
X009693Y002317D01*
X009613Y002219D02*
X007513Y002219D01*
X007513Y002120D02*
X009613Y002120D01*
X010013Y002120D02*
X010113Y002120D01*
X010113Y002219D02*
X010013Y002219D01*
X010013Y002317D02*
X010113Y002317D01*
X010432Y002317D02*
X010583Y002317D01*
X010583Y002219D02*
X010513Y002219D01*
X010513Y002120D02*
X010583Y002120D01*
X010583Y002022D02*
X010113Y002022D01*
X010474Y001825D02*
X010583Y001825D01*
X010583Y001923D02*
X010513Y001923D01*
X010583Y001726D02*
X010375Y001726D01*
X010277Y001628D02*
X010583Y001628D01*
X010583Y001529D02*
X005620Y001529D01*
X005623Y001431D02*
X010583Y001431D01*
X010583Y001332D02*
X005660Y001332D01*
X005660Y001234D02*
X010583Y001234D01*
X010583Y001135D02*
X005361Y001135D01*
X005264Y001135D02*
X004761Y001135D01*
X004664Y001135D02*
X003863Y001135D01*
X003863Y001037D02*
X004366Y001037D01*
X004366Y000938D02*
X003863Y000938D01*
X003863Y000840D02*
X004377Y000840D01*
X004664Y000840D02*
X004761Y000840D01*
X004761Y000938D02*
X004664Y000938D01*
X004664Y001037D02*
X004761Y001037D01*
X004366Y001234D02*
X003863Y001234D01*
X003863Y001332D02*
X004366Y001332D01*
X005264Y001037D02*
X005361Y001037D01*
X005361Y000938D02*
X005264Y000938D01*
X005264Y000840D02*
X005361Y000840D01*
X005649Y000840D02*
X010583Y000840D01*
X010583Y000938D02*
X005660Y000938D01*
X005660Y001037D02*
X010583Y001037D01*
X010583Y000741D02*
X003863Y000741D01*
X003863Y000643D02*
X010583Y000643D01*
X010583Y000544D02*
X003863Y000544D01*
X003863Y000446D02*
X010583Y000446D01*
X009750Y001726D02*
X007375Y001726D01*
X007474Y001825D02*
X009652Y001825D01*
X009613Y001923D02*
X007513Y001923D01*
X007113Y001923D02*
X007013Y001923D01*
X007013Y001825D02*
X007113Y001825D01*
X007113Y001726D02*
X007013Y001726D01*
X007473Y002711D02*
X009653Y002711D01*
X009653Y002810D02*
X007473Y002810D01*
X007473Y002908D02*
X009653Y002908D01*
X009653Y003007D02*
X007473Y003007D01*
X007473Y003105D02*
X009653Y003105D01*
X009653Y003204D02*
X007473Y003204D01*
X007473Y003302D02*
X009653Y003302D01*
X009658Y003401D02*
X007468Y003401D01*
D18*
X000793Y004916D02*
X000793Y000380D01*
X003613Y000380D01*
X003613Y001300D01*
X003360Y001300D01*
X003243Y001417D01*
X003243Y002063D01*
X003360Y002180D01*
X003613Y002180D01*
X003613Y002210D01*
X003360Y002210D01*
X003243Y002327D01*
X003243Y002973D01*
X003360Y003090D01*
X003613Y003090D01*
X003613Y003120D01*
X003360Y003120D01*
X003243Y003237D01*
X003243Y003883D01*
X003360Y004000D01*
X003613Y004000D01*
X003613Y004916D01*
X000793Y004916D01*
X000793Y004905D02*
X003613Y004905D01*
X003613Y004747D02*
X000793Y004747D01*
X000793Y004588D02*
X003613Y004588D01*
X003613Y004430D02*
X000793Y004430D01*
X000793Y004271D02*
X003613Y004271D01*
X003613Y004113D02*
X000793Y004113D01*
X000793Y003954D02*
X003314Y003954D01*
X003243Y003796D02*
X002759Y003796D01*
X002808Y003747D02*
X002693Y003861D01*
X002544Y003923D01*
X002382Y003923D01*
X002232Y003861D01*
X002118Y003747D01*
X002056Y003597D01*
X002056Y003435D01*
X002118Y003286D01*
X002232Y003171D01*
X002382Y003109D01*
X002544Y003109D01*
X002693Y003171D01*
X002808Y003286D01*
X002870Y003435D01*
X002870Y003597D01*
X002808Y003747D01*
X002853Y003637D02*
X003243Y003637D01*
X003243Y003479D02*
X002870Y003479D01*
X002822Y003320D02*
X003243Y003320D01*
X003318Y003162D02*
X002671Y003162D01*
X002255Y003162D02*
X002056Y003162D01*
X002056Y003320D02*
X002103Y003320D01*
X002056Y003382D02*
X002044Y003428D01*
X002020Y003469D01*
X001986Y003503D01*
X001945Y003526D01*
X001900Y003539D01*
X001523Y003539D01*
X001523Y002730D01*
X002056Y002730D01*
X002056Y003382D01*
X002056Y003479D02*
X002011Y003479D01*
X002072Y003637D02*
X000793Y003637D01*
X000899Y003503D02*
X000866Y003469D01*
X000842Y003428D01*
X000830Y003382D01*
X000830Y002730D01*
X001363Y002730D01*
X001363Y003539D01*
X000986Y003539D01*
X000940Y003526D01*
X000899Y003503D01*
X000875Y003479D02*
X000793Y003479D01*
X000793Y003320D02*
X000830Y003320D01*
X000830Y003162D02*
X000793Y003162D01*
X000793Y003003D02*
X000830Y003003D01*
X000830Y002845D02*
X000793Y002845D01*
X000793Y002686D02*
X001363Y002686D01*
X001363Y002730D02*
X001363Y002570D01*
X001523Y002570D01*
X001523Y002730D01*
X001363Y002730D01*
X001523Y002686D02*
X003243Y002686D01*
X003243Y002528D02*
X002056Y002528D01*
X002056Y002570D02*
X002056Y001918D01*
X002044Y001872D01*
X002020Y001831D01*
X001986Y001797D01*
X001945Y001774D01*
X001900Y001761D01*
X001523Y001761D01*
X001523Y002570D01*
X002056Y002570D01*
X002056Y002369D02*
X003243Y002369D01*
X003359Y002211D02*
X002056Y002211D01*
X002232Y002129D02*
X002118Y002014D01*
X002056Y001865D01*
X002056Y001703D01*
X002118Y001553D01*
X002232Y001439D01*
X002382Y001377D01*
X002544Y001377D01*
X002693Y001439D01*
X002808Y001553D01*
X002870Y001703D01*
X002870Y001865D01*
X002808Y002014D01*
X002693Y002129D01*
X002544Y002191D01*
X002382Y002191D01*
X002232Y002129D01*
X002155Y002052D02*
X002056Y002052D01*
X002049Y001894D02*
X002068Y001894D01*
X002056Y001735D02*
X000793Y001735D01*
X000866Y001831D02*
X000899Y001797D01*
X000940Y001774D01*
X000986Y001761D01*
X001363Y001761D01*
X001363Y002570D01*
X000830Y002570D01*
X000830Y001918D01*
X000842Y001872D01*
X000866Y001831D01*
X000836Y001894D02*
X000793Y001894D01*
X000793Y002052D02*
X000830Y002052D01*
X000830Y002211D02*
X000793Y002211D01*
X000793Y002369D02*
X000830Y002369D01*
X000830Y002528D02*
X000793Y002528D01*
X001363Y002528D02*
X001523Y002528D01*
X001523Y002369D02*
X001363Y002369D01*
X001363Y002211D02*
X001523Y002211D01*
X001523Y002052D02*
X001363Y002052D01*
X001363Y001894D02*
X001523Y001894D01*
X002108Y001577D02*
X000793Y001577D01*
X000793Y001418D02*
X002282Y001418D01*
X002644Y001418D02*
X003243Y001418D01*
X003243Y001577D02*
X002818Y001577D01*
X002870Y001735D02*
X003243Y001735D01*
X003243Y001894D02*
X002858Y001894D01*
X002771Y002052D02*
X003243Y002052D01*
X003243Y002845D02*
X002056Y002845D01*
X002056Y003003D02*
X003273Y003003D01*
X002166Y003796D02*
X000793Y003796D01*
X001363Y003479D02*
X001523Y003479D01*
X001523Y003320D02*
X001363Y003320D01*
X001363Y003162D02*
X001523Y003162D01*
X001523Y003003D02*
X001363Y003003D01*
X001363Y002845D02*
X001523Y002845D01*
X000793Y001260D02*
X003613Y001260D01*
X003613Y001101D02*
X000793Y001101D01*
X000793Y000943D02*
X003613Y000943D01*
X003613Y000784D02*
X000793Y000784D01*
X000793Y000626D02*
X003613Y000626D01*
X003613Y000467D02*
X000793Y000467D01*
M02*
