G75*
G70*
%OFA0B0*%
%FSLAX24Y24*%
%IPPOS*%
%LPD*%
%AMOC8*
5,1,8,0,0,1.08239X$1,22.5*
%
%ADD10R,0.0236X0.0866*%
%ADD11R,0.0394X0.0433*%
%ADD12C,0.0480*%
%ADD13R,0.0433X0.0394*%
%ADD14R,0.0591X0.0591*%
%ADD15R,0.0600X0.0600*%
%ADD16OC8,0.0600*%
%ADD17C,0.0709*%
%ADD18R,0.0157X0.0748*%
%ADD19R,0.0748X0.0157*%
%ADD20R,0.0236X0.0236*%
%ADD21C,0.0100*%
%ADD22C,0.0337*%
%ADD23C,0.0160*%
%ADD24C,0.0120*%
D10*
X007950Y004081D03*
X008450Y004081D03*
X008950Y004081D03*
X009450Y004081D03*
X009450Y006129D03*
X008950Y006129D03*
X008450Y006129D03*
X007950Y006129D03*
D11*
X006948Y006404D03*
X006279Y006404D03*
X006279Y005420D03*
X006948Y005420D03*
X009900Y004740D03*
X009900Y004070D03*
X016491Y004614D03*
X016491Y005283D03*
X009230Y007174D03*
X008560Y007174D03*
X008560Y007682D03*
X009230Y007682D03*
D12*
X017870Y005855D03*
X017870Y003955D03*
D13*
X013720Y001877D03*
X013050Y001877D03*
X021000Y006270D03*
X021620Y006270D03*
X021620Y006940D03*
X021000Y006940D03*
X013483Y007979D03*
X012814Y007979D03*
D14*
X021613Y005594D03*
X021613Y004216D03*
D15*
X006500Y000905D03*
X005500Y002405D03*
X004500Y003405D03*
X006500Y008905D03*
D16*
X005500Y008905D03*
X004500Y008905D03*
X007500Y008905D03*
X008500Y008905D03*
X009500Y008905D03*
X010500Y008905D03*
X011500Y008905D03*
X012500Y008905D03*
X013500Y008905D03*
X014500Y008905D03*
X015500Y008905D03*
X016500Y008905D03*
X017500Y008905D03*
X018500Y008905D03*
X019500Y008905D03*
X020500Y008905D03*
X021500Y008905D03*
X005500Y007405D03*
X005500Y006405D03*
X004500Y006405D03*
X004500Y005405D03*
X005500Y005405D03*
X005500Y004405D03*
X004500Y004405D03*
X005500Y003405D03*
X005500Y000905D03*
X004500Y000905D03*
X007500Y000905D03*
X008500Y000905D03*
X009500Y000905D03*
X010500Y000905D03*
X011500Y000905D03*
X012500Y000905D03*
X013500Y000905D03*
X014500Y000905D03*
X015500Y000905D03*
X016500Y000905D03*
X017500Y000905D03*
X018500Y000905D03*
X019500Y000905D03*
X020500Y000905D03*
X021500Y000905D03*
D17*
X019800Y003724D03*
X019800Y006086D03*
D18*
X014870Y007144D03*
X014555Y007144D03*
X014240Y007144D03*
X013925Y007144D03*
X013610Y007144D03*
X013295Y007144D03*
X012980Y007144D03*
X012665Y007144D03*
X012350Y007144D03*
X012035Y007144D03*
X011720Y007144D03*
X011720Y002656D03*
X012035Y002656D03*
X012350Y002656D03*
X012665Y002656D03*
X012980Y002656D03*
X013295Y002656D03*
X013610Y002656D03*
X013925Y002656D03*
X014240Y002656D03*
X014555Y002656D03*
X014870Y002656D03*
D19*
X015539Y003325D03*
X015539Y003640D03*
X015539Y003955D03*
X015539Y004270D03*
X015539Y004585D03*
X015539Y004900D03*
X015539Y005215D03*
X015539Y005530D03*
X015539Y005845D03*
X015539Y006160D03*
X015539Y006475D03*
X011051Y006475D03*
X011051Y006160D03*
X011051Y005845D03*
X011051Y005530D03*
X011051Y005215D03*
X011051Y004900D03*
X011051Y004585D03*
X011051Y004270D03*
X011051Y003955D03*
X011051Y003640D03*
X011051Y003325D03*
D20*
X007461Y003606D03*
X006595Y003606D03*
X006595Y004396D03*
X007461Y004396D03*
D21*
X009400Y004105D02*
X009465Y004070D01*
X009900Y004070D01*
X010500Y004005D02*
X008300Y001805D01*
X007400Y001805D01*
X006500Y000905D01*
X005500Y000905D02*
X005000Y001405D01*
X005000Y003905D01*
X004500Y004405D01*
X004500Y005405D02*
X005500Y005405D01*
X006264Y005405D01*
X006279Y005420D01*
X006948Y005420D02*
X007485Y005420D01*
X007500Y005405D01*
X008700Y005605D02*
X008800Y005505D01*
X009300Y005505D01*
X009450Y005655D01*
X009450Y006129D01*
X009450Y006555D01*
X009600Y006705D01*
X009800Y006705D01*
X010660Y005845D01*
X011051Y005845D01*
X011051Y006160D02*
X010645Y006160D01*
X009631Y007174D01*
X009631Y008774D01*
X009500Y008905D01*
X010500Y008905D02*
X011051Y008354D01*
X011051Y006475D01*
X011720Y007144D02*
X011720Y008685D01*
X011500Y008905D01*
X012035Y008440D02*
X012500Y008905D01*
X012035Y008440D02*
X012035Y007144D01*
X012350Y007144D02*
X012350Y008165D01*
X012558Y008373D01*
X012952Y008373D01*
X013484Y008905D01*
X013500Y008905D01*
X013925Y008330D02*
X014500Y008905D01*
X015314Y008373D02*
X015968Y008373D01*
X016500Y008905D01*
X016674Y008079D02*
X017500Y008905D01*
X018300Y008405D02*
X019000Y008405D01*
X019500Y008905D01*
X018500Y008905D02*
X016070Y006475D01*
X015539Y006475D01*
X015539Y006160D02*
X016055Y006160D01*
X018300Y008405D01*
X018400Y008205D02*
X019800Y008205D01*
X020500Y008905D01*
X020600Y008005D02*
X021500Y008905D01*
X020600Y008005D02*
X018500Y008005D01*
X016025Y005530D01*
X015539Y005530D01*
X015539Y005845D02*
X016040Y005845D01*
X018400Y008205D01*
X016674Y008079D02*
X015414Y008079D01*
X014870Y007535D01*
X014870Y007144D01*
X014555Y007144D02*
X014555Y007613D01*
X015314Y008373D01*
X015500Y008905D02*
X014240Y007645D01*
X014240Y007144D01*
X013925Y007144D02*
X013925Y008330D01*
X013483Y007979D02*
X013610Y007852D01*
X012814Y007979D02*
X012794Y007959D01*
X012794Y007903D01*
X012665Y007774D01*
X009631Y007174D02*
X009230Y007174D01*
X009230Y006735D01*
X008950Y006455D01*
X008950Y006129D01*
X008700Y005605D02*
X008700Y006705D01*
X008900Y006905D01*
X008900Y007605D01*
X008977Y007682D01*
X009230Y007682D01*
X009230Y008175D01*
X008500Y008905D01*
X008560Y007682D02*
X008560Y007174D01*
X008269Y007174D01*
X007950Y006855D01*
X007200Y006405D02*
X006949Y006405D01*
X006948Y006404D01*
X007200Y006405D02*
X007500Y006105D01*
X006279Y006404D02*
X006278Y006405D01*
X005500Y006405D01*
X004500Y006405D01*
X010000Y005405D02*
X010190Y005415D01*
X010400Y005205D01*
X011051Y005215D01*
X011051Y005530D02*
X010475Y005530D01*
X010200Y005805D01*
X010665Y004270D02*
X010500Y004005D01*
X010750Y003955D02*
X008400Y001605D01*
X008200Y001605D01*
X007500Y000905D01*
X008500Y000905D02*
X008500Y001405D01*
X010735Y003640D01*
X011051Y003640D01*
X011051Y003325D02*
X010751Y003356D01*
X009500Y002105D01*
X009500Y000905D01*
X010500Y000905D02*
X011720Y002125D01*
X011720Y002656D01*
X012035Y002656D02*
X012035Y001440D01*
X011500Y000905D01*
X012350Y001055D02*
X012500Y000905D01*
X012350Y001055D02*
X012350Y002656D01*
X012665Y002656D02*
X012665Y001440D01*
X012900Y001205D01*
X013200Y001205D01*
X013500Y000905D01*
X014240Y001165D02*
X014500Y000905D01*
X014240Y001165D02*
X014240Y002656D01*
X014555Y002656D02*
X014555Y001850D01*
X015500Y000905D01*
X015800Y001605D02*
X016500Y000905D01*
X017500Y000905D02*
X017500Y001805D01*
X015980Y003325D01*
X015539Y003325D01*
X015539Y003640D02*
X015965Y003640D01*
X018500Y001105D01*
X018500Y000905D01*
X018800Y001605D02*
X019500Y000905D01*
X019600Y001805D02*
X020500Y000905D01*
X021500Y000905D02*
X020400Y002005D01*
X018500Y002005D01*
X015920Y004585D01*
X015539Y004585D01*
X015539Y004270D02*
X015935Y004270D01*
X018400Y001805D01*
X019600Y001805D01*
X018800Y001605D02*
X018300Y001605D01*
X015950Y003955D01*
X015539Y003955D01*
X013610Y003095D02*
X013300Y003405D01*
X013100Y003405D01*
X013610Y003095D02*
X013610Y002656D01*
X014870Y002656D02*
X014870Y002035D01*
X015300Y001605D01*
X015800Y001605D01*
X011051Y003955D02*
X010750Y003955D01*
X010665Y004270D02*
X011051Y004270D01*
X016491Y005283D02*
X016509Y005381D01*
X018076Y005381D01*
X019600Y006905D01*
X020965Y006905D01*
X021000Y006940D01*
X021620Y006940D01*
X021620Y006270D02*
X021613Y005594D01*
X021000Y006270D02*
X019984Y006270D01*
X019800Y006086D01*
X019800Y005005D01*
X018900Y004105D01*
D22*
X018900Y004105D03*
X016994Y004136D03*
X013100Y003405D03*
X012200Y005005D03*
X013800Y005905D03*
X014200Y006305D03*
X010200Y005805D03*
X010000Y005405D03*
X007600Y004805D03*
X007500Y005405D03*
X007500Y006105D03*
X006357Y003106D03*
X014000Y000505D03*
X014000Y009305D03*
D23*
X013500Y007905D02*
X013610Y007795D01*
X013610Y007144D01*
X013295Y007144D02*
X013295Y006610D01*
X013600Y006305D01*
X014200Y006305D01*
X013800Y005905D02*
X013500Y005905D01*
X012980Y006425D01*
X012980Y007144D01*
X012665Y007144D02*
X012665Y007774D01*
X012665Y007144D02*
X012665Y005470D01*
X012200Y005005D01*
X013300Y003805D01*
X014710Y005215D01*
X015539Y005215D01*
X016210Y005215D01*
X016300Y005305D01*
X016469Y005305D01*
X016491Y005283D01*
X013925Y003180D02*
X013300Y003805D01*
X013925Y003180D02*
X013925Y002656D01*
X013925Y002082D01*
X013720Y001877D01*
X013050Y001877D02*
X012980Y001947D01*
X012980Y002656D01*
X011780Y004585D02*
X011051Y004585D01*
X010185Y004585D01*
X009900Y004740D01*
X009535Y005105D01*
X008200Y005105D01*
X007944Y005361D01*
X007950Y006129D01*
X007950Y006855D01*
X006700Y008105D01*
X004800Y008105D01*
X004500Y008405D01*
X004500Y008905D01*
X011780Y004585D02*
X012200Y005005D01*
X007600Y004805D02*
X007461Y004666D01*
X007461Y004396D01*
X007461Y003606D01*
X006595Y003606D02*
X006357Y003406D01*
X006357Y003106D01*
X006449Y004405D02*
X005500Y004405D01*
X006449Y004405D02*
X006595Y004396D01*
X021608Y006905D02*
X021620Y006940D01*
D24*
X003910Y009495D02*
X003910Y000315D01*
X022090Y000315D01*
X022090Y009495D01*
X003910Y009495D01*
X003910Y009467D02*
X022090Y009467D01*
X022090Y009348D02*
X005708Y009348D01*
X005691Y009365D02*
X005540Y009365D01*
X005540Y008945D01*
X005960Y008945D01*
X005960Y009096D01*
X005691Y009365D01*
X005540Y009348D02*
X005460Y009348D01*
X005460Y009365D02*
X005309Y009365D01*
X005040Y009096D01*
X005040Y008945D01*
X005460Y008945D01*
X005460Y009365D01*
X005460Y009230D02*
X005540Y009230D01*
X005292Y009348D02*
X003910Y009348D01*
X003910Y009230D02*
X004231Y009230D01*
X004326Y009325D02*
X004080Y009079D01*
X004080Y008731D01*
X004300Y008511D01*
X004300Y008322D01*
X004417Y008205D01*
X004717Y007905D01*
X006617Y007905D01*
X007750Y006772D01*
X007750Y006650D01*
X007712Y006611D01*
X007712Y006301D01*
X007663Y006350D01*
X007557Y006393D01*
X007452Y006393D01*
X007370Y006475D01*
X007270Y006575D01*
X007265Y006575D01*
X007265Y006670D01*
X007195Y006741D01*
X006701Y006741D01*
X006631Y006670D01*
X006631Y006138D01*
X006701Y006068D01*
X007195Y006068D01*
X007212Y006085D01*
X007212Y006048D01*
X007255Y005942D01*
X007337Y005860D01*
X007443Y005817D01*
X007557Y005817D01*
X007663Y005860D01*
X007712Y005909D01*
X007712Y005646D01*
X007746Y005612D01*
X007745Y005566D01*
X007745Y005568D01*
X007663Y005650D01*
X007557Y005693D01*
X007443Y005693D01*
X007337Y005650D01*
X007277Y005590D01*
X007265Y005590D01*
X007265Y005686D01*
X007195Y005756D01*
X006701Y005756D01*
X006631Y005686D01*
X006631Y005154D01*
X006701Y005083D01*
X007195Y005083D01*
X007265Y005154D01*
X007265Y005232D01*
X007337Y005160D01*
X007443Y005117D01*
X007557Y005117D01*
X007663Y005160D01*
X007745Y005242D01*
X007755Y005267D01*
X007802Y005220D01*
X007859Y005162D01*
X007860Y005162D01*
X008000Y005022D01*
X008117Y004905D01*
X009452Y004905D01*
X009583Y004774D01*
X009583Y004674D01*
X009450Y004674D01*
X009311Y004674D01*
X009270Y004664D01*
X009234Y004642D01*
X009204Y004613D01*
X009200Y004606D01*
X009196Y004613D01*
X009166Y004642D01*
X009130Y004664D01*
X009089Y004674D01*
X008950Y004674D01*
X008811Y004674D01*
X008770Y004664D01*
X008734Y004642D01*
X008704Y004613D01*
X008700Y004606D01*
X008696Y004613D01*
X008666Y004642D01*
X008630Y004664D01*
X008589Y004674D01*
X008450Y004674D01*
X008311Y004674D01*
X008270Y004664D01*
X008234Y004642D01*
X008204Y004613D01*
X008200Y004606D01*
X008196Y004613D01*
X008166Y004642D01*
X008130Y004664D01*
X008089Y004674D01*
X007950Y004674D01*
X007858Y004674D01*
X007888Y004748D01*
X007888Y004862D01*
X007845Y004968D01*
X007763Y005050D01*
X007657Y005093D01*
X007543Y005093D01*
X007437Y005050D01*
X007355Y004968D01*
X007312Y004862D01*
X007312Y004799D01*
X007261Y004749D01*
X007261Y004602D01*
X007223Y004564D01*
X007223Y004229D01*
X007261Y004190D01*
X007261Y003812D01*
X007223Y003774D01*
X007223Y003438D01*
X007294Y003368D01*
X007629Y003368D01*
X007700Y003438D01*
X007700Y003558D01*
X007704Y003550D01*
X007734Y003520D01*
X007770Y003499D01*
X007811Y003488D01*
X007950Y003488D01*
X008089Y003488D01*
X008130Y003499D01*
X008166Y003520D01*
X008196Y003550D01*
X008200Y003557D01*
X008204Y003550D01*
X008234Y003520D01*
X008270Y003499D01*
X008311Y003488D01*
X008450Y003488D01*
X008589Y003488D01*
X008630Y003499D01*
X008666Y003520D01*
X008696Y003550D01*
X008700Y003557D01*
X008704Y003550D01*
X008734Y003520D01*
X008770Y003499D01*
X008811Y003488D01*
X008950Y003488D01*
X009089Y003488D01*
X009130Y003499D01*
X009166Y003520D01*
X009196Y003550D01*
X009200Y003557D01*
X009204Y003550D01*
X009234Y003520D01*
X009270Y003499D01*
X009311Y003488D01*
X009450Y003488D01*
X009589Y003488D01*
X009630Y003499D01*
X009666Y003520D01*
X009696Y003550D01*
X009717Y003587D01*
X009728Y003627D01*
X009728Y003694D01*
X009862Y003694D01*
X009862Y004032D01*
X009938Y004032D01*
X009938Y003694D01*
X009948Y003694D01*
X008230Y001975D01*
X007330Y001975D01*
X006680Y001325D01*
X006150Y001325D01*
X006080Y001255D01*
X006080Y000555D01*
X006150Y000485D01*
X006850Y000485D01*
X006920Y000555D01*
X006920Y001085D01*
X007470Y001635D01*
X007990Y001635D01*
X007677Y001322D01*
X007674Y001325D01*
X007326Y001325D01*
X007080Y001079D01*
X007080Y000731D01*
X007326Y000485D01*
X007674Y000485D01*
X007920Y000731D01*
X007920Y001079D01*
X007917Y001082D01*
X008270Y001435D01*
X008330Y001435D01*
X008330Y001325D01*
X008326Y001325D01*
X008080Y001079D01*
X008080Y000731D01*
X008326Y000485D01*
X008674Y000485D01*
X008920Y000731D01*
X008920Y001079D01*
X008674Y001325D01*
X008670Y001325D01*
X008670Y001335D01*
X009330Y001995D01*
X009330Y001325D01*
X009326Y001325D01*
X009080Y001079D01*
X009080Y000731D01*
X009326Y000485D01*
X009674Y000485D01*
X009920Y000731D01*
X009920Y001079D01*
X009674Y001325D01*
X009670Y001325D01*
X009670Y002035D01*
X010762Y003127D01*
X011475Y003127D01*
X011545Y003197D01*
X011545Y003454D01*
X011516Y003483D01*
X011545Y003512D01*
X011545Y003769D01*
X011516Y003798D01*
X011545Y003827D01*
X011545Y004084D01*
X011516Y004113D01*
X011545Y004142D01*
X011545Y004385D01*
X011863Y004385D01*
X012194Y004716D01*
X013100Y003727D01*
X013100Y003722D01*
X013129Y003693D01*
X013043Y003693D01*
X012937Y003650D01*
X012855Y003568D01*
X012812Y003462D01*
X012812Y003348D01*
X012855Y003242D01*
X012907Y003190D01*
X012880Y003190D01*
X012840Y003179D01*
X012803Y003158D01*
X012794Y003149D01*
X012794Y003150D01*
X012537Y003150D01*
X012508Y003121D01*
X012479Y003150D01*
X012222Y003150D01*
X012193Y003121D01*
X012164Y003150D01*
X011907Y003150D01*
X011878Y003121D01*
X011849Y003150D01*
X011592Y003150D01*
X011522Y003080D01*
X011522Y002232D01*
X011550Y002204D01*
X011550Y002196D01*
X010677Y001322D01*
X010674Y001325D01*
X010326Y001325D01*
X010080Y001079D01*
X010080Y000731D01*
X010326Y000485D01*
X010674Y000485D01*
X010920Y000731D01*
X010920Y001079D01*
X010917Y001082D01*
X011865Y002030D01*
X011865Y001511D01*
X011677Y001322D01*
X011674Y001325D01*
X011326Y001325D01*
X011080Y001079D01*
X011080Y000731D01*
X011326Y000485D01*
X011674Y000485D01*
X011920Y000731D01*
X011920Y001079D01*
X011917Y001082D01*
X012180Y001345D01*
X012180Y001179D01*
X012080Y001079D01*
X012080Y000731D01*
X012326Y000485D01*
X012674Y000485D01*
X012920Y000731D01*
X012920Y001035D01*
X013080Y001035D01*
X013080Y000731D01*
X013326Y000485D01*
X013674Y000485D01*
X013920Y000731D01*
X013920Y001079D01*
X013674Y001325D01*
X013326Y001325D01*
X013323Y001322D01*
X013270Y001375D01*
X012970Y001375D01*
X012835Y001510D01*
X012835Y001520D01*
X013012Y001520D01*
X013012Y001838D01*
X013089Y001838D01*
X013089Y001520D01*
X013288Y001520D01*
X013329Y001531D01*
X013365Y001552D01*
X013395Y001582D01*
X013408Y001605D01*
X013453Y001560D01*
X013986Y001560D01*
X014056Y001630D01*
X014056Y001930D01*
X014070Y001944D01*
X014070Y001095D01*
X014083Y001082D01*
X014080Y001079D01*
X014080Y000731D01*
X014326Y000485D01*
X014674Y000485D01*
X014920Y000731D01*
X014920Y001079D01*
X014674Y001325D01*
X014410Y001325D01*
X014410Y001755D01*
X015083Y001082D01*
X015080Y001079D01*
X015080Y000731D01*
X015326Y000485D01*
X015674Y000485D01*
X015920Y000731D01*
X015920Y001079D01*
X015674Y001325D01*
X015326Y001325D01*
X015323Y001322D01*
X014725Y001920D01*
X014725Y001940D01*
X015130Y001535D01*
X015230Y001435D01*
X015730Y001435D01*
X016083Y001082D01*
X016080Y001079D01*
X016080Y000731D01*
X016326Y000485D01*
X016674Y000485D01*
X016920Y000731D01*
X016920Y001079D01*
X016674Y001325D01*
X016326Y001325D01*
X016323Y001322D01*
X015870Y001775D01*
X015370Y001775D01*
X015040Y002106D01*
X015040Y002204D01*
X015069Y002232D01*
X015069Y003080D01*
X014998Y003150D01*
X014741Y003150D01*
X014712Y003121D01*
X014683Y003150D01*
X014426Y003150D01*
X014397Y003121D01*
X014368Y003150D01*
X014125Y003150D01*
X014125Y003263D01*
X013583Y003805D01*
X014793Y005015D01*
X015009Y005015D01*
X015005Y005000D01*
X015005Y004900D01*
X015005Y004800D01*
X015016Y004760D01*
X015037Y004723D01*
X015046Y004714D01*
X015045Y004714D01*
X015045Y004457D01*
X015074Y004428D01*
X015045Y004399D01*
X015045Y004142D01*
X015074Y004113D01*
X015045Y004084D01*
X015045Y003827D01*
X015074Y003798D01*
X015045Y003769D01*
X015045Y003512D01*
X015074Y003483D01*
X015045Y003454D01*
X015045Y003197D01*
X015115Y003127D01*
X015938Y003127D01*
X017330Y001735D01*
X017330Y001325D01*
X017326Y001325D01*
X017080Y001079D01*
X017080Y000731D01*
X017326Y000485D01*
X017674Y000485D01*
X017920Y000731D01*
X017920Y001079D01*
X017674Y001325D01*
X017670Y001325D01*
X017670Y001695D01*
X018183Y001182D01*
X018080Y001079D01*
X018080Y000731D01*
X018326Y000485D01*
X018674Y000485D01*
X018920Y000731D01*
X018920Y001079D01*
X018674Y001325D01*
X018520Y001325D01*
X018410Y001435D01*
X018730Y001435D01*
X019083Y001082D01*
X019080Y001079D01*
X019080Y000731D01*
X019326Y000485D01*
X019674Y000485D01*
X019920Y000731D01*
X019920Y001079D01*
X019674Y001325D01*
X019326Y001325D01*
X019323Y001322D01*
X019010Y001635D01*
X019530Y001635D01*
X020083Y001082D01*
X020080Y001079D01*
X020080Y000731D01*
X020326Y000485D01*
X020674Y000485D01*
X020920Y000731D01*
X020920Y001079D01*
X020674Y001325D01*
X020326Y001325D01*
X020323Y001322D01*
X019810Y001835D01*
X020330Y001835D01*
X021083Y001082D01*
X021080Y001079D01*
X021080Y000731D01*
X021326Y000485D01*
X021674Y000485D01*
X021920Y000731D01*
X021920Y001079D01*
X021674Y001325D01*
X021326Y001325D01*
X021323Y001322D01*
X020470Y002175D01*
X018570Y002175D01*
X016452Y004293D01*
X016452Y004575D01*
X016529Y004575D01*
X016529Y004237D01*
X016708Y004237D01*
X016749Y004248D01*
X016786Y004269D01*
X016815Y004299D01*
X016836Y004335D01*
X016847Y004376D01*
X016847Y004575D01*
X016529Y004575D01*
X016529Y004652D01*
X016847Y004652D01*
X016847Y004851D01*
X016836Y004892D01*
X016815Y004928D01*
X016786Y004958D01*
X016762Y004972D01*
X016807Y005017D01*
X016807Y005211D01*
X018146Y005211D01*
X019670Y006735D01*
X020663Y006735D01*
X020663Y006693D01*
X020734Y006623D01*
X021266Y006623D01*
X021310Y006667D01*
X021354Y006623D01*
X021886Y006623D01*
X021957Y006693D01*
X021957Y007186D01*
X021886Y007256D01*
X021354Y007256D01*
X021310Y007213D01*
X021266Y007256D01*
X020734Y007256D01*
X020663Y007186D01*
X020663Y007075D01*
X019530Y007075D01*
X019430Y006975D01*
X018224Y005770D01*
X018230Y005783D01*
X018230Y005927D01*
X018175Y006059D01*
X018074Y006160D01*
X017942Y006215D01*
X017798Y006215D01*
X017666Y006160D01*
X017565Y006059D01*
X017510Y005927D01*
X017510Y005783D01*
X017565Y005651D01*
X017665Y005551D01*
X016806Y005551D01*
X016737Y005619D01*
X016355Y005619D01*
X018570Y007835D01*
X020670Y007835D01*
X021323Y008488D01*
X021326Y008485D01*
X021674Y008485D01*
X021920Y008731D01*
X021920Y009079D01*
X021674Y009325D01*
X021326Y009325D01*
X021080Y009079D01*
X021080Y008731D01*
X021083Y008728D01*
X020530Y008175D01*
X020010Y008175D01*
X020323Y008488D01*
X020326Y008485D01*
X020674Y008485D01*
X020920Y008731D01*
X020920Y009079D01*
X020674Y009325D01*
X020326Y009325D01*
X020080Y009079D01*
X020080Y008731D01*
X020083Y008728D01*
X019730Y008375D01*
X019210Y008375D01*
X019323Y008488D01*
X019326Y008485D01*
X019674Y008485D01*
X019920Y008731D01*
X019920Y009079D01*
X019674Y009325D01*
X019326Y009325D01*
X019080Y009079D01*
X019080Y008731D01*
X019083Y008728D01*
X018930Y008575D01*
X018764Y008575D01*
X018920Y008731D01*
X018920Y009079D01*
X018674Y009325D01*
X018326Y009325D01*
X018080Y009079D01*
X018080Y008731D01*
X018083Y008728D01*
X015999Y006645D01*
X015992Y006645D01*
X015963Y006674D01*
X015115Y006674D01*
X015045Y006603D01*
X015045Y006346D01*
X015074Y006317D01*
X015045Y006288D01*
X015045Y006031D01*
X015074Y006002D01*
X015045Y005973D01*
X015045Y005717D01*
X015074Y005687D01*
X015045Y005658D01*
X015045Y005415D01*
X014627Y005415D01*
X014510Y005298D01*
X013306Y004094D01*
X012488Y004986D01*
X012488Y005011D01*
X012748Y005270D01*
X012865Y005387D01*
X012865Y006257D01*
X013300Y005822D01*
X013417Y005705D01*
X013592Y005705D01*
X013637Y005660D01*
X013743Y005617D01*
X013857Y005617D01*
X013963Y005660D01*
X014045Y005742D01*
X014088Y005848D01*
X014088Y005962D01*
X014050Y006055D01*
X014143Y006017D01*
X014257Y006017D01*
X014363Y006060D01*
X014445Y006142D01*
X014488Y006248D01*
X014488Y006362D01*
X014445Y006468D01*
X014363Y006550D01*
X014257Y006593D01*
X014143Y006593D01*
X014037Y006550D01*
X013992Y006505D01*
X013683Y006505D01*
X013578Y006610D01*
X013610Y006610D01*
X013610Y007144D01*
X013610Y007144D01*
X013610Y006610D01*
X013710Y006610D01*
X013751Y006621D01*
X013787Y006642D01*
X013796Y006651D01*
X013797Y006650D01*
X014053Y006650D01*
X014082Y006679D01*
X014112Y006650D01*
X014368Y006650D01*
X014397Y006679D01*
X014426Y006650D01*
X014683Y006650D01*
X014712Y006679D01*
X014741Y006650D01*
X014998Y006650D01*
X015069Y006720D01*
X015069Y007493D01*
X015485Y007909D01*
X016744Y007909D01*
X017323Y008488D01*
X017326Y008485D01*
X017674Y008485D01*
X017920Y008731D01*
X017920Y009079D01*
X017674Y009325D01*
X017326Y009325D01*
X017080Y009079D01*
X017080Y008731D01*
X017083Y008728D01*
X016604Y008249D01*
X016084Y008249D01*
X016323Y008488D01*
X016326Y008485D01*
X016674Y008485D01*
X016920Y008731D01*
X016920Y009079D01*
X016674Y009325D01*
X016326Y009325D01*
X016080Y009079D01*
X016080Y008731D01*
X016083Y008728D01*
X015897Y008543D01*
X015732Y008543D01*
X015920Y008731D01*
X015920Y009079D01*
X015674Y009325D01*
X015326Y009325D01*
X015080Y009079D01*
X015080Y008731D01*
X015083Y008728D01*
X014095Y007740D01*
X014095Y008260D01*
X014323Y008488D01*
X014326Y008485D01*
X014674Y008485D01*
X014920Y008731D01*
X014920Y009079D01*
X014674Y009325D01*
X014326Y009325D01*
X014080Y009079D01*
X014080Y008731D01*
X014083Y008728D01*
X013755Y008400D01*
X013220Y008400D01*
X013246Y008336D02*
X013205Y008325D01*
X013169Y008304D01*
X013139Y008274D01*
X013125Y008251D01*
X013098Y008278D01*
X013122Y008302D01*
X013315Y008496D01*
X013326Y008485D01*
X013674Y008485D01*
X013920Y008731D01*
X013920Y009079D01*
X013674Y009325D01*
X013326Y009325D01*
X013080Y009079D01*
X013080Y008741D01*
X012882Y008543D01*
X012732Y008543D01*
X012920Y008731D01*
X012920Y009079D01*
X012674Y009325D01*
X012326Y009325D01*
X012080Y009079D01*
X012080Y008731D01*
X012083Y008728D01*
X011890Y008536D01*
X011890Y008701D01*
X011920Y008731D01*
X011920Y009079D01*
X011674Y009325D01*
X011326Y009325D01*
X011080Y009079D01*
X011080Y008731D01*
X011326Y008485D01*
X011550Y008485D01*
X011550Y007597D01*
X011522Y007568D01*
X011522Y006720D01*
X011592Y006650D01*
X011849Y006650D01*
X011878Y006679D01*
X011907Y006650D01*
X012164Y006650D01*
X012193Y006679D01*
X012222Y006650D01*
X012465Y006650D01*
X012465Y005553D01*
X012206Y005293D01*
X012143Y005293D01*
X012037Y005250D01*
X011955Y005168D01*
X011912Y005062D01*
X011912Y004999D01*
X011697Y004785D01*
X011581Y004785D01*
X011585Y004800D01*
X011585Y004900D01*
X011051Y004900D01*
X011051Y004900D01*
X010517Y004900D01*
X010517Y004800D01*
X010521Y004785D01*
X010236Y004785D01*
X010217Y004795D01*
X010217Y005006D01*
X010147Y005076D01*
X009846Y005076D01*
X009617Y005305D01*
X008283Y005305D01*
X008144Y005443D01*
X008146Y005603D01*
X008181Y005639D01*
X008183Y005634D01*
X008204Y005597D01*
X008234Y005568D01*
X008270Y005546D01*
X008311Y005536D01*
X008450Y005536D01*
X008530Y005536D01*
X008530Y005535D01*
X008630Y005435D01*
X008730Y005335D01*
X009370Y005335D01*
X009470Y005435D01*
X009611Y005576D01*
X009618Y005576D01*
X009688Y005646D01*
X009688Y006535D01*
X009730Y006535D01*
X010171Y006093D01*
X010143Y006093D01*
X010037Y006050D01*
X009955Y005968D01*
X009912Y005862D01*
X009912Y005748D01*
X009935Y005690D01*
X009837Y005650D01*
X009755Y005568D01*
X009712Y005462D01*
X009712Y005348D01*
X009755Y005242D01*
X009837Y005160D01*
X009943Y005117D01*
X010057Y005117D01*
X010163Y005160D01*
X010184Y005181D01*
X010231Y005134D01*
X010231Y005132D01*
X010281Y005084D01*
X010330Y005035D01*
X010331Y005035D01*
X010332Y005034D01*
X010401Y005035D01*
X010470Y005035D01*
X010471Y005036D01*
X010527Y005037D01*
X010517Y005000D01*
X010517Y004900D01*
X011051Y004900D01*
X011051Y004900D01*
X011585Y004900D01*
X011585Y005000D01*
X011574Y005041D01*
X011553Y005077D01*
X011544Y005086D01*
X011545Y005087D01*
X011545Y005343D01*
X011516Y005373D01*
X011545Y005402D01*
X011545Y005658D01*
X011516Y005687D01*
X011545Y005717D01*
X011545Y005973D01*
X011516Y006002D01*
X011545Y006031D01*
X011545Y006288D01*
X011516Y006317D01*
X011545Y006346D01*
X011545Y006603D01*
X011475Y006674D01*
X011221Y006674D01*
X011221Y008424D01*
X010917Y008728D01*
X010920Y008731D01*
X010920Y009079D01*
X010674Y009325D01*
X010326Y009325D01*
X010080Y009079D01*
X010080Y008731D01*
X010326Y008485D01*
X010674Y008485D01*
X010677Y008488D01*
X010881Y008284D01*
X010881Y006674D01*
X010627Y006674D01*
X010557Y006603D01*
X010557Y006488D01*
X009801Y007244D01*
X009801Y008612D01*
X009920Y008731D01*
X009920Y009079D01*
X009674Y009325D01*
X009326Y009325D01*
X009080Y009079D01*
X009080Y008731D01*
X009326Y008485D01*
X009461Y008485D01*
X009461Y008019D01*
X009400Y008019D01*
X009400Y008246D01*
X008917Y008728D01*
X008920Y008731D01*
X008920Y009079D01*
X008674Y009325D01*
X008326Y009325D01*
X008080Y009079D01*
X008080Y008731D01*
X008326Y008485D01*
X008674Y008485D01*
X008677Y008488D01*
X009060Y008105D01*
X009060Y008019D01*
X008983Y008019D01*
X008913Y007948D01*
X008913Y007852D01*
X008907Y007852D01*
X008877Y007823D01*
X008877Y007948D01*
X008807Y008019D01*
X008314Y008019D01*
X008244Y007948D01*
X008244Y007344D01*
X008199Y007344D01*
X007971Y007117D01*
X006900Y008188D01*
X006783Y008305D01*
X004883Y008305D01*
X004700Y008488D01*
X004700Y008511D01*
X004920Y008731D01*
X004920Y009079D01*
X004674Y009325D01*
X004326Y009325D01*
X004769Y009230D02*
X005174Y009230D01*
X005055Y009111D02*
X004888Y009111D01*
X004920Y008993D02*
X005040Y008993D01*
X005040Y008865D02*
X005040Y008714D01*
X005309Y008445D01*
X005460Y008445D01*
X005460Y008865D01*
X005540Y008865D01*
X005540Y008945D01*
X005460Y008945D01*
X005460Y008865D01*
X005040Y008865D01*
X005040Y008756D02*
X004920Y008756D01*
X004920Y008874D02*
X005460Y008874D01*
X005540Y008874D02*
X006080Y008874D01*
X006080Y008756D02*
X005960Y008756D01*
X005960Y008714D02*
X005960Y008865D01*
X005540Y008865D01*
X005540Y008445D01*
X005691Y008445D01*
X005960Y008714D01*
X005883Y008637D02*
X006080Y008637D01*
X006080Y008555D02*
X006150Y008485D01*
X006850Y008485D01*
X006920Y008555D01*
X006920Y009255D01*
X006850Y009325D01*
X006150Y009325D01*
X006080Y009255D01*
X006080Y008555D01*
X006117Y008519D02*
X005764Y008519D01*
X005540Y008519D02*
X005460Y008519D01*
X005236Y008519D02*
X004707Y008519D01*
X004788Y008400D02*
X008765Y008400D01*
X008883Y008282D02*
X006806Y008282D01*
X006925Y008163D02*
X009002Y008163D01*
X009060Y008045D02*
X007043Y008045D01*
X007162Y007926D02*
X008244Y007926D01*
X008244Y007808D02*
X007280Y007808D01*
X007399Y007689D02*
X008244Y007689D01*
X008244Y007571D02*
X007517Y007571D01*
X007636Y007452D02*
X008244Y007452D01*
X008188Y007334D02*
X007754Y007334D01*
X007873Y007215D02*
X008070Y007215D01*
X007544Y006978D02*
X003910Y006978D01*
X003910Y007097D02*
X005215Y007097D01*
X005326Y006985D02*
X005080Y007231D01*
X005080Y007579D01*
X005326Y007825D01*
X005674Y007825D01*
X005920Y007579D01*
X005920Y007231D01*
X005674Y006985D01*
X005326Y006985D01*
X005326Y006825D02*
X005080Y006579D01*
X005080Y006575D01*
X004920Y006575D01*
X004920Y006579D01*
X004674Y006825D01*
X004326Y006825D01*
X004080Y006579D01*
X004080Y006231D01*
X004326Y005985D01*
X004674Y005985D01*
X004920Y006231D01*
X004920Y006235D01*
X005080Y006235D01*
X005080Y006231D01*
X005326Y005985D01*
X005674Y005985D01*
X005920Y006231D01*
X005920Y006235D01*
X005962Y006235D01*
X005962Y006138D01*
X006032Y006068D01*
X006525Y006068D01*
X006596Y006138D01*
X006596Y006670D01*
X006525Y006741D01*
X006032Y006741D01*
X005962Y006670D01*
X005962Y006575D01*
X005920Y006575D01*
X005920Y006579D01*
X005674Y006825D01*
X005326Y006825D01*
X005242Y006741D02*
X004758Y006741D01*
X004876Y006623D02*
X005124Y006623D01*
X005758Y006741D02*
X007750Y006741D01*
X007723Y006623D02*
X007265Y006623D01*
X007341Y006504D02*
X007712Y006504D01*
X007712Y006386D02*
X007576Y006386D01*
X008150Y006650D02*
X008150Y006815D01*
X008244Y006908D01*
X008244Y006908D01*
X008314Y006837D01*
X008592Y006837D01*
X008530Y006775D01*
X008530Y006722D01*
X008450Y006722D01*
X008311Y006722D01*
X008270Y006711D01*
X008234Y006690D01*
X008204Y006660D01*
X008183Y006623D01*
X008181Y006618D01*
X008150Y006650D01*
X008177Y006623D02*
X008183Y006623D01*
X008150Y006741D02*
X008530Y006741D01*
X008450Y006722D02*
X008450Y006129D01*
X008450Y006722D01*
X008450Y006623D02*
X008450Y006623D01*
X008450Y006504D02*
X008450Y006504D01*
X008450Y006386D02*
X008450Y006386D01*
X008450Y006267D02*
X008450Y006267D01*
X008450Y006149D02*
X008450Y006149D01*
X008450Y006129D02*
X008450Y006129D01*
X008450Y005536D01*
X008450Y006129D01*
X008450Y006129D01*
X008450Y006030D02*
X008450Y006030D01*
X008450Y005912D02*
X008450Y005912D01*
X008450Y005793D02*
X008450Y005793D01*
X008450Y005675D02*
X008450Y005675D01*
X008450Y005556D02*
X008450Y005556D01*
X008254Y005556D02*
X008145Y005556D01*
X008150Y005438D02*
X008627Y005438D01*
X008269Y005319D02*
X009723Y005319D01*
X009722Y005201D02*
X009797Y005201D01*
X009840Y005082D02*
X010283Y005082D01*
X010217Y004964D02*
X010517Y004964D01*
X010517Y004845D02*
X010217Y004845D01*
X009583Y004727D02*
X007880Y004727D01*
X007950Y004674D02*
X007950Y004081D01*
X007950Y003488D01*
X007950Y004081D01*
X007950Y004081D01*
X007672Y004081D01*
X007672Y003801D01*
X007661Y003812D01*
X007661Y004190D01*
X007672Y004201D01*
X007672Y004081D01*
X007950Y004081D01*
X007950Y004081D01*
X007950Y004081D01*
X008450Y004081D01*
X008450Y003488D01*
X008450Y004081D01*
X008450Y004081D01*
X008450Y004081D01*
X008672Y004081D01*
X008950Y004081D01*
X008950Y003488D01*
X008950Y004081D01*
X008950Y004081D01*
X008950Y004081D01*
X008950Y004081D01*
X009172Y004081D01*
X009450Y004081D01*
X009450Y003488D01*
X009450Y004081D01*
X009450Y004081D01*
X009450Y004081D01*
X009728Y004081D01*
X009728Y004032D01*
X009862Y004032D01*
X009862Y004109D01*
X009728Y004109D01*
X009728Y004081D01*
X009450Y004081D01*
X009450Y004081D01*
X008950Y004081D01*
X008450Y004081D01*
X008450Y004081D01*
X008228Y004081D01*
X007950Y004081D01*
X007950Y004081D01*
X007950Y004674D01*
X007950Y004608D02*
X007950Y004608D01*
X007950Y004490D02*
X007950Y004490D01*
X007950Y004371D02*
X007950Y004371D01*
X007950Y004253D02*
X007950Y004253D01*
X007950Y004134D02*
X007950Y004134D01*
X007672Y004134D02*
X007661Y004134D01*
X007661Y004016D02*
X007672Y004016D01*
X007661Y003897D02*
X007672Y003897D01*
X007950Y003897D02*
X007950Y003897D01*
X007950Y003779D02*
X007950Y003779D01*
X007950Y003660D02*
X007950Y003660D01*
X007950Y003542D02*
X007950Y003542D01*
X008188Y003542D02*
X008212Y003542D01*
X008450Y003542D02*
X008450Y003542D01*
X008450Y003660D02*
X008450Y003660D01*
X008450Y003779D02*
X008450Y003779D01*
X008450Y003897D02*
X008450Y003897D01*
X008450Y004016D02*
X008450Y004016D01*
X008450Y004081D02*
X008450Y004674D01*
X008450Y004081D01*
X008450Y004081D01*
X008450Y004134D02*
X008450Y004134D01*
X008450Y004253D02*
X008450Y004253D01*
X008450Y004371D02*
X008450Y004371D01*
X008450Y004490D02*
X008450Y004490D01*
X008450Y004608D02*
X008450Y004608D01*
X008201Y004608D02*
X008199Y004608D01*
X008699Y004608D02*
X008701Y004608D01*
X008950Y004608D02*
X008950Y004608D01*
X008950Y004674D02*
X008950Y004081D01*
X008950Y004081D01*
X008950Y004674D01*
X009199Y004608D02*
X009201Y004608D01*
X008950Y004490D02*
X008950Y004490D01*
X008950Y004371D02*
X008950Y004371D01*
X008950Y004253D02*
X008950Y004253D01*
X008950Y004134D02*
X008950Y004134D01*
X008950Y004016D02*
X008950Y004016D01*
X008950Y003897D02*
X008950Y003897D01*
X008950Y003779D02*
X008950Y003779D01*
X008950Y003660D02*
X008950Y003660D01*
X008950Y003542D02*
X008950Y003542D01*
X009188Y003542D02*
X009212Y003542D01*
X009450Y003542D02*
X009450Y003542D01*
X009450Y003660D02*
X009450Y003660D01*
X009450Y003779D02*
X009450Y003779D01*
X009450Y003897D02*
X009450Y003897D01*
X009450Y004016D02*
X009450Y004016D01*
X009450Y004081D02*
X009450Y004674D01*
X009450Y004081D01*
X009450Y004081D01*
X009450Y004134D02*
X009450Y004134D01*
X009450Y004253D02*
X009450Y004253D01*
X009450Y004371D02*
X009450Y004371D01*
X009450Y004490D02*
X009450Y004490D01*
X009450Y004608D02*
X009450Y004608D01*
X009512Y004845D02*
X007888Y004845D01*
X007847Y004964D02*
X008059Y004964D01*
X007940Y005082D02*
X007685Y005082D01*
X007515Y005082D02*
X005771Y005082D01*
X005674Y004985D02*
X005920Y005231D01*
X005920Y005235D01*
X005962Y005235D01*
X005962Y005154D01*
X006032Y005083D01*
X006525Y005083D01*
X006596Y005154D01*
X006596Y005686D01*
X006525Y005756D01*
X006032Y005756D01*
X005962Y005686D01*
X005962Y005575D01*
X005920Y005575D01*
X005920Y005579D01*
X005674Y005825D01*
X005326Y005825D01*
X005080Y005579D01*
X005080Y005575D01*
X004920Y005575D01*
X004920Y005579D01*
X004674Y005825D01*
X004326Y005825D01*
X004080Y005579D01*
X004080Y005231D01*
X004326Y004985D01*
X004674Y004985D01*
X004920Y005231D01*
X004920Y005235D01*
X005080Y005235D01*
X005080Y005231D01*
X005326Y004985D01*
X005674Y004985D01*
X005674Y004825D02*
X005326Y004825D01*
X005080Y004579D01*
X005080Y004231D01*
X005326Y003985D01*
X005674Y003985D01*
X005894Y004205D01*
X006381Y004205D01*
X006427Y004158D01*
X006763Y004158D01*
X006833Y004229D01*
X006833Y004564D01*
X006763Y004634D01*
X006427Y004634D01*
X006401Y004608D01*
X006378Y004610D01*
X006373Y004605D01*
X005894Y004605D01*
X005674Y004825D01*
X005772Y004727D02*
X007261Y004727D01*
X007312Y004845D02*
X003910Y004845D01*
X003910Y004727D02*
X004228Y004727D01*
X004326Y004825D02*
X004080Y004579D01*
X004080Y004231D01*
X004326Y003985D01*
X004674Y003985D01*
X004677Y003988D01*
X004800Y003865D01*
X004540Y003865D01*
X004540Y003445D01*
X004460Y003445D01*
X004460Y003865D01*
X004179Y003865D01*
X004138Y003854D01*
X004102Y003833D01*
X004072Y003803D01*
X004051Y003767D01*
X004040Y003726D01*
X004040Y003445D01*
X004460Y003445D01*
X004460Y003365D01*
X004540Y003365D01*
X004540Y002945D01*
X004821Y002945D01*
X004830Y002947D01*
X004830Y001335D01*
X005083Y001082D01*
X005080Y001079D01*
X005080Y000731D01*
X005326Y000485D01*
X005674Y000485D01*
X005920Y000731D01*
X005920Y001079D01*
X005674Y001325D01*
X005326Y001325D01*
X005323Y001322D01*
X005170Y001475D01*
X005170Y001947D01*
X005179Y001945D01*
X005460Y001945D01*
X005460Y002365D01*
X005540Y002365D01*
X005540Y002445D01*
X005460Y002445D01*
X005460Y002865D01*
X005179Y002865D01*
X005170Y002863D01*
X005170Y003141D01*
X005326Y002985D01*
X005674Y002985D01*
X005920Y003231D01*
X005920Y003579D01*
X005674Y003825D01*
X005326Y003825D01*
X005170Y003669D01*
X005170Y003975D01*
X005070Y004075D01*
X004917Y004228D01*
X004920Y004231D01*
X004920Y004579D01*
X004674Y004825D01*
X004326Y004825D01*
X004229Y005082D02*
X003910Y005082D01*
X003910Y004964D02*
X007353Y004964D01*
X007297Y005201D02*
X007265Y005201D01*
X007703Y005201D02*
X007821Y005201D01*
X007712Y005675D02*
X007603Y005675D01*
X007397Y005675D02*
X007265Y005675D01*
X007712Y005793D02*
X005706Y005793D01*
X005824Y005675D02*
X005962Y005675D01*
X006596Y005675D02*
X006631Y005675D01*
X006631Y005556D02*
X006596Y005556D01*
X006596Y005438D02*
X006631Y005438D01*
X006631Y005319D02*
X006596Y005319D01*
X006596Y005201D02*
X006631Y005201D01*
X005962Y005201D02*
X005889Y005201D01*
X005229Y005082D02*
X004771Y005082D01*
X004889Y005201D02*
X005111Y005201D01*
X005176Y005675D02*
X004824Y005675D01*
X004706Y005793D02*
X005294Y005793D01*
X005281Y006030D02*
X004719Y006030D01*
X004837Y006149D02*
X005163Y006149D01*
X005719Y006030D02*
X007219Y006030D01*
X007286Y005912D02*
X003910Y005912D01*
X003910Y006030D02*
X004281Y006030D01*
X004163Y006149D02*
X003910Y006149D01*
X003910Y006267D02*
X004080Y006267D01*
X004080Y006386D02*
X003910Y006386D01*
X003910Y006504D02*
X004080Y006504D01*
X004124Y006623D02*
X003910Y006623D01*
X003910Y006741D02*
X004242Y006741D01*
X003910Y006860D02*
X007663Y006860D01*
X008195Y006860D02*
X008292Y006860D01*
X007426Y007097D02*
X005785Y007097D01*
X005904Y007215D02*
X007307Y007215D01*
X007189Y007334D02*
X005920Y007334D01*
X005920Y007452D02*
X007070Y007452D01*
X006952Y007571D02*
X005920Y007571D01*
X005810Y007689D02*
X006833Y007689D01*
X006715Y007808D02*
X005691Y007808D01*
X005309Y007808D02*
X003910Y007808D01*
X003910Y007926D02*
X004696Y007926D01*
X004578Y008045D02*
X003910Y008045D01*
X003910Y008163D02*
X004459Y008163D01*
X004341Y008282D02*
X003910Y008282D01*
X003910Y008400D02*
X004300Y008400D01*
X004293Y008519D02*
X003910Y008519D01*
X003910Y008637D02*
X004174Y008637D01*
X004080Y008756D02*
X003910Y008756D01*
X003910Y008874D02*
X004080Y008874D01*
X004080Y008993D02*
X003910Y008993D01*
X003910Y009111D02*
X004112Y009111D01*
X004826Y008637D02*
X005117Y008637D01*
X005460Y008637D02*
X005540Y008637D01*
X005540Y008756D02*
X005460Y008756D01*
X005460Y008993D02*
X005540Y008993D01*
X005540Y009111D02*
X005460Y009111D01*
X005826Y009230D02*
X006080Y009230D01*
X006080Y009111D02*
X005945Y009111D01*
X005960Y008993D02*
X006080Y008993D01*
X006920Y008993D02*
X007080Y008993D01*
X007080Y009079D02*
X007080Y008731D01*
X007326Y008485D01*
X007674Y008485D01*
X007920Y008731D01*
X007920Y009079D01*
X007674Y009325D01*
X007326Y009325D01*
X007080Y009079D01*
X007112Y009111D02*
X006920Y009111D01*
X006920Y009230D02*
X007231Y009230D01*
X007769Y009230D02*
X008231Y009230D01*
X008112Y009111D02*
X007888Y009111D01*
X007920Y008993D02*
X008080Y008993D01*
X008080Y008874D02*
X007920Y008874D01*
X007920Y008756D02*
X008080Y008756D01*
X008174Y008637D02*
X007826Y008637D01*
X007707Y008519D02*
X008293Y008519D01*
X008920Y008756D02*
X009080Y008756D01*
X009080Y008874D02*
X008920Y008874D01*
X008920Y008993D02*
X009080Y008993D01*
X009112Y009111D02*
X008888Y009111D01*
X008769Y009230D02*
X009231Y009230D01*
X009769Y009230D02*
X010231Y009230D01*
X010112Y009111D02*
X009888Y009111D01*
X009920Y008993D02*
X010080Y008993D01*
X010080Y008874D02*
X009920Y008874D01*
X009920Y008756D02*
X010080Y008756D01*
X010174Y008637D02*
X009826Y008637D01*
X009801Y008519D02*
X010293Y008519D01*
X010765Y008400D02*
X009801Y008400D01*
X009801Y008282D02*
X010881Y008282D01*
X010881Y008163D02*
X009801Y008163D01*
X009801Y008045D02*
X010881Y008045D01*
X011221Y008045D02*
X011550Y008045D01*
X011550Y008163D02*
X011221Y008163D01*
X011221Y008282D02*
X011550Y008282D01*
X011550Y008400D02*
X011221Y008400D01*
X011293Y008519D02*
X011127Y008519D01*
X011174Y008637D02*
X011008Y008637D01*
X011080Y008756D02*
X010920Y008756D01*
X010920Y008874D02*
X011080Y008874D01*
X011080Y008993D02*
X010920Y008993D01*
X010888Y009111D02*
X011112Y009111D01*
X011231Y009230D02*
X010769Y009230D01*
X011769Y009230D02*
X012231Y009230D01*
X012112Y009111D02*
X011888Y009111D01*
X011920Y008993D02*
X012080Y008993D01*
X012080Y008874D02*
X011920Y008874D01*
X011920Y008756D02*
X012080Y008756D01*
X011992Y008637D02*
X011890Y008637D01*
X012826Y008637D02*
X012976Y008637D01*
X012920Y008756D02*
X013080Y008756D01*
X013080Y008874D02*
X012920Y008874D01*
X012920Y008993D02*
X013080Y008993D01*
X013112Y009111D02*
X012888Y009111D01*
X012769Y009230D02*
X013231Y009230D01*
X013769Y009230D02*
X014231Y009230D01*
X014112Y009111D02*
X013888Y009111D01*
X013920Y008993D02*
X014080Y008993D01*
X014080Y008874D02*
X013920Y008874D01*
X013920Y008756D02*
X014080Y008756D01*
X013992Y008637D02*
X013826Y008637D01*
X013873Y008519D02*
X013707Y008519D01*
X013755Y008400D02*
X013755Y008327D01*
X013721Y008336D01*
X013522Y008336D01*
X013522Y008017D01*
X013445Y008017D01*
X013445Y008336D01*
X013246Y008336D01*
X013146Y008282D02*
X013101Y008282D01*
X013445Y008282D02*
X013522Y008282D01*
X013522Y008163D02*
X013445Y008163D01*
X013445Y008045D02*
X013522Y008045D01*
X013522Y007941D02*
X013445Y007941D01*
X013445Y007653D01*
X013470Y007667D01*
X013510Y007678D01*
X013522Y007678D01*
X013522Y007941D01*
X013522Y007926D02*
X013445Y007926D01*
X013445Y007808D02*
X013522Y007808D01*
X013522Y007689D02*
X013445Y007689D01*
X014095Y007808D02*
X014162Y007808D01*
X014095Y007926D02*
X014281Y007926D01*
X014399Y008045D02*
X014095Y008045D01*
X014095Y008163D02*
X014518Y008163D01*
X014636Y008282D02*
X014117Y008282D01*
X014235Y008400D02*
X014755Y008400D01*
X014707Y008519D02*
X014873Y008519D01*
X014826Y008637D02*
X014992Y008637D01*
X014920Y008756D02*
X015080Y008756D01*
X015080Y008874D02*
X014920Y008874D01*
X014920Y008993D02*
X015080Y008993D01*
X015112Y009111D02*
X014888Y009111D01*
X014769Y009230D02*
X015231Y009230D01*
X015769Y009230D02*
X016231Y009230D01*
X016112Y009111D02*
X015888Y009111D01*
X015920Y008993D02*
X016080Y008993D01*
X016080Y008874D02*
X015920Y008874D01*
X015920Y008756D02*
X016080Y008756D01*
X015992Y008637D02*
X015826Y008637D01*
X016235Y008400D02*
X016755Y008400D01*
X016707Y008519D02*
X016873Y008519D01*
X017235Y008400D02*
X017755Y008400D01*
X017707Y008519D02*
X017873Y008519D01*
X017826Y008637D02*
X017992Y008637D01*
X017920Y008756D02*
X018080Y008756D01*
X018080Y008874D02*
X017920Y008874D01*
X017920Y008993D02*
X018080Y008993D01*
X018112Y009111D02*
X017888Y009111D01*
X017769Y009230D02*
X018231Y009230D01*
X018769Y009230D02*
X019231Y009230D01*
X019112Y009111D02*
X018888Y009111D01*
X018920Y008993D02*
X019080Y008993D01*
X019080Y008874D02*
X018920Y008874D01*
X018920Y008756D02*
X019080Y008756D01*
X018992Y008637D02*
X018826Y008637D01*
X019235Y008400D02*
X019755Y008400D01*
X019707Y008519D02*
X019873Y008519D01*
X019826Y008637D02*
X019992Y008637D01*
X019920Y008756D02*
X020080Y008756D01*
X020080Y008874D02*
X019920Y008874D01*
X019920Y008993D02*
X020080Y008993D01*
X020112Y009111D02*
X019888Y009111D01*
X019769Y009230D02*
X020231Y009230D01*
X020769Y009230D02*
X021231Y009230D01*
X021112Y009111D02*
X020888Y009111D01*
X020920Y008993D02*
X021080Y008993D01*
X021080Y008874D02*
X020920Y008874D01*
X020920Y008756D02*
X021080Y008756D01*
X020992Y008637D02*
X020826Y008637D01*
X020873Y008519D02*
X020707Y008519D01*
X020755Y008400D02*
X020235Y008400D01*
X020117Y008282D02*
X020636Y008282D01*
X020880Y008045D02*
X022090Y008045D01*
X022090Y008163D02*
X020998Y008163D01*
X021117Y008282D02*
X022090Y008282D01*
X022090Y008400D02*
X021235Y008400D01*
X021707Y008519D02*
X022090Y008519D01*
X022090Y008637D02*
X021826Y008637D01*
X021920Y008756D02*
X022090Y008756D01*
X022090Y008874D02*
X021920Y008874D01*
X021920Y008993D02*
X022090Y008993D01*
X022090Y009111D02*
X021888Y009111D01*
X021769Y009230D02*
X022090Y009230D01*
X022090Y007926D02*
X020761Y007926D01*
X022090Y007808D02*
X018543Y007808D01*
X018424Y007689D02*
X022090Y007689D01*
X022090Y007571D02*
X018306Y007571D01*
X018187Y007452D02*
X022090Y007452D01*
X022090Y007334D02*
X018069Y007334D01*
X017950Y007215D02*
X020692Y007215D01*
X020663Y007097D02*
X017832Y007097D01*
X017713Y006978D02*
X019433Y006978D01*
X019314Y006860D02*
X017595Y006860D01*
X017476Y006741D02*
X019196Y006741D01*
X019077Y006623D02*
X017358Y006623D01*
X017239Y006504D02*
X018959Y006504D01*
X018840Y006386D02*
X017121Y006386D01*
X017002Y006267D02*
X018722Y006267D01*
X018603Y006149D02*
X018086Y006149D01*
X018187Y006030D02*
X018485Y006030D01*
X018366Y005912D02*
X018230Y005912D01*
X018230Y005793D02*
X018248Y005793D01*
X018610Y005675D02*
X019554Y005675D01*
X019531Y005684D02*
X019630Y005643D01*
X019630Y005075D01*
X018948Y004393D01*
X018843Y004393D01*
X018737Y004350D01*
X018655Y004268D01*
X018612Y004162D01*
X018612Y004048D01*
X018655Y003942D01*
X018737Y003860D01*
X018843Y003817D01*
X018957Y003817D01*
X019063Y003860D01*
X019145Y003942D01*
X019188Y004048D01*
X019188Y004153D01*
X019970Y004935D01*
X019970Y005643D01*
X020069Y005684D01*
X020202Y005817D01*
X020274Y005992D01*
X020274Y006100D01*
X020663Y006100D01*
X020663Y006024D01*
X020734Y005954D01*
X021213Y005954D01*
X021198Y005939D01*
X021198Y005249D01*
X021268Y005179D01*
X021958Y005179D01*
X022029Y005249D01*
X022029Y005939D01*
X021958Y006009D01*
X021942Y006009D01*
X021957Y006024D01*
X021957Y006517D01*
X021886Y006587D01*
X021354Y006587D01*
X021310Y006543D01*
X021266Y006587D01*
X020734Y006587D01*
X020663Y006517D01*
X020663Y006440D01*
X020117Y006440D01*
X020069Y006488D01*
X019894Y006560D01*
X019706Y006560D01*
X019531Y006488D01*
X019398Y006355D01*
X019326Y006180D01*
X019326Y005992D01*
X019398Y005817D01*
X019531Y005684D01*
X019630Y005556D02*
X018491Y005556D01*
X018373Y005438D02*
X019630Y005438D01*
X019630Y005319D02*
X018254Y005319D01*
X017660Y005556D02*
X016801Y005556D01*
X016410Y005675D02*
X017555Y005675D01*
X017510Y005793D02*
X016528Y005793D01*
X016647Y005912D02*
X017510Y005912D01*
X017553Y006030D02*
X016765Y006030D01*
X016884Y006149D02*
X017654Y006149D01*
X018728Y005793D02*
X019422Y005793D01*
X019359Y005912D02*
X018847Y005912D01*
X018965Y006030D02*
X019326Y006030D01*
X019326Y006149D02*
X019084Y006149D01*
X019202Y006267D02*
X019362Y006267D01*
X019321Y006386D02*
X019429Y006386D01*
X019439Y006504D02*
X019569Y006504D01*
X019558Y006623D02*
X022090Y006623D01*
X022090Y006741D02*
X021957Y006741D01*
X021957Y006860D02*
X022090Y006860D01*
X022090Y006978D02*
X021957Y006978D01*
X021957Y007097D02*
X022090Y007097D01*
X022090Y007215D02*
X021928Y007215D01*
X021312Y007215D02*
X021308Y007215D01*
X020663Y006504D02*
X020031Y006504D01*
X020274Y006030D02*
X020663Y006030D01*
X020241Y005912D02*
X021198Y005912D01*
X021198Y005793D02*
X020178Y005793D01*
X020046Y005675D02*
X021198Y005675D01*
X021198Y005556D02*
X019970Y005556D01*
X019970Y005438D02*
X021198Y005438D01*
X021198Y005319D02*
X019970Y005319D01*
X019970Y005201D02*
X021247Y005201D01*
X021980Y005201D02*
X022090Y005201D01*
X022090Y005319D02*
X022029Y005319D01*
X022029Y005438D02*
X022090Y005438D01*
X022090Y005556D02*
X022029Y005556D01*
X022029Y005675D02*
X022090Y005675D01*
X022090Y005793D02*
X022029Y005793D01*
X022029Y005912D02*
X022090Y005912D01*
X022090Y006030D02*
X021957Y006030D01*
X021957Y006149D02*
X022090Y006149D01*
X022090Y006267D02*
X021957Y006267D01*
X021957Y006386D02*
X022090Y006386D01*
X022090Y006504D02*
X021957Y006504D01*
X019630Y005201D02*
X016807Y005201D01*
X016807Y005082D02*
X019630Y005082D01*
X019518Y004964D02*
X016776Y004964D01*
X016847Y004845D02*
X019400Y004845D01*
X019281Y004727D02*
X016847Y004727D01*
X016529Y004608D02*
X019163Y004608D01*
X019044Y004490D02*
X016847Y004490D01*
X016846Y004371D02*
X018789Y004371D01*
X018649Y004253D02*
X018082Y004253D01*
X018074Y004260D02*
X017942Y004315D01*
X017798Y004315D01*
X017666Y004260D01*
X017565Y004159D01*
X017510Y004027D01*
X017510Y003883D01*
X017565Y003751D01*
X017666Y003650D01*
X017798Y003595D01*
X017942Y003595D01*
X018074Y003650D01*
X018175Y003751D01*
X018230Y003883D01*
X018230Y004027D01*
X018175Y004159D01*
X018074Y004260D01*
X018186Y004134D02*
X018612Y004134D01*
X018625Y004016D02*
X018230Y004016D01*
X018230Y003897D02*
X018700Y003897D01*
X019100Y003897D02*
X019315Y003897D01*
X019323Y003921D02*
X019298Y003844D01*
X019288Y003782D01*
X019742Y003782D01*
X019742Y004235D01*
X019680Y004226D01*
X019603Y004201D01*
X019530Y004164D01*
X019465Y004116D01*
X019408Y004059D01*
X019360Y003993D01*
X019323Y003921D01*
X019376Y004016D02*
X019175Y004016D01*
X019188Y004134D02*
X019489Y004134D01*
X019288Y004253D02*
X021553Y004253D01*
X021553Y004276D02*
X021553Y004156D01*
X021158Y004156D01*
X021158Y003900D01*
X021169Y003859D01*
X021190Y003823D01*
X021220Y003793D01*
X021256Y003772D01*
X021297Y003761D01*
X021553Y003761D01*
X021553Y004156D01*
X021673Y004156D01*
X021673Y003761D01*
X021930Y003761D01*
X021970Y003772D01*
X022007Y003793D01*
X022037Y003823D01*
X022058Y003859D01*
X022069Y003900D01*
X022069Y004156D01*
X021673Y004156D01*
X021673Y004276D01*
X021553Y004276D01*
X021158Y004276D01*
X021158Y004532D01*
X021169Y004573D01*
X021190Y004610D01*
X021220Y004639D01*
X021256Y004660D01*
X021297Y004671D01*
X021553Y004671D01*
X021553Y004276D01*
X021553Y004371D02*
X021673Y004371D01*
X021673Y004276D02*
X021673Y004671D01*
X021930Y004671D01*
X021970Y004660D01*
X022007Y004639D01*
X022037Y004610D01*
X022058Y004573D01*
X022069Y004532D01*
X022069Y004276D01*
X021673Y004276D01*
X021673Y004253D02*
X022090Y004253D01*
X022090Y004371D02*
X022069Y004371D01*
X022069Y004490D02*
X022090Y004490D01*
X022090Y004608D02*
X022038Y004608D01*
X022090Y004727D02*
X019762Y004727D01*
X019880Y004845D02*
X022090Y004845D01*
X022090Y004964D02*
X019970Y004964D01*
X019970Y005082D02*
X022090Y005082D01*
X021673Y004608D02*
X021553Y004608D01*
X021553Y004490D02*
X021673Y004490D01*
X021189Y004608D02*
X019643Y004608D01*
X019525Y004490D02*
X021158Y004490D01*
X021158Y004371D02*
X019406Y004371D01*
X019742Y004134D02*
X019858Y004134D01*
X019858Y004235D02*
X019858Y003782D01*
X019742Y003782D01*
X019742Y003666D01*
X019288Y003666D01*
X019298Y003603D01*
X019323Y003526D01*
X019360Y003454D01*
X019408Y003389D01*
X019465Y003332D01*
X019530Y003284D01*
X019603Y003247D01*
X019680Y003222D01*
X019742Y003212D01*
X019742Y003666D01*
X019858Y003666D01*
X019858Y003782D01*
X020312Y003782D01*
X020302Y003844D01*
X020277Y003921D01*
X020240Y003993D01*
X020192Y004059D01*
X020135Y004116D01*
X020070Y004164D01*
X019997Y004201D01*
X019920Y004226D01*
X019858Y004235D01*
X020111Y004134D02*
X021158Y004134D01*
X021158Y004016D02*
X020224Y004016D01*
X020285Y003897D02*
X021159Y003897D01*
X021244Y003779D02*
X019858Y003779D01*
X019858Y003666D02*
X020312Y003666D01*
X020302Y003603D01*
X020277Y003526D01*
X020240Y003454D01*
X020192Y003389D01*
X020135Y003332D01*
X020070Y003284D01*
X019997Y003247D01*
X019920Y003222D01*
X019858Y003212D01*
X019858Y003666D01*
X019858Y003660D02*
X019742Y003660D01*
X019742Y003542D02*
X019858Y003542D01*
X019858Y003423D02*
X019742Y003423D01*
X019742Y003305D02*
X019858Y003305D01*
X020098Y003305D02*
X022090Y003305D01*
X022090Y003423D02*
X020217Y003423D01*
X020282Y003542D02*
X022090Y003542D01*
X022090Y003660D02*
X020311Y003660D01*
X019858Y003897D02*
X019742Y003897D01*
X019742Y003779D02*
X018187Y003779D01*
X018084Y003660D02*
X019289Y003660D01*
X019318Y003542D02*
X017204Y003542D01*
X017085Y003660D02*
X017656Y003660D01*
X017553Y003779D02*
X016967Y003779D01*
X016848Y003897D02*
X017510Y003897D01*
X017510Y004016D02*
X016730Y004016D01*
X016611Y004134D02*
X017554Y004134D01*
X017658Y004253D02*
X016757Y004253D01*
X016529Y004253D02*
X016493Y004253D01*
X016529Y004371D02*
X016452Y004371D01*
X016452Y004490D02*
X016529Y004490D01*
X016452Y004575D02*
X016170Y004575D01*
X016033Y004712D01*
X016033Y004714D01*
X016032Y004714D01*
X016041Y004723D01*
X016062Y004760D01*
X016073Y004800D01*
X016073Y004900D01*
X015539Y004900D01*
X015005Y004900D01*
X015539Y004900D01*
X015539Y004900D01*
X015539Y004900D01*
X016073Y004900D01*
X016073Y005000D01*
X016069Y005015D01*
X016175Y005015D01*
X016219Y004972D01*
X016195Y004958D01*
X016166Y004928D01*
X016145Y004892D01*
X016134Y004851D01*
X016134Y004652D01*
X016452Y004652D01*
X016452Y004575D01*
X016452Y004608D02*
X016137Y004608D01*
X016134Y004727D02*
X016043Y004727D01*
X016073Y004845D02*
X016134Y004845D01*
X016073Y004964D02*
X016205Y004964D01*
X015045Y004608D02*
X014386Y004608D01*
X014267Y004490D02*
X015045Y004490D01*
X015045Y004371D02*
X014149Y004371D01*
X014030Y004253D02*
X015045Y004253D01*
X015053Y004134D02*
X013912Y004134D01*
X013793Y004016D02*
X015045Y004016D01*
X015045Y003897D02*
X013675Y003897D01*
X013609Y003779D02*
X015055Y003779D01*
X015045Y003660D02*
X013728Y003660D01*
X013846Y003542D02*
X015045Y003542D01*
X015045Y003423D02*
X013965Y003423D01*
X014083Y003305D02*
X015045Y003305D01*
X015056Y003186D02*
X014125Y003186D01*
X015069Y003068D02*
X015997Y003068D01*
X016116Y002949D02*
X015069Y002949D01*
X015069Y002831D02*
X016234Y002831D01*
X016353Y002712D02*
X015069Y002712D01*
X015069Y002594D02*
X016471Y002594D01*
X016590Y002475D02*
X015069Y002475D01*
X015069Y002357D02*
X016708Y002357D01*
X016827Y002238D02*
X015069Y002238D01*
X015040Y002120D02*
X016945Y002120D01*
X017064Y002001D02*
X015144Y002001D01*
X015263Y001883D02*
X017182Y001883D01*
X017301Y001764D02*
X015881Y001764D01*
X016000Y001646D02*
X017330Y001646D01*
X017330Y001527D02*
X016118Y001527D01*
X016237Y001409D02*
X017330Y001409D01*
X017291Y001290D02*
X016709Y001290D01*
X016827Y001172D02*
X017173Y001172D01*
X017080Y001053D02*
X016920Y001053D01*
X016920Y000935D02*
X017080Y000935D01*
X017080Y000816D02*
X016920Y000816D01*
X016886Y000698D02*
X017114Y000698D01*
X017232Y000579D02*
X016768Y000579D01*
X016232Y000579D02*
X015768Y000579D01*
X015886Y000698D02*
X016114Y000698D01*
X016080Y000816D02*
X015920Y000816D01*
X015920Y000935D02*
X016080Y000935D01*
X016080Y001053D02*
X015920Y001053D01*
X015993Y001172D02*
X015827Y001172D01*
X015875Y001290D02*
X015709Y001290D01*
X015756Y001409D02*
X015237Y001409D01*
X015138Y001527D02*
X015118Y001527D01*
X015019Y001646D02*
X015000Y001646D01*
X014901Y001764D02*
X014881Y001764D01*
X014782Y001883D02*
X014763Y001883D01*
X014519Y001646D02*
X014410Y001646D01*
X014410Y001527D02*
X014638Y001527D01*
X014756Y001409D02*
X014410Y001409D01*
X014709Y001290D02*
X014875Y001290D01*
X014827Y001172D02*
X014993Y001172D01*
X014920Y001053D02*
X015080Y001053D01*
X015080Y000935D02*
X014920Y000935D01*
X014920Y000816D02*
X015080Y000816D01*
X015114Y000698D02*
X014886Y000698D01*
X014768Y000579D02*
X015232Y000579D01*
X014232Y000579D02*
X013768Y000579D01*
X013886Y000698D02*
X014114Y000698D01*
X014080Y000816D02*
X013920Y000816D01*
X013920Y000935D02*
X014080Y000935D01*
X014080Y001053D02*
X013920Y001053D01*
X013827Y001172D02*
X014070Y001172D01*
X014070Y001290D02*
X013709Y001290D01*
X014070Y001409D02*
X012937Y001409D01*
X013012Y001527D02*
X013089Y001527D01*
X013089Y001646D02*
X013012Y001646D01*
X013012Y001764D02*
X013089Y001764D01*
X013315Y001527D02*
X014070Y001527D01*
X014056Y001646D02*
X014070Y001646D01*
X014056Y001764D02*
X014070Y001764D01*
X014056Y001883D02*
X014070Y001883D01*
X013295Y002656D02*
X013219Y002656D01*
X012980Y002656D01*
X013295Y002656D01*
X013295Y002656D01*
X012980Y002656D02*
X012980Y002656D01*
X012865Y003186D02*
X011534Y003186D01*
X011545Y003305D02*
X012829Y003305D01*
X012812Y003423D02*
X011545Y003423D01*
X011545Y003542D02*
X012844Y003542D01*
X012962Y003660D02*
X011545Y003660D01*
X011535Y003779D02*
X013053Y003779D01*
X012944Y003897D02*
X011545Y003897D01*
X011545Y004016D02*
X012836Y004016D01*
X012727Y004134D02*
X011537Y004134D01*
X011545Y004253D02*
X012618Y004253D01*
X012510Y004371D02*
X011545Y004371D01*
X011967Y004490D02*
X012401Y004490D01*
X012293Y004608D02*
X012086Y004608D01*
X011757Y004845D02*
X011585Y004845D01*
X011585Y004964D02*
X011876Y004964D01*
X011920Y005082D02*
X011548Y005082D01*
X011545Y005201D02*
X011988Y005201D01*
X012231Y005319D02*
X011545Y005319D01*
X011545Y005438D02*
X012350Y005438D01*
X012465Y005556D02*
X011545Y005556D01*
X011529Y005675D02*
X012465Y005675D01*
X012465Y005793D02*
X011545Y005793D01*
X011545Y005912D02*
X012465Y005912D01*
X012465Y006030D02*
X011544Y006030D01*
X011545Y006149D02*
X012465Y006149D01*
X012465Y006267D02*
X011545Y006267D01*
X011545Y006386D02*
X012465Y006386D01*
X012465Y006504D02*
X011545Y006504D01*
X011526Y006623D02*
X012465Y006623D01*
X011522Y006741D02*
X011221Y006741D01*
X011221Y006860D02*
X011522Y006860D01*
X011522Y006978D02*
X011221Y006978D01*
X011221Y007097D02*
X011522Y007097D01*
X011522Y007215D02*
X011221Y007215D01*
X011221Y007334D02*
X011522Y007334D01*
X011522Y007452D02*
X011221Y007452D01*
X010881Y007452D02*
X009801Y007452D01*
X009801Y007334D02*
X010881Y007334D01*
X010881Y007215D02*
X009830Y007215D01*
X009949Y007097D02*
X010881Y007097D01*
X010881Y006978D02*
X010067Y006978D01*
X010186Y006860D02*
X010881Y006860D01*
X010881Y006741D02*
X010304Y006741D01*
X010423Y006623D02*
X010576Y006623D01*
X010557Y006504D02*
X010541Y006504D01*
X009879Y006386D02*
X009688Y006386D01*
X009688Y006504D02*
X009761Y006504D01*
X009688Y006267D02*
X009998Y006267D01*
X010116Y006149D02*
X009688Y006149D01*
X009688Y006030D02*
X010017Y006030D01*
X009932Y005912D02*
X009688Y005912D01*
X009688Y005793D02*
X009912Y005793D01*
X009897Y005675D02*
X009688Y005675D01*
X009750Y005556D02*
X009591Y005556D01*
X009473Y005438D02*
X009712Y005438D01*
X010225Y004385D02*
X010536Y004385D01*
X010531Y004377D01*
X010495Y004341D01*
X010495Y004319D01*
X010366Y004111D01*
X010257Y004002D01*
X010257Y004032D01*
X009938Y004032D01*
X009938Y004109D01*
X010257Y004109D01*
X010257Y004308D01*
X010246Y004349D01*
X010225Y004385D01*
X010233Y004371D02*
X010526Y004371D01*
X010454Y004253D02*
X010257Y004253D01*
X010257Y004134D02*
X010380Y004134D01*
X010270Y004016D02*
X010257Y004016D01*
X009938Y004016D02*
X009862Y004016D01*
X009862Y003897D02*
X009938Y003897D01*
X009938Y003779D02*
X009862Y003779D01*
X009915Y003660D02*
X009728Y003660D01*
X009688Y003542D02*
X009796Y003542D01*
X009678Y003423D02*
X007685Y003423D01*
X007700Y003542D02*
X007712Y003542D01*
X007238Y003423D02*
X006818Y003423D01*
X006833Y003438D02*
X006763Y003368D01*
X006623Y003368D01*
X006558Y003313D01*
X006602Y003269D01*
X006646Y003163D01*
X006646Y003048D01*
X006602Y002942D01*
X006521Y002861D01*
X006415Y002817D01*
X006300Y002817D01*
X006194Y002861D01*
X006113Y002942D01*
X006069Y003048D01*
X006069Y003163D01*
X006113Y003269D01*
X006157Y003314D01*
X006157Y003333D01*
X006151Y003340D01*
X006157Y003414D01*
X006157Y003489D01*
X006164Y003496D01*
X006165Y003506D01*
X006222Y003553D01*
X006275Y003606D01*
X006285Y003606D01*
X006357Y003667D01*
X006357Y003774D01*
X006427Y003844D01*
X006763Y003844D01*
X006833Y003774D01*
X006833Y003438D01*
X006833Y003542D02*
X007223Y003542D01*
X007223Y003660D02*
X006833Y003660D01*
X006828Y003779D02*
X007228Y003779D01*
X007261Y003897D02*
X005170Y003897D01*
X005170Y003779D02*
X005280Y003779D01*
X005296Y004016D02*
X005130Y004016D01*
X004768Y003897D02*
X003910Y003897D01*
X003910Y003779D02*
X004058Y003779D01*
X004040Y003660D02*
X003910Y003660D01*
X003910Y003542D02*
X004040Y003542D01*
X003910Y003423D02*
X004460Y003423D01*
X004460Y003365D02*
X004040Y003365D01*
X004040Y003084D01*
X004051Y003043D01*
X004072Y003007D01*
X004102Y002977D01*
X004138Y002956D01*
X004179Y002945D01*
X004460Y002945D01*
X004460Y003365D01*
X004460Y003305D02*
X004540Y003305D01*
X004540Y003186D02*
X004460Y003186D01*
X004460Y003068D02*
X004540Y003068D01*
X004540Y002949D02*
X004460Y002949D01*
X004164Y002949D02*
X003910Y002949D01*
X003910Y003068D02*
X004044Y003068D01*
X004040Y003186D02*
X003910Y003186D01*
X003910Y003305D02*
X004040Y003305D01*
X004460Y003542D02*
X004540Y003542D01*
X004540Y003660D02*
X004460Y003660D01*
X004460Y003779D02*
X004540Y003779D01*
X004296Y004016D02*
X003910Y004016D01*
X003910Y004134D02*
X004177Y004134D01*
X004080Y004253D02*
X003910Y004253D01*
X003910Y004371D02*
X004080Y004371D01*
X004080Y004490D02*
X003910Y004490D01*
X003910Y004608D02*
X004109Y004608D01*
X004772Y004727D02*
X005228Y004727D01*
X005109Y004608D02*
X004891Y004608D01*
X004920Y004490D02*
X005080Y004490D01*
X005080Y004371D02*
X004920Y004371D01*
X004920Y004253D02*
X005080Y004253D01*
X005011Y004134D02*
X005177Y004134D01*
X005704Y004016D02*
X007261Y004016D01*
X007261Y004134D02*
X005823Y004134D01*
X005720Y003779D02*
X006362Y003779D01*
X006349Y003660D02*
X005839Y003660D01*
X005920Y003542D02*
X006208Y003542D01*
X006157Y003423D02*
X005920Y003423D01*
X005920Y003305D02*
X006148Y003305D01*
X006079Y003186D02*
X005875Y003186D01*
X005756Y003068D02*
X006069Y003068D01*
X006110Y002949D02*
X005170Y002949D01*
X005170Y003068D02*
X005244Y003068D01*
X005540Y002865D02*
X005540Y002445D01*
X005960Y002445D01*
X005960Y002726D01*
X005949Y002767D01*
X005928Y002803D01*
X005898Y002833D01*
X005862Y002854D01*
X005821Y002865D01*
X005540Y002865D01*
X005540Y002831D02*
X005460Y002831D01*
X005460Y002712D02*
X005540Y002712D01*
X005540Y002594D02*
X005460Y002594D01*
X005460Y002475D02*
X005540Y002475D01*
X005540Y002365D02*
X005960Y002365D01*
X005960Y002084D01*
X005949Y002043D01*
X005928Y002007D01*
X005898Y001977D01*
X005862Y001956D01*
X005821Y001945D01*
X005540Y001945D01*
X005540Y002365D01*
X005540Y002357D02*
X005460Y002357D01*
X005460Y002238D02*
X005540Y002238D01*
X005540Y002120D02*
X005460Y002120D01*
X005460Y002001D02*
X005540Y002001D01*
X005170Y001883D02*
X007237Y001883D01*
X007119Y001764D02*
X005170Y001764D01*
X005170Y001646D02*
X007000Y001646D01*
X006882Y001527D02*
X005170Y001527D01*
X005237Y001409D02*
X006763Y001409D01*
X007125Y001290D02*
X007291Y001290D01*
X007244Y001409D02*
X007763Y001409D01*
X007882Y001527D02*
X007362Y001527D01*
X007173Y001172D02*
X007007Y001172D01*
X007080Y001053D02*
X006920Y001053D01*
X006920Y000935D02*
X007080Y000935D01*
X007080Y000816D02*
X006920Y000816D01*
X006920Y000698D02*
X007114Y000698D01*
X007232Y000579D02*
X006920Y000579D01*
X006080Y000579D02*
X005768Y000579D01*
X005886Y000698D02*
X006080Y000698D01*
X006080Y000816D02*
X005920Y000816D01*
X005920Y000935D02*
X006080Y000935D01*
X006080Y001053D02*
X005920Y001053D01*
X005827Y001172D02*
X006080Y001172D01*
X006115Y001290D02*
X005709Y001290D01*
X005080Y001053D02*
X004920Y001053D01*
X004920Y001079D02*
X004674Y001325D01*
X004326Y001325D01*
X004080Y001079D01*
X004080Y000731D01*
X004326Y000485D01*
X004674Y000485D01*
X004920Y000731D01*
X004920Y001079D01*
X004993Y001172D02*
X004827Y001172D01*
X004875Y001290D02*
X004709Y001290D01*
X004830Y001409D02*
X003910Y001409D01*
X003910Y001527D02*
X004830Y001527D01*
X004830Y001646D02*
X003910Y001646D01*
X003910Y001764D02*
X004830Y001764D01*
X004830Y001883D02*
X003910Y001883D01*
X003910Y002001D02*
X004830Y002001D01*
X004830Y002120D02*
X003910Y002120D01*
X003910Y002238D02*
X004830Y002238D01*
X004830Y002357D02*
X003910Y002357D01*
X003910Y002475D02*
X004830Y002475D01*
X004830Y002594D02*
X003910Y002594D01*
X003910Y002712D02*
X004830Y002712D01*
X004830Y002831D02*
X003910Y002831D01*
X005901Y002831D02*
X006268Y002831D01*
X006447Y002831D02*
X009085Y002831D01*
X008967Y002712D02*
X005960Y002712D01*
X005960Y002594D02*
X008848Y002594D01*
X008730Y002475D02*
X005960Y002475D01*
X005960Y002357D02*
X008611Y002357D01*
X008493Y002238D02*
X005960Y002238D01*
X005960Y002120D02*
X008374Y002120D01*
X008256Y002001D02*
X005922Y002001D01*
X004291Y001290D02*
X003910Y001290D01*
X003910Y001172D02*
X004173Y001172D01*
X004080Y001053D02*
X003910Y001053D01*
X003910Y000935D02*
X004080Y000935D01*
X004080Y000816D02*
X003910Y000816D01*
X003910Y000698D02*
X004114Y000698D01*
X004232Y000579D02*
X003910Y000579D01*
X003910Y000461D02*
X022090Y000461D01*
X022090Y000579D02*
X021768Y000579D01*
X021886Y000698D02*
X022090Y000698D01*
X022090Y000816D02*
X021920Y000816D01*
X021920Y000935D02*
X022090Y000935D01*
X022090Y001053D02*
X021920Y001053D01*
X021827Y001172D02*
X022090Y001172D01*
X022090Y001290D02*
X021709Y001290D01*
X022090Y001409D02*
X021237Y001409D01*
X021118Y001527D02*
X022090Y001527D01*
X022090Y001646D02*
X021000Y001646D01*
X020881Y001764D02*
X022090Y001764D01*
X022090Y001883D02*
X020763Y001883D01*
X020644Y002001D02*
X022090Y002001D01*
X022090Y002120D02*
X020526Y002120D01*
X020401Y001764D02*
X019881Y001764D01*
X020000Y001646D02*
X020519Y001646D01*
X020638Y001527D02*
X020118Y001527D01*
X020237Y001409D02*
X020756Y001409D01*
X020709Y001290D02*
X020875Y001290D01*
X020827Y001172D02*
X020993Y001172D01*
X020920Y001053D02*
X021080Y001053D01*
X021080Y000935D02*
X020920Y000935D01*
X020920Y000816D02*
X021080Y000816D01*
X021114Y000698D02*
X020886Y000698D01*
X020768Y000579D02*
X021232Y000579D01*
X022090Y000342D02*
X003910Y000342D01*
X004768Y000579D02*
X005232Y000579D01*
X005114Y000698D02*
X004886Y000698D01*
X004920Y000816D02*
X005080Y000816D01*
X005080Y000935D02*
X004920Y000935D01*
X007768Y000579D02*
X008232Y000579D01*
X008114Y000698D02*
X007886Y000698D01*
X007920Y000816D02*
X008080Y000816D01*
X008080Y000935D02*
X007920Y000935D01*
X007920Y001053D02*
X008080Y001053D01*
X008007Y001172D02*
X008173Y001172D01*
X008125Y001290D02*
X008291Y001290D01*
X008330Y001409D02*
X008244Y001409D01*
X008709Y001290D02*
X009291Y001290D01*
X009330Y001409D02*
X008744Y001409D01*
X008862Y001527D02*
X009330Y001527D01*
X009330Y001646D02*
X008981Y001646D01*
X009099Y001764D02*
X009330Y001764D01*
X009330Y001883D02*
X009218Y001883D01*
X009670Y001883D02*
X011237Y001883D01*
X011356Y002001D02*
X009670Y002001D01*
X009755Y002120D02*
X011474Y002120D01*
X011522Y002238D02*
X009873Y002238D01*
X009992Y002357D02*
X011522Y002357D01*
X011522Y002475D02*
X010110Y002475D01*
X010229Y002594D02*
X011522Y002594D01*
X011522Y002712D02*
X010347Y002712D01*
X010466Y002831D02*
X011522Y002831D01*
X011522Y002949D02*
X010584Y002949D01*
X010703Y003068D02*
X011522Y003068D01*
X009559Y003305D02*
X006567Y003305D01*
X006636Y003186D02*
X009441Y003186D01*
X009322Y003068D02*
X006646Y003068D01*
X006605Y002949D02*
X009204Y002949D01*
X008712Y003542D02*
X008688Y003542D01*
X007950Y004016D02*
X007950Y004016D01*
X007223Y004253D02*
X006833Y004253D01*
X006833Y004371D02*
X007223Y004371D01*
X007223Y004490D02*
X006833Y004490D01*
X006790Y004608D02*
X007261Y004608D01*
X006376Y004608D02*
X005891Y004608D01*
X004111Y005201D02*
X003910Y005201D01*
X003910Y005319D02*
X004080Y005319D01*
X004080Y005438D02*
X003910Y005438D01*
X003910Y005556D02*
X004080Y005556D01*
X004176Y005675D02*
X003910Y005675D01*
X003910Y005793D02*
X004294Y005793D01*
X005837Y006149D02*
X005962Y006149D01*
X006596Y006149D02*
X006631Y006149D01*
X006631Y006267D02*
X006596Y006267D01*
X006596Y006386D02*
X006631Y006386D01*
X006631Y006504D02*
X006596Y006504D01*
X006596Y006623D02*
X006631Y006623D01*
X005962Y006623D02*
X005876Y006623D01*
X005096Y007215D02*
X003910Y007215D01*
X003910Y007334D02*
X005080Y007334D01*
X005080Y007452D02*
X003910Y007452D01*
X003910Y007571D02*
X005080Y007571D01*
X005190Y007689D02*
X003910Y007689D01*
X006883Y008519D02*
X007293Y008519D01*
X007174Y008637D02*
X006920Y008637D01*
X006920Y008756D02*
X007080Y008756D01*
X007080Y008874D02*
X006920Y008874D01*
X009008Y008637D02*
X009174Y008637D01*
X009127Y008519D02*
X009293Y008519D01*
X009245Y008400D02*
X009461Y008400D01*
X009461Y008282D02*
X009364Y008282D01*
X009400Y008163D02*
X009461Y008163D01*
X009461Y008045D02*
X009400Y008045D01*
X009801Y007926D02*
X010881Y007926D01*
X010881Y007808D02*
X009801Y007808D01*
X009801Y007689D02*
X010881Y007689D01*
X010881Y007571D02*
X009801Y007571D01*
X008913Y007926D02*
X008877Y007926D01*
X011221Y007926D02*
X011550Y007926D01*
X011550Y007808D02*
X011221Y007808D01*
X011221Y007689D02*
X011550Y007689D01*
X011524Y007571D02*
X011221Y007571D01*
X013610Y007097D02*
X013610Y007097D01*
X013610Y006978D02*
X013610Y006978D01*
X013610Y006860D02*
X013610Y006860D01*
X013610Y006741D02*
X013610Y006741D01*
X013610Y006623D02*
X013610Y006623D01*
X013753Y006623D02*
X015064Y006623D01*
X015069Y006741D02*
X016096Y006741D01*
X016214Y006860D02*
X015069Y006860D01*
X015069Y006978D02*
X016333Y006978D01*
X016451Y007097D02*
X015069Y007097D01*
X015069Y007215D02*
X016570Y007215D01*
X016688Y007334D02*
X015069Y007334D01*
X015069Y007452D02*
X016807Y007452D01*
X016925Y007571D02*
X015146Y007571D01*
X015265Y007689D02*
X017044Y007689D01*
X017162Y007808D02*
X015383Y007808D01*
X016117Y008282D02*
X016636Y008282D01*
X016998Y008163D02*
X017518Y008163D01*
X017636Y008282D02*
X017117Y008282D01*
X016880Y008045D02*
X017399Y008045D01*
X017281Y007926D02*
X016761Y007926D01*
X016826Y008637D02*
X016992Y008637D01*
X016920Y008756D02*
X017080Y008756D01*
X017080Y008874D02*
X016920Y008874D01*
X016920Y008993D02*
X017080Y008993D01*
X017112Y009111D02*
X016888Y009111D01*
X016769Y009230D02*
X017231Y009230D01*
X015045Y006504D02*
X014409Y006504D01*
X014479Y006386D02*
X015045Y006386D01*
X015045Y006267D02*
X014488Y006267D01*
X014447Y006149D02*
X015045Y006149D01*
X015047Y006030D02*
X014290Y006030D01*
X014110Y006030D02*
X014060Y006030D01*
X014088Y005912D02*
X015045Y005912D01*
X015045Y005793D02*
X014066Y005793D01*
X013977Y005675D02*
X015061Y005675D01*
X015045Y005556D02*
X012865Y005556D01*
X012865Y005438D02*
X015045Y005438D01*
X014531Y005319D02*
X012797Y005319D01*
X012678Y005201D02*
X014413Y005201D01*
X014294Y005082D02*
X012560Y005082D01*
X012509Y004964D02*
X014176Y004964D01*
X014057Y004845D02*
X012618Y004845D01*
X012727Y004727D02*
X013939Y004727D01*
X013820Y004608D02*
X012835Y004608D01*
X012944Y004490D02*
X013702Y004490D01*
X013583Y004371D02*
X013052Y004371D01*
X013161Y004253D02*
X013465Y004253D01*
X013346Y004134D02*
X013270Y004134D01*
X014504Y004727D02*
X015035Y004727D01*
X015005Y004845D02*
X014623Y004845D01*
X014741Y004964D02*
X015005Y004964D01*
X013623Y005675D02*
X012865Y005675D01*
X012865Y005793D02*
X013329Y005793D01*
X013211Y005912D02*
X012865Y005912D01*
X012865Y006030D02*
X013092Y006030D01*
X012974Y006149D02*
X012865Y006149D01*
X017322Y003423D02*
X019383Y003423D01*
X019502Y003305D02*
X017441Y003305D01*
X017559Y003186D02*
X022090Y003186D01*
X022090Y003068D02*
X017678Y003068D01*
X017796Y002949D02*
X022090Y002949D01*
X022090Y002831D02*
X017915Y002831D01*
X018033Y002712D02*
X022090Y002712D01*
X022090Y002594D02*
X018152Y002594D01*
X018270Y002475D02*
X022090Y002475D01*
X022090Y002357D02*
X018389Y002357D01*
X018507Y002238D02*
X022090Y002238D01*
X019875Y001290D02*
X019709Y001290D01*
X019756Y001409D02*
X019237Y001409D01*
X019118Y001527D02*
X019638Y001527D01*
X018875Y001290D02*
X018709Y001290D01*
X018756Y001409D02*
X018437Y001409D01*
X018075Y001290D02*
X017709Y001290D01*
X017670Y001409D02*
X017956Y001409D01*
X017838Y001527D02*
X017670Y001527D01*
X017670Y001646D02*
X017719Y001646D01*
X017827Y001172D02*
X018173Y001172D01*
X018080Y001053D02*
X017920Y001053D01*
X017920Y000935D02*
X018080Y000935D01*
X018080Y000816D02*
X017920Y000816D01*
X017886Y000698D02*
X018114Y000698D01*
X018232Y000579D02*
X017768Y000579D01*
X018768Y000579D02*
X019232Y000579D01*
X019114Y000698D02*
X018886Y000698D01*
X018920Y000816D02*
X019080Y000816D01*
X019080Y000935D02*
X018920Y000935D01*
X018920Y001053D02*
X019080Y001053D01*
X018993Y001172D02*
X018827Y001172D01*
X019827Y001172D02*
X019993Y001172D01*
X019920Y001053D02*
X020080Y001053D01*
X020080Y000935D02*
X019920Y000935D01*
X019920Y000816D02*
X020080Y000816D01*
X020114Y000698D02*
X019886Y000698D01*
X019768Y000579D02*
X020232Y000579D01*
X013232Y000579D02*
X012768Y000579D01*
X012886Y000698D02*
X013114Y000698D01*
X013080Y000816D02*
X012920Y000816D01*
X012920Y000935D02*
X013080Y000935D01*
X012232Y000579D02*
X011768Y000579D01*
X011886Y000698D02*
X012114Y000698D01*
X012080Y000816D02*
X011920Y000816D01*
X011920Y000935D02*
X012080Y000935D01*
X012080Y001053D02*
X011920Y001053D01*
X012007Y001172D02*
X012173Y001172D01*
X012180Y001290D02*
X012125Y001290D01*
X011865Y001527D02*
X011362Y001527D01*
X011244Y001409D02*
X011763Y001409D01*
X011865Y001646D02*
X011481Y001646D01*
X011599Y001764D02*
X011865Y001764D01*
X011865Y001883D02*
X011718Y001883D01*
X011836Y002001D02*
X011865Y002001D01*
X011119Y001764D02*
X009670Y001764D01*
X009670Y001646D02*
X011000Y001646D01*
X010882Y001527D02*
X009670Y001527D01*
X009670Y001409D02*
X010763Y001409D01*
X011125Y001290D02*
X011291Y001290D01*
X011173Y001172D02*
X011007Y001172D01*
X011080Y001053D02*
X010920Y001053D01*
X010920Y000935D02*
X011080Y000935D01*
X011080Y000816D02*
X010920Y000816D01*
X010886Y000698D02*
X011114Y000698D01*
X011232Y000579D02*
X010768Y000579D01*
X010232Y000579D02*
X009768Y000579D01*
X009886Y000698D02*
X010114Y000698D01*
X010080Y000816D02*
X009920Y000816D01*
X009920Y000935D02*
X010080Y000935D01*
X010080Y001053D02*
X009920Y001053D01*
X009827Y001172D02*
X010173Y001172D01*
X010291Y001290D02*
X009709Y001290D01*
X009173Y001172D02*
X008827Y001172D01*
X008920Y001053D02*
X009080Y001053D01*
X009080Y000935D02*
X008920Y000935D01*
X008920Y000816D02*
X009080Y000816D01*
X009114Y000698D02*
X008886Y000698D01*
X008768Y000579D02*
X009232Y000579D01*
X019742Y004016D02*
X019858Y004016D01*
X021553Y004016D02*
X021673Y004016D01*
X021673Y003897D02*
X021553Y003897D01*
X021553Y003779D02*
X021673Y003779D01*
X021982Y003779D02*
X022090Y003779D01*
X022090Y003897D02*
X022068Y003897D01*
X022069Y004016D02*
X022090Y004016D01*
X022090Y004134D02*
X022069Y004134D01*
X021673Y004134D02*
X021553Y004134D01*
M02*
