G75*
G70*
%OFA0B0*%
%FSLAX24Y24*%
%IPPOS*%
%LPD*%
%AMOC8*
5,1,8,0,0,1.08239X$1,22.5*
%
%ADD10C,0.0080*%
%ADD11R,0.0128X0.0167*%
%ADD12R,0.0138X0.0138*%
D10*
X001951Y001154D02*
X002778Y001154D01*
X003762Y001430D02*
X003762Y001784D01*
X005122Y001910D02*
X005192Y001840D01*
X005332Y001840D01*
X005402Y001910D01*
X005402Y002050D01*
X005262Y002050D01*
X005122Y002190D02*
X005122Y001910D01*
X005122Y002190D02*
X005192Y002260D01*
X005332Y002260D01*
X005402Y002190D01*
X005582Y002260D02*
X005862Y001840D01*
X005862Y002260D01*
X006042Y002260D02*
X006253Y002260D01*
X006323Y002190D01*
X006323Y001910D01*
X006253Y001840D01*
X006042Y001840D01*
X006042Y002260D01*
X005582Y002260D02*
X005582Y001840D01*
X006124Y001460D02*
X006404Y001460D01*
X006404Y001390D01*
X006124Y001110D01*
X006124Y001040D01*
X006404Y001040D01*
X006584Y001110D02*
X006654Y001040D01*
X006794Y001040D01*
X006584Y001110D02*
X006584Y001250D01*
X006654Y001320D01*
X006794Y001320D01*
X006864Y001250D01*
X006864Y001180D01*
X006584Y001180D01*
X007044Y001180D02*
X007325Y001180D01*
X007325Y001250D01*
X007255Y001320D01*
X007114Y001320D01*
X007044Y001250D01*
X007044Y001110D01*
X007114Y001040D01*
X007255Y001040D01*
X006799Y000860D02*
X006799Y000540D01*
X006660Y000540D02*
X006607Y000593D01*
X006607Y000807D01*
X006660Y000754D02*
X006553Y000754D01*
X006399Y000700D02*
X006185Y000700D01*
X006046Y000754D02*
X005939Y000754D01*
X005993Y000807D02*
X005993Y000593D01*
X006046Y000540D01*
X005785Y000593D02*
X005785Y000700D01*
X005731Y000754D01*
X005625Y000754D01*
X005571Y000700D01*
X005571Y000593D01*
X005625Y000540D01*
X005731Y000540D01*
X005785Y000593D01*
X005416Y000593D02*
X005363Y000540D01*
X005203Y000540D01*
X005203Y000860D01*
X005203Y000754D02*
X005363Y000754D01*
X005416Y000700D01*
X005416Y000593D01*
X005413Y001040D02*
X005273Y001040D01*
X005203Y001110D01*
X005203Y001250D01*
X005273Y001320D01*
X005413Y001320D01*
X005483Y001250D01*
X005483Y001180D01*
X005203Y001180D01*
X005663Y001180D02*
X005943Y001180D01*
X005943Y001250D01*
X005873Y001320D01*
X005733Y001320D01*
X005663Y001250D01*
X005663Y001110D01*
X005733Y001040D01*
X005873Y001040D01*
X006799Y000700D02*
X006852Y000754D01*
X006959Y000754D01*
X007012Y000700D01*
X007012Y000540D01*
X007167Y000593D02*
X007221Y000540D01*
X007327Y000540D01*
X007381Y000593D01*
X007381Y000700D01*
X007327Y000754D01*
X007221Y000754D01*
X007167Y000700D01*
X007167Y000593D01*
X007535Y000593D02*
X007589Y000540D01*
X007749Y000540D01*
X007749Y000754D01*
X007904Y000700D02*
X007904Y000593D01*
X007957Y000540D01*
X008117Y000540D01*
X008117Y000487D02*
X008117Y000754D01*
X007957Y000754D01*
X007904Y000700D01*
X008272Y000700D02*
X008325Y000754D01*
X008432Y000754D01*
X008486Y000700D01*
X008486Y000540D01*
X008272Y000540D02*
X008272Y000860D01*
X008496Y001040D02*
X008426Y001110D01*
X008426Y001250D01*
X008496Y001320D01*
X008636Y001320D01*
X008706Y001250D01*
X008706Y001110D01*
X008636Y001040D01*
X008496Y001040D01*
X008245Y001250D02*
X008175Y001180D01*
X007965Y001180D01*
X007965Y001040D02*
X007965Y001460D01*
X008175Y001460D01*
X008245Y001390D01*
X008245Y001250D01*
X008886Y001320D02*
X008886Y001110D01*
X008956Y001040D01*
X009026Y001110D01*
X009096Y001040D01*
X009166Y001110D01*
X009166Y001320D01*
X009346Y001250D02*
X009416Y001320D01*
X009557Y001320D01*
X009627Y001250D01*
X009627Y001180D01*
X009346Y001180D01*
X009346Y001110D02*
X009346Y001250D01*
X009346Y001110D02*
X009416Y001040D01*
X009557Y001040D01*
X009807Y001040D02*
X009807Y001320D01*
X009807Y001180D02*
X009947Y001320D01*
X010017Y001320D01*
X009813Y001650D02*
X009563Y001900D01*
X009563Y002400D01*
X009813Y002650D01*
X009563Y002900D01*
X009563Y003400D01*
X009813Y003650D01*
X010313Y003650D01*
X010563Y003400D01*
X010563Y002900D01*
X010313Y002650D01*
X010563Y002400D01*
X010563Y001900D01*
X010313Y001650D01*
X009813Y001650D01*
X008694Y000807D02*
X008694Y000593D01*
X008747Y000540D01*
X008886Y000540D02*
X009046Y000540D01*
X009099Y000593D01*
X009046Y000647D01*
X008939Y000647D01*
X008886Y000700D01*
X008939Y000754D01*
X009099Y000754D01*
X009254Y000593D02*
X009308Y000593D01*
X009308Y000540D01*
X009254Y000540D01*
X009254Y000593D01*
X009438Y000593D02*
X009438Y000700D01*
X009492Y000754D01*
X009652Y000754D01*
X009807Y000700D02*
X009807Y000593D01*
X009860Y000540D01*
X009967Y000540D01*
X010020Y000593D01*
X010020Y000700D01*
X009967Y000754D01*
X009860Y000754D01*
X009807Y000700D01*
X009652Y000540D02*
X009492Y000540D01*
X009438Y000593D01*
X008747Y000754D02*
X008640Y000754D01*
X008117Y000487D02*
X008064Y000433D01*
X008011Y000433D01*
X007535Y000593D02*
X007535Y000754D01*
X007313Y001650D02*
X006813Y001650D01*
X006563Y001900D01*
X006563Y002400D01*
X006813Y002650D01*
X006563Y002900D01*
X006563Y003400D01*
X006813Y003650D01*
X007313Y003650D01*
X007563Y003400D01*
X007563Y002900D01*
X007313Y002650D01*
X007563Y002400D01*
X007563Y001900D01*
X007313Y001650D01*
X007313Y002650D02*
X006813Y002650D01*
X006323Y002910D02*
X006253Y002840D01*
X006112Y002840D01*
X006042Y002910D01*
X006042Y003190D01*
X006112Y003260D01*
X006253Y003260D01*
X006323Y003190D01*
X005862Y003190D02*
X005792Y003260D01*
X005652Y003260D01*
X005582Y003190D01*
X005582Y002910D01*
X005652Y002840D01*
X005792Y002840D01*
X005862Y002910D01*
X005402Y002980D02*
X005402Y003260D01*
X005122Y003260D02*
X005122Y002980D01*
X005262Y002840D01*
X005402Y002980D01*
X003762Y003516D02*
X003762Y003870D01*
X004153Y004140D02*
X004366Y004140D01*
X004473Y004247D01*
X004366Y004354D01*
X004153Y004354D01*
X004153Y004508D02*
X004419Y004508D01*
X004473Y004562D01*
X004473Y004668D01*
X004419Y004722D01*
X004153Y004722D01*
X004663Y004650D02*
X004913Y004900D01*
X005413Y004900D01*
X005663Y004650D01*
X005913Y004900D01*
X006413Y004900D01*
X006663Y004650D01*
X006913Y004900D01*
X007413Y004900D01*
X007663Y004650D01*
X007663Y004150D01*
X007413Y003900D01*
X006913Y003900D01*
X006663Y004150D01*
X006413Y003900D01*
X005913Y003900D01*
X005663Y004150D01*
X005413Y003900D01*
X004913Y003900D01*
X004663Y004150D01*
X004663Y004650D01*
X005663Y004650D02*
X005663Y004150D01*
X006663Y004150D02*
X006663Y004650D01*
X007853Y004725D02*
X007853Y004832D01*
X007906Y004885D01*
X007959Y004885D01*
X008013Y004832D01*
X008066Y004885D01*
X008119Y004885D01*
X008173Y004832D01*
X008173Y004725D01*
X008119Y004672D01*
X008013Y004778D02*
X008013Y004832D01*
X007906Y004672D02*
X007853Y004725D01*
X007853Y004517D02*
X008066Y004517D01*
X008173Y004410D01*
X008066Y004303D01*
X007853Y004303D01*
X007906Y004149D02*
X007959Y004149D01*
X008013Y004095D01*
X008066Y004149D01*
X008119Y004149D01*
X008173Y004095D01*
X008173Y003988D01*
X008119Y003935D01*
X008013Y004042D02*
X008013Y004095D01*
X007906Y004149D02*
X007853Y004095D01*
X007853Y003988D01*
X007906Y003935D01*
X008803Y004240D02*
X008803Y004660D01*
X009013Y004660D01*
X009083Y004590D01*
X009083Y004450D01*
X009013Y004380D01*
X008803Y004380D01*
X008943Y004380D02*
X009083Y004240D01*
X009263Y004310D02*
X009543Y004590D01*
X009543Y004310D01*
X009473Y004240D01*
X009333Y004240D01*
X009263Y004310D01*
X009263Y004590D01*
X009333Y004660D01*
X009473Y004660D01*
X009543Y004590D01*
X009954Y004450D02*
X010234Y004450D01*
X010164Y004660D02*
X009954Y004450D01*
X009794Y004310D02*
X009794Y004240D01*
X009724Y004240D01*
X009724Y004310D01*
X009794Y004310D01*
X010164Y004240D02*
X010164Y004660D01*
X010313Y002650D02*
X009813Y002650D01*
X010175Y000754D02*
X010228Y000754D01*
X010282Y000700D01*
X010335Y000754D01*
X010389Y000700D01*
X010389Y000540D01*
X010282Y000540D02*
X010282Y000700D01*
X010175Y000754D02*
X010175Y000540D01*
X002778Y004146D02*
X001951Y004146D01*
D11*
X004292Y002429D03*
X004834Y002429D03*
D12*
X004563Y002581D03*
M02*
