G75*
G70*
%OFA0B0*%
%FSLAX24Y24*%
%IPPOS*%
%LPD*%
%AMOC8*
5,1,8,0,0,1.08239X$1,22.5*
%
%ADD10OC8,0.0600*%
%ADD11R,0.0394X0.0433*%
%ADD12R,0.0709X0.0630*%
%ADD13R,0.0880X0.0480*%
%ADD14R,0.0866X0.1417*%
%ADD15C,0.0320*%
%ADD16C,0.0100*%
%ADD17C,0.0270*%
D10*
X004763Y001705D03*
X004763Y002705D03*
X004763Y003705D03*
X007063Y003205D03*
X007063Y002205D03*
X010063Y002205D03*
X010063Y003205D03*
D11*
X005963Y002490D03*
X005963Y001820D03*
D12*
X005963Y003204D03*
X005963Y004306D03*
D13*
X003833Y003615D03*
X003833Y002705D03*
X003833Y001795D03*
D14*
X001393Y002705D03*
D15*
X003833Y001795D02*
X004673Y001795D01*
X004763Y001705D01*
X005963Y002490D02*
X005963Y003204D01*
X005264Y003204D01*
X004763Y003705D01*
X004673Y003615D01*
X003833Y003615D01*
D16*
X000713Y005055D02*
X000713Y000355D01*
X010163Y000355D01*
X010251Y000364D01*
X010413Y000431D01*
X010537Y000555D01*
X010604Y000717D01*
X010613Y000805D01*
X010613Y004605D01*
X010604Y004693D01*
X010537Y004855D01*
X010413Y004979D01*
X010251Y005046D01*
X010163Y005055D01*
X000713Y005055D01*
X000713Y005032D02*
X010286Y005032D01*
X010459Y004933D02*
X000713Y004933D01*
X000713Y004835D02*
X010545Y004835D01*
X010586Y004736D02*
X006414Y004736D01*
X006409Y004741D02*
X006375Y004761D01*
X006337Y004771D01*
X006013Y004771D01*
X006013Y004356D01*
X006467Y004356D01*
X006467Y004641D01*
X006457Y004679D01*
X006437Y004713D01*
X006409Y004741D01*
X006467Y004638D02*
X010610Y004638D01*
X010613Y004539D02*
X006467Y004539D01*
X006467Y004441D02*
X010613Y004441D01*
X010613Y004342D02*
X006013Y004342D01*
X006013Y004356D02*
X006013Y004256D01*
X006467Y004256D01*
X006467Y003971D01*
X006457Y003933D01*
X006437Y003899D01*
X006409Y003871D01*
X006375Y003851D01*
X006337Y003841D01*
X006013Y003841D01*
X006013Y004256D01*
X005913Y004256D01*
X005913Y003841D01*
X005589Y003841D01*
X005551Y003851D01*
X005516Y003871D01*
X005488Y003899D01*
X005469Y003933D01*
X005459Y003971D01*
X005459Y004256D01*
X005913Y004256D01*
X005913Y004356D01*
X005459Y004356D01*
X005459Y004641D01*
X005469Y004679D01*
X005488Y004713D01*
X005516Y004741D01*
X005551Y004761D01*
X005589Y004771D01*
X005913Y004771D01*
X005913Y004356D01*
X006013Y004356D01*
X005913Y004342D02*
X000713Y004342D01*
X000713Y004244D02*
X005459Y004244D01*
X005459Y004145D02*
X004959Y004145D01*
X004949Y004155D02*
X004576Y004155D01*
X004381Y003959D01*
X004335Y004005D01*
X003331Y004005D01*
X003243Y003917D01*
X003243Y003313D01*
X003331Y003225D01*
X004335Y003225D01*
X004415Y003305D01*
X004526Y003305D01*
X004576Y003255D01*
X004774Y003255D01*
X004874Y003155D01*
X004576Y003155D01*
X004415Y002994D01*
X004413Y003003D01*
X004393Y003037D01*
X004365Y003065D01*
X004331Y003085D01*
X004293Y003095D01*
X003883Y003095D01*
X003883Y002755D01*
X003783Y002755D01*
X003783Y003095D01*
X003373Y003095D01*
X003335Y003085D01*
X003301Y003065D01*
X003273Y003037D01*
X003253Y003003D01*
X003243Y002965D01*
X003243Y002755D01*
X003783Y002755D01*
X003783Y002655D01*
X003883Y002655D01*
X003883Y002315D01*
X004293Y002315D01*
X004331Y002325D01*
X004365Y002345D01*
X004393Y002373D01*
X004413Y002407D01*
X004415Y002416D01*
X004576Y002255D01*
X004949Y002255D01*
X005213Y002519D01*
X005213Y002891D01*
X005210Y002894D01*
X005459Y002894D01*
X005459Y002827D01*
X005546Y002739D01*
X005616Y002739D01*
X005616Y002211D01*
X005672Y002155D01*
X005646Y002129D01*
X005626Y002095D01*
X005616Y002057D01*
X005616Y001869D01*
X005914Y001869D01*
X005914Y001772D01*
X005616Y001772D01*
X005616Y001584D01*
X005213Y001584D01*
X005213Y001519D02*
X004949Y001255D01*
X004576Y001255D01*
X004381Y001451D01*
X004335Y001405D01*
X003331Y001405D01*
X003243Y001493D01*
X003243Y002097D01*
X003331Y002185D01*
X004335Y002185D01*
X004415Y002105D01*
X004526Y002105D01*
X004576Y002155D01*
X004949Y002155D01*
X005213Y001891D01*
X005213Y001519D01*
X005180Y001486D02*
X005672Y001486D01*
X005674Y001484D02*
X005708Y001464D01*
X005746Y001454D01*
X005914Y001454D01*
X005914Y001772D01*
X006011Y001772D01*
X006011Y001454D01*
X006179Y001454D01*
X006218Y001464D01*
X006252Y001484D01*
X006280Y001512D01*
X006299Y001546D01*
X006310Y001584D01*
X006310Y001772D01*
X006011Y001772D01*
X006011Y001869D01*
X006310Y001869D01*
X006310Y002057D01*
X006299Y002095D01*
X006280Y002129D01*
X006254Y002155D01*
X006310Y002211D01*
X006310Y002739D01*
X006379Y002739D01*
X006467Y002827D01*
X006467Y003581D01*
X006379Y003669D01*
X005546Y003669D01*
X005459Y003581D01*
X005459Y003514D01*
X005392Y003514D01*
X005213Y003693D01*
X005213Y003891D01*
X004949Y004155D01*
X005058Y004047D02*
X005459Y004047D01*
X005465Y003948D02*
X005156Y003948D01*
X005213Y003850D02*
X005558Y003850D01*
X005213Y003751D02*
X010613Y003751D01*
X010613Y003653D02*
X010252Y003653D01*
X010249Y003655D02*
X009876Y003655D01*
X009613Y003391D01*
X009613Y003019D01*
X009876Y002755D01*
X010249Y002755D01*
X010513Y003019D01*
X010513Y003391D01*
X010249Y003655D01*
X010350Y003554D02*
X010613Y003554D01*
X010613Y003456D02*
X010449Y003456D01*
X010513Y003357D02*
X010613Y003357D01*
X010613Y003259D02*
X010513Y003259D01*
X010513Y003160D02*
X010613Y003160D01*
X010613Y003062D02*
X010513Y003062D01*
X010457Y002963D02*
X010613Y002963D01*
X010613Y002865D02*
X010359Y002865D01*
X010260Y002766D02*
X010613Y002766D01*
X010613Y002668D02*
X006310Y002668D01*
X006310Y002569D02*
X006790Y002569D01*
X006876Y002655D02*
X006613Y002391D01*
X006613Y002255D01*
X007013Y002255D01*
X007013Y002655D01*
X006876Y002655D01*
X006876Y002755D02*
X007249Y002755D01*
X007513Y003019D01*
X007513Y003391D01*
X007249Y003655D01*
X006876Y003655D01*
X006613Y003391D01*
X006613Y003019D01*
X006876Y002755D01*
X006865Y002766D02*
X006406Y002766D01*
X006467Y002865D02*
X006767Y002865D01*
X006668Y002963D02*
X006467Y002963D01*
X006467Y003062D02*
X006613Y003062D01*
X006613Y003160D02*
X006467Y003160D01*
X006467Y003259D02*
X006613Y003259D01*
X006613Y003357D02*
X006467Y003357D01*
X006467Y003456D02*
X006677Y003456D01*
X006775Y003554D02*
X006467Y003554D01*
X006396Y003653D02*
X006874Y003653D01*
X007252Y003653D02*
X009874Y003653D01*
X009775Y003554D02*
X007350Y003554D01*
X007449Y003456D02*
X009677Y003456D01*
X009613Y003357D02*
X007513Y003357D01*
X007513Y003259D02*
X009613Y003259D01*
X009613Y003160D02*
X007513Y003160D01*
X007513Y003062D02*
X009613Y003062D01*
X009668Y002963D02*
X007457Y002963D01*
X007359Y002865D02*
X009767Y002865D01*
X009865Y002766D02*
X007260Y002766D01*
X007249Y002655D02*
X007113Y002655D01*
X007113Y002255D01*
X007513Y002255D01*
X007513Y002391D01*
X007249Y002655D01*
X007335Y002569D02*
X009790Y002569D01*
X009876Y002655D02*
X009613Y002391D01*
X009613Y002255D01*
X010013Y002255D01*
X010013Y002655D01*
X009876Y002655D01*
X010013Y002569D02*
X010113Y002569D01*
X010113Y002655D02*
X010113Y002255D01*
X010513Y002255D01*
X010513Y002391D01*
X010249Y002655D01*
X010113Y002655D01*
X010335Y002569D02*
X010613Y002569D01*
X010613Y002471D02*
X010434Y002471D01*
X010513Y002372D02*
X010613Y002372D01*
X010613Y002274D02*
X010513Y002274D01*
X010613Y002175D02*
X010113Y002175D01*
X010113Y002155D02*
X010113Y002255D01*
X010013Y002255D01*
X010013Y002155D01*
X010113Y002155D01*
X010513Y002155D01*
X010513Y002019D01*
X010249Y001755D01*
X010113Y001755D01*
X010113Y002155D01*
X010113Y002077D02*
X010013Y002077D01*
X010013Y002155D02*
X010013Y001755D01*
X009876Y001755D01*
X009613Y002019D01*
X009613Y002155D01*
X010013Y002155D01*
X010013Y002175D02*
X007113Y002175D01*
X007113Y002155D02*
X007113Y002255D01*
X007013Y002255D01*
X007013Y002155D01*
X007113Y002155D01*
X007513Y002155D01*
X007513Y002019D01*
X007249Y001755D01*
X007113Y001755D01*
X007113Y002155D01*
X007113Y002077D02*
X007013Y002077D01*
X007013Y002155D02*
X007013Y001755D01*
X006876Y001755D01*
X006613Y002019D01*
X006613Y002155D01*
X007013Y002155D01*
X007013Y002175D02*
X006274Y002175D01*
X006304Y002077D02*
X006613Y002077D01*
X006653Y001978D02*
X006310Y001978D01*
X006310Y001880D02*
X006752Y001880D01*
X006850Y001781D02*
X006011Y001781D01*
X005914Y001781D02*
X005213Y001781D01*
X005213Y001683D02*
X005616Y001683D01*
X005616Y001584D02*
X005626Y001546D01*
X005646Y001512D01*
X005674Y001484D01*
X005914Y001486D02*
X006011Y001486D01*
X006011Y001584D02*
X005914Y001584D01*
X005914Y001683D02*
X006011Y001683D01*
X006310Y001683D02*
X010613Y001683D01*
X010613Y001781D02*
X010275Y001781D01*
X010374Y001880D02*
X010613Y001880D01*
X010613Y001978D02*
X010472Y001978D01*
X010513Y002077D02*
X010613Y002077D01*
X010113Y001978D02*
X010013Y001978D01*
X010013Y001880D02*
X010113Y001880D01*
X010113Y001781D02*
X010013Y001781D01*
X009850Y001781D02*
X007275Y001781D01*
X007113Y001781D02*
X007013Y001781D01*
X007013Y001880D02*
X007113Y001880D01*
X007113Y001978D02*
X007013Y001978D01*
X007374Y001880D02*
X009752Y001880D01*
X009653Y001978D02*
X007472Y001978D01*
X007513Y002077D02*
X009613Y002077D01*
X009613Y002274D02*
X007513Y002274D01*
X007513Y002372D02*
X009613Y002372D01*
X009692Y002471D02*
X007434Y002471D01*
X007113Y002471D02*
X007013Y002471D01*
X007013Y002569D02*
X007113Y002569D01*
X007113Y002372D02*
X007013Y002372D01*
X007013Y002274D02*
X007113Y002274D01*
X006692Y002471D02*
X006310Y002471D01*
X006310Y002372D02*
X006613Y002372D01*
X006613Y002274D02*
X006310Y002274D01*
X005652Y002175D02*
X004345Y002175D01*
X004558Y002274D02*
X001976Y002274D01*
X002013Y002274D02*
X000713Y002274D01*
X000810Y002274D01*
X000810Y002372D02*
X000713Y002372D01*
X002013Y002372D01*
X001976Y002372D02*
X003274Y002372D01*
X003273Y002373D02*
X003301Y002345D01*
X003335Y002325D01*
X003373Y002315D01*
X003783Y002315D01*
X003783Y002655D01*
X003243Y002655D01*
X003243Y002445D01*
X003253Y002407D01*
X003273Y002373D01*
X003243Y002471D02*
X001976Y002471D01*
X002013Y002471D02*
X000713Y002471D01*
X000810Y002471D01*
X000810Y002569D02*
X000713Y002569D01*
X002013Y002569D01*
X001976Y002569D02*
X003243Y002569D01*
X003243Y002766D02*
X001976Y002766D01*
X001976Y002755D02*
X001976Y003433D01*
X001966Y003472D01*
X001946Y003506D01*
X001918Y003534D01*
X001884Y003553D01*
X001846Y003564D01*
X001443Y003564D01*
X001443Y002755D01*
X001976Y002755D01*
X002013Y002766D02*
X000713Y002766D01*
X000810Y002766D01*
X000810Y002755D02*
X001343Y002755D01*
X001343Y003564D01*
X000940Y003564D01*
X000902Y003553D01*
X000868Y003534D01*
X000840Y003506D01*
X000820Y003472D01*
X000810Y003433D01*
X000810Y002755D01*
X000810Y002655D02*
X000810Y001977D01*
X000820Y001938D01*
X000840Y001904D01*
X000868Y001876D01*
X000902Y001857D01*
X000940Y001846D01*
X001343Y001846D01*
X001343Y002655D01*
X001443Y002655D01*
X001443Y002755D01*
X001343Y002755D01*
X001343Y002655D01*
X000810Y002655D01*
X000713Y002668D02*
X002013Y002668D01*
X001976Y002655D02*
X001976Y001977D01*
X001966Y001938D01*
X001946Y001904D01*
X001918Y001876D01*
X001884Y001857D01*
X001846Y001846D01*
X001443Y001846D01*
X001443Y002655D01*
X001976Y002655D01*
X001976Y002865D02*
X003243Y002865D01*
X003243Y002963D02*
X001976Y002963D01*
X002013Y002963D02*
X000713Y002963D01*
X000810Y002963D01*
X000810Y002865D02*
X000713Y002865D01*
X002013Y002865D01*
X002013Y003062D02*
X000713Y003062D01*
X000810Y003062D01*
X000810Y003160D02*
X000713Y003160D01*
X002013Y003160D01*
X001976Y003160D02*
X004869Y003160D01*
X004573Y003259D02*
X004368Y003259D01*
X004368Y003062D02*
X004483Y003062D01*
X003883Y003062D02*
X003783Y003062D01*
X003783Y002963D02*
X003883Y002963D01*
X003883Y002865D02*
X003783Y002865D01*
X003783Y002766D02*
X003883Y002766D01*
X003783Y002668D02*
X001443Y002668D01*
X001343Y002668D02*
X000713Y002668D01*
X001343Y002766D02*
X001443Y002766D01*
X001443Y002865D02*
X001343Y002865D01*
X001343Y002963D02*
X001443Y002963D01*
X001443Y003062D02*
X001343Y003062D01*
X001343Y003160D02*
X001443Y003160D01*
X001443Y003259D02*
X001343Y003259D01*
X001343Y003357D02*
X001443Y003357D01*
X001443Y003456D02*
X001343Y003456D01*
X001343Y003554D02*
X001443Y003554D01*
X001882Y003554D02*
X002136Y003554D01*
X002136Y003506D02*
X002185Y003386D01*
X002278Y003294D01*
X002398Y003244D01*
X002528Y003244D01*
X002648Y003294D01*
X002740Y003386D01*
X002790Y003506D01*
X002790Y003636D01*
X002740Y003756D01*
X002648Y003848D01*
X002528Y003898D01*
X002398Y003898D01*
X002278Y003848D01*
X002185Y003756D01*
X002136Y003636D01*
X002136Y003506D01*
X002157Y003456D02*
X001970Y003456D01*
X002013Y003456D02*
X000713Y003456D01*
X000816Y003456D01*
X000810Y003357D02*
X000713Y003357D01*
X002013Y003357D01*
X001976Y003357D02*
X002214Y003357D01*
X002363Y003259D02*
X001976Y003259D01*
X002013Y003259D02*
X000713Y003259D01*
X000810Y003259D01*
X000904Y003554D02*
X000713Y003554D01*
X002013Y003554D01*
X002013Y003605D02*
X000713Y003605D01*
X000713Y001755D01*
X002013Y001755D01*
X002013Y003605D01*
X002142Y003653D02*
X000713Y003653D01*
X000713Y003751D02*
X002183Y003751D01*
X002280Y003850D02*
X000713Y003850D01*
X000713Y003948D02*
X003274Y003948D01*
X003243Y003850D02*
X002646Y003850D01*
X002742Y003751D02*
X003243Y003751D01*
X003243Y003653D02*
X002783Y003653D01*
X002790Y003554D02*
X003243Y003554D01*
X003243Y003456D02*
X002769Y003456D01*
X002711Y003357D02*
X003243Y003357D01*
X003297Y003259D02*
X002563Y003259D01*
X001976Y003062D02*
X003297Y003062D01*
X003783Y002569D02*
X003883Y002569D01*
X003883Y002471D02*
X003783Y002471D01*
X003783Y002372D02*
X003883Y002372D01*
X004392Y002372D02*
X004459Y002372D01*
X004968Y002274D02*
X005616Y002274D01*
X005616Y002372D02*
X005066Y002372D01*
X005165Y002471D02*
X005616Y002471D01*
X005616Y002569D02*
X005213Y002569D01*
X005213Y002668D02*
X005616Y002668D01*
X005519Y002766D02*
X005213Y002766D01*
X005213Y002865D02*
X005459Y002865D01*
X005459Y003554D02*
X005352Y003554D01*
X005254Y003653D02*
X005530Y003653D01*
X005913Y003850D02*
X006013Y003850D01*
X006013Y003948D02*
X005913Y003948D01*
X005913Y004047D02*
X006013Y004047D01*
X006013Y004145D02*
X005913Y004145D01*
X005913Y004244D02*
X006013Y004244D01*
X006013Y004441D02*
X005913Y004441D01*
X005913Y004539D02*
X006013Y004539D01*
X006013Y004638D02*
X005913Y004638D01*
X005913Y004736D02*
X006013Y004736D01*
X005511Y004736D02*
X000713Y004736D01*
X000713Y004638D02*
X005459Y004638D01*
X005459Y004539D02*
X000713Y004539D01*
X000713Y004441D02*
X005459Y004441D01*
X004566Y004145D02*
X000713Y004145D01*
X000713Y004047D02*
X004468Y004047D01*
X006368Y003850D02*
X010613Y003850D01*
X010613Y003948D02*
X006461Y003948D01*
X006467Y004047D02*
X010613Y004047D01*
X010613Y004145D02*
X006467Y004145D01*
X006467Y004244D02*
X010613Y004244D01*
X010113Y002471D02*
X010013Y002471D01*
X010013Y002372D02*
X010113Y002372D01*
X010113Y002274D02*
X010013Y002274D01*
X010613Y001584D02*
X006310Y001584D01*
X006254Y001486D02*
X010613Y001486D01*
X010613Y001387D02*
X005081Y001387D01*
X004983Y001289D02*
X010613Y001289D01*
X010613Y001190D02*
X000713Y001190D01*
X000713Y001092D02*
X010613Y001092D01*
X010613Y000993D02*
X000713Y000993D01*
X000713Y000895D02*
X010613Y000895D01*
X010612Y000796D02*
X000713Y000796D01*
X000713Y000698D02*
X010596Y000698D01*
X010555Y000599D02*
X000713Y000599D01*
X000713Y000501D02*
X010483Y000501D01*
X010343Y000402D02*
X000713Y000402D01*
X000713Y001289D02*
X004543Y001289D01*
X004444Y001387D02*
X000713Y001387D01*
X000713Y001486D02*
X003250Y001486D01*
X003243Y001584D02*
X002671Y001584D01*
X002648Y001562D02*
X002740Y001654D01*
X002790Y001774D01*
X002790Y001904D01*
X002740Y002024D01*
X002648Y002116D01*
X002528Y002166D01*
X002398Y002166D01*
X002278Y002116D01*
X002185Y002024D01*
X002136Y001904D01*
X002136Y001774D01*
X002185Y001654D01*
X002278Y001562D01*
X002398Y001512D01*
X002528Y001512D01*
X002648Y001562D01*
X002752Y001683D02*
X003243Y001683D01*
X003243Y001781D02*
X002790Y001781D01*
X002790Y001880D02*
X003243Y001880D01*
X003243Y001978D02*
X002759Y001978D01*
X002688Y002077D02*
X003243Y002077D01*
X003321Y002175D02*
X001976Y002175D01*
X002013Y002175D02*
X000713Y002175D01*
X000810Y002175D01*
X000810Y002077D02*
X000713Y002077D01*
X002013Y002077D01*
X001976Y002077D02*
X002238Y002077D01*
X002166Y001978D02*
X001976Y001978D01*
X002013Y001978D02*
X000713Y001978D01*
X000810Y001978D01*
X000864Y001880D02*
X000713Y001880D01*
X002013Y001880D01*
X001921Y001880D02*
X002136Y001880D01*
X002136Y001781D02*
X000713Y001781D01*
X002013Y001781D01*
X002173Y001683D02*
X000713Y001683D01*
X000713Y001584D02*
X002255Y001584D01*
X001443Y001880D02*
X001343Y001880D01*
X001343Y001978D02*
X001443Y001978D01*
X001443Y002077D02*
X001343Y002077D01*
X001343Y002175D02*
X001443Y002175D01*
X001443Y002274D02*
X001343Y002274D01*
X001343Y002372D02*
X001443Y002372D01*
X001443Y002471D02*
X001343Y002471D01*
X001343Y002569D02*
X001443Y002569D01*
X005028Y002077D02*
X005621Y002077D01*
X005616Y001978D02*
X005126Y001978D01*
X005213Y001880D02*
X005616Y001880D01*
D17*
X003663Y001105D03*
X003263Y001105D03*
X002563Y000905D03*
X002163Y000905D03*
X001463Y000705D03*
X001063Y000705D03*
X001063Y001105D03*
X001463Y001105D03*
X002163Y001305D03*
X002563Y001305D03*
X002063Y001705D03*
X001663Y001705D03*
X001263Y001705D03*
X000863Y001705D03*
X000863Y002105D03*
X001263Y002105D03*
X001663Y002105D03*
X002063Y002105D03*
X002463Y002305D03*
X002063Y002505D03*
X001663Y002505D03*
X001263Y002505D03*
X000863Y002505D03*
X000863Y002905D03*
X001263Y002905D03*
X001663Y002905D03*
X002063Y002905D03*
X002463Y003105D03*
X002063Y003305D03*
X001663Y003305D03*
X001263Y003305D03*
X000863Y003305D03*
X000863Y003705D03*
X001263Y003705D03*
X001663Y003705D03*
X002063Y003705D03*
X002163Y004105D03*
X002563Y004105D03*
X003263Y004305D03*
X003663Y004305D03*
X003663Y004705D03*
X003263Y004705D03*
X002563Y004505D03*
X002163Y004505D03*
X001463Y004305D03*
X001063Y004305D03*
X001063Y004705D03*
X001463Y004705D03*
X002163Y004905D03*
X002563Y004905D03*
X002463Y002705D03*
X003263Y000705D03*
X003663Y000705D03*
X002563Y000505D03*
X002163Y000505D03*
M02*
