G75*
G70*
%OFA0B0*%
%FSLAX24Y24*%
%IPPOS*%
%LPD*%
%AMOC8*
5,1,8,0,0,1.08239X$1,22.5*
%
%ADD10C,0.0080*%
%ADD11C,0.0137*%
%ADD12C,0.0091*%
%ADD13C,0.0114*%
%ADD14C,0.0100*%
D10*
X002013Y001360D02*
X002013Y003940D01*
X003313Y003940D01*
X003313Y001360D01*
X002013Y001360D01*
X007793Y000880D02*
X008363Y000880D01*
X008135Y001165D02*
X007964Y001279D01*
X008363Y002020D02*
X008408Y002018D01*
X008452Y002013D01*
X008496Y002004D01*
X008539Y001992D01*
X008581Y001977D01*
X008622Y001958D01*
X008661Y001936D01*
X008698Y001911D01*
X008733Y001883D01*
X008766Y001853D01*
X008796Y001820D01*
X008824Y001785D01*
X008849Y001748D01*
X008871Y001709D01*
X008890Y001668D01*
X008905Y001626D01*
X008917Y001583D01*
X008926Y001539D01*
X008931Y001495D01*
X008933Y001450D01*
X008932Y001450D02*
X008989Y001450D01*
X007965Y001279D02*
X007951Y001335D01*
X007941Y001392D01*
X007935Y001449D01*
X007931Y001506D01*
X007931Y001564D01*
X007935Y001621D01*
X007941Y001678D01*
X007951Y001735D01*
X007965Y001791D01*
X007964Y001792D02*
X008078Y001849D01*
X008212Y001735D02*
X008214Y001761D01*
X008220Y001786D01*
X008229Y001810D01*
X008242Y001833D01*
X008258Y001853D01*
X008278Y001871D01*
X008299Y001886D01*
X008322Y001897D01*
X008347Y001905D01*
X008373Y001909D01*
X008399Y001909D01*
X008425Y001905D01*
X008450Y001897D01*
X008473Y001886D01*
X008494Y001871D01*
X008514Y001853D01*
X008530Y001833D01*
X008543Y001810D01*
X008552Y001786D01*
X008558Y001761D01*
X008560Y001735D01*
X008558Y001709D01*
X008552Y001684D01*
X008543Y001660D01*
X008530Y001637D01*
X008514Y001617D01*
X008494Y001599D01*
X008473Y001584D01*
X008450Y001573D01*
X008425Y001565D01*
X008399Y001561D01*
X008373Y001561D01*
X008347Y001565D01*
X008322Y001573D01*
X008299Y001584D01*
X008278Y001599D01*
X008258Y001617D01*
X008242Y001637D01*
X008229Y001660D01*
X008220Y001684D01*
X008214Y001709D01*
X008212Y001735D01*
X008933Y001450D02*
X008931Y001405D01*
X008926Y001361D01*
X008917Y001317D01*
X008905Y001274D01*
X008890Y001232D01*
X008871Y001191D01*
X008849Y001152D01*
X008824Y001115D01*
X008796Y001080D01*
X008766Y001047D01*
X008733Y001017D01*
X008698Y000989D01*
X008661Y000964D01*
X008622Y000942D01*
X008581Y000923D01*
X008539Y000908D01*
X008496Y000896D01*
X008452Y000887D01*
X008408Y000882D01*
X008363Y000880D01*
X007793Y000880D02*
X007793Y002020D01*
X008363Y002020D01*
X008306Y002418D02*
X008308Y002387D01*
X008306Y002355D01*
X008301Y002324D01*
X008291Y002294D01*
X008279Y002265D01*
X008263Y002238D01*
X008244Y002212D01*
X008223Y002190D01*
X008198Y002169D01*
X008172Y002152D01*
X008144Y002138D01*
X008114Y002127D01*
X008084Y002120D01*
X008052Y002116D01*
X008021Y002116D01*
X007989Y002120D01*
X007959Y002128D01*
X007929Y002138D01*
X007901Y002153D01*
X007875Y002170D01*
X007851Y002190D01*
X008306Y002418D02*
X008320Y002387D01*
X008336Y002358D01*
X008356Y002331D01*
X008378Y002306D01*
X008404Y002284D01*
X008431Y002265D01*
X008461Y002248D01*
X008492Y002236D01*
X008524Y002226D01*
X008557Y002221D01*
X008591Y002219D01*
X008625Y002221D01*
X008658Y002226D01*
X008690Y002236D01*
X008721Y002248D01*
X008751Y002265D01*
X008778Y002284D01*
X008804Y002306D01*
X008826Y002331D01*
X008846Y002358D01*
X008862Y002387D01*
X008876Y002418D01*
X008875Y002418D02*
X008865Y002383D01*
X008860Y002346D01*
X008858Y002310D01*
X008860Y002273D01*
X008866Y002237D01*
X008876Y002201D01*
X008890Y002167D01*
X008907Y002135D01*
X008927Y002104D01*
X008951Y002076D01*
X008977Y002051D01*
X009006Y002028D01*
X009038Y002009D01*
X009071Y001993D01*
X009105Y001980D01*
X009141Y001972D01*
X009177Y001967D01*
X009214Y001966D01*
X009251Y001969D01*
X009287Y001976D01*
X009322Y001987D01*
X009356Y002001D01*
X009388Y002019D01*
X009388Y002020D02*
X009358Y001994D01*
X009331Y001965D01*
X009307Y001934D01*
X009285Y001901D01*
X009267Y001866D01*
X009252Y001830D01*
X009240Y001792D01*
X009232Y001754D01*
X009227Y001714D01*
X009226Y001675D01*
X009228Y001636D01*
X009234Y001597D01*
X009244Y001558D01*
X009257Y001521D01*
X009273Y001485D01*
X009293Y001451D01*
X009315Y001419D01*
X009341Y001389D01*
X009369Y001361D01*
X009399Y001336D01*
X009432Y001314D01*
X009466Y001294D01*
X009502Y001278D01*
X008135Y001165D02*
X008113Y001231D01*
X008095Y001298D01*
X008080Y001366D01*
X008069Y001434D01*
X008062Y001503D01*
X008058Y001572D01*
X008057Y001642D01*
X008061Y001711D01*
X008068Y001780D01*
X008078Y001848D01*
X008192Y001336D02*
X008194Y001366D01*
X008200Y001395D01*
X008209Y001423D01*
X008223Y001450D01*
X008239Y001475D01*
X008259Y001497D01*
X008281Y001517D01*
X008306Y001533D01*
X008333Y001547D01*
X008361Y001556D01*
X008390Y001562D01*
X008420Y001564D01*
X008450Y001562D01*
X008479Y001556D01*
X008507Y001547D01*
X008534Y001533D01*
X008559Y001517D01*
X008581Y001497D01*
X008601Y001475D01*
X008617Y001450D01*
X008631Y001423D01*
X008640Y001395D01*
X008646Y001366D01*
X008648Y001336D01*
X008646Y001306D01*
X008640Y001277D01*
X008631Y001249D01*
X008617Y001222D01*
X008601Y001197D01*
X008581Y001175D01*
X008559Y001155D01*
X008534Y001139D01*
X008507Y001125D01*
X008479Y001116D01*
X008450Y001110D01*
X008420Y001108D01*
X008390Y001110D01*
X008361Y001116D01*
X008333Y001125D01*
X008306Y001139D01*
X008281Y001155D01*
X008259Y001175D01*
X008239Y001197D01*
X008223Y001222D01*
X008209Y001249D01*
X008200Y001277D01*
X008194Y001306D01*
X008192Y001336D01*
X009160Y000538D02*
X009138Y000573D01*
X009119Y000609D01*
X009103Y000647D01*
X009091Y000686D01*
X009081Y000726D01*
X009076Y000767D01*
X009074Y000808D01*
X009076Y000849D01*
X009081Y000890D01*
X009090Y000930D01*
X009102Y000969D01*
X009117Y001007D01*
X009136Y001044D01*
X009158Y001079D01*
X009183Y001111D01*
X009211Y001142D01*
X009241Y001170D01*
X009273Y001195D01*
X009308Y001217D01*
X009344Y001236D01*
X009382Y001252D01*
X009421Y001264D01*
X009461Y001274D01*
X009502Y001279D01*
X008420Y000425D02*
X008421Y000462D01*
X008417Y000499D01*
X008410Y000536D01*
X008399Y000572D01*
X008384Y000606D01*
X008366Y000638D01*
X008344Y000669D01*
X008320Y000697D01*
X008292Y000722D01*
X008262Y000744D01*
X008230Y000763D01*
X008197Y000779D01*
X008161Y000791D01*
X008125Y000799D01*
X008088Y000803D01*
X008051Y000804D01*
X008014Y000800D01*
X007977Y000793D01*
X007941Y000782D01*
X007907Y000767D01*
X008420Y000425D02*
X008429Y000463D01*
X008442Y000499D01*
X008459Y000535D01*
X008479Y000568D01*
X008502Y000599D01*
X008528Y000628D01*
X008557Y000655D01*
X008588Y000678D01*
X008622Y000698D01*
X008657Y000715D01*
X008693Y000728D01*
X008731Y000738D01*
X008770Y000744D01*
X008809Y000746D01*
X008848Y000744D01*
X008886Y000739D01*
X008924Y000730D01*
X008961Y000717D01*
X008996Y000700D01*
X009030Y000681D01*
X009061Y000658D01*
X009090Y000632D01*
X009117Y000603D01*
X009140Y000572D01*
X009161Y000539D01*
D11*
X008431Y001279D02*
X008433Y001295D01*
X008438Y001311D01*
X008447Y001325D01*
X008459Y001337D01*
X008473Y001346D01*
X008489Y001351D01*
X008505Y001353D01*
X008521Y001351D01*
X008537Y001346D01*
X008551Y001337D01*
X008563Y001325D01*
X008572Y001311D01*
X008577Y001295D01*
X008579Y001279D01*
X008577Y001263D01*
X008572Y001247D01*
X008563Y001233D01*
X008551Y001221D01*
X008537Y001212D01*
X008521Y001207D01*
X008505Y001205D01*
X008489Y001207D01*
X008473Y001212D01*
X008459Y001221D01*
X008447Y001233D01*
X008438Y001247D01*
X008433Y001263D01*
X008431Y001279D01*
D12*
X008397Y001678D02*
X008399Y001691D01*
X008404Y001703D01*
X008413Y001713D01*
X008424Y001720D01*
X008436Y001724D01*
X008450Y001724D01*
X008462Y001720D01*
X008473Y001713D01*
X008482Y001703D01*
X008487Y001691D01*
X008489Y001678D01*
X008487Y001665D01*
X008482Y001653D01*
X008473Y001643D01*
X008462Y001636D01*
X008450Y001632D01*
X008436Y001632D01*
X008424Y001636D01*
X008413Y001643D01*
X008404Y001653D01*
X008399Y001665D01*
X008397Y001678D01*
D13*
X008989Y001450D02*
X008991Y001465D01*
X008997Y001478D01*
X009006Y001490D01*
X009017Y001499D01*
X009031Y001505D01*
X009046Y001507D01*
X009061Y001505D01*
X009074Y001499D01*
X009086Y001490D01*
X009095Y001479D01*
X009101Y001465D01*
X009103Y001450D01*
X009101Y001435D01*
X009095Y001422D01*
X009086Y001410D01*
X009075Y001401D01*
X009061Y001395D01*
X009046Y001393D01*
X009031Y001395D01*
X009018Y001401D01*
X009006Y001410D01*
X008997Y001421D01*
X008991Y001435D01*
X008989Y001450D01*
D14*
X008566Y002706D02*
X008359Y002706D01*
X008331Y002981D01*
X008239Y003010D01*
X008153Y003054D01*
X007940Y002880D01*
X007793Y003027D01*
X007967Y003240D01*
X007923Y003326D01*
X008217Y003448D01*
X008242Y003402D01*
X008275Y003362D01*
X008315Y003329D01*
X008361Y003305D01*
X008411Y003289D01*
X008463Y003284D01*
X008520Y003291D01*
X008574Y003309D01*
X008623Y003338D01*
X008665Y003377D01*
X008697Y003425D01*
X008718Y003478D01*
X008728Y003534D01*
X008725Y003592D01*
X008710Y003647D01*
X008684Y003698D01*
X008647Y003741D01*
X008602Y003776D01*
X008550Y003801D01*
X008494Y003814D01*
X008437Y003814D01*
X008381Y003803D01*
X008329Y003779D01*
X008283Y003745D01*
X008245Y003702D01*
X008217Y003652D01*
X007923Y003774D01*
X007967Y003860D01*
X007793Y004073D01*
X007940Y004220D01*
X008153Y004046D01*
X008239Y004090D01*
X008331Y004119D01*
X008359Y004394D01*
X008566Y004394D01*
X008594Y004119D01*
X008686Y004090D01*
X008240Y004090D01*
X008099Y004090D02*
X007810Y004090D01*
X007860Y003992D02*
X009066Y003992D01*
X009133Y004073D02*
X008958Y003860D01*
X009003Y003774D01*
X009032Y003681D01*
X009306Y003654D01*
X009306Y003446D01*
X009032Y003419D01*
X009003Y003326D01*
X008958Y003240D01*
X009133Y003027D01*
X008986Y002880D01*
X008773Y003054D01*
X008686Y003010D01*
X008594Y002981D01*
X008566Y002706D01*
X008567Y002711D02*
X008359Y002711D01*
X008349Y002810D02*
X008577Y002810D01*
X008587Y002908D02*
X008339Y002908D01*
X008250Y003007D02*
X008675Y003007D01*
X008831Y003007D02*
X009112Y003007D01*
X009069Y003105D02*
X007857Y003105D01*
X007813Y003007D02*
X008094Y003007D01*
X007974Y002908D02*
X007912Y002908D01*
X007937Y003204D02*
X008988Y003204D01*
X008990Y003302D02*
X008554Y003302D01*
X008681Y003401D02*
X009026Y003401D01*
X009306Y003499D02*
X008722Y003499D01*
X008724Y003598D02*
X009306Y003598D01*
X009028Y003696D02*
X008685Y003696D01*
X008564Y003795D02*
X008992Y003795D01*
X008986Y003893D02*
X007940Y003893D01*
X007934Y003795D02*
X008363Y003795D01*
X008242Y003696D02*
X008110Y003696D01*
X008102Y003401D02*
X008244Y003401D01*
X008370Y003302D02*
X007935Y003302D01*
X008952Y002908D02*
X009014Y002908D01*
X008773Y004046D02*
X008986Y004220D01*
X009133Y004073D01*
X009116Y004090D02*
X008827Y004090D01*
X008773Y004046D02*
X008686Y004090D01*
X008587Y004189D02*
X008338Y004189D01*
X008348Y004287D02*
X008577Y004287D01*
X008567Y004386D02*
X008358Y004386D01*
X007978Y004189D02*
X007908Y004189D01*
X008948Y004189D02*
X009017Y004189D01*
M02*
