G75*
G70*
%OFA0B0*%
%FSLAX24Y24*%
%IPPOS*%
%LPD*%
%AMOC8*
5,1,8,0,0,1.08239X$1,22.5*
%
%ADD10OC8,0.0600*%
%ADD11R,0.0591X0.0591*%
%ADD12R,0.0945X0.0630*%
%ADD13R,0.0433X0.0394*%
%ADD14R,0.0394X0.0433*%
%ADD15R,0.0984X0.0197*%
%ADD16R,0.0984X0.0787*%
%ADD17C,0.0240*%
%ADD18C,0.0270*%
%ADD19C,0.0100*%
%ADD20C,0.0160*%
D10*
X007063Y002150D03*
X007063Y003150D03*
X007163Y004400D03*
X006163Y004400D03*
X005163Y004400D03*
X010063Y003150D03*
X010063Y002150D03*
D11*
X004563Y001961D03*
X004563Y003339D03*
D12*
X008863Y003241D03*
X008863Y002059D03*
D13*
X004563Y001285D03*
X004563Y000615D03*
D14*
X007963Y002315D03*
X007963Y002985D03*
D15*
X003447Y002965D03*
X003447Y002650D03*
X003447Y002335D03*
X003447Y002020D03*
X003447Y003280D03*
D16*
X003447Y004422D03*
X001282Y004422D03*
X001282Y000878D03*
X003447Y000878D03*
D17*
X005463Y002450D02*
X007163Y004150D01*
X007163Y004400D01*
X008219Y003241D02*
X007963Y002985D01*
X007928Y003050D01*
X007163Y003050D01*
X007063Y003150D01*
X008219Y003241D02*
X008863Y003241D01*
X009972Y003241D01*
X010063Y003150D01*
D18*
X005463Y002450D03*
X002413Y002250D03*
X002013Y002050D03*
X001613Y002050D03*
X001213Y002050D03*
X000813Y002050D03*
X000813Y001650D03*
X001213Y001650D03*
X001613Y001650D03*
X002013Y001650D03*
X002013Y002450D03*
X001613Y002450D03*
X001213Y002450D03*
X000813Y002450D03*
X000813Y002850D03*
X001213Y002850D03*
X001613Y002850D03*
X002013Y002850D03*
X002413Y003050D03*
X002013Y003250D03*
X001613Y003250D03*
X001213Y003250D03*
X000813Y003250D03*
X000813Y003650D03*
X001213Y003650D03*
X001613Y003650D03*
X002013Y003650D03*
X002413Y002650D03*
D19*
X000713Y000356D02*
X000713Y000300D01*
X004253Y000300D01*
X004226Y000326D01*
X004207Y000361D01*
X004196Y000399D01*
X004196Y000567D01*
X004514Y000567D01*
X004514Y000664D01*
X004196Y000664D01*
X004196Y000832D01*
X004207Y000870D01*
X004226Y000904D01*
X004254Y000932D01*
X004277Y000945D01*
X004196Y001026D01*
X004196Y001525D01*
X004118Y001604D01*
X004118Y002318D01*
X004205Y002406D01*
X004920Y002406D01*
X005008Y002318D01*
X005008Y001604D01*
X004929Y001525D01*
X004929Y001026D01*
X004849Y000945D01*
X004871Y000932D01*
X004899Y000904D01*
X004919Y000870D01*
X004929Y000832D01*
X004929Y000664D01*
X004611Y000664D01*
X004611Y000567D01*
X004929Y000567D01*
X004929Y000399D01*
X004919Y000361D01*
X004899Y000326D01*
X004873Y000300D01*
X010163Y000300D01*
X010251Y000309D01*
X010413Y000376D01*
X010537Y000500D01*
X010604Y000662D01*
X010613Y000750D01*
X010613Y004550D01*
X010604Y004638D01*
X010537Y004800D01*
X010413Y004924D01*
X010251Y004991D01*
X010163Y005000D01*
X000713Y005000D01*
X000713Y004944D01*
X000732Y004955D01*
X000770Y004965D01*
X001232Y004965D01*
X001232Y004472D01*
X001332Y004472D01*
X001332Y004965D01*
X001794Y004965D01*
X001832Y004955D01*
X001866Y004935D01*
X001894Y004907D01*
X001914Y004873D01*
X001924Y004835D01*
X001924Y004472D01*
X001332Y004472D01*
X001332Y004372D01*
X001924Y004372D01*
X001924Y004008D01*
X001916Y003980D01*
X002808Y003980D01*
X002814Y003974D01*
X002805Y004008D01*
X002805Y004372D01*
X003397Y004372D01*
X003397Y004472D01*
X003397Y004965D01*
X002935Y004965D01*
X002897Y004955D01*
X002863Y004935D01*
X002835Y004907D01*
X002815Y004873D01*
X002805Y004835D01*
X002805Y004472D01*
X003397Y004472D01*
X003497Y004472D01*
X003497Y004965D01*
X003959Y004965D01*
X003997Y004955D01*
X004031Y004935D01*
X004059Y004907D01*
X004079Y004873D01*
X004089Y004835D01*
X004089Y004472D01*
X003497Y004472D01*
X003497Y004372D01*
X004089Y004372D01*
X004089Y004008D01*
X004079Y003970D01*
X004059Y003936D01*
X004031Y003908D01*
X003997Y003888D01*
X003959Y003878D01*
X003497Y003878D01*
X003497Y004372D01*
X003397Y004372D01*
X003397Y003878D01*
X002935Y003878D01*
X002901Y003887D01*
X002943Y003845D01*
X002943Y003528D01*
X004001Y003528D01*
X004089Y003440D01*
X004089Y003383D01*
X004118Y003427D01*
X004118Y003696D01*
X002943Y003696D01*
X002943Y003598D02*
X004118Y003598D01*
X004118Y003499D02*
X004031Y003499D01*
X004089Y003401D02*
X004100Y003401D01*
X004089Y003151D02*
X004092Y003137D01*
X004118Y003121D01*
X004118Y002982D01*
X004205Y002894D01*
X004920Y002894D01*
X005008Y002982D01*
X005008Y003109D01*
X005197Y003109D01*
X006038Y003950D01*
X006349Y003950D01*
X006613Y004214D01*
X006613Y004586D01*
X006349Y004850D01*
X005976Y004850D01*
X005713Y004586D01*
X005713Y004275D01*
X005008Y003571D01*
X005008Y003696D01*
X005134Y003696D01*
X005008Y003696D02*
X004920Y003784D01*
X004205Y003784D01*
X004118Y003696D01*
X004005Y003893D02*
X005331Y003893D01*
X005349Y003950D02*
X005613Y004214D01*
X005613Y004586D01*
X005349Y004850D01*
X004976Y004850D01*
X004713Y004586D01*
X004713Y004214D01*
X004976Y003950D01*
X005349Y003950D01*
X005391Y003992D02*
X005429Y003992D01*
X005489Y004090D02*
X005528Y004090D01*
X005588Y004189D02*
X005626Y004189D01*
X005613Y004287D02*
X005713Y004287D01*
X005713Y004386D02*
X005613Y004386D01*
X005613Y004484D02*
X005713Y004484D01*
X005713Y004583D02*
X005613Y004583D01*
X005518Y004681D02*
X005807Y004681D01*
X005906Y004780D02*
X005420Y004780D01*
X004906Y004780D02*
X004089Y004780D01*
X004076Y004878D02*
X010459Y004878D01*
X010286Y004977D02*
X000713Y004977D01*
X001232Y004878D02*
X001332Y004878D01*
X001332Y004780D02*
X001232Y004780D01*
X001232Y004681D02*
X001332Y004681D01*
X001332Y004583D02*
X001232Y004583D01*
X001232Y004484D02*
X001332Y004484D01*
X001332Y004386D02*
X003397Y004386D01*
X003497Y004386D02*
X004713Y004386D01*
X004713Y004484D02*
X004089Y004484D01*
X004089Y004583D02*
X004713Y004583D01*
X004807Y004681D02*
X004089Y004681D01*
X003497Y004681D02*
X003397Y004681D01*
X003397Y004583D02*
X003497Y004583D01*
X003497Y004484D02*
X003397Y004484D01*
X003397Y004287D02*
X003497Y004287D01*
X003497Y004189D02*
X003397Y004189D01*
X003397Y004090D02*
X003497Y004090D01*
X003497Y003992D02*
X003397Y003992D01*
X003397Y003893D02*
X003497Y003893D01*
X004085Y003992D02*
X004935Y003992D01*
X004836Y004090D02*
X004089Y004090D01*
X004089Y004189D02*
X004738Y004189D01*
X004713Y004287D02*
X004089Y004287D01*
X003497Y004780D02*
X003397Y004780D01*
X003397Y004878D02*
X003497Y004878D01*
X002818Y004878D02*
X001911Y004878D01*
X001924Y004780D02*
X002805Y004780D01*
X002805Y004681D02*
X001924Y004681D01*
X001924Y004583D02*
X002805Y004583D01*
X002805Y004484D02*
X001924Y004484D01*
X001924Y004287D02*
X002805Y004287D01*
X002805Y004189D02*
X001924Y004189D01*
X001924Y004090D02*
X002805Y004090D01*
X002809Y003992D02*
X001919Y003992D01*
X002943Y003795D02*
X005232Y003795D01*
X005035Y003598D02*
X005008Y003598D01*
X005390Y003302D02*
X005933Y003302D01*
X005835Y003204D02*
X005292Y003204D01*
X005008Y003105D02*
X005736Y003105D01*
X005638Y003007D02*
X005008Y003007D01*
X004935Y002908D02*
X005539Y002908D01*
X005441Y002810D02*
X004089Y002810D01*
X004089Y002908D02*
X004191Y002908D01*
X004118Y003007D02*
X004089Y003007D01*
X004089Y003105D02*
X004118Y003105D01*
X004089Y003151D02*
X004089Y002174D01*
X004082Y002167D01*
X004089Y002138D01*
X004089Y002020D01*
X003447Y002020D01*
X003447Y002020D01*
X003447Y001772D01*
X002943Y001772D01*
X002943Y001455D01*
X002901Y001413D01*
X002935Y001422D01*
X003397Y001422D01*
X003397Y000928D01*
X003397Y000828D01*
X003497Y000828D01*
X003497Y000335D01*
X003959Y000335D01*
X003997Y000345D01*
X004031Y000365D01*
X004059Y000393D01*
X004079Y000427D01*
X004089Y000465D01*
X004089Y000828D01*
X003497Y000828D01*
X003497Y000928D01*
X004089Y000928D01*
X004089Y001292D01*
X004079Y001330D01*
X004059Y001364D01*
X004031Y001392D01*
X003997Y001412D01*
X003959Y001422D01*
X003497Y001422D01*
X003497Y000928D01*
X003397Y000928D01*
X002805Y000928D01*
X002805Y001292D01*
X002814Y001326D01*
X002808Y001320D01*
X001916Y001320D01*
X001924Y001292D01*
X001924Y000928D01*
X001332Y000928D01*
X001332Y000828D01*
X001924Y000828D01*
X001924Y000465D01*
X001914Y000427D01*
X001894Y000393D01*
X001866Y000365D01*
X001832Y000345D01*
X001794Y000335D01*
X001332Y000335D01*
X001332Y000828D01*
X001232Y000828D01*
X001232Y000335D01*
X000770Y000335D01*
X000732Y000345D01*
X000713Y000356D01*
X000713Y000347D02*
X000728Y000347D01*
X001232Y000347D02*
X001332Y000347D01*
X001332Y000446D02*
X001232Y000446D01*
X001232Y000544D02*
X001332Y000544D01*
X001332Y000643D02*
X001232Y000643D01*
X001232Y000741D02*
X001332Y000741D01*
X001332Y000840D02*
X003397Y000840D01*
X003397Y000828D02*
X002805Y000828D01*
X002805Y000465D01*
X002815Y000427D01*
X002835Y000393D01*
X002863Y000365D01*
X002897Y000345D01*
X002935Y000335D01*
X003397Y000335D01*
X003397Y000828D01*
X003497Y000840D02*
X004198Y000840D01*
X004196Y000741D02*
X004089Y000741D01*
X004089Y000643D02*
X004514Y000643D01*
X004611Y000643D02*
X010596Y000643D01*
X010612Y000741D02*
X004929Y000741D01*
X004927Y000840D02*
X010613Y000840D01*
X010613Y000938D02*
X004861Y000938D01*
X004929Y001037D02*
X010613Y001037D01*
X010613Y001135D02*
X004929Y001135D01*
X004929Y001234D02*
X010613Y001234D01*
X010613Y001332D02*
X004929Y001332D01*
X004929Y001431D02*
X010613Y001431D01*
X010613Y001529D02*
X004933Y001529D01*
X005008Y001628D02*
X008295Y001628D01*
X008298Y001624D02*
X008332Y001605D01*
X008371Y001594D01*
X008813Y001594D01*
X008813Y002009D01*
X008913Y002009D01*
X008913Y001594D01*
X009355Y001594D01*
X009393Y001605D01*
X009427Y001624D01*
X009455Y001652D01*
X009475Y001687D01*
X009485Y001725D01*
X009485Y002009D01*
X008913Y002009D01*
X008913Y002109D01*
X009485Y002109D01*
X009485Y002394D01*
X009475Y002432D01*
X009455Y002467D01*
X009427Y002494D01*
X009393Y002514D01*
X009355Y002524D01*
X008913Y002524D01*
X008913Y002109D01*
X008813Y002109D01*
X008813Y002524D01*
X008371Y002524D01*
X008332Y002514D01*
X008310Y002514D01*
X008310Y002501D02*
X008310Y002552D01*
X008299Y002590D01*
X008280Y002624D01*
X008254Y002650D01*
X008310Y002706D01*
X008310Y002794D01*
X008328Y002776D01*
X009397Y002776D01*
X009485Y002863D01*
X009485Y002971D01*
X009613Y002971D01*
X009613Y002964D01*
X009876Y002700D01*
X010249Y002700D01*
X010513Y002964D01*
X010513Y003336D01*
X010249Y003600D01*
X009876Y003600D01*
X009787Y003511D01*
X009485Y003511D01*
X009485Y003618D01*
X009397Y003706D01*
X008328Y003706D01*
X008240Y003618D01*
X008240Y003511D01*
X008165Y003511D01*
X008066Y003469D01*
X007948Y003351D01*
X007704Y003351D01*
X007673Y003320D01*
X007513Y003320D01*
X007513Y003336D01*
X007249Y003600D01*
X006995Y003600D01*
X007316Y003921D01*
X007345Y003950D01*
X007349Y003950D01*
X007613Y004214D01*
X007613Y004586D01*
X007349Y004850D01*
X006976Y004850D01*
X006713Y004586D01*
X006713Y004214D01*
X006779Y004148D01*
X005338Y002707D01*
X005301Y002692D01*
X005221Y002611D01*
X005178Y002507D01*
X005178Y002393D01*
X005221Y002289D01*
X005301Y002208D01*
X005406Y002165D01*
X005520Y002165D01*
X005624Y002208D01*
X005704Y002289D01*
X005719Y002325D01*
X006613Y003218D01*
X006613Y002964D01*
X006876Y002700D01*
X007249Y002700D01*
X007329Y002780D01*
X007616Y002780D01*
X007616Y002706D01*
X007672Y002650D01*
X007646Y002624D01*
X007626Y002590D01*
X007616Y002552D01*
X007616Y002364D01*
X007914Y002364D01*
X007914Y002267D01*
X007616Y002267D01*
X007616Y002079D01*
X007626Y002041D01*
X007646Y002007D01*
X007674Y001979D01*
X007708Y001959D01*
X007746Y001949D01*
X007914Y001949D01*
X007914Y002267D01*
X008011Y002267D01*
X008011Y001949D01*
X008179Y001949D01*
X008218Y001959D01*
X008240Y001972D01*
X008240Y001725D01*
X008251Y001687D01*
X008270Y001652D01*
X008298Y001624D01*
X008240Y001726D02*
X007275Y001726D01*
X007249Y001700D02*
X007513Y001964D01*
X007513Y002100D01*
X007113Y002100D01*
X007113Y002200D01*
X007513Y002200D01*
X007513Y002336D01*
X007249Y002600D01*
X007113Y002600D01*
X007113Y002200D01*
X007013Y002200D01*
X007013Y002600D01*
X006876Y002600D01*
X006613Y002336D01*
X006613Y002200D01*
X007013Y002200D01*
X007013Y002100D01*
X007113Y002100D01*
X007113Y001700D01*
X007249Y001700D01*
X007113Y001726D02*
X007013Y001726D01*
X007013Y001700D02*
X007013Y002100D01*
X006613Y002100D01*
X006613Y001964D01*
X006876Y001700D01*
X007013Y001700D01*
X007013Y001825D02*
X007113Y001825D01*
X007113Y001923D02*
X007013Y001923D01*
X007013Y002022D02*
X007113Y002022D01*
X007113Y002120D02*
X007616Y002120D01*
X007616Y002219D02*
X007513Y002219D01*
X007513Y002317D02*
X007914Y002317D01*
X007914Y002219D02*
X008011Y002219D01*
X008011Y002120D02*
X007914Y002120D01*
X007914Y002022D02*
X008011Y002022D01*
X008240Y001923D02*
X007472Y001923D01*
X007513Y002022D02*
X007637Y002022D01*
X007374Y001825D02*
X008240Y001825D01*
X008813Y001825D02*
X008913Y001825D01*
X008913Y001923D02*
X008813Y001923D01*
X008913Y002022D02*
X009613Y002022D01*
X009613Y001964D02*
X009876Y001700D01*
X010013Y001700D01*
X010013Y002100D01*
X010113Y002100D01*
X010113Y002200D01*
X010513Y002200D01*
X010513Y002336D01*
X010249Y002600D01*
X010113Y002600D01*
X010113Y002200D01*
X010013Y002200D01*
X010013Y002600D01*
X009876Y002600D01*
X009613Y002336D01*
X009613Y002200D01*
X010013Y002200D01*
X010013Y002100D01*
X009613Y002100D01*
X009613Y001964D01*
X009653Y001923D02*
X009485Y001923D01*
X009485Y001825D02*
X009752Y001825D01*
X009850Y001726D02*
X009485Y001726D01*
X009430Y001628D02*
X010613Y001628D01*
X010613Y001726D02*
X010275Y001726D01*
X010249Y001700D02*
X010513Y001964D01*
X010513Y002100D01*
X010113Y002100D01*
X010113Y001700D01*
X010249Y001700D01*
X010113Y001726D02*
X010013Y001726D01*
X010013Y001825D02*
X010113Y001825D01*
X010113Y001923D02*
X010013Y001923D01*
X010013Y002022D02*
X010113Y002022D01*
X010113Y002120D02*
X010613Y002120D01*
X010613Y002219D02*
X010513Y002219D01*
X010513Y002317D02*
X010613Y002317D01*
X010613Y002416D02*
X010434Y002416D01*
X010335Y002514D02*
X010613Y002514D01*
X010613Y002613D02*
X008286Y002613D01*
X008310Y002711D02*
X009865Y002711D01*
X009767Y002810D02*
X009431Y002810D01*
X009485Y002908D02*
X009668Y002908D01*
X010260Y002711D02*
X010613Y002711D01*
X010613Y002810D02*
X010359Y002810D01*
X010457Y002908D02*
X010613Y002908D01*
X010613Y003007D02*
X010513Y003007D01*
X010513Y003105D02*
X010613Y003105D01*
X010613Y003204D02*
X010513Y003204D01*
X010513Y003302D02*
X010613Y003302D01*
X010613Y003401D02*
X010449Y003401D01*
X010350Y003499D02*
X010613Y003499D01*
X010613Y003598D02*
X010252Y003598D01*
X009874Y003598D02*
X009485Y003598D01*
X009407Y003696D02*
X010613Y003696D01*
X010613Y003795D02*
X007189Y003795D01*
X007288Y003893D02*
X010613Y003893D01*
X010613Y003992D02*
X007391Y003992D01*
X007489Y004090D02*
X010613Y004090D01*
X010613Y004189D02*
X007588Y004189D01*
X007613Y004287D02*
X010613Y004287D01*
X010613Y004386D02*
X007613Y004386D01*
X007613Y004484D02*
X010613Y004484D01*
X010610Y004583D02*
X007613Y004583D01*
X007518Y004681D02*
X010586Y004681D01*
X010545Y004780D02*
X007420Y004780D01*
X006906Y004780D02*
X006420Y004780D01*
X006518Y004681D02*
X006807Y004681D01*
X006713Y004583D02*
X006613Y004583D01*
X006613Y004484D02*
X006713Y004484D01*
X006713Y004386D02*
X006613Y004386D01*
X006613Y004287D02*
X006713Y004287D01*
X006738Y004189D02*
X006588Y004189D01*
X006489Y004090D02*
X006721Y004090D01*
X006623Y003992D02*
X006391Y003992D01*
X006524Y003893D02*
X005981Y003893D01*
X005883Y003795D02*
X006426Y003795D01*
X006327Y003696D02*
X005784Y003696D01*
X005686Y003598D02*
X006229Y003598D01*
X006130Y003499D02*
X005587Y003499D01*
X005489Y003401D02*
X006032Y003401D01*
X006598Y003204D02*
X006613Y003204D01*
X006613Y003105D02*
X006500Y003105D01*
X006401Y003007D02*
X006613Y003007D01*
X006668Y002908D02*
X006303Y002908D01*
X006204Y002810D02*
X006767Y002810D01*
X006865Y002711D02*
X006106Y002711D01*
X006007Y002613D02*
X007639Y002613D01*
X007616Y002711D02*
X007260Y002711D01*
X007335Y002514D02*
X007616Y002514D01*
X007616Y002416D02*
X007434Y002416D01*
X007113Y002416D02*
X007013Y002416D01*
X007013Y002514D02*
X007113Y002514D01*
X006790Y002514D02*
X005909Y002514D01*
X005810Y002416D02*
X006692Y002416D01*
X006613Y002317D02*
X005716Y002317D01*
X005634Y002219D02*
X006613Y002219D01*
X006613Y002022D02*
X005008Y002022D01*
X005008Y002120D02*
X007013Y002120D01*
X007013Y002219D02*
X007113Y002219D01*
X007113Y002317D02*
X007013Y002317D01*
X006653Y001923D02*
X005008Y001923D01*
X005008Y001825D02*
X006752Y001825D01*
X006850Y001726D02*
X005008Y001726D01*
X004192Y001529D02*
X002943Y001529D01*
X002943Y001628D02*
X004118Y001628D01*
X004118Y001726D02*
X002943Y001726D01*
X003447Y001772D02*
X003959Y001772D01*
X003997Y001782D01*
X004031Y001802D01*
X004059Y001830D01*
X004079Y001864D01*
X004089Y001902D01*
X004089Y002020D01*
X003447Y002020D01*
X003447Y001772D01*
X003447Y001825D02*
X003447Y001825D01*
X003447Y001923D02*
X003447Y001923D01*
X003447Y002020D02*
X003447Y002020D01*
X004054Y001825D02*
X004118Y001825D01*
X004118Y001923D02*
X004089Y001923D01*
X004089Y002022D02*
X004118Y002022D01*
X004118Y002120D02*
X004089Y002120D01*
X004089Y002219D02*
X004118Y002219D01*
X004118Y002317D02*
X004089Y002317D01*
X004089Y002416D02*
X005178Y002416D01*
X005181Y002514D02*
X004089Y002514D01*
X004089Y002613D02*
X005222Y002613D01*
X005342Y002711D02*
X004089Y002711D01*
X005008Y002317D02*
X005209Y002317D01*
X005291Y002219D02*
X005008Y002219D01*
X004196Y001431D02*
X002919Y001431D01*
X002805Y001234D02*
X001924Y001234D01*
X001924Y001135D02*
X002805Y001135D01*
X002805Y001037D02*
X001924Y001037D01*
X001924Y000938D02*
X002805Y000938D01*
X002805Y000741D02*
X001924Y000741D01*
X001924Y000643D02*
X002805Y000643D01*
X002805Y000544D02*
X001924Y000544D01*
X001919Y000446D02*
X002810Y000446D01*
X002893Y000347D02*
X001835Y000347D01*
X003397Y000347D02*
X003497Y000347D01*
X003497Y000446D02*
X003397Y000446D01*
X003397Y000544D02*
X003497Y000544D01*
X003497Y000643D02*
X003397Y000643D01*
X003397Y000741D02*
X003497Y000741D01*
X003497Y000938D02*
X003397Y000938D01*
X003397Y001037D02*
X003497Y001037D01*
X003497Y001135D02*
X003397Y001135D01*
X003397Y001234D02*
X003497Y001234D01*
X003497Y001332D02*
X003397Y001332D01*
X004078Y001332D02*
X004196Y001332D01*
X004196Y001234D02*
X004089Y001234D01*
X004089Y001135D02*
X004196Y001135D01*
X004196Y001037D02*
X004089Y001037D01*
X004089Y000938D02*
X004264Y000938D01*
X004196Y000544D02*
X004089Y000544D01*
X004084Y000446D02*
X004196Y000446D01*
X004214Y000347D02*
X004001Y000347D01*
X004911Y000347D02*
X010343Y000347D01*
X010483Y000446D02*
X004929Y000446D01*
X004929Y000544D02*
X010555Y000544D01*
X008913Y001628D02*
X008813Y001628D01*
X008813Y001726D02*
X008913Y001726D01*
X008913Y002120D02*
X008813Y002120D01*
X008813Y002219D02*
X008913Y002219D01*
X008913Y002317D02*
X008813Y002317D01*
X008813Y002416D02*
X008913Y002416D01*
X008913Y002514D02*
X008813Y002514D01*
X008332Y002514D02*
X008310Y002501D01*
X009393Y002514D02*
X009790Y002514D01*
X009692Y002416D02*
X009480Y002416D01*
X009485Y002317D02*
X009613Y002317D01*
X009613Y002219D02*
X009485Y002219D01*
X009485Y002120D02*
X010013Y002120D01*
X010013Y002219D02*
X010113Y002219D01*
X010113Y002317D02*
X010013Y002317D01*
X010013Y002416D02*
X010113Y002416D01*
X010113Y002514D02*
X010013Y002514D01*
X010513Y002022D02*
X010613Y002022D01*
X010613Y001923D02*
X010472Y001923D01*
X010374Y001825D02*
X010613Y001825D01*
X007997Y003401D02*
X007449Y003401D01*
X007350Y003499D02*
X008137Y003499D01*
X008240Y003598D02*
X007252Y003598D01*
X007091Y003696D02*
X008319Y003696D01*
D20*
X006163Y004400D02*
X005102Y003339D01*
X004563Y003339D01*
X004296Y003280D01*
X002713Y003261D02*
X002665Y003213D01*
X002534Y003159D01*
X002392Y003159D01*
X002261Y003213D01*
X002160Y003314D01*
X002106Y003445D01*
X002106Y003587D01*
X002160Y003718D01*
X002192Y003750D01*
X000813Y003750D01*
X000813Y001550D01*
X002192Y001550D01*
X002160Y001582D01*
X002106Y001713D01*
X002106Y001855D01*
X002160Y001986D01*
X002261Y002087D01*
X002392Y002141D01*
X002534Y002141D01*
X002665Y002087D01*
X002713Y002039D01*
X002713Y003261D01*
X002713Y003162D02*
X002540Y003162D01*
X002386Y003162D02*
X000813Y003162D01*
X000813Y003320D02*
X002157Y003320D01*
X002106Y003479D02*
X000813Y003479D01*
X000813Y003637D02*
X002126Y003637D01*
X002713Y003003D02*
X000813Y003003D01*
X000813Y002845D02*
X002713Y002845D01*
X002713Y002686D02*
X000813Y002686D01*
X000813Y002528D02*
X002713Y002528D01*
X002713Y002369D02*
X000813Y002369D01*
X000813Y002211D02*
X002713Y002211D01*
X002700Y002052D02*
X002713Y002052D01*
X002226Y002052D02*
X000813Y002052D01*
X000813Y001894D02*
X002122Y001894D01*
X002106Y001735D02*
X000813Y001735D01*
X000813Y001577D02*
X002165Y001577D01*
X004563Y001285D02*
X004563Y001961D01*
M02*
