G75*
G70*
%OFA0B0*%
%FSLAX24Y24*%
%IPPOS*%
%LPD*%
%AMOC8*
5,1,8,0,0,1.08239X$1,22.5*
%
%ADD10R,0.0984X0.0197*%
%ADD11R,0.0984X0.0787*%
%ADD12R,0.0600X0.0600*%
%ADD13OC8,0.0600*%
%ADD14R,0.0591X0.0591*%
%ADD15R,0.0394X0.0433*%
%ADD16R,0.0945X0.0630*%
%ADD17R,0.0433X0.0394*%
%ADD18C,0.0290*%
%ADD19C,0.0240*%
%ADD20C,0.0100*%
%ADD21C,0.0160*%
D10*
X003447Y002020D03*
X003447Y002335D03*
X003447Y002650D03*
X003447Y002965D03*
X003447Y003280D03*
D11*
X003447Y004422D03*
X001282Y004422D03*
X001282Y000878D03*
X003447Y000878D03*
D12*
X007063Y003050D03*
X007163Y004400D03*
X010063Y003050D03*
D13*
X010063Y002050D03*
X007063Y002050D03*
X006163Y004400D03*
X005163Y004400D03*
D14*
X004563Y003339D03*
X004563Y001961D03*
D15*
X005313Y001285D03*
X006113Y001285D03*
X006113Y000615D03*
X005313Y000615D03*
X007963Y002315D03*
X007963Y002985D03*
D16*
X008863Y003241D03*
X008863Y002059D03*
D17*
X004563Y001285D03*
X004563Y000615D03*
D18*
X005313Y001340D03*
D19*
X005313Y001285D01*
X006113Y001285D01*
X006113Y003350D01*
X007163Y004400D01*
X008207Y003241D02*
X008863Y003241D01*
X009863Y003250D01*
X010053Y003041D01*
X010063Y003050D01*
X008207Y003241D02*
X008007Y003041D01*
X007963Y002985D01*
X007928Y003050D01*
X007063Y003050D01*
D20*
X000763Y000375D02*
X000763Y000350D01*
X004213Y000350D01*
X004207Y000361D01*
X004196Y000399D01*
X004196Y000567D01*
X004514Y000567D01*
X004514Y000664D01*
X004196Y000664D01*
X004196Y000832D01*
X004207Y000870D01*
X004226Y000904D01*
X004254Y000932D01*
X004288Y000952D01*
X004327Y000962D01*
X004514Y000962D01*
X004514Y000664D01*
X004611Y000664D01*
X004611Y000962D01*
X004799Y000962D01*
X004837Y000952D01*
X004871Y000932D01*
X004899Y000904D01*
X004919Y000870D01*
X004929Y000832D01*
X004929Y000664D01*
X004611Y000664D01*
X004611Y000567D01*
X004929Y000567D01*
X004929Y000399D01*
X004919Y000361D01*
X004913Y000350D01*
X004974Y000350D01*
X004966Y000379D01*
X004966Y000567D01*
X005264Y000567D01*
X005264Y000664D01*
X004966Y000664D01*
X004966Y000852D01*
X004976Y000890D01*
X004996Y000924D01*
X005024Y000952D01*
X005057Y000971D01*
X005006Y001023D01*
X005006Y001547D01*
X005070Y001611D01*
X005555Y001611D01*
X005620Y001547D01*
X005620Y001515D01*
X005806Y001515D01*
X005806Y001547D01*
X005870Y001611D01*
X005883Y001611D01*
X005883Y003445D01*
X006753Y004315D01*
X006753Y004746D01*
X006817Y004810D01*
X007508Y004810D01*
X007573Y004746D01*
X007573Y004054D01*
X007508Y003990D01*
X007078Y003990D01*
X006343Y003255D01*
X006343Y001611D01*
X006355Y001611D01*
X006420Y001547D01*
X006420Y001023D01*
X006368Y000971D01*
X006402Y000952D01*
X006430Y000924D01*
X006449Y000890D01*
X006460Y000852D01*
X006460Y000664D01*
X006161Y000664D01*
X006161Y000567D01*
X006460Y000567D01*
X006460Y000379D01*
X006452Y000350D01*
X010163Y000350D01*
X010241Y000358D01*
X010385Y000417D01*
X010495Y000528D01*
X010555Y000672D01*
X010563Y000750D01*
X010563Y004550D01*
X010555Y004628D01*
X010495Y004772D01*
X010385Y004883D01*
X010241Y004942D01*
X010163Y004950D01*
X007963Y004950D01*
X000763Y004946D01*
X000763Y004925D01*
X001819Y004925D01*
X001884Y004861D01*
X001884Y003982D01*
X001819Y003918D01*
X000763Y003918D01*
X000763Y001382D01*
X001819Y001382D01*
X001884Y001318D01*
X001884Y000439D01*
X001819Y000375D01*
X000763Y000375D01*
X001884Y000446D02*
X002845Y000446D01*
X002845Y000439D02*
X002909Y000375D01*
X003985Y000375D01*
X004049Y000439D01*
X004049Y001318D01*
X003985Y001382D01*
X002909Y001382D01*
X002845Y001318D01*
X002845Y000439D01*
X002845Y000544D02*
X001884Y000544D01*
X001884Y000643D02*
X002845Y000643D01*
X002845Y000741D02*
X001884Y000741D01*
X001884Y000840D02*
X002845Y000840D01*
X002845Y000938D02*
X001884Y000938D01*
X001884Y001037D02*
X002845Y001037D01*
X002845Y001135D02*
X001884Y001135D01*
X001884Y001234D02*
X002845Y001234D01*
X002859Y001332D02*
X001869Y001332D01*
X002143Y001570D02*
X002249Y001464D01*
X002388Y001407D01*
X002538Y001407D01*
X002676Y001464D01*
X002783Y001570D01*
X002840Y001709D01*
X002840Y001824D01*
X002863Y001802D01*
X002897Y001782D01*
X002935Y001772D01*
X003447Y001772D01*
X003447Y002020D01*
X002805Y002020D01*
X002805Y001943D01*
X002783Y001998D01*
X002676Y002104D01*
X002538Y002161D01*
X002388Y002161D01*
X002249Y002104D01*
X002143Y001998D01*
X002086Y001859D01*
X002086Y001709D01*
X002143Y001570D01*
X002184Y001529D02*
X000763Y001529D01*
X000763Y001431D02*
X002330Y001431D01*
X002595Y001431D02*
X004236Y001431D01*
X004236Y001527D02*
X004236Y001042D01*
X004301Y000978D01*
X004825Y000978D01*
X004889Y001042D01*
X004889Y001527D01*
X004861Y001556D01*
X004904Y001556D01*
X004968Y001620D01*
X004968Y002302D01*
X004904Y002366D01*
X004222Y002366D01*
X004158Y002302D01*
X004158Y001620D01*
X004222Y001556D01*
X004265Y001556D01*
X004236Y001527D01*
X004238Y001529D02*
X002741Y001529D01*
X002806Y001628D02*
X004158Y001628D01*
X004158Y001726D02*
X002840Y001726D01*
X003447Y001772D02*
X003959Y001772D01*
X003997Y001782D01*
X004031Y001802D01*
X004059Y001830D01*
X004079Y001864D01*
X004089Y001902D01*
X004089Y002020D01*
X003447Y002020D01*
X003447Y002020D01*
X003447Y002020D01*
X002805Y002020D01*
X002805Y002138D01*
X002815Y002176D01*
X002835Y002211D01*
X002845Y002221D01*
X002845Y002479D01*
X002858Y002493D01*
X002845Y002506D01*
X002845Y002794D01*
X002858Y002807D01*
X002845Y002821D01*
X002845Y003109D01*
X002858Y003122D01*
X002845Y003136D01*
X002845Y003424D01*
X002909Y003488D01*
X003985Y003488D01*
X004003Y003470D01*
X004158Y003470D01*
X004158Y003680D01*
X004222Y003744D01*
X004904Y003744D01*
X004968Y003680D01*
X004968Y003529D01*
X005023Y003529D01*
X005753Y004259D01*
X005753Y004570D01*
X005993Y004810D01*
X006333Y004810D01*
X006573Y004570D01*
X006573Y004230D01*
X006333Y003990D01*
X006022Y003990D01*
X005181Y003149D01*
X004968Y003149D01*
X004968Y002998D01*
X004904Y002934D01*
X004222Y002934D01*
X004158Y002998D01*
X004158Y003090D01*
X004049Y003090D01*
X004049Y002821D01*
X004036Y002807D01*
X004049Y002794D01*
X004049Y002506D01*
X004036Y002493D01*
X004049Y002479D01*
X004049Y002221D01*
X004059Y002211D01*
X004079Y002176D01*
X004089Y002138D01*
X004089Y002020D01*
X003447Y002020D01*
X003447Y001772D01*
X003447Y001825D02*
X003447Y001825D01*
X003447Y001923D02*
X003447Y001923D01*
X003447Y002020D02*
X003447Y002020D01*
X002843Y002219D02*
X000763Y002219D01*
X000763Y002120D02*
X002289Y002120D01*
X002167Y002022D02*
X000763Y002022D01*
X000763Y001923D02*
X002112Y001923D01*
X002086Y001825D02*
X000763Y001825D01*
X000763Y001726D02*
X002086Y001726D01*
X002119Y001628D02*
X000763Y001628D01*
X000763Y002317D02*
X002845Y002317D01*
X002845Y002416D02*
X000763Y002416D01*
X000763Y002514D02*
X002845Y002514D01*
X002845Y002613D02*
X000763Y002613D01*
X000763Y002711D02*
X002845Y002711D01*
X002856Y002810D02*
X000763Y002810D01*
X000763Y002908D02*
X002845Y002908D01*
X002845Y003007D02*
X000763Y003007D01*
X000763Y003105D02*
X002845Y003105D01*
X002845Y003204D02*
X002684Y003204D01*
X002676Y003196D02*
X002783Y003302D01*
X002840Y003441D01*
X002840Y003591D01*
X002783Y003730D01*
X002676Y003836D01*
X002538Y003893D01*
X002388Y003893D01*
X002249Y003836D01*
X002143Y003730D01*
X002086Y003591D01*
X002086Y003441D01*
X002143Y003302D01*
X002249Y003196D01*
X002388Y003139D01*
X002538Y003139D01*
X002676Y003196D01*
X002782Y003302D02*
X002845Y003302D01*
X002845Y003401D02*
X002823Y003401D01*
X002840Y003499D02*
X004158Y003499D01*
X004158Y003598D02*
X002837Y003598D01*
X002797Y003696D02*
X004174Y003696D01*
X003985Y003918D02*
X004049Y003982D01*
X004049Y004861D01*
X003985Y004925D01*
X002909Y004925D01*
X002845Y004861D01*
X002845Y003982D01*
X002909Y003918D01*
X003985Y003918D01*
X004049Y003992D02*
X004991Y003992D01*
X004993Y003990D02*
X005333Y003990D01*
X005573Y004230D01*
X005573Y004570D01*
X005333Y004810D01*
X004993Y004810D01*
X004753Y004570D01*
X004753Y004230D01*
X004993Y003990D01*
X004893Y004090D02*
X004049Y004090D01*
X004049Y004189D02*
X004794Y004189D01*
X004753Y004287D02*
X004049Y004287D01*
X004049Y004386D02*
X004753Y004386D01*
X004753Y004484D02*
X004049Y004484D01*
X004049Y004583D02*
X004766Y004583D01*
X004864Y004681D02*
X004049Y004681D01*
X004049Y004780D02*
X004963Y004780D01*
X005363Y004780D02*
X005963Y004780D01*
X005864Y004681D02*
X005462Y004681D01*
X005560Y004583D02*
X005766Y004583D01*
X005753Y004484D02*
X005573Y004484D01*
X005573Y004386D02*
X005753Y004386D01*
X005753Y004287D02*
X005573Y004287D01*
X005531Y004189D02*
X005683Y004189D01*
X005584Y004090D02*
X005433Y004090D01*
X005486Y003992D02*
X005334Y003992D01*
X005387Y003893D02*
X002539Y003893D01*
X002387Y003893D02*
X000763Y003893D01*
X000763Y003795D02*
X002208Y003795D01*
X002129Y003696D02*
X000763Y003696D01*
X000763Y003598D02*
X002088Y003598D01*
X002086Y003499D02*
X000763Y003499D01*
X000763Y003401D02*
X002102Y003401D01*
X002144Y003302D02*
X000763Y003302D01*
X000763Y003204D02*
X002242Y003204D01*
X002718Y003795D02*
X005289Y003795D01*
X005190Y003696D02*
X004952Y003696D01*
X004968Y003598D02*
X005092Y003598D01*
X005432Y003401D02*
X005883Y003401D01*
X005883Y003302D02*
X005334Y003302D01*
X005235Y003204D02*
X005883Y003204D01*
X005883Y003105D02*
X004968Y003105D01*
X004968Y003007D02*
X005883Y003007D01*
X005883Y002908D02*
X004049Y002908D01*
X004038Y002810D02*
X005883Y002810D01*
X005883Y002711D02*
X004049Y002711D01*
X004049Y002613D02*
X005883Y002613D01*
X005883Y002514D02*
X004049Y002514D01*
X004049Y002416D02*
X005883Y002416D01*
X005883Y002317D02*
X004953Y002317D01*
X004968Y002219D02*
X005883Y002219D01*
X005883Y002120D02*
X004968Y002120D01*
X004968Y002022D02*
X005883Y002022D01*
X005883Y001923D02*
X004968Y001923D01*
X004968Y001825D02*
X005883Y001825D01*
X005883Y001726D02*
X004968Y001726D01*
X004968Y001628D02*
X005883Y001628D01*
X005806Y001529D02*
X005620Y001529D01*
X005006Y001529D02*
X004887Y001529D01*
X004889Y001431D02*
X005006Y001431D01*
X005006Y001332D02*
X004889Y001332D01*
X004889Y001234D02*
X005006Y001234D01*
X005006Y001135D02*
X004889Y001135D01*
X004884Y001037D02*
X005006Y001037D01*
X005010Y000938D02*
X004861Y000938D01*
X004927Y000840D02*
X004966Y000840D01*
X004966Y000741D02*
X004929Y000741D01*
X004929Y000544D02*
X004966Y000544D01*
X004966Y000446D02*
X004929Y000446D01*
X004611Y000643D02*
X005264Y000643D01*
X005361Y000643D02*
X006064Y000643D01*
X006064Y000664D02*
X006064Y000567D01*
X005766Y000567D01*
X005766Y000379D01*
X005774Y000350D01*
X005652Y000350D01*
X005660Y000379D01*
X005660Y000567D01*
X005361Y000567D01*
X005361Y000664D01*
X005660Y000664D01*
X005660Y000852D01*
X005649Y000890D01*
X005630Y000924D01*
X005602Y000952D01*
X005568Y000971D01*
X005620Y001023D01*
X005620Y001055D01*
X005806Y001055D01*
X005806Y001023D01*
X005857Y000971D01*
X005824Y000952D01*
X005796Y000924D01*
X005776Y000890D01*
X005766Y000852D01*
X005766Y000664D01*
X006064Y000664D01*
X006161Y000643D02*
X010543Y000643D01*
X010562Y000741D02*
X006460Y000741D01*
X006460Y000840D02*
X010563Y000840D01*
X010563Y000938D02*
X006416Y000938D01*
X006420Y001037D02*
X010563Y001037D01*
X010563Y001135D02*
X006420Y001135D01*
X006420Y001234D02*
X010563Y001234D01*
X010563Y001332D02*
X006420Y001332D01*
X006420Y001431D02*
X010563Y001431D01*
X010563Y001529D02*
X006420Y001529D01*
X006343Y001628D02*
X006849Y001628D01*
X006876Y001600D02*
X006613Y001864D01*
X006613Y002000D01*
X007013Y002000D01*
X007113Y002000D01*
X007113Y002100D01*
X007513Y002100D01*
X007513Y002236D01*
X007249Y002500D01*
X007113Y002500D01*
X007113Y002100D01*
X007013Y002100D01*
X007013Y002500D01*
X006876Y002500D01*
X006613Y002236D01*
X006613Y002100D01*
X007013Y002100D01*
X007013Y002000D01*
X007013Y001600D01*
X006876Y001600D01*
X007013Y001628D02*
X007113Y001628D01*
X007113Y001600D02*
X007249Y001600D01*
X007513Y001864D01*
X007513Y002000D01*
X007113Y002000D01*
X007113Y001600D01*
X007277Y001628D02*
X008295Y001628D01*
X008298Y001624D02*
X008332Y001605D01*
X008371Y001594D01*
X008813Y001594D01*
X008813Y002009D01*
X008913Y002009D01*
X008913Y001594D01*
X009355Y001594D01*
X009393Y001605D01*
X009427Y001624D01*
X009455Y001652D01*
X009475Y001687D01*
X009485Y001725D01*
X009485Y002009D01*
X008913Y002009D01*
X008913Y002109D01*
X009485Y002109D01*
X009485Y002394D01*
X009475Y002432D01*
X009455Y002467D01*
X009427Y002494D01*
X009393Y002514D01*
X009355Y002524D01*
X008913Y002524D01*
X008913Y002109D01*
X008813Y002109D01*
X008813Y002524D01*
X008371Y002524D01*
X008332Y002514D01*
X008310Y002514D01*
X008310Y002501D02*
X008310Y002552D01*
X008299Y002590D01*
X008280Y002624D01*
X008252Y002652D01*
X008218Y002671D01*
X008270Y002723D01*
X008270Y002978D01*
X008280Y002989D01*
X008280Y002880D01*
X008345Y002816D01*
X009381Y002816D01*
X009445Y002880D01*
X009445Y003016D01*
X009653Y003018D01*
X009653Y002704D01*
X009717Y002640D01*
X010408Y002640D01*
X010473Y002704D01*
X010473Y003396D01*
X010408Y003460D01*
X009983Y003460D01*
X009969Y003475D01*
X009961Y003476D01*
X009956Y003481D01*
X009867Y003480D01*
X009779Y003484D01*
X009773Y003479D01*
X009445Y003476D01*
X009445Y003601D01*
X009381Y003666D01*
X008345Y003666D01*
X008280Y003601D01*
X008280Y003471D01*
X008112Y003471D01*
X007977Y003336D01*
X007952Y003311D01*
X007720Y003311D01*
X007689Y003280D01*
X007473Y003280D01*
X007473Y003396D01*
X007408Y003460D01*
X006717Y003460D01*
X006653Y003396D01*
X006653Y002704D01*
X006717Y002640D01*
X007408Y002640D01*
X007473Y002704D01*
X007473Y002820D01*
X007656Y002820D01*
X007656Y002723D01*
X007707Y002671D01*
X007674Y002652D01*
X007646Y002624D01*
X007626Y002590D01*
X007616Y002552D01*
X007616Y002364D01*
X007914Y002364D01*
X007914Y002267D01*
X007616Y002267D01*
X007616Y002079D01*
X007626Y002041D01*
X007646Y002007D01*
X007674Y001979D01*
X007708Y001959D01*
X007746Y001949D01*
X007914Y001949D01*
X007914Y002267D01*
X008011Y002267D01*
X008011Y001949D01*
X008179Y001949D01*
X008218Y001959D01*
X008240Y001972D01*
X008240Y001725D01*
X008251Y001687D01*
X008270Y001652D01*
X008298Y001624D01*
X008240Y001726D02*
X007375Y001726D01*
X007474Y001825D02*
X008240Y001825D01*
X008240Y001923D02*
X007513Y001923D01*
X007637Y002022D02*
X007113Y002022D01*
X007013Y002022D02*
X006343Y002022D01*
X006343Y002120D02*
X006613Y002120D01*
X006613Y002219D02*
X006343Y002219D01*
X006343Y002317D02*
X006693Y002317D01*
X006792Y002416D02*
X006343Y002416D01*
X006343Y002514D02*
X007616Y002514D01*
X007616Y002416D02*
X007334Y002416D01*
X007432Y002317D02*
X007914Y002317D01*
X007914Y002219D02*
X008011Y002219D01*
X008011Y002120D02*
X007914Y002120D01*
X007914Y002022D02*
X008011Y002022D01*
X007616Y002120D02*
X007513Y002120D01*
X007513Y002219D02*
X007616Y002219D01*
X007113Y002219D02*
X007013Y002219D01*
X007013Y002120D02*
X007113Y002120D01*
X007113Y002317D02*
X007013Y002317D01*
X007013Y002416D02*
X007113Y002416D01*
X007639Y002613D02*
X006343Y002613D01*
X006343Y002711D02*
X006653Y002711D01*
X006653Y002810D02*
X006343Y002810D01*
X006343Y002908D02*
X006653Y002908D01*
X006653Y003007D02*
X006343Y003007D01*
X006343Y003105D02*
X006653Y003105D01*
X006653Y003204D02*
X006343Y003204D01*
X006390Y003302D02*
X006653Y003302D01*
X006658Y003401D02*
X006489Y003401D01*
X006587Y003499D02*
X008280Y003499D01*
X008280Y003598D02*
X006686Y003598D01*
X006784Y003696D02*
X010563Y003696D01*
X010563Y003598D02*
X009445Y003598D01*
X009445Y003499D02*
X010563Y003499D01*
X010563Y003401D02*
X010468Y003401D01*
X010473Y003302D02*
X010563Y003302D01*
X010563Y003204D02*
X010473Y003204D01*
X010473Y003105D02*
X010563Y003105D01*
X010563Y003007D02*
X010473Y003007D01*
X010473Y002908D02*
X010563Y002908D01*
X010563Y002810D02*
X010473Y002810D01*
X010473Y002711D02*
X010563Y002711D01*
X010563Y002613D02*
X008286Y002613D01*
X008258Y002711D02*
X009653Y002711D01*
X009653Y002810D02*
X008270Y002810D01*
X008270Y002908D02*
X008280Y002908D01*
X007656Y002810D02*
X007473Y002810D01*
X007473Y002711D02*
X007668Y002711D01*
X008310Y002501D02*
X008332Y002514D01*
X008813Y002514D02*
X008913Y002514D01*
X008913Y002416D02*
X008813Y002416D01*
X008813Y002317D02*
X008913Y002317D01*
X008913Y002219D02*
X008813Y002219D01*
X008813Y002120D02*
X008913Y002120D01*
X008913Y002022D02*
X010013Y002022D01*
X010013Y002000D02*
X009613Y002000D01*
X009613Y001864D01*
X009876Y001600D01*
X010013Y001600D01*
X010013Y002000D01*
X010113Y002000D01*
X010113Y002100D01*
X010513Y002100D01*
X010513Y002236D01*
X010249Y002500D01*
X010113Y002500D01*
X010113Y002100D01*
X010013Y002100D01*
X010013Y002500D01*
X009876Y002500D01*
X009613Y002236D01*
X009613Y002100D01*
X010013Y002100D01*
X010013Y002000D01*
X010013Y001923D02*
X010113Y001923D01*
X010113Y002000D02*
X010113Y001600D01*
X010249Y001600D01*
X010513Y001864D01*
X010513Y002000D01*
X010113Y002000D01*
X010113Y002022D02*
X010563Y002022D01*
X010563Y002120D02*
X010513Y002120D01*
X010513Y002219D02*
X010563Y002219D01*
X010563Y002317D02*
X010432Y002317D01*
X010334Y002416D02*
X010563Y002416D01*
X010563Y002514D02*
X009393Y002514D01*
X009480Y002416D02*
X009792Y002416D01*
X009693Y002317D02*
X009485Y002317D01*
X009485Y002219D02*
X009613Y002219D01*
X009613Y002120D02*
X009485Y002120D01*
X009485Y001923D02*
X009613Y001923D01*
X009652Y001825D02*
X009485Y001825D01*
X009485Y001726D02*
X009750Y001726D01*
X009849Y001628D02*
X009430Y001628D01*
X008913Y001628D02*
X008813Y001628D01*
X008813Y001726D02*
X008913Y001726D01*
X008913Y001825D02*
X008813Y001825D01*
X008813Y001923D02*
X008913Y001923D01*
X010013Y001825D02*
X010113Y001825D01*
X010113Y001726D02*
X010013Y001726D01*
X010013Y001628D02*
X010113Y001628D01*
X010277Y001628D02*
X010563Y001628D01*
X010563Y001726D02*
X010375Y001726D01*
X010474Y001825D02*
X010563Y001825D01*
X010563Y001923D02*
X010513Y001923D01*
X010113Y002120D02*
X010013Y002120D01*
X010013Y002219D02*
X010113Y002219D01*
X010113Y002317D02*
X010013Y002317D01*
X010013Y002416D02*
X010113Y002416D01*
X009653Y002908D02*
X009445Y002908D01*
X009445Y003007D02*
X009653Y003007D01*
X010563Y003795D02*
X006883Y003795D01*
X006981Y003893D02*
X010563Y003893D01*
X010563Y003992D02*
X007510Y003992D01*
X007573Y004090D02*
X010563Y004090D01*
X010563Y004189D02*
X007573Y004189D01*
X007573Y004287D02*
X010563Y004287D01*
X010563Y004386D02*
X007573Y004386D01*
X007573Y004484D02*
X010563Y004484D01*
X010560Y004583D02*
X007573Y004583D01*
X007573Y004681D02*
X010533Y004681D01*
X010488Y004780D02*
X007539Y004780D01*
X006787Y004780D02*
X006363Y004780D01*
X006462Y004681D02*
X006753Y004681D01*
X006753Y004583D02*
X006560Y004583D01*
X006573Y004484D02*
X006753Y004484D01*
X006753Y004386D02*
X006573Y004386D01*
X006573Y004287D02*
X006725Y004287D01*
X006626Y004189D02*
X006531Y004189D01*
X006528Y004090D02*
X006433Y004090D01*
X006429Y003992D02*
X006334Y003992D01*
X006331Y003893D02*
X005925Y003893D01*
X005826Y003795D02*
X006232Y003795D01*
X006134Y003696D02*
X005728Y003696D01*
X005629Y003598D02*
X006035Y003598D01*
X005937Y003499D02*
X005531Y003499D01*
X004158Y003007D02*
X004049Y003007D01*
X004049Y002317D02*
X004173Y002317D01*
X004158Y002219D02*
X004051Y002219D01*
X004089Y002120D02*
X004158Y002120D01*
X004158Y002022D02*
X004089Y002022D01*
X004089Y001923D02*
X004158Y001923D01*
X004158Y001825D02*
X004054Y001825D01*
X004035Y001332D02*
X004236Y001332D01*
X004236Y001234D02*
X004049Y001234D01*
X004049Y001135D02*
X004236Y001135D01*
X004242Y001037D02*
X004049Y001037D01*
X004049Y000938D02*
X004264Y000938D01*
X004198Y000840D02*
X004049Y000840D01*
X004049Y000741D02*
X004196Y000741D01*
X004049Y000643D02*
X004514Y000643D01*
X004514Y000741D02*
X004611Y000741D01*
X004611Y000840D02*
X004514Y000840D01*
X004514Y000938D02*
X004611Y000938D01*
X004196Y000544D02*
X004049Y000544D01*
X004049Y000446D02*
X004196Y000446D01*
X005660Y000446D02*
X005766Y000446D01*
X005766Y000544D02*
X005660Y000544D01*
X005660Y000741D02*
X005766Y000741D01*
X005766Y000840D02*
X005660Y000840D01*
X005616Y000938D02*
X005810Y000938D01*
X005806Y001037D02*
X005620Y001037D01*
X006460Y000544D02*
X010502Y000544D01*
X010413Y000446D02*
X006460Y000446D01*
X006343Y001726D02*
X006750Y001726D01*
X006652Y001825D02*
X006343Y001825D01*
X006343Y001923D02*
X006613Y001923D01*
X007013Y001923D02*
X007113Y001923D01*
X007113Y001825D02*
X007013Y001825D01*
X007013Y001726D02*
X007113Y001726D01*
X007473Y003302D02*
X007711Y003302D01*
X007468Y003401D02*
X008042Y003401D01*
X010390Y004878D02*
X004032Y004878D01*
X002862Y004878D02*
X001867Y004878D01*
X001884Y004780D02*
X002845Y004780D01*
X002845Y004681D02*
X001884Y004681D01*
X001884Y004583D02*
X002845Y004583D01*
X002845Y004484D02*
X001884Y004484D01*
X001884Y004386D02*
X002845Y004386D01*
X002845Y004287D02*
X001884Y004287D01*
X001884Y004189D02*
X002845Y004189D01*
X002845Y004090D02*
X001884Y004090D01*
X001884Y003992D02*
X002845Y003992D01*
X002805Y002120D02*
X002637Y002120D01*
X002759Y002022D02*
X002805Y002022D01*
D21*
X004563Y001961D02*
X004563Y001285D01*
X004296Y003280D02*
X003447Y003280D01*
X004296Y003280D02*
X004563Y003339D01*
X005102Y003339D01*
X006163Y004400D01*
M02*
