G75*
G70*
%OFA0B0*%
%FSLAX24Y24*%
%IPPOS*%
%LPD*%
%AMOC8*
5,1,8,0,0,1.08239X$1,22.5*
%
%ADD10C,0.0080*%
%ADD11R,0.0167X0.0128*%
%ADD12R,0.0138X0.0138*%
D10*
X001951Y001209D02*
X002778Y001209D01*
X003762Y001485D02*
X003762Y001839D01*
X004263Y001955D02*
X004513Y002205D01*
X004263Y002455D01*
X004263Y002955D01*
X004513Y003205D01*
X004263Y003455D01*
X004263Y003955D01*
X004513Y004205D01*
X005013Y004205D01*
X005263Y003955D01*
X005263Y003455D01*
X005013Y003205D01*
X005263Y002955D01*
X005263Y002455D01*
X005013Y002205D01*
X005263Y001955D01*
X005263Y001455D01*
X005013Y001205D01*
X004513Y001205D01*
X004263Y001455D01*
X004263Y001955D01*
X004513Y002205D02*
X005013Y002205D01*
X005398Y002262D02*
X005398Y002048D01*
X005451Y001995D01*
X005558Y001995D01*
X005611Y002048D01*
X005611Y002155D01*
X005505Y002155D01*
X005611Y002262D02*
X005558Y002315D01*
X005451Y002315D01*
X005398Y002262D01*
X005766Y002315D02*
X005980Y001995D01*
X005980Y002315D01*
X006135Y002315D02*
X006295Y002315D01*
X006348Y002262D01*
X006348Y002048D01*
X006295Y001995D01*
X006135Y001995D01*
X006135Y002315D01*
X005766Y002315D02*
X005766Y001995D01*
X006563Y001955D02*
X006563Y002455D01*
X006813Y002705D01*
X006563Y002955D01*
X006563Y003455D01*
X006813Y003705D01*
X007313Y003705D01*
X007563Y003455D01*
X007563Y002955D01*
X007313Y002705D01*
X007563Y002455D01*
X007563Y001955D01*
X007313Y001705D01*
X006813Y001705D01*
X006563Y001955D01*
X006813Y002705D02*
X007313Y002705D01*
X006348Y003048D02*
X006295Y002995D01*
X006188Y002995D01*
X006135Y003048D01*
X006135Y003262D01*
X006188Y003315D01*
X006295Y003315D01*
X006348Y003262D01*
X005980Y003262D02*
X005926Y003315D01*
X005820Y003315D01*
X005766Y003262D01*
X005766Y003048D01*
X005820Y002995D01*
X005926Y002995D01*
X005980Y003048D01*
X005611Y003102D02*
X005611Y003315D01*
X005398Y003315D02*
X005398Y003102D01*
X005505Y002995D01*
X005611Y003102D01*
X005013Y003205D02*
X004513Y003205D01*
X003762Y003571D02*
X003762Y003925D01*
X004303Y004398D02*
X004356Y004345D01*
X004463Y004345D01*
X004516Y004398D01*
X004516Y004452D01*
X004463Y004505D01*
X004410Y004505D01*
X004463Y004505D02*
X004516Y004559D01*
X004516Y004612D01*
X004463Y004665D01*
X004356Y004665D01*
X004303Y004612D01*
X004671Y004665D02*
X004671Y004452D01*
X004778Y004345D01*
X004885Y004452D01*
X004885Y004665D01*
X005039Y004612D02*
X005093Y004665D01*
X005200Y004665D01*
X005253Y004612D01*
X005253Y004559D01*
X005200Y004505D01*
X005253Y004452D01*
X005253Y004398D01*
X005200Y004345D01*
X005093Y004345D01*
X005039Y004398D01*
X005146Y004505D02*
X005200Y004505D01*
X005703Y004565D02*
X005773Y004495D01*
X005913Y004495D01*
X005983Y004635D02*
X005703Y004635D01*
X005703Y004565D02*
X005703Y004705D01*
X005773Y004775D01*
X005913Y004775D01*
X005983Y004705D01*
X005983Y004635D01*
X006163Y004635D02*
X006443Y004635D01*
X006443Y004705D01*
X006373Y004775D01*
X006233Y004775D01*
X006163Y004705D01*
X006163Y004565D01*
X006233Y004495D01*
X006373Y004495D01*
X006624Y004495D02*
X006904Y004495D01*
X007084Y004565D02*
X007084Y004705D01*
X007154Y004775D01*
X007294Y004775D01*
X007364Y004705D01*
X007364Y004635D01*
X007084Y004635D01*
X007084Y004565D02*
X007154Y004495D01*
X007294Y004495D01*
X007544Y004565D02*
X007544Y004705D01*
X007614Y004775D01*
X007755Y004775D01*
X007825Y004705D01*
X007825Y004635D01*
X007544Y004635D01*
X007544Y004565D02*
X007614Y004495D01*
X007755Y004495D01*
X007801Y004265D02*
X007587Y003945D01*
X007433Y003945D02*
X007273Y003945D01*
X007219Y003998D01*
X007219Y004105D01*
X007273Y004159D01*
X007433Y004159D01*
X007433Y004265D02*
X007433Y003945D01*
X007064Y003945D02*
X006904Y003945D01*
X006851Y003998D01*
X006851Y004105D01*
X006904Y004159D01*
X007064Y004159D01*
X007064Y003892D01*
X007011Y003838D01*
X006958Y003838D01*
X006720Y003945D02*
X006667Y003945D01*
X006667Y003998D01*
X006720Y003998D01*
X006720Y003945D01*
X006512Y003998D02*
X006459Y004052D01*
X006352Y004052D01*
X006298Y004105D01*
X006352Y004159D01*
X006512Y004159D01*
X006512Y003998D02*
X006459Y003945D01*
X006298Y003945D01*
X006160Y003945D02*
X006053Y003945D01*
X006106Y003945D02*
X006106Y004159D01*
X006053Y004159D01*
X006106Y004265D02*
X006106Y004319D01*
X006624Y004495D02*
X006624Y004565D01*
X006904Y004845D01*
X006904Y004915D01*
X006624Y004915D01*
X007956Y004105D02*
X008009Y004159D01*
X008116Y004159D01*
X008169Y004105D01*
X008169Y004052D01*
X007956Y004052D01*
X007956Y004105D02*
X007956Y003998D01*
X008009Y003945D01*
X008116Y003945D01*
X008324Y003945D02*
X008538Y003945D01*
X008692Y003945D02*
X008853Y003945D01*
X008906Y003998D01*
X008906Y004105D01*
X008853Y004159D01*
X008692Y004159D01*
X008692Y003838D01*
X008538Y004159D02*
X008324Y003945D01*
X008324Y004159D02*
X008538Y004159D01*
X009061Y004105D02*
X009061Y003998D01*
X009114Y003945D01*
X009221Y003945D01*
X009274Y003998D01*
X009274Y004105D01*
X009221Y004159D01*
X009114Y004159D01*
X009061Y004105D01*
X009429Y004159D02*
X009429Y003998D01*
X009482Y003945D01*
X009536Y003998D01*
X009589Y003945D01*
X009643Y003998D01*
X009643Y004159D01*
X009797Y004105D02*
X009851Y004159D01*
X009958Y004159D01*
X010011Y004105D01*
X010011Y004052D01*
X009797Y004052D01*
X009797Y004105D02*
X009797Y003998D01*
X009851Y003945D01*
X009958Y003945D01*
X010166Y003945D02*
X010166Y004159D01*
X010272Y004159D02*
X010326Y004159D01*
X010272Y004159D02*
X010166Y004052D01*
X010313Y003705D02*
X009813Y003705D01*
X009563Y003455D01*
X009563Y002955D01*
X009813Y002705D01*
X009563Y002455D01*
X009563Y001955D01*
X009813Y001705D01*
X010313Y001705D01*
X010563Y001955D01*
X010563Y002455D01*
X010313Y002705D01*
X009813Y002705D01*
X010313Y002705D02*
X010563Y002955D01*
X010563Y003455D01*
X010313Y003705D01*
X010307Y004495D02*
X010307Y004775D01*
X010447Y004775D02*
X010517Y004775D01*
X010447Y004775D02*
X010307Y004635D01*
X010127Y004635D02*
X009846Y004635D01*
X009846Y004565D02*
X009846Y004705D01*
X009916Y004775D01*
X010057Y004775D01*
X010127Y004705D01*
X010127Y004635D01*
X010057Y004495D02*
X009916Y004495D01*
X009846Y004565D01*
X009666Y004565D02*
X009666Y004775D01*
X009386Y004775D02*
X009386Y004565D01*
X009456Y004495D01*
X009526Y004565D01*
X009596Y004495D01*
X009666Y004565D01*
X009206Y004565D02*
X009206Y004705D01*
X009136Y004775D01*
X008996Y004775D01*
X008926Y004705D01*
X008926Y004565D01*
X008996Y004495D01*
X009136Y004495D01*
X009206Y004565D01*
X008745Y004705D02*
X008675Y004635D01*
X008465Y004635D01*
X008465Y004495D02*
X008465Y004915D01*
X008675Y004915D01*
X008745Y004845D01*
X008745Y004705D01*
X002778Y004201D02*
X001951Y004201D01*
X004466Y001065D02*
X004466Y000852D01*
X004573Y000745D01*
X004680Y000852D01*
X004680Y001065D01*
X004835Y001065D02*
X004835Y000798D01*
X004888Y000745D01*
X004995Y000745D01*
X005048Y000798D01*
X005048Y001065D01*
X008903Y001115D02*
X008903Y000695D01*
X008903Y000835D02*
X009113Y000835D01*
X009183Y000905D01*
X009183Y001045D01*
X009113Y001115D01*
X008903Y001115D01*
X009363Y001045D02*
X009433Y001115D01*
X009573Y001115D01*
X009643Y001045D01*
X009363Y000765D01*
X009433Y000695D01*
X009573Y000695D01*
X009643Y000765D01*
X009643Y001045D01*
X009363Y001045D02*
X009363Y000765D01*
X009183Y000695D02*
X009043Y000835D01*
X009824Y000765D02*
X009824Y000695D01*
X009894Y000695D01*
X009894Y000765D01*
X009824Y000765D01*
X010054Y000765D02*
X010124Y000695D01*
X010264Y000695D01*
X010334Y000765D01*
X010334Y000905D01*
X010264Y000975D01*
X010194Y000975D01*
X010054Y000905D01*
X010054Y001115D01*
X010334Y001115D01*
D11*
X006684Y001076D03*
X006684Y000534D03*
D12*
X006532Y000805D03*
M02*
