G75*
G70*
%OFA0B0*%
%FSLAX24Y24*%
%IPPOS*%
%LPD*%
%AMOC8*
5,1,8,0,0,1.08239X$1,22.5*
%
%ADD10C,0.0080*%
%ADD11R,0.0079X0.0079*%
D10*
X001951Y001154D02*
X002778Y001154D01*
X003762Y001430D02*
X003762Y001784D01*
X004953Y001275D02*
X005193Y001275D01*
X005193Y001195D02*
X005193Y001355D01*
X005033Y001195D02*
X004953Y001275D01*
X004993Y001061D02*
X005073Y001061D01*
X005113Y001021D01*
X005113Y000901D01*
X005113Y000981D02*
X005193Y001061D01*
X004993Y001061D02*
X004953Y001021D01*
X004953Y000901D01*
X005193Y000901D01*
X005603Y000750D02*
X005673Y000820D01*
X005813Y000820D01*
X005883Y000750D01*
X005883Y000680D01*
X005603Y000680D01*
X005603Y000610D02*
X005603Y000750D01*
X005603Y000610D02*
X005673Y000540D01*
X005813Y000540D01*
X006063Y000610D02*
X006063Y000750D01*
X006133Y000820D01*
X006273Y000820D01*
X006343Y000750D01*
X006343Y000680D01*
X006063Y000680D01*
X006063Y000610D02*
X006133Y000540D01*
X006273Y000540D01*
X006524Y000540D02*
X006804Y000540D01*
X006984Y000610D02*
X006984Y000750D01*
X007054Y000820D01*
X007194Y000820D01*
X007264Y000750D01*
X007264Y000680D01*
X006984Y000680D01*
X006984Y000610D02*
X007054Y000540D01*
X007194Y000540D01*
X007444Y000610D02*
X007514Y000540D01*
X007655Y000540D01*
X007725Y000680D02*
X007444Y000680D01*
X007444Y000610D02*
X007444Y000750D01*
X007514Y000820D01*
X007655Y000820D01*
X007725Y000750D01*
X007725Y000680D01*
X008365Y000680D02*
X008575Y000680D01*
X008645Y000750D01*
X008645Y000890D01*
X008575Y000960D01*
X008365Y000960D01*
X008365Y000540D01*
X008826Y000610D02*
X008826Y000750D01*
X008896Y000820D01*
X009036Y000820D01*
X009106Y000750D01*
X009106Y000610D01*
X009036Y000540D01*
X008896Y000540D01*
X008826Y000610D01*
X009286Y000610D02*
X009356Y000540D01*
X009426Y000610D01*
X009496Y000540D01*
X009566Y000610D01*
X009566Y000820D01*
X009746Y000750D02*
X009816Y000820D01*
X009957Y000820D01*
X010027Y000750D01*
X010027Y000680D01*
X009746Y000680D01*
X009746Y000610D02*
X009746Y000750D01*
X009746Y000610D02*
X009816Y000540D01*
X009957Y000540D01*
X010207Y000540D02*
X010207Y000820D01*
X010347Y000820D02*
X010417Y000820D01*
X010347Y000820D02*
X010207Y000680D01*
X009286Y000610D02*
X009286Y000820D01*
X008173Y001457D02*
X008119Y001403D01*
X007906Y001403D01*
X007853Y001457D01*
X007853Y001564D01*
X007906Y001617D01*
X008119Y001617D02*
X008173Y001564D01*
X008173Y001457D01*
X008013Y001772D02*
X008013Y001985D01*
X008173Y001932D02*
X007853Y001932D01*
X008013Y001772D01*
X007563Y001800D02*
X007313Y001550D01*
X006813Y001550D01*
X006563Y001800D01*
X006563Y002300D01*
X006813Y002550D01*
X006563Y002800D01*
X006563Y003300D01*
X006813Y003550D01*
X007313Y003550D01*
X007563Y003300D01*
X007563Y002800D01*
X007313Y002550D01*
X007563Y002300D01*
X007563Y001800D01*
X006323Y001910D02*
X006253Y001840D01*
X006042Y001840D01*
X006042Y002260D01*
X006253Y002260D01*
X006323Y002190D01*
X006323Y001910D01*
X005862Y001840D02*
X005862Y002260D01*
X005582Y002260D02*
X005862Y001840D01*
X005582Y001840D02*
X005582Y002260D01*
X005402Y002190D02*
X005332Y002260D01*
X005192Y002260D01*
X005122Y002190D01*
X005122Y001910D01*
X005192Y001840D01*
X005332Y001840D01*
X005402Y001910D01*
X005402Y002050D01*
X005262Y002050D01*
X006813Y002550D02*
X007313Y002550D01*
X006323Y002910D02*
X006253Y002840D01*
X006112Y002840D01*
X006042Y002910D01*
X006042Y003190D01*
X006112Y003260D01*
X006253Y003260D01*
X006323Y003190D01*
X005862Y003190D02*
X005792Y003260D01*
X005652Y003260D01*
X005582Y003190D01*
X005582Y002910D01*
X005652Y002840D01*
X005792Y002840D01*
X005862Y002910D01*
X005402Y002980D02*
X005402Y003260D01*
X005122Y003260D02*
X005122Y002980D01*
X005262Y002840D01*
X005402Y002980D01*
X003762Y003516D02*
X003762Y003870D01*
X004153Y003993D02*
X004153Y004100D01*
X004206Y004154D01*
X004259Y004154D01*
X004313Y004100D01*
X004366Y004154D01*
X004419Y004154D01*
X004473Y004100D01*
X004473Y003993D01*
X004419Y003940D01*
X004313Y004047D02*
X004313Y004100D01*
X004206Y003940D02*
X004153Y003993D01*
X004663Y004150D02*
X004663Y004650D01*
X004913Y004900D01*
X005413Y004900D01*
X005663Y004650D01*
X005913Y004900D01*
X006413Y004900D01*
X006663Y004650D01*
X006913Y004900D01*
X007413Y004900D01*
X007663Y004650D01*
X007663Y004150D01*
X007413Y003900D01*
X006913Y003900D01*
X006663Y004150D01*
X006413Y003900D01*
X005913Y003900D01*
X005663Y004150D01*
X005413Y003900D01*
X004913Y003900D01*
X004663Y004150D01*
X004473Y004415D02*
X004366Y004308D01*
X004153Y004308D01*
X004366Y004522D02*
X004473Y004415D01*
X004366Y004522D02*
X004153Y004522D01*
X004206Y004677D02*
X004153Y004730D01*
X004153Y004837D01*
X004206Y004890D01*
X004259Y004890D01*
X004313Y004837D01*
X004366Y004890D01*
X004419Y004890D01*
X004473Y004837D01*
X004473Y004730D01*
X004419Y004677D01*
X004313Y004783D02*
X004313Y004837D01*
X005663Y004650D02*
X005663Y004150D01*
X006663Y004150D02*
X006663Y004650D01*
X007853Y004585D02*
X008119Y004585D01*
X008173Y004532D01*
X008173Y004425D01*
X008119Y004372D01*
X007853Y004372D01*
X007853Y004217D02*
X008066Y004217D01*
X008173Y004110D01*
X008066Y004003D01*
X007853Y004003D01*
X008553Y003807D02*
X008553Y003593D01*
X008606Y003540D01*
X008713Y003540D01*
X008766Y003593D01*
X008921Y003540D02*
X009135Y003754D01*
X009135Y003807D01*
X009081Y003860D01*
X008975Y003860D01*
X008921Y003807D01*
X008766Y003807D02*
X008713Y003860D01*
X008606Y003860D01*
X008553Y003807D01*
X008921Y003540D02*
X009135Y003540D01*
X009563Y003300D02*
X009563Y002800D01*
X009813Y002550D01*
X009563Y002300D01*
X009563Y001800D01*
X009813Y001550D01*
X010313Y001550D01*
X010563Y001800D01*
X010563Y002300D01*
X010313Y002550D01*
X009813Y002550D01*
X010313Y002550D02*
X010563Y002800D01*
X010563Y003300D01*
X010313Y003550D01*
X009813Y003550D01*
X009563Y003300D01*
X006804Y000960D02*
X006524Y000960D01*
X006804Y000960D02*
X006804Y000890D01*
X006524Y000610D01*
X006524Y000540D01*
X002778Y004146D02*
X001951Y004146D01*
D11*
X004513Y002611D03*
M02*
