G75*
G70*
%OFA0B0*%
%FSLAX24Y24*%
%IPPOS*%
%LPD*%
%AMOC8*
5,1,8,0,0,1.08239X$1,22.5*
%
%ADD10OC8,0.0660*%
%ADD11OC8,0.0600*%
%ADD12OC8,0.0709*%
%ADD13R,0.0260X0.0866*%
%ADD14C,0.0100*%
%ADD15C,0.0160*%
%ADD16C,0.0270*%
%ADD17C,0.0120*%
D10*
X008850Y003850D03*
X009850Y003850D03*
X009850Y004850D03*
X008850Y004850D03*
X008850Y005850D03*
X009850Y005850D03*
D11*
X006850Y005850D03*
X005850Y005850D03*
X004850Y005850D03*
X003850Y005850D03*
X002850Y005850D03*
X001850Y005850D03*
X000850Y005850D03*
X000850Y003850D03*
X000850Y002850D03*
X000850Y000850D03*
X001850Y000850D03*
X002850Y000850D03*
X003850Y000850D03*
X004850Y000850D03*
X005850Y000850D03*
X006850Y000850D03*
D12*
X007972Y001050D03*
X010728Y001050D03*
D13*
X005700Y002169D03*
X005200Y002169D03*
X004700Y002169D03*
X004200Y002169D03*
X003700Y002169D03*
X003200Y002169D03*
X002700Y002169D03*
X002700Y004531D03*
X003200Y004531D03*
X003700Y004531D03*
X004200Y004531D03*
X004700Y004531D03*
X005200Y004531D03*
X005700Y004531D03*
D14*
X000665Y000347D02*
X010935Y000347D01*
X010888Y000300D02*
X000712Y000300D01*
X000300Y000712D01*
X000300Y005988D01*
X000712Y006400D01*
X010888Y006400D01*
X011300Y005988D01*
X011300Y000712D01*
X010888Y000300D01*
X011033Y000446D02*
X007082Y000446D01*
X007036Y000400D02*
X007300Y000664D01*
X007300Y001003D01*
X007468Y001171D01*
X007468Y000841D01*
X007763Y000546D01*
X008181Y000546D01*
X008476Y000841D01*
X008476Y001259D01*
X008181Y001554D01*
X007851Y001554D01*
X009560Y003263D01*
X009560Y003461D01*
X009651Y003370D01*
X009800Y003370D01*
X009800Y003800D01*
X009900Y003800D01*
X009900Y003900D01*
X009800Y003900D01*
X009800Y004303D01*
X009867Y004370D01*
X010049Y004370D01*
X010330Y004651D01*
X010330Y005049D01*
X010049Y005330D01*
X009651Y005330D01*
X009370Y005049D01*
X009370Y004651D01*
X009462Y004559D01*
X009263Y004360D01*
X009141Y004238D01*
X009049Y004330D01*
X008651Y004330D01*
X008370Y004049D01*
X008370Y003651D01*
X008651Y003370D01*
X009049Y003370D01*
X009140Y003461D01*
X009140Y003437D01*
X007003Y001300D01*
X006697Y001300D01*
X006437Y001560D01*
X005937Y001560D01*
X005910Y001587D01*
X005910Y001604D01*
X005980Y001674D01*
X005980Y002417D01*
X006023Y002374D01*
X006128Y002330D01*
X006241Y002330D01*
X006346Y002374D01*
X006426Y002454D01*
X006470Y002559D01*
X006470Y002672D01*
X006426Y002777D01*
X006346Y002857D01*
X006241Y002900D01*
X006182Y002900D01*
X006033Y003050D01*
X005217Y003050D01*
X005235Y003093D01*
X005235Y003207D01*
X005192Y003311D01*
X005111Y003392D01*
X005007Y003435D01*
X004893Y003435D01*
X004789Y003392D01*
X004757Y003360D01*
X004063Y003360D01*
X003940Y003237D01*
X003608Y002905D01*
X003608Y002905D01*
X003547Y002844D01*
X003535Y002832D01*
X003535Y002907D01*
X003492Y003011D01*
X003411Y003092D01*
X003307Y003135D01*
X003193Y003135D01*
X003089Y003092D01*
X003008Y003011D01*
X002965Y002907D01*
X002965Y002905D01*
X002942Y002961D01*
X002930Y002973D01*
X002930Y003105D01*
X003345Y003520D01*
X006112Y003520D01*
X006123Y003508D01*
X006228Y003465D01*
X006341Y003465D01*
X006446Y003508D01*
X006526Y003589D01*
X006570Y003693D01*
X006570Y003807D01*
X006526Y003911D01*
X006446Y003992D01*
X006341Y004035D01*
X006228Y004035D01*
X006123Y003992D01*
X006112Y003980D01*
X005924Y003980D01*
X005980Y004036D01*
X005980Y005026D01*
X005952Y005055D01*
X006037Y005140D01*
X006437Y005140D01*
X006697Y005400D01*
X007036Y005400D01*
X007276Y005640D01*
X008381Y005640D01*
X008651Y005370D01*
X009049Y005370D01*
X009330Y005651D01*
X009330Y006049D01*
X009049Y006330D01*
X008651Y006330D01*
X008381Y006060D01*
X007276Y006060D01*
X008381Y006060D01*
X008480Y006159D02*
X007178Y006159D01*
X007079Y006257D02*
X008578Y006257D01*
X009122Y006257D02*
X009578Y006257D01*
X009651Y006330D02*
X009370Y006049D01*
X009370Y005651D01*
X009651Y005370D01*
X010049Y005370D01*
X010330Y005651D01*
X010330Y006049D01*
X010049Y006330D01*
X009651Y006330D01*
X009480Y006159D02*
X009220Y006159D01*
X009319Y006060D02*
X009381Y006060D01*
X009370Y005962D02*
X009330Y005962D01*
X009330Y005863D02*
X009370Y005863D01*
X009370Y005765D02*
X009330Y005765D01*
X009330Y005666D02*
X009370Y005666D01*
X009454Y005568D02*
X009246Y005568D01*
X009148Y005469D02*
X009552Y005469D01*
X009651Y005371D02*
X009049Y005371D01*
X009049Y005330D02*
X008651Y005330D01*
X008370Y005049D01*
X008370Y004651D01*
X008651Y004370D01*
X009049Y004370D01*
X009330Y004651D01*
X009330Y005049D01*
X009049Y005330D01*
X009107Y005272D02*
X009593Y005272D01*
X009495Y005174D02*
X009205Y005174D01*
X009304Y005075D02*
X009396Y005075D01*
X009370Y004977D02*
X009330Y004977D01*
X009330Y004878D02*
X009370Y004878D01*
X009370Y004780D02*
X009330Y004780D01*
X009330Y004681D02*
X009370Y004681D01*
X009439Y004583D02*
X009261Y004583D01*
X009163Y004484D02*
X009387Y004484D01*
X009289Y004386D02*
X009064Y004386D01*
X009092Y004287D02*
X009190Y004287D01*
X009560Y003900D02*
X009800Y003900D01*
X009800Y003800D01*
X009560Y003800D01*
X009560Y003900D01*
X009560Y003893D02*
X009800Y003893D01*
X009800Y003795D02*
X009900Y003795D01*
X009900Y003800D02*
X009900Y003370D01*
X010049Y003370D01*
X010330Y003651D01*
X010330Y003800D01*
X009900Y003800D01*
X009900Y003893D02*
X011300Y003893D01*
X011300Y003795D02*
X010330Y003795D01*
X010330Y003900D02*
X010330Y004049D01*
X010049Y004330D01*
X009900Y004330D01*
X009900Y003900D01*
X010330Y003900D01*
X010330Y003992D02*
X011300Y003992D01*
X011300Y004090D02*
X010289Y004090D01*
X010190Y004189D02*
X011300Y004189D01*
X011300Y004287D02*
X010092Y004287D01*
X010064Y004386D02*
X011300Y004386D01*
X011300Y004484D02*
X010163Y004484D01*
X010261Y004583D02*
X011300Y004583D01*
X011300Y004681D02*
X010330Y004681D01*
X010330Y004780D02*
X011300Y004780D01*
X011300Y004878D02*
X010330Y004878D01*
X010330Y004977D02*
X011300Y004977D01*
X011300Y005075D02*
X010304Y005075D01*
X010205Y005174D02*
X011300Y005174D01*
X011300Y005272D02*
X010107Y005272D01*
X010049Y005371D02*
X011300Y005371D01*
X011300Y005469D02*
X010148Y005469D01*
X010246Y005568D02*
X011300Y005568D01*
X011300Y005666D02*
X010330Y005666D01*
X010330Y005765D02*
X011300Y005765D01*
X011300Y005863D02*
X010330Y005863D01*
X010330Y005962D02*
X011300Y005962D01*
X011228Y006060D02*
X010319Y006060D01*
X010220Y006159D02*
X011129Y006159D01*
X011031Y006257D02*
X010122Y006257D01*
X010932Y006356D02*
X000668Y006356D01*
X000664Y006300D02*
X000400Y006036D01*
X000400Y005900D01*
X000800Y005900D01*
X000800Y006300D01*
X000664Y006300D01*
X000621Y006257D02*
X000569Y006257D01*
X000522Y006159D02*
X000471Y006159D01*
X000424Y006060D02*
X000372Y006060D01*
X000400Y005962D02*
X000300Y005962D01*
X000300Y005863D02*
X000800Y005863D01*
X000800Y005900D02*
X000800Y005800D01*
X000900Y005800D01*
X000900Y005900D01*
X001300Y005900D01*
X001300Y006036D01*
X001036Y006300D01*
X000900Y006300D01*
X000900Y005900D01*
X000800Y005900D01*
X000800Y005962D02*
X000900Y005962D01*
X000900Y006060D02*
X000800Y006060D01*
X000800Y006159D02*
X000900Y006159D01*
X000900Y006257D02*
X000800Y006257D01*
X001079Y006257D02*
X001621Y006257D01*
X001664Y006300D02*
X001400Y006036D01*
X001400Y005664D01*
X001664Y005400D01*
X002003Y005400D01*
X002263Y005140D01*
X002863Y005140D01*
X002914Y005089D01*
X002888Y005104D01*
X002850Y005114D01*
X002715Y005114D01*
X002715Y004546D01*
X002685Y004546D01*
X002685Y004516D01*
X002715Y004516D01*
X002715Y003948D01*
X002850Y003948D01*
X002888Y003958D01*
X002922Y003978D01*
X002950Y004006D01*
X003008Y003948D01*
X003123Y003948D01*
X003020Y003845D01*
X002470Y003295D01*
X002470Y002973D01*
X002458Y002961D01*
X002415Y002857D01*
X002415Y002743D01*
X002440Y002684D01*
X002420Y002664D01*
X002420Y001674D01*
X002508Y001586D01*
X002889Y001586D01*
X002863Y001560D01*
X002263Y001560D01*
X002003Y001300D01*
X001664Y001300D01*
X001400Y001036D01*
X001400Y000664D01*
X001664Y000400D01*
X002036Y000400D01*
X002300Y000664D01*
X002300Y001003D01*
X002437Y001140D01*
X002504Y001140D01*
X002400Y001036D01*
X002400Y000664D01*
X002664Y000400D01*
X003036Y000400D01*
X003300Y000664D01*
X003300Y001003D01*
X003844Y001547D01*
X003883Y001586D01*
X003892Y001586D01*
X003950Y001644D01*
X003988Y001606D01*
X003986Y001300D01*
X003664Y001300D01*
X003400Y001036D01*
X003400Y000664D01*
X003664Y000400D01*
X004036Y000400D01*
X004300Y000664D01*
X004300Y001003D01*
X004344Y001047D01*
X004406Y001108D01*
X004406Y001109D01*
X004406Y001196D01*
X004408Y001601D01*
X004450Y001644D01*
X004490Y001604D01*
X004490Y001126D01*
X004400Y001036D01*
X004400Y000664D01*
X004664Y000400D01*
X005036Y000400D01*
X005300Y000664D01*
X005300Y001036D01*
X005036Y001300D01*
X004910Y001300D01*
X004910Y001604D01*
X004950Y001644D01*
X004990Y001604D01*
X004990Y001413D01*
X005400Y001003D01*
X005400Y000664D01*
X005664Y000400D01*
X006036Y000400D01*
X006300Y000664D01*
X006300Y001036D01*
X006196Y001140D01*
X006263Y001140D01*
X006400Y001003D01*
X006400Y000664D01*
X006664Y000400D01*
X007036Y000400D01*
X007180Y000544D02*
X011132Y000544D01*
X011034Y000643D02*
X011230Y000643D01*
X011300Y000741D02*
X011132Y000741D01*
X011231Y000840D02*
X011300Y000840D01*
X011232Y000841D02*
X011232Y001000D01*
X010778Y001000D01*
X010778Y001100D01*
X011232Y001100D01*
X011232Y001259D01*
X010937Y001554D01*
X010778Y001554D01*
X010778Y001100D01*
X010678Y001100D01*
X010678Y001554D01*
X010519Y001554D01*
X010224Y001259D01*
X010224Y001100D01*
X010678Y001100D01*
X010678Y001000D01*
X010778Y001000D01*
X010778Y000546D01*
X010937Y000546D01*
X011232Y000841D01*
X011232Y000938D02*
X011300Y000938D01*
X011300Y001037D02*
X010778Y001037D01*
X010778Y001135D02*
X010678Y001135D01*
X010678Y001037D02*
X008476Y001037D01*
X008476Y001135D02*
X010224Y001135D01*
X010224Y001234D02*
X008476Y001234D01*
X008403Y001332D02*
X010297Y001332D01*
X010395Y001431D02*
X008305Y001431D01*
X008206Y001529D02*
X010494Y001529D01*
X010678Y001529D02*
X010778Y001529D01*
X010778Y001431D02*
X010678Y001431D01*
X010678Y001332D02*
X010778Y001332D01*
X010778Y001234D02*
X010678Y001234D01*
X010678Y001000D02*
X010224Y001000D01*
X010224Y000841D01*
X010519Y000546D01*
X010678Y000546D01*
X010678Y001000D01*
X010678Y000938D02*
X010778Y000938D01*
X010778Y000840D02*
X010678Y000840D01*
X010678Y000741D02*
X010778Y000741D01*
X010778Y000643D02*
X010678Y000643D01*
X010422Y000643D02*
X008278Y000643D01*
X008376Y000741D02*
X010324Y000741D01*
X010225Y000840D02*
X008475Y000840D01*
X008476Y000938D02*
X010224Y000938D01*
X011061Y001431D02*
X011300Y001431D01*
X011300Y001529D02*
X010962Y001529D01*
X011159Y001332D02*
X011300Y001332D01*
X011300Y001234D02*
X011232Y001234D01*
X011232Y001135D02*
X011300Y001135D01*
X011300Y001628D02*
X007924Y001628D01*
X008023Y001726D02*
X011300Y001726D01*
X011300Y001825D02*
X008121Y001825D01*
X008220Y001923D02*
X011300Y001923D01*
X011300Y002022D02*
X008318Y002022D01*
X008417Y002120D02*
X011300Y002120D01*
X011300Y002219D02*
X008515Y002219D01*
X008614Y002317D02*
X011300Y002317D01*
X011300Y002416D02*
X008712Y002416D01*
X008811Y002514D02*
X011300Y002514D01*
X011300Y002613D02*
X008909Y002613D01*
X009008Y002711D02*
X011300Y002711D01*
X011300Y002810D02*
X009106Y002810D01*
X009205Y002908D02*
X011300Y002908D01*
X011300Y003007D02*
X009303Y003007D01*
X009402Y003105D02*
X011300Y003105D01*
X011300Y003204D02*
X009500Y003204D01*
X009560Y003302D02*
X011300Y003302D01*
X011300Y003401D02*
X010079Y003401D01*
X009900Y003401D02*
X009800Y003401D01*
X009800Y003499D02*
X009900Y003499D01*
X009900Y003598D02*
X009800Y003598D01*
X009800Y003696D02*
X009900Y003696D01*
X010178Y003499D02*
X011300Y003499D01*
X011300Y003598D02*
X010276Y003598D01*
X010330Y003696D02*
X011300Y003696D01*
X009900Y003992D02*
X009800Y003992D01*
X009800Y004090D02*
X009900Y004090D01*
X009900Y004189D02*
X009800Y004189D01*
X009800Y004287D02*
X009900Y004287D01*
X008636Y004386D02*
X005980Y004386D01*
X005980Y004484D02*
X008537Y004484D01*
X008439Y004583D02*
X005980Y004583D01*
X005980Y004681D02*
X008370Y004681D01*
X008370Y004780D02*
X005980Y004780D01*
X005980Y004878D02*
X008370Y004878D01*
X008370Y004977D02*
X005980Y004977D01*
X005972Y005075D02*
X008396Y005075D01*
X008495Y005174D02*
X006470Y005174D01*
X006569Y005272D02*
X008593Y005272D01*
X008651Y005371D02*
X006667Y005371D01*
X006271Y005568D02*
X006204Y005568D01*
X006196Y005560D02*
X006300Y005664D01*
X006300Y006036D01*
X006036Y006300D01*
X005664Y006300D01*
X005400Y006036D01*
X005400Y005697D01*
X004990Y005287D01*
X004990Y005096D01*
X004950Y005056D01*
X004910Y005096D01*
X004910Y005400D01*
X005036Y005400D01*
X005300Y005664D01*
X005300Y006036D01*
X005036Y006300D01*
X004664Y006300D01*
X004400Y006036D01*
X004400Y005664D01*
X004490Y005574D01*
X004490Y005096D01*
X004450Y005056D01*
X004410Y005096D01*
X004410Y005587D01*
X004300Y005697D01*
X004300Y006036D01*
X004036Y006300D01*
X003664Y006300D01*
X003400Y006036D01*
X003400Y005664D01*
X003664Y005400D01*
X003990Y005400D01*
X003990Y005096D01*
X003950Y005056D01*
X003892Y005114D01*
X003883Y005114D01*
X003300Y005697D01*
X003300Y006036D01*
X003036Y006300D01*
X002664Y006300D01*
X002400Y006036D01*
X002400Y005664D01*
X002504Y005560D01*
X002437Y005560D01*
X002300Y005697D01*
X002300Y006036D01*
X002036Y006300D01*
X001664Y006300D01*
X001522Y006159D02*
X001178Y006159D01*
X001276Y006060D02*
X001424Y006060D01*
X001400Y005962D02*
X001300Y005962D01*
X001400Y005863D02*
X000900Y005863D01*
X000900Y005800D02*
X001300Y005800D01*
X001300Y005664D01*
X001036Y005400D01*
X000900Y005400D01*
X000900Y005800D01*
X000900Y005765D02*
X000800Y005765D01*
X000800Y005800D02*
X000800Y005400D01*
X000664Y005400D01*
X000400Y005664D01*
X000400Y005800D01*
X000800Y005800D01*
X000800Y005666D02*
X000900Y005666D01*
X000900Y005568D02*
X000800Y005568D01*
X000800Y005469D02*
X000900Y005469D01*
X001105Y005469D02*
X001595Y005469D01*
X001496Y005568D02*
X001204Y005568D01*
X001300Y005666D02*
X001400Y005666D01*
X001400Y005765D02*
X001300Y005765D01*
X000595Y005469D02*
X000300Y005469D01*
X000300Y005371D02*
X002033Y005371D01*
X002131Y005272D02*
X000300Y005272D01*
X000300Y005174D02*
X002230Y005174D01*
X002450Y005056D02*
X002430Y005022D01*
X002420Y004984D01*
X002420Y004546D01*
X002685Y004546D01*
X002685Y005114D01*
X002550Y005114D01*
X002512Y005104D01*
X002478Y005084D01*
X002450Y005056D01*
X002469Y005075D02*
X000300Y005075D01*
X000300Y004977D02*
X002420Y004977D01*
X002420Y004878D02*
X000300Y004878D01*
X000300Y004780D02*
X002420Y004780D01*
X002420Y004681D02*
X000300Y004681D01*
X000300Y004583D02*
X002420Y004583D01*
X002420Y004516D02*
X002420Y004078D01*
X002430Y004040D01*
X002450Y004006D01*
X002478Y003978D01*
X002512Y003958D01*
X002550Y003948D01*
X002685Y003948D01*
X002685Y004516D01*
X002420Y004516D01*
X002420Y004484D02*
X000300Y004484D01*
X000300Y004386D02*
X002420Y004386D01*
X002420Y004287D02*
X001049Y004287D01*
X001036Y004300D02*
X000900Y004300D01*
X000900Y003900D01*
X000800Y003900D01*
X000800Y004300D01*
X000664Y004300D01*
X000400Y004036D01*
X000400Y003900D01*
X000800Y003900D01*
X000800Y003800D01*
X000400Y003800D01*
X000400Y003664D01*
X000664Y003400D01*
X000800Y003400D01*
X000800Y003800D01*
X000900Y003800D01*
X000900Y003900D01*
X001300Y003900D01*
X001300Y004036D01*
X001036Y004300D01*
X000900Y004287D02*
X000800Y004287D01*
X000800Y004189D02*
X000900Y004189D01*
X000900Y004090D02*
X000800Y004090D01*
X000800Y003992D02*
X000900Y003992D01*
X000900Y003893D02*
X003068Y003893D01*
X002969Y003795D02*
X001300Y003795D01*
X001300Y003800D02*
X000900Y003800D01*
X000900Y003400D01*
X001036Y003400D01*
X001300Y003664D01*
X001300Y003800D01*
X001300Y003696D02*
X002871Y003696D01*
X002772Y003598D02*
X001234Y003598D01*
X001135Y003499D02*
X002674Y003499D01*
X002575Y003401D02*
X001037Y003401D01*
X001036Y003300D02*
X000664Y003300D01*
X000400Y003036D01*
X000400Y002664D01*
X000620Y002444D01*
X000620Y001256D01*
X000400Y001036D01*
X000400Y000664D01*
X000664Y000400D01*
X001036Y000400D01*
X001300Y000664D01*
X001300Y001036D01*
X001080Y001256D01*
X001080Y002444D01*
X001300Y002664D01*
X001300Y003036D01*
X001036Y003300D01*
X001133Y003204D02*
X002470Y003204D01*
X002477Y003302D02*
X000300Y003302D01*
X000300Y003204D02*
X000567Y003204D01*
X000469Y003105D02*
X000300Y003105D01*
X000300Y003007D02*
X000400Y003007D01*
X000400Y002908D02*
X000300Y002908D01*
X000300Y002810D02*
X000400Y002810D01*
X000400Y002711D02*
X000300Y002711D01*
X000300Y002613D02*
X000451Y002613D01*
X000550Y002514D02*
X000300Y002514D01*
X000300Y002416D02*
X000620Y002416D01*
X000620Y002317D02*
X000300Y002317D01*
X000300Y002219D02*
X000620Y002219D01*
X000620Y002120D02*
X000300Y002120D01*
X000300Y002022D02*
X000620Y002022D01*
X000620Y001923D02*
X000300Y001923D01*
X000300Y001825D02*
X000620Y001825D01*
X000620Y001726D02*
X000300Y001726D01*
X000300Y001628D02*
X000620Y001628D01*
X000620Y001529D02*
X000300Y001529D01*
X000300Y001431D02*
X000620Y001431D01*
X000620Y001332D02*
X000300Y001332D01*
X000300Y001234D02*
X000597Y001234D01*
X000499Y001135D02*
X000300Y001135D01*
X000300Y001037D02*
X000400Y001037D01*
X000400Y000938D02*
X000300Y000938D01*
X000300Y000840D02*
X000400Y000840D01*
X000400Y000741D02*
X000300Y000741D01*
X000370Y000643D02*
X000421Y000643D01*
X000468Y000544D02*
X000520Y000544D01*
X000567Y000446D02*
X000618Y000446D01*
X001082Y000446D02*
X001618Y000446D01*
X001520Y000544D02*
X001180Y000544D01*
X001279Y000643D02*
X001421Y000643D01*
X001400Y000741D02*
X001300Y000741D01*
X001300Y000840D02*
X001400Y000840D01*
X001400Y000938D02*
X001300Y000938D01*
X001300Y001037D02*
X001400Y001037D01*
X001499Y001135D02*
X001201Y001135D01*
X001103Y001234D02*
X001597Y001234D01*
X002035Y001332D02*
X001080Y001332D01*
X001080Y001431D02*
X002134Y001431D01*
X002232Y001529D02*
X001080Y001529D01*
X001080Y001628D02*
X002466Y001628D01*
X002420Y001726D02*
X001080Y001726D01*
X001080Y001825D02*
X002420Y001825D01*
X002420Y001923D02*
X001080Y001923D01*
X001080Y002022D02*
X002420Y002022D01*
X002420Y002120D02*
X001080Y002120D01*
X001080Y002219D02*
X002420Y002219D01*
X002420Y002317D02*
X001080Y002317D01*
X001080Y002416D02*
X002420Y002416D01*
X002420Y002514D02*
X001150Y002514D01*
X001249Y002613D02*
X002420Y002613D01*
X002428Y002711D02*
X001300Y002711D01*
X001300Y002810D02*
X002415Y002810D01*
X002436Y002908D02*
X001300Y002908D01*
X001300Y003007D02*
X002470Y003007D01*
X002470Y003105D02*
X001231Y003105D01*
X000900Y003401D02*
X000800Y003401D01*
X000663Y003401D02*
X000300Y003401D01*
X000300Y003499D02*
X000565Y003499D01*
X000466Y003598D02*
X000300Y003598D01*
X000300Y003696D02*
X000400Y003696D01*
X000400Y003795D02*
X000300Y003795D01*
X000300Y003893D02*
X000800Y003893D01*
X000800Y003795D02*
X000900Y003795D01*
X000900Y003696D02*
X000800Y003696D01*
X000800Y003598D02*
X000900Y003598D01*
X000900Y003499D02*
X000800Y003499D01*
X000400Y003992D02*
X000300Y003992D01*
X000300Y004090D02*
X000454Y004090D01*
X000552Y004189D02*
X000300Y004189D01*
X000300Y004287D02*
X000651Y004287D01*
X001148Y004189D02*
X002420Y004189D01*
X002420Y004090D02*
X001246Y004090D01*
X001300Y003992D02*
X002464Y003992D01*
X002685Y003992D02*
X002715Y003992D01*
X002715Y004090D02*
X002685Y004090D01*
X002685Y004189D02*
X002715Y004189D01*
X002715Y004287D02*
X002685Y004287D01*
X002685Y004386D02*
X002715Y004386D01*
X002715Y004484D02*
X002685Y004484D01*
X002685Y004583D02*
X002715Y004583D01*
X002715Y004681D02*
X002685Y004681D01*
X002685Y004780D02*
X002715Y004780D01*
X002715Y004878D02*
X002685Y004878D01*
X002685Y004977D02*
X002715Y004977D01*
X002715Y005075D02*
X002685Y005075D01*
X002496Y005568D02*
X002429Y005568D01*
X002400Y005666D02*
X002331Y005666D01*
X002300Y005765D02*
X002400Y005765D01*
X002400Y005863D02*
X002300Y005863D01*
X002300Y005962D02*
X002400Y005962D01*
X002424Y006060D02*
X002276Y006060D01*
X002178Y006159D02*
X002522Y006159D01*
X002621Y006257D02*
X002079Y006257D01*
X003079Y006257D02*
X003621Y006257D01*
X003522Y006159D02*
X003178Y006159D01*
X003276Y006060D02*
X003424Y006060D01*
X003400Y005962D02*
X003300Y005962D01*
X003300Y005863D02*
X003400Y005863D01*
X003400Y005765D02*
X003300Y005765D01*
X003331Y005666D02*
X003400Y005666D01*
X003429Y005568D02*
X003496Y005568D01*
X003528Y005469D02*
X003595Y005469D01*
X003626Y005371D02*
X003990Y005371D01*
X003990Y005272D02*
X003725Y005272D01*
X003823Y005174D02*
X003990Y005174D01*
X003969Y005075D02*
X003931Y005075D01*
X004410Y005174D02*
X004490Y005174D01*
X004469Y005075D02*
X004431Y005075D01*
X004410Y005272D02*
X004490Y005272D01*
X004490Y005371D02*
X004410Y005371D01*
X004410Y005469D02*
X004490Y005469D01*
X004490Y005568D02*
X004410Y005568D01*
X004400Y005666D02*
X004331Y005666D01*
X004300Y005765D02*
X004400Y005765D01*
X004400Y005863D02*
X004300Y005863D01*
X004300Y005962D02*
X004400Y005962D01*
X004424Y006060D02*
X004276Y006060D01*
X004178Y006159D02*
X004522Y006159D01*
X004621Y006257D02*
X004079Y006257D01*
X005079Y006257D02*
X005621Y006257D01*
X005522Y006159D02*
X005178Y006159D01*
X005276Y006060D02*
X005424Y006060D01*
X005400Y005962D02*
X005300Y005962D01*
X005300Y005863D02*
X005400Y005863D01*
X005400Y005765D02*
X005300Y005765D01*
X005300Y005666D02*
X005369Y005666D01*
X005271Y005568D02*
X005204Y005568D01*
X005172Y005469D02*
X005105Y005469D01*
X005074Y005371D02*
X004910Y005371D01*
X004910Y005272D02*
X004990Y005272D01*
X004990Y005174D02*
X004910Y005174D01*
X004931Y005075D02*
X004969Y005075D01*
X005980Y004287D02*
X008608Y004287D01*
X008510Y004189D02*
X005980Y004189D01*
X005980Y004090D02*
X008411Y004090D01*
X008370Y003992D02*
X006446Y003992D01*
X006534Y003893D02*
X008370Y003893D01*
X008370Y003795D02*
X006570Y003795D01*
X006570Y003696D02*
X008370Y003696D01*
X008424Y003598D02*
X006530Y003598D01*
X006423Y003499D02*
X008522Y003499D01*
X008621Y003401D02*
X005090Y003401D01*
X005196Y003302D02*
X009005Y003302D01*
X009079Y003401D02*
X009104Y003401D01*
X008907Y003204D02*
X005235Y003204D01*
X005235Y003105D02*
X008808Y003105D01*
X008710Y003007D02*
X006076Y003007D01*
X006175Y002908D02*
X008611Y002908D01*
X008513Y002810D02*
X006394Y002810D01*
X006454Y002711D02*
X008414Y002711D01*
X008316Y002613D02*
X006470Y002613D01*
X006451Y002514D02*
X008217Y002514D01*
X008119Y002416D02*
X006388Y002416D01*
X006185Y002615D02*
X005950Y002850D01*
X004450Y002850D01*
X004196Y002596D01*
X004200Y002169D01*
X004434Y001628D02*
X004466Y001628D01*
X004490Y001529D02*
X004407Y001529D01*
X004407Y001431D02*
X004490Y001431D01*
X004490Y001332D02*
X004407Y001332D01*
X004406Y001234D02*
X004490Y001234D01*
X004490Y001135D02*
X004406Y001135D01*
X004406Y001109D02*
X004406Y001109D01*
X004400Y001037D02*
X004333Y001037D01*
X004300Y000938D02*
X004400Y000938D01*
X004400Y000840D02*
X004300Y000840D01*
X004300Y000741D02*
X004400Y000741D01*
X004421Y000643D02*
X004279Y000643D01*
X004180Y000544D02*
X004520Y000544D01*
X004618Y000446D02*
X004082Y000446D01*
X003618Y000446D02*
X003082Y000446D01*
X003180Y000544D02*
X003520Y000544D01*
X003421Y000643D02*
X003279Y000643D01*
X003300Y000741D02*
X003400Y000741D01*
X003400Y000840D02*
X003300Y000840D01*
X003300Y000938D02*
X003400Y000938D01*
X003400Y001037D02*
X003333Y001037D01*
X003432Y001135D02*
X003499Y001135D01*
X003530Y001234D02*
X003597Y001234D01*
X003629Y001332D02*
X003987Y001332D01*
X003987Y001431D02*
X003727Y001431D01*
X003826Y001529D02*
X003987Y001529D01*
X003966Y001628D02*
X003934Y001628D01*
X004910Y001529D02*
X004990Y001529D01*
X004990Y001431D02*
X004910Y001431D01*
X004910Y001332D02*
X005071Y001332D01*
X005103Y001234D02*
X005170Y001234D01*
X005201Y001135D02*
X005268Y001135D01*
X005300Y001037D02*
X005367Y001037D01*
X005400Y000938D02*
X005300Y000938D01*
X005300Y000840D02*
X005400Y000840D01*
X005400Y000741D02*
X005300Y000741D01*
X005279Y000643D02*
X005421Y000643D01*
X005520Y000544D02*
X005180Y000544D01*
X005082Y000446D02*
X005618Y000446D01*
X006082Y000446D02*
X006618Y000446D01*
X006520Y000544D02*
X006180Y000544D01*
X006279Y000643D02*
X006421Y000643D01*
X006400Y000741D02*
X006300Y000741D01*
X006300Y000840D02*
X006400Y000840D01*
X006400Y000938D02*
X006300Y000938D01*
X006300Y001037D02*
X006367Y001037D01*
X006268Y001135D02*
X006201Y001135D01*
X006566Y001431D02*
X007134Y001431D01*
X007232Y001529D02*
X006468Y001529D01*
X006665Y001332D02*
X007035Y001332D01*
X007331Y001628D02*
X005934Y001628D01*
X005980Y001726D02*
X007429Y001726D01*
X007528Y001825D02*
X005980Y001825D01*
X005980Y001923D02*
X007626Y001923D01*
X007725Y002022D02*
X005980Y002022D01*
X005980Y002120D02*
X007823Y002120D01*
X007922Y002219D02*
X005980Y002219D01*
X005980Y002317D02*
X008020Y002317D01*
X009560Y003401D02*
X009621Y003401D01*
X008552Y005469D02*
X007105Y005469D01*
X007204Y005568D02*
X008454Y005568D01*
X007276Y006060D02*
X007036Y006300D01*
X006664Y006300D01*
X006400Y006036D01*
X006400Y005697D01*
X006263Y005560D01*
X006196Y005560D01*
X006300Y005666D02*
X006369Y005666D01*
X006400Y005765D02*
X006300Y005765D01*
X006300Y005863D02*
X006400Y005863D01*
X006400Y005962D02*
X006300Y005962D01*
X006276Y006060D02*
X006424Y006060D01*
X006522Y006159D02*
X006178Y006159D01*
X006079Y006257D02*
X006621Y006257D01*
X006123Y003992D02*
X005936Y003992D01*
X006146Y003499D02*
X003324Y003499D01*
X003226Y003401D02*
X004810Y003401D01*
X004005Y003302D02*
X003127Y003302D01*
X003029Y003204D02*
X003907Y003204D01*
X003808Y003105D02*
X003379Y003105D01*
X003494Y003007D02*
X003710Y003007D01*
X003611Y002908D02*
X003534Y002908D01*
X003121Y003105D02*
X002930Y003105D01*
X002930Y003007D02*
X003006Y003007D01*
X002966Y002908D02*
X002964Y002908D01*
X002936Y003992D02*
X002964Y003992D01*
X002950Y004006D02*
X002950Y004006D01*
X000496Y005568D02*
X000300Y005568D01*
X000300Y005666D02*
X000400Y005666D01*
X000400Y005765D02*
X000300Y005765D01*
X005980Y002416D02*
X005981Y002416D01*
X004966Y001628D02*
X004934Y001628D01*
X007300Y000938D02*
X007468Y000938D01*
X007469Y000840D02*
X007300Y000840D01*
X007300Y000741D02*
X007568Y000741D01*
X007666Y000643D02*
X007279Y000643D01*
X007333Y001037D02*
X007468Y001037D01*
X007468Y001135D02*
X007432Y001135D01*
X002618Y000446D02*
X002082Y000446D01*
X002180Y000544D02*
X002520Y000544D01*
X002421Y000643D02*
X002279Y000643D01*
X002300Y000741D02*
X002400Y000741D01*
X002400Y000840D02*
X002300Y000840D01*
X002300Y000938D02*
X002400Y000938D01*
X002400Y001037D02*
X002333Y001037D01*
X002432Y001135D02*
X002499Y001135D01*
D15*
X002700Y002169D02*
X002700Y002800D01*
X002700Y003200D01*
X003250Y003750D01*
X006285Y003750D01*
X003250Y002850D02*
X003196Y002796D01*
X003200Y002169D01*
X000850Y002850D02*
X000850Y000850D01*
D16*
X002700Y002800D03*
X003250Y002850D03*
X004950Y003150D03*
X006185Y002615D03*
X006285Y003750D03*
D17*
X005700Y004531D02*
X005700Y005100D01*
X005950Y005350D01*
X006350Y005350D01*
X006850Y005850D01*
X008850Y005850D01*
X009850Y004850D02*
X009850Y004650D01*
X009350Y004150D01*
X009350Y003350D01*
X006850Y000850D01*
X006350Y001350D01*
X005850Y001350D01*
X005700Y001500D01*
X005700Y002169D01*
X005200Y002169D02*
X005200Y001500D01*
X005850Y000850D01*
X004850Y000850D02*
X004700Y001000D01*
X004700Y002169D01*
X004200Y002169D02*
X004196Y001196D01*
X003850Y000850D01*
X003196Y001596D02*
X002950Y001350D01*
X002350Y001350D01*
X001850Y000850D01*
X002850Y000850D02*
X003696Y001696D01*
X003700Y002169D01*
X003696Y002696D01*
X004150Y003150D01*
X004950Y003150D01*
X003200Y002169D02*
X003196Y001596D01*
X003200Y004531D02*
X003200Y005100D01*
X002950Y005350D01*
X002350Y005350D01*
X001850Y005850D01*
X002850Y005850D02*
X003700Y005000D01*
X003700Y004531D01*
X004200Y004531D02*
X004200Y005500D01*
X003850Y005850D01*
X004700Y005700D02*
X004850Y005850D01*
X004700Y005700D02*
X004700Y004531D01*
X005200Y004531D02*
X005200Y005200D01*
X005850Y005850D01*
M02*
